M48
METRIC,LZ,000.000
;FILE_FORMAT=3:3
;TYPE=PLATED
;Layer: PTH_Through_Via
;EasyEDA v6.5.22, 2022-12-22 19:42:36
;63d54b84b90b4e81b1216e971f4bcc08,b137401b17fb4d15a04862e99c0880a0,10
;Gerber Generator version 0.2
;Holesize 1 = 0.200 mm
T01C0.200
%
G05
G90
T01
X011424Y-011500
X026000Y-034500
X026000Y-032000
X022000Y-032000
X022000Y-036000
X012000Y-036000
X008000Y-036000
X008000Y-030000
X010000Y-030000
X006000Y016000
X-004000Y016000
X-004000Y018000
X021999Y014001
X031499Y013001
X031499Y015501
X021999Y018001
X010000Y025000
X022000Y025000
X-027250Y-036000
X-032000Y-036000
X-029000Y-039500
X-038000Y-042000
X-038000Y-040000
X-018000Y-046000
X-018000Y-044000
X-014000Y-036000
X-022500Y-030000
X-009000Y-031000
X-002000Y-030500
X-003500Y-030500
X042000Y-028000
X042000Y-026000
X027500Y-029500
X028500Y-029500
X029500Y-029500
X029500Y-018500
X031000Y-026000
X028500Y-022000
X029500Y-022000
X030000Y-026000
X022000Y-022000
X022000Y-026000
X012000Y-026000
X-006500Y-026000
X-018000Y-026000
X-029500Y-026000
X-030500Y-021500
X-023000Y-021500
X-013000Y-021500
X-008000Y-021500
X004000Y-026000
X004000Y-021000
X023000Y-013000
X014000Y-010000
X-022500Y-033000
X-020250Y-030000
X-017750Y-030000
X-014000Y-037750
X036000Y-030500
X029500Y-035000
X029500Y-034000
X029500Y-032500
X029500Y-031500
X033000Y-030000
X032000Y-030000
X031000Y-030000
X042500Y-043500
X033500Y-018000
X032500Y-018000
X033500Y-021500
X032500Y-021500
X031500Y-021500
X004000Y-047000
X002000Y-041750
X001500Y-040250
X000500Y-041000
X-005000Y-042000
X-009500Y-043500
X-014500Y-048500
X-018500Y-048500
X-019500Y-009500
X-014000Y-035000
X-026000Y-041000
X-025000Y-048000
X-024000Y-048000
X-025000Y-042000
X-036500Y-041500
X-008500Y-035000
X-010250Y-034500
X-016000Y-041000
X030500Y-046500
X016000Y-036000
X017500Y-033500
X017500Y-038500
X-010250Y-037000
X-008500Y-037000
X017000Y-007000
X020250Y-046500
X019500Y-045000
X021000Y-043500
X038000Y-031500
X035000Y-032500
X-025500Y-031000
X-016500Y-030567
X029999Y013751
X003000Y013000
X004000Y014000
X009000Y025000
X021000Y025000
X002000Y018500
X000500Y018500
X-001500Y007500
X-003000Y007500
X-013000Y-014500
X-013000Y-015500
X-012000Y-016000
X-011000Y-016000
X-021500Y-026000
X-022375Y-026000
X-023500Y-026000
X-024500Y-026000
X-033000Y-039000
X-035000Y-039000
X-019500Y-037500
X-020000Y-038000
X-034000Y-041500
X-033250Y-044500
X-017500Y-038000
X-015000Y-044000
X-019000Y-044000
X-018500Y-038000
X-021500Y-038500
X-025500Y-035000
X-025500Y-038933
X004500Y-011501
X003500Y-007000
X-019500Y-013501
X-019500Y-010501
X-007500Y-013501
X-007500Y-010501
X030500Y-010501
X030500Y-013501
X020500Y-010500
X020500Y-013500
X018000Y-014000
X018000Y-010000
X018000Y-012000
X-022000Y-012000
X-022000Y-010000
X-022000Y-014500
X-010000Y-012000
X-010000Y-010000
X-010000Y-014500
X028000Y-012000
X028000Y-010000
X027750Y-014500
X027904Y011906
X-005500Y-004000
X-004500Y-004000
X-003500Y-004000
X-002500Y-004000
X015500Y016500
X014000Y016500
X017500Y021500
X017500Y023000
X008750Y-003750
X009750Y-003750
X010500Y-004500
X011250Y-005250
X042500Y007000
X043500Y009500
X042000Y016500
X042000Y017500
X-013500Y-008000
X-010500Y-008000
X-011500Y-008000
X-012500Y-008000
X-011500Y-031500
X-012500Y-030500
X-013500Y-030500
X-014500Y-030500
X-022000Y-034500
X-021000Y-033500
X025999Y015001
X027999Y016001
X028500Y-008500
X029250Y-009250
X026499Y006001
X023499Y008001
X026250Y-007000
X027000Y-007500
X016000Y-007000
X018000Y-007000
X019000Y-007000
X019000Y-008000
X020000Y-008000
X021500Y-008500
X021000Y-009500
X-031000Y-025000
X-026500Y-014500
X-019500Y-025000
X-019000Y-015000
X-011000Y-017000
X-010000Y-017000
X-009000Y-017000
X-008000Y-017000
X-009000Y-024500
X-010000Y-024500
X-011000Y-024500
X-012000Y-024500
X014500Y-015500
X-013000Y-025250
X018500Y-023000
X017500Y-022000
X016000Y-024500
X015000Y-024500
X014000Y-024500
X013000Y-024500
X009000Y-016000
X010000Y-016000
X011000Y-016000
X012000Y-016000
X018500Y-017500
X017500Y-017500
X023500Y-017000
X025500Y-017000
X024500Y-024500
X024500Y-017000
X022500Y-024500
X023500Y-024500
X025500Y-024500
X026500Y-017000
X027500Y-017000
X026500Y-024500
X027500Y-024500
X028500Y-017000
X028500Y-026000
X030500Y-018000
M30
