M48
METRIC,LZ,000.000
;FILE_FORMAT=3:3
;TYPE=PLATED
;Layer: PTH_Through
;EasyEDA v6.5.22, 2022-12-22 19:42:36
;63d54b84b90b4e81b1216e971f4bcc08,b137401b17fb4d15a04862e99c0880a0,10
;Gerber Generator version 0.2
;Holesize 1 = 0.701 mm
T01C0.701
;Holesize 2 = 0.889 mm
T02C0.889
;Holesize 3 = 1.101 mm
T03C1.101
;Holesize 4 = 1.200 mm
T04C1.200
;Holesize 5 = 2.200 mm
T05C2.200
;Holesize 6 = 3.200 mm
T06C3.200
%
G05
G90
T01
X-038320Y-048265G85X-038320Y-047565
X-029680Y-048265G85X-029680Y-047565
X-029680Y-044235G85X-029680Y-043235
X-038320Y-044235G85X-038320Y-043235
T02
X049271Y-028131
X046731Y-028131
X049271Y-025591
X046731Y-025591
X049271Y-023051
X046731Y-023051
X049271Y-020511
X046731Y-020511
X049271Y-017971
X046731Y-017971
X049271Y-015431
X046731Y-015431
X049271Y-012891
X046731Y-012891
X049271Y-010351
X046731Y-010351
X049271Y-007811
X046731Y-007811
X049271Y-005271
X046731Y-005271
X049271Y-002731
X046731Y-002731
X049271Y-000191
X046731Y-000191
X049271Y002349
X046731Y002349
X049271Y004889
X046731Y004889
X049271Y007429
X046731Y007429
X049271Y009969
X046731Y009969
X049271Y012509
X046731Y012509
X049271Y015049
X046731Y015049
X049271Y017589
X046731Y017589
X049271Y020129
X046731Y020129
X038001Y029349
X038001Y026809
X038001Y024269
X038001Y021729
X038001Y019189
X038001Y016649
T03
X035730Y-046000
X038270Y-046000
T04
X008189Y-044001
X010729Y-044001
X013269Y-044001
X015809Y-044001
T05
X032000Y020000
X-032000Y020000
T06
X-040000Y-036000
X048500Y-036000
X048000Y028000
X-040000Y028000
M30
