G04 Layer: TopPasteMaskLayer*
G04 EasyEDA v6.5.22, 2022-12-22 19:42:36*
G04 63d54b84b90b4e81b1216e971f4bcc08,b137401b17fb4d15a04862e99c0880a0,10*
G04 Gerber Generator version 0.2*
G04 Scale: 100 percent, Rotated: No, Reflected: No *
G04 Dimensions in millimeters *
G04 leading zeros omitted , absolute positions ,4 integer and 5 decimal *
%FSLAX45Y45*%
%MOMM*%

%ADD10R,2.0000X3.5000*%
%ADD11R,0.3000X1.8000*%
%ADD12R,1.1000X1.5240*%
%ADD13R,1.5000X1.0000*%
%ADD14R,0.8000X1.0000*%
%ADD15R,1.5500X1.0000*%
%ADD16R,2.1500X0.9500*%
%ADD17R,2.2000X3.2500*%
%ADD18R,0.8000X0.9000*%
%ADD19R,0.6000X1.5500*%
%ADD20R,1.2000X1.8000*%
%ADD21R,0.9000X0.8000*%
%ADD22R,1.6000X3.2000*%
%ADD23O,0.27000199999999996X1.499997*%
%ADD24O,1.499997X0.27000199999999996*%
%ADD25O,0.36400740000000004X1.7420082*%
%ADD26R,1.7000X2.4000*%
%ADD27R,0.5000X0.3000*%
%ADD28R,3.0000X0.7000*%
%ADD29R,0.2000X1.1000*%
%ADD30R,0.2000X1.0000*%
%ADD31O,0.6299962X1.8649950000000002*%
%ADD32R,0.7000X1.8000*%
%ADD33R,0.0191X1.8000*%

%LPD*%
G36*
X-3744976Y-4249013D02*
G01*
X-3744976Y-4367987D01*
X-3694988Y-4367987D01*
X-3694988Y-4249013D01*
G37*
G36*
X-3104946Y-4249013D02*
G01*
X-3104946Y-4367987D01*
X-3054959Y-4367987D01*
X-3054959Y-4249013D01*
G37*
G36*
X-3184956Y-4249013D02*
G01*
X-3184956Y-4368038D01*
X-3134969Y-4368038D01*
X-3134969Y-4249013D01*
G37*
G36*
X-3664965Y-4249013D02*
G01*
X-3664965Y-4367987D01*
X-3614978Y-4367987D01*
X-3614978Y-4249013D01*
G37*
G36*
X-3239973Y-4243984D02*
G01*
X-3239973Y-4373016D01*
X-3210001Y-4373016D01*
X-3210001Y-4243984D01*
G37*
G36*
X-3389985Y-4243984D02*
G01*
X-3389985Y-4373016D01*
X-3360013Y-4373016D01*
X-3360013Y-4243984D01*
G37*
G36*
X-3439972Y-4243984D02*
G01*
X-3439972Y-4373016D01*
X-3410000Y-4373016D01*
X-3410000Y-4243984D01*
G37*
G36*
X-3490010Y-4243984D02*
G01*
X-3490010Y-4373016D01*
X-3459987Y-4373016D01*
X-3459987Y-4243984D01*
G37*
G36*
X-3589985Y-4243984D02*
G01*
X-3589985Y-4373016D01*
X-3560013Y-4373016D01*
X-3560013Y-4243984D01*
G37*
G36*
X-3339998Y-4243984D02*
G01*
X-3339998Y-4373016D01*
X-3309975Y-4373016D01*
X-3309975Y-4243984D01*
G37*
G36*
X-3290011Y-4243984D02*
G01*
X-3290011Y-4373016D01*
X-3260039Y-4373016D01*
X-3260039Y-4243984D01*
G37*
G36*
X-3539998Y-4243984D02*
G01*
X-3539998Y-4373016D01*
X-3509975Y-4373016D01*
X-3509975Y-4243984D01*
G37*
G36*
X-3833469Y-4273499D02*
G01*
X-3839464Y-4273956D01*
X-3845356Y-4274972D01*
X-3851097Y-4276598D01*
X-3856685Y-4278782D01*
X-3862019Y-4281525D01*
X-3866997Y-4284776D01*
X-3871722Y-4288485D01*
X-3875989Y-4292701D01*
X-3879799Y-4297273D01*
X-3883202Y-4302201D01*
X-3886047Y-4307433D01*
X-3888384Y-4312970D01*
X-3890162Y-4318660D01*
X-3891330Y-4324553D01*
X-3891940Y-4330496D01*
X-3891991Y-4413504D01*
X-3891686Y-4419447D01*
X-3890822Y-4425391D01*
X-3889349Y-4431182D01*
X-3887266Y-4436770D01*
X-3884676Y-4442206D01*
X-3881577Y-4447286D01*
X-3877970Y-4452061D01*
X-3873906Y-4456430D01*
X-3869385Y-4460392D01*
X-3864559Y-4463897D01*
X-3859377Y-4466894D01*
X-3853891Y-4469333D01*
X-3848252Y-4471263D01*
X-3842410Y-4472584D01*
X-3836466Y-4473295D01*
X-3830523Y-4473448D01*
X-3824528Y-4473041D01*
X-3818636Y-4471974D01*
X-3812895Y-4470349D01*
X-3807307Y-4468164D01*
X-3801973Y-4465421D01*
X-3796995Y-4462221D01*
X-3792270Y-4458462D01*
X-3788003Y-4454296D01*
X-3784193Y-4449724D01*
X-3780790Y-4444746D01*
X-3777945Y-4439513D01*
X-3775608Y-4434027D01*
X-3773830Y-4428286D01*
X-3772662Y-4422444D01*
X-3772052Y-4416450D01*
X-3772001Y-4333494D01*
X-3772306Y-4327499D01*
X-3773170Y-4321606D01*
X-3774643Y-4315815D01*
X-3776726Y-4310176D01*
X-3779316Y-4304792D01*
X-3782415Y-4299661D01*
X-3786022Y-4294936D01*
X-3790086Y-4290517D01*
X-3794607Y-4286554D01*
X-3799433Y-4283100D01*
X-3804615Y-4280103D01*
X-3810101Y-4277614D01*
X-3815740Y-4275734D01*
X-3821582Y-4274413D01*
X-3827526Y-4273651D01*
G37*
G36*
X-2969463Y-4273499D02*
G01*
X-2975457Y-4273956D01*
X-2981350Y-4274972D01*
X-2987090Y-4276598D01*
X-2992678Y-4278782D01*
X-2998012Y-4281525D01*
X-3002991Y-4284776D01*
X-3007715Y-4288485D01*
X-3011982Y-4292701D01*
X-3015843Y-4297273D01*
X-3019196Y-4302201D01*
X-3022041Y-4307433D01*
X-3024378Y-4312970D01*
X-3026156Y-4318660D01*
X-3027324Y-4324553D01*
X-3027934Y-4330496D01*
X-3027984Y-4413504D01*
X-3027680Y-4419447D01*
X-3026816Y-4425391D01*
X-3025343Y-4431182D01*
X-3023260Y-4436770D01*
X-3020669Y-4442206D01*
X-3017570Y-4447286D01*
X-3013964Y-4452061D01*
X-3009900Y-4456430D01*
X-3005378Y-4460392D01*
X-3000552Y-4463897D01*
X-2995371Y-4466894D01*
X-2989935Y-4469333D01*
X-2984246Y-4471263D01*
X-2978404Y-4472584D01*
X-2972460Y-4473295D01*
X-2966516Y-4473448D01*
X-2960522Y-4473041D01*
X-2954629Y-4471974D01*
X-2948889Y-4470349D01*
X-2943301Y-4468164D01*
X-2937967Y-4465421D01*
X-2932988Y-4462221D01*
X-2928264Y-4458462D01*
X-2923997Y-4454296D01*
X-2920187Y-4449724D01*
X-2916783Y-4444746D01*
X-2913938Y-4439513D01*
X-2911602Y-4434027D01*
X-2909824Y-4428286D01*
X-2908655Y-4422444D01*
X-2908046Y-4416450D01*
X-2907995Y-4333494D01*
X-2908300Y-4327499D01*
X-2909163Y-4321606D01*
X-2910636Y-4315815D01*
X-2912719Y-4310176D01*
X-2915310Y-4304792D01*
X-2918409Y-4299661D01*
X-2922016Y-4294936D01*
X-2926080Y-4290517D01*
X-2930601Y-4286554D01*
X-2935427Y-4283100D01*
X-2940608Y-4280103D01*
X-2946095Y-4277614D01*
X-2951734Y-4275734D01*
X-2957576Y-4274413D01*
X-2963519Y-4273651D01*
G37*
G36*
X-3833469Y-4701489D02*
G01*
X-3839464Y-4701946D01*
X-3845356Y-4703013D01*
X-3851097Y-4704638D01*
X-3856685Y-4706823D01*
X-3862019Y-4709515D01*
X-3866997Y-4712766D01*
X-3871722Y-4716526D01*
X-3875989Y-4720691D01*
X-3879799Y-4725263D01*
X-3883202Y-4730191D01*
X-3886047Y-4735474D01*
X-3888384Y-4740960D01*
X-3890162Y-4746701D01*
X-3891330Y-4752543D01*
X-3891940Y-4758486D01*
X-3891991Y-4821478D01*
X-3891686Y-4827473D01*
X-3890822Y-4833366D01*
X-3889349Y-4839157D01*
X-3887266Y-4844796D01*
X-3884676Y-4850180D01*
X-3881577Y-4855311D01*
X-3877970Y-4860036D01*
X-3873906Y-4864455D01*
X-3869385Y-4868418D01*
X-3864559Y-4871872D01*
X-3859377Y-4874869D01*
X-3853891Y-4877358D01*
X-3848252Y-4879238D01*
X-3842410Y-4880559D01*
X-3836466Y-4881321D01*
X-3830523Y-4881473D01*
X-3824528Y-4881016D01*
X-3818636Y-4880000D01*
X-3812895Y-4878374D01*
X-3807307Y-4876190D01*
X-3801973Y-4873447D01*
X-3796995Y-4870196D01*
X-3792270Y-4866487D01*
X-3788003Y-4862322D01*
X-3784193Y-4857699D01*
X-3780790Y-4852771D01*
X-3777945Y-4847539D01*
X-3775608Y-4842002D01*
X-3773830Y-4836312D01*
X-3772662Y-4830419D01*
X-3772052Y-4824476D01*
X-3772001Y-4761484D01*
X-3772306Y-4755540D01*
X-3773170Y-4749596D01*
X-3774643Y-4743805D01*
X-3776726Y-4738166D01*
X-3779316Y-4732782D01*
X-3782415Y-4727702D01*
X-3786022Y-4722926D01*
X-3790086Y-4718558D01*
X-3794607Y-4714595D01*
X-3799433Y-4711090D01*
X-3804615Y-4708093D01*
X-3810101Y-4705654D01*
X-3815740Y-4703724D01*
X-3821582Y-4702403D01*
X-3827526Y-4701641D01*
G37*
G36*
X-2969463Y-4701489D02*
G01*
X-2975457Y-4701946D01*
X-2981350Y-4703013D01*
X-2987090Y-4704638D01*
X-2992678Y-4706823D01*
X-2998012Y-4709515D01*
X-3002991Y-4712766D01*
X-3007715Y-4716526D01*
X-3011982Y-4720691D01*
X-3015843Y-4725263D01*
X-3019196Y-4730191D01*
X-3022041Y-4735474D01*
X-3024378Y-4740960D01*
X-3026156Y-4746701D01*
X-3027324Y-4752543D01*
X-3027934Y-4758486D01*
X-3027984Y-4821478D01*
X-3027680Y-4827473D01*
X-3026816Y-4833366D01*
X-3025343Y-4839157D01*
X-3023260Y-4844796D01*
X-3020669Y-4850180D01*
X-3017570Y-4855311D01*
X-3013964Y-4860036D01*
X-3009900Y-4864455D01*
X-3005378Y-4868418D01*
X-3000552Y-4871872D01*
X-2995371Y-4874869D01*
X-2989935Y-4877358D01*
X-2984246Y-4879238D01*
X-2978404Y-4880559D01*
X-2972460Y-4881321D01*
X-2966516Y-4881473D01*
X-2960522Y-4881016D01*
X-2954629Y-4880000D01*
X-2948889Y-4878374D01*
X-2943301Y-4876190D01*
X-2937967Y-4873447D01*
X-2932988Y-4870196D01*
X-2928264Y-4866487D01*
X-2923997Y-4862322D01*
X-2920187Y-4857699D01*
X-2916783Y-4852771D01*
X-2913938Y-4847539D01*
X-2911602Y-4842002D01*
X-2909824Y-4836312D01*
X-2908655Y-4830419D01*
X-2908046Y-4824476D01*
X-2907995Y-4761484D01*
X-2908300Y-4755540D01*
X-2909163Y-4749596D01*
X-2910636Y-4743805D01*
X-2912719Y-4738166D01*
X-2915310Y-4732782D01*
X-2918409Y-4727702D01*
X-2922016Y-4722926D01*
X-2926080Y-4718558D01*
X-2930601Y-4714595D01*
X-2935427Y-4711090D01*
X-2940608Y-4708093D01*
X-2946095Y-4705654D01*
X-2951734Y-4703724D01*
X-2957576Y-4702403D01*
X-2963519Y-4701641D01*
G37*
G36*
X2451709Y-3364839D02*
G01*
X2441752Y-3374847D01*
X2441752Y-3524910D01*
X2451709Y-3534918D01*
X2552496Y-3534918D01*
X2562504Y-3524910D01*
X2562504Y-3488791D01*
X2552496Y-3478784D01*
X2531414Y-3478784D01*
X2521407Y-3468776D01*
X2521407Y-3430981D01*
X2531414Y-3420973D01*
X2552496Y-3420973D01*
X2562504Y-3410965D01*
X2562504Y-3374847D01*
X2552496Y-3364839D01*
G37*
G36*
X2747467Y-3364839D02*
G01*
X2737459Y-3374847D01*
X2737459Y-3410965D01*
X2747467Y-3420973D01*
X2768549Y-3420973D01*
X2778556Y-3430981D01*
X2778556Y-3468776D01*
X2768549Y-3478784D01*
X2747467Y-3478784D01*
X2737459Y-3488791D01*
X2737459Y-3524910D01*
X2747467Y-3534918D01*
X2848254Y-3534918D01*
X2858211Y-3524910D01*
X2858211Y-3374847D01*
X2848254Y-3364839D01*
G37*
G36*
X2451709Y-3114903D02*
G01*
X2441752Y-3124911D01*
X2441752Y-3274974D01*
X2451709Y-3284982D01*
X2552496Y-3284982D01*
X2562504Y-3274974D01*
X2562504Y-3238855D01*
X2552496Y-3228848D01*
X2531414Y-3228848D01*
X2521407Y-3218840D01*
X2521407Y-3181045D01*
X2531414Y-3171037D01*
X2552496Y-3171037D01*
X2562504Y-3161030D01*
X2562504Y-3124911D01*
X2552496Y-3114903D01*
G37*
G36*
X2747467Y-3114903D02*
G01*
X2737459Y-3124911D01*
X2737459Y-3161030D01*
X2747467Y-3171037D01*
X2768549Y-3171037D01*
X2778556Y-3181045D01*
X2778556Y-3218840D01*
X2768549Y-3228848D01*
X2747467Y-3228848D01*
X2737459Y-3238855D01*
X2737459Y-3274974D01*
X2747467Y-3284982D01*
X2848254Y-3284982D01*
X2858211Y-3274974D01*
X2858211Y-3124911D01*
X2848254Y-3114903D01*
G37*
D10*
G01*
X3774998Y-1599996D03*
G01*
X-3774973Y-1199997D03*
D11*
G01*
X3337509Y-1989988D03*
G01*
X3312490Y-2810002D03*
G01*
X3287496Y-1989988D03*
G01*
X3262477Y-2810002D03*
G01*
X3237509Y-1989988D03*
G01*
X3212490Y-2810002D03*
G01*
X3187496Y-1989988D03*
G01*
X3162477Y-2810002D03*
G01*
X3137509Y-1989988D03*
G01*
X3112490Y-2810002D03*
G01*
X3087497Y-1989988D03*
G01*
X3062477Y-2810002D03*
G01*
X3037509Y-1989988D03*
G01*
X3012490Y-2810002D03*
G01*
X2987497Y-1989988D03*
G01*
X2962478Y-2810002D03*
G01*
X2937509Y-1989988D03*
G01*
X2912490Y-2810002D03*
G01*
X2887497Y-1989988D03*
G01*
X2862478Y-2810002D03*
G01*
X2837510Y-1989988D03*
G01*
X2812491Y-2810002D03*
G01*
X2787497Y-1989988D03*
G01*
X2762478Y-2810002D03*
G01*
X2737510Y-1989988D03*
G01*
X2712491Y-2810002D03*
G01*
X2687497Y-1989988D03*
G01*
X2662478Y-2810002D03*
G01*
X2637510Y-1989988D03*
G01*
X2612491Y-2810002D03*
G01*
X2587497Y-1989988D03*
G01*
X2562479Y-2810002D03*
G01*
X2537510Y-1989988D03*
G01*
X2512491Y-2810002D03*
G01*
X2487498Y-1989988D03*
G01*
X2462479Y-2810002D03*
G01*
X2437511Y-1989988D03*
G01*
X2412491Y-2810002D03*
G01*
X2387498Y-1989988D03*
G01*
X2362479Y-2810002D03*
G01*
X2337511Y-1989988D03*
G01*
X2312492Y-2810002D03*
G01*
X2287498Y-1989988D03*
G01*
X2262479Y-2810002D03*
G01*
X2237486Y-1989988D03*
G01*
X2212466Y-2810002D03*
G01*
X2187498Y-1989988D03*
G01*
X2162479Y-2810002D03*
G01*
X2137511Y-1989988D03*
G01*
X2112492Y-2810002D03*
G01*
X2087499Y-1989988D03*
G01*
X2062479Y-2810002D03*
G01*
X2037511Y-1989988D03*
G01*
X2012492Y-2810002D03*
G01*
X1987499Y-1989988D03*
G01*
X1962480Y-2810002D03*
G01*
X1937486Y-1989988D03*
G01*
X1912467Y-2810002D03*
G01*
X1887499Y-1989988D03*
G01*
X1862480Y-2810002D03*
G01*
X1837486Y-1989988D03*
G01*
X1812467Y-2810002D03*
G01*
X1787499Y-1989988D03*
G01*
X1762480Y-2810002D03*
G01*
X1737487Y-1989988D03*
G01*
X1712468Y-2810002D03*
G01*
X1687499Y-1989988D03*
G01*
X1662480Y-2810002D03*
G01*
X1637487Y-1989988D03*
G01*
X1612493Y-2810002D03*
G01*
X1587500Y-1989988D03*
G01*
X1562480Y-2810002D03*
G01*
X1537487Y-1989988D03*
G01*
X1512493Y-2810002D03*
G01*
X1487500Y-1989988D03*
G01*
X1462481Y-2810002D03*
G01*
X1437487Y-1989988D03*
G01*
X1412468Y-2810002D03*
G01*
X1387500Y-1989988D03*
G01*
X1362481Y-2810002D03*
G01*
X1337487Y-1989988D03*
G01*
X1312468Y-2810002D03*
G01*
X1287500Y-1989988D03*
G01*
X1262481Y-2810002D03*
G01*
X1237513Y-1989988D03*
G01*
X1212494Y-2810002D03*
G01*
X1187500Y-1989988D03*
G01*
X1162481Y-2810002D03*
G01*
X1137513Y-1989988D03*
G01*
X1112494Y-2810002D03*
G01*
X1087501Y-1989988D03*
G01*
X1062481Y-2810002D03*
G01*
X1037488Y-1989988D03*
G01*
X1012469Y-2810002D03*
G01*
X987501Y-1989988D03*
G01*
X962482Y-2810002D03*
G01*
X937488Y-1989988D03*
G01*
X912469Y-2810002D03*
G01*
X887501Y-1989988D03*
G01*
X862482Y-2810002D03*
G01*
X837488Y-1989988D03*
G01*
X812469Y-2810002D03*
G01*
X787501Y-1989988D03*
G01*
X762482Y-2810002D03*
G01*
X737488Y-1989988D03*
G01*
X712470Y-2810002D03*
G01*
X687501Y-1989988D03*
G01*
X662482Y-2810002D03*
G01*
X637489Y-1989988D03*
G01*
X612470Y-2810002D03*
G01*
X587502Y-1989988D03*
G01*
X562482Y-2810002D03*
G01*
X537489Y-1989988D03*
G01*
X512470Y-2810002D03*
G01*
X487502Y-1989988D03*
G01*
X462483Y-2810002D03*
G01*
X237489Y-1989988D03*
G01*
X212470Y-2810002D03*
G01*
X187502Y-1989988D03*
G01*
X162483Y-2810002D03*
G01*
X137490Y-1989988D03*
G01*
X112471Y-2810002D03*
G01*
X87503Y-1989988D03*
G01*
X62484Y-2810002D03*
G01*
X37490Y-1989988D03*
G01*
X12471Y-2810002D03*
G01*
X-12496Y-1989988D03*
G01*
X-37515Y-2810002D03*
G01*
X-62509Y-1989988D03*
G01*
X-87528Y-2810002D03*
G01*
X-112496Y-1989988D03*
G01*
X-137515Y-2810002D03*
G01*
X-162509Y-1989988D03*
G01*
X-187528Y-2810002D03*
G01*
X-212496Y-1989988D03*
G01*
X-237515Y-2810002D03*
G01*
X-262509Y-1989988D03*
G01*
X-287528Y-2810002D03*
G01*
X-312496Y-1989988D03*
G01*
X-337515Y-2810002D03*
G01*
X-362508Y-1989988D03*
G01*
X-387527Y-2810002D03*
G01*
X-412495Y-1989988D03*
G01*
X-437514Y-2810002D03*
G01*
X-462508Y-1989988D03*
G01*
X-487527Y-2810002D03*
G01*
X-512495Y-1989988D03*
G01*
X-537514Y-2810002D03*
G01*
X-562508Y-1989988D03*
G01*
X-587527Y-2810002D03*
G01*
X-612495Y-1989988D03*
G01*
X-637514Y-2810002D03*
G01*
X-662508Y-1989988D03*
G01*
X-687527Y-2810002D03*
G01*
X-712495Y-1989988D03*
G01*
X-737514Y-2810002D03*
G01*
X-762507Y-1989988D03*
G01*
X-787527Y-2810002D03*
G01*
X-812495Y-1989988D03*
G01*
X-837514Y-2810002D03*
G01*
X-862507Y-1989988D03*
G01*
X-887526Y-2810002D03*
G01*
X-912495Y-1989988D03*
G01*
X-937513Y-2810002D03*
G01*
X-962507Y-1989988D03*
G01*
X-987526Y-2810002D03*
G01*
X-1012494Y-1989988D03*
G01*
X-1037513Y-2810002D03*
G01*
X-1062507Y-1989988D03*
G01*
X-1087526Y-2810002D03*
G01*
X-1112494Y-1989988D03*
G01*
X-1137513Y-2810002D03*
G01*
X-1162507Y-1989988D03*
G01*
X-1187526Y-2810002D03*
G01*
X-1212494Y-1989988D03*
G01*
X-1237513Y-2810002D03*
G01*
X-1262506Y-1989988D03*
G01*
X-1287526Y-2810002D03*
G01*
X-1312494Y-1989988D03*
G01*
X-1337513Y-2810002D03*
G01*
X-1362506Y-1989988D03*
G01*
X-1387525Y-2810002D03*
G01*
X-1412494Y-1989988D03*
G01*
X-1437512Y-2810002D03*
G01*
X-1462506Y-1989988D03*
G01*
X-1487525Y-2810002D03*
G01*
X-1512493Y-1989988D03*
G01*
X-1537512Y-2810002D03*
G01*
X-1562506Y-1989988D03*
G01*
X-1587525Y-2810002D03*
G01*
X-1612493Y-1989988D03*
G01*
X-1637512Y-2810002D03*
G01*
X-1662506Y-1989988D03*
G01*
X-1687525Y-2810002D03*
G01*
X-1712493Y-1989988D03*
G01*
X-1737512Y-2810002D03*
G01*
X-1762505Y-1989988D03*
G01*
X-1787525Y-2810002D03*
G01*
X-1812493Y-1989988D03*
G01*
X-1837512Y-2810002D03*
G01*
X-1862505Y-1989988D03*
G01*
X-1887524Y-2810002D03*
G01*
X-1912493Y-1989988D03*
G01*
X-1937512Y-2810002D03*
G01*
X-1962505Y-1989988D03*
G01*
X-1987524Y-2810002D03*
G01*
X-2012492Y-1989988D03*
G01*
X-2037511Y-2810002D03*
G01*
X-2062505Y-1989988D03*
G01*
X-2087524Y-2810002D03*
G01*
X-2112492Y-1989988D03*
G01*
X-2137511Y-2810002D03*
G01*
X-2162505Y-1989988D03*
G01*
X-2187524Y-2810002D03*
G01*
X-2212492Y-1989988D03*
G01*
X-2237511Y-2810002D03*
G01*
X-2262504Y-1989988D03*
G01*
X-2287523Y-2810002D03*
G01*
X-2312492Y-1989988D03*
G01*
X-2337511Y-2810002D03*
G01*
X-2362504Y-1989988D03*
G01*
X-2387523Y-2810002D03*
G01*
X-2412492Y-1989988D03*
G01*
X-2437511Y-2810002D03*
G01*
X-2462504Y-1989988D03*
G01*
X-2487523Y-2810002D03*
G01*
X-2512491Y-1989988D03*
G01*
X-2537510Y-2810002D03*
G01*
X-2562504Y-1989988D03*
G01*
X-2587523Y-2810002D03*
G01*
X-2612491Y-1989988D03*
G01*
X-2637510Y-2810002D03*
G01*
X-2662504Y-1989988D03*
G01*
X-2687523Y-2810002D03*
G01*
X-2712491Y-1989988D03*
G01*
X-2737510Y-2810002D03*
G01*
X-2762504Y-1989988D03*
G01*
X-2787522Y-2810002D03*
G01*
X-2812491Y-1989988D03*
G01*
X-2837510Y-2810002D03*
G01*
X-2862503Y-1989988D03*
G01*
X-2887522Y-2810002D03*
G01*
X-2912490Y-1989988D03*
G01*
X-2937510Y-2810002D03*
G01*
X-2962503Y-1989988D03*
G01*
X-2987522Y-2810002D03*
G01*
X-3012490Y-1989988D03*
G01*
X-3037509Y-2810002D03*
G01*
X-3062503Y-1989988D03*
G01*
X-3087522Y-2810002D03*
G01*
X-3112490Y-1989988D03*
G01*
X-3137509Y-2810002D03*
G01*
X-3162503Y-1989988D03*
G01*
X-3187522Y-2810002D03*
G01*
X-3212490Y-1989988D03*
G01*
X-3237509Y-2810002D03*
G01*
X-3262503Y-1989988D03*
G01*
X-3287521Y-2810002D03*
G01*
X-3312490Y-1989988D03*
G01*
X-3337509Y-2810002D03*
D12*
G01*
X3726992Y-4240911D03*
G01*
X3726992Y-3359099D03*
G01*
X3472992Y-3359099D03*
G01*
X3472992Y-4240911D03*
D13*
G01*
X4404995Y-4599990D03*
G01*
X5194985Y-4599990D03*
D14*
G01*
X-345008Y-4584979D03*
G01*
X-250012Y-4815001D03*
G01*
X-154990Y-4585004D03*
D15*
G01*
X-2499995Y-4650003D03*
G01*
X-2499995Y-4450003D03*
D16*
G01*
X-690041Y-3269919D03*
G01*
X-690041Y-3499916D03*
G01*
X-690041Y-3729913D03*
D17*
G01*
X-110058Y-3499916D03*
D18*
G01*
X-800100Y-4670094D03*
G01*
X-800100Y-4830114D03*
G01*
X-1599945Y-4670094D03*
G01*
X-1599945Y-4830114D03*
G01*
X-1999995Y-4670094D03*
G01*
X-1999995Y-4830114D03*
G01*
X-1199895Y-4670094D03*
G01*
X-1199895Y-4830114D03*
D19*
G01*
X850061Y2656281D03*
G01*
X950061Y2656281D03*
G01*
X650036Y2656331D03*
G01*
X750036Y2656331D03*
D20*
G01*
X1080084Y3043834D03*
G01*
X520064Y3043885D03*
D19*
G01*
X2049957Y2656281D03*
G01*
X2149957Y2656281D03*
G01*
X1849932Y2656331D03*
G01*
X1949932Y2656331D03*
D20*
G01*
X2279980Y3043834D03*
G01*
X1719961Y3043885D03*
D21*
G01*
X-1845208Y-4199915D03*
G01*
X-2005228Y-4199915D03*
G01*
X-2829915Y-3100146D03*
G01*
X-2669895Y-3100146D03*
D22*
G01*
X1999995Y-3350005D03*
G01*
X1999995Y-3849979D03*
G01*
X1199895Y-3350005D03*
G01*
X1199895Y-3849979D03*
D23*
G01*
X-2275001Y-3974947D03*
G01*
X-2224989Y-3974947D03*
G01*
X-2175002Y-3974947D03*
G01*
X-2124989Y-3974947D03*
G01*
X-2075002Y-3974947D03*
G01*
X-2024989Y-3974947D03*
G01*
X-1975002Y-3974947D03*
G01*
X-1924989Y-3974947D03*
G01*
X-1875002Y-3974947D03*
G01*
X-1824989Y-3974947D03*
G01*
X-1775002Y-3974947D03*
G01*
X-1724990Y-3974947D03*
D24*
G01*
X-1575003Y-3824960D03*
G01*
X-1575003Y-3774947D03*
G01*
X-1575003Y-3724960D03*
G01*
X-1575003Y-3674948D03*
G01*
X-1575003Y-3624961D03*
G01*
X-1575003Y-3574948D03*
G01*
X-1575003Y-3524961D03*
G01*
X-1575003Y-3474948D03*
G01*
X-1575003Y-3424961D03*
G01*
X-1575003Y-3374948D03*
G01*
X-1575003Y-3324961D03*
G01*
X-1575003Y-3274948D03*
D23*
G01*
X-1724990Y-3124962D03*
G01*
X-1775002Y-3124962D03*
G01*
X-1824989Y-3124962D03*
G01*
X-1875002Y-3124962D03*
G01*
X-1924989Y-3124962D03*
G01*
X-1975002Y-3124962D03*
G01*
X-2024989Y-3124962D03*
G01*
X-2075002Y-3124962D03*
G01*
X-2124989Y-3124962D03*
G01*
X-2175002Y-3124962D03*
G01*
X-2224989Y-3124962D03*
G01*
X-2275001Y-3124962D03*
D24*
G01*
X-2424988Y-3274948D03*
G01*
X-2424988Y-3324961D03*
G01*
X-2424988Y-3374948D03*
G01*
X-2424988Y-3424961D03*
G01*
X-2424988Y-3474948D03*
G01*
X-2424988Y-3524961D03*
G01*
X-2424988Y-3574948D03*
G01*
X-2424988Y-3624961D03*
G01*
X-2424988Y-3674948D03*
G01*
X-2424988Y-3724960D03*
G01*
X-2424988Y-3774947D03*
G01*
X-2424988Y-3824960D03*
D25*
G01*
X557377Y-1337182D03*
G01*
X622376Y-1337182D03*
G01*
X687374Y-1337182D03*
G01*
X752373Y-1337182D03*
G01*
X817397Y-1337182D03*
G01*
X882395Y-1337182D03*
G01*
X947394Y-1337182D03*
G01*
X1012393Y-1337182D03*
G01*
X1077391Y-1337182D03*
G01*
X1142390Y-1337182D03*
G01*
X557377Y-762990D03*
G01*
X622376Y-762990D03*
G01*
X687374Y-762990D03*
G01*
X752373Y-762990D03*
G01*
X817397Y-762990D03*
G01*
X882395Y-762990D03*
G01*
X947394Y-762990D03*
G01*
X1012393Y-762990D03*
G01*
X1077391Y-762990D03*
G01*
X1142390Y-762990D03*
D13*
G01*
X2550033Y-4529988D03*
G01*
X2850032Y-4529988D03*
G01*
X2550033Y-4669993D03*
G01*
X2850032Y-4669993D03*
D26*
G01*
X-252603Y-4249877D03*
D27*
G01*
X-117602Y-4324883D03*
G01*
X-117602Y-4274870D03*
G01*
X-117602Y-4224883D03*
G01*
X-117602Y-4174870D03*
G01*
X-382600Y-4324883D03*
G01*
X-382600Y-4274870D03*
G01*
X-382600Y-4224883D03*
G01*
X-382600Y-4174870D03*
D28*
G01*
X-2949930Y-3449980D03*
G01*
X-2949930Y-3599992D03*
G01*
X-2949930Y-3749979D03*
D29*
G01*
X2620009Y-1285112D03*
D30*
G01*
X2660015Y-1290116D03*
G01*
X2700020Y-1290116D03*
G01*
X2739999Y-1290116D03*
G01*
X2780004Y-1290116D03*
G01*
X2820009Y-1290116D03*
G01*
X2860014Y-1290116D03*
G01*
X2900019Y-1290116D03*
G01*
X2939999Y-1290116D03*
G01*
X2980004Y-1290116D03*
G01*
X2980004Y-1110106D03*
G01*
X2939999Y-1110106D03*
G01*
X2900019Y-1110106D03*
G01*
X2860014Y-1110106D03*
G01*
X2820009Y-1110106D03*
G01*
X2780004Y-1110106D03*
G01*
X2739999Y-1110106D03*
G01*
X2700020Y-1110106D03*
G01*
X2660015Y-1110106D03*
G01*
X2620009Y-1110106D03*
D29*
G01*
X1620012Y-1285112D03*
D30*
G01*
X1660017Y-1290116D03*
G01*
X1700021Y-1290116D03*
G01*
X1740001Y-1290116D03*
G01*
X1780006Y-1290116D03*
G01*
X1820011Y-1290116D03*
G01*
X1860016Y-1290116D03*
G01*
X1900021Y-1290116D03*
G01*
X1940001Y-1290116D03*
G01*
X1980006Y-1290116D03*
G01*
X1980006Y-1110106D03*
G01*
X1940001Y-1110106D03*
G01*
X1900021Y-1110106D03*
G01*
X1860016Y-1110106D03*
G01*
X1820011Y-1110106D03*
G01*
X1780006Y-1110106D03*
G01*
X1740001Y-1110106D03*
G01*
X1700021Y-1110106D03*
G01*
X1660017Y-1110106D03*
G01*
X1620012Y-1110106D03*
D29*
G01*
X-1180084Y-1285112D03*
D30*
G01*
X-1140079Y-1290116D03*
G01*
X-1100073Y-1290116D03*
G01*
X-1060094Y-1290116D03*
G01*
X-1020089Y-1290116D03*
G01*
X-980084Y-1290116D03*
G01*
X-940079Y-1290116D03*
G01*
X-900074Y-1290116D03*
G01*
X-860094Y-1290116D03*
G01*
X-820089Y-1290116D03*
G01*
X-820089Y-1110106D03*
G01*
X-860094Y-1110106D03*
G01*
X-900074Y-1110106D03*
G01*
X-940079Y-1110106D03*
G01*
X-980084Y-1110106D03*
G01*
X-1020089Y-1110106D03*
G01*
X-1060094Y-1110106D03*
G01*
X-1100073Y-1110106D03*
G01*
X-1140079Y-1110106D03*
G01*
X-1180084Y-1110106D03*
D29*
G01*
X-2379979Y-1285112D03*
D30*
G01*
X-2339975Y-1290116D03*
G01*
X-2299970Y-1290116D03*
G01*
X-2259990Y-1290116D03*
G01*
X-2219985Y-1290116D03*
G01*
X-2179980Y-1290116D03*
G01*
X-2139975Y-1290116D03*
G01*
X-2099970Y-1290116D03*
G01*
X-2059990Y-1290116D03*
G01*
X-2019985Y-1290116D03*
G01*
X-2019985Y-1110106D03*
G01*
X-2059990Y-1110106D03*
G01*
X-2099970Y-1110106D03*
G01*
X-2139975Y-1110106D03*
G01*
X-2179980Y-1110106D03*
G01*
X-2219985Y-1110106D03*
G01*
X-2259990Y-1110106D03*
G01*
X-2299970Y-1110106D03*
G01*
X-2339975Y-1110106D03*
G01*
X-2379979Y-1110106D03*
D31*
G01*
X190500Y1668145D03*
G01*
X63500Y1668145D03*
G01*
X-63500Y1668145D03*
G01*
X-190500Y1668145D03*
G01*
X190500Y1131646D03*
G01*
X63500Y1131646D03*
G01*
X-63500Y1131646D03*
G01*
X-190500Y1131646D03*
D32*
G01*
X2790494Y1789988D03*
G01*
X2663494Y1789988D03*
G01*
X2536494Y1789988D03*
G01*
X2409494Y1789988D03*
G01*
X2409494Y1010005D03*
G01*
X2536494Y1010005D03*
G01*
X2663494Y1010005D03*
G01*
X2790494Y1010005D03*
M02*
