G04 Layer: BottomSolderMaskLayer*
G04 EasyEDA v6.5.22, 2022-12-22 19:42:36*
G04 63d54b84b90b4e81b1216e971f4bcc08,b137401b17fb4d15a04862e99c0880a0,10*
G04 Gerber Generator version 0.2*
G04 Scale: 100 percent, Rotated: No, Reflected: No *
G04 Dimensions in millimeters *
G04 leading zeros omitted , absolute positions ,4 integer and 5 decimal *
%FSLAX45Y45*%
%MOMM*%

%AMMACRO1*1,1,$1,$2,$3*1,1,$1,$4,$5*1,1,$1,0-$2,0-$3*1,1,$1,0-$4,0-$5*20,1,$1,$2,$3,$4,$5,0*20,1,$1,$4,$5,0-$2,0-$3,0*20,1,$1,0-$2,0-$3,0-$4,0-$5,0*20,1,$1,0-$4,0-$5,$2,$3,0*4,1,4,$2,$3,$4,$5,0-$2,0-$3,0-$4,0-$5,$2,$3,0*%
%ADD10O,1.3015976000000002X1.9015964*%
%ADD11O,1.3015976000000002X2.1015960000000002*%
%ADD12MACRO1,0.1016X-0.85X0.7874X0.85X0.7874*%
%ADD13C,1.8016*%
%ADD14MACRO1,0.1016X-0.7874X-0.7874X-0.7874X0.7874*%
%ADD15C,1.6764*%
%ADD16C,6.1016*%
%ADD17C,3.3016*%

%LPD*%
D10*
G01*
X-3831996Y-4791506D03*
G01*
X-2967989Y-4791506D03*
D11*
G01*
X-2967989Y-4373498D03*
G01*
X-3831996Y-4373498D03*
D12*
G01*
X3573019Y-4599990D03*
D13*
G01*
X3827018Y-4599990D03*
D14*
G01*
X4927092Y-2813100D03*
D15*
G01*
X4673091Y-2813100D03*
G01*
X4927091Y-2559100D03*
G01*
X4673091Y-2559100D03*
G01*
X4927091Y-2305100D03*
G01*
X4673091Y-2305100D03*
G01*
X4927091Y-2051100D03*
G01*
X4673091Y-2051100D03*
G01*
X4927091Y-1797100D03*
G01*
X4673091Y-1797100D03*
G01*
X4927091Y-1543100D03*
G01*
X4673091Y-1543100D03*
G01*
X4927091Y-1289100D03*
G01*
X4673091Y-1289100D03*
G01*
X4927091Y-1035100D03*
G01*
X4673091Y-1035100D03*
G01*
X4927091Y-781100D03*
G01*
X4673091Y-781100D03*
G01*
X4927091Y-527100D03*
G01*
X4673091Y-527100D03*
G01*
X4927091Y-273100D03*
G01*
X4673091Y-273100D03*
G01*
X4927091Y-19100D03*
G01*
X4673091Y-19100D03*
G01*
X4927091Y234899D03*
G01*
X4673091Y234899D03*
G01*
X4927091Y488899D03*
G01*
X4673091Y488899D03*
G01*
X4927091Y742899D03*
G01*
X4673091Y742899D03*
G01*
X4927091Y996899D03*
G01*
X4673091Y996899D03*
G01*
X4927091Y1250899D03*
G01*
X4673091Y1250899D03*
G01*
X4927091Y1504899D03*
G01*
X4673091Y1504899D03*
G01*
X4927091Y1758899D03*
G01*
X4673091Y1758899D03*
G01*
X4927091Y2012899D03*
G01*
X4673091Y2012899D03*
G01*
X3800093Y2934919D03*
G01*
X3800093Y2680919D03*
G01*
X3800093Y2426919D03*
G01*
X3800093Y2172919D03*
G01*
X3800093Y1918919D03*
D14*
G01*
X3800094Y1664919D03*
D13*
G01*
X818895Y-4400092D03*
G01*
X1072895Y-4400092D03*
G01*
X1326895Y-4400092D03*
G01*
X1580895Y-4400092D03*
D16*
G01*
X-3999992Y-3599992D03*
G01*
X4850002Y-3599992D03*
G01*
X4799990Y2799994D03*
G01*
X-3999992Y2799994D03*
D17*
G01*
X3199993Y1999995D03*
G01*
X-3199993Y1999995D03*
M02*
