G04 Layer: InnerLayer4*
G04 EasyEDA v6.5.22, 2022-12-22 19:42:36*
G04 63d54b84b90b4e81b1216e971f4bcc08,b137401b17fb4d15a04862e99c0880a0,10*
G04 Gerber Generator version 0.2*
G04 Scale: 100 percent, Rotated: No, Reflected: No *
G04 Dimensions in millimeters *
G04 leading zeros omitted , absolute positions ,4 integer and 5 decimal *
%FSLAX45Y45*%
%MOMM*%

%ADD10O,1.1999976X1.7999964*%
%ADD11O,1.1999976X1.9999959999999999*%
%ADD12R,1.7000X1.5748*%
%ADD13C,1.7000*%
%ADD14R,1.5748X1.5748*%
%ADD15C,1.5748*%
%ADD16C,6.0000*%
%ADD17C,3.2000*%
%ADD18C,0.4500*%
%ADD19C,0.0165*%

%LPD*%
G36*
X-4569358Y-4979466D02*
G01*
X-4573219Y-4978704D01*
X-4576521Y-4976520D01*
X-4578705Y-4973218D01*
X-4579518Y-4969306D01*
X-4579518Y3169361D01*
X-4578705Y3173222D01*
X-4576521Y3176524D01*
X-4573219Y3178708D01*
X-4569358Y3179521D01*
X5369356Y3179521D01*
X5373217Y3178708D01*
X5376519Y3176524D01*
X5378704Y3173222D01*
X5379516Y3169361D01*
X5379516Y-4969306D01*
X5378704Y-4973218D01*
X5376519Y-4976520D01*
X5373217Y-4978704D01*
X5369356Y-4979466D01*
G37*

%LPC*%
G36*
X3793490Y2835910D02*
G01*
X3806698Y2835910D01*
X3819855Y2837688D01*
X3832656Y2841193D01*
X3844848Y2846374D01*
X3856228Y2853131D01*
X3866642Y2861360D01*
X3875836Y2870860D01*
X3883710Y2881528D01*
X3890111Y2893161D01*
X3894836Y2905506D01*
X3897934Y2918409D01*
X3899255Y2931617D01*
X3898798Y2944825D01*
X3896614Y2957931D01*
X3892702Y2970580D01*
X3887114Y2982620D01*
X3879951Y2993796D01*
X3871417Y3003905D01*
X3861562Y3012795D01*
X3850640Y3020263D01*
X3838803Y3026257D01*
X3826306Y3030626D01*
X3813301Y3033268D01*
X3800094Y3034131D01*
X3786886Y3033268D01*
X3773881Y3030626D01*
X3761384Y3026257D01*
X3749548Y3020263D01*
X3738626Y3012795D01*
X3728770Y3003905D01*
X3720236Y2993796D01*
X3713073Y2982620D01*
X3707485Y2970580D01*
X3703574Y2957931D01*
X3701389Y2944825D01*
X3700932Y2931617D01*
X3702253Y2918409D01*
X3705351Y2905506D01*
X3710076Y2893161D01*
X3716477Y2881528D01*
X3724351Y2870860D01*
X3733546Y2861360D01*
X3743960Y2853131D01*
X3755339Y2846374D01*
X3767531Y2841193D01*
X3780332Y2837688D01*
G37*
G36*
X-1847951Y-4892903D02*
G01*
X-1839874Y-4891735D01*
X-1832152Y-4889093D01*
X-1825091Y-4884978D01*
X-1818893Y-4879644D01*
X-1813864Y-4873244D01*
X-1810105Y-4865979D01*
X-1807819Y-4858156D01*
X-1807057Y-4850028D01*
X-1807819Y-4841849D01*
X-1810105Y-4834026D01*
X-1813864Y-4826762D01*
X-1818893Y-4820361D01*
X-1825091Y-4815027D01*
X-1832152Y-4810912D01*
X-1839874Y-4808270D01*
X-1847951Y-4807102D01*
X-1856079Y-4807508D01*
X-1864055Y-4809439D01*
X-1871472Y-4812792D01*
X-1878126Y-4817567D01*
X-1883765Y-4823460D01*
X-1888134Y-4830318D01*
X-1891182Y-4837887D01*
X-1892757Y-4845913D01*
X-1892757Y-4854092D01*
X-1891182Y-4862118D01*
X-1888134Y-4869688D01*
X-1883765Y-4876546D01*
X-1878126Y-4882438D01*
X-1871472Y-4887214D01*
X-1864055Y-4890566D01*
X-1856079Y-4892497D01*
G37*
G36*
X-2497937Y-4842916D02*
G01*
X-2489860Y-4841748D01*
X-2482138Y-4839055D01*
X-2475077Y-4834991D01*
X-2468930Y-4829606D01*
X-2463850Y-4823206D01*
X-2457754Y-4810963D01*
X-2454503Y-4808372D01*
X-2450490Y-4807356D01*
X-2446375Y-4808016D01*
X-2442870Y-4810252D01*
X-2440533Y-4813706D01*
X-2438146Y-4819650D01*
X-2433777Y-4826558D01*
X-2428138Y-4832451D01*
X-2421483Y-4837176D01*
X-2414066Y-4840579D01*
X-2406091Y-4842510D01*
X-2397963Y-4842916D01*
X-2389886Y-4841748D01*
X-2382164Y-4839055D01*
X-2375103Y-4834991D01*
X-2368905Y-4829606D01*
X-2363876Y-4823206D01*
X-2360117Y-4815941D01*
X-2357831Y-4808118D01*
X-2357069Y-4799990D01*
X-2357831Y-4791862D01*
X-2360117Y-4784039D01*
X-2363876Y-4776774D01*
X-2368905Y-4770374D01*
X-2375103Y-4764989D01*
X-2382164Y-4760925D01*
X-2389886Y-4758232D01*
X-2397963Y-4757064D01*
X-2406091Y-4757470D01*
X-2414066Y-4759401D01*
X-2421483Y-4762804D01*
X-2428138Y-4767529D01*
X-2433777Y-4773422D01*
X-2438146Y-4780330D01*
X-2440533Y-4786274D01*
X-2442870Y-4789728D01*
X-2446375Y-4791964D01*
X-2450490Y-4792624D01*
X-2454503Y-4791608D01*
X-2457754Y-4789017D01*
X-2463850Y-4776774D01*
X-2468930Y-4770374D01*
X-2475077Y-4764989D01*
X-2482138Y-4760925D01*
X-2489860Y-4758232D01*
X-2497937Y-4757064D01*
X-2506116Y-4757470D01*
X-2514041Y-4759401D01*
X-2521458Y-4762804D01*
X-2528112Y-4767529D01*
X-2533751Y-4773422D01*
X-2538171Y-4780330D01*
X-2541219Y-4787900D01*
X-2542743Y-4795926D01*
X-2542743Y-4804054D01*
X-2541219Y-4812080D01*
X-2538171Y-4819650D01*
X-2533751Y-4826558D01*
X-2528112Y-4832451D01*
X-2521458Y-4837176D01*
X-2514041Y-4840579D01*
X-2506116Y-4842510D01*
G37*
G36*
X3793490Y2581910D02*
G01*
X3806698Y2581910D01*
X3819855Y2583688D01*
X3832656Y2587193D01*
X3844848Y2592374D01*
X3856228Y2599131D01*
X3866642Y2607360D01*
X3875836Y2616860D01*
X3883710Y2627528D01*
X3890111Y2639161D01*
X3894836Y2651506D01*
X3897934Y2664409D01*
X3899255Y2677617D01*
X3898798Y2690825D01*
X3896614Y2703931D01*
X3892702Y2716580D01*
X3887114Y2728620D01*
X3879951Y2739796D01*
X3871417Y2749905D01*
X3861562Y2758795D01*
X3850640Y2766263D01*
X3838803Y2772257D01*
X3826306Y2776626D01*
X3813301Y2779268D01*
X3800094Y2780131D01*
X3786886Y2779268D01*
X3773881Y2776626D01*
X3761384Y2772257D01*
X3749548Y2766263D01*
X3738626Y2758795D01*
X3728770Y2749905D01*
X3720236Y2739796D01*
X3713073Y2728620D01*
X3707485Y2716580D01*
X3703574Y2703931D01*
X3701389Y2690825D01*
X3700932Y2677617D01*
X3702253Y2664409D01*
X3705351Y2651506D01*
X3710076Y2639161D01*
X3716477Y2627528D01*
X3724351Y2616860D01*
X3733546Y2607360D01*
X3743960Y2599131D01*
X3755339Y2592374D01*
X3767531Y2587193D01*
X3780332Y2583688D01*
G37*
G36*
X2102053Y2457094D02*
G01*
X2110130Y2458262D01*
X2117852Y2460904D01*
X2124913Y2465019D01*
X2131060Y2470353D01*
X2136140Y2476754D01*
X2139848Y2484018D01*
X2142185Y2491841D01*
X2142947Y2499969D01*
X2142185Y2508148D01*
X2139848Y2515971D01*
X2136140Y2523236D01*
X2131060Y2529636D01*
X2124913Y2534970D01*
X2117852Y2539085D01*
X2110130Y2541727D01*
X2102053Y2542895D01*
X2093874Y2542489D01*
X2085949Y2540558D01*
X2078532Y2537206D01*
X2071878Y2532430D01*
X2066239Y2526538D01*
X2061819Y2519680D01*
X2058771Y2512110D01*
X2057247Y2504084D01*
X2057247Y2495905D01*
X2058771Y2487879D01*
X2061819Y2480310D01*
X2066239Y2473452D01*
X2071878Y2467559D01*
X2078532Y2462784D01*
X2085949Y2459431D01*
X2093874Y2457500D01*
G37*
G36*
X402031Y-4742891D02*
G01*
X410108Y-4741722D01*
X417830Y-4739081D01*
X424891Y-4734966D01*
X431088Y-4729632D01*
X436118Y-4723231D01*
X439877Y-4715967D01*
X442163Y-4708144D01*
X442925Y-4700016D01*
X442163Y-4691837D01*
X439877Y-4684014D01*
X436118Y-4676749D01*
X431088Y-4670348D01*
X424891Y-4665014D01*
X417830Y-4660900D01*
X410108Y-4658258D01*
X402031Y-4657090D01*
X393903Y-4657496D01*
X385927Y-4659426D01*
X378510Y-4662779D01*
X371856Y-4667554D01*
X366217Y-4673447D01*
X361848Y-4680305D01*
X358800Y-4687874D01*
X357225Y-4695901D01*
X357225Y-4704080D01*
X358800Y-4712106D01*
X361848Y-4719675D01*
X366217Y-4726533D01*
X371856Y-4732426D01*
X378510Y-4737201D01*
X385927Y-4740554D01*
X393903Y-4742484D01*
G37*
G36*
X3827018Y-4705451D02*
G01*
X3840784Y-4704588D01*
X3854297Y-4701895D01*
X3867404Y-4697425D01*
X3879748Y-4691329D01*
X3891229Y-4683658D01*
X3901592Y-4674565D01*
X3910685Y-4664202D01*
X3918356Y-4652721D01*
X3924452Y-4640376D01*
X3928922Y-4627270D01*
X3931615Y-4613757D01*
X3932478Y-4599990D01*
X3931615Y-4586224D01*
X3928922Y-4572711D01*
X3924452Y-4559604D01*
X3918356Y-4547260D01*
X3910685Y-4535779D01*
X3901592Y-4525416D01*
X3891229Y-4516323D01*
X3879748Y-4508652D01*
X3867404Y-4502556D01*
X3854297Y-4498086D01*
X3840784Y-4495393D01*
X3827018Y-4494530D01*
X3813251Y-4495393D01*
X3799738Y-4498086D01*
X3786632Y-4502556D01*
X3774287Y-4508652D01*
X3762806Y-4516323D01*
X3752443Y-4525416D01*
X3743350Y-4535779D01*
X3735679Y-4547260D01*
X3729583Y-4559604D01*
X3725113Y-4572711D01*
X3722420Y-4586224D01*
X3721557Y-4599990D01*
X3722420Y-4613757D01*
X3725113Y-4627270D01*
X3729583Y-4640376D01*
X3735679Y-4652721D01*
X3743350Y-4664202D01*
X3752443Y-4674565D01*
X3762806Y-4683658D01*
X3774287Y-4691329D01*
X3786632Y-4697425D01*
X3799738Y-4701895D01*
X3813251Y-4704588D01*
G37*
G36*
X3488588Y-4699254D02*
G01*
X3657447Y-4699254D01*
X3662578Y-4698644D01*
X3666896Y-4697120D01*
X3670757Y-4694682D01*
X3674008Y-4691481D01*
X3676446Y-4687620D01*
X3677920Y-4683302D01*
X3678529Y-4678172D01*
X3678529Y-4521809D01*
X3677920Y-4516678D01*
X3676446Y-4512360D01*
X3674008Y-4508500D01*
X3670757Y-4505299D01*
X3666896Y-4502861D01*
X3662578Y-4501337D01*
X3657447Y-4500778D01*
X3488588Y-4500778D01*
X3483457Y-4501337D01*
X3479139Y-4502861D01*
X3475278Y-4505299D01*
X3472027Y-4508500D01*
X3469589Y-4512360D01*
X3468115Y-4516678D01*
X3467506Y-4521809D01*
X3467506Y-4678172D01*
X3468115Y-4683302D01*
X3469589Y-4687620D01*
X3472027Y-4691481D01*
X3475278Y-4694682D01*
X3479139Y-4697120D01*
X3483457Y-4698644D01*
G37*
G36*
X3052013Y-4692904D02*
G01*
X3060090Y-4691735D01*
X3067812Y-4689094D01*
X3074873Y-4684979D01*
X3081070Y-4679645D01*
X3086100Y-4673244D01*
X3089859Y-4665980D01*
X3092145Y-4658156D01*
X3092907Y-4650028D01*
X3092145Y-4641850D01*
X3089859Y-4634026D01*
X3086100Y-4626762D01*
X3081070Y-4620361D01*
X3074873Y-4615027D01*
X3067812Y-4610912D01*
X3060090Y-4608271D01*
X3052013Y-4607102D01*
X3043885Y-4607509D01*
X3035909Y-4609439D01*
X3028492Y-4612792D01*
X3021838Y-4617567D01*
X3016199Y-4623460D01*
X3011830Y-4630318D01*
X3008782Y-4637887D01*
X3007207Y-4645914D01*
X3007207Y-4654092D01*
X3008782Y-4662119D01*
X3011830Y-4669688D01*
X3016199Y-4676546D01*
X3021838Y-4682439D01*
X3028492Y-4687214D01*
X3035909Y-4690567D01*
X3043885Y-4692497D01*
G37*
G36*
X2027021Y-4692904D02*
G01*
X2035098Y-4691735D01*
X2042820Y-4689094D01*
X2049881Y-4684979D01*
X2056079Y-4679645D01*
X2061108Y-4673244D01*
X2064867Y-4665980D01*
X2067153Y-4658156D01*
X2067915Y-4650028D01*
X2067153Y-4641850D01*
X2064867Y-4634026D01*
X2061108Y-4626762D01*
X2056079Y-4620361D01*
X2049881Y-4615027D01*
X2042820Y-4610912D01*
X2035098Y-4608271D01*
X2027021Y-4607102D01*
X2018893Y-4607509D01*
X2010918Y-4609439D01*
X2003501Y-4612792D01*
X1996846Y-4617567D01*
X1991207Y-4623460D01*
X1986788Y-4630318D01*
X1983790Y-4637887D01*
X1982216Y-4645914D01*
X1982216Y-4654092D01*
X1983790Y-4662119D01*
X1986788Y-4669688D01*
X1991207Y-4676546D01*
X1996846Y-4682439D01*
X2003501Y-4687214D01*
X2010918Y-4690567D01*
X2018893Y-4692497D01*
G37*
G36*
X1952040Y-4542891D02*
G01*
X1960118Y-4541723D01*
X1967839Y-4539081D01*
X1974900Y-4534966D01*
X1981098Y-4529632D01*
X1986127Y-4523232D01*
X1989886Y-4515967D01*
X1992172Y-4508144D01*
X1992934Y-4500016D01*
X1992172Y-4491837D01*
X1989886Y-4484014D01*
X1986127Y-4476750D01*
X1981098Y-4470349D01*
X1974900Y-4465015D01*
X1967839Y-4460900D01*
X1960118Y-4458258D01*
X1952040Y-4457090D01*
X1943912Y-4457496D01*
X1935937Y-4459427D01*
X1928520Y-4462780D01*
X1921865Y-4467555D01*
X1916226Y-4473448D01*
X1911857Y-4480306D01*
X1908810Y-4487875D01*
X1907235Y-4495901D01*
X1907235Y-4504080D01*
X1908810Y-4512106D01*
X1911857Y-4519676D01*
X1916226Y-4526534D01*
X1921865Y-4532426D01*
X1928520Y-4537202D01*
X1935937Y-4540554D01*
X1943912Y-4542485D01*
G37*
G36*
X1580896Y-4505553D02*
G01*
X1594662Y-4504690D01*
X1608175Y-4501997D01*
X1621282Y-4497527D01*
X1633626Y-4491431D01*
X1645107Y-4483760D01*
X1655470Y-4474667D01*
X1664563Y-4464304D01*
X1672234Y-4452823D01*
X1678330Y-4440478D01*
X1682800Y-4427372D01*
X1685493Y-4413859D01*
X1686356Y-4400092D01*
X1685493Y-4386326D01*
X1682800Y-4372813D01*
X1678330Y-4359706D01*
X1672234Y-4347362D01*
X1664563Y-4335881D01*
X1655470Y-4325518D01*
X1645107Y-4316425D01*
X1633626Y-4308754D01*
X1621282Y-4302658D01*
X1608175Y-4298188D01*
X1594662Y-4295495D01*
X1580896Y-4294632D01*
X1567129Y-4295495D01*
X1553616Y-4298188D01*
X1540510Y-4302658D01*
X1528165Y-4308754D01*
X1516684Y-4316425D01*
X1506321Y-4325518D01*
X1497228Y-4335881D01*
X1489557Y-4347362D01*
X1483461Y-4359706D01*
X1478991Y-4372813D01*
X1476298Y-4386326D01*
X1475435Y-4400092D01*
X1476298Y-4413859D01*
X1478991Y-4427372D01*
X1483461Y-4440478D01*
X1489557Y-4452823D01*
X1497228Y-4464304D01*
X1506321Y-4474667D01*
X1516684Y-4483760D01*
X1528165Y-4491431D01*
X1540510Y-4497527D01*
X1553616Y-4501997D01*
X1567129Y-4504690D01*
G37*
G36*
X1326896Y-4505553D02*
G01*
X1340662Y-4504690D01*
X1354175Y-4501997D01*
X1367282Y-4497527D01*
X1379626Y-4491431D01*
X1391107Y-4483760D01*
X1401470Y-4474667D01*
X1410563Y-4464304D01*
X1418234Y-4452823D01*
X1424330Y-4440478D01*
X1428800Y-4427372D01*
X1431493Y-4413859D01*
X1432356Y-4400092D01*
X1431493Y-4386326D01*
X1428800Y-4372813D01*
X1424330Y-4359706D01*
X1418234Y-4347362D01*
X1410563Y-4335881D01*
X1401470Y-4325518D01*
X1391107Y-4316425D01*
X1379626Y-4308754D01*
X1367282Y-4302658D01*
X1354175Y-4298188D01*
X1340662Y-4295495D01*
X1326896Y-4294632D01*
X1313129Y-4295495D01*
X1299616Y-4298188D01*
X1286510Y-4302658D01*
X1274165Y-4308754D01*
X1262684Y-4316425D01*
X1252321Y-4325518D01*
X1243228Y-4335881D01*
X1235557Y-4347362D01*
X1229461Y-4359706D01*
X1224991Y-4372813D01*
X1222298Y-4386326D01*
X1221435Y-4400092D01*
X1222298Y-4413859D01*
X1224991Y-4427372D01*
X1229461Y-4440478D01*
X1235557Y-4452823D01*
X1243228Y-4464304D01*
X1252321Y-4474667D01*
X1262684Y-4483760D01*
X1274165Y-4491431D01*
X1286510Y-4497527D01*
X1299616Y-4501997D01*
X1313129Y-4504690D01*
G37*
G36*
X1072896Y-4505553D02*
G01*
X1086662Y-4504690D01*
X1100175Y-4501997D01*
X1113282Y-4497527D01*
X1125626Y-4491431D01*
X1137107Y-4483760D01*
X1147470Y-4474667D01*
X1156563Y-4464304D01*
X1164234Y-4452823D01*
X1170330Y-4440478D01*
X1174800Y-4427372D01*
X1177493Y-4413859D01*
X1178356Y-4400092D01*
X1177493Y-4386326D01*
X1174800Y-4372813D01*
X1170330Y-4359706D01*
X1164234Y-4347362D01*
X1156563Y-4335881D01*
X1147470Y-4325518D01*
X1137107Y-4316425D01*
X1125626Y-4308754D01*
X1113282Y-4302658D01*
X1100175Y-4298188D01*
X1086662Y-4295495D01*
X1072896Y-4294632D01*
X1059129Y-4295495D01*
X1045616Y-4298188D01*
X1032510Y-4302658D01*
X1020165Y-4308754D01*
X1008684Y-4316425D01*
X998321Y-4325518D01*
X989228Y-4335881D01*
X981557Y-4347362D01*
X975461Y-4359706D01*
X970991Y-4372813D01*
X968298Y-4386326D01*
X967435Y-4400092D01*
X968298Y-4413859D01*
X970991Y-4427372D01*
X975461Y-4440478D01*
X981557Y-4452823D01*
X989228Y-4464304D01*
X998321Y-4474667D01*
X1008684Y-4483760D01*
X1020165Y-4491431D01*
X1032510Y-4497527D01*
X1045616Y-4501997D01*
X1059129Y-4504690D01*
G37*
G36*
X-3322929Y-4492904D02*
G01*
X-3314852Y-4491736D01*
X-3307130Y-4489094D01*
X-3300069Y-4484979D01*
X-3293922Y-4479645D01*
X-3288842Y-4473244D01*
X-3285134Y-4465980D01*
X-3282797Y-4458157D01*
X-3282035Y-4450029D01*
X-3282797Y-4441850D01*
X-3285134Y-4434027D01*
X-3288842Y-4426762D01*
X-3293922Y-4420362D01*
X-3300069Y-4415028D01*
X-3307130Y-4410913D01*
X-3314852Y-4408271D01*
X-3322929Y-4407103D01*
X-3331108Y-4407509D01*
X-3339033Y-4409440D01*
X-3346450Y-4412792D01*
X-3353104Y-4417568D01*
X-3358743Y-4423460D01*
X-3363163Y-4430318D01*
X-3366211Y-4437888D01*
X-3367735Y-4445914D01*
X-3367735Y-4454093D01*
X-3366211Y-4462119D01*
X-3363163Y-4469688D01*
X-3358743Y-4476546D01*
X-3353104Y-4482439D01*
X-3346450Y-4487214D01*
X-3339033Y-4490567D01*
X-3331108Y-4492498D01*
G37*
G36*
X-3110992Y-4481982D02*
G01*
X-3101340Y-4481118D01*
X-3092043Y-4478629D01*
X-3083255Y-4474514D01*
X-3075330Y-4468977D01*
X-3068523Y-4462170D01*
X-3062986Y-4454245D01*
X-3058871Y-4445457D01*
X-3056382Y-4436160D01*
X-3055518Y-4426508D01*
X-3056382Y-4416856D01*
X-3058871Y-4407560D01*
X-3062986Y-4398772D01*
X-3068523Y-4390847D01*
X-3075330Y-4384040D01*
X-3083255Y-4378502D01*
X-3092043Y-4374388D01*
X-3101340Y-4371898D01*
X-3110992Y-4371035D01*
X-3120644Y-4371898D01*
X-3129940Y-4374388D01*
X-3138728Y-4378502D01*
X-3146653Y-4384040D01*
X-3153460Y-4390847D01*
X-3158998Y-4398772D01*
X-3163112Y-4407560D01*
X-3165602Y-4416856D01*
X-3166465Y-4426508D01*
X-3165602Y-4436160D01*
X-3163112Y-4445457D01*
X-3158998Y-4454245D01*
X-3153460Y-4462170D01*
X-3146653Y-4468977D01*
X-3138728Y-4474514D01*
X-3129940Y-4478629D01*
X-3120644Y-4481118D01*
G37*
G36*
X-3688994Y-4481982D02*
G01*
X-3679342Y-4481118D01*
X-3670046Y-4478629D01*
X-3661257Y-4474514D01*
X-3653332Y-4468977D01*
X-3646525Y-4462170D01*
X-3640988Y-4454245D01*
X-3636873Y-4445457D01*
X-3634384Y-4436160D01*
X-3633520Y-4426508D01*
X-3634384Y-4416856D01*
X-3636873Y-4407560D01*
X-3640988Y-4398772D01*
X-3646525Y-4390847D01*
X-3653332Y-4384040D01*
X-3661257Y-4378502D01*
X-3670046Y-4374388D01*
X-3679342Y-4371898D01*
X-3688994Y-4371035D01*
X-3698646Y-4371898D01*
X-3707942Y-4374388D01*
X-3716731Y-4378502D01*
X-3724656Y-4384040D01*
X-3731463Y-4390847D01*
X-3737000Y-4398772D01*
X-3741115Y-4407560D01*
X-3743604Y-4416856D01*
X-3744468Y-4426508D01*
X-3743604Y-4436160D01*
X-3741115Y-4445457D01*
X-3737000Y-4454245D01*
X-3731463Y-4462170D01*
X-3724656Y-4468977D01*
X-3716731Y-4474514D01*
X-3707942Y-4478629D01*
X-3698646Y-4481118D01*
G37*
G36*
X-1897938Y-4442917D02*
G01*
X-1889861Y-4441748D01*
X-1882139Y-4439056D01*
X-1875078Y-4434992D01*
X-1868932Y-4429607D01*
X-1863852Y-4423206D01*
X-1860143Y-4415942D01*
X-1857806Y-4408119D01*
X-1857044Y-4399991D01*
X-1857806Y-4391863D01*
X-1860143Y-4384040D01*
X-1863852Y-4376775D01*
X-1868932Y-4370374D01*
X-1875078Y-4364990D01*
X-1882139Y-4360926D01*
X-1889861Y-4358233D01*
X-1897938Y-4357065D01*
X-1906117Y-4357471D01*
X-1914042Y-4359402D01*
X-1921459Y-4362805D01*
X-1928114Y-4367530D01*
X-1933752Y-4373422D01*
X-1938172Y-4380331D01*
X-1941220Y-4387900D01*
X-1942744Y-4395927D01*
X-1942744Y-4404055D01*
X-1941220Y-4412081D01*
X-1938172Y-4419650D01*
X-1933752Y-4426559D01*
X-1928114Y-4432452D01*
X-1921459Y-4437176D01*
X-1914042Y-4440580D01*
X-1906117Y-4442510D01*
G37*
G36*
X-1497939Y-4442917D02*
G01*
X-1489862Y-4441748D01*
X-1482140Y-4439056D01*
X-1475079Y-4434992D01*
X-1468932Y-4429607D01*
X-1463852Y-4423206D01*
X-1460144Y-4415942D01*
X-1457807Y-4408119D01*
X-1457045Y-4399991D01*
X-1457807Y-4391863D01*
X-1460144Y-4384040D01*
X-1463852Y-4376775D01*
X-1468932Y-4370374D01*
X-1475079Y-4364990D01*
X-1482140Y-4360926D01*
X-1489862Y-4358233D01*
X-1497939Y-4357065D01*
X-1506118Y-4357471D01*
X-1514043Y-4359402D01*
X-1521460Y-4362805D01*
X-1528114Y-4367530D01*
X-1533753Y-4373422D01*
X-1538173Y-4380331D01*
X-1541221Y-4387900D01*
X-1542745Y-4395927D01*
X-1542745Y-4404055D01*
X-1541221Y-4412081D01*
X-1538173Y-4419650D01*
X-1533753Y-4426559D01*
X-1528114Y-4432452D01*
X-1521460Y-4437176D01*
X-1514043Y-4440580D01*
X-1506118Y-4442510D01*
G37*
G36*
X-947928Y-4392930D02*
G01*
X-939850Y-4391761D01*
X-932129Y-4389069D01*
X-925068Y-4385005D01*
X-918921Y-4379620D01*
X-913841Y-4373219D01*
X-910132Y-4365955D01*
X-907796Y-4358132D01*
X-907034Y-4350004D01*
X-907796Y-4341876D01*
X-910132Y-4334052D01*
X-913841Y-4326788D01*
X-918921Y-4320387D01*
X-925068Y-4315002D01*
X-932129Y-4310938D01*
X-939850Y-4308246D01*
X-947928Y-4307078D01*
X-956106Y-4307484D01*
X-964031Y-4309414D01*
X-971448Y-4312818D01*
X-978103Y-4317542D01*
X-983742Y-4323435D01*
X-988161Y-4330344D01*
X-991209Y-4337913D01*
X-992733Y-4345940D01*
X-992733Y-4354068D01*
X-991209Y-4362094D01*
X-988161Y-4369663D01*
X-983742Y-4376572D01*
X-978103Y-4382465D01*
X-971448Y-4387189D01*
X-964031Y-4390593D01*
X-956106Y-4392523D01*
G37*
G36*
X4252061Y-4392930D02*
G01*
X4260138Y-4391761D01*
X4267860Y-4389069D01*
X4274921Y-4385005D01*
X4281068Y-4379620D01*
X4286148Y-4373219D01*
X4289856Y-4365955D01*
X4292193Y-4358132D01*
X4292955Y-4350004D01*
X4292193Y-4341876D01*
X4289856Y-4334052D01*
X4286148Y-4326788D01*
X4281068Y-4320387D01*
X4274921Y-4315002D01*
X4267860Y-4310938D01*
X4260138Y-4308246D01*
X4252061Y-4307078D01*
X4243882Y-4307484D01*
X4235958Y-4309414D01*
X4228541Y-4312818D01*
X4221886Y-4317542D01*
X4216247Y-4323435D01*
X4211828Y-4330344D01*
X4208780Y-4337913D01*
X4207256Y-4345940D01*
X4207256Y-4354068D01*
X4208780Y-4362094D01*
X4211828Y-4369663D01*
X4216247Y-4376572D01*
X4221886Y-4382465D01*
X4228541Y-4387189D01*
X4235958Y-4390593D01*
X4243882Y-4392523D01*
G37*
G36*
X2102053Y-4392930D02*
G01*
X2110130Y-4391761D01*
X2117852Y-4389069D01*
X2124913Y-4385005D01*
X2131060Y-4379620D01*
X2136140Y-4373219D01*
X2139848Y-4365955D01*
X2142185Y-4358132D01*
X2142947Y-4350004D01*
X2142185Y-4341876D01*
X2139848Y-4334052D01*
X2136140Y-4326788D01*
X2131060Y-4320387D01*
X2124913Y-4315002D01*
X2117852Y-4310938D01*
X2110130Y-4308246D01*
X2102053Y-4307078D01*
X2093874Y-4307484D01*
X2085949Y-4309414D01*
X2078532Y-4312818D01*
X2071878Y-4317542D01*
X2066239Y-4323435D01*
X2061819Y-4330344D01*
X2058771Y-4337913D01*
X2057247Y-4345940D01*
X2057247Y-4354068D01*
X2058771Y-4362094D01*
X2061819Y-4369663D01*
X2066239Y-4376572D01*
X2071878Y-4382465D01*
X2078532Y-4387189D01*
X2085949Y-4390593D01*
X2093874Y-4392523D01*
G37*
G36*
X1326896Y-4269587D02*
G01*
X1339037Y-4268673D01*
X1350975Y-4266082D01*
X1362405Y-4261815D01*
X1373124Y-4255973D01*
X1382877Y-4248708D01*
X1391513Y-4240072D01*
X1398778Y-4230319D01*
X1404620Y-4219600D01*
X1408887Y-4208170D01*
X1411478Y-4196232D01*
X1412392Y-4184091D01*
X1411478Y-4171950D01*
X1408887Y-4160012D01*
X1404620Y-4148582D01*
X1398778Y-4137863D01*
X1391513Y-4128109D01*
X1382877Y-4119473D01*
X1373124Y-4112209D01*
X1362405Y-4106367D01*
X1350975Y-4102100D01*
X1339037Y-4099509D01*
X1326896Y-4098594D01*
X1314754Y-4099509D01*
X1302816Y-4102100D01*
X1291386Y-4106367D01*
X1280668Y-4112209D01*
X1270914Y-4119473D01*
X1262278Y-4128109D01*
X1255014Y-4137863D01*
X1249172Y-4148582D01*
X1244904Y-4160012D01*
X1242314Y-4171950D01*
X1241399Y-4184091D01*
X1242314Y-4196232D01*
X1244904Y-4208170D01*
X1249172Y-4219600D01*
X1255014Y-4230319D01*
X1262278Y-4240072D01*
X1270914Y-4248708D01*
X1280668Y-4255973D01*
X1291386Y-4261815D01*
X1302816Y-4266082D01*
X1314754Y-4268673D01*
G37*
G36*
X-2497937Y-4242917D02*
G01*
X-2489860Y-4241749D01*
X-2482138Y-4239056D01*
X-2475077Y-4234992D01*
X-2468930Y-4229608D01*
X-2463850Y-4223207D01*
X-2460142Y-4215942D01*
X-2457805Y-4208119D01*
X-2457043Y-4199991D01*
X-2457805Y-4191863D01*
X-2460142Y-4184040D01*
X-2463850Y-4176776D01*
X-2468930Y-4170375D01*
X-2475077Y-4164990D01*
X-2482138Y-4160926D01*
X-2489860Y-4158234D01*
X-2497937Y-4157065D01*
X-2506116Y-4157472D01*
X-2514041Y-4159402D01*
X-2521458Y-4162806D01*
X-2528112Y-4167530D01*
X-2533751Y-4173423D01*
X-2538171Y-4180332D01*
X-2541219Y-4187901D01*
X-2542743Y-4195927D01*
X-2542743Y-4204055D01*
X-2541219Y-4212082D01*
X-2538171Y-4219651D01*
X-2533751Y-4226560D01*
X-2528112Y-4232452D01*
X-2521458Y-4237177D01*
X-2514041Y-4240580D01*
X-2506116Y-4242511D01*
G37*
G36*
X-497941Y-4242917D02*
G01*
X-489864Y-4241749D01*
X-482142Y-4239056D01*
X-475081Y-4234992D01*
X-468934Y-4229608D01*
X-463854Y-4223207D01*
X-460146Y-4215942D01*
X-457809Y-4208119D01*
X-457047Y-4199991D01*
X-457809Y-4191863D01*
X-460146Y-4184040D01*
X-463854Y-4176776D01*
X-468934Y-4170375D01*
X-475081Y-4164990D01*
X-482142Y-4160926D01*
X-489864Y-4158234D01*
X-497941Y-4157065D01*
X-506120Y-4157472D01*
X-514045Y-4159402D01*
X-521462Y-4162806D01*
X-528116Y-4167530D01*
X-533755Y-4173423D01*
X-538175Y-4180332D01*
X-541223Y-4187901D01*
X-542747Y-4195927D01*
X-542747Y-4204055D01*
X-541223Y-4212082D01*
X-538175Y-4219651D01*
X-533755Y-4226560D01*
X-528116Y-4232452D01*
X-521462Y-4237177D01*
X-514045Y-4240580D01*
X-506120Y-4242511D01*
G37*
G36*
X202031Y-4217924D02*
G01*
X210108Y-4216755D01*
X217830Y-4214063D01*
X224891Y-4209999D01*
X231089Y-4204614D01*
X236118Y-4198213D01*
X239877Y-4190949D01*
X242163Y-4183126D01*
X242925Y-4174998D01*
X242163Y-4166870D01*
X239877Y-4159046D01*
X236118Y-4151782D01*
X231089Y-4145381D01*
X224891Y-4139996D01*
X217830Y-4135932D01*
X210108Y-4133240D01*
X202031Y-4132072D01*
X193903Y-4132478D01*
X185928Y-4134408D01*
X178511Y-4137812D01*
X171856Y-4142536D01*
X166217Y-4148429D01*
X161848Y-4155338D01*
X158800Y-4162907D01*
X157226Y-4170934D01*
X157226Y-4179062D01*
X158800Y-4187088D01*
X161848Y-4194657D01*
X166217Y-4201566D01*
X171856Y-4207459D01*
X178511Y-4212183D01*
X185928Y-4215587D01*
X193903Y-4217517D01*
G37*
G36*
X-3397961Y-4192930D02*
G01*
X-3389884Y-4191762D01*
X-3382162Y-4189069D01*
X-3375101Y-4185005D01*
X-3368903Y-4179620D01*
X-3363874Y-4173220D01*
X-3360115Y-4165955D01*
X-3357829Y-4158132D01*
X-3357067Y-4150004D01*
X-3357829Y-4141876D01*
X-3360115Y-4134053D01*
X-3363874Y-4126788D01*
X-3368903Y-4120387D01*
X-3375101Y-4115003D01*
X-3382162Y-4110939D01*
X-3389884Y-4108246D01*
X-3397961Y-4107078D01*
X-3406089Y-4107484D01*
X-3414064Y-4109415D01*
X-3421481Y-4112818D01*
X-3428136Y-4117543D01*
X-3433775Y-4123436D01*
X-3438144Y-4130344D01*
X-3441192Y-4137914D01*
X-3442766Y-4145940D01*
X-3442766Y-4154068D01*
X-3441192Y-4162094D01*
X-3438144Y-4169664D01*
X-3433775Y-4176572D01*
X-3428136Y-4182465D01*
X-3421481Y-4187190D01*
X-3414064Y-4190593D01*
X-3406089Y-4192524D01*
G37*
G36*
X-3647948Y-4192930D02*
G01*
X-3639870Y-4191762D01*
X-3632149Y-4189069D01*
X-3625087Y-4185005D01*
X-3618890Y-4179620D01*
X-3613861Y-4173220D01*
X-3610101Y-4165955D01*
X-3607815Y-4158132D01*
X-3607054Y-4150004D01*
X-3607815Y-4141876D01*
X-3610101Y-4134053D01*
X-3613861Y-4126788D01*
X-3618890Y-4120387D01*
X-3625087Y-4115003D01*
X-3632149Y-4110939D01*
X-3639870Y-4108246D01*
X-3647948Y-4107078D01*
X-3656076Y-4107484D01*
X-3664051Y-4109415D01*
X-3671468Y-4112818D01*
X-3678123Y-4117543D01*
X-3683762Y-4123436D01*
X-3688130Y-4130344D01*
X-3691178Y-4137914D01*
X-3692753Y-4145940D01*
X-3692753Y-4154068D01*
X-3691178Y-4162094D01*
X-3688130Y-4169664D01*
X-3683762Y-4176572D01*
X-3678123Y-4182465D01*
X-3671468Y-4187190D01*
X-3664051Y-4190593D01*
X-3656076Y-4192524D01*
G37*
G36*
X52069Y-4142892D02*
G01*
X60147Y-4141724D01*
X67868Y-4139082D01*
X74930Y-4134967D01*
X81076Y-4129633D01*
X86156Y-4123232D01*
X89865Y-4115968D01*
X92202Y-4108145D01*
X92964Y-4100017D01*
X92202Y-4091838D01*
X89865Y-4084015D01*
X86156Y-4076750D01*
X81076Y-4070350D01*
X74930Y-4065015D01*
X67868Y-4060901D01*
X60147Y-4058259D01*
X52069Y-4057091D01*
X43891Y-4057497D01*
X35966Y-4059428D01*
X28549Y-4062780D01*
X21894Y-4067556D01*
X16256Y-4073448D01*
X11836Y-4080306D01*
X8788Y-4087876D01*
X7264Y-4095902D01*
X7264Y-4104081D01*
X8788Y-4112107D01*
X11836Y-4119676D01*
X16256Y-4126534D01*
X21894Y-4132427D01*
X28549Y-4137202D01*
X35966Y-4140555D01*
X43891Y-4142486D01*
G37*
G36*
X-2597962Y-4142892D02*
G01*
X-2589885Y-4141724D01*
X-2582164Y-4139082D01*
X-2575102Y-4134967D01*
X-2568905Y-4129633D01*
X-2563876Y-4123232D01*
X-2560116Y-4115968D01*
X-2557830Y-4108145D01*
X-2557068Y-4100017D01*
X-2557830Y-4091838D01*
X-2560116Y-4084015D01*
X-2563876Y-4076750D01*
X-2568905Y-4070350D01*
X-2575102Y-4065015D01*
X-2582164Y-4060901D01*
X-2589885Y-4058259D01*
X-2597962Y-4057091D01*
X-2606090Y-4057497D01*
X-2614066Y-4059428D01*
X-2621483Y-4062780D01*
X-2628138Y-4067556D01*
X-2633776Y-4073448D01*
X-2638145Y-4080306D01*
X-2641193Y-4087876D01*
X-2642768Y-4095902D01*
X-2642768Y-4104081D01*
X-2641193Y-4112107D01*
X-2638145Y-4119676D01*
X-2633776Y-4126534D01*
X-2628138Y-4132427D01*
X-2621483Y-4137202D01*
X-2614066Y-4140555D01*
X-2606090Y-4142486D01*
G37*
G36*
X-1597964Y-4142892D02*
G01*
X-1589887Y-4141724D01*
X-1582166Y-4139082D01*
X-1575104Y-4134967D01*
X-1568907Y-4129633D01*
X-1563878Y-4123232D01*
X-1560118Y-4115968D01*
X-1557832Y-4108145D01*
X-1557070Y-4100017D01*
X-1557832Y-4091838D01*
X-1560118Y-4084015D01*
X-1563878Y-4076750D01*
X-1568907Y-4070350D01*
X-1575104Y-4065015D01*
X-1582166Y-4060901D01*
X-1589887Y-4058259D01*
X-1597964Y-4057091D01*
X-1606092Y-4057497D01*
X-1614068Y-4059428D01*
X-1621485Y-4062780D01*
X-1628139Y-4067556D01*
X-1633778Y-4073448D01*
X-1638147Y-4080306D01*
X-1641195Y-4087876D01*
X-1642770Y-4095902D01*
X-1642770Y-4104081D01*
X-1641195Y-4112107D01*
X-1638147Y-4119676D01*
X-1633778Y-4126534D01*
X-1628139Y-4132427D01*
X-1621485Y-4137202D01*
X-1614068Y-4140555D01*
X-1606092Y-4142486D01*
G37*
G36*
X152044Y-4067911D02*
G01*
X160121Y-4066743D01*
X167843Y-4064050D01*
X174904Y-4059986D01*
X181102Y-4054601D01*
X186131Y-4048201D01*
X189890Y-4040936D01*
X192176Y-4033113D01*
X192938Y-4024985D01*
X192176Y-4016857D01*
X189890Y-4009034D01*
X186131Y-4001770D01*
X181102Y-3995369D01*
X174904Y-3989984D01*
X167843Y-3985920D01*
X160121Y-3983228D01*
X152044Y-3982059D01*
X143916Y-3982465D01*
X135940Y-3984396D01*
X128524Y-3987800D01*
X121869Y-3992524D01*
X116230Y-3998417D01*
X111861Y-4005326D01*
X108813Y-4012895D01*
X107238Y-4020921D01*
X107238Y-4029049D01*
X108813Y-4037076D01*
X111861Y-4044645D01*
X116230Y-4051554D01*
X121869Y-4057446D01*
X128524Y-4062171D01*
X135940Y-4065574D01*
X143916Y-4067505D01*
G37*
G36*
X-3497935Y-3942892D02*
G01*
X-3489858Y-3941724D01*
X-3482136Y-3939082D01*
X-3475075Y-3934968D01*
X-3468928Y-3929634D01*
X-3463848Y-3923233D01*
X-3460140Y-3915968D01*
X-3457803Y-3908145D01*
X-3457041Y-3900017D01*
X-3457803Y-3891838D01*
X-3460140Y-3884015D01*
X-3463848Y-3876751D01*
X-3468928Y-3870350D01*
X-3475075Y-3865016D01*
X-3482136Y-3860901D01*
X-3489858Y-3858260D01*
X-3497935Y-3857091D01*
X-3506114Y-3857498D01*
X-3514039Y-3859428D01*
X-3521456Y-3862781D01*
X-3528110Y-3867556D01*
X-3533749Y-3873449D01*
X-3538169Y-3880307D01*
X-3541217Y-3887876D01*
X-3542741Y-3895902D01*
X-3542741Y-3904081D01*
X-3541217Y-3912108D01*
X-3538169Y-3919677D01*
X-3533749Y-3926535D01*
X-3528110Y-3932428D01*
X-3521456Y-3937203D01*
X-3514039Y-3940556D01*
X-3506114Y-3942486D01*
G37*
G36*
X-3297936Y-3942892D02*
G01*
X-3289858Y-3941724D01*
X-3282137Y-3939082D01*
X-3275076Y-3934968D01*
X-3268929Y-3929634D01*
X-3263849Y-3923233D01*
X-3260140Y-3915968D01*
X-3257803Y-3908145D01*
X-3257042Y-3900017D01*
X-3257803Y-3891838D01*
X-3260140Y-3884015D01*
X-3263849Y-3876751D01*
X-3268929Y-3870350D01*
X-3275076Y-3865016D01*
X-3282137Y-3860901D01*
X-3289858Y-3858260D01*
X-3297936Y-3857091D01*
X-3306114Y-3857498D01*
X-3314039Y-3859428D01*
X-3321456Y-3862781D01*
X-3328111Y-3867556D01*
X-3333750Y-3873449D01*
X-3338169Y-3880307D01*
X-3341217Y-3887876D01*
X-3342741Y-3895902D01*
X-3342741Y-3904081D01*
X-3341217Y-3912108D01*
X-3338169Y-3919677D01*
X-3333750Y-3926535D01*
X-3328111Y-3932428D01*
X-3321456Y-3937203D01*
X-3314039Y-3940556D01*
X-3306114Y-3942486D01*
G37*
G36*
X-2547924Y-3936187D02*
G01*
X-2539847Y-3935018D01*
X-2532126Y-3932377D01*
X-2525064Y-3928262D01*
X-2518918Y-3922928D01*
X-2513838Y-3916527D01*
X-2510129Y-3909263D01*
X-2507792Y-3901440D01*
X-2507030Y-3893312D01*
X-2507792Y-3885133D01*
X-2510129Y-3877310D01*
X-2513838Y-3870045D01*
X-2518918Y-3863644D01*
X-2525064Y-3858310D01*
X-2532126Y-3854196D01*
X-2539847Y-3851554D01*
X-2547924Y-3850386D01*
X-2556103Y-3850792D01*
X-2564028Y-3852722D01*
X-2571445Y-3856075D01*
X-2578100Y-3860850D01*
X-2583738Y-3866743D01*
X-2588158Y-3873601D01*
X-2591206Y-3881170D01*
X-2592730Y-3889197D01*
X-2592730Y-3897376D01*
X-2591206Y-3905402D01*
X-2588158Y-3912971D01*
X-2583738Y-3919829D01*
X-2578100Y-3925722D01*
X-2571445Y-3930497D01*
X-2564028Y-3933850D01*
X-2556103Y-3935780D01*
G37*
G36*
X1752041Y-3892905D02*
G01*
X1760118Y-3891737D01*
X1767839Y-3889044D01*
X1774901Y-3884980D01*
X1781098Y-3879596D01*
X1786128Y-3873195D01*
X1789887Y-3865930D01*
X1792173Y-3858107D01*
X1792935Y-3849979D01*
X1792173Y-3841851D01*
X1789887Y-3834028D01*
X1786128Y-3826764D01*
X1781098Y-3820363D01*
X1774901Y-3814978D01*
X1767839Y-3810914D01*
X1760118Y-3808222D01*
X1752041Y-3807053D01*
X1743913Y-3807460D01*
X1735937Y-3809390D01*
X1728520Y-3812794D01*
X1721866Y-3817518D01*
X1716227Y-3823411D01*
X1711858Y-3830320D01*
X1708810Y-3837889D01*
X1707235Y-3845915D01*
X1707235Y-3854043D01*
X1708810Y-3862070D01*
X1711858Y-3869639D01*
X1716227Y-3876548D01*
X1721866Y-3882440D01*
X1728520Y-3887165D01*
X1735937Y-3890568D01*
X1743913Y-3892499D01*
G37*
G36*
X-2147925Y-3892905D02*
G01*
X-2139848Y-3891737D01*
X-2132126Y-3889095D01*
X-2125065Y-3884980D01*
X-2118918Y-3879646D01*
X-2113838Y-3873246D01*
X-2110130Y-3865981D01*
X-2107793Y-3858158D01*
X-2107031Y-3850030D01*
X-2107793Y-3841851D01*
X-2110130Y-3834028D01*
X-2113838Y-3826764D01*
X-2118918Y-3820363D01*
X-2125065Y-3815029D01*
X-2132126Y-3810914D01*
X-2139848Y-3808272D01*
X-2147925Y-3807104D01*
X-2156104Y-3807510D01*
X-2164029Y-3809441D01*
X-2171446Y-3812794D01*
X-2178100Y-3817569D01*
X-2183739Y-3823462D01*
X-2188159Y-3830320D01*
X-2191207Y-3837889D01*
X-2192731Y-3845915D01*
X-2192731Y-3854094D01*
X-2191207Y-3862120D01*
X-2188159Y-3869690D01*
X-2183739Y-3876548D01*
X-2178100Y-3882440D01*
X-2171446Y-3887215D01*
X-2164029Y-3890568D01*
X-2156104Y-3892499D01*
G37*
G36*
X-1847951Y-3842918D02*
G01*
X-1839874Y-3841750D01*
X-1832152Y-3839057D01*
X-1825091Y-3834993D01*
X-1818893Y-3829608D01*
X-1813864Y-3823208D01*
X-1810105Y-3815943D01*
X-1807768Y-3810965D01*
X-1804466Y-3808374D01*
X-1800453Y-3807358D01*
X-1796338Y-3808018D01*
X-1792833Y-3810254D01*
X-1790547Y-3813708D01*
X-1788160Y-3819651D01*
X-1783740Y-3826560D01*
X-1778101Y-3832453D01*
X-1771446Y-3837178D01*
X-1764030Y-3840581D01*
X-1756105Y-3842512D01*
X-1747926Y-3842918D01*
X-1739849Y-3841750D01*
X-1732127Y-3839057D01*
X-1725066Y-3834993D01*
X-1718919Y-3829608D01*
X-1713839Y-3823208D01*
X-1710131Y-3815943D01*
X-1707794Y-3808120D01*
X-1707032Y-3799992D01*
X-1707794Y-3791864D01*
X-1710131Y-3784041D01*
X-1713839Y-3776776D01*
X-1718919Y-3770376D01*
X-1725066Y-3764991D01*
X-1732127Y-3760927D01*
X-1739849Y-3758234D01*
X-1747926Y-3757066D01*
X-1756105Y-3757472D01*
X-1764030Y-3759403D01*
X-1771446Y-3762806D01*
X-1778101Y-3767531D01*
X-1783740Y-3773424D01*
X-1788160Y-3780332D01*
X-1790547Y-3786276D01*
X-1792833Y-3789730D01*
X-1796338Y-3791965D01*
X-1800453Y-3792626D01*
X-1804466Y-3791610D01*
X-1807768Y-3789019D01*
X-1810105Y-3784041D01*
X-1813864Y-3776776D01*
X-1818893Y-3770376D01*
X-1825091Y-3764991D01*
X-1832152Y-3760927D01*
X-1839874Y-3758234D01*
X-1847951Y-3757066D01*
X-1856079Y-3757472D01*
X-1864055Y-3759403D01*
X-1871472Y-3762806D01*
X-1878126Y-3767531D01*
X-1883765Y-3773424D01*
X-1888134Y-3780332D01*
X-1891182Y-3787901D01*
X-1892757Y-3795928D01*
X-1892757Y-3804056D01*
X-1891182Y-3812082D01*
X-1888134Y-3819651D01*
X-1883765Y-3826560D01*
X-1878126Y-3832453D01*
X-1871472Y-3837178D01*
X-1864055Y-3840581D01*
X-1856079Y-3842512D01*
G37*
G36*
X902055Y2457094D02*
G01*
X910132Y2458262D01*
X917854Y2460904D01*
X924915Y2465019D01*
X931062Y2470353D01*
X936142Y2476754D01*
X939850Y2484018D01*
X942187Y2491841D01*
X942949Y2499969D01*
X942187Y2508148D01*
X939850Y2515971D01*
X936142Y2523236D01*
X931062Y2529636D01*
X924915Y2534970D01*
X917854Y2539085D01*
X910132Y2541727D01*
X902055Y2542895D01*
X893876Y2542489D01*
X885952Y2540558D01*
X878535Y2537206D01*
X871880Y2532430D01*
X866241Y2526538D01*
X861821Y2519680D01*
X858774Y2512110D01*
X857250Y2504084D01*
X857250Y2495905D01*
X858774Y2487879D01*
X861821Y2480310D01*
X866241Y2473452D01*
X871880Y2467559D01*
X878535Y2462784D01*
X885952Y2459431D01*
X893876Y2457500D01*
G37*
G36*
X-1997964Y-3842918D02*
G01*
X-1989886Y-3841750D01*
X-1982165Y-3839057D01*
X-1975104Y-3834993D01*
X-1968906Y-3829608D01*
X-1963877Y-3823208D01*
X-1960118Y-3815943D01*
X-1957832Y-3808120D01*
X-1957222Y-3802075D01*
X-1955850Y-3797858D01*
X-1952752Y-3794607D01*
X-1948586Y-3792982D01*
X-1939848Y-3791762D01*
X-1932127Y-3789070D01*
X-1925066Y-3785006D01*
X-1918919Y-3779621D01*
X-1913839Y-3773220D01*
X-1910130Y-3765956D01*
X-1907793Y-3758133D01*
X-1907032Y-3750005D01*
X-1907793Y-3741877D01*
X-1910130Y-3734054D01*
X-1913839Y-3726789D01*
X-1918919Y-3720388D01*
X-1925066Y-3715004D01*
X-1932127Y-3710940D01*
X-1939848Y-3708247D01*
X-1947925Y-3707079D01*
X-1956104Y-3707485D01*
X-1964029Y-3709415D01*
X-1971446Y-3712819D01*
X-1978101Y-3717544D01*
X-1983739Y-3723436D01*
X-1988159Y-3730345D01*
X-1991207Y-3737914D01*
X-1992731Y-3745941D01*
X-1993442Y-3750919D01*
X-1995525Y-3754170D01*
X-1998675Y-3756406D01*
X-2002434Y-3757320D01*
X-2006092Y-3757472D01*
X-2014067Y-3759403D01*
X-2021484Y-3762806D01*
X-2028139Y-3767531D01*
X-2033778Y-3773424D01*
X-2038146Y-3780332D01*
X-2041194Y-3787901D01*
X-2042769Y-3795928D01*
X-2042769Y-3804056D01*
X-2041194Y-3812082D01*
X-2038146Y-3819651D01*
X-2033778Y-3826560D01*
X-2028139Y-3832453D01*
X-2021484Y-3837178D01*
X-2014067Y-3840581D01*
X-2006092Y-3842512D01*
G37*
G36*
X-1397965Y-3817874D02*
G01*
X-1389888Y-3816705D01*
X-1382166Y-3814064D01*
X-1375105Y-3809949D01*
X-1368907Y-3804615D01*
X-1363878Y-3798214D01*
X-1360119Y-3790950D01*
X-1357833Y-3783126D01*
X-1357071Y-3774998D01*
X-1357833Y-3766820D01*
X-1360119Y-3758996D01*
X-1363878Y-3751732D01*
X-1368907Y-3745331D01*
X-1375105Y-3739997D01*
X-1382166Y-3735882D01*
X-1389888Y-3733241D01*
X-1397965Y-3732072D01*
X-1406093Y-3732479D01*
X-1414068Y-3734409D01*
X-1421485Y-3737762D01*
X-1428140Y-3742537D01*
X-1433779Y-3748430D01*
X-1438148Y-3755288D01*
X-1441196Y-3762857D01*
X-1442770Y-3770884D01*
X-1442770Y-3779062D01*
X-1441196Y-3787089D01*
X-1438148Y-3794658D01*
X-1433779Y-3801516D01*
X-1428140Y-3807409D01*
X-1421485Y-3812184D01*
X-1414068Y-3815537D01*
X-1406093Y-3817467D01*
G37*
G36*
X3793490Y2327910D02*
G01*
X3806698Y2327910D01*
X3819855Y2329688D01*
X3832656Y2333193D01*
X3844848Y2338374D01*
X3856228Y2345131D01*
X3866642Y2353360D01*
X3875836Y2362860D01*
X3883710Y2373528D01*
X3890111Y2385161D01*
X3894836Y2397506D01*
X3897934Y2410409D01*
X3899255Y2423617D01*
X3898798Y2436825D01*
X3896614Y2449931D01*
X3892702Y2462580D01*
X3887114Y2474620D01*
X3879951Y2485796D01*
X3871417Y2495905D01*
X3861562Y2504795D01*
X3850640Y2512263D01*
X3838803Y2518257D01*
X3826306Y2522626D01*
X3813301Y2525268D01*
X3800094Y2526131D01*
X3786886Y2525268D01*
X3773881Y2522626D01*
X3761384Y2518257D01*
X3749548Y2512263D01*
X3738626Y2504795D01*
X3728770Y2495905D01*
X3720236Y2485796D01*
X3713073Y2474620D01*
X3707485Y2462580D01*
X3703574Y2449931D01*
X3701389Y2436825D01*
X3700932Y2423617D01*
X3702253Y2410409D01*
X3705351Y2397506D01*
X3710076Y2385161D01*
X3716477Y2373528D01*
X3724351Y2362860D01*
X3733546Y2353360D01*
X3743960Y2345131D01*
X3755339Y2338374D01*
X3767531Y2333193D01*
X3780332Y2329688D01*
G37*
G36*
X-1022959Y-3742893D02*
G01*
X-1014882Y-3741724D01*
X-1007160Y-3739083D01*
X-1000099Y-3734968D01*
X-993902Y-3729634D01*
X-988872Y-3723233D01*
X-985113Y-3715969D01*
X-982827Y-3708146D01*
X-982065Y-3700018D01*
X-982827Y-3691839D01*
X-985113Y-3684015D01*
X-988872Y-3676751D01*
X-993902Y-3670350D01*
X-1000099Y-3665016D01*
X-1007160Y-3660901D01*
X-1014882Y-3658260D01*
X-1022959Y-3657092D01*
X-1031087Y-3657498D01*
X-1039063Y-3659428D01*
X-1046480Y-3662781D01*
X-1053134Y-3667556D01*
X-1058773Y-3673449D01*
X-1063142Y-3680307D01*
X-1066190Y-3687876D01*
X-1067765Y-3695903D01*
X-1067765Y-3704082D01*
X-1066190Y-3712108D01*
X-1063142Y-3719677D01*
X-1058773Y-3726535D01*
X-1053134Y-3732428D01*
X-1046480Y-3737203D01*
X-1039063Y-3740556D01*
X-1031087Y-3742486D01*
G37*
G36*
X-847953Y-3742893D02*
G01*
X-839876Y-3741724D01*
X-832154Y-3739083D01*
X-825093Y-3734968D01*
X-818896Y-3729634D01*
X-813866Y-3723233D01*
X-810107Y-3715969D01*
X-807821Y-3708146D01*
X-807059Y-3700018D01*
X-807821Y-3691839D01*
X-810107Y-3684015D01*
X-813866Y-3676751D01*
X-818896Y-3670350D01*
X-825093Y-3665016D01*
X-832154Y-3660901D01*
X-839876Y-3658260D01*
X-847953Y-3657092D01*
X-856081Y-3657498D01*
X-864057Y-3659428D01*
X-871474Y-3662781D01*
X-878128Y-3667556D01*
X-883767Y-3673449D01*
X-888136Y-3680307D01*
X-891184Y-3687876D01*
X-892759Y-3695903D01*
X-892759Y-3704082D01*
X-891184Y-3712108D01*
X-888136Y-3719677D01*
X-883767Y-3726535D01*
X-878128Y-3732428D01*
X-871474Y-3737203D01*
X-864057Y-3740556D01*
X-856081Y-3742486D01*
G37*
G36*
X-1397965Y-3542893D02*
G01*
X-1389888Y-3541725D01*
X-1382166Y-3539083D01*
X-1375105Y-3534968D01*
X-1368907Y-3529634D01*
X-1363878Y-3523234D01*
X-1360119Y-3515969D01*
X-1357833Y-3508146D01*
X-1357071Y-3500018D01*
X-1357833Y-3491839D01*
X-1360119Y-3484016D01*
X-1363878Y-3476751D01*
X-1368907Y-3470351D01*
X-1375105Y-3465017D01*
X-1382166Y-3460902D01*
X-1389888Y-3458260D01*
X-1397965Y-3457092D01*
X-1406093Y-3457498D01*
X-1414068Y-3459429D01*
X-1421485Y-3462782D01*
X-1428140Y-3467557D01*
X-1433779Y-3473450D01*
X-1438148Y-3480308D01*
X-1441196Y-3487877D01*
X-1442770Y-3495903D01*
X-1442770Y-3504082D01*
X-1441196Y-3512108D01*
X-1438148Y-3519678D01*
X-1433779Y-3526536D01*
X-1428140Y-3532428D01*
X-1421485Y-3537204D01*
X-1414068Y-3540556D01*
X-1406093Y-3542487D01*
G37*
G36*
X-2547924Y-3542893D02*
G01*
X-2539847Y-3541725D01*
X-2532126Y-3539083D01*
X-2525064Y-3534968D01*
X-2518918Y-3529634D01*
X-2513838Y-3523234D01*
X-2510129Y-3515969D01*
X-2507792Y-3508146D01*
X-2507030Y-3500018D01*
X-2507792Y-3491839D01*
X-2510129Y-3484016D01*
X-2513838Y-3476751D01*
X-2518918Y-3470351D01*
X-2525064Y-3465017D01*
X-2532126Y-3460902D01*
X-2539847Y-3458260D01*
X-2547924Y-3457092D01*
X-2556103Y-3457498D01*
X-2564028Y-3459429D01*
X-2571445Y-3462782D01*
X-2578100Y-3467557D01*
X-2583738Y-3473450D01*
X-2588158Y-3480308D01*
X-2591206Y-3487877D01*
X-2592730Y-3495903D01*
X-2592730Y-3504082D01*
X-2591206Y-3512108D01*
X-2588158Y-3519678D01*
X-2583738Y-3526536D01*
X-2578100Y-3532428D01*
X-2571445Y-3537204D01*
X-2564028Y-3540556D01*
X-2556103Y-3542487D01*
G37*
G36*
X-847953Y-3542893D02*
G01*
X-839876Y-3541725D01*
X-832154Y-3539083D01*
X-825093Y-3534968D01*
X-818896Y-3529634D01*
X-813866Y-3523234D01*
X-810107Y-3515969D01*
X-807821Y-3508146D01*
X-807059Y-3500018D01*
X-807821Y-3491839D01*
X-810107Y-3484016D01*
X-813866Y-3476751D01*
X-818896Y-3470351D01*
X-825093Y-3465017D01*
X-832154Y-3460902D01*
X-839876Y-3458260D01*
X-847953Y-3457092D01*
X-856081Y-3457498D01*
X-864057Y-3459429D01*
X-871474Y-3462782D01*
X-878128Y-3467557D01*
X-883767Y-3473450D01*
X-888136Y-3480308D01*
X-891184Y-3487877D01*
X-892759Y-3495903D01*
X-892759Y-3504082D01*
X-891184Y-3512108D01*
X-888136Y-3519678D01*
X-883767Y-3526536D01*
X-878128Y-3532428D01*
X-871474Y-3537204D01*
X-864057Y-3540556D01*
X-856081Y-3542487D01*
G37*
G36*
X2952038Y-3542893D02*
G01*
X2960116Y-3541725D01*
X2967837Y-3539083D01*
X2974898Y-3534968D01*
X2981045Y-3529634D01*
X2986125Y-3523234D01*
X2989834Y-3515969D01*
X2992170Y-3508146D01*
X2992932Y-3500018D01*
X2992170Y-3491839D01*
X2989834Y-3484016D01*
X2986125Y-3476751D01*
X2981045Y-3470351D01*
X2974898Y-3465017D01*
X2967837Y-3460902D01*
X2963976Y-3459581D01*
X2960420Y-3457448D01*
X2957982Y-3454044D01*
X2957169Y-3449980D01*
X2957982Y-3445916D01*
X2960420Y-3442512D01*
X2963976Y-3440379D01*
X2967837Y-3439058D01*
X2974898Y-3434994D01*
X2981045Y-3429609D01*
X2986125Y-3423208D01*
X2989834Y-3415944D01*
X2992170Y-3408121D01*
X2992932Y-3399993D01*
X2992170Y-3391865D01*
X2989834Y-3384042D01*
X2986125Y-3376777D01*
X2981045Y-3370376D01*
X2974898Y-3364992D01*
X2967837Y-3360928D01*
X2960116Y-3358235D01*
X2952038Y-3357067D01*
X2943860Y-3357473D01*
X2935935Y-3359404D01*
X2928518Y-3362807D01*
X2921863Y-3367532D01*
X2916224Y-3373424D01*
X2911805Y-3380333D01*
X2908757Y-3387902D01*
X2907233Y-3395929D01*
X2907233Y-3404057D01*
X2908757Y-3412083D01*
X2911805Y-3419652D01*
X2916224Y-3426561D01*
X2921863Y-3432454D01*
X2928518Y-3437178D01*
X2936290Y-3440734D01*
X2939440Y-3442970D01*
X2941523Y-3446221D01*
X2942234Y-3449980D01*
X2941523Y-3453790D01*
X2939440Y-3456990D01*
X2936290Y-3459226D01*
X2928518Y-3462782D01*
X2921863Y-3467557D01*
X2916224Y-3473450D01*
X2911805Y-3480308D01*
X2908757Y-3487877D01*
X2907233Y-3495903D01*
X2907233Y-3504082D01*
X2908757Y-3512108D01*
X2911805Y-3519678D01*
X2916224Y-3526536D01*
X2921863Y-3532428D01*
X2928518Y-3537204D01*
X2935935Y-3540556D01*
X2943860Y-3542487D01*
G37*
G36*
X-1022959Y-3492906D02*
G01*
X-1014882Y-3491737D01*
X-1007160Y-3489096D01*
X-1000099Y-3484981D01*
X-993902Y-3479647D01*
X-988872Y-3473246D01*
X-985113Y-3465982D01*
X-982827Y-3458159D01*
X-982065Y-3450031D01*
X-982827Y-3441852D01*
X-985113Y-3434029D01*
X-988872Y-3426764D01*
X-993902Y-3420364D01*
X-1000099Y-3415029D01*
X-1007160Y-3410915D01*
X-1014882Y-3408273D01*
X-1022959Y-3407105D01*
X-1031087Y-3407511D01*
X-1039063Y-3409442D01*
X-1046480Y-3412794D01*
X-1053134Y-3417570D01*
X-1058773Y-3423462D01*
X-1063142Y-3430320D01*
X-1066190Y-3437890D01*
X-1067765Y-3445916D01*
X-1067765Y-3454095D01*
X-1066190Y-3462121D01*
X-1063142Y-3469690D01*
X-1058773Y-3476548D01*
X-1053134Y-3482441D01*
X-1046480Y-3487216D01*
X-1039063Y-3490569D01*
X-1031087Y-3492500D01*
G37*
G36*
X-2197963Y-3492906D02*
G01*
X-2189886Y-3491737D01*
X-2182164Y-3489096D01*
X-2175103Y-3484981D01*
X-2168906Y-3479647D01*
X-2163876Y-3473246D01*
X-2160117Y-3465982D01*
X-2157831Y-3458159D01*
X-2157069Y-3450031D01*
X-2157831Y-3441852D01*
X-2160117Y-3434029D01*
X-2163876Y-3426764D01*
X-2168906Y-3420364D01*
X-2175103Y-3415029D01*
X-2182164Y-3410915D01*
X-2189886Y-3408273D01*
X-2197963Y-3407105D01*
X-2206091Y-3407511D01*
X-2214067Y-3409442D01*
X-2221484Y-3412794D01*
X-2228138Y-3417570D01*
X-2233777Y-3423462D01*
X-2238146Y-3430320D01*
X-2241194Y-3437890D01*
X-2242769Y-3445916D01*
X-2242769Y-3454095D01*
X-2241194Y-3462121D01*
X-2238146Y-3469690D01*
X-2233777Y-3476548D01*
X-2228138Y-3482441D01*
X-2221484Y-3487216D01*
X-2214067Y-3490569D01*
X-2206091Y-3492500D01*
G37*
G36*
X-2097938Y-3392932D02*
G01*
X-2089861Y-3391763D01*
X-2082139Y-3389071D01*
X-2075078Y-3385007D01*
X-2068931Y-3379622D01*
X-2063851Y-3373221D01*
X-2060143Y-3365957D01*
X-2057806Y-3358134D01*
X-2057044Y-3350006D01*
X-2057806Y-3341878D01*
X-2060143Y-3334054D01*
X-2063851Y-3326790D01*
X-2068931Y-3320389D01*
X-2075078Y-3315004D01*
X-2082139Y-3310940D01*
X-2089861Y-3308248D01*
X-2097938Y-3307079D01*
X-2106117Y-3307486D01*
X-2114042Y-3309416D01*
X-2121458Y-3312820D01*
X-2128113Y-3317544D01*
X-2133752Y-3323437D01*
X-2138172Y-3330346D01*
X-2141220Y-3337915D01*
X-2142744Y-3345942D01*
X-2142744Y-3354070D01*
X-2141220Y-3362096D01*
X-2138172Y-3369665D01*
X-2133752Y-3376574D01*
X-2128113Y-3382467D01*
X-2121458Y-3387191D01*
X-2114042Y-3390595D01*
X-2106117Y-3392525D01*
G37*
G36*
X3502050Y-3292906D02*
G01*
X3510127Y-3291738D01*
X3517849Y-3289096D01*
X3524910Y-3284982D01*
X3531057Y-3279648D01*
X3536137Y-3273247D01*
X3539845Y-3265982D01*
X3542182Y-3258159D01*
X3542944Y-3250031D01*
X3542182Y-3241852D01*
X3539845Y-3234029D01*
X3536137Y-3226765D01*
X3531057Y-3220364D01*
X3524910Y-3215030D01*
X3517849Y-3210915D01*
X3510127Y-3208274D01*
X3502050Y-3207105D01*
X3493871Y-3207512D01*
X3485946Y-3209442D01*
X3478529Y-3212795D01*
X3471875Y-3217570D01*
X3466236Y-3223463D01*
X3461816Y-3230321D01*
X3458768Y-3237890D01*
X3457244Y-3245916D01*
X3457244Y-3254095D01*
X3458768Y-3262122D01*
X3461816Y-3269691D01*
X3466236Y-3276549D01*
X3471875Y-3282442D01*
X3478529Y-3287217D01*
X3485946Y-3290570D01*
X3493871Y-3292500D01*
G37*
G36*
X2952038Y-3292906D02*
G01*
X2960116Y-3291738D01*
X2967837Y-3289096D01*
X2974898Y-3284982D01*
X2981045Y-3279648D01*
X2986125Y-3273247D01*
X2989834Y-3265982D01*
X2992170Y-3258159D01*
X2992932Y-3250031D01*
X2992170Y-3241852D01*
X2989834Y-3234029D01*
X2986125Y-3226765D01*
X2981045Y-3220364D01*
X2974898Y-3215030D01*
X2967837Y-3210915D01*
X2963976Y-3209594D01*
X2960420Y-3207461D01*
X2957982Y-3204057D01*
X2957169Y-3199993D01*
X2957982Y-3195929D01*
X2960420Y-3192526D01*
X2963976Y-3190392D01*
X2967837Y-3189071D01*
X2974898Y-3185007D01*
X2981045Y-3179622D01*
X2986125Y-3173222D01*
X2989834Y-3165957D01*
X2992170Y-3158134D01*
X2992932Y-3150006D01*
X2992170Y-3141878D01*
X2989834Y-3134055D01*
X2986125Y-3126790D01*
X2981045Y-3120390D01*
X2974898Y-3115005D01*
X2967837Y-3110941D01*
X2960116Y-3108248D01*
X2952038Y-3107080D01*
X2943860Y-3107486D01*
X2935935Y-3109417D01*
X2928518Y-3112820D01*
X2921863Y-3117545D01*
X2916224Y-3123438D01*
X2911805Y-3130346D01*
X2908757Y-3137916D01*
X2907233Y-3145942D01*
X2907233Y-3154070D01*
X2908757Y-3162096D01*
X2911805Y-3169666D01*
X2916224Y-3176574D01*
X2921863Y-3182467D01*
X2928518Y-3187192D01*
X2936290Y-3190748D01*
X2939440Y-3192983D01*
X2941523Y-3196234D01*
X2942234Y-3199993D01*
X2941523Y-3203803D01*
X2939440Y-3207004D01*
X2936290Y-3209239D01*
X2928518Y-3212795D01*
X2921863Y-3217570D01*
X2916224Y-3223463D01*
X2911805Y-3230321D01*
X2908757Y-3237890D01*
X2907233Y-3245916D01*
X2907233Y-3254095D01*
X2908757Y-3262122D01*
X2911805Y-3269691D01*
X2916224Y-3276549D01*
X2921863Y-3282442D01*
X2928518Y-3287217D01*
X2935935Y-3290570D01*
X2943860Y-3292500D01*
G37*
G36*
X-1147927Y-3192932D02*
G01*
X-1139850Y-3191764D01*
X-1132128Y-3189071D01*
X-1125067Y-3185007D01*
X-1118920Y-3179622D01*
X-1113840Y-3173222D01*
X-1110132Y-3165957D01*
X-1107795Y-3158134D01*
X-1107033Y-3150006D01*
X-1107795Y-3141878D01*
X-1110132Y-3134055D01*
X-1113840Y-3126790D01*
X-1118920Y-3120390D01*
X-1125067Y-3115005D01*
X-1132128Y-3110941D01*
X-1139850Y-3108248D01*
X-1147927Y-3107080D01*
X-1156106Y-3107486D01*
X-1164031Y-3109417D01*
X-1171448Y-3112820D01*
X-1178102Y-3117545D01*
X-1183741Y-3123438D01*
X-1188161Y-3130346D01*
X-1191209Y-3137916D01*
X-1192733Y-3145942D01*
X-1192733Y-3154070D01*
X-1191209Y-3162096D01*
X-1188161Y-3169666D01*
X-1183741Y-3176574D01*
X-1178102Y-3182467D01*
X-1171448Y-3187192D01*
X-1164031Y-3190595D01*
X-1156106Y-3192526D01*
G37*
G36*
X3802024Y-3192932D02*
G01*
X3810101Y-3191764D01*
X3817823Y-3189071D01*
X3824884Y-3185007D01*
X3831082Y-3179622D01*
X3836111Y-3173222D01*
X3839870Y-3165957D01*
X3842156Y-3158134D01*
X3842918Y-3150006D01*
X3842156Y-3141878D01*
X3839870Y-3134055D01*
X3836111Y-3126790D01*
X3831082Y-3120390D01*
X3824884Y-3115005D01*
X3817823Y-3110941D01*
X3810101Y-3108248D01*
X3802024Y-3107080D01*
X3793896Y-3107486D01*
X3785920Y-3109417D01*
X3778504Y-3112820D01*
X3771849Y-3117545D01*
X3766210Y-3123438D01*
X3761841Y-3130346D01*
X3758793Y-3137916D01*
X3757218Y-3145942D01*
X3757218Y-3154070D01*
X3758793Y-3162096D01*
X3761841Y-3169666D01*
X3766210Y-3176574D01*
X3771849Y-3182467D01*
X3778504Y-3187192D01*
X3785920Y-3190595D01*
X3793896Y-3192526D01*
G37*
G36*
X-2547924Y-3142945D02*
G01*
X-2539847Y-3141776D01*
X-2532126Y-3139084D01*
X-2525064Y-3135020D01*
X-2518918Y-3129635D01*
X-2513838Y-3123234D01*
X-2510129Y-3115970D01*
X-2507792Y-3108147D01*
X-2507030Y-3100019D01*
X-2507792Y-3091891D01*
X-2510129Y-3084068D01*
X-2513838Y-3076803D01*
X-2518918Y-3070402D01*
X-2525064Y-3065018D01*
X-2532126Y-3060954D01*
X-2539847Y-3058261D01*
X-2547924Y-3057093D01*
X-2556103Y-3057499D01*
X-2564028Y-3059430D01*
X-2571445Y-3062833D01*
X-2578100Y-3067558D01*
X-2583738Y-3073450D01*
X-2588158Y-3080359D01*
X-2591206Y-3087928D01*
X-2592730Y-3095955D01*
X-2592730Y-3104083D01*
X-2591206Y-3112109D01*
X-2588158Y-3119678D01*
X-2583738Y-3126587D01*
X-2578100Y-3132480D01*
X-2571445Y-3137204D01*
X-2564028Y-3140608D01*
X-2556103Y-3142538D01*
G37*
G36*
X-1647952Y-3099612D02*
G01*
X-1639874Y-3098444D01*
X-1632153Y-3095802D01*
X-1625092Y-3091688D01*
X-1618894Y-3086354D01*
X-1613865Y-3079953D01*
X-1610106Y-3072688D01*
X-1607820Y-3064865D01*
X-1607058Y-3056737D01*
X-1607820Y-3048558D01*
X-1610106Y-3040735D01*
X-1613865Y-3033471D01*
X-1618894Y-3027070D01*
X-1625092Y-3021736D01*
X-1632153Y-3017621D01*
X-1639874Y-3014980D01*
X-1647952Y-3013811D01*
X-1656080Y-3014218D01*
X-1664055Y-3016148D01*
X-1671472Y-3019501D01*
X-1678127Y-3024276D01*
X-1683766Y-3030169D01*
X-1688134Y-3037027D01*
X-1691182Y-3044596D01*
X-1692757Y-3052622D01*
X-1692757Y-3060801D01*
X-1691182Y-3068828D01*
X-1688134Y-3076397D01*
X-1683766Y-3083255D01*
X-1678127Y-3089148D01*
X-1671472Y-3093923D01*
X-1664055Y-3097276D01*
X-1656080Y-3099206D01*
G37*
G36*
X3602024Y-3092907D02*
G01*
X3610101Y-3091738D01*
X3617823Y-3089097D01*
X3624884Y-3084982D01*
X3631082Y-3079648D01*
X3636111Y-3073247D01*
X3639870Y-3065983D01*
X3642156Y-3058160D01*
X3642918Y-3050032D01*
X3642156Y-3041853D01*
X3639870Y-3034030D01*
X3636111Y-3026765D01*
X3631082Y-3020364D01*
X3624884Y-3015030D01*
X3617823Y-3010916D01*
X3610101Y-3008274D01*
X3602024Y-3007106D01*
X3593896Y-3007512D01*
X3585921Y-3009442D01*
X3578504Y-3012795D01*
X3571849Y-3017570D01*
X3566210Y-3023463D01*
X3561842Y-3030321D01*
X3558794Y-3037890D01*
X3557219Y-3045917D01*
X3557219Y-3054096D01*
X3558794Y-3062122D01*
X3561842Y-3069691D01*
X3566210Y-3076549D01*
X3571849Y-3082442D01*
X3578504Y-3087217D01*
X3585921Y-3090570D01*
X3593896Y-3092500D01*
G37*
G36*
X-1447952Y-3092907D02*
G01*
X-1439875Y-3091738D01*
X-1432153Y-3089097D01*
X-1425092Y-3084982D01*
X-1418894Y-3079648D01*
X-1413865Y-3073247D01*
X-1410106Y-3065983D01*
X-1407769Y-3061004D01*
X-1404467Y-3058414D01*
X-1400454Y-3057347D01*
X-1396339Y-3058007D01*
X-1392834Y-3060293D01*
X-1390548Y-3063748D01*
X-1388160Y-3069691D01*
X-1383741Y-3076549D01*
X-1378102Y-3082442D01*
X-1371447Y-3087217D01*
X-1364030Y-3090570D01*
X-1356106Y-3092500D01*
X-1347927Y-3092907D01*
X-1339850Y-3091738D01*
X-1332128Y-3089097D01*
X-1325067Y-3084982D01*
X-1318920Y-3079648D01*
X-1313840Y-3073247D01*
X-1307744Y-3061004D01*
X-1304493Y-3058414D01*
X-1300480Y-3057347D01*
X-1296365Y-3058007D01*
X-1292860Y-3060293D01*
X-1290523Y-3063748D01*
X-1288135Y-3069691D01*
X-1283766Y-3076549D01*
X-1278128Y-3082442D01*
X-1271473Y-3087217D01*
X-1264056Y-3090570D01*
X-1256080Y-3092500D01*
X-1247952Y-3092907D01*
X-1239875Y-3091738D01*
X-1232154Y-3089097D01*
X-1225092Y-3084982D01*
X-1218895Y-3079648D01*
X-1213866Y-3073247D01*
X-1210106Y-3065983D01*
X-1207820Y-3058160D01*
X-1207058Y-3050032D01*
X-1207820Y-3041853D01*
X-1210106Y-3034030D01*
X-1213866Y-3026765D01*
X-1218895Y-3020364D01*
X-1225092Y-3015030D01*
X-1232154Y-3010916D01*
X-1239875Y-3008274D01*
X-1247952Y-3007106D01*
X-1256080Y-3007512D01*
X-1264056Y-3009442D01*
X-1271473Y-3012795D01*
X-1278128Y-3017570D01*
X-1283766Y-3023463D01*
X-1288135Y-3030321D01*
X-1290523Y-3036265D01*
X-1292860Y-3039719D01*
X-1296365Y-3042005D01*
X-1300480Y-3042666D01*
X-1304493Y-3041599D01*
X-1307744Y-3039008D01*
X-1313840Y-3026765D01*
X-1318920Y-3020364D01*
X-1325067Y-3015030D01*
X-1332128Y-3010916D01*
X-1339850Y-3008274D01*
X-1347927Y-3007106D01*
X-1356106Y-3007512D01*
X-1364030Y-3009442D01*
X-1371447Y-3012795D01*
X-1378102Y-3017570D01*
X-1383741Y-3023463D01*
X-1388160Y-3030321D01*
X-1390548Y-3036265D01*
X-1392834Y-3039719D01*
X-1396339Y-3042005D01*
X-1400454Y-3042666D01*
X-1404467Y-3041599D01*
X-1407769Y-3039008D01*
X-1410106Y-3034030D01*
X-1413865Y-3026765D01*
X-1418894Y-3020364D01*
X-1425092Y-3015030D01*
X-1432153Y-3010916D01*
X-1439875Y-3008274D01*
X-1447952Y-3007106D01*
X-1456080Y-3007512D01*
X-1464056Y-3009442D01*
X-1471472Y-3012795D01*
X-1478127Y-3017570D01*
X-1483766Y-3023463D01*
X-1488135Y-3030321D01*
X-1491183Y-3037890D01*
X-1492758Y-3045917D01*
X-1492758Y-3054096D01*
X-1491183Y-3062122D01*
X-1488135Y-3069691D01*
X-1483766Y-3076549D01*
X-1478127Y-3082442D01*
X-1471472Y-3087217D01*
X-1464056Y-3090570D01*
X-1456080Y-3092500D01*
G37*
G36*
X1752041Y2257094D02*
G01*
X1760118Y2258263D01*
X1767839Y2260904D01*
X1774901Y2265019D01*
X1781098Y2270353D01*
X1786128Y2276754D01*
X1789887Y2284018D01*
X1792173Y2291842D01*
X1792935Y2299970D01*
X1792173Y2308148D01*
X1789887Y2315972D01*
X1786128Y2323236D01*
X1781098Y2329637D01*
X1774901Y2334971D01*
X1767839Y2339086D01*
X1760118Y2341727D01*
X1752041Y2342896D01*
X1743913Y2342489D01*
X1735937Y2340559D01*
X1728520Y2337206D01*
X1721866Y2332431D01*
X1716227Y2326538D01*
X1711858Y2319680D01*
X1708810Y2312111D01*
X1707235Y2304084D01*
X1707235Y2295906D01*
X1708810Y2287879D01*
X1711858Y2280310D01*
X1716227Y2273452D01*
X1721866Y2267559D01*
X1728520Y2262784D01*
X1735937Y2259431D01*
X1743913Y2257501D01*
G37*
G36*
X1752041Y2107082D02*
G01*
X1760118Y2108250D01*
X1767839Y2110892D01*
X1774901Y2115007D01*
X1781098Y2120341D01*
X1786128Y2126742D01*
X1789887Y2134006D01*
X1792173Y2141829D01*
X1792935Y2149957D01*
X1792173Y2158136D01*
X1789887Y2165959D01*
X1786128Y2173224D01*
X1781098Y2179624D01*
X1774901Y2184958D01*
X1767839Y2189073D01*
X1760118Y2191715D01*
X1752041Y2192883D01*
X1743913Y2192477D01*
X1735937Y2190546D01*
X1728520Y2187194D01*
X1721866Y2182418D01*
X1716227Y2176526D01*
X1711858Y2169668D01*
X1708810Y2162098D01*
X1707235Y2154072D01*
X1707235Y2145893D01*
X1708810Y2137867D01*
X1711858Y2130298D01*
X1716227Y2123440D01*
X1721866Y2117547D01*
X1728520Y2112772D01*
X1735937Y2109419D01*
X1743913Y2107488D01*
G37*
G36*
X-2022906Y-3042920D02*
G01*
X-2014829Y-3041751D01*
X-2007107Y-3039059D01*
X-2000046Y-3034995D01*
X-1993900Y-3029610D01*
X-1988820Y-3023209D01*
X-1985111Y-3015945D01*
X-1982774Y-3008122D01*
X-1982012Y-2999994D01*
X-1982774Y-2991866D01*
X-1985111Y-2984042D01*
X-1988820Y-2976778D01*
X-1993900Y-2970377D01*
X-2000046Y-2964992D01*
X-2007107Y-2960928D01*
X-2014829Y-2958236D01*
X-2022906Y-2957068D01*
X-2031085Y-2957474D01*
X-2039010Y-2959404D01*
X-2046427Y-2962808D01*
X-2053082Y-2967532D01*
X-2058720Y-2973425D01*
X-2063140Y-2980334D01*
X-2066188Y-2987903D01*
X-2067712Y-2995930D01*
X-2067712Y-3004058D01*
X-2066188Y-3012084D01*
X-2063140Y-3019653D01*
X-2058720Y-3026562D01*
X-2053082Y-3032455D01*
X-2046427Y-3037179D01*
X-2039010Y-3040583D01*
X-2031085Y-3042513D01*
G37*
G36*
X-1772920Y-3042920D02*
G01*
X-1764842Y-3041751D01*
X-1757121Y-3039059D01*
X-1750060Y-3034995D01*
X-1743913Y-3029610D01*
X-1738833Y-3023209D01*
X-1735124Y-3015945D01*
X-1732788Y-3008122D01*
X-1732025Y-2999994D01*
X-1732788Y-2991866D01*
X-1735124Y-2984042D01*
X-1738833Y-2976778D01*
X-1743913Y-2970377D01*
X-1750060Y-2964992D01*
X-1757121Y-2960928D01*
X-1764842Y-2958236D01*
X-1772920Y-2957068D01*
X-1781098Y-2957474D01*
X-1789023Y-2959404D01*
X-1796440Y-2962808D01*
X-1803095Y-2967532D01*
X-1808734Y-2973425D01*
X-1813153Y-2980334D01*
X-1816201Y-2987903D01*
X-1817725Y-2995930D01*
X-1817725Y-3004058D01*
X-1816201Y-3012084D01*
X-1813153Y-3019653D01*
X-1808734Y-3026562D01*
X-1803095Y-3032455D01*
X-1796440Y-3037179D01*
X-1789023Y-3040583D01*
X-1781098Y-3042513D01*
G37*
G36*
X3102051Y-3042920D02*
G01*
X3110128Y-3041751D01*
X3117850Y-3039059D01*
X3124911Y-3034995D01*
X3131058Y-3029610D01*
X3136138Y-3023209D01*
X3142234Y-3010966D01*
X3145485Y-3008376D01*
X3149498Y-3007360D01*
X3153613Y-3008020D01*
X3157118Y-3010255D01*
X3159455Y-3013710D01*
X3161842Y-3019653D01*
X3166211Y-3026562D01*
X3171850Y-3032455D01*
X3178505Y-3037179D01*
X3185922Y-3040583D01*
X3193897Y-3042513D01*
X3202025Y-3042920D01*
X3210102Y-3041751D01*
X3217824Y-3039059D01*
X3224885Y-3034995D01*
X3231083Y-3029610D01*
X3236112Y-3023209D01*
X3239871Y-3015945D01*
X3242208Y-3010966D01*
X3245510Y-3008376D01*
X3249523Y-3007360D01*
X3253638Y-3008020D01*
X3257143Y-3010255D01*
X3259429Y-3013710D01*
X3261817Y-3019653D01*
X3266236Y-3026562D01*
X3271875Y-3032455D01*
X3278530Y-3037179D01*
X3285947Y-3040583D01*
X3293872Y-3042513D01*
X3302050Y-3042920D01*
X3310128Y-3041751D01*
X3317849Y-3039059D01*
X3324910Y-3034995D01*
X3331057Y-3029610D01*
X3336137Y-3023209D01*
X3339846Y-3015945D01*
X3342182Y-3008122D01*
X3342944Y-2999994D01*
X3342182Y-2991866D01*
X3339846Y-2984042D01*
X3336137Y-2976778D01*
X3331057Y-2970377D01*
X3324910Y-2964992D01*
X3317849Y-2960928D01*
X3310128Y-2958236D01*
X3302050Y-2957068D01*
X3293872Y-2957474D01*
X3285947Y-2959404D01*
X3278530Y-2962808D01*
X3271875Y-2967532D01*
X3266236Y-2973425D01*
X3261817Y-2980334D01*
X3259429Y-2986278D01*
X3257143Y-2989732D01*
X3253638Y-2991967D01*
X3249523Y-2992628D01*
X3245510Y-2991612D01*
X3242208Y-2989021D01*
X3239871Y-2984042D01*
X3236112Y-2976778D01*
X3231083Y-2970377D01*
X3224885Y-2964992D01*
X3217824Y-2960928D01*
X3210102Y-2958236D01*
X3202025Y-2957068D01*
X3193897Y-2957474D01*
X3185922Y-2959404D01*
X3178505Y-2962808D01*
X3171850Y-2967532D01*
X3166211Y-2973425D01*
X3161842Y-2980334D01*
X3159455Y-2986278D01*
X3157118Y-2989732D01*
X3153613Y-2991967D01*
X3149498Y-2992628D01*
X3145485Y-2991612D01*
X3142234Y-2989021D01*
X3136138Y-2976778D01*
X3131058Y-2970377D01*
X3124911Y-2964992D01*
X3117850Y-2960928D01*
X3110128Y-2958236D01*
X3102051Y-2957068D01*
X3093872Y-2957474D01*
X3085947Y-2959404D01*
X3078530Y-2962808D01*
X3071876Y-2967532D01*
X3066237Y-2973425D01*
X3061817Y-2980334D01*
X3058769Y-2987903D01*
X3057245Y-2995930D01*
X3057245Y-3004058D01*
X3058769Y-3012084D01*
X3061817Y-3019653D01*
X3066237Y-3026562D01*
X3071876Y-3032455D01*
X3078530Y-3037179D01*
X3085947Y-3040583D01*
X3093872Y-3042513D01*
G37*
G36*
X3793490Y2073910D02*
G01*
X3806698Y2073910D01*
X3819855Y2075688D01*
X3832656Y2079193D01*
X3844848Y2084374D01*
X3856228Y2091131D01*
X3866642Y2099360D01*
X3875836Y2108860D01*
X3883710Y2119528D01*
X3890111Y2131161D01*
X3894836Y2143506D01*
X3897934Y2156409D01*
X3899255Y2169617D01*
X3898798Y2182825D01*
X3896614Y2195931D01*
X3892702Y2208580D01*
X3887114Y2220620D01*
X3879951Y2231796D01*
X3871417Y2241905D01*
X3861562Y2250795D01*
X3850640Y2258263D01*
X3838803Y2264257D01*
X3826306Y2268626D01*
X3813301Y2271268D01*
X3800094Y2272131D01*
X3786886Y2271268D01*
X3773881Y2268626D01*
X3761384Y2264257D01*
X3749548Y2258263D01*
X3738626Y2250795D01*
X3728770Y2241905D01*
X3720236Y2231796D01*
X3713073Y2220620D01*
X3707485Y2208580D01*
X3703574Y2195931D01*
X3701389Y2182825D01*
X3700932Y2169617D01*
X3702253Y2156409D01*
X3705351Y2143506D01*
X3710076Y2131161D01*
X3716477Y2119528D01*
X3724351Y2108860D01*
X3733546Y2099360D01*
X3743960Y2091131D01*
X3755339Y2084374D01*
X3767531Y2079193D01*
X3780332Y2075688D01*
G37*
G36*
X4920488Y1913889D02*
G01*
X4933696Y1913889D01*
X4946853Y1915668D01*
X4959654Y1919173D01*
X4971846Y1924354D01*
X4983226Y1931111D01*
X4993640Y1939340D01*
X5002834Y1948840D01*
X5010708Y1959508D01*
X5017109Y1971141D01*
X5021834Y1983486D01*
X5024932Y1996389D01*
X5026253Y2009597D01*
X5025796Y2022805D01*
X5023612Y2035911D01*
X5019700Y2048560D01*
X5014112Y2060600D01*
X5006949Y2071776D01*
X4998415Y2081885D01*
X4988560Y2090775D01*
X4977638Y2098243D01*
X4965801Y2104237D01*
X4953304Y2108606D01*
X4940300Y2111248D01*
X4927092Y2112111D01*
X4913884Y2111248D01*
X4900879Y2108606D01*
X4888382Y2104237D01*
X4876546Y2098243D01*
X4865624Y2090775D01*
X4855768Y2081885D01*
X4847234Y2071776D01*
X4840071Y2060600D01*
X4834483Y2048560D01*
X4830572Y2035911D01*
X4828387Y2022805D01*
X4827930Y2009597D01*
X4829251Y1996389D01*
X4832350Y1983486D01*
X4837074Y1971141D01*
X4843475Y1959508D01*
X4851349Y1948840D01*
X4860544Y1939340D01*
X4870958Y1931111D01*
X4882337Y1924354D01*
X4894529Y1919173D01*
X4907330Y1915668D01*
G37*
G36*
X3793490Y1819910D02*
G01*
X3806698Y1819910D01*
X3819855Y1821688D01*
X3832656Y1825193D01*
X3844848Y1830374D01*
X3856228Y1837131D01*
X3866642Y1845360D01*
X3875836Y1854860D01*
X3883710Y1865528D01*
X3890111Y1877161D01*
X3894836Y1889506D01*
X3897934Y1902409D01*
X3899255Y1915617D01*
X3898798Y1928825D01*
X3896614Y1941931D01*
X3892702Y1954580D01*
X3887114Y1966620D01*
X3879951Y1977796D01*
X3871417Y1987905D01*
X3861562Y1996795D01*
X3850640Y2004263D01*
X3838803Y2010257D01*
X3826306Y2014626D01*
X3813301Y2017268D01*
X3800094Y2018131D01*
X3786886Y2017268D01*
X3773881Y2014626D01*
X3761384Y2010257D01*
X3749548Y2004263D01*
X3738626Y1996795D01*
X3728770Y1987905D01*
X3720236Y1977796D01*
X3713073Y1966620D01*
X3707485Y1954580D01*
X3703574Y1941931D01*
X3701389Y1928825D01*
X3700932Y1915617D01*
X3702253Y1902409D01*
X3705351Y1889506D01*
X3710076Y1877161D01*
X3716477Y1865528D01*
X3724351Y1854860D01*
X3733546Y1845360D01*
X3743960Y1837131D01*
X3755339Y1830374D01*
X3767531Y1825193D01*
X3780332Y1821688D01*
G37*
G36*
X-3195370Y1819554D02*
G01*
X-3176828Y1821027D01*
X-3158540Y1824329D01*
X-3140710Y1829511D01*
X-3123488Y1836521D01*
X-3107080Y1845259D01*
X-3091688Y1855622D01*
X-3077413Y1867560D01*
X-3064408Y1880870D01*
X-3052876Y1895398D01*
X-3042920Y1911096D01*
X-3034588Y1927707D01*
X-3028035Y1945132D01*
X-3023311Y1963064D01*
X-3020466Y1981454D01*
X-3019501Y1999996D01*
X-3020466Y2018538D01*
X-3023311Y2036927D01*
X-3028035Y2054860D01*
X-3034588Y2072284D01*
X-3042920Y2088896D01*
X-3052876Y2104593D01*
X-3064408Y2119122D01*
X-3077413Y2132431D01*
X-3091688Y2144369D01*
X-3107080Y2154732D01*
X-3123488Y2163470D01*
X-3140710Y2170480D01*
X-3158540Y2175662D01*
X-3176828Y2178964D01*
X-3195370Y2180437D01*
X-3213912Y2179929D01*
X-3232353Y2177542D01*
X-3250438Y2173274D01*
X-3267964Y2167178D01*
X-3284829Y2159304D01*
X-3300729Y2149754D01*
X-3315614Y2138578D01*
X-3329228Y2125980D01*
X-3341522Y2112010D01*
X-3352292Y2096871D01*
X-3361436Y2080666D01*
X-3368852Y2063648D01*
X-3374542Y2045970D01*
X-3378352Y2027783D01*
X-3380232Y2009292D01*
X-3380232Y1990699D01*
X-3378352Y1972208D01*
X-3374542Y1954022D01*
X-3368852Y1936343D01*
X-3361436Y1919325D01*
X-3352292Y1903120D01*
X-3341522Y1887982D01*
X-3329228Y1874012D01*
X-3315614Y1861413D01*
X-3300729Y1850237D01*
X-3284829Y1840687D01*
X-3267964Y1832813D01*
X-3250438Y1826717D01*
X-3232353Y1822450D01*
X-3213912Y1820062D01*
G37*
G36*
X3204616Y1819554D02*
G01*
X3223158Y1821027D01*
X3241446Y1824329D01*
X3259277Y1829511D01*
X3276498Y1836521D01*
X3292906Y1845259D01*
X3308299Y1855622D01*
X3322574Y1867560D01*
X3335578Y1880870D01*
X3347110Y1895398D01*
X3357067Y1911096D01*
X3365398Y1927707D01*
X3371951Y1945132D01*
X3376676Y1963064D01*
X3379520Y1981454D01*
X3380486Y1999996D01*
X3379520Y2018538D01*
X3376676Y2036927D01*
X3371951Y2054860D01*
X3365398Y2072284D01*
X3357067Y2088896D01*
X3347110Y2104593D01*
X3335578Y2119122D01*
X3322574Y2132431D01*
X3308299Y2144369D01*
X3292906Y2154732D01*
X3276498Y2163470D01*
X3259277Y2170480D01*
X3241446Y2175662D01*
X3223158Y2178964D01*
X3204616Y2180437D01*
X3186074Y2179929D01*
X3167634Y2177542D01*
X3149549Y2173274D01*
X3132023Y2167178D01*
X3115157Y2159304D01*
X3099257Y2149754D01*
X3084372Y2138578D01*
X3070758Y2125980D01*
X3058464Y2112010D01*
X3047695Y2096871D01*
X3038551Y2080666D01*
X3031134Y2063648D01*
X3025444Y2045970D01*
X3021634Y2027783D01*
X3019755Y2009292D01*
X3019755Y1990699D01*
X3021634Y1972208D01*
X3025444Y1954022D01*
X3031134Y1936343D01*
X3038551Y1919325D01*
X3047695Y1903120D01*
X3058464Y1887982D01*
X3070758Y1874012D01*
X3084372Y1861413D01*
X3099257Y1850237D01*
X3115157Y1840687D01*
X3132023Y1832813D01*
X3149549Y1826717D01*
X3167634Y1822450D01*
X3186074Y1820062D01*
G37*
G36*
X52069Y1807057D02*
G01*
X60147Y1808225D01*
X67868Y1810918D01*
X74930Y1814982D01*
X81076Y1820367D01*
X86156Y1826768D01*
X89865Y1834032D01*
X92202Y1841855D01*
X92964Y1849983D01*
X92202Y1858111D01*
X89865Y1865934D01*
X86156Y1873199D01*
X81076Y1879600D01*
X74930Y1884984D01*
X67868Y1889048D01*
X60147Y1891741D01*
X52069Y1892909D01*
X43891Y1892503D01*
X35966Y1890572D01*
X28549Y1887169D01*
X21894Y1882444D01*
X16256Y1876552D01*
X11836Y1869643D01*
X8788Y1862074D01*
X7264Y1854047D01*
X7264Y1845919D01*
X8788Y1837893D01*
X11836Y1830324D01*
X16256Y1823415D01*
X21894Y1817522D01*
X28549Y1812798D01*
X35966Y1809394D01*
X43891Y1807464D01*
G37*
G36*
X4666488Y-2912110D02*
G01*
X4679696Y-2912110D01*
X4692853Y-2910332D01*
X4705654Y-2906826D01*
X4717846Y-2901645D01*
X4729226Y-2894888D01*
X4739640Y-2886659D01*
X4748834Y-2877159D01*
X4756708Y-2866491D01*
X4763109Y-2854858D01*
X4767834Y-2842514D01*
X4770932Y-2829610D01*
X4772253Y-2816402D01*
X4771796Y-2803194D01*
X4769612Y-2790088D01*
X4765700Y-2777439D01*
X4760112Y-2765399D01*
X4752949Y-2754223D01*
X4744415Y-2744114D01*
X4734560Y-2735224D01*
X4723638Y-2727756D01*
X4711801Y-2721762D01*
X4699304Y-2717393D01*
X4686300Y-2714752D01*
X4673092Y-2713888D01*
X4659884Y-2714752D01*
X4646879Y-2717393D01*
X4634382Y-2721762D01*
X4622546Y-2727756D01*
X4611624Y-2735224D01*
X4601768Y-2744114D01*
X4593234Y-2754223D01*
X4586071Y-2765399D01*
X4580483Y-2777439D01*
X4576572Y-2790088D01*
X4574387Y-2803194D01*
X4573930Y-2816402D01*
X4575251Y-2829610D01*
X4578350Y-2842514D01*
X4583074Y-2854858D01*
X4589475Y-2866491D01*
X4597349Y-2877159D01*
X4606544Y-2886659D01*
X4616958Y-2894888D01*
X4628337Y-2901645D01*
X4640529Y-2906826D01*
X4653330Y-2910332D01*
G37*
G36*
X4666488Y-2658110D02*
G01*
X4679696Y-2658110D01*
X4692853Y-2656332D01*
X4705654Y-2652826D01*
X4717846Y-2647645D01*
X4729226Y-2640888D01*
X4739640Y-2632659D01*
X4748834Y-2623159D01*
X4756708Y-2612491D01*
X4763109Y-2600858D01*
X4767834Y-2588514D01*
X4770932Y-2575610D01*
X4772253Y-2562402D01*
X4771796Y-2549194D01*
X4769612Y-2536088D01*
X4765700Y-2523439D01*
X4760112Y-2511399D01*
X4752949Y-2500223D01*
X4744415Y-2490114D01*
X4734560Y-2481224D01*
X4723638Y-2473756D01*
X4711801Y-2467762D01*
X4699304Y-2463393D01*
X4686300Y-2460752D01*
X4673092Y-2459888D01*
X4659884Y-2460752D01*
X4646879Y-2463393D01*
X4634382Y-2467762D01*
X4622546Y-2473756D01*
X4611624Y-2481224D01*
X4601768Y-2490114D01*
X4593234Y-2500223D01*
X4586071Y-2511399D01*
X4580483Y-2523439D01*
X4576572Y-2536088D01*
X4574387Y-2549194D01*
X4573930Y-2562402D01*
X4575251Y-2575610D01*
X4578350Y-2588514D01*
X4583074Y-2600858D01*
X4589475Y-2612491D01*
X4597349Y-2623159D01*
X4606544Y-2632659D01*
X4616958Y-2640888D01*
X4628337Y-2647645D01*
X4640529Y-2652826D01*
X4653330Y-2656332D01*
G37*
G36*
X4920488Y-2658110D02*
G01*
X4933696Y-2658110D01*
X4946853Y-2656332D01*
X4959654Y-2652826D01*
X4971846Y-2647645D01*
X4983226Y-2640888D01*
X4993640Y-2632659D01*
X5002834Y-2623159D01*
X5010708Y-2612491D01*
X5017109Y-2600858D01*
X5021834Y-2588514D01*
X5024932Y-2575610D01*
X5026253Y-2562402D01*
X5025796Y-2549194D01*
X5023612Y-2536088D01*
X5019700Y-2523439D01*
X5014112Y-2511399D01*
X5006949Y-2500223D01*
X4998415Y-2490114D01*
X4988560Y-2481224D01*
X4977638Y-2473756D01*
X4965801Y-2467762D01*
X4953304Y-2463393D01*
X4940300Y-2460752D01*
X4927092Y-2459888D01*
X4913884Y-2460752D01*
X4900879Y-2463393D01*
X4888382Y-2467762D01*
X4876546Y-2473756D01*
X4865624Y-2481224D01*
X4855768Y-2490114D01*
X4847234Y-2500223D01*
X4840071Y-2511399D01*
X4834483Y-2523439D01*
X4830572Y-2536088D01*
X4828387Y-2549194D01*
X4827930Y-2562402D01*
X4829251Y-2575610D01*
X4832350Y-2588514D01*
X4837074Y-2600858D01*
X4843475Y-2612491D01*
X4851349Y-2623159D01*
X4860544Y-2632659D01*
X4870958Y-2640888D01*
X4882337Y-2647645D01*
X4894529Y-2652826D01*
X4907330Y-2656332D01*
G37*
G36*
X2852064Y-2642920D02*
G01*
X2860141Y-2641752D01*
X2867863Y-2639060D01*
X2874924Y-2634996D01*
X2881071Y-2629611D01*
X2886151Y-2623210D01*
X2889859Y-2615946D01*
X2892196Y-2608122D01*
X2892958Y-2599994D01*
X2892196Y-2591866D01*
X2889859Y-2584043D01*
X2886151Y-2576779D01*
X2881071Y-2570378D01*
X2874924Y-2564993D01*
X2867863Y-2560929D01*
X2860141Y-2558237D01*
X2852064Y-2557068D01*
X2843885Y-2557475D01*
X2835960Y-2559405D01*
X2828544Y-2562809D01*
X2821889Y-2567533D01*
X2816250Y-2573426D01*
X2811830Y-2580335D01*
X2808782Y-2587904D01*
X2807258Y-2595930D01*
X2807258Y-2604058D01*
X2808782Y-2612085D01*
X2811830Y-2619654D01*
X2816250Y-2626563D01*
X2821889Y-2632456D01*
X2828544Y-2637180D01*
X2835960Y-2640584D01*
X2843885Y-2642514D01*
G37*
G36*
X-2235454Y-2642920D02*
G01*
X-2227376Y-2641752D01*
X-2219655Y-2639060D01*
X-2212594Y-2634996D01*
X-2206447Y-2629611D01*
X-2201672Y-2623566D01*
X-2198776Y-2621076D01*
X-2195118Y-2619806D01*
X-2191308Y-2620010D01*
X-2187803Y-2621584D01*
X-2185162Y-2624378D01*
X-2183739Y-2626563D01*
X-2178100Y-2632456D01*
X-2171446Y-2637180D01*
X-2164029Y-2640584D01*
X-2156104Y-2642514D01*
X-2147925Y-2642920D01*
X-2139848Y-2641752D01*
X-2132126Y-2639060D01*
X-2125065Y-2634996D01*
X-2118918Y-2629611D01*
X-2113838Y-2623210D01*
X-2110130Y-2615946D01*
X-2107793Y-2608122D01*
X-2107031Y-2599994D01*
X-2107793Y-2591866D01*
X-2110130Y-2584043D01*
X-2113838Y-2576779D01*
X-2118918Y-2570378D01*
X-2125065Y-2564993D01*
X-2132126Y-2560929D01*
X-2139848Y-2558237D01*
X-2147925Y-2557068D01*
X-2156104Y-2557475D01*
X-2164029Y-2559405D01*
X-2171446Y-2562809D01*
X-2178100Y-2567533D01*
X-2183739Y-2573426D01*
X-2185162Y-2575610D01*
X-2187803Y-2578404D01*
X-2191308Y-2579979D01*
X-2195118Y-2580182D01*
X-2198776Y-2578912D01*
X-2201672Y-2576423D01*
X-2206447Y-2570378D01*
X-2212594Y-2564993D01*
X-2219655Y-2560929D01*
X-2227376Y-2558237D01*
X-2235454Y-2557068D01*
X-2243632Y-2557475D01*
X-2251557Y-2559405D01*
X-2258974Y-2562809D01*
X-2265629Y-2567533D01*
X-2271268Y-2573426D01*
X-2275687Y-2580335D01*
X-2278735Y-2587904D01*
X-2280259Y-2595930D01*
X-2280259Y-2604058D01*
X-2278735Y-2612085D01*
X-2275687Y-2619654D01*
X-2271268Y-2626563D01*
X-2265629Y-2632456D01*
X-2258974Y-2637180D01*
X-2251557Y-2640584D01*
X-2243632Y-2642514D01*
G37*
G36*
X202031Y1807057D02*
G01*
X210108Y1808225D01*
X217830Y1810918D01*
X224891Y1814982D01*
X231089Y1820367D01*
X236118Y1826768D01*
X239877Y1834032D01*
X242163Y1841855D01*
X242925Y1849983D01*
X242163Y1858111D01*
X239877Y1865934D01*
X236118Y1873199D01*
X231089Y1879600D01*
X224891Y1884984D01*
X217830Y1889048D01*
X210108Y1891741D01*
X202031Y1892909D01*
X193903Y1892503D01*
X185928Y1890572D01*
X178511Y1887169D01*
X171856Y1882444D01*
X166217Y1876552D01*
X161848Y1869643D01*
X158800Y1862074D01*
X157226Y1854047D01*
X157226Y1845919D01*
X158800Y1837893D01*
X161848Y1830324D01*
X166217Y1823415D01*
X171856Y1817522D01*
X178511Y1812798D01*
X185928Y1809394D01*
X193903Y1807464D01*
G37*
G36*
X-2447950Y-2642920D02*
G01*
X-2439873Y-2641752D01*
X-2432151Y-2639060D01*
X-2425090Y-2634996D01*
X-2418892Y-2629611D01*
X-2413863Y-2623210D01*
X-2410104Y-2615946D01*
X-2407767Y-2610967D01*
X-2404465Y-2608376D01*
X-2400452Y-2607360D01*
X-2396337Y-2608021D01*
X-2392832Y-2610256D01*
X-2390546Y-2613710D01*
X-2388158Y-2619654D01*
X-2383739Y-2626563D01*
X-2378100Y-2632456D01*
X-2371445Y-2637180D01*
X-2364028Y-2640584D01*
X-2356104Y-2642514D01*
X-2347925Y-2642920D01*
X-2339848Y-2641752D01*
X-2332126Y-2639060D01*
X-2325065Y-2634996D01*
X-2318918Y-2629611D01*
X-2313838Y-2623210D01*
X-2310130Y-2615946D01*
X-2307793Y-2608122D01*
X-2307031Y-2599994D01*
X-2307793Y-2591866D01*
X-2310130Y-2584043D01*
X-2313838Y-2576779D01*
X-2318918Y-2570378D01*
X-2325065Y-2564993D01*
X-2332126Y-2560929D01*
X-2339848Y-2558237D01*
X-2347925Y-2557068D01*
X-2356104Y-2557475D01*
X-2364028Y-2559405D01*
X-2371445Y-2562809D01*
X-2378100Y-2567533D01*
X-2383739Y-2573426D01*
X-2388158Y-2580335D01*
X-2390546Y-2586278D01*
X-2392832Y-2589733D01*
X-2396337Y-2591968D01*
X-2400452Y-2592628D01*
X-2404465Y-2591612D01*
X-2407767Y-2589022D01*
X-2410104Y-2584043D01*
X-2413863Y-2576779D01*
X-2418892Y-2570378D01*
X-2425090Y-2564993D01*
X-2432151Y-2560929D01*
X-2439873Y-2558237D01*
X-2447950Y-2557068D01*
X-2456078Y-2557475D01*
X-2464054Y-2559405D01*
X-2471470Y-2562809D01*
X-2478125Y-2567533D01*
X-2483764Y-2573426D01*
X-2488133Y-2580335D01*
X-2491181Y-2587904D01*
X-2492756Y-2595930D01*
X-2492756Y-2604058D01*
X-2491181Y-2612085D01*
X-2488133Y-2619654D01*
X-2483764Y-2626563D01*
X-2478125Y-2632456D01*
X-2471470Y-2637180D01*
X-2464054Y-2640584D01*
X-2456078Y-2642514D01*
G37*
G36*
X4666488Y1659889D02*
G01*
X4679696Y1659889D01*
X4692853Y1661668D01*
X4705654Y1665173D01*
X4717846Y1670354D01*
X4729226Y1677111D01*
X4739640Y1685340D01*
X4748834Y1694840D01*
X4756708Y1705508D01*
X4763109Y1717141D01*
X4767834Y1729486D01*
X4770932Y1742389D01*
X4772253Y1755597D01*
X4771796Y1768805D01*
X4769612Y1781911D01*
X4765700Y1794560D01*
X4760112Y1806600D01*
X4752949Y1817776D01*
X4744415Y1827885D01*
X4734560Y1836775D01*
X4723638Y1844243D01*
X4711801Y1850237D01*
X4699304Y1854606D01*
X4686300Y1857248D01*
X4673092Y1858111D01*
X4659884Y1857248D01*
X4646879Y1854606D01*
X4634382Y1850237D01*
X4622546Y1844243D01*
X4611624Y1836775D01*
X4601768Y1827885D01*
X4593234Y1817776D01*
X4586071Y1806600D01*
X4580483Y1794560D01*
X4576572Y1781911D01*
X4574387Y1768805D01*
X4573930Y1755597D01*
X4575251Y1742389D01*
X4578350Y1729486D01*
X4583074Y1717141D01*
X4589475Y1705508D01*
X4597349Y1694840D01*
X4606544Y1685340D01*
X4616958Y1677111D01*
X4628337Y1670354D01*
X4640529Y1665173D01*
X4653330Y1661668D01*
G37*
G36*
X4920488Y1659889D02*
G01*
X4933696Y1659889D01*
X4946853Y1661668D01*
X4959654Y1665173D01*
X4971846Y1670354D01*
X4983226Y1677111D01*
X4993640Y1685340D01*
X5002834Y1694840D01*
X5010708Y1705508D01*
X5017109Y1717141D01*
X5021834Y1729486D01*
X5024932Y1742389D01*
X5026253Y1755597D01*
X5025796Y1768805D01*
X5023612Y1781911D01*
X5019700Y1794560D01*
X5014112Y1806600D01*
X5006949Y1817776D01*
X4998415Y1827885D01*
X4988560Y1836775D01*
X4977638Y1844243D01*
X4965801Y1850237D01*
X4953304Y1854606D01*
X4940300Y1857248D01*
X4927092Y1858111D01*
X4913884Y1857248D01*
X4900879Y1854606D01*
X4888382Y1850237D01*
X4876546Y1844243D01*
X4865624Y1836775D01*
X4855768Y1827885D01*
X4847234Y1817776D01*
X4840071Y1806600D01*
X4834483Y1794560D01*
X4830572Y1781911D01*
X4828387Y1768805D01*
X4827930Y1755597D01*
X4829251Y1742389D01*
X4832350Y1729486D01*
X4837074Y1717141D01*
X4843475Y1705508D01*
X4851349Y1694840D01*
X4860544Y1685340D01*
X4870958Y1677111D01*
X4882337Y1670354D01*
X4894529Y1665173D01*
X4907330Y1661668D01*
G37*
G36*
X4202023Y1607058D02*
G01*
X4210100Y1608226D01*
X4217822Y1610918D01*
X4224883Y1614982D01*
X4231081Y1620367D01*
X4236110Y1626768D01*
X4239869Y1634032D01*
X4242155Y1641856D01*
X4242917Y1649984D01*
X4242155Y1658112D01*
X4239869Y1665935D01*
X4236110Y1673199D01*
X4231081Y1679600D01*
X4224883Y1684985D01*
X4217822Y1689049D01*
X4214012Y1690370D01*
X4210405Y1692503D01*
X4208018Y1695907D01*
X4207154Y1699971D01*
X4208018Y1704035D01*
X4210405Y1707438D01*
X4214012Y1709572D01*
X4217822Y1710893D01*
X4224883Y1715007D01*
X4231081Y1720342D01*
X4236110Y1726742D01*
X4239869Y1734007D01*
X4242155Y1741830D01*
X4242917Y1749958D01*
X4242155Y1758137D01*
X4239869Y1765960D01*
X4236110Y1773224D01*
X4231081Y1779625D01*
X4224883Y1784959D01*
X4217822Y1789074D01*
X4210100Y1791716D01*
X4202023Y1792884D01*
X4193895Y1792478D01*
X4185920Y1790547D01*
X4178503Y1787194D01*
X4171848Y1782419D01*
X4166209Y1776526D01*
X4161790Y1769668D01*
X4158792Y1762099D01*
X4157218Y1754073D01*
X4157218Y1745894D01*
X4158792Y1737868D01*
X4161790Y1730298D01*
X4166209Y1723440D01*
X4171848Y1717548D01*
X4178503Y1712772D01*
X4186326Y1709216D01*
X4189425Y1706981D01*
X4191508Y1703781D01*
X4192270Y1699971D01*
X4191508Y1696212D01*
X4189425Y1692960D01*
X4186326Y1690725D01*
X4178503Y1687169D01*
X4171848Y1682445D01*
X4166209Y1676552D01*
X4161790Y1669643D01*
X4158792Y1662074D01*
X4157218Y1654048D01*
X4157218Y1645920D01*
X4158792Y1637893D01*
X4161790Y1630324D01*
X4166209Y1623415D01*
X4171848Y1617522D01*
X4178503Y1612798D01*
X4185920Y1609394D01*
X4193895Y1607464D01*
G37*
G36*
X-1297940Y-2567889D02*
G01*
X-1289862Y-2566720D01*
X-1282141Y-2564079D01*
X-1275080Y-2559964D01*
X-1268933Y-2554630D01*
X-1263853Y-2548229D01*
X-1260144Y-2540965D01*
X-1257808Y-2533142D01*
X-1257046Y-2525014D01*
X-1257808Y-2516835D01*
X-1260144Y-2509012D01*
X-1263853Y-2501747D01*
X-1268933Y-2495346D01*
X-1275080Y-2490012D01*
X-1282141Y-2485898D01*
X-1289862Y-2483256D01*
X-1297940Y-2482088D01*
X-1306118Y-2482494D01*
X-1314043Y-2484424D01*
X-1321460Y-2487777D01*
X-1328115Y-2492552D01*
X-1333754Y-2498445D01*
X-1338173Y-2505303D01*
X-1341221Y-2512872D01*
X-1342745Y-2520899D01*
X-1342745Y-2529078D01*
X-1341221Y-2537104D01*
X-1338173Y-2544673D01*
X-1333754Y-2551531D01*
X-1328115Y-2557424D01*
X-1321460Y-2562199D01*
X-1314043Y-2565552D01*
X-1306118Y-2567482D01*
G37*
G36*
X-1947925Y-2542895D02*
G01*
X-1939848Y-2541727D01*
X-1932127Y-2539085D01*
X-1925066Y-2534970D01*
X-1918919Y-2529636D01*
X-1913839Y-2523236D01*
X-1910130Y-2515971D01*
X-1907793Y-2508148D01*
X-1907032Y-2500020D01*
X-1907793Y-2491841D01*
X-1910130Y-2484018D01*
X-1913839Y-2476754D01*
X-1918919Y-2470353D01*
X-1925066Y-2465019D01*
X-1932127Y-2460904D01*
X-1939848Y-2458262D01*
X-1947925Y-2457094D01*
X-1956104Y-2457500D01*
X-1964029Y-2459431D01*
X-1971446Y-2462784D01*
X-1978101Y-2467559D01*
X-1983739Y-2473452D01*
X-1988159Y-2480310D01*
X-1991207Y-2487879D01*
X-1992731Y-2495905D01*
X-1992731Y-2504084D01*
X-1991207Y-2512110D01*
X-1988159Y-2519680D01*
X-1983739Y-2526538D01*
X-1978101Y-2532430D01*
X-1971446Y-2537206D01*
X-1964029Y-2540558D01*
X-1956104Y-2542489D01*
G37*
G36*
X-3097936Y-2542895D02*
G01*
X-3089859Y-2541727D01*
X-3082137Y-2539085D01*
X-3075076Y-2534970D01*
X-3068929Y-2529636D01*
X-3063849Y-2523236D01*
X-3060141Y-2515971D01*
X-3057804Y-2508148D01*
X-3057042Y-2500020D01*
X-3057804Y-2491841D01*
X-3060141Y-2484018D01*
X-3063849Y-2476754D01*
X-3068929Y-2470353D01*
X-3075076Y-2465019D01*
X-3082137Y-2460904D01*
X-3089859Y-2458262D01*
X-3097936Y-2457094D01*
X-3106115Y-2457500D01*
X-3114040Y-2459431D01*
X-3121456Y-2462784D01*
X-3128111Y-2467559D01*
X-3133750Y-2473452D01*
X-3138170Y-2480310D01*
X-3141218Y-2487879D01*
X-3142742Y-2495905D01*
X-3142742Y-2504084D01*
X-3141218Y-2512110D01*
X-3138170Y-2519680D01*
X-3133750Y-2526538D01*
X-3128111Y-2532430D01*
X-3121456Y-2537206D01*
X-3114040Y-2540558D01*
X-3106115Y-2542489D01*
G37*
G36*
X-3439972Y-2505456D02*
G01*
X-3426206Y-2504592D01*
X-3412693Y-2501900D01*
X-3399637Y-2497429D01*
X-3387242Y-2491333D01*
X-3375812Y-2483662D01*
X-3365398Y-2474569D01*
X-3356305Y-2464206D01*
X-3348634Y-2452725D01*
X-3342538Y-2440381D01*
X-3338118Y-2427274D01*
X-3335426Y-2413762D01*
X-3334512Y-2399995D01*
X-3335426Y-2386228D01*
X-3338118Y-2372715D01*
X-3342538Y-2359609D01*
X-3348634Y-2347264D01*
X-3356305Y-2335784D01*
X-3365398Y-2325420D01*
X-3375812Y-2316327D01*
X-3387242Y-2308656D01*
X-3399637Y-2302560D01*
X-3412693Y-2298090D01*
X-3426206Y-2295398D01*
X-3439972Y-2294534D01*
X-3453790Y-2295398D01*
X-3467303Y-2298090D01*
X-3480358Y-2302560D01*
X-3492754Y-2308656D01*
X-3504184Y-2316327D01*
X-3514598Y-2325420D01*
X-3523691Y-2335784D01*
X-3531362Y-2347264D01*
X-3537458Y-2359609D01*
X-3541877Y-2372715D01*
X-3544570Y-2386228D01*
X-3545484Y-2399995D01*
X-3544570Y-2413762D01*
X-3541877Y-2427274D01*
X-3537458Y-2440381D01*
X-3531362Y-2452725D01*
X-3523691Y-2464206D01*
X-3514598Y-2474569D01*
X-3504184Y-2483662D01*
X-3492754Y-2491333D01*
X-3480358Y-2497429D01*
X-3467303Y-2501900D01*
X-3453790Y-2504592D01*
G37*
G36*
X-1197965Y-2492908D02*
G01*
X-1189888Y-2491740D01*
X-1182166Y-2489098D01*
X-1175105Y-2484983D01*
X-1168908Y-2479649D01*
X-1163878Y-2473248D01*
X-1160119Y-2465984D01*
X-1157782Y-2461006D01*
X-1154480Y-2458415D01*
X-1150467Y-2457348D01*
X-1146352Y-2458008D01*
X-1142847Y-2460294D01*
X-1140561Y-2463749D01*
X-1138174Y-2469692D01*
X-1133754Y-2476550D01*
X-1128115Y-2482443D01*
X-1121460Y-2487218D01*
X-1114044Y-2490571D01*
X-1106119Y-2492502D01*
X-1097940Y-2492908D01*
X-1089863Y-2491740D01*
X-1082141Y-2489098D01*
X-1075080Y-2484983D01*
X-1068933Y-2479649D01*
X-1063853Y-2473248D01*
X-1057757Y-2461006D01*
X-1054506Y-2458415D01*
X-1050493Y-2457348D01*
X-1046378Y-2458008D01*
X-1042873Y-2460294D01*
X-1040536Y-2463749D01*
X-1038148Y-2469692D01*
X-1033780Y-2476550D01*
X-1028141Y-2482443D01*
X-1021486Y-2487218D01*
X-1014069Y-2490571D01*
X-1006094Y-2492502D01*
X-997966Y-2492908D01*
X-989888Y-2491740D01*
X-982167Y-2489098D01*
X-975106Y-2484983D01*
X-968908Y-2479649D01*
X-963879Y-2473248D01*
X-960119Y-2465984D01*
X-957783Y-2461006D01*
X-954481Y-2458415D01*
X-950468Y-2457348D01*
X-946353Y-2458008D01*
X-942848Y-2460294D01*
X-940562Y-2463749D01*
X-938174Y-2469692D01*
X-933754Y-2476550D01*
X-928116Y-2482443D01*
X-921461Y-2487218D01*
X-914044Y-2490571D01*
X-906119Y-2492502D01*
X-897940Y-2492908D01*
X-889863Y-2491740D01*
X-882142Y-2489098D01*
X-875080Y-2484983D01*
X-868934Y-2479649D01*
X-863853Y-2473248D01*
X-860145Y-2465984D01*
X-857808Y-2458161D01*
X-857046Y-2450033D01*
X-857808Y-2441854D01*
X-860145Y-2434031D01*
X-863853Y-2426766D01*
X-868934Y-2420366D01*
X-875080Y-2415032D01*
X-882142Y-2410917D01*
X-889863Y-2408275D01*
X-897940Y-2407107D01*
X-906119Y-2407513D01*
X-914044Y-2409444D01*
X-921461Y-2412796D01*
X-928116Y-2417572D01*
X-933754Y-2423464D01*
X-938174Y-2430322D01*
X-940562Y-2436266D01*
X-942848Y-2439720D01*
X-946353Y-2442006D01*
X-950468Y-2442667D01*
X-954481Y-2441600D01*
X-957783Y-2439009D01*
X-960119Y-2434031D01*
X-963879Y-2426766D01*
X-968908Y-2420366D01*
X-975106Y-2415032D01*
X-982167Y-2410917D01*
X-989888Y-2408275D01*
X-997966Y-2407107D01*
X-1006094Y-2407513D01*
X-1014069Y-2409444D01*
X-1021486Y-2412796D01*
X-1028141Y-2417572D01*
X-1033780Y-2423464D01*
X-1038148Y-2430322D01*
X-1040536Y-2436266D01*
X-1042873Y-2439720D01*
X-1046378Y-2442006D01*
X-1050493Y-2442667D01*
X-1054506Y-2441600D01*
X-1057757Y-2439009D01*
X-1063853Y-2426766D01*
X-1068933Y-2420366D01*
X-1075080Y-2415032D01*
X-1082141Y-2410917D01*
X-1089863Y-2408275D01*
X-1097940Y-2407107D01*
X-1106119Y-2407513D01*
X-1114044Y-2409444D01*
X-1121460Y-2412796D01*
X-1128115Y-2417572D01*
X-1133754Y-2423464D01*
X-1138174Y-2430322D01*
X-1140561Y-2436266D01*
X-1142847Y-2439720D01*
X-1146352Y-2442006D01*
X-1150467Y-2442667D01*
X-1154480Y-2441600D01*
X-1157782Y-2439009D01*
X-1160119Y-2434031D01*
X-1163878Y-2426766D01*
X-1168908Y-2420366D01*
X-1175105Y-2415032D01*
X-1182166Y-2410917D01*
X-1189888Y-2408275D01*
X-1197965Y-2407107D01*
X-1206093Y-2407513D01*
X-1214069Y-2409444D01*
X-1221486Y-2412796D01*
X-1228140Y-2417572D01*
X-1233779Y-2423464D01*
X-1238148Y-2430322D01*
X-1241196Y-2437892D01*
X-1242771Y-2445918D01*
X-1242771Y-2454097D01*
X-1241196Y-2462123D01*
X-1238148Y-2469692D01*
X-1233779Y-2476550D01*
X-1228140Y-2482443D01*
X-1221486Y-2487218D01*
X-1214069Y-2490571D01*
X-1206093Y-2492502D01*
G37*
G36*
X1402029Y1607058D02*
G01*
X1410106Y1608226D01*
X1417828Y1610918D01*
X1424889Y1614982D01*
X1431086Y1620367D01*
X1436116Y1626768D01*
X1439875Y1634032D01*
X1442161Y1641856D01*
X1442923Y1649984D01*
X1442161Y1658112D01*
X1439875Y1665935D01*
X1436116Y1673199D01*
X1431086Y1679600D01*
X1424889Y1684985D01*
X1417828Y1689049D01*
X1410106Y1691741D01*
X1402029Y1692910D01*
X1393901Y1692503D01*
X1385925Y1690573D01*
X1378508Y1687169D01*
X1371854Y1682445D01*
X1366215Y1676552D01*
X1361846Y1669643D01*
X1358798Y1662074D01*
X1357223Y1654048D01*
X1357223Y1645920D01*
X1358798Y1637893D01*
X1361846Y1630324D01*
X1366215Y1623415D01*
X1371854Y1617522D01*
X1378508Y1612798D01*
X1385925Y1609394D01*
X1393901Y1607464D01*
G37*
G36*
X1552041Y1607058D02*
G01*
X1560118Y1608226D01*
X1567840Y1610918D01*
X1574901Y1614982D01*
X1581099Y1620367D01*
X1586128Y1626768D01*
X1589887Y1634032D01*
X1592173Y1641856D01*
X1592935Y1649984D01*
X1592173Y1658112D01*
X1589887Y1665935D01*
X1586128Y1673199D01*
X1581099Y1679600D01*
X1574901Y1684985D01*
X1567840Y1689049D01*
X1560118Y1691741D01*
X1552041Y1692910D01*
X1543913Y1692503D01*
X1535938Y1690573D01*
X1528521Y1687169D01*
X1521866Y1682445D01*
X1516227Y1676552D01*
X1511858Y1669643D01*
X1508810Y1662074D01*
X1507236Y1654048D01*
X1507236Y1645920D01*
X1508810Y1637893D01*
X1511858Y1630324D01*
X1516227Y1623415D01*
X1521866Y1617522D01*
X1528521Y1612798D01*
X1535938Y1609394D01*
X1543913Y1607464D01*
G37*
G36*
X2801924Y1557172D02*
G01*
X2810002Y1558340D01*
X2817723Y1561033D01*
X2824784Y1565097D01*
X2830982Y1570482D01*
X2836011Y1576882D01*
X2839770Y1584147D01*
X2842056Y1591970D01*
X2842818Y1600098D01*
X2842056Y1608226D01*
X2839770Y1616049D01*
X2836011Y1623314D01*
X2830982Y1629714D01*
X2824784Y1635099D01*
X2817723Y1639163D01*
X2810002Y1641856D01*
X2801924Y1643024D01*
X2793796Y1642618D01*
X2785821Y1640687D01*
X2778404Y1637283D01*
X2771749Y1632559D01*
X2766110Y1626666D01*
X2761742Y1619758D01*
X2758694Y1612188D01*
X2757119Y1604162D01*
X2757119Y1596034D01*
X2758694Y1588008D01*
X2761742Y1580438D01*
X2766110Y1573530D01*
X2771749Y1567637D01*
X2778404Y1562912D01*
X2785821Y1559509D01*
X2793796Y1557578D01*
G37*
G36*
X1302054Y-2492908D02*
G01*
X1310132Y-2491740D01*
X1317853Y-2489098D01*
X1324914Y-2484983D01*
X1331061Y-2479649D01*
X1336141Y-2473248D01*
X1342237Y-2461006D01*
X1345488Y-2458415D01*
X1349502Y-2457348D01*
X1353616Y-2458008D01*
X1357122Y-2460294D01*
X1359458Y-2463749D01*
X1361846Y-2469692D01*
X1366215Y-2476550D01*
X1371854Y-2482443D01*
X1378508Y-2487218D01*
X1385925Y-2490571D01*
X1393901Y-2492502D01*
X1402029Y-2492908D01*
X1410106Y-2491740D01*
X1417828Y-2489098D01*
X1424889Y-2484983D01*
X1431086Y-2479649D01*
X1436116Y-2473248D01*
X1439875Y-2465984D01*
X1442212Y-2461006D01*
X1445514Y-2458415D01*
X1449527Y-2457348D01*
X1453642Y-2458008D01*
X1457147Y-2460294D01*
X1459433Y-2463749D01*
X1461820Y-2469692D01*
X1466240Y-2476550D01*
X1471879Y-2482443D01*
X1478534Y-2487218D01*
X1485950Y-2490571D01*
X1493875Y-2492502D01*
X1502054Y-2492908D01*
X1510131Y-2491740D01*
X1517853Y-2489098D01*
X1524914Y-2484983D01*
X1531061Y-2479649D01*
X1536141Y-2473248D01*
X1542237Y-2461006D01*
X1545488Y-2458415D01*
X1549501Y-2457348D01*
X1553616Y-2458008D01*
X1557121Y-2460294D01*
X1559458Y-2463749D01*
X1561846Y-2469692D01*
X1566214Y-2476550D01*
X1571853Y-2482443D01*
X1578508Y-2487218D01*
X1585925Y-2490571D01*
X1593900Y-2492502D01*
X1602028Y-2492908D01*
X1610106Y-2491740D01*
X1617827Y-2489098D01*
X1624888Y-2484983D01*
X1631086Y-2479649D01*
X1636115Y-2473248D01*
X1639874Y-2465984D01*
X1642160Y-2458161D01*
X1642922Y-2450033D01*
X1642160Y-2441854D01*
X1639874Y-2434031D01*
X1636115Y-2426766D01*
X1631086Y-2420366D01*
X1624888Y-2415032D01*
X1617827Y-2410917D01*
X1610106Y-2408275D01*
X1602028Y-2407107D01*
X1593900Y-2407513D01*
X1585925Y-2409444D01*
X1578508Y-2412796D01*
X1571853Y-2417572D01*
X1566214Y-2423464D01*
X1561846Y-2430322D01*
X1559458Y-2436266D01*
X1557121Y-2439720D01*
X1553616Y-2442006D01*
X1549501Y-2442667D01*
X1545488Y-2441600D01*
X1542237Y-2439009D01*
X1536141Y-2426766D01*
X1531061Y-2420366D01*
X1524914Y-2415032D01*
X1517853Y-2410917D01*
X1510131Y-2408275D01*
X1502054Y-2407107D01*
X1493875Y-2407513D01*
X1485950Y-2409444D01*
X1478534Y-2412796D01*
X1471879Y-2417572D01*
X1466240Y-2423464D01*
X1461820Y-2430322D01*
X1459433Y-2436266D01*
X1457147Y-2439720D01*
X1453642Y-2442006D01*
X1449527Y-2442667D01*
X1445514Y-2441600D01*
X1442212Y-2439009D01*
X1439875Y-2434031D01*
X1436116Y-2426766D01*
X1431086Y-2420366D01*
X1424889Y-2415032D01*
X1417828Y-2410917D01*
X1410106Y-2408275D01*
X1402029Y-2407107D01*
X1393901Y-2407513D01*
X1385925Y-2409444D01*
X1378508Y-2412796D01*
X1371854Y-2417572D01*
X1366215Y-2423464D01*
X1361846Y-2430322D01*
X1359458Y-2436266D01*
X1357122Y-2439720D01*
X1353616Y-2442006D01*
X1349502Y-2442667D01*
X1345488Y-2441600D01*
X1342237Y-2439009D01*
X1336141Y-2426766D01*
X1331061Y-2420366D01*
X1324914Y-2415032D01*
X1317853Y-2410917D01*
X1310132Y-2408275D01*
X1302054Y-2407107D01*
X1293876Y-2407513D01*
X1285951Y-2409444D01*
X1278534Y-2412796D01*
X1271879Y-2417572D01*
X1266240Y-2423464D01*
X1261821Y-2430322D01*
X1258773Y-2437892D01*
X1257249Y-2445918D01*
X1257249Y-2454097D01*
X1258773Y-2462123D01*
X1261821Y-2469692D01*
X1266240Y-2476550D01*
X1271879Y-2482443D01*
X1278534Y-2487218D01*
X1285951Y-2490571D01*
X1293876Y-2492502D01*
G37*
G36*
X2601925Y1457198D02*
G01*
X2610002Y1458366D01*
X2617724Y1461008D01*
X2624785Y1465122D01*
X2630982Y1470456D01*
X2636012Y1476857D01*
X2639771Y1484122D01*
X2642057Y1491945D01*
X2642819Y1500073D01*
X2642057Y1508252D01*
X2639771Y1516075D01*
X2636012Y1523339D01*
X2630982Y1529740D01*
X2624785Y1535074D01*
X2617724Y1539189D01*
X2610002Y1541830D01*
X2601925Y1542999D01*
X2593797Y1542592D01*
X2585821Y1540662D01*
X2578404Y1537309D01*
X2571750Y1532534D01*
X2566111Y1526641D01*
X2561691Y1519783D01*
X2558694Y1512214D01*
X2557119Y1504188D01*
X2557119Y1496009D01*
X2558694Y1487982D01*
X2561691Y1480413D01*
X2566111Y1473555D01*
X2571750Y1467662D01*
X2578404Y1462887D01*
X2585821Y1459534D01*
X2593797Y1457604D01*
G37*
G36*
X4666488Y1405890D02*
G01*
X4679696Y1405890D01*
X4692853Y1407668D01*
X4705654Y1411173D01*
X4717846Y1416354D01*
X4729226Y1423111D01*
X4739640Y1431340D01*
X4748834Y1440840D01*
X4756708Y1451508D01*
X4763109Y1463141D01*
X4767834Y1475486D01*
X4770932Y1488389D01*
X4772253Y1501597D01*
X4771796Y1514805D01*
X4769612Y1527911D01*
X4765700Y1540560D01*
X4760112Y1552600D01*
X4752949Y1563776D01*
X4744415Y1573885D01*
X4734560Y1582775D01*
X4723638Y1590243D01*
X4711801Y1596237D01*
X4699304Y1600606D01*
X4686300Y1603248D01*
X4673092Y1604111D01*
X4659884Y1603248D01*
X4646879Y1600606D01*
X4634382Y1596237D01*
X4622546Y1590243D01*
X4611624Y1582775D01*
X4601768Y1573885D01*
X4593234Y1563776D01*
X4586071Y1552600D01*
X4580483Y1540560D01*
X4576572Y1527911D01*
X4574387Y1514805D01*
X4573930Y1501597D01*
X4575251Y1488389D01*
X4578350Y1475486D01*
X4583074Y1463141D01*
X4589475Y1451508D01*
X4597349Y1440840D01*
X4606544Y1431340D01*
X4616958Y1423111D01*
X4628337Y1416354D01*
X4640529Y1411173D01*
X4653330Y1407668D01*
G37*
G36*
X4920488Y1405890D02*
G01*
X4933696Y1405890D01*
X4946853Y1407668D01*
X4959654Y1411173D01*
X4971846Y1416354D01*
X4983226Y1423111D01*
X4993640Y1431340D01*
X5002834Y1440840D01*
X5010708Y1451508D01*
X5017109Y1463141D01*
X5021834Y1475486D01*
X5024932Y1488389D01*
X5026253Y1501597D01*
X5025796Y1514805D01*
X5023612Y1527911D01*
X5019700Y1540560D01*
X5014112Y1552600D01*
X5006949Y1563776D01*
X4998415Y1573885D01*
X4988560Y1582775D01*
X4977638Y1590243D01*
X4965801Y1596237D01*
X4953304Y1600606D01*
X4940300Y1603248D01*
X4927092Y1604111D01*
X4913884Y1603248D01*
X4900879Y1600606D01*
X4888382Y1596237D01*
X4876546Y1590243D01*
X4865624Y1582775D01*
X4855768Y1573885D01*
X4847234Y1563776D01*
X4840071Y1552600D01*
X4834483Y1540560D01*
X4830572Y1527911D01*
X4828387Y1514805D01*
X4827930Y1501597D01*
X4829251Y1488389D01*
X4832350Y1475486D01*
X4837074Y1463141D01*
X4843475Y1451508D01*
X4851349Y1440840D01*
X4860544Y1431340D01*
X4870958Y1423111D01*
X4882337Y1416354D01*
X4894529Y1411173D01*
X4907330Y1407668D01*
G37*
G36*
X2252065Y-2492908D02*
G01*
X2260142Y-2491740D01*
X2267864Y-2489098D01*
X2274925Y-2484983D01*
X2281072Y-2479649D01*
X2286152Y-2473248D01*
X2292248Y-2461006D01*
X2295499Y-2458415D01*
X2299512Y-2457348D01*
X2303627Y-2458008D01*
X2307132Y-2460294D01*
X2309469Y-2463749D01*
X2311857Y-2469692D01*
X2316226Y-2476550D01*
X2321864Y-2482443D01*
X2328519Y-2487218D01*
X2335936Y-2490571D01*
X2343912Y-2492502D01*
X2352040Y-2492908D01*
X2360117Y-2491740D01*
X2367838Y-2489098D01*
X2374900Y-2484983D01*
X2381097Y-2479649D01*
X2386126Y-2473248D01*
X2389886Y-2465984D01*
X2392222Y-2461006D01*
X2395524Y-2458415D01*
X2399538Y-2457348D01*
X2403652Y-2458008D01*
X2407158Y-2460294D01*
X2409444Y-2463749D01*
X2411831Y-2469692D01*
X2416251Y-2476550D01*
X2421890Y-2482443D01*
X2428544Y-2487218D01*
X2435961Y-2490571D01*
X2443886Y-2492502D01*
X2452065Y-2492908D01*
X2460142Y-2491740D01*
X2467864Y-2489098D01*
X2474925Y-2484983D01*
X2481072Y-2479649D01*
X2486152Y-2473248D01*
X2492248Y-2461006D01*
X2495499Y-2458415D01*
X2499512Y-2457348D01*
X2503627Y-2458008D01*
X2507132Y-2460294D01*
X2509469Y-2463749D01*
X2511806Y-2469692D01*
X2516225Y-2476550D01*
X2521864Y-2482443D01*
X2528519Y-2487218D01*
X2535936Y-2490571D01*
X2543911Y-2492502D01*
X2552039Y-2492908D01*
X2560116Y-2491740D01*
X2567838Y-2489098D01*
X2574899Y-2484983D01*
X2581097Y-2479649D01*
X2586126Y-2473248D01*
X2589885Y-2465984D01*
X2592222Y-2461006D01*
X2595524Y-2458415D01*
X2599537Y-2457348D01*
X2603652Y-2458008D01*
X2607157Y-2460294D01*
X2609443Y-2463749D01*
X2611831Y-2469692D01*
X2616250Y-2476550D01*
X2621889Y-2482443D01*
X2628544Y-2487218D01*
X2635961Y-2490571D01*
X2643886Y-2492502D01*
X2652064Y-2492908D01*
X2660142Y-2491740D01*
X2667863Y-2489098D01*
X2674924Y-2484983D01*
X2681071Y-2479649D01*
X2686151Y-2473248D01*
X2692247Y-2461006D01*
X2695498Y-2458415D01*
X2699512Y-2457348D01*
X2703626Y-2458008D01*
X2707132Y-2460294D01*
X2709468Y-2463749D01*
X2711856Y-2469692D01*
X2716225Y-2476550D01*
X2721864Y-2482443D01*
X2728518Y-2487218D01*
X2735935Y-2490571D01*
X2743911Y-2492502D01*
X2752039Y-2492908D01*
X2760116Y-2491740D01*
X2767838Y-2489098D01*
X2774899Y-2484983D01*
X2781096Y-2479649D01*
X2786126Y-2473248D01*
X2789885Y-2465984D01*
X2792171Y-2458161D01*
X2792933Y-2450033D01*
X2792171Y-2441854D01*
X2789885Y-2434031D01*
X2786126Y-2426766D01*
X2781096Y-2420366D01*
X2774899Y-2415032D01*
X2767838Y-2410917D01*
X2760116Y-2408275D01*
X2752039Y-2407107D01*
X2743911Y-2407513D01*
X2735935Y-2409444D01*
X2728518Y-2412796D01*
X2721864Y-2417572D01*
X2716225Y-2423464D01*
X2711856Y-2430322D01*
X2709468Y-2436266D01*
X2707132Y-2439720D01*
X2703626Y-2442006D01*
X2699512Y-2442667D01*
X2695498Y-2441600D01*
X2692247Y-2439009D01*
X2686151Y-2426766D01*
X2681071Y-2420366D01*
X2674924Y-2415032D01*
X2667863Y-2410917D01*
X2660142Y-2408275D01*
X2652064Y-2407107D01*
X2643886Y-2407513D01*
X2635961Y-2409444D01*
X2628544Y-2412796D01*
X2621889Y-2417572D01*
X2616250Y-2423464D01*
X2611831Y-2430322D01*
X2609443Y-2436266D01*
X2607157Y-2439720D01*
X2603652Y-2442006D01*
X2599537Y-2442667D01*
X2595524Y-2441600D01*
X2592222Y-2439009D01*
X2589885Y-2434031D01*
X2586126Y-2426766D01*
X2581097Y-2420366D01*
X2574899Y-2415032D01*
X2567838Y-2410917D01*
X2560116Y-2408275D01*
X2552039Y-2407107D01*
X2543911Y-2407513D01*
X2535936Y-2409444D01*
X2528519Y-2412796D01*
X2521864Y-2417572D01*
X2516225Y-2423464D01*
X2511806Y-2430322D01*
X2509469Y-2436266D01*
X2507132Y-2439720D01*
X2503627Y-2442006D01*
X2499512Y-2442667D01*
X2495499Y-2441600D01*
X2492248Y-2439009D01*
X2486152Y-2426766D01*
X2481072Y-2420366D01*
X2474925Y-2415032D01*
X2467864Y-2410917D01*
X2460142Y-2408275D01*
X2452065Y-2407107D01*
X2443886Y-2407513D01*
X2435961Y-2409444D01*
X2428544Y-2412796D01*
X2421890Y-2417572D01*
X2416251Y-2423464D01*
X2411831Y-2430322D01*
X2409444Y-2436266D01*
X2407158Y-2439720D01*
X2403652Y-2442006D01*
X2399538Y-2442667D01*
X2395524Y-2441600D01*
X2392222Y-2439009D01*
X2389886Y-2434031D01*
X2386126Y-2426766D01*
X2381097Y-2420366D01*
X2374900Y-2415032D01*
X2367838Y-2410917D01*
X2360117Y-2408275D01*
X2352040Y-2407107D01*
X2343912Y-2407513D01*
X2335936Y-2409444D01*
X2328519Y-2412796D01*
X2321864Y-2417572D01*
X2316226Y-2423464D01*
X2311857Y-2430322D01*
X2309469Y-2436266D01*
X2307132Y-2439720D01*
X2303627Y-2442006D01*
X2299512Y-2442667D01*
X2295499Y-2441600D01*
X2292248Y-2439009D01*
X2286152Y-2426766D01*
X2281072Y-2420366D01*
X2274925Y-2415032D01*
X2267864Y-2410917D01*
X2260142Y-2408275D01*
X2252065Y-2407107D01*
X2243886Y-2407513D01*
X2235962Y-2409444D01*
X2228545Y-2412796D01*
X2221890Y-2417572D01*
X2216251Y-2423464D01*
X2211832Y-2430322D01*
X2208784Y-2437892D01*
X2207260Y-2445918D01*
X2207260Y-2454097D01*
X2208784Y-2462123D01*
X2211832Y-2469692D01*
X2216251Y-2476550D01*
X2221890Y-2482443D01*
X2228545Y-2487218D01*
X2235962Y-2490571D01*
X2243886Y-2492502D01*
G37*
G36*
X402031Y1357071D02*
G01*
X410108Y1358239D01*
X417830Y1360932D01*
X424891Y1364996D01*
X431088Y1370380D01*
X436118Y1376781D01*
X439877Y1384046D01*
X442163Y1391869D01*
X442925Y1399997D01*
X442163Y1408125D01*
X439877Y1415948D01*
X436118Y1423212D01*
X431088Y1429613D01*
X424891Y1434998D01*
X417830Y1439062D01*
X410108Y1441754D01*
X402031Y1442923D01*
X393903Y1442516D01*
X385927Y1440586D01*
X378510Y1437182D01*
X371856Y1432458D01*
X366217Y1426565D01*
X361848Y1419656D01*
X358800Y1412087D01*
X357225Y1404061D01*
X357225Y1395933D01*
X358800Y1387906D01*
X361848Y1380337D01*
X366217Y1373428D01*
X371856Y1367536D01*
X378510Y1362811D01*
X385927Y1359408D01*
X393903Y1357477D01*
G37*
G36*
X3001924Y1332179D02*
G01*
X3010001Y1333347D01*
X3017723Y1336040D01*
X3024784Y1340104D01*
X3030982Y1345488D01*
X3036011Y1351889D01*
X3039770Y1359154D01*
X3042056Y1366977D01*
X3042818Y1375105D01*
X3042056Y1383233D01*
X3039770Y1391056D01*
X3036011Y1398320D01*
X3030982Y1404721D01*
X3024784Y1410106D01*
X3017723Y1414170D01*
X3010001Y1416862D01*
X3001924Y1418031D01*
X2993796Y1417624D01*
X2985820Y1415694D01*
X2978404Y1412290D01*
X2971749Y1407566D01*
X2966110Y1401673D01*
X2961741Y1394764D01*
X2958693Y1387195D01*
X2957118Y1379169D01*
X2957118Y1371041D01*
X2958693Y1363014D01*
X2961741Y1355445D01*
X2966110Y1348536D01*
X2971749Y1342644D01*
X2978404Y1337919D01*
X2985820Y1334516D01*
X2993796Y1332585D01*
G37*
G36*
X302056Y1257096D02*
G01*
X310134Y1258265D01*
X317855Y1260906D01*
X324916Y1265021D01*
X331063Y1270355D01*
X336143Y1276756D01*
X339852Y1284020D01*
X342188Y1291844D01*
X342950Y1299972D01*
X342188Y1308150D01*
X339852Y1315974D01*
X336143Y1323238D01*
X331063Y1329639D01*
X324916Y1334973D01*
X317855Y1339088D01*
X310134Y1341729D01*
X302056Y1342898D01*
X293878Y1342491D01*
X285953Y1340561D01*
X278536Y1337208D01*
X271881Y1332433D01*
X266242Y1326540D01*
X261823Y1319682D01*
X258775Y1312113D01*
X257251Y1304086D01*
X257251Y1295908D01*
X258775Y1287881D01*
X261823Y1280312D01*
X266242Y1273454D01*
X271881Y1267561D01*
X278536Y1262786D01*
X285953Y1259433D01*
X293878Y1257503D01*
G37*
G36*
X4920488Y1151890D02*
G01*
X4933696Y1151890D01*
X4946853Y1153668D01*
X4959654Y1157173D01*
X4971846Y1162354D01*
X4983226Y1169111D01*
X4993640Y1177340D01*
X5002834Y1186840D01*
X5010708Y1197508D01*
X5017109Y1209141D01*
X5021834Y1221486D01*
X5024932Y1234389D01*
X5026253Y1247597D01*
X5025796Y1260805D01*
X5023612Y1273911D01*
X5019700Y1286560D01*
X5014112Y1298600D01*
X5006949Y1309776D01*
X4998415Y1319885D01*
X4988560Y1328775D01*
X4977638Y1336243D01*
X4965801Y1342237D01*
X4953304Y1346606D01*
X4940300Y1349248D01*
X4927092Y1350111D01*
X4913884Y1349248D01*
X4900879Y1346606D01*
X4888382Y1342237D01*
X4876546Y1336243D01*
X4865624Y1328775D01*
X4855768Y1319885D01*
X4847234Y1309776D01*
X4840071Y1298600D01*
X4834483Y1286560D01*
X4830572Y1273911D01*
X4828387Y1260805D01*
X4827930Y1247597D01*
X4829251Y1234389D01*
X4832350Y1221486D01*
X4837074Y1209141D01*
X4843475Y1197508D01*
X4851349Y1186840D01*
X4860544Y1177340D01*
X4870958Y1169111D01*
X4882337Y1162354D01*
X4894529Y1157173D01*
X4907330Y1153668D01*
G37*
G36*
X4666488Y1151890D02*
G01*
X4679696Y1151890D01*
X4692853Y1153668D01*
X4705654Y1157173D01*
X4717846Y1162354D01*
X4729226Y1169111D01*
X4739640Y1177340D01*
X4748834Y1186840D01*
X4756708Y1197508D01*
X4763109Y1209141D01*
X4767834Y1221486D01*
X4770932Y1234389D01*
X4772253Y1247597D01*
X4771796Y1260805D01*
X4769612Y1273911D01*
X4765700Y1286560D01*
X4760112Y1298600D01*
X4752949Y1309776D01*
X4744415Y1319885D01*
X4734560Y1328775D01*
X4723638Y1336243D01*
X4711801Y1342237D01*
X4699304Y1346606D01*
X4686300Y1349248D01*
X4673092Y1350111D01*
X4659884Y1349248D01*
X4646879Y1346606D01*
X4634382Y1342237D01*
X4622546Y1336243D01*
X4611624Y1328775D01*
X4601768Y1319885D01*
X4593234Y1309776D01*
X4586071Y1298600D01*
X4580483Y1286560D01*
X4576572Y1273911D01*
X4574387Y1260805D01*
X4573930Y1247597D01*
X4575251Y1234389D01*
X4578350Y1221486D01*
X4583074Y1209141D01*
X4589475Y1197508D01*
X4597349Y1186840D01*
X4606544Y1177340D01*
X4616958Y1169111D01*
X4628337Y1162354D01*
X4640529Y1157173D01*
X4653330Y1153668D01*
G37*
G36*
X3433978Y-2480259D02*
G01*
X3446018Y-2480259D01*
X3457905Y-2478430D01*
X3469386Y-2474925D01*
X3480257Y-2469692D01*
X3490163Y-2462885D01*
X3499002Y-2454706D01*
X3506470Y-2445308D01*
X3512515Y-2434894D01*
X3516884Y-2423718D01*
X3519576Y-2411984D01*
X3520490Y-2399995D01*
X3519576Y-2388006D01*
X3516884Y-2376271D01*
X3512515Y-2365095D01*
X3506470Y-2354681D01*
X3499002Y-2345283D01*
X3490163Y-2337104D01*
X3480257Y-2330297D01*
X3469386Y-2325065D01*
X3457905Y-2321560D01*
X3446018Y-2319731D01*
X3433978Y-2319731D01*
X3422091Y-2321560D01*
X3410610Y-2325065D01*
X3399739Y-2330297D01*
X3389833Y-2337104D01*
X3380994Y-2345283D01*
X3373526Y-2354681D01*
X3367481Y-2365095D01*
X3363112Y-2376271D01*
X3360420Y-2388006D01*
X3359505Y-2399995D01*
X3360420Y-2411984D01*
X3363112Y-2423718D01*
X3367481Y-2434894D01*
X3373526Y-2445308D01*
X3380994Y-2454706D01*
X3389833Y-2462885D01*
X3399739Y-2469692D01*
X3410610Y-2474925D01*
X3422091Y-2478430D01*
G37*
G36*
X2792476Y1147673D02*
G01*
X2800553Y1148842D01*
X2808274Y1151534D01*
X2815336Y1155598D01*
X2821482Y1160983D01*
X2826562Y1167384D01*
X2830271Y1174648D01*
X2832608Y1182471D01*
X2833370Y1190599D01*
X2832608Y1198727D01*
X2830271Y1206550D01*
X2826562Y1213815D01*
X2821482Y1220216D01*
X2815336Y1225600D01*
X2808274Y1229664D01*
X2800553Y1232357D01*
X2792476Y1233525D01*
X2784297Y1233119D01*
X2776372Y1231188D01*
X2768955Y1227785D01*
X2762300Y1223060D01*
X2756662Y1217168D01*
X2752242Y1210259D01*
X2749194Y1202690D01*
X2747670Y1194663D01*
X2747670Y1186535D01*
X2749194Y1178509D01*
X2752242Y1170940D01*
X2756662Y1164031D01*
X2762300Y1158138D01*
X2768955Y1153414D01*
X2776372Y1150010D01*
X2784297Y1148080D01*
G37*
G36*
X4352036Y907084D02*
G01*
X4360113Y908253D01*
X4367834Y910894D01*
X4374896Y915009D01*
X4381093Y920343D01*
X4386122Y926744D01*
X4389882Y934008D01*
X4392168Y941832D01*
X4392930Y949960D01*
X4392168Y958138D01*
X4389882Y965962D01*
X4386122Y973226D01*
X4381093Y979627D01*
X4374896Y984961D01*
X4367834Y989076D01*
X4360113Y991717D01*
X4352036Y992886D01*
X4343908Y992479D01*
X4335932Y990549D01*
X4328515Y987196D01*
X4321860Y982421D01*
X4316222Y976528D01*
X4311802Y969670D01*
X4308805Y962101D01*
X4307230Y954074D01*
X4307230Y945896D01*
X4308805Y937869D01*
X4311802Y930300D01*
X4316222Y923442D01*
X4321860Y917549D01*
X4328515Y912774D01*
X4335932Y909421D01*
X4343908Y907491D01*
G37*
G36*
X4920488Y897890D02*
G01*
X4933696Y897890D01*
X4946853Y899668D01*
X4959654Y903173D01*
X4971846Y908354D01*
X4983226Y915111D01*
X4993640Y923340D01*
X5002834Y932840D01*
X5010708Y943508D01*
X5017109Y955141D01*
X5021834Y967486D01*
X5024932Y980389D01*
X5026253Y993597D01*
X5025796Y1006805D01*
X5023612Y1019911D01*
X5019700Y1032560D01*
X5014112Y1044600D01*
X5006949Y1055776D01*
X4998415Y1065885D01*
X4988560Y1074775D01*
X4977638Y1082243D01*
X4965801Y1088237D01*
X4953304Y1092606D01*
X4940300Y1095248D01*
X4927092Y1096111D01*
X4913884Y1095248D01*
X4900879Y1092606D01*
X4888382Y1088237D01*
X4876546Y1082243D01*
X4865624Y1074775D01*
X4855768Y1065885D01*
X4847234Y1055776D01*
X4840071Y1044600D01*
X4834483Y1032560D01*
X4830572Y1019911D01*
X4828387Y1006805D01*
X4827930Y993597D01*
X4829251Y980389D01*
X4832350Y967486D01*
X4837074Y955141D01*
X4843475Y943508D01*
X4851349Y932840D01*
X4860544Y923340D01*
X4870958Y915111D01*
X4882337Y908354D01*
X4894529Y903173D01*
X4907330Y899668D01*
G37*
G36*
X2351938Y757174D02*
G01*
X2360015Y758342D01*
X2367737Y761034D01*
X2374798Y765098D01*
X2380996Y770483D01*
X2386025Y776884D01*
X2389784Y784148D01*
X2392070Y791972D01*
X2392832Y800100D01*
X2392070Y808228D01*
X2389784Y816051D01*
X2386025Y823315D01*
X2380996Y829716D01*
X2374798Y835101D01*
X2367737Y839165D01*
X2360015Y841857D01*
X2351938Y843026D01*
X2343810Y842619D01*
X2335834Y840689D01*
X2328418Y837285D01*
X2321763Y832561D01*
X2316124Y826668D01*
X2311755Y819759D01*
X2308707Y812190D01*
X2307132Y804164D01*
X2307132Y796036D01*
X2308707Y788009D01*
X2311755Y780440D01*
X2316124Y773531D01*
X2321763Y767638D01*
X2328418Y762914D01*
X2335834Y759510D01*
X2343810Y757580D01*
G37*
G36*
X-297942Y707085D02*
G01*
X-289864Y708253D01*
X-282143Y710895D01*
X-275082Y715010D01*
X-268935Y720344D01*
X-263855Y726744D01*
X-260146Y734009D01*
X-257810Y741832D01*
X-257048Y749960D01*
X-257810Y758139D01*
X-260146Y765962D01*
X-263855Y773226D01*
X-268935Y779627D01*
X-275082Y784961D01*
X-282143Y789076D01*
X-289864Y791718D01*
X-297942Y792886D01*
X-306120Y792480D01*
X-314045Y790549D01*
X-321462Y787196D01*
X-328117Y782421D01*
X-333756Y776528D01*
X-338175Y769670D01*
X-341223Y762101D01*
X-342747Y754075D01*
X-342747Y745896D01*
X-341223Y737870D01*
X-338175Y730300D01*
X-333756Y723442D01*
X-328117Y717550D01*
X-321462Y712774D01*
X-314045Y709422D01*
X-306120Y707491D01*
G37*
G36*
X-147929Y707085D02*
G01*
X-139852Y708253D01*
X-132130Y710895D01*
X-125069Y715010D01*
X-118922Y720344D01*
X-113842Y726744D01*
X-110134Y734009D01*
X-107797Y741832D01*
X-107035Y749960D01*
X-107797Y758139D01*
X-110134Y765962D01*
X-113842Y773226D01*
X-118922Y779627D01*
X-125069Y784961D01*
X-132130Y789076D01*
X-139852Y791718D01*
X-147929Y792886D01*
X-156108Y792480D01*
X-164033Y790549D01*
X-171450Y787196D01*
X-178104Y782421D01*
X-183743Y776528D01*
X-188163Y769670D01*
X-191211Y762101D01*
X-192735Y754075D01*
X-192735Y745896D01*
X-191211Y737870D01*
X-188163Y730300D01*
X-183743Y723442D01*
X-178104Y717550D01*
X-171450Y712774D01*
X-164033Y709422D01*
X-156108Y707491D01*
G37*
G36*
X4252061Y657098D02*
G01*
X4260138Y658266D01*
X4267860Y660908D01*
X4274921Y665022D01*
X4281068Y670356D01*
X4286148Y676757D01*
X4289856Y684022D01*
X4292193Y691845D01*
X4292955Y699973D01*
X4292193Y708152D01*
X4289856Y715975D01*
X4286148Y723239D01*
X4281068Y729640D01*
X4274921Y734974D01*
X4267860Y739089D01*
X4260138Y741730D01*
X4252061Y742899D01*
X4243882Y742492D01*
X4235958Y740562D01*
X4228541Y737209D01*
X4221886Y732434D01*
X4216247Y726541D01*
X4211828Y719683D01*
X4208780Y712114D01*
X4207256Y704088D01*
X4207256Y695909D01*
X4208780Y687882D01*
X4211828Y680313D01*
X4216247Y673455D01*
X4221886Y667562D01*
X4228541Y662787D01*
X4235958Y659434D01*
X4243882Y657504D01*
G37*
G36*
X4666488Y643890D02*
G01*
X4679696Y643890D01*
X4692853Y645668D01*
X4705654Y649173D01*
X4717846Y654354D01*
X4729226Y661111D01*
X4739640Y669340D01*
X4748834Y678840D01*
X4756708Y689508D01*
X4763109Y701141D01*
X4767834Y713486D01*
X4770932Y726389D01*
X4772253Y739597D01*
X4771796Y752805D01*
X4769612Y765911D01*
X4765700Y778560D01*
X4760112Y790600D01*
X4752949Y801776D01*
X4744415Y811885D01*
X4734560Y820775D01*
X4723638Y828243D01*
X4711801Y834237D01*
X4699304Y838606D01*
X4686300Y841248D01*
X4673092Y842111D01*
X4659884Y841248D01*
X4646879Y838606D01*
X4634382Y834237D01*
X4622546Y828243D01*
X4611624Y820775D01*
X4601768Y811885D01*
X4593234Y801776D01*
X4586071Y790600D01*
X4580483Y778560D01*
X4576572Y765911D01*
X4574387Y752805D01*
X4573930Y739597D01*
X4575251Y726389D01*
X4578350Y713486D01*
X4583074Y701141D01*
X4589475Y689508D01*
X4597349Y678840D01*
X4606544Y669340D01*
X4616958Y661111D01*
X4628337Y654354D01*
X4640529Y649173D01*
X4653330Y645668D01*
G37*
G36*
X4920488Y643890D02*
G01*
X4933696Y643890D01*
X4946853Y645668D01*
X4959654Y649173D01*
X4971846Y654354D01*
X4983226Y661111D01*
X4993640Y669340D01*
X5002834Y678840D01*
X5010708Y689508D01*
X5017109Y701141D01*
X5021834Y713486D01*
X5024932Y726389D01*
X5026253Y739597D01*
X5025796Y752805D01*
X5023612Y765911D01*
X5019700Y778560D01*
X5014112Y790600D01*
X5006949Y801776D01*
X4998415Y811885D01*
X4988560Y820775D01*
X4977638Y828243D01*
X4965801Y834237D01*
X4953304Y838606D01*
X4940300Y841248D01*
X4927092Y842111D01*
X4913884Y841248D01*
X4900879Y838606D01*
X4888382Y834237D01*
X4876546Y828243D01*
X4865624Y820775D01*
X4855768Y811885D01*
X4847234Y801776D01*
X4840071Y790600D01*
X4834483Y778560D01*
X4830572Y765911D01*
X4828387Y752805D01*
X4827930Y739597D01*
X4829251Y726389D01*
X4832350Y713486D01*
X4837074Y701141D01*
X4843475Y689508D01*
X4851349Y678840D01*
X4860544Y669340D01*
X4870958Y661111D01*
X4882337Y654354D01*
X4894529Y649173D01*
X4907330Y645668D01*
G37*
G36*
X2651963Y557174D02*
G01*
X2660040Y558342D01*
X2667762Y561035D01*
X2674823Y565099D01*
X2680970Y570484D01*
X2686050Y576884D01*
X2689758Y584149D01*
X2692095Y591972D01*
X2692857Y600100D01*
X2692095Y608228D01*
X2689758Y616051D01*
X2686050Y623316D01*
X2680970Y629716D01*
X2674823Y635101D01*
X2667762Y639165D01*
X2660040Y641858D01*
X2651963Y643026D01*
X2643784Y642620D01*
X2635859Y640689D01*
X2628442Y637286D01*
X2621788Y632561D01*
X2616149Y626668D01*
X2611729Y619760D01*
X2608681Y612190D01*
X2607157Y604164D01*
X2607157Y596036D01*
X2608681Y588010D01*
X2611729Y580440D01*
X2616149Y573532D01*
X2621788Y567639D01*
X2628442Y562914D01*
X2635859Y559511D01*
X2643784Y557580D01*
G37*
G36*
X4666488Y389890D02*
G01*
X4679696Y389890D01*
X4692853Y391668D01*
X4705654Y395173D01*
X4717846Y400354D01*
X4729226Y407111D01*
X4739640Y415340D01*
X4748834Y424840D01*
X4756708Y435508D01*
X4763109Y447141D01*
X4767834Y459485D01*
X4770932Y472389D01*
X4772253Y485597D01*
X4771796Y498805D01*
X4769612Y511911D01*
X4765700Y524560D01*
X4760112Y536600D01*
X4752949Y547776D01*
X4744415Y557885D01*
X4734560Y566775D01*
X4723638Y574243D01*
X4711801Y580237D01*
X4699304Y584606D01*
X4686300Y587248D01*
X4673092Y588111D01*
X4659884Y587248D01*
X4646879Y584606D01*
X4634382Y580237D01*
X4622546Y574243D01*
X4611624Y566775D01*
X4601768Y557885D01*
X4593234Y547776D01*
X4586071Y536600D01*
X4580483Y524560D01*
X4576572Y511911D01*
X4574387Y498805D01*
X4573930Y485597D01*
X4575251Y472389D01*
X4578350Y459485D01*
X4583074Y447141D01*
X4589475Y435508D01*
X4597349Y424840D01*
X4606544Y415340D01*
X4616958Y407111D01*
X4628337Y400354D01*
X4640529Y395173D01*
X4653330Y391668D01*
G37*
G36*
X4920488Y-2404110D02*
G01*
X4933696Y-2404110D01*
X4946853Y-2402332D01*
X4959654Y-2398826D01*
X4971846Y-2393645D01*
X4983226Y-2386888D01*
X4993640Y-2378659D01*
X5002834Y-2369159D01*
X5010708Y-2358491D01*
X5017109Y-2346858D01*
X5021834Y-2334514D01*
X5024932Y-2321610D01*
X5026253Y-2308402D01*
X5025796Y-2295194D01*
X5023612Y-2282088D01*
X5019700Y-2269439D01*
X5014112Y-2257399D01*
X5006949Y-2246223D01*
X4998415Y-2236114D01*
X4988560Y-2227224D01*
X4977638Y-2219756D01*
X4965801Y-2213762D01*
X4953304Y-2209393D01*
X4940300Y-2206752D01*
X4927092Y-2205888D01*
X4913884Y-2206752D01*
X4900879Y-2209393D01*
X4888382Y-2213762D01*
X4876546Y-2219756D01*
X4865624Y-2227224D01*
X4855768Y-2236114D01*
X4847234Y-2246223D01*
X4840071Y-2257399D01*
X4834483Y-2269439D01*
X4830572Y-2282088D01*
X4828387Y-2295194D01*
X4827930Y-2308402D01*
X4829251Y-2321610D01*
X4832350Y-2334514D01*
X4837074Y-2346858D01*
X4843475Y-2358491D01*
X4851349Y-2369159D01*
X4860544Y-2378659D01*
X4870958Y-2386888D01*
X4882337Y-2393645D01*
X4894529Y-2398826D01*
X4907330Y-2402332D01*
G37*
G36*
X4666488Y-2404110D02*
G01*
X4679696Y-2404110D01*
X4692853Y-2402332D01*
X4705654Y-2398826D01*
X4717846Y-2393645D01*
X4729226Y-2386888D01*
X4739640Y-2378659D01*
X4748834Y-2369159D01*
X4756708Y-2358491D01*
X4763109Y-2346858D01*
X4767834Y-2334514D01*
X4770932Y-2321610D01*
X4772253Y-2308402D01*
X4771796Y-2295194D01*
X4769612Y-2282088D01*
X4765700Y-2269439D01*
X4760112Y-2257399D01*
X4752949Y-2246223D01*
X4744415Y-2236114D01*
X4734560Y-2227224D01*
X4723638Y-2219756D01*
X4711801Y-2213762D01*
X4699304Y-2209393D01*
X4686300Y-2206752D01*
X4673092Y-2205888D01*
X4659884Y-2206752D01*
X4646879Y-2209393D01*
X4634382Y-2213762D01*
X4622546Y-2219756D01*
X4611624Y-2227224D01*
X4601768Y-2236114D01*
X4593234Y-2246223D01*
X4586071Y-2257399D01*
X4580483Y-2269439D01*
X4576572Y-2282088D01*
X4574387Y-2295194D01*
X4573930Y-2308402D01*
X4575251Y-2321610D01*
X4578350Y-2334514D01*
X4583074Y-2346858D01*
X4589475Y-2358491D01*
X4597349Y-2369159D01*
X4606544Y-2378659D01*
X4616958Y-2386888D01*
X4628337Y-2393645D01*
X4640529Y-2398826D01*
X4653330Y-2402332D01*
G37*
G36*
X1852066Y-2342896D02*
G01*
X1860143Y-2341727D01*
X1867865Y-2339086D01*
X1874926Y-2334971D01*
X1881073Y-2329637D01*
X1886153Y-2323236D01*
X1889861Y-2315972D01*
X1892198Y-2308148D01*
X1892960Y-2300020D01*
X1892198Y-2291842D01*
X1889861Y-2284018D01*
X1886153Y-2276754D01*
X1881073Y-2270353D01*
X1874926Y-2265019D01*
X1867865Y-2260904D01*
X1860143Y-2258263D01*
X1852066Y-2257094D01*
X1843887Y-2257501D01*
X1835962Y-2259431D01*
X1828546Y-2262784D01*
X1821891Y-2267559D01*
X1816252Y-2273452D01*
X1811832Y-2280310D01*
X1808784Y-2287879D01*
X1807260Y-2295906D01*
X1807260Y-2304084D01*
X1808784Y-2312111D01*
X1811832Y-2319680D01*
X1816252Y-2326538D01*
X1821891Y-2332431D01*
X1828546Y-2337206D01*
X1835962Y-2340559D01*
X1843887Y-2342489D01*
G37*
G36*
X1752041Y-2242921D02*
G01*
X1760118Y-2241753D01*
X1767839Y-2239060D01*
X1774901Y-2234996D01*
X1781098Y-2229612D01*
X1786128Y-2223211D01*
X1789887Y-2215946D01*
X1792173Y-2208123D01*
X1792935Y-2199995D01*
X1792173Y-2191867D01*
X1789887Y-2184044D01*
X1786128Y-2176780D01*
X1781098Y-2170379D01*
X1774901Y-2164994D01*
X1767839Y-2160930D01*
X1760118Y-2158238D01*
X1752041Y-2157069D01*
X1743913Y-2157476D01*
X1735937Y-2159406D01*
X1728520Y-2162810D01*
X1721866Y-2167534D01*
X1716227Y-2173427D01*
X1711858Y-2180336D01*
X1708810Y-2187905D01*
X1707235Y-2195931D01*
X1707235Y-2204059D01*
X1708810Y-2212086D01*
X1711858Y-2219655D01*
X1716227Y-2226564D01*
X1721866Y-2232456D01*
X1728520Y-2237181D01*
X1735937Y-2240584D01*
X1743913Y-2242515D01*
G37*
G36*
X3152038Y-2192934D02*
G01*
X3160115Y-2191766D01*
X3167837Y-2189073D01*
X3174898Y-2185009D01*
X3181096Y-2179624D01*
X3186125Y-2173224D01*
X3189884Y-2165959D01*
X3192221Y-2160981D01*
X3195523Y-2158390D01*
X3199536Y-2157374D01*
X3203651Y-2158034D01*
X3207156Y-2160270D01*
X3209442Y-2163724D01*
X3211830Y-2169668D01*
X3216249Y-2176576D01*
X3221888Y-2182469D01*
X3228543Y-2187194D01*
X3235960Y-2190597D01*
X3243884Y-2192528D01*
X3252063Y-2192934D01*
X3260140Y-2191766D01*
X3267862Y-2189073D01*
X3274923Y-2185009D01*
X3281070Y-2179624D01*
X3286150Y-2173224D01*
X3292246Y-2160981D01*
X3295497Y-2158390D01*
X3299510Y-2157374D01*
X3303625Y-2158034D01*
X3307130Y-2160270D01*
X3309467Y-2163724D01*
X3311804Y-2169668D01*
X3316224Y-2176576D01*
X3321862Y-2182469D01*
X3328517Y-2187194D01*
X3335934Y-2190597D01*
X3343910Y-2192528D01*
X3352037Y-2192934D01*
X3360115Y-2191766D01*
X3367836Y-2189073D01*
X3374898Y-2185009D01*
X3381095Y-2179624D01*
X3386124Y-2173224D01*
X3389884Y-2165959D01*
X3392170Y-2158136D01*
X3392932Y-2150008D01*
X3392170Y-2141880D01*
X3389884Y-2134057D01*
X3386124Y-2126792D01*
X3381095Y-2120392D01*
X3374898Y-2115007D01*
X3367836Y-2110943D01*
X3360115Y-2108250D01*
X3352037Y-2107082D01*
X3343910Y-2107488D01*
X3335934Y-2109419D01*
X3328517Y-2112822D01*
X3321862Y-2117547D01*
X3316224Y-2123440D01*
X3311804Y-2130348D01*
X3309467Y-2136292D01*
X3307130Y-2139746D01*
X3303625Y-2141982D01*
X3299510Y-2142642D01*
X3295497Y-2141626D01*
X3292246Y-2139035D01*
X3286150Y-2126792D01*
X3281070Y-2120392D01*
X3274923Y-2115007D01*
X3267862Y-2110943D01*
X3260140Y-2108250D01*
X3252063Y-2107082D01*
X3243884Y-2107488D01*
X3235960Y-2109419D01*
X3228543Y-2112822D01*
X3221888Y-2117547D01*
X3216249Y-2123440D01*
X3211830Y-2130348D01*
X3209442Y-2136292D01*
X3207156Y-2139746D01*
X3203651Y-2141982D01*
X3199536Y-2142642D01*
X3195523Y-2141626D01*
X3192221Y-2139035D01*
X3189884Y-2134057D01*
X3186125Y-2126792D01*
X3181096Y-2120392D01*
X3174898Y-2115007D01*
X3167837Y-2110943D01*
X3160115Y-2108250D01*
X3152038Y-2107082D01*
X3143910Y-2107488D01*
X3135934Y-2109419D01*
X3128518Y-2112822D01*
X3121863Y-2117547D01*
X3116224Y-2123440D01*
X3111855Y-2130348D01*
X3108807Y-2137918D01*
X3107232Y-2145944D01*
X3107232Y-2154072D01*
X3108807Y-2162098D01*
X3111855Y-2169668D01*
X3116224Y-2176576D01*
X3121863Y-2182469D01*
X3128518Y-2187194D01*
X3135934Y-2190597D01*
X3143910Y-2192528D01*
G37*
G36*
X4920488Y389890D02*
G01*
X4933696Y389890D01*
X4946853Y391668D01*
X4959654Y395173D01*
X4971846Y400354D01*
X4983226Y407111D01*
X4993640Y415340D01*
X5002834Y424840D01*
X5010708Y435508D01*
X5017109Y447141D01*
X5021834Y459485D01*
X5024932Y472389D01*
X5026253Y485597D01*
X5025796Y498805D01*
X5023612Y511911D01*
X5019700Y524560D01*
X5014112Y536600D01*
X5006949Y547776D01*
X4998415Y557885D01*
X4988560Y566775D01*
X4977638Y574243D01*
X4965801Y580237D01*
X4953304Y584606D01*
X4940300Y587248D01*
X4927092Y588111D01*
X4913884Y587248D01*
X4900879Y584606D01*
X4888382Y580237D01*
X4876546Y574243D01*
X4865624Y566775D01*
X4855768Y557885D01*
X4847234Y547776D01*
X4840071Y536600D01*
X4834483Y524560D01*
X4830572Y511911D01*
X4828387Y498805D01*
X4827930Y485597D01*
X4829251Y472389D01*
X4832350Y459485D01*
X4837074Y447141D01*
X4843475Y435508D01*
X4851349Y424840D01*
X4860544Y415340D01*
X4870958Y407111D01*
X4882337Y400354D01*
X4894529Y395173D01*
X4907330Y391668D01*
G37*
G36*
X4666488Y135890D02*
G01*
X4679696Y135890D01*
X4692853Y137668D01*
X4705654Y141173D01*
X4717846Y146354D01*
X4729226Y153111D01*
X4739640Y161340D01*
X4748834Y170840D01*
X4756708Y181508D01*
X4763109Y193141D01*
X4767834Y205486D01*
X4770932Y218389D01*
X4772253Y231597D01*
X4771796Y244805D01*
X4769612Y257911D01*
X4765700Y270560D01*
X4760112Y282600D01*
X4752949Y293776D01*
X4744415Y303885D01*
X4734560Y312775D01*
X4723638Y320243D01*
X4711801Y326237D01*
X4699304Y330606D01*
X4686300Y333248D01*
X4673092Y334111D01*
X4659884Y333248D01*
X4646879Y330606D01*
X4634382Y326237D01*
X4622546Y320243D01*
X4611624Y312775D01*
X4601768Y303885D01*
X4593234Y293776D01*
X4586071Y282600D01*
X4580483Y270560D01*
X4576572Y257911D01*
X4574387Y244805D01*
X4573930Y231597D01*
X4575251Y218389D01*
X4578350Y205486D01*
X4583074Y193141D01*
X4589475Y181508D01*
X4597349Y170840D01*
X4606544Y161340D01*
X4616958Y153111D01*
X4628337Y146354D01*
X4640529Y141173D01*
X4653330Y137668D01*
G37*
G36*
X4920488Y-2150110D02*
G01*
X4933696Y-2150110D01*
X4946853Y-2148332D01*
X4959654Y-2144826D01*
X4971846Y-2139645D01*
X4983226Y-2132888D01*
X4993640Y-2124659D01*
X5002834Y-2115159D01*
X5010708Y-2104491D01*
X5017109Y-2092858D01*
X5021834Y-2080514D01*
X5024932Y-2067610D01*
X5026253Y-2054402D01*
X5025796Y-2041194D01*
X5023612Y-2028088D01*
X5019700Y-2015439D01*
X5014112Y-2003399D01*
X5006949Y-1992223D01*
X4998415Y-1982114D01*
X4988560Y-1973224D01*
X4977638Y-1965756D01*
X4965801Y-1959762D01*
X4953304Y-1955393D01*
X4940300Y-1952752D01*
X4927092Y-1951888D01*
X4913884Y-1952752D01*
X4900879Y-1955393D01*
X4888382Y-1959762D01*
X4876546Y-1965756D01*
X4865624Y-1973224D01*
X4855768Y-1982114D01*
X4847234Y-1992223D01*
X4840071Y-2003399D01*
X4834483Y-2015439D01*
X4830572Y-2028088D01*
X4828387Y-2041194D01*
X4827930Y-2054402D01*
X4829251Y-2067610D01*
X4832350Y-2080514D01*
X4837074Y-2092858D01*
X4843475Y-2104491D01*
X4851349Y-2115159D01*
X4860544Y-2124659D01*
X4870958Y-2132888D01*
X4882337Y-2139645D01*
X4894529Y-2144826D01*
X4907330Y-2148332D01*
G37*
G36*
X4666488Y-2150110D02*
G01*
X4679696Y-2150110D01*
X4692853Y-2148332D01*
X4705654Y-2144826D01*
X4717846Y-2139645D01*
X4729226Y-2132888D01*
X4739640Y-2124659D01*
X4748834Y-2115159D01*
X4756708Y-2104491D01*
X4763109Y-2092858D01*
X4767834Y-2080514D01*
X4770932Y-2067610D01*
X4772253Y-2054402D01*
X4771796Y-2041194D01*
X4769612Y-2028088D01*
X4765700Y-2015439D01*
X4760112Y-2003399D01*
X4752949Y-1992223D01*
X4744415Y-1982114D01*
X4734560Y-1973224D01*
X4723638Y-1965756D01*
X4711801Y-1959762D01*
X4699304Y-1955393D01*
X4686300Y-1952752D01*
X4673092Y-1951888D01*
X4659884Y-1952752D01*
X4646879Y-1955393D01*
X4634382Y-1959762D01*
X4622546Y-1965756D01*
X4611624Y-1973224D01*
X4601768Y-1982114D01*
X4593234Y-1992223D01*
X4586071Y-2003399D01*
X4580483Y-2015439D01*
X4576572Y-2028088D01*
X4574387Y-2041194D01*
X4573930Y-2054402D01*
X4575251Y-2067610D01*
X4578350Y-2080514D01*
X4583074Y-2092858D01*
X4589475Y-2104491D01*
X4597349Y-2115159D01*
X4606544Y-2124659D01*
X4616958Y-2132888D01*
X4628337Y-2139645D01*
X4640529Y-2144826D01*
X4653330Y-2148332D01*
G37*
G36*
X4920488Y135890D02*
G01*
X4933696Y135890D01*
X4946853Y137668D01*
X4959654Y141173D01*
X4971846Y146354D01*
X4983226Y153111D01*
X4993640Y161340D01*
X5002834Y170840D01*
X5010708Y181508D01*
X5017109Y193141D01*
X5021834Y205486D01*
X5024932Y218389D01*
X5026253Y231597D01*
X5025796Y244805D01*
X5023612Y257911D01*
X5019700Y270560D01*
X5014112Y282600D01*
X5006949Y293776D01*
X4998415Y303885D01*
X4988560Y312775D01*
X4977638Y320243D01*
X4965801Y326237D01*
X4953304Y330606D01*
X4940300Y333248D01*
X4927092Y334111D01*
X4913884Y333248D01*
X4900879Y330606D01*
X4888382Y326237D01*
X4876546Y320243D01*
X4865624Y312775D01*
X4855768Y303885D01*
X4847234Y293776D01*
X4840071Y282600D01*
X4834483Y270560D01*
X4830572Y257911D01*
X4828387Y244805D01*
X4827930Y231597D01*
X4829251Y218389D01*
X4832350Y205486D01*
X4837074Y193141D01*
X4843475Y181508D01*
X4851349Y170840D01*
X4860544Y161340D01*
X4870958Y153111D01*
X4882337Y146354D01*
X4894529Y141173D01*
X4907330Y137668D01*
G37*
G36*
X4920488Y-118110D02*
G01*
X4933696Y-118110D01*
X4946853Y-116332D01*
X4959654Y-112826D01*
X4971846Y-107645D01*
X4983226Y-100888D01*
X4993640Y-92659D01*
X5002834Y-83159D01*
X5010708Y-72491D01*
X5017109Y-60858D01*
X5021834Y-48514D01*
X5024932Y-35610D01*
X5026253Y-22402D01*
X5025796Y-9194D01*
X5023612Y3911D01*
X5019700Y16560D01*
X5014112Y28600D01*
X5006949Y39776D01*
X4998415Y49885D01*
X4988560Y58775D01*
X4977638Y66243D01*
X4965801Y72237D01*
X4953304Y76606D01*
X4940300Y79248D01*
X4927092Y80111D01*
X4913884Y79248D01*
X4900879Y76606D01*
X4888382Y72237D01*
X4876546Y66243D01*
X4865624Y58775D01*
X4855768Y49885D01*
X4847234Y39776D01*
X4840071Y28600D01*
X4834483Y16560D01*
X4830572Y3911D01*
X4828387Y-9194D01*
X4827930Y-22402D01*
X4829251Y-35610D01*
X4832350Y-48514D01*
X4837074Y-60858D01*
X4843475Y-72491D01*
X4851349Y-83159D01*
X4860544Y-92659D01*
X4870958Y-100888D01*
X4882337Y-107645D01*
X4894529Y-112826D01*
X4907330Y-116332D01*
G37*
G36*
X4920488Y-1896110D02*
G01*
X4933696Y-1896110D01*
X4946853Y-1894332D01*
X4959654Y-1890826D01*
X4971846Y-1885645D01*
X4983226Y-1878888D01*
X4993640Y-1870659D01*
X5002834Y-1861159D01*
X5010708Y-1850491D01*
X5017109Y-1838858D01*
X5021834Y-1826514D01*
X5024932Y-1813610D01*
X5026253Y-1800402D01*
X5025796Y-1787194D01*
X5023612Y-1774088D01*
X5019700Y-1761439D01*
X5014112Y-1749399D01*
X5006949Y-1738223D01*
X4998415Y-1728114D01*
X4988560Y-1719224D01*
X4977638Y-1711756D01*
X4965801Y-1705762D01*
X4953304Y-1701393D01*
X4940300Y-1698752D01*
X4927092Y-1697888D01*
X4913884Y-1698752D01*
X4900879Y-1701393D01*
X4888382Y-1705762D01*
X4876546Y-1711756D01*
X4865624Y-1719224D01*
X4855768Y-1728114D01*
X4847234Y-1738223D01*
X4840071Y-1749399D01*
X4834483Y-1761439D01*
X4830572Y-1774088D01*
X4828387Y-1787194D01*
X4827930Y-1800402D01*
X4829251Y-1813610D01*
X4832350Y-1826514D01*
X4837074Y-1838858D01*
X4843475Y-1850491D01*
X4851349Y-1861159D01*
X4860544Y-1870659D01*
X4870958Y-1878888D01*
X4882337Y-1885645D01*
X4894529Y-1890826D01*
X4907330Y-1894332D01*
G37*
G36*
X4666488Y-1896110D02*
G01*
X4679696Y-1896110D01*
X4692853Y-1894332D01*
X4705654Y-1890826D01*
X4717846Y-1885645D01*
X4729226Y-1878888D01*
X4739640Y-1870659D01*
X4748834Y-1861159D01*
X4756708Y-1850491D01*
X4763109Y-1838858D01*
X4767834Y-1826514D01*
X4770932Y-1813610D01*
X4772253Y-1800402D01*
X4771796Y-1787194D01*
X4769612Y-1774088D01*
X4765700Y-1761439D01*
X4760112Y-1749399D01*
X4752949Y-1738223D01*
X4744415Y-1728114D01*
X4734560Y-1719224D01*
X4723638Y-1711756D01*
X4711801Y-1705762D01*
X4699304Y-1701393D01*
X4686300Y-1698752D01*
X4673092Y-1697888D01*
X4659884Y-1698752D01*
X4646879Y-1701393D01*
X4634382Y-1705762D01*
X4622546Y-1711756D01*
X4611624Y-1719224D01*
X4601768Y-1728114D01*
X4593234Y-1738223D01*
X4586071Y-1749399D01*
X4580483Y-1761439D01*
X4576572Y-1774088D01*
X4574387Y-1787194D01*
X4573930Y-1800402D01*
X4575251Y-1813610D01*
X4578350Y-1826514D01*
X4583074Y-1838858D01*
X4589475Y-1850491D01*
X4597349Y-1861159D01*
X4606544Y-1870659D01*
X4616958Y-1878888D01*
X4628337Y-1885645D01*
X4640529Y-1890826D01*
X4653330Y-1894332D01*
G37*
G36*
X3052013Y-1842922D02*
G01*
X3060090Y-1841754D01*
X3067812Y-1839061D01*
X3074873Y-1834997D01*
X3081070Y-1829612D01*
X3086100Y-1823212D01*
X3089859Y-1815947D01*
X3092145Y-1808124D01*
X3092907Y-1799996D01*
X3092145Y-1791868D01*
X3089859Y-1784045D01*
X3086100Y-1776780D01*
X3081070Y-1770380D01*
X3074873Y-1764995D01*
X3067812Y-1760931D01*
X3060090Y-1758238D01*
X3052013Y-1757070D01*
X3043885Y-1757476D01*
X3035909Y-1759407D01*
X3028492Y-1762810D01*
X3021838Y-1767535D01*
X3016199Y-1773428D01*
X3011830Y-1780336D01*
X3008782Y-1787906D01*
X3007207Y-1795932D01*
X3007207Y-1804060D01*
X3008782Y-1812086D01*
X3011830Y-1819656D01*
X3016199Y-1826564D01*
X3021838Y-1832457D01*
X3028492Y-1837182D01*
X3035909Y-1840585D01*
X3043885Y-1842516D01*
G37*
G36*
X3252063Y-1842922D02*
G01*
X3260140Y-1841754D01*
X3267862Y-1839061D01*
X3274923Y-1834997D01*
X3281070Y-1829612D01*
X3286150Y-1823212D01*
X3292246Y-1810969D01*
X3295497Y-1808378D01*
X3299510Y-1807362D01*
X3303625Y-1808022D01*
X3307130Y-1810257D01*
X3309467Y-1813712D01*
X3311804Y-1819656D01*
X3316224Y-1826564D01*
X3321862Y-1832457D01*
X3328517Y-1837182D01*
X3335934Y-1840585D01*
X3343910Y-1842516D01*
X3352037Y-1842922D01*
X3360115Y-1841754D01*
X3367836Y-1839061D01*
X3374898Y-1834997D01*
X3381095Y-1829612D01*
X3386124Y-1823212D01*
X3389884Y-1815947D01*
X3392170Y-1808124D01*
X3392932Y-1799996D01*
X3392170Y-1791868D01*
X3389884Y-1784045D01*
X3386124Y-1776780D01*
X3381095Y-1770380D01*
X3374898Y-1764995D01*
X3367836Y-1760931D01*
X3360115Y-1758238D01*
X3352037Y-1757070D01*
X3343910Y-1757476D01*
X3335934Y-1759407D01*
X3328517Y-1762810D01*
X3321862Y-1767535D01*
X3316224Y-1773428D01*
X3311804Y-1780336D01*
X3309467Y-1786280D01*
X3307130Y-1789734D01*
X3303625Y-1791970D01*
X3299510Y-1792630D01*
X3295497Y-1791614D01*
X3292246Y-1789023D01*
X3286150Y-1776780D01*
X3281070Y-1770380D01*
X3274923Y-1764995D01*
X3267862Y-1760931D01*
X3260140Y-1758238D01*
X3252063Y-1757070D01*
X3243884Y-1757476D01*
X3235960Y-1759407D01*
X3228543Y-1762810D01*
X3221888Y-1767535D01*
X3216249Y-1773428D01*
X3211830Y-1780336D01*
X3208782Y-1787906D01*
X3207258Y-1795932D01*
X3207258Y-1804060D01*
X3208782Y-1812086D01*
X3211830Y-1819656D01*
X3216249Y-1826564D01*
X3221888Y-1832457D01*
X3228543Y-1837182D01*
X3235960Y-1840585D01*
X3243884Y-1842516D01*
G37*
G36*
X4666488Y-118110D02*
G01*
X4679696Y-118110D01*
X4692853Y-116332D01*
X4705654Y-112826D01*
X4717846Y-107645D01*
X4729226Y-100888D01*
X4739640Y-92659D01*
X4748834Y-83159D01*
X4756708Y-72491D01*
X4763109Y-60858D01*
X4767834Y-48514D01*
X4770932Y-35610D01*
X4772253Y-22402D01*
X4771796Y-9194D01*
X4769612Y3911D01*
X4765700Y16560D01*
X4760112Y28600D01*
X4752949Y39776D01*
X4744415Y49885D01*
X4734560Y58775D01*
X4723638Y66243D01*
X4711801Y72237D01*
X4699304Y76606D01*
X4686300Y79248D01*
X4673092Y80111D01*
X4659884Y79248D01*
X4646879Y76606D01*
X4634382Y72237D01*
X4622546Y66243D01*
X4611624Y58775D01*
X4601768Y49885D01*
X4593234Y39776D01*
X4586071Y28600D01*
X4580483Y16560D01*
X4576572Y3911D01*
X4574387Y-9194D01*
X4573930Y-22402D01*
X4575251Y-35610D01*
X4578350Y-48514D01*
X4583074Y-60858D01*
X4589475Y-72491D01*
X4597349Y-83159D01*
X4606544Y-92659D01*
X4616958Y-100888D01*
X4628337Y-107645D01*
X4640529Y-112826D01*
X4653330Y-116332D01*
G37*
G36*
X1752041Y-1792935D02*
G01*
X1760118Y-1791766D01*
X1767839Y-1789074D01*
X1774901Y-1785010D01*
X1781098Y-1779625D01*
X1786128Y-1773224D01*
X1789887Y-1765960D01*
X1792224Y-1760982D01*
X1795525Y-1758391D01*
X1799539Y-1757375D01*
X1803654Y-1758035D01*
X1807159Y-1760270D01*
X1809445Y-1763725D01*
X1811832Y-1769668D01*
X1816252Y-1776577D01*
X1821891Y-1782470D01*
X1828546Y-1787194D01*
X1835962Y-1790598D01*
X1843887Y-1792528D01*
X1852066Y-1792935D01*
X1860143Y-1791766D01*
X1867865Y-1789074D01*
X1874926Y-1785010D01*
X1881073Y-1779625D01*
X1886153Y-1773224D01*
X1889861Y-1765960D01*
X1892198Y-1758137D01*
X1892960Y-1750009D01*
X1892198Y-1741881D01*
X1889861Y-1734057D01*
X1886153Y-1726793D01*
X1881073Y-1720392D01*
X1874926Y-1715007D01*
X1867865Y-1710943D01*
X1860143Y-1708251D01*
X1852066Y-1707083D01*
X1843887Y-1707489D01*
X1835962Y-1709420D01*
X1828546Y-1712823D01*
X1821891Y-1717548D01*
X1816252Y-1723440D01*
X1811832Y-1730349D01*
X1809445Y-1736293D01*
X1807159Y-1739747D01*
X1803654Y-1741982D01*
X1799539Y-1742643D01*
X1795525Y-1741627D01*
X1792224Y-1739036D01*
X1789887Y-1734057D01*
X1786128Y-1726793D01*
X1781098Y-1720392D01*
X1774901Y-1715007D01*
X1767839Y-1710943D01*
X1760118Y-1708251D01*
X1752041Y-1707083D01*
X1743913Y-1707489D01*
X1735937Y-1709420D01*
X1728520Y-1712823D01*
X1721866Y-1717548D01*
X1716227Y-1723440D01*
X1711858Y-1730349D01*
X1708810Y-1737918D01*
X1707235Y-1745945D01*
X1707235Y-1754073D01*
X1708810Y-1762099D01*
X1711858Y-1769668D01*
X1716227Y-1776577D01*
X1721866Y-1782470D01*
X1728520Y-1787194D01*
X1735937Y-1790598D01*
X1743913Y-1792528D01*
G37*
G36*
X4920488Y-372110D02*
G01*
X4933696Y-372110D01*
X4946853Y-370332D01*
X4959654Y-366826D01*
X4971846Y-361645D01*
X4983226Y-354888D01*
X4993640Y-346659D01*
X5002834Y-337159D01*
X5010708Y-326491D01*
X5017109Y-314858D01*
X5021834Y-302514D01*
X5024932Y-289610D01*
X5026253Y-276402D01*
X5025796Y-263194D01*
X5023612Y-250088D01*
X5019700Y-237439D01*
X5014112Y-225399D01*
X5006949Y-214223D01*
X4998415Y-204114D01*
X4988560Y-195224D01*
X4977638Y-187756D01*
X4965801Y-181762D01*
X4953304Y-177393D01*
X4940300Y-174752D01*
X4927092Y-173888D01*
X4913884Y-174752D01*
X4900879Y-177393D01*
X4888382Y-181762D01*
X4876546Y-187756D01*
X4865624Y-195224D01*
X4855768Y-204114D01*
X4847234Y-214223D01*
X4840071Y-225399D01*
X4834483Y-237439D01*
X4830572Y-250088D01*
X4828387Y-263194D01*
X4827930Y-276402D01*
X4829251Y-289610D01*
X4832350Y-302514D01*
X4837074Y-314858D01*
X4843475Y-326491D01*
X4851349Y-337159D01*
X4860544Y-346659D01*
X4870958Y-354888D01*
X4882337Y-361645D01*
X4894529Y-366826D01*
X4907330Y-370332D01*
G37*
G36*
X4666488Y-372110D02*
G01*
X4679696Y-372110D01*
X4692853Y-370332D01*
X4705654Y-366826D01*
X4717846Y-361645D01*
X4729226Y-354888D01*
X4739640Y-346659D01*
X4748834Y-337159D01*
X4756708Y-326491D01*
X4763109Y-314858D01*
X4767834Y-302514D01*
X4770932Y-289610D01*
X4772253Y-276402D01*
X4771796Y-263194D01*
X4769612Y-250088D01*
X4765700Y-237439D01*
X4760112Y-225399D01*
X4752949Y-214223D01*
X4744415Y-204114D01*
X4734560Y-195224D01*
X4723638Y-187756D01*
X4711801Y-181762D01*
X4699304Y-177393D01*
X4686300Y-174752D01*
X4673092Y-173888D01*
X4659884Y-174752D01*
X4646879Y-177393D01*
X4634382Y-181762D01*
X4622546Y-187756D01*
X4611624Y-195224D01*
X4601768Y-204114D01*
X4593234Y-214223D01*
X4586071Y-225399D01*
X4580483Y-237439D01*
X4576572Y-250088D01*
X4574387Y-263194D01*
X4573930Y-276402D01*
X4575251Y-289610D01*
X4578350Y-302514D01*
X4583074Y-314858D01*
X4589475Y-326491D01*
X4597349Y-337159D01*
X4606544Y-346659D01*
X4616958Y-354888D01*
X4628337Y-361645D01*
X4640529Y-366826D01*
X4653330Y-370332D01*
G37*
G36*
X2352040Y-1742897D02*
G01*
X2360117Y-1741728D01*
X2367838Y-1739087D01*
X2374900Y-1734972D01*
X2381097Y-1729638D01*
X2386126Y-1723237D01*
X2389886Y-1715973D01*
X2392222Y-1710994D01*
X2395524Y-1708404D01*
X2399538Y-1707337D01*
X2403652Y-1707997D01*
X2407158Y-1710283D01*
X2409444Y-1713738D01*
X2411831Y-1719681D01*
X2416251Y-1726539D01*
X2421890Y-1732432D01*
X2428544Y-1737207D01*
X2435961Y-1740560D01*
X2443886Y-1742490D01*
X2452065Y-1742897D01*
X2460142Y-1741728D01*
X2467864Y-1739087D01*
X2474925Y-1734972D01*
X2481072Y-1729638D01*
X2486152Y-1723237D01*
X2492248Y-1710994D01*
X2495499Y-1708404D01*
X2499512Y-1707337D01*
X2503627Y-1707997D01*
X2507132Y-1710283D01*
X2509469Y-1713738D01*
X2511806Y-1719681D01*
X2516225Y-1726539D01*
X2521864Y-1732432D01*
X2528519Y-1737207D01*
X2535936Y-1740560D01*
X2543911Y-1742490D01*
X2552039Y-1742897D01*
X2560116Y-1741728D01*
X2567838Y-1739087D01*
X2574899Y-1734972D01*
X2581097Y-1729638D01*
X2586126Y-1723237D01*
X2589885Y-1715973D01*
X2592222Y-1710994D01*
X2595524Y-1708404D01*
X2599537Y-1707337D01*
X2603652Y-1707997D01*
X2607157Y-1710283D01*
X2609443Y-1713738D01*
X2611831Y-1719681D01*
X2616250Y-1726539D01*
X2621889Y-1732432D01*
X2628544Y-1737207D01*
X2635961Y-1740560D01*
X2643886Y-1742490D01*
X2652064Y-1742897D01*
X2660142Y-1741728D01*
X2667863Y-1739087D01*
X2674924Y-1734972D01*
X2681071Y-1729638D01*
X2686151Y-1723237D01*
X2692247Y-1710994D01*
X2695498Y-1708404D01*
X2699512Y-1707337D01*
X2703626Y-1707997D01*
X2707132Y-1710283D01*
X2709468Y-1713738D01*
X2711856Y-1719681D01*
X2716225Y-1726539D01*
X2721864Y-1732432D01*
X2728518Y-1737207D01*
X2735935Y-1740560D01*
X2743911Y-1742490D01*
X2752039Y-1742897D01*
X2760116Y-1741728D01*
X2767838Y-1739087D01*
X2774899Y-1734972D01*
X2781096Y-1729638D01*
X2786126Y-1723237D01*
X2789885Y-1715973D01*
X2792222Y-1710994D01*
X2795524Y-1708404D01*
X2799537Y-1707337D01*
X2803652Y-1707997D01*
X2807157Y-1710283D01*
X2809443Y-1713738D01*
X2811830Y-1719681D01*
X2816250Y-1726539D01*
X2821889Y-1732432D01*
X2828544Y-1737207D01*
X2835960Y-1740560D01*
X2843885Y-1742490D01*
X2852064Y-1742897D01*
X2860141Y-1741728D01*
X2867863Y-1739087D01*
X2874924Y-1734972D01*
X2881071Y-1729638D01*
X2886151Y-1723237D01*
X2889859Y-1715973D01*
X2892196Y-1708150D01*
X2892958Y-1700022D01*
X2892196Y-1691843D01*
X2889859Y-1684020D01*
X2886151Y-1676755D01*
X2881071Y-1670354D01*
X2874924Y-1665020D01*
X2867863Y-1660906D01*
X2860141Y-1658264D01*
X2852064Y-1657096D01*
X2843885Y-1657502D01*
X2835960Y-1659432D01*
X2828544Y-1662785D01*
X2821889Y-1667560D01*
X2816250Y-1673453D01*
X2811830Y-1680311D01*
X2809443Y-1686255D01*
X2807157Y-1689709D01*
X2803652Y-1691995D01*
X2799537Y-1692656D01*
X2795524Y-1691589D01*
X2792222Y-1688998D01*
X2789885Y-1684020D01*
X2786126Y-1676755D01*
X2781096Y-1670354D01*
X2774899Y-1665020D01*
X2767838Y-1660906D01*
X2760116Y-1658264D01*
X2752039Y-1657096D01*
X2743911Y-1657502D01*
X2735935Y-1659432D01*
X2728518Y-1662785D01*
X2721864Y-1667560D01*
X2716225Y-1673453D01*
X2711856Y-1680311D01*
X2709468Y-1686255D01*
X2707132Y-1689709D01*
X2703626Y-1691995D01*
X2699512Y-1692656D01*
X2695498Y-1691589D01*
X2692247Y-1688998D01*
X2686151Y-1676755D01*
X2681071Y-1670354D01*
X2674924Y-1665020D01*
X2667863Y-1660906D01*
X2660142Y-1658264D01*
X2652064Y-1657096D01*
X2643886Y-1657502D01*
X2635961Y-1659432D01*
X2628544Y-1662785D01*
X2621889Y-1667560D01*
X2616250Y-1673453D01*
X2611831Y-1680311D01*
X2609443Y-1686255D01*
X2607157Y-1689709D01*
X2603652Y-1691995D01*
X2599537Y-1692656D01*
X2595524Y-1691589D01*
X2592222Y-1688998D01*
X2589885Y-1684020D01*
X2586126Y-1676755D01*
X2581097Y-1670354D01*
X2574899Y-1665020D01*
X2567838Y-1660906D01*
X2560116Y-1658264D01*
X2552039Y-1657096D01*
X2543911Y-1657502D01*
X2535936Y-1659432D01*
X2528519Y-1662785D01*
X2521864Y-1667560D01*
X2516225Y-1673453D01*
X2511806Y-1680311D01*
X2509469Y-1686255D01*
X2507132Y-1689709D01*
X2503627Y-1691995D01*
X2499512Y-1692656D01*
X2495499Y-1691589D01*
X2492248Y-1688998D01*
X2486152Y-1676755D01*
X2481072Y-1670354D01*
X2474925Y-1665020D01*
X2467864Y-1660906D01*
X2460142Y-1658264D01*
X2452065Y-1657096D01*
X2443886Y-1657502D01*
X2435961Y-1659432D01*
X2428544Y-1662785D01*
X2421890Y-1667560D01*
X2416251Y-1673453D01*
X2411831Y-1680311D01*
X2409444Y-1686255D01*
X2407158Y-1689709D01*
X2403652Y-1691995D01*
X2399538Y-1692656D01*
X2395524Y-1691589D01*
X2392222Y-1688998D01*
X2389886Y-1684020D01*
X2386126Y-1676755D01*
X2381097Y-1670354D01*
X2374900Y-1665020D01*
X2367838Y-1660906D01*
X2360117Y-1658264D01*
X2352040Y-1657096D01*
X2343912Y-1657502D01*
X2335936Y-1659432D01*
X2328519Y-1662785D01*
X2321864Y-1667560D01*
X2316226Y-1673453D01*
X2311857Y-1680311D01*
X2308809Y-1687880D01*
X2307234Y-1695907D01*
X2307234Y-1704086D01*
X2308809Y-1712112D01*
X2311857Y-1719681D01*
X2316226Y-1726539D01*
X2321864Y-1732432D01*
X2328519Y-1737207D01*
X2335936Y-1740560D01*
X2343912Y-1742490D01*
G37*
G36*
X877062Y-417931D02*
G01*
X885139Y-416763D01*
X892860Y-414070D01*
X899921Y-410006D01*
X906068Y-404622D01*
X911148Y-398221D01*
X917244Y-385978D01*
X920496Y-383387D01*
X924509Y-382371D01*
X928624Y-383032D01*
X932129Y-385267D01*
X934466Y-388721D01*
X936853Y-394665D01*
X941222Y-401574D01*
X946861Y-407466D01*
X953516Y-412191D01*
X960932Y-415594D01*
X968908Y-417525D01*
X977036Y-417931D01*
X985113Y-416763D01*
X992835Y-414070D01*
X999896Y-410006D01*
X1006094Y-404622D01*
X1011123Y-398221D01*
X1014882Y-390956D01*
X1017168Y-383133D01*
X1017930Y-375005D01*
X1017168Y-366877D01*
X1014882Y-359054D01*
X1011123Y-351790D01*
X1006094Y-345389D01*
X999896Y-340004D01*
X992835Y-335940D01*
X985113Y-333248D01*
X977036Y-332079D01*
X968908Y-332486D01*
X960932Y-334416D01*
X953516Y-337820D01*
X946861Y-342544D01*
X941222Y-348437D01*
X936853Y-355346D01*
X934466Y-361289D01*
X932129Y-364744D01*
X928624Y-366979D01*
X924509Y-367639D01*
X920496Y-366623D01*
X917244Y-364032D01*
X911148Y-351790D01*
X906068Y-345389D01*
X899921Y-340004D01*
X892860Y-335940D01*
X885139Y-333248D01*
X877062Y-332079D01*
X868883Y-332486D01*
X860958Y-334416D01*
X853541Y-337820D01*
X846886Y-342544D01*
X841248Y-348437D01*
X836828Y-355346D01*
X833780Y-362915D01*
X832256Y-370941D01*
X832256Y-379069D01*
X833780Y-387096D01*
X836828Y-394665D01*
X841248Y-401574D01*
X846886Y-407466D01*
X853541Y-412191D01*
X860958Y-415594D01*
X868883Y-417525D01*
G37*
G36*
X-547928Y-442925D02*
G01*
X-539851Y-441756D01*
X-532130Y-439064D01*
X-525068Y-435000D01*
X-518922Y-429615D01*
X-513842Y-423214D01*
X-507746Y-410972D01*
X-504494Y-408381D01*
X-500481Y-407365D01*
X-496366Y-408025D01*
X-492861Y-410260D01*
X-490524Y-413715D01*
X-488137Y-419658D01*
X-483768Y-426567D01*
X-478129Y-432460D01*
X-471474Y-437184D01*
X-464058Y-440588D01*
X-456082Y-442518D01*
X-447954Y-442925D01*
X-439877Y-441756D01*
X-432155Y-439064D01*
X-425094Y-435000D01*
X-418896Y-429615D01*
X-413867Y-423214D01*
X-410108Y-415950D01*
X-407771Y-410972D01*
X-404469Y-408381D01*
X-400456Y-407365D01*
X-396341Y-408025D01*
X-392836Y-410260D01*
X-390550Y-413715D01*
X-388162Y-419658D01*
X-383743Y-426567D01*
X-378104Y-432460D01*
X-371449Y-437184D01*
X-364032Y-440588D01*
X-356108Y-442518D01*
X-347929Y-442925D01*
X-339852Y-441756D01*
X-332130Y-439064D01*
X-325069Y-435000D01*
X-318922Y-429615D01*
X-313842Y-423214D01*
X-307746Y-410972D01*
X-304495Y-408381D01*
X-300482Y-407365D01*
X-296367Y-408025D01*
X-292862Y-410260D01*
X-290525Y-413715D01*
X-288137Y-419658D01*
X-283768Y-426567D01*
X-278130Y-432460D01*
X-271475Y-437184D01*
X-264058Y-440588D01*
X-256082Y-442518D01*
X-247954Y-442925D01*
X-239877Y-441756D01*
X-232156Y-439064D01*
X-225094Y-435000D01*
X-218897Y-429615D01*
X-213867Y-423214D01*
X-210108Y-415950D01*
X-207822Y-408127D01*
X-207060Y-399999D01*
X-207822Y-391871D01*
X-210108Y-384048D01*
X-213867Y-376783D01*
X-218897Y-370382D01*
X-225094Y-364998D01*
X-232156Y-360934D01*
X-239877Y-358241D01*
X-247954Y-357073D01*
X-256082Y-357479D01*
X-264058Y-359410D01*
X-271475Y-362813D01*
X-278130Y-367538D01*
X-283768Y-373430D01*
X-288137Y-380339D01*
X-290525Y-386283D01*
X-292862Y-389737D01*
X-296367Y-391972D01*
X-300482Y-392633D01*
X-304495Y-391617D01*
X-307746Y-389026D01*
X-313842Y-376783D01*
X-318922Y-370382D01*
X-325069Y-364998D01*
X-332130Y-360934D01*
X-339852Y-358241D01*
X-347929Y-357073D01*
X-356108Y-357479D01*
X-364032Y-359410D01*
X-371449Y-362813D01*
X-378104Y-367538D01*
X-383743Y-373430D01*
X-388162Y-380339D01*
X-390550Y-386283D01*
X-392836Y-389737D01*
X-396341Y-391972D01*
X-400456Y-392633D01*
X-404469Y-391617D01*
X-407771Y-389026D01*
X-410108Y-384048D01*
X-413867Y-376783D01*
X-418896Y-370382D01*
X-425094Y-364998D01*
X-432155Y-360934D01*
X-439877Y-358241D01*
X-447954Y-357073D01*
X-456082Y-357479D01*
X-464058Y-359410D01*
X-471474Y-362813D01*
X-478129Y-367538D01*
X-483768Y-373430D01*
X-488137Y-380339D01*
X-490524Y-386283D01*
X-492861Y-389737D01*
X-496366Y-391972D01*
X-500481Y-392633D01*
X-504494Y-391617D01*
X-507746Y-389026D01*
X-513842Y-376783D01*
X-518922Y-370382D01*
X-525068Y-364998D01*
X-532130Y-360934D01*
X-539851Y-358241D01*
X-547928Y-357073D01*
X-556107Y-357479D01*
X-564032Y-359410D01*
X-571449Y-362813D01*
X-578104Y-367538D01*
X-583742Y-373430D01*
X-588162Y-380339D01*
X-591210Y-387908D01*
X-592734Y-395935D01*
X-592734Y-404063D01*
X-591210Y-412089D01*
X-588162Y-419658D01*
X-583742Y-426567D01*
X-578104Y-432460D01*
X-571449Y-437184D01*
X-564032Y-440588D01*
X-556107Y-442518D01*
G37*
G36*
X1052068Y-492912D02*
G01*
X1060145Y-491743D01*
X1067866Y-489102D01*
X1074928Y-484987D01*
X1081074Y-479653D01*
X1086154Y-473252D01*
X1089863Y-465988D01*
X1092200Y-458165D01*
X1092962Y-450037D01*
X1092200Y-441858D01*
X1089863Y-434035D01*
X1086154Y-426770D01*
X1081074Y-420370D01*
X1074928Y-415035D01*
X1067866Y-410921D01*
X1060145Y-408279D01*
X1052068Y-407111D01*
X1043889Y-407517D01*
X1035964Y-409448D01*
X1028547Y-412800D01*
X1021892Y-417576D01*
X1016253Y-423468D01*
X1011834Y-430326D01*
X1008786Y-437896D01*
X1007262Y-445922D01*
X1007262Y-454101D01*
X1008786Y-462127D01*
X1011834Y-469696D01*
X1016253Y-476554D01*
X1021892Y-482447D01*
X1028547Y-487222D01*
X1035964Y-490575D01*
X1043889Y-492506D01*
G37*
G36*
X1127048Y-567893D02*
G01*
X1135126Y-566724D01*
X1142847Y-564083D01*
X1149908Y-559968D01*
X1156055Y-554634D01*
X1161135Y-548233D01*
X1164844Y-540969D01*
X1167180Y-533146D01*
X1167942Y-525018D01*
X1167180Y-516839D01*
X1164844Y-509016D01*
X1161135Y-501751D01*
X1156055Y-495350D01*
X1149908Y-490016D01*
X1142847Y-485901D01*
X1135126Y-483260D01*
X1127048Y-482092D01*
X1118870Y-482498D01*
X1110945Y-484428D01*
X1103528Y-487781D01*
X1096873Y-492556D01*
X1091234Y-498449D01*
X1086815Y-505307D01*
X1083767Y-512876D01*
X1082243Y-520903D01*
X1082243Y-529082D01*
X1083767Y-537108D01*
X1086815Y-544677D01*
X1091234Y-551535D01*
X1096873Y-557428D01*
X1103528Y-562203D01*
X1110945Y-565556D01*
X1118870Y-567486D01*
G37*
G36*
X4666488Y-626110D02*
G01*
X4679696Y-626110D01*
X4692853Y-624332D01*
X4705654Y-620826D01*
X4717846Y-615645D01*
X4729226Y-608888D01*
X4739640Y-600659D01*
X4748834Y-591159D01*
X4756708Y-580491D01*
X4763109Y-568858D01*
X4767834Y-556514D01*
X4770932Y-543610D01*
X4772253Y-530402D01*
X4771796Y-517194D01*
X4769612Y-504088D01*
X4765700Y-491439D01*
X4760112Y-479399D01*
X4752949Y-468223D01*
X4744415Y-458114D01*
X4734560Y-449224D01*
X4723638Y-441756D01*
X4711801Y-435762D01*
X4699304Y-431393D01*
X4686300Y-428751D01*
X4673092Y-427888D01*
X4659884Y-428751D01*
X4646879Y-431393D01*
X4634382Y-435762D01*
X4622546Y-441756D01*
X4611624Y-449224D01*
X4601768Y-458114D01*
X4593234Y-468223D01*
X4586071Y-479399D01*
X4580483Y-491439D01*
X4576572Y-504088D01*
X4574387Y-517194D01*
X4573930Y-530402D01*
X4575251Y-543610D01*
X4578350Y-556514D01*
X4583074Y-568858D01*
X4589475Y-580491D01*
X4597349Y-591159D01*
X4606544Y-600659D01*
X4616958Y-608888D01*
X4628337Y-615645D01*
X4640529Y-620826D01*
X4653330Y-624332D01*
G37*
G36*
X-1447952Y-4892903D02*
G01*
X-1439875Y-4891735D01*
X-1432153Y-4889093D01*
X-1425092Y-4884978D01*
X-1418894Y-4879644D01*
X-1413865Y-4873244D01*
X-1410106Y-4865979D01*
X-1407820Y-4858156D01*
X-1407058Y-4850028D01*
X-1407820Y-4841849D01*
X-1410106Y-4834026D01*
X-1413865Y-4826762D01*
X-1418894Y-4820361D01*
X-1425092Y-4815027D01*
X-1432153Y-4810912D01*
X-1439875Y-4808270D01*
X-1447952Y-4807102D01*
X-1456080Y-4807508D01*
X-1464056Y-4809439D01*
X-1471472Y-4812792D01*
X-1478127Y-4817567D01*
X-1483766Y-4823460D01*
X-1488135Y-4830318D01*
X-1491183Y-4837887D01*
X-1492758Y-4845913D01*
X-1492758Y-4854092D01*
X-1491183Y-4862118D01*
X-1488135Y-4869688D01*
X-1483766Y-4876546D01*
X-1478127Y-4882438D01*
X-1471472Y-4887214D01*
X-1464056Y-4890566D01*
X-1456080Y-4892497D01*
G37*
G36*
X4920488Y-626110D02*
G01*
X4933696Y-626110D01*
X4946853Y-624332D01*
X4959654Y-620826D01*
X4971846Y-615645D01*
X4983226Y-608888D01*
X4993640Y-600659D01*
X5002834Y-591159D01*
X5010708Y-580491D01*
X5017109Y-568858D01*
X5021834Y-556514D01*
X5024932Y-543610D01*
X5026253Y-530402D01*
X5025796Y-517194D01*
X5023612Y-504088D01*
X5019700Y-491439D01*
X5014112Y-479399D01*
X5006949Y-468223D01*
X4998415Y-458114D01*
X4988560Y-449224D01*
X4977638Y-441756D01*
X4965801Y-435762D01*
X4953304Y-431393D01*
X4940300Y-428751D01*
X4927092Y-427888D01*
X4913884Y-428751D01*
X4900879Y-431393D01*
X4888382Y-435762D01*
X4876546Y-441756D01*
X4865624Y-449224D01*
X4855768Y-458114D01*
X4847234Y-468223D01*
X4840071Y-479399D01*
X4834483Y-491439D01*
X4830572Y-504088D01*
X4828387Y-517194D01*
X4827930Y-530402D01*
X4829251Y-543610D01*
X4832350Y-556514D01*
X4837074Y-568858D01*
X4843475Y-580491D01*
X4851349Y-591159D01*
X4860544Y-600659D01*
X4870958Y-608888D01*
X4882337Y-615645D01*
X4894529Y-620826D01*
X4907330Y-624332D01*
G37*
G36*
X352044Y-742899D02*
G01*
X360121Y-741730D01*
X367842Y-739089D01*
X374904Y-734974D01*
X381101Y-729640D01*
X386130Y-723239D01*
X389890Y-715975D01*
X392176Y-708152D01*
X392938Y-700024D01*
X392176Y-691845D01*
X389890Y-684022D01*
X386130Y-676757D01*
X381101Y-670356D01*
X374904Y-665022D01*
X367842Y-660908D01*
X360121Y-658266D01*
X352044Y-657098D01*
X343916Y-657504D01*
X335940Y-659434D01*
X328523Y-662787D01*
X321868Y-667562D01*
X316230Y-673455D01*
X311861Y-680313D01*
X308813Y-687882D01*
X307238Y-695909D01*
X307238Y-704088D01*
X308813Y-712114D01*
X311861Y-719683D01*
X316230Y-726541D01*
X321868Y-732434D01*
X328523Y-737209D01*
X335940Y-740562D01*
X343916Y-742492D01*
G37*
G36*
X2702052Y-792937D02*
G01*
X2710129Y-791768D01*
X2717850Y-789076D01*
X2724912Y-785012D01*
X2731058Y-779627D01*
X2736138Y-773226D01*
X2739847Y-765962D01*
X2742184Y-758139D01*
X2742946Y-750011D01*
X2742184Y-741883D01*
X2739847Y-734060D01*
X2736138Y-726795D01*
X2731058Y-720394D01*
X2724912Y-715010D01*
X2717850Y-710946D01*
X2710129Y-708253D01*
X2702052Y-707085D01*
X2693873Y-707491D01*
X2685948Y-709422D01*
X2682189Y-711149D01*
X2678074Y-712063D01*
X2673908Y-711200D01*
X2670454Y-708761D01*
X2668320Y-705154D01*
X2667152Y-691845D01*
X2664866Y-684022D01*
X2661107Y-676757D01*
X2656078Y-670356D01*
X2649880Y-665022D01*
X2642819Y-660908D01*
X2635097Y-658266D01*
X2627020Y-657098D01*
X2618892Y-657504D01*
X2610916Y-659434D01*
X2603500Y-662787D01*
X2596845Y-667562D01*
X2591206Y-673455D01*
X2586837Y-680313D01*
X2583789Y-687882D01*
X2582214Y-695909D01*
X2582214Y-704088D01*
X2583789Y-712114D01*
X2586837Y-719683D01*
X2591206Y-726541D01*
X2596845Y-732434D01*
X2603500Y-737209D01*
X2610916Y-740562D01*
X2618892Y-742492D01*
X2627020Y-742899D01*
X2635097Y-741730D01*
X2643733Y-738733D01*
X2647543Y-738174D01*
X2651302Y-739089D01*
X2654452Y-741324D01*
X2656535Y-744575D01*
X2657246Y-748334D01*
X2657246Y-754075D01*
X2658770Y-762101D01*
X2661818Y-769670D01*
X2666238Y-776579D01*
X2671876Y-782472D01*
X2678531Y-787196D01*
X2685948Y-790600D01*
X2693873Y-792530D01*
G37*
G36*
X1902053Y-842924D02*
G01*
X1910130Y-841756D01*
X1917852Y-839063D01*
X1924913Y-834999D01*
X1931060Y-829614D01*
X1936140Y-823214D01*
X1942236Y-810971D01*
X1945487Y-808380D01*
X1949500Y-807364D01*
X1953615Y-808024D01*
X1957120Y-810260D01*
X1959457Y-813714D01*
X1961845Y-819658D01*
X1966214Y-826566D01*
X1971852Y-832459D01*
X1978507Y-837184D01*
X1985924Y-840587D01*
X1993900Y-842518D01*
X2002028Y-842924D01*
X2010105Y-841756D01*
X2017826Y-839063D01*
X2024888Y-834999D01*
X2031085Y-829614D01*
X2036114Y-823214D01*
X2039874Y-815949D01*
X2042160Y-808126D01*
X2042922Y-799998D01*
X2042160Y-791870D01*
X2039874Y-784047D01*
X2036114Y-776782D01*
X2031085Y-770382D01*
X2024888Y-764997D01*
X2017826Y-760933D01*
X2010105Y-758240D01*
X2002028Y-757072D01*
X1993900Y-757478D01*
X1985924Y-759409D01*
X1978507Y-762812D01*
X1971852Y-767537D01*
X1966214Y-773430D01*
X1961845Y-780338D01*
X1959457Y-786282D01*
X1957120Y-789736D01*
X1953615Y-791972D01*
X1949500Y-792632D01*
X1945487Y-791616D01*
X1942236Y-789025D01*
X1936140Y-776782D01*
X1931060Y-770382D01*
X1924913Y-764997D01*
X1917852Y-760933D01*
X1913991Y-759612D01*
X1910435Y-757478D01*
X1907997Y-754075D01*
X1907184Y-750011D01*
X1907997Y-745947D01*
X1910435Y-742543D01*
X1913991Y-740410D01*
X1917852Y-739089D01*
X1924913Y-734974D01*
X1931060Y-729640D01*
X1936140Y-723239D01*
X1939848Y-715975D01*
X1942185Y-708152D01*
X1942947Y-700024D01*
X1942185Y-691845D01*
X1939848Y-684022D01*
X1936140Y-676757D01*
X1931060Y-670356D01*
X1924913Y-665022D01*
X1917852Y-660908D01*
X1910130Y-658266D01*
X1902053Y-657098D01*
X1893874Y-657504D01*
X1885950Y-659434D01*
X1878533Y-662787D01*
X1871878Y-667562D01*
X1866239Y-673455D01*
X1861820Y-680313D01*
X1859432Y-686257D01*
X1857146Y-689711D01*
X1853641Y-691997D01*
X1849526Y-692658D01*
X1845513Y-691591D01*
X1842211Y-689000D01*
X1839874Y-684022D01*
X1836115Y-676757D01*
X1831086Y-670356D01*
X1824888Y-665022D01*
X1817827Y-660908D01*
X1810105Y-658266D01*
X1802028Y-657098D01*
X1793900Y-657504D01*
X1785924Y-659434D01*
X1778507Y-662787D01*
X1771853Y-667562D01*
X1766214Y-673455D01*
X1761845Y-680313D01*
X1759457Y-686257D01*
X1757121Y-689711D01*
X1753616Y-691997D01*
X1749501Y-692658D01*
X1745488Y-691591D01*
X1742236Y-689000D01*
X1736140Y-676757D01*
X1731060Y-670356D01*
X1724914Y-665022D01*
X1717852Y-660908D01*
X1710131Y-658266D01*
X1702054Y-657098D01*
X1693875Y-657504D01*
X1685950Y-659434D01*
X1678533Y-662787D01*
X1671878Y-667562D01*
X1666239Y-673455D01*
X1661820Y-680313D01*
X1659432Y-686257D01*
X1657146Y-689711D01*
X1653641Y-691997D01*
X1649526Y-692658D01*
X1645513Y-691591D01*
X1642211Y-689000D01*
X1639874Y-684022D01*
X1636115Y-676757D01*
X1631086Y-670356D01*
X1624888Y-665022D01*
X1617827Y-660908D01*
X1610106Y-658266D01*
X1602028Y-657098D01*
X1593900Y-657504D01*
X1585925Y-659434D01*
X1578508Y-662787D01*
X1571853Y-667562D01*
X1566214Y-673455D01*
X1561846Y-680313D01*
X1558798Y-687882D01*
X1557223Y-695909D01*
X1557223Y-704088D01*
X1558798Y-712114D01*
X1561846Y-719683D01*
X1566214Y-726541D01*
X1571853Y-732434D01*
X1578508Y-737209D01*
X1585925Y-740562D01*
X1593900Y-742492D01*
X1602028Y-742899D01*
X1610106Y-741730D01*
X1617827Y-739089D01*
X1624888Y-734974D01*
X1631086Y-729640D01*
X1636115Y-723239D01*
X1639874Y-715975D01*
X1642211Y-710996D01*
X1645513Y-708406D01*
X1649526Y-707339D01*
X1653641Y-707999D01*
X1657146Y-710285D01*
X1659432Y-713740D01*
X1661820Y-719683D01*
X1666239Y-726541D01*
X1671878Y-732434D01*
X1678533Y-737209D01*
X1685950Y-740562D01*
X1693875Y-742492D01*
X1702054Y-742899D01*
X1710131Y-741730D01*
X1717852Y-739089D01*
X1724914Y-734974D01*
X1731060Y-729640D01*
X1736140Y-723239D01*
X1742236Y-710996D01*
X1745488Y-708406D01*
X1749501Y-707339D01*
X1753616Y-707999D01*
X1757121Y-710285D01*
X1759457Y-713740D01*
X1761845Y-719683D01*
X1766214Y-726541D01*
X1771853Y-732434D01*
X1778507Y-737209D01*
X1785924Y-740562D01*
X1793900Y-742492D01*
X1802028Y-742899D01*
X1810105Y-741730D01*
X1817827Y-739089D01*
X1824888Y-734974D01*
X1831086Y-729640D01*
X1836115Y-723239D01*
X1839874Y-715975D01*
X1842211Y-710996D01*
X1845513Y-708406D01*
X1849526Y-707339D01*
X1853641Y-707999D01*
X1857146Y-710285D01*
X1859432Y-713740D01*
X1861820Y-719683D01*
X1866239Y-726541D01*
X1871878Y-732434D01*
X1878533Y-737209D01*
X1886305Y-740765D01*
X1889455Y-743000D01*
X1891538Y-746201D01*
X1892249Y-750011D01*
X1891538Y-753770D01*
X1889455Y-757021D01*
X1886305Y-759256D01*
X1878533Y-762812D01*
X1871878Y-767537D01*
X1866239Y-773430D01*
X1861820Y-780338D01*
X1858772Y-787908D01*
X1857248Y-795934D01*
X1857248Y-804062D01*
X1858772Y-812088D01*
X1861820Y-819658D01*
X1866239Y-826566D01*
X1871878Y-832459D01*
X1878533Y-837184D01*
X1885950Y-840587D01*
X1893874Y-842518D01*
G37*
G36*
X-1347927Y-842924D02*
G01*
X-1339850Y-841756D01*
X-1332128Y-839063D01*
X-1325067Y-834999D01*
X-1318920Y-829614D01*
X-1313840Y-823214D01*
X-1307744Y-810971D01*
X-1304493Y-808380D01*
X-1300480Y-807364D01*
X-1296365Y-808024D01*
X-1292860Y-810260D01*
X-1290523Y-813714D01*
X-1288135Y-819658D01*
X-1283766Y-826566D01*
X-1278128Y-832459D01*
X-1271473Y-837184D01*
X-1264056Y-840587D01*
X-1256080Y-842518D01*
X-1247952Y-842924D01*
X-1239875Y-841756D01*
X-1232154Y-839063D01*
X-1225092Y-834999D01*
X-1218895Y-829614D01*
X-1213866Y-823214D01*
X-1210106Y-815949D01*
X-1207770Y-810971D01*
X-1204468Y-808380D01*
X-1200454Y-807364D01*
X-1196340Y-808024D01*
X-1192834Y-810260D01*
X-1190548Y-813714D01*
X-1188161Y-819658D01*
X-1183741Y-826566D01*
X-1178102Y-832459D01*
X-1171448Y-837184D01*
X-1164031Y-840587D01*
X-1156106Y-842518D01*
X-1147927Y-842924D01*
X-1139850Y-841756D01*
X-1132128Y-839063D01*
X-1125067Y-834999D01*
X-1118920Y-829614D01*
X-1113840Y-823214D01*
X-1107744Y-810971D01*
X-1104493Y-808380D01*
X-1100480Y-807364D01*
X-1096365Y-808024D01*
X-1092860Y-810260D01*
X-1090523Y-813714D01*
X-1088136Y-819658D01*
X-1083767Y-826566D01*
X-1078128Y-832459D01*
X-1071473Y-837184D01*
X-1064056Y-840587D01*
X-1056081Y-842518D01*
X-1047953Y-842924D01*
X-1039876Y-841756D01*
X-1032154Y-839063D01*
X-1025093Y-834999D01*
X-1018895Y-829614D01*
X-1013866Y-823214D01*
X-1010107Y-815949D01*
X-1007821Y-808126D01*
X-1007059Y-799998D01*
X-1007821Y-791870D01*
X-1010107Y-784047D01*
X-1013866Y-776782D01*
X-1018895Y-770382D01*
X-1025093Y-764997D01*
X-1032154Y-760933D01*
X-1039876Y-758240D01*
X-1047953Y-757072D01*
X-1056081Y-757478D01*
X-1064056Y-759409D01*
X-1071473Y-762812D01*
X-1078128Y-767537D01*
X-1083767Y-773430D01*
X-1088136Y-780338D01*
X-1090523Y-786282D01*
X-1092860Y-789736D01*
X-1096365Y-791972D01*
X-1100480Y-792632D01*
X-1104493Y-791616D01*
X-1107744Y-789025D01*
X-1113840Y-776782D01*
X-1118920Y-770382D01*
X-1125067Y-764997D01*
X-1132128Y-760933D01*
X-1139850Y-758240D01*
X-1147927Y-757072D01*
X-1156106Y-757478D01*
X-1164031Y-759409D01*
X-1171448Y-762812D01*
X-1178102Y-767537D01*
X-1183741Y-773430D01*
X-1188161Y-780338D01*
X-1190548Y-786282D01*
X-1192834Y-789736D01*
X-1196340Y-791972D01*
X-1200454Y-792632D01*
X-1204468Y-791616D01*
X-1207770Y-789025D01*
X-1210106Y-784047D01*
X-1213866Y-776782D01*
X-1218895Y-770382D01*
X-1225092Y-764997D01*
X-1232154Y-760933D01*
X-1239875Y-758240D01*
X-1247952Y-757072D01*
X-1256080Y-757478D01*
X-1264056Y-759409D01*
X-1271473Y-762812D01*
X-1278128Y-767537D01*
X-1283766Y-773430D01*
X-1288135Y-780338D01*
X-1290523Y-786282D01*
X-1292860Y-789736D01*
X-1296365Y-791972D01*
X-1300480Y-792632D01*
X-1304493Y-791616D01*
X-1307744Y-789025D01*
X-1313840Y-776782D01*
X-1318920Y-770382D01*
X-1325067Y-764997D01*
X-1332128Y-760933D01*
X-1339850Y-758240D01*
X-1347927Y-757072D01*
X-1356106Y-757478D01*
X-1364030Y-759409D01*
X-1371447Y-762812D01*
X-1378102Y-767537D01*
X-1383741Y-773430D01*
X-1388160Y-780338D01*
X-1391208Y-787908D01*
X-1392732Y-795934D01*
X-1392732Y-804062D01*
X-1391208Y-812088D01*
X-1388160Y-819658D01*
X-1383741Y-826566D01*
X-1378102Y-832459D01*
X-1371447Y-837184D01*
X-1364030Y-840587D01*
X-1356106Y-842518D01*
G37*
G36*
X4920488Y-880110D02*
G01*
X4933696Y-880110D01*
X4946853Y-878332D01*
X4959654Y-874826D01*
X4971846Y-869645D01*
X4983226Y-862888D01*
X4993640Y-854659D01*
X5002834Y-845159D01*
X5010708Y-834491D01*
X5017109Y-822858D01*
X5021834Y-810514D01*
X5024932Y-797610D01*
X5026253Y-784402D01*
X5025796Y-771194D01*
X5023612Y-758088D01*
X5019700Y-745439D01*
X5014112Y-733399D01*
X5006949Y-722223D01*
X4998415Y-712114D01*
X4988560Y-703224D01*
X4977638Y-695756D01*
X4965801Y-689762D01*
X4953304Y-685393D01*
X4940300Y-682752D01*
X4927092Y-681888D01*
X4913884Y-682752D01*
X4900879Y-685393D01*
X4888382Y-689762D01*
X4876546Y-695756D01*
X4865624Y-703224D01*
X4855768Y-712114D01*
X4847234Y-722223D01*
X4840071Y-733399D01*
X4834483Y-745439D01*
X4830572Y-758088D01*
X4828387Y-771194D01*
X4827930Y-784402D01*
X4829251Y-797610D01*
X4832350Y-810514D01*
X4837074Y-822858D01*
X4843475Y-834491D01*
X4851349Y-845159D01*
X4860544Y-854659D01*
X4870958Y-862888D01*
X4882337Y-869645D01*
X4894529Y-874826D01*
X4907330Y-878332D01*
G37*
G36*
X4666488Y-880110D02*
G01*
X4679696Y-880110D01*
X4692853Y-878332D01*
X4705654Y-874826D01*
X4717846Y-869645D01*
X4729226Y-862888D01*
X4739640Y-854659D01*
X4748834Y-845159D01*
X4756708Y-834491D01*
X4763109Y-822858D01*
X4767834Y-810514D01*
X4770932Y-797610D01*
X4772253Y-784402D01*
X4771796Y-771194D01*
X4769612Y-758088D01*
X4765700Y-745439D01*
X4760112Y-733399D01*
X4752949Y-722223D01*
X4744415Y-712114D01*
X4734560Y-703224D01*
X4723638Y-695756D01*
X4711801Y-689762D01*
X4699304Y-685393D01*
X4686300Y-682752D01*
X4673092Y-681888D01*
X4659884Y-682752D01*
X4646879Y-685393D01*
X4634382Y-689762D01*
X4622546Y-695756D01*
X4611624Y-703224D01*
X4601768Y-712114D01*
X4593234Y-722223D01*
X4586071Y-733399D01*
X4580483Y-745439D01*
X4576572Y-758088D01*
X4574387Y-771194D01*
X4573930Y-784402D01*
X4575251Y-797610D01*
X4578350Y-810514D01*
X4583074Y-822858D01*
X4589475Y-834491D01*
X4597349Y-845159D01*
X4606544Y-854659D01*
X4616958Y-862888D01*
X4628337Y-869645D01*
X4640529Y-874826D01*
X4653330Y-878332D01*
G37*
G36*
X2152040Y-892911D02*
G01*
X2160117Y-891743D01*
X2167839Y-889101D01*
X2174900Y-884986D01*
X2181047Y-879652D01*
X2186127Y-873252D01*
X2189835Y-865987D01*
X2192172Y-858164D01*
X2192934Y-850036D01*
X2192172Y-841857D01*
X2189835Y-834034D01*
X2186127Y-826769D01*
X2181047Y-820369D01*
X2174900Y-815035D01*
X2167839Y-810920D01*
X2160117Y-808278D01*
X2152040Y-807110D01*
X2143861Y-807516D01*
X2135936Y-809447D01*
X2128520Y-812800D01*
X2121865Y-817575D01*
X2116226Y-823468D01*
X2111806Y-830326D01*
X2108758Y-837895D01*
X2107234Y-845921D01*
X2107234Y-854100D01*
X2108758Y-862126D01*
X2111806Y-869696D01*
X2116226Y-876553D01*
X2121865Y-882446D01*
X2128520Y-887221D01*
X2135936Y-890574D01*
X2143861Y-892505D01*
G37*
G36*
X2852064Y-892911D02*
G01*
X2860141Y-891743D01*
X2867863Y-889101D01*
X2874924Y-884986D01*
X2881071Y-879652D01*
X2886151Y-873252D01*
X2889859Y-865987D01*
X2892196Y-858164D01*
X2892958Y-850036D01*
X2892196Y-841857D01*
X2889859Y-834034D01*
X2886151Y-826769D01*
X2881071Y-820369D01*
X2874924Y-815035D01*
X2867863Y-810920D01*
X2860141Y-808278D01*
X2852064Y-807110D01*
X2843885Y-807516D01*
X2835960Y-809447D01*
X2828544Y-812800D01*
X2821889Y-817575D01*
X2816250Y-823468D01*
X2811830Y-830326D01*
X2808782Y-837895D01*
X2807258Y-845921D01*
X2807258Y-854100D01*
X2808782Y-862126D01*
X2811830Y-869696D01*
X2816250Y-876553D01*
X2821889Y-882446D01*
X2828544Y-887221D01*
X2835960Y-890574D01*
X2843885Y-892505D01*
G37*
G36*
X2927045Y-967892D02*
G01*
X2935122Y-966724D01*
X2942844Y-964082D01*
X2949905Y-959967D01*
X2956052Y-954633D01*
X2961132Y-948232D01*
X2964840Y-940968D01*
X2967177Y-933145D01*
X2967939Y-925017D01*
X2967177Y-916838D01*
X2964840Y-909015D01*
X2961132Y-901750D01*
X2956052Y-895350D01*
X2949905Y-890016D01*
X2942844Y-885901D01*
X2935122Y-883259D01*
X2927045Y-882091D01*
X2918866Y-882497D01*
X2910941Y-884428D01*
X2903524Y-887780D01*
X2896870Y-892556D01*
X2891231Y-898448D01*
X2886811Y-905306D01*
X2883763Y-912876D01*
X2882239Y-920902D01*
X2882239Y-929081D01*
X2883763Y-937107D01*
X2886811Y-944676D01*
X2891231Y-951534D01*
X2896870Y-957427D01*
X2903524Y-962202D01*
X2910941Y-965555D01*
X2918866Y-967486D01*
G37*
G36*
X2102053Y-992936D02*
G01*
X2110130Y-991768D01*
X2117852Y-989076D01*
X2124913Y-985012D01*
X2131060Y-979627D01*
X2136140Y-973226D01*
X2139848Y-965962D01*
X2142185Y-958138D01*
X2142947Y-950010D01*
X2142185Y-941882D01*
X2139848Y-934059D01*
X2136140Y-926795D01*
X2131060Y-920394D01*
X2124913Y-915009D01*
X2117852Y-910945D01*
X2110130Y-908253D01*
X2102053Y-907084D01*
X2093874Y-907491D01*
X2085949Y-909421D01*
X2078532Y-912825D01*
X2071878Y-917549D01*
X2066239Y-923442D01*
X2061819Y-930351D01*
X2058771Y-937920D01*
X2057247Y-945946D01*
X2057247Y-954074D01*
X2058771Y-962101D01*
X2061819Y-969670D01*
X2066239Y-976579D01*
X2071878Y-982471D01*
X2078532Y-987196D01*
X2085949Y-990600D01*
X2093874Y-992530D01*
G37*
G36*
X2802026Y-1042924D02*
G01*
X2810103Y-1041755D01*
X2817825Y-1039063D01*
X2824886Y-1034999D01*
X2831084Y-1029614D01*
X2836113Y-1023213D01*
X2839872Y-1015949D01*
X2842158Y-1008126D01*
X2842920Y-999998D01*
X2842158Y-991869D01*
X2839872Y-984046D01*
X2836113Y-976782D01*
X2831084Y-970381D01*
X2824886Y-964996D01*
X2817825Y-960932D01*
X2810103Y-958240D01*
X2802026Y-957071D01*
X2793898Y-957478D01*
X2785922Y-959408D01*
X2778506Y-962812D01*
X2771851Y-967536D01*
X2766212Y-973429D01*
X2761843Y-980338D01*
X2758795Y-987907D01*
X2757220Y-995934D01*
X2757220Y-1004062D01*
X2758795Y-1012088D01*
X2761843Y-1019657D01*
X2766212Y-1026566D01*
X2771851Y-1032459D01*
X2778506Y-1037183D01*
X2785922Y-1040587D01*
X2793898Y-1042517D01*
G37*
G36*
X902055Y-1642922D02*
G01*
X910132Y-1641754D01*
X917854Y-1639062D01*
X924915Y-1634998D01*
X931062Y-1629613D01*
X936142Y-1623212D01*
X942238Y-1610969D01*
X945489Y-1608378D01*
X949502Y-1607362D01*
X953617Y-1608023D01*
X957122Y-1610258D01*
X959459Y-1613712D01*
X961847Y-1619656D01*
X966216Y-1626565D01*
X971854Y-1632457D01*
X978509Y-1637182D01*
X985926Y-1640586D01*
X993902Y-1642516D01*
X1002030Y-1642922D01*
X1010107Y-1641754D01*
X1017828Y-1639062D01*
X1024890Y-1634998D01*
X1031087Y-1629613D01*
X1036116Y-1623212D01*
X1039876Y-1615948D01*
X1042212Y-1610969D01*
X1045514Y-1608378D01*
X1049528Y-1607362D01*
X1053642Y-1608023D01*
X1057148Y-1610258D01*
X1059434Y-1613712D01*
X1061821Y-1619656D01*
X1066241Y-1626565D01*
X1071880Y-1632457D01*
X1078534Y-1637182D01*
X1085951Y-1640586D01*
X1093876Y-1642516D01*
X1102055Y-1642922D01*
X1110132Y-1641754D01*
X1117854Y-1639062D01*
X1124915Y-1634998D01*
X1131062Y-1629613D01*
X1136142Y-1623212D01*
X1142238Y-1610969D01*
X1145489Y-1608378D01*
X1149502Y-1607362D01*
X1153617Y-1608023D01*
X1157122Y-1610258D01*
X1159459Y-1613712D01*
X1161846Y-1619656D01*
X1166215Y-1626565D01*
X1171854Y-1632457D01*
X1178509Y-1637182D01*
X1185926Y-1640586D01*
X1193901Y-1642516D01*
X1202029Y-1642922D01*
X1210106Y-1641754D01*
X1217828Y-1639062D01*
X1224889Y-1634998D01*
X1231087Y-1629613D01*
X1236116Y-1623212D01*
X1239875Y-1615948D01*
X1242161Y-1608124D01*
X1242923Y-1599996D01*
X1242161Y-1591868D01*
X1239875Y-1584045D01*
X1236116Y-1576781D01*
X1231087Y-1570380D01*
X1224889Y-1564995D01*
X1217828Y-1560931D01*
X1210106Y-1558239D01*
X1202029Y-1557070D01*
X1193901Y-1557477D01*
X1185926Y-1559407D01*
X1178509Y-1562811D01*
X1171854Y-1567535D01*
X1166215Y-1573428D01*
X1161846Y-1580337D01*
X1159459Y-1586280D01*
X1157122Y-1589735D01*
X1153617Y-1591970D01*
X1149502Y-1592630D01*
X1145489Y-1591614D01*
X1142238Y-1589024D01*
X1136142Y-1576781D01*
X1131062Y-1570380D01*
X1124915Y-1564995D01*
X1117854Y-1560931D01*
X1110132Y-1558239D01*
X1102055Y-1557070D01*
X1093876Y-1557477D01*
X1085951Y-1559407D01*
X1078534Y-1562811D01*
X1071880Y-1567535D01*
X1066241Y-1573428D01*
X1061821Y-1580337D01*
X1059434Y-1586280D01*
X1057148Y-1589735D01*
X1053642Y-1591970D01*
X1049528Y-1592630D01*
X1045514Y-1591614D01*
X1042212Y-1589024D01*
X1039876Y-1584045D01*
X1036116Y-1576781D01*
X1031087Y-1570380D01*
X1024890Y-1564995D01*
X1017828Y-1560931D01*
X1010107Y-1558239D01*
X1002030Y-1557070D01*
X993902Y-1557477D01*
X985926Y-1559407D01*
X978509Y-1562811D01*
X971854Y-1567535D01*
X966216Y-1573428D01*
X961847Y-1580337D01*
X959459Y-1586280D01*
X957122Y-1589735D01*
X953617Y-1591970D01*
X949502Y-1592630D01*
X945489Y-1591614D01*
X942238Y-1589024D01*
X936142Y-1576781D01*
X931062Y-1570380D01*
X924915Y-1564995D01*
X917854Y-1560931D01*
X910132Y-1558239D01*
X902055Y-1557070D01*
X893876Y-1557477D01*
X885952Y-1559407D01*
X878535Y-1562811D01*
X871880Y-1567535D01*
X866241Y-1573428D01*
X861821Y-1580337D01*
X858774Y-1587906D01*
X857250Y-1595932D01*
X857250Y-1604060D01*
X858774Y-1612087D01*
X861821Y-1619656D01*
X866241Y-1626565D01*
X871880Y-1632457D01*
X878535Y-1637182D01*
X885952Y-1640586D01*
X893876Y-1642516D01*
G37*
G36*
X-2197963Y-1042924D02*
G01*
X-2189886Y-1041755D01*
X-2182164Y-1039063D01*
X-2175103Y-1034999D01*
X-2168906Y-1029614D01*
X-2163876Y-1023213D01*
X-2160117Y-1015949D01*
X-2157831Y-1008126D01*
X-2157069Y-999998D01*
X-2157831Y-991869D01*
X-2160117Y-984046D01*
X-2163876Y-976782D01*
X-2168906Y-970381D01*
X-2175103Y-964996D01*
X-2182164Y-960932D01*
X-2189886Y-958240D01*
X-2197963Y-957071D01*
X-2206091Y-957478D01*
X-2214067Y-959408D01*
X-2221484Y-962812D01*
X-2228138Y-967536D01*
X-2233777Y-973429D01*
X-2238146Y-980338D01*
X-2241194Y-987907D01*
X-2242769Y-995934D01*
X-2242769Y-1004062D01*
X-2241194Y-1012088D01*
X-2238146Y-1019657D01*
X-2233777Y-1026566D01*
X-2228138Y-1032459D01*
X-2221484Y-1037183D01*
X-2214067Y-1040587D01*
X-2206091Y-1042517D01*
G37*
G36*
X-997966Y-1042924D02*
G01*
X-989888Y-1041755D01*
X-982167Y-1039063D01*
X-975106Y-1034999D01*
X-968908Y-1029614D01*
X-963879Y-1023213D01*
X-960119Y-1015949D01*
X-957834Y-1008126D01*
X-957071Y-999998D01*
X-957834Y-991869D01*
X-960119Y-984046D01*
X-963879Y-976782D01*
X-968908Y-970381D01*
X-975106Y-964996D01*
X-982167Y-960932D01*
X-989888Y-958240D01*
X-997966Y-957071D01*
X-1006094Y-957478D01*
X-1014069Y-959408D01*
X-1021486Y-962812D01*
X-1028141Y-967536D01*
X-1033780Y-973429D01*
X-1038148Y-980338D01*
X-1041196Y-987907D01*
X-1042771Y-995934D01*
X-1042771Y-1004062D01*
X-1041196Y-1012088D01*
X-1038148Y-1019657D01*
X-1033780Y-1026566D01*
X-1028141Y-1032459D01*
X-1021486Y-1037183D01*
X-1014069Y-1040587D01*
X-1006094Y-1042517D01*
G37*
G36*
X1802028Y-1042924D02*
G01*
X1810105Y-1041755D01*
X1817827Y-1039063D01*
X1824888Y-1034999D01*
X1831086Y-1029614D01*
X1836115Y-1023213D01*
X1839874Y-1015949D01*
X1842160Y-1008126D01*
X1842922Y-999998D01*
X1842160Y-991869D01*
X1839874Y-984046D01*
X1836115Y-976782D01*
X1831086Y-970381D01*
X1824888Y-964996D01*
X1817827Y-960932D01*
X1810105Y-958240D01*
X1802028Y-957071D01*
X1793900Y-957478D01*
X1785924Y-959408D01*
X1778507Y-962812D01*
X1771853Y-967536D01*
X1766214Y-973429D01*
X1761845Y-980338D01*
X1758797Y-987907D01*
X1757222Y-995934D01*
X1757222Y-1004062D01*
X1758797Y-1012088D01*
X1761845Y-1019657D01*
X1766214Y-1026566D01*
X1771853Y-1032459D01*
X1778507Y-1037183D01*
X1785924Y-1040587D01*
X1793900Y-1042517D01*
G37*
G36*
X2052015Y-1092911D02*
G01*
X2060092Y-1091742D01*
X2067814Y-1089101D01*
X2074875Y-1084986D01*
X2081072Y-1079652D01*
X2086102Y-1073251D01*
X2089861Y-1065987D01*
X2092147Y-1058164D01*
X2092909Y-1050036D01*
X2092147Y-1041857D01*
X2089861Y-1034034D01*
X2086102Y-1026769D01*
X2081072Y-1020368D01*
X2074875Y-1015034D01*
X2067814Y-1010919D01*
X2060092Y-1008278D01*
X2052015Y-1007110D01*
X2043887Y-1007516D01*
X2035911Y-1009446D01*
X2028494Y-1012799D01*
X2021839Y-1017574D01*
X2016201Y-1023467D01*
X2011832Y-1030325D01*
X2008784Y-1037894D01*
X2007209Y-1045921D01*
X2007209Y-1054100D01*
X2008784Y-1062126D01*
X2011832Y-1069695D01*
X2016201Y-1076553D01*
X2021839Y-1082446D01*
X2028494Y-1087221D01*
X2035911Y-1090574D01*
X2043887Y-1092504D01*
G37*
G36*
X4666488Y-1642110D02*
G01*
X4679696Y-1642110D01*
X4692853Y-1640332D01*
X4705654Y-1636826D01*
X4717846Y-1631645D01*
X4729226Y-1624888D01*
X4739640Y-1616659D01*
X4748834Y-1607159D01*
X4756708Y-1596491D01*
X4763109Y-1584858D01*
X4767834Y-1572514D01*
X4770932Y-1559610D01*
X4772253Y-1546402D01*
X4771796Y-1533194D01*
X4769612Y-1520088D01*
X4765700Y-1507439D01*
X4760112Y-1495399D01*
X4752949Y-1484223D01*
X4744415Y-1474114D01*
X4734560Y-1465224D01*
X4723638Y-1457756D01*
X4711801Y-1451762D01*
X4699304Y-1447393D01*
X4686300Y-1444752D01*
X4673092Y-1443888D01*
X4659884Y-1444752D01*
X4646879Y-1447393D01*
X4634382Y-1451762D01*
X4622546Y-1457756D01*
X4611624Y-1465224D01*
X4601768Y-1474114D01*
X4593234Y-1484223D01*
X4586071Y-1495399D01*
X4580483Y-1507439D01*
X4576572Y-1520088D01*
X4574387Y-1533194D01*
X4573930Y-1546402D01*
X4575251Y-1559610D01*
X4578350Y-1572514D01*
X4583074Y-1584858D01*
X4589475Y-1596491D01*
X4597349Y-1607159D01*
X4606544Y-1616659D01*
X4616958Y-1624888D01*
X4628337Y-1631645D01*
X4640529Y-1636826D01*
X4653330Y-1640332D01*
G37*
G36*
X4920488Y-1642110D02*
G01*
X4933696Y-1642110D01*
X4946853Y-1640332D01*
X4959654Y-1636826D01*
X4971846Y-1631645D01*
X4983226Y-1624888D01*
X4993640Y-1616659D01*
X5002834Y-1607159D01*
X5010708Y-1596491D01*
X5017109Y-1584858D01*
X5021834Y-1572514D01*
X5024932Y-1559610D01*
X5026253Y-1546402D01*
X5025796Y-1533194D01*
X5023612Y-1520088D01*
X5019700Y-1507439D01*
X5014112Y-1495399D01*
X5006949Y-1484223D01*
X4998415Y-1474114D01*
X4988560Y-1465224D01*
X4977638Y-1457756D01*
X4965801Y-1451762D01*
X4953304Y-1447393D01*
X4940300Y-1444752D01*
X4927092Y-1443888D01*
X4913884Y-1444752D01*
X4900879Y-1447393D01*
X4888382Y-1451762D01*
X4876546Y-1457756D01*
X4865624Y-1465224D01*
X4855768Y-1474114D01*
X4847234Y-1484223D01*
X4840071Y-1495399D01*
X4834483Y-1507439D01*
X4830572Y-1520088D01*
X4828387Y-1533194D01*
X4827930Y-1546402D01*
X4829251Y-1559610D01*
X4832350Y-1572514D01*
X4837074Y-1584858D01*
X4843475Y-1596491D01*
X4851349Y-1607159D01*
X4860544Y-1616659D01*
X4870958Y-1624888D01*
X4882337Y-1631645D01*
X4894529Y-1636826D01*
X4907330Y-1640332D01*
G37*
G36*
X1452067Y-1592935D02*
G01*
X1460144Y-1591767D01*
X1467866Y-1589074D01*
X1474927Y-1585010D01*
X1481074Y-1579626D01*
X1486154Y-1573225D01*
X1489862Y-1565960D01*
X1492199Y-1558137D01*
X1492961Y-1550009D01*
X1492199Y-1541881D01*
X1489862Y-1534058D01*
X1486154Y-1526794D01*
X1481074Y-1520393D01*
X1474927Y-1515008D01*
X1467866Y-1510944D01*
X1460144Y-1508252D01*
X1452067Y-1507083D01*
X1443888Y-1507490D01*
X1435963Y-1509420D01*
X1428546Y-1512824D01*
X1421892Y-1517548D01*
X1416253Y-1523441D01*
X1411833Y-1530350D01*
X1408785Y-1537919D01*
X1407261Y-1545945D01*
X1407261Y-1554073D01*
X1408785Y-1562100D01*
X1411833Y-1569669D01*
X1416253Y-1576578D01*
X1421892Y-1582470D01*
X1428546Y-1587195D01*
X1435963Y-1590598D01*
X1443888Y-1592529D01*
G37*
G36*
X-1297940Y-1592935D02*
G01*
X-1289862Y-1591767D01*
X-1282141Y-1589074D01*
X-1275080Y-1585010D01*
X-1268933Y-1579626D01*
X-1263853Y-1573225D01*
X-1260144Y-1565960D01*
X-1257808Y-1558137D01*
X-1257046Y-1550009D01*
X-1257808Y-1541881D01*
X-1260144Y-1534058D01*
X-1263853Y-1526794D01*
X-1268933Y-1520393D01*
X-1275080Y-1515008D01*
X-1282141Y-1510944D01*
X-1286002Y-1509623D01*
X-1289558Y-1507490D01*
X-1291996Y-1504086D01*
X-1292809Y-1500022D01*
X-1291996Y-1495958D01*
X-1289558Y-1492554D01*
X-1286002Y-1490421D01*
X-1282141Y-1489100D01*
X-1275080Y-1484985D01*
X-1268933Y-1479651D01*
X-1263853Y-1473250D01*
X-1260144Y-1465986D01*
X-1257808Y-1458163D01*
X-1257046Y-1450035D01*
X-1257808Y-1441856D01*
X-1260144Y-1434033D01*
X-1263853Y-1426768D01*
X-1268933Y-1420368D01*
X-1275080Y-1415034D01*
X-1282141Y-1410919D01*
X-1289862Y-1408277D01*
X-1297940Y-1407109D01*
X-1306118Y-1407515D01*
X-1314043Y-1409446D01*
X-1321460Y-1412798D01*
X-1328115Y-1417574D01*
X-1333754Y-1423466D01*
X-1338173Y-1430324D01*
X-1341221Y-1437894D01*
X-1342745Y-1445920D01*
X-1342745Y-1454099D01*
X-1341221Y-1462125D01*
X-1338173Y-1469694D01*
X-1333754Y-1476552D01*
X-1328115Y-1482445D01*
X-1321460Y-1487220D01*
X-1313688Y-1490776D01*
X-1310538Y-1493012D01*
X-1308455Y-1496212D01*
X-1307744Y-1500022D01*
X-1308455Y-1503781D01*
X-1310538Y-1507032D01*
X-1313688Y-1509268D01*
X-1321460Y-1512824D01*
X-1328115Y-1517548D01*
X-1333754Y-1523441D01*
X-1338173Y-1530350D01*
X-1341221Y-1537919D01*
X-1342745Y-1545945D01*
X-1342745Y-1554073D01*
X-1341221Y-1562100D01*
X-1338173Y-1569669D01*
X-1333754Y-1576578D01*
X-1328115Y-1582470D01*
X-1321460Y-1587195D01*
X-1314043Y-1590598D01*
X-1306118Y-1592529D01*
G37*
G36*
X-1947976Y-1092962D02*
G01*
X-1939899Y-1091793D01*
X-1932178Y-1089152D01*
X-1925116Y-1085037D01*
X-1918970Y-1079703D01*
X-1913889Y-1073302D01*
X-1910181Y-1066038D01*
X-1907844Y-1058214D01*
X-1907082Y-1050086D01*
X-1907844Y-1041908D01*
X-1910181Y-1034084D01*
X-1913889Y-1026820D01*
X-1918970Y-1020419D01*
X-1925116Y-1015085D01*
X-1932178Y-1010970D01*
X-1936089Y-1009650D01*
X-1939645Y-1007516D01*
X-1942084Y-1004112D01*
X-1942896Y-1000048D01*
X-1942084Y-995984D01*
X-1939645Y-992581D01*
X-1936089Y-990447D01*
X-1932127Y-989076D01*
X-1925066Y-985012D01*
X-1918919Y-979627D01*
X-1913839Y-973226D01*
X-1910130Y-965962D01*
X-1907793Y-958138D01*
X-1907032Y-950010D01*
X-1907793Y-941882D01*
X-1910130Y-934059D01*
X-1913839Y-926795D01*
X-1918919Y-920394D01*
X-1925066Y-915009D01*
X-1932127Y-910945D01*
X-1939848Y-908253D01*
X-1947925Y-907084D01*
X-1956104Y-907491D01*
X-1964029Y-909421D01*
X-1971446Y-912825D01*
X-1978101Y-917549D01*
X-1983739Y-923442D01*
X-1988159Y-930351D01*
X-1991207Y-937920D01*
X-1992731Y-945946D01*
X-1992731Y-954074D01*
X-1991207Y-962101D01*
X-1988159Y-969670D01*
X-1983739Y-976579D01*
X-1978101Y-982471D01*
X-1971446Y-987196D01*
X-1963623Y-990803D01*
X-1960473Y-993038D01*
X-1958441Y-996238D01*
X-1957679Y-1000048D01*
X-1958441Y-1003808D01*
X-1960473Y-1007059D01*
X-1963623Y-1009243D01*
X-1971497Y-1012850D01*
X-1978152Y-1017625D01*
X-1983790Y-1023518D01*
X-1988210Y-1030376D01*
X-1991258Y-1037945D01*
X-1992782Y-1045971D01*
X-1992782Y-1054150D01*
X-1991258Y-1062177D01*
X-1988210Y-1069746D01*
X-1983790Y-1076604D01*
X-1978152Y-1082497D01*
X-1971497Y-1087272D01*
X-1964080Y-1090625D01*
X-1956155Y-1092555D01*
G37*
G36*
X3052013Y-1092962D02*
G01*
X3060090Y-1091793D01*
X3067812Y-1089152D01*
X3074873Y-1085037D01*
X3081020Y-1079703D01*
X3086100Y-1073302D01*
X3089808Y-1066038D01*
X3092145Y-1058214D01*
X3092907Y-1050086D01*
X3092145Y-1041908D01*
X3089808Y-1034084D01*
X3086100Y-1026820D01*
X3081020Y-1020419D01*
X3074873Y-1015085D01*
X3067812Y-1010970D01*
X3060090Y-1008329D01*
X3052013Y-1007160D01*
X3043834Y-1007567D01*
X3035909Y-1009497D01*
X3028492Y-1012850D01*
X3021838Y-1017625D01*
X3016199Y-1023518D01*
X3011779Y-1030376D01*
X3008731Y-1037945D01*
X3007207Y-1045971D01*
X3007207Y-1054150D01*
X3008731Y-1062177D01*
X3011779Y-1069746D01*
X3016199Y-1076604D01*
X3021838Y-1082497D01*
X3028492Y-1087272D01*
X3035909Y-1090625D01*
X3043834Y-1092555D01*
G37*
G36*
X-747979Y-1092962D02*
G01*
X-739902Y-1091793D01*
X-732180Y-1089152D01*
X-725119Y-1085037D01*
X-718972Y-1079703D01*
X-713892Y-1073302D01*
X-710184Y-1066038D01*
X-707847Y-1058214D01*
X-707085Y-1050086D01*
X-707847Y-1041908D01*
X-710184Y-1034084D01*
X-713892Y-1026820D01*
X-718972Y-1020419D01*
X-725119Y-1015085D01*
X-732180Y-1010970D01*
X-739902Y-1008329D01*
X-747979Y-1007160D01*
X-756158Y-1007567D01*
X-764082Y-1009497D01*
X-771499Y-1012850D01*
X-778154Y-1017625D01*
X-783793Y-1023518D01*
X-788212Y-1030376D01*
X-791260Y-1037945D01*
X-792784Y-1045971D01*
X-792784Y-1054150D01*
X-791260Y-1062177D01*
X-788212Y-1069746D01*
X-783793Y-1076604D01*
X-778154Y-1082497D01*
X-771499Y-1087272D01*
X-764082Y-1090625D01*
X-756158Y-1092555D01*
G37*
G36*
X4920488Y-1134110D02*
G01*
X4933696Y-1134110D01*
X4946853Y-1132332D01*
X4959654Y-1128826D01*
X4971846Y-1123645D01*
X4983226Y-1116888D01*
X4993640Y-1108659D01*
X5002834Y-1099159D01*
X5010708Y-1088491D01*
X5017109Y-1076858D01*
X5021834Y-1064514D01*
X5024932Y-1051610D01*
X5026253Y-1038402D01*
X5025796Y-1025194D01*
X5023612Y-1012088D01*
X5019700Y-999439D01*
X5014112Y-987399D01*
X5006949Y-976223D01*
X4998415Y-966114D01*
X4988560Y-957224D01*
X4977638Y-949756D01*
X4965801Y-943762D01*
X4953304Y-939393D01*
X4940300Y-936752D01*
X4927092Y-935888D01*
X4913884Y-936752D01*
X4900879Y-939393D01*
X4888382Y-943762D01*
X4876546Y-949756D01*
X4865624Y-957224D01*
X4855768Y-966114D01*
X4847234Y-976223D01*
X4840071Y-987399D01*
X4834483Y-999439D01*
X4830572Y-1012088D01*
X4828387Y-1025194D01*
X4827930Y-1038402D01*
X4829251Y-1051610D01*
X4832350Y-1064514D01*
X4837074Y-1076858D01*
X4843475Y-1088491D01*
X4851349Y-1099159D01*
X4860544Y-1108659D01*
X4870958Y-1116888D01*
X4882337Y-1123645D01*
X4894529Y-1128826D01*
X4907330Y-1132332D01*
G37*
G36*
X-1897938Y-1542897D02*
G01*
X-1889861Y-1541729D01*
X-1882139Y-1539087D01*
X-1875078Y-1534972D01*
X-1868932Y-1529638D01*
X-1863852Y-1523238D01*
X-1860143Y-1515973D01*
X-1857806Y-1508150D01*
X-1857044Y-1500022D01*
X-1857806Y-1491843D01*
X-1860143Y-1484020D01*
X-1863852Y-1476756D01*
X-1868932Y-1470355D01*
X-1875078Y-1465021D01*
X-1882139Y-1460906D01*
X-1889861Y-1458264D01*
X-1897938Y-1457096D01*
X-1906117Y-1457502D01*
X-1914042Y-1459433D01*
X-1921459Y-1462786D01*
X-1928114Y-1467561D01*
X-1933752Y-1473454D01*
X-1938172Y-1480312D01*
X-1941220Y-1487881D01*
X-1942744Y-1495907D01*
X-1942744Y-1504086D01*
X-1941220Y-1512112D01*
X-1938172Y-1519682D01*
X-1933752Y-1526540D01*
X-1928114Y-1532432D01*
X-1921459Y-1537208D01*
X-1914042Y-1540560D01*
X-1906117Y-1542491D01*
G37*
G36*
X-2647950Y-1492910D02*
G01*
X-2639872Y-1491742D01*
X-2632151Y-1489100D01*
X-2625090Y-1484985D01*
X-2618892Y-1479651D01*
X-2613863Y-1473250D01*
X-2610104Y-1465986D01*
X-2607818Y-1458163D01*
X-2607056Y-1450035D01*
X-2607818Y-1441856D01*
X-2610104Y-1434033D01*
X-2613863Y-1426768D01*
X-2618892Y-1420368D01*
X-2625090Y-1415034D01*
X-2632151Y-1410919D01*
X-2639872Y-1408277D01*
X-2647950Y-1407109D01*
X-2656078Y-1407515D01*
X-2664053Y-1409446D01*
X-2671470Y-1412798D01*
X-2678125Y-1417574D01*
X-2683764Y-1423466D01*
X-2688132Y-1430324D01*
X-2691180Y-1437894D01*
X-2692755Y-1445920D01*
X-2692755Y-1454099D01*
X-2691180Y-1462125D01*
X-2688132Y-1469694D01*
X-2683764Y-1476552D01*
X-2678125Y-1482445D01*
X-2671470Y-1487220D01*
X-2664053Y-1490573D01*
X-2656078Y-1492504D01*
G37*
G36*
X-2197963Y-1492910D02*
G01*
X-2189886Y-1491742D01*
X-2182164Y-1489100D01*
X-2175103Y-1484985D01*
X-2168906Y-1479651D01*
X-2163876Y-1473250D01*
X-2160117Y-1465986D01*
X-2157831Y-1458163D01*
X-2157069Y-1450035D01*
X-2157831Y-1441856D01*
X-2160117Y-1434033D01*
X-2163876Y-1426768D01*
X-2168906Y-1420368D01*
X-2175103Y-1415034D01*
X-2182164Y-1410919D01*
X-2189886Y-1408277D01*
X-2197963Y-1407109D01*
X-2206091Y-1407515D01*
X-2214067Y-1409446D01*
X-2221484Y-1412798D01*
X-2228138Y-1417574D01*
X-2233777Y-1423466D01*
X-2238146Y-1430324D01*
X-2241194Y-1437894D01*
X-2242769Y-1445920D01*
X-2242769Y-1454099D01*
X-2241194Y-1462125D01*
X-2238146Y-1469694D01*
X-2233777Y-1476552D01*
X-2228138Y-1482445D01*
X-2221484Y-1487220D01*
X-2214067Y-1490573D01*
X-2206091Y-1492504D01*
G37*
G36*
X-997966Y-1492910D02*
G01*
X-989888Y-1491742D01*
X-982167Y-1489100D01*
X-975106Y-1484985D01*
X-968908Y-1479651D01*
X-963879Y-1473250D01*
X-960119Y-1465986D01*
X-957834Y-1458163D01*
X-957071Y-1450035D01*
X-957834Y-1441856D01*
X-960119Y-1434033D01*
X-963879Y-1426768D01*
X-968908Y-1420368D01*
X-975106Y-1415034D01*
X-982167Y-1410919D01*
X-989888Y-1408277D01*
X-997966Y-1407109D01*
X-1006094Y-1407515D01*
X-1014069Y-1409446D01*
X-1021486Y-1412798D01*
X-1028141Y-1417574D01*
X-1033780Y-1423466D01*
X-1038148Y-1430324D01*
X-1041196Y-1437894D01*
X-1042771Y-1445920D01*
X-1042771Y-1454099D01*
X-1041196Y-1462125D01*
X-1038148Y-1469694D01*
X-1033780Y-1476552D01*
X-1028141Y-1482445D01*
X-1021486Y-1487220D01*
X-1014069Y-1490573D01*
X-1006094Y-1492504D01*
G37*
G36*
X2777032Y-1492910D02*
G01*
X2785110Y-1491742D01*
X2792831Y-1489100D01*
X2799892Y-1484985D01*
X2806090Y-1479651D01*
X2811119Y-1473250D01*
X2814878Y-1465986D01*
X2817164Y-1458163D01*
X2817926Y-1450035D01*
X2817164Y-1441856D01*
X2814878Y-1434033D01*
X2811119Y-1426768D01*
X2806090Y-1420368D01*
X2799892Y-1415034D01*
X2792831Y-1410919D01*
X2785110Y-1408277D01*
X2777032Y-1407109D01*
X2768904Y-1407515D01*
X2760929Y-1409446D01*
X2753512Y-1412798D01*
X2746857Y-1417574D01*
X2741218Y-1423466D01*
X2736850Y-1430324D01*
X2733802Y-1437894D01*
X2732227Y-1445920D01*
X2732227Y-1454099D01*
X2733802Y-1462125D01*
X2736850Y-1469694D01*
X2741218Y-1476552D01*
X2746857Y-1482445D01*
X2753512Y-1487220D01*
X2760929Y-1490573D01*
X2768904Y-1492504D01*
G37*
G36*
X1802028Y-1442923D02*
G01*
X1810105Y-1441754D01*
X1817827Y-1439062D01*
X1824888Y-1434998D01*
X1831086Y-1429613D01*
X1836115Y-1423212D01*
X1839874Y-1415948D01*
X1842160Y-1408125D01*
X1842922Y-1399997D01*
X1842160Y-1391869D01*
X1839874Y-1384046D01*
X1836115Y-1376781D01*
X1831086Y-1370380D01*
X1824888Y-1364996D01*
X1817827Y-1360932D01*
X1810105Y-1358239D01*
X1802028Y-1357071D01*
X1793900Y-1357477D01*
X1785924Y-1359408D01*
X1778507Y-1362811D01*
X1771853Y-1367536D01*
X1766214Y-1373428D01*
X1761845Y-1380337D01*
X1758797Y-1387906D01*
X1757222Y-1395933D01*
X1757222Y-1404061D01*
X1758797Y-1412087D01*
X1761845Y-1419656D01*
X1766214Y-1426565D01*
X1771853Y-1432458D01*
X1778507Y-1437182D01*
X1785924Y-1440586D01*
X1793900Y-1442516D01*
G37*
G36*
X-747979Y-1392986D02*
G01*
X-739902Y-1391818D01*
X-732180Y-1389126D01*
X-725119Y-1385062D01*
X-718972Y-1379677D01*
X-713892Y-1373276D01*
X-710184Y-1366012D01*
X-707847Y-1358188D01*
X-707085Y-1350060D01*
X-707847Y-1341932D01*
X-710184Y-1334109D01*
X-713892Y-1326845D01*
X-718972Y-1320444D01*
X-725119Y-1315059D01*
X-732180Y-1310995D01*
X-739902Y-1308303D01*
X-747979Y-1307134D01*
X-756158Y-1307541D01*
X-764082Y-1309471D01*
X-771499Y-1312875D01*
X-778154Y-1317599D01*
X-783793Y-1323492D01*
X-788212Y-1330401D01*
X-791260Y-1337970D01*
X-792784Y-1345996D01*
X-792784Y-1354124D01*
X-791260Y-1362151D01*
X-788212Y-1369720D01*
X-783793Y-1376629D01*
X-778154Y-1382522D01*
X-771499Y-1387246D01*
X-764082Y-1390650D01*
X-756158Y-1392580D01*
G37*
G36*
X-1947976Y-1392986D02*
G01*
X-1939899Y-1391818D01*
X-1932178Y-1389126D01*
X-1925116Y-1385062D01*
X-1918970Y-1379677D01*
X-1913889Y-1373276D01*
X-1910181Y-1366012D01*
X-1907844Y-1358188D01*
X-1907082Y-1350060D01*
X-1907844Y-1341932D01*
X-1910181Y-1334109D01*
X-1913889Y-1326845D01*
X-1918970Y-1320444D01*
X-1925116Y-1315059D01*
X-1932178Y-1310995D01*
X-1939899Y-1308303D01*
X-1947976Y-1307134D01*
X-1956155Y-1307541D01*
X-1964080Y-1309471D01*
X-1971497Y-1312875D01*
X-1978152Y-1317599D01*
X-1983790Y-1323492D01*
X-1988210Y-1330401D01*
X-1991258Y-1337970D01*
X-1992782Y-1345996D01*
X-1992782Y-1354124D01*
X-1991258Y-1362151D01*
X-1988210Y-1369720D01*
X-1983790Y-1376629D01*
X-1978152Y-1382522D01*
X-1971497Y-1387246D01*
X-1964080Y-1390650D01*
X-1956155Y-1392580D01*
G37*
G36*
X3052013Y-1392986D02*
G01*
X3060090Y-1391818D01*
X3067812Y-1389126D01*
X3074873Y-1385062D01*
X3081020Y-1379677D01*
X3086100Y-1373276D01*
X3089808Y-1366012D01*
X3092145Y-1358188D01*
X3092907Y-1350060D01*
X3092145Y-1341932D01*
X3089808Y-1334109D01*
X3086100Y-1326845D01*
X3081020Y-1320444D01*
X3074873Y-1315059D01*
X3067812Y-1310995D01*
X3060090Y-1308303D01*
X3052013Y-1307134D01*
X3043834Y-1307541D01*
X3035909Y-1309471D01*
X3028492Y-1312875D01*
X3021838Y-1317599D01*
X3016199Y-1323492D01*
X3011779Y-1330401D01*
X3008731Y-1337970D01*
X3007207Y-1345996D01*
X3007207Y-1354124D01*
X3008731Y-1362151D01*
X3011779Y-1369720D01*
X3016199Y-1376629D01*
X3021838Y-1382522D01*
X3028492Y-1387246D01*
X3035909Y-1390650D01*
X3043834Y-1392580D01*
G37*
G36*
X2052015Y-1392936D02*
G01*
X2060092Y-1391767D01*
X2067814Y-1389075D01*
X2074875Y-1385011D01*
X2081072Y-1379626D01*
X2086102Y-1373225D01*
X2089861Y-1365961D01*
X2092147Y-1358138D01*
X2092909Y-1350010D01*
X2092147Y-1341882D01*
X2089861Y-1334058D01*
X2086102Y-1326794D01*
X2081072Y-1320393D01*
X2074875Y-1315008D01*
X2067814Y-1310944D01*
X2060092Y-1308252D01*
X2052015Y-1307084D01*
X2043887Y-1307490D01*
X2035911Y-1309420D01*
X2028494Y-1312824D01*
X2021839Y-1317548D01*
X2016201Y-1323441D01*
X2011832Y-1330350D01*
X2008784Y-1337919D01*
X2007209Y-1345946D01*
X2007209Y-1354074D01*
X2008784Y-1362100D01*
X2011832Y-1369669D01*
X2016201Y-1376578D01*
X2021839Y-1382471D01*
X2028494Y-1387195D01*
X2035911Y-1390599D01*
X2043887Y-1392529D01*
G37*
G36*
X4920488Y-1388110D02*
G01*
X4933696Y-1388110D01*
X4946853Y-1386332D01*
X4959654Y-1382826D01*
X4971846Y-1377645D01*
X4983226Y-1370888D01*
X4993640Y-1362659D01*
X5002834Y-1353159D01*
X5010708Y-1342491D01*
X5017109Y-1330858D01*
X5021834Y-1318514D01*
X5024932Y-1305610D01*
X5026253Y-1292402D01*
X5025796Y-1279194D01*
X5023612Y-1266088D01*
X5019700Y-1253439D01*
X5014112Y-1241399D01*
X5006949Y-1230223D01*
X4998415Y-1220114D01*
X4988560Y-1211224D01*
X4977638Y-1203756D01*
X4965801Y-1197762D01*
X4953304Y-1193393D01*
X4940300Y-1190752D01*
X4927092Y-1189888D01*
X4913884Y-1190752D01*
X4900879Y-1193393D01*
X4888382Y-1197762D01*
X4876546Y-1203756D01*
X4865624Y-1211224D01*
X4855768Y-1220114D01*
X4847234Y-1230223D01*
X4840071Y-1241399D01*
X4834483Y-1253439D01*
X4830572Y-1266088D01*
X4828387Y-1279194D01*
X4827930Y-1292402D01*
X4829251Y-1305610D01*
X4832350Y-1318514D01*
X4837074Y-1330858D01*
X4843475Y-1342491D01*
X4851349Y-1353159D01*
X4860544Y-1362659D01*
X4870958Y-1370888D01*
X4882337Y-1377645D01*
X4894529Y-1382826D01*
X4907330Y-1386332D01*
G37*
G36*
X4666488Y-1388110D02*
G01*
X4679696Y-1388110D01*
X4692853Y-1386332D01*
X4705654Y-1382826D01*
X4717846Y-1377645D01*
X4729226Y-1370888D01*
X4739640Y-1362659D01*
X4748834Y-1353159D01*
X4756708Y-1342491D01*
X4763109Y-1330858D01*
X4767834Y-1318514D01*
X4770932Y-1305610D01*
X4772253Y-1292402D01*
X4771796Y-1279194D01*
X4769612Y-1266088D01*
X4765700Y-1253439D01*
X4760112Y-1241399D01*
X4752949Y-1230223D01*
X4744415Y-1220114D01*
X4734560Y-1211224D01*
X4723638Y-1203756D01*
X4711801Y-1197762D01*
X4699304Y-1193393D01*
X4686300Y-1190752D01*
X4673092Y-1189888D01*
X4659884Y-1190752D01*
X4646879Y-1193393D01*
X4634382Y-1197762D01*
X4622546Y-1203756D01*
X4611624Y-1211224D01*
X4601768Y-1220114D01*
X4593234Y-1230223D01*
X4586071Y-1241399D01*
X4580483Y-1253439D01*
X4576572Y-1266088D01*
X4574387Y-1279194D01*
X4573930Y-1292402D01*
X4575251Y-1305610D01*
X4578350Y-1318514D01*
X4583074Y-1330858D01*
X4589475Y-1342491D01*
X4597349Y-1353159D01*
X4606544Y-1362659D01*
X4616958Y-1370888D01*
X4628337Y-1377645D01*
X4640529Y-1382826D01*
X4653330Y-1386332D01*
G37*
G36*
X452018Y-1192987D02*
G01*
X460095Y-1191818D01*
X467817Y-1189126D01*
X474878Y-1185062D01*
X481025Y-1179677D01*
X486105Y-1173276D01*
X489813Y-1166012D01*
X492150Y-1158189D01*
X492912Y-1150061D01*
X492150Y-1141933D01*
X489813Y-1134110D01*
X486105Y-1126845D01*
X481025Y-1120444D01*
X474878Y-1115060D01*
X467817Y-1110996D01*
X460095Y-1108303D01*
X452018Y-1107135D01*
X443839Y-1107541D01*
X435914Y-1109472D01*
X428498Y-1112875D01*
X421843Y-1117600D01*
X416204Y-1123492D01*
X411784Y-1130401D01*
X408736Y-1137970D01*
X407212Y-1145997D01*
X407212Y-1154125D01*
X408736Y-1162151D01*
X411784Y-1169720D01*
X416204Y-1176629D01*
X421843Y-1182522D01*
X428498Y-1187246D01*
X435914Y-1190650D01*
X443839Y-1192580D01*
G37*
G36*
X1144422Y-1192936D02*
G01*
X1152499Y-1191768D01*
X1160221Y-1189075D01*
X1167282Y-1185011D01*
X1173480Y-1179626D01*
X1178509Y-1173226D01*
X1182268Y-1165961D01*
X1184554Y-1158138D01*
X1185316Y-1150010D01*
X1184554Y-1141882D01*
X1182268Y-1134059D01*
X1178509Y-1126794D01*
X1173480Y-1120394D01*
X1167282Y-1115009D01*
X1160221Y-1110945D01*
X1152499Y-1108252D01*
X1144422Y-1107084D01*
X1136294Y-1107490D01*
X1128318Y-1109421D01*
X1120902Y-1112824D01*
X1114247Y-1117549D01*
X1108608Y-1123442D01*
X1104239Y-1130350D01*
X1101191Y-1137920D01*
X1099616Y-1145946D01*
X1099616Y-1154074D01*
X1101191Y-1162100D01*
X1104239Y-1169670D01*
X1108608Y-1176578D01*
X1114247Y-1182471D01*
X1120902Y-1187196D01*
X1128318Y-1190599D01*
X1136294Y-1192530D01*
G37*
G36*
X4666488Y-1134110D02*
G01*
X4679696Y-1134110D01*
X4692853Y-1132332D01*
X4705654Y-1128826D01*
X4717846Y-1123645D01*
X4729226Y-1116888D01*
X4739640Y-1108659D01*
X4748834Y-1099159D01*
X4756708Y-1088491D01*
X4763109Y-1076858D01*
X4767834Y-1064514D01*
X4770932Y-1051610D01*
X4772253Y-1038402D01*
X4771796Y-1025194D01*
X4769612Y-1012088D01*
X4765700Y-999439D01*
X4760112Y-987399D01*
X4752949Y-976223D01*
X4744415Y-966114D01*
X4734560Y-957224D01*
X4723638Y-949756D01*
X4711801Y-943762D01*
X4699304Y-939393D01*
X4686300Y-936752D01*
X4673092Y-935888D01*
X4659884Y-936752D01*
X4646879Y-939393D01*
X4634382Y-943762D01*
X4622546Y-949756D01*
X4611624Y-957224D01*
X4601768Y-966114D01*
X4593234Y-976223D01*
X4586071Y-987399D01*
X4580483Y-999439D01*
X4576572Y-1012088D01*
X4574387Y-1025194D01*
X4573930Y-1038402D01*
X4575251Y-1051610D01*
X4578350Y-1064514D01*
X4583074Y-1076858D01*
X4589475Y-1088491D01*
X4597349Y-1099159D01*
X4606544Y-1108659D01*
X4616958Y-1116888D01*
X4628337Y-1123645D01*
X4640529Y-1128826D01*
X4653330Y-1132332D01*
G37*
G36*
X-1097940Y-1742897D02*
G01*
X-1089863Y-1741728D01*
X-1082141Y-1739087D01*
X-1075080Y-1734972D01*
X-1068933Y-1729638D01*
X-1063853Y-1723237D01*
X-1057757Y-1710994D01*
X-1054506Y-1708404D01*
X-1050493Y-1707337D01*
X-1046378Y-1707997D01*
X-1042873Y-1710283D01*
X-1040536Y-1713738D01*
X-1038148Y-1719681D01*
X-1033780Y-1726539D01*
X-1028141Y-1732432D01*
X-1021486Y-1737207D01*
X-1014069Y-1740560D01*
X-1006094Y-1742490D01*
X-997966Y-1742897D01*
X-989888Y-1741728D01*
X-982167Y-1739087D01*
X-975106Y-1734972D01*
X-968908Y-1729638D01*
X-963879Y-1723237D01*
X-960119Y-1715973D01*
X-957783Y-1710994D01*
X-954481Y-1708404D01*
X-950468Y-1707337D01*
X-946353Y-1707997D01*
X-942848Y-1710283D01*
X-940562Y-1713738D01*
X-938174Y-1719681D01*
X-933754Y-1726539D01*
X-928116Y-1732432D01*
X-921461Y-1737207D01*
X-914044Y-1740560D01*
X-906119Y-1742490D01*
X-897940Y-1742897D01*
X-889863Y-1741728D01*
X-882142Y-1739087D01*
X-875080Y-1734972D01*
X-868934Y-1729638D01*
X-863853Y-1723237D01*
X-857758Y-1710994D01*
X-854506Y-1708404D01*
X-850493Y-1707337D01*
X-846378Y-1707997D01*
X-842873Y-1710283D01*
X-840536Y-1713738D01*
X-838149Y-1719681D01*
X-833780Y-1726539D01*
X-828141Y-1732432D01*
X-821486Y-1737207D01*
X-814069Y-1740560D01*
X-806094Y-1742490D01*
X-797966Y-1742897D01*
X-789889Y-1741728D01*
X-782167Y-1739087D01*
X-775106Y-1734972D01*
X-768908Y-1729638D01*
X-763879Y-1723237D01*
X-760120Y-1715973D01*
X-757834Y-1708150D01*
X-757072Y-1700022D01*
X-757834Y-1691843D01*
X-760120Y-1684020D01*
X-763879Y-1676755D01*
X-768908Y-1670354D01*
X-775106Y-1665020D01*
X-782167Y-1660906D01*
X-789889Y-1658264D01*
X-797966Y-1657096D01*
X-806094Y-1657502D01*
X-814069Y-1659432D01*
X-821486Y-1662785D01*
X-828141Y-1667560D01*
X-833780Y-1673453D01*
X-838149Y-1680311D01*
X-840536Y-1686255D01*
X-842873Y-1689709D01*
X-846378Y-1691995D01*
X-850493Y-1692656D01*
X-854506Y-1691589D01*
X-857758Y-1688998D01*
X-863853Y-1676755D01*
X-868934Y-1670354D01*
X-875080Y-1665020D01*
X-882142Y-1660906D01*
X-889863Y-1658264D01*
X-897940Y-1657096D01*
X-906119Y-1657502D01*
X-914044Y-1659432D01*
X-921461Y-1662785D01*
X-928116Y-1667560D01*
X-933754Y-1673453D01*
X-938174Y-1680311D01*
X-940562Y-1686255D01*
X-942848Y-1689709D01*
X-946353Y-1691995D01*
X-950468Y-1692656D01*
X-954481Y-1691589D01*
X-957783Y-1688998D01*
X-960119Y-1684020D01*
X-963879Y-1676755D01*
X-968908Y-1670354D01*
X-975106Y-1665020D01*
X-982167Y-1660906D01*
X-989888Y-1658264D01*
X-997966Y-1657096D01*
X-1006094Y-1657502D01*
X-1014069Y-1659432D01*
X-1021486Y-1662785D01*
X-1028141Y-1667560D01*
X-1033780Y-1673453D01*
X-1038148Y-1680311D01*
X-1040536Y-1686255D01*
X-1042873Y-1689709D01*
X-1046378Y-1691995D01*
X-1050493Y-1692656D01*
X-1054506Y-1691589D01*
X-1057757Y-1688998D01*
X-1063853Y-1676755D01*
X-1068933Y-1670354D01*
X-1075080Y-1665020D01*
X-1082141Y-1660906D01*
X-1086002Y-1659585D01*
X-1089558Y-1657451D01*
X-1091996Y-1654048D01*
X-1092809Y-1649984D01*
X-1091996Y-1645920D01*
X-1089558Y-1642516D01*
X-1086002Y-1640382D01*
X-1082141Y-1639062D01*
X-1075080Y-1634998D01*
X-1068933Y-1629613D01*
X-1063853Y-1623212D01*
X-1060145Y-1615948D01*
X-1057808Y-1608124D01*
X-1057046Y-1599996D01*
X-1057808Y-1591868D01*
X-1060145Y-1584045D01*
X-1063853Y-1576781D01*
X-1068933Y-1570380D01*
X-1075080Y-1564995D01*
X-1082141Y-1560931D01*
X-1089863Y-1558239D01*
X-1097940Y-1557070D01*
X-1106119Y-1557477D01*
X-1114044Y-1559407D01*
X-1121460Y-1562811D01*
X-1128115Y-1567535D01*
X-1133754Y-1573428D01*
X-1138174Y-1580337D01*
X-1140561Y-1586280D01*
X-1142847Y-1589735D01*
X-1146352Y-1591970D01*
X-1150467Y-1592630D01*
X-1154480Y-1591614D01*
X-1157782Y-1589024D01*
X-1160119Y-1584045D01*
X-1163878Y-1576781D01*
X-1168908Y-1570380D01*
X-1175105Y-1564995D01*
X-1182166Y-1560931D01*
X-1189888Y-1558239D01*
X-1197965Y-1557070D01*
X-1206093Y-1557477D01*
X-1214069Y-1559407D01*
X-1221486Y-1562811D01*
X-1228140Y-1567535D01*
X-1233779Y-1573428D01*
X-1238148Y-1580337D01*
X-1241196Y-1587906D01*
X-1242771Y-1595932D01*
X-1242771Y-1604060D01*
X-1241196Y-1612087D01*
X-1238148Y-1619656D01*
X-1233779Y-1626565D01*
X-1228140Y-1632457D01*
X-1221486Y-1637182D01*
X-1214069Y-1640586D01*
X-1206093Y-1642516D01*
X-1197965Y-1642922D01*
X-1189888Y-1641754D01*
X-1182166Y-1639062D01*
X-1175105Y-1634998D01*
X-1168908Y-1629613D01*
X-1163878Y-1623212D01*
X-1160119Y-1615948D01*
X-1157782Y-1610969D01*
X-1154480Y-1608378D01*
X-1150467Y-1607362D01*
X-1146352Y-1608023D01*
X-1142847Y-1610258D01*
X-1140561Y-1613712D01*
X-1138174Y-1619656D01*
X-1133754Y-1626565D01*
X-1128115Y-1632457D01*
X-1121460Y-1637182D01*
X-1113688Y-1640738D01*
X-1110538Y-1642973D01*
X-1108456Y-1646224D01*
X-1107744Y-1649984D01*
X-1108456Y-1653793D01*
X-1110538Y-1656994D01*
X-1113688Y-1659229D01*
X-1121460Y-1662785D01*
X-1128115Y-1667560D01*
X-1133754Y-1673453D01*
X-1138174Y-1680311D01*
X-1141222Y-1687880D01*
X-1142746Y-1695907D01*
X-1142746Y-1704086D01*
X-1141222Y-1712112D01*
X-1138174Y-1719681D01*
X-1133754Y-1726539D01*
X-1128115Y-1732432D01*
X-1121460Y-1737207D01*
X-1114044Y-1740560D01*
X-1106119Y-1742490D01*
G37*

%LPD*%
D10*
G01*
X-3831996Y-4791506D03*
G01*
X-2967989Y-4791506D03*
D11*
G01*
X-2967989Y-4373498D03*
G01*
X-3831996Y-4373498D03*
D12*
G01*
X3573018Y-4599990D03*
D13*
G01*
X3827018Y-4599990D03*
D14*
G01*
X4927091Y-2813100D03*
D15*
G01*
X4673091Y-2813100D03*
G01*
X4927091Y-2559100D03*
G01*
X4673091Y-2559100D03*
G01*
X4927091Y-2305100D03*
G01*
X4673091Y-2305100D03*
G01*
X4927091Y-2051100D03*
G01*
X4673091Y-2051100D03*
G01*
X4927091Y-1797100D03*
G01*
X4673091Y-1797100D03*
G01*
X4927091Y-1543100D03*
G01*
X4673091Y-1543100D03*
G01*
X4927091Y-1289100D03*
G01*
X4673091Y-1289100D03*
G01*
X4927091Y-1035100D03*
G01*
X4673091Y-1035100D03*
G01*
X4927091Y-781100D03*
G01*
X4673091Y-781100D03*
G01*
X4927091Y-527100D03*
G01*
X4673091Y-527100D03*
G01*
X4927091Y-273100D03*
G01*
X4673091Y-273100D03*
G01*
X4927091Y-19100D03*
G01*
X4673091Y-19100D03*
G01*
X4927091Y234899D03*
G01*
X4673091Y234899D03*
G01*
X4927091Y488899D03*
G01*
X4673091Y488899D03*
G01*
X4927091Y742899D03*
G01*
X4673091Y742899D03*
G01*
X4927091Y996899D03*
G01*
X4673091Y996899D03*
G01*
X4927091Y1250899D03*
G01*
X4673091Y1250899D03*
G01*
X4927091Y1504899D03*
G01*
X4673091Y1504899D03*
G01*
X4927091Y1758899D03*
G01*
X4673091Y1758899D03*
G01*
X4927091Y2012899D03*
G01*
X4673091Y2012899D03*
G01*
X3800093Y2934919D03*
G01*
X3800093Y2680919D03*
G01*
X3800093Y2426919D03*
G01*
X3800093Y2172919D03*
G01*
X3800093Y1918919D03*
D14*
G01*
X3800093Y1664919D03*
D13*
G01*
X818895Y-4400092D03*
G01*
X1072895Y-4400092D03*
G01*
X1326895Y-4400092D03*
G01*
X1580895Y-4400092D03*
D16*
G01*
X-3999992Y-3599992D03*
G01*
X4850002Y-3599992D03*
G01*
X4799990Y2799994D03*
G01*
X-3999992Y2799994D03*
D17*
G01*
X3199993Y1999995D03*
G01*
X-3199993Y1999995D03*
D18*
G01*
X1142390Y-1150010D03*
G01*
X2599994Y-3450005D03*
G01*
X2599994Y-3199993D03*
G01*
X2199995Y-3199993D03*
G01*
X2199995Y-3599992D03*
G01*
X1199997Y-3599992D03*
G01*
X799998Y-3599992D03*
G01*
X799998Y-2999994D03*
G01*
X999997Y-2999994D03*
G01*
X599998Y1599996D03*
G01*
X-399999Y1599996D03*
G01*
X-399999Y1799996D03*
G01*
X2199893Y1400098D03*
G01*
X3149904Y1300098D03*
G01*
X3149904Y1550085D03*
G01*
X2199893Y1800097D03*
G01*
X999997Y2499995D03*
G01*
X2199995Y2499995D03*
G01*
X-2724988Y-3599992D03*
G01*
X-3199993Y-3599992D03*
G01*
X-2899994Y-3950004D03*
G01*
X-3799992Y-4199991D03*
G01*
X-3799992Y-3999992D03*
G01*
X-1799996Y-4599990D03*
G01*
X-1799996Y-4399991D03*
G01*
X-1399997Y-3599992D03*
G01*
X-2249982Y-2999994D03*
G01*
X-899998Y-3099993D03*
G01*
X-199999Y-3050006D03*
G01*
X-349986Y-3050006D03*
G01*
X4199991Y-2799994D03*
G01*
X4199991Y-2599994D03*
G01*
X2750007Y-2950006D03*
G01*
X2850006Y-2950006D03*
G01*
X2949981Y-2950006D03*
G01*
X2949981Y-1850009D03*
G01*
X3099993Y-2599994D03*
G01*
X2850006Y-2199995D03*
G01*
X2949981Y-2199995D03*
G01*
X2999993Y-2599994D03*
G01*
X2199995Y-2199995D03*
G01*
X2199995Y-2599994D03*
G01*
X1199997Y-2599994D03*
G01*
X-649986Y-2599994D03*
G01*
X-1799996Y-2599994D03*
G01*
X-2949981Y-2599994D03*
G01*
X-3049981Y-2150008D03*
G01*
X-2299995Y-2150008D03*
G01*
X-1299997Y-2150008D03*
G01*
X-799998Y-2150008D03*
G01*
X399999Y-2599994D03*
G01*
X399999Y-2099995D03*
G01*
X2299995Y-1299997D03*
G01*
X1399997Y-999997D03*
G01*
X-2249982Y-3299993D03*
G01*
X-2024964Y-2999994D03*
G01*
X-1774977Y-2999994D03*
G01*
X-1399997Y-3774973D03*
G01*
X3599992Y-3050006D03*
G01*
X2949981Y-3499993D03*
G01*
X2949981Y-3399993D03*
G01*
X2949981Y-3250006D03*
G01*
X2949981Y-3150006D03*
G01*
X3299993Y-2999994D03*
G01*
X3199993Y-2999994D03*
G01*
X3099993Y-2999994D03*
G01*
X4250004Y-4350004D03*
G01*
X3350006Y-1799996D03*
G01*
X3250006Y-1799996D03*
G01*
X3350006Y-2150008D03*
G01*
X3250006Y-2150008D03*
G01*
X3150006Y-2150008D03*
G01*
X399999Y-4699990D03*
G01*
X199999Y-4174997D03*
G01*
X150012Y-4024985D03*
G01*
X50012Y-4099991D03*
G01*
X-499998Y-4199991D03*
G01*
X-949985Y-4350004D03*
G01*
X-1449984Y-4850003D03*
G01*
X-1849983Y-4850003D03*
G01*
X-1949983Y-950010D03*
G01*
X-1399997Y-3499993D03*
G01*
X-2599994Y-4099991D03*
G01*
X-2499995Y-4799990D03*
G01*
X-2399995Y-4799990D03*
G01*
X-2499995Y-4199991D03*
G01*
X-3649979Y-4150004D03*
G01*
X-849985Y-3499993D03*
G01*
X-1024991Y-3450005D03*
G01*
X-1599996Y-4099991D03*
G01*
X3049981Y-4650003D03*
G01*
X1599996Y-3599992D03*
G01*
X1750009Y-3350005D03*
G01*
X1750009Y-3849979D03*
G01*
X-1024991Y-3699992D03*
G01*
X-849985Y-3699992D03*
G01*
X1699996Y-699998D03*
G01*
X2024989Y-4650003D03*
G01*
X1950008Y-4499990D03*
G01*
X2099995Y-4350004D03*
G01*
X3799992Y-3150006D03*
G01*
X3499993Y-3250006D03*
G01*
X-2549982Y-3100019D03*
G01*
X-1649984Y-3056712D03*
G01*
X2999892Y1375105D03*
G01*
X299999Y1299997D03*
G01*
X399999Y1399997D03*
G01*
X899998Y2499995D03*
G01*
X2099995Y2499995D03*
G01*
X199999Y1849983D03*
G01*
X50012Y1849983D03*
G01*
X-149987Y749985D03*
G01*
X-299999Y749985D03*
G01*
X-1299997Y-1450009D03*
G01*
X-1299997Y-1550009D03*
G01*
X-1199997Y-1599996D03*
G01*
X-1099997Y-1599996D03*
G01*
X-2149982Y-2599994D03*
G01*
X-2237511Y-2599994D03*
G01*
X-2349982Y-2599994D03*
G01*
X-2449982Y-2599994D03*
G01*
X-3299993Y-3899992D03*
G01*
X-3499993Y-3899992D03*
G01*
X-1949983Y-3750005D03*
G01*
X-1999995Y-3799992D03*
G01*
X-3399993Y-4150004D03*
G01*
X-3324987Y-4450003D03*
G01*
X-1749983Y-3799992D03*
G01*
X-1499996Y-4399991D03*
G01*
X-1899996Y-4399991D03*
G01*
X-1849983Y-3799992D03*
G01*
X-2149982Y-3850004D03*
G01*
X-2549982Y-3499993D03*
G01*
X-2549982Y-3893286D03*
G01*
X449961Y-1150061D03*
G01*
X350012Y-699998D03*
G01*
X-1950034Y-1350060D03*
G01*
X-1950034Y-1050061D03*
G01*
X-750036Y-1350060D03*
G01*
X-750036Y-1050061D03*
G01*
X3049955Y-1050061D03*
G01*
X3049955Y-1350060D03*
G01*
X2049983Y-1050010D03*
G01*
X2049983Y-1350010D03*
G01*
X1799996Y-1399997D03*
G01*
X1799996Y-999997D03*
G01*
X1799996Y-1199997D03*
G01*
X-2199995Y-1199997D03*
G01*
X-2199995Y-999997D03*
G01*
X-2199995Y-1450009D03*
G01*
X-999997Y-1199997D03*
G01*
X-999997Y-999997D03*
G01*
X-999997Y-1450009D03*
G01*
X2799994Y-1199997D03*
G01*
X2799994Y-999997D03*
G01*
X2775000Y-1450009D03*
G01*
X2790418Y1190599D03*
G01*
X-549986Y-399999D03*
G01*
X-449986Y-399999D03*
G01*
X-349986Y-399999D03*
G01*
X-249986Y-399999D03*
G01*
X1550009Y1649984D03*
G01*
X1399997Y1649984D03*
G01*
X1750009Y2149982D03*
G01*
X1750009Y2299995D03*
G01*
X875004Y-375005D03*
G01*
X975004Y-375005D03*
G01*
X1050010Y-450011D03*
G01*
X1124991Y-524992D03*
G01*
X4250004Y699998D03*
G01*
X4350004Y949985D03*
G01*
X4199991Y1649984D03*
G01*
X4199991Y1749983D03*
G01*
X-1349984Y-799998D03*
G01*
X-1049985Y-799998D03*
G01*
X-1149985Y-799998D03*
G01*
X-1249984Y-799998D03*
G01*
X-1149985Y-3150006D03*
G01*
X-1249984Y-3050006D03*
G01*
X-1349984Y-3050006D03*
G01*
X-1449984Y-3050006D03*
G01*
X-2199995Y-3450005D03*
G01*
X-2099995Y-3350005D03*
G01*
X2599893Y1500098D03*
G01*
X2799892Y1600098D03*
G01*
X2850006Y-850011D03*
G01*
X2924987Y-924991D03*
G01*
X2649905Y600100D03*
G01*
X2349906Y800100D03*
G01*
X2624988Y-699998D03*
G01*
X2699994Y-750011D03*
G01*
X1599996Y-699998D03*
G01*
X1799996Y-699998D03*
G01*
X1899996Y-699998D03*
G01*
X1899996Y-799998D03*
G01*
X1999995Y-799998D03*
G01*
X2149983Y-850011D03*
G01*
X2099995Y-950010D03*
G01*
X-3099993Y-2499995D03*
G01*
X-2649981Y-1450009D03*
G01*
X-1949983Y-2499995D03*
G01*
X-1899996Y-1499996D03*
G01*
X-1099997Y-1699996D03*
G01*
X-999997Y-1699996D03*
G01*
X-899998Y-1699996D03*
G01*
X-799998Y-1699996D03*
G01*
X-899998Y-2450007D03*
G01*
X-999997Y-2450007D03*
G01*
X-1099997Y-2450007D03*
G01*
X-1199997Y-2450007D03*
G01*
X1450009Y-1550009D03*
G01*
X-1299997Y-2524988D03*
G01*
X1850009Y-2299995D03*
G01*
X1750009Y-2199995D03*
G01*
X1599996Y-2450007D03*
G01*
X1499996Y-2450007D03*
G01*
X1399997Y-2450007D03*
G01*
X1299997Y-2450007D03*
G01*
X899998Y-1599996D03*
G01*
X999997Y-1599996D03*
G01*
X1099997Y-1599996D03*
G01*
X1199997Y-1599996D03*
G01*
X1850009Y-1750009D03*
G01*
X1750009Y-1750009D03*
G01*
X2350008Y-1699996D03*
G01*
X2550007Y-1699996D03*
G01*
X2450007Y-2450007D03*
G01*
X2450007Y-1699996D03*
G01*
X2250008Y-2450007D03*
G01*
X2350008Y-2450007D03*
G01*
X2550007Y-2450007D03*
G01*
X2650007Y-1699996D03*
G01*
X2750007Y-1699996D03*
G01*
X2650007Y-2450007D03*
G01*
X2750007Y-2450007D03*
G01*
X2850006Y-1699996D03*
G01*
X2850006Y-2599994D03*
G01*
X3049981Y-1799996D03*
M02*
