M48
METRIC,LZ,000.000
;FILE_FORMAT=3:3
;TYPE=PLATED
;Layer: PTH_Through_Via
;EasyEDA v6.5.22, 2022-12-22 19:37:34
;67d28de8ea5d46aa8ff263e619622a75,b137401b17fb4d15a04862e99c0880a0,10
;Gerber Generator version 0.2
;Holesize 1 = 0.200 mm
T01C0.200
%
G05
G90
T01
X002250Y-012500
X003000Y-013750
X000000Y-010000
X-000500Y-006500
X-001500Y-006500
X-004500Y-010500
X-002500Y-007500
X-024250Y-015500
X-015250Y-014000
X-018750Y-017000
X-020250Y-017000
X-003500Y-006500
X-002500Y-006500
X-004500Y-006500
X-001500Y-007500
X002500Y-006500
X001500Y-006500
X000500Y-006500
X000500Y-007500
X001500Y-007500
X002500Y-007500
X002500Y006500
X003500Y006500
X003500Y007500
X-002500Y006500
X-003500Y006500
X-003500Y007500
X-002500Y007500
X-004500Y006500
X-016750Y-016250
X-014000Y-017000
X-014000Y-012000
X003750Y-014500
X-010000Y-018000
X-010000Y-017250
X-011000Y-018000
X003500Y008500
X-005250Y010000
X-004000Y010000
X014000Y-018000
X015250Y-018750
X013250Y-017250
X013250Y-016500
X-008000Y-018000
X-007000Y-018000
X-012000Y-019000
X-001000Y-016750
X028625Y-014750
X002250Y-010250
X002500Y-008500
X001500Y-008500
X-019500Y-019000
X-001500Y005500
X-001500Y004500
X-001500Y003500
X-001500Y002500
X-006500Y003500
X-008500Y005500
X-007500Y007500
X005500Y007500
X006500Y-005500
X001500Y-003500
X-001500Y-003500
X007500Y-007500
X-007500Y-007500
X-008500Y-004500
X-008500Y-002500
X-008500Y-000500
X-008500Y001500
X-002500Y001500
X-001500Y000500
X-000500Y001500
X001500Y001500
X008500Y001500
X025750Y-016500
X024000Y-014750
X018750Y-016500
X023250Y-014000
X009750Y-011250
X008500Y-011250
X006500Y-003500
X006500Y-001500
X001500Y-000500
X-001500Y-000500
X001500Y002500
X-001500Y-005500
X001500Y-005500
X006500Y000500
X008500Y000500
X008500Y-003500
X-006500Y-000500
X-006500Y-002500
X-006500Y-004500
X-006500Y001500
X-004500Y-004500
X004500Y-004500
X-004500Y-001500
X-004500Y001500
X004500Y001500
X004500Y-001500
X004500Y-007500
X-004500Y-007500
X-004500Y004500
X-006500Y005500
X-008500Y003500
X006500Y004500
X008500Y004500
X008500Y002500
X006500Y002500
X001500Y-001500
X-000500Y-001500
X008500Y-000500
X008500Y-002500
X-000500Y000500
X002500Y000500
X002500Y-002500
X-002500Y-002500
X-001500Y-004500
X001500Y-004500
X001500Y003500
X001500Y004500
X-002500Y008500
X-002500Y004500
X-002500Y003500
X-000500Y003500
X-000500Y004500
X000500Y004500
X000500Y003500
X002500Y003500
X002500Y004500
X-001500Y001500
X-002500Y000500
X000500Y000500
X002500Y-001500
X001500Y-002500
X-001500Y-002500
X-002500Y-001500
X-002500Y-004500
X-000500Y-004500
X000500Y-004500
X002500Y-004500
X002500Y001500
X000500Y001500
X000500Y-001500
X001500Y000500
X-022625Y-006500
X-020000Y-004000
X-021000Y-014000
X-004500Y007500
X023750Y004500
X023750Y003000
X030000Y011000
X030079Y007000
X021250Y004500
X021250Y003000
X026750Y-016000
X-012000Y-017999
X-002000Y-011500
X-002500Y-016000
X-003001Y-014000
X008500Y-001567
X008500Y-005500
X-001500Y007500
X001500Y007500
X001500Y005500
X-010000Y-009250
X-010000Y-008250
X018000Y013500
X002500Y007500
X004500Y008500
X011250Y-004000
X012000Y-004000
X025000Y008250
X025000Y005250
X025250Y001375
X025250Y000625
X025250Y-001125
X025250Y-001875
X025250Y-003625
X025250Y-004375
X023750Y010500
X029250Y008750
X-003000Y-012500
X029500Y-018500
X029500Y-018000
X029500Y-017500
X030000Y-017500
X030000Y-018000
X030000Y-018500
X033000Y-020250
X033000Y-019750
X033500Y-019750
X033500Y-020250
X032525Y-019750
X032525Y-020250
X031750Y-020250
X031750Y-019750
X031250Y-020250
X031250Y-019750
X030750Y-019750
X030750Y-020250
X028250Y-006125
X028208Y-006875
X018000Y-018000
X-024000Y-018000
X-018000Y-018000
X-022375Y-018000
X027000Y-018000
X004500Y004500
X014750Y016250
X014750Y020250
X010875Y017750
X010875Y013750
X010750Y020000
X010750Y016000
X020000Y018000
X006000Y017250
X-011750Y002250
X-011750Y001250
X-011500Y-000500
X-010500Y-001500
X-019000Y012250
X-016000Y011250
X-011250Y013800
X-016250Y014000
X-022500Y008999
X-026000Y-010000
X-018000Y-010000
X-014000Y000000
X-020000Y002000
X-026000Y018000
X-024000Y012000
X-024000Y010000
X028000Y018000
X029000Y011000
X030000Y010000
X029250Y008000
X029250Y007250
X025000Y007500
X025000Y006750
X024000Y006000
X020000Y-010000
X024000Y-008000
X018000Y-004000
X024000Y-006000
X018000Y002000
X020000Y008000
X015000Y011000
X000000Y018000
X002000Y018000
X008000Y021000
X008000Y017000
X018500Y017500
X-028000Y000000
X-032000Y-016000
X-026000Y-018000
X-016000Y-018000
X-003250Y-019000
X001000Y-019000
X010000Y-018000
X-028500Y-017250
X-020500Y-018000
M30
