G04 Layer: TopSilkscreenLayer*
G04 EasyEDA v6.5.22, 2022-12-22 19:37:34*
G04 67d28de8ea5d46aa8ff263e619622a75,b137401b17fb4d15a04862e99c0880a0,10*
G04 Gerber Generator version 0.2*
G04 Scale: 100 percent, Rotated: No, Reflected: No *
G04 Dimensions in millimeters *
G04 leading zeros omitted , absolute positions ,4 integer and 5 decimal *
%FSLAX45Y45*%
%MOMM*%

%ADD10C,0.2540*%
%ADD11C,0.1016*%
%ADD12C,0.2000*%
%ADD13C,0.1524*%
%ADD14C,0.1500*%
%ADD15C,0.0145*%

%LPD*%
G36*
X1304188Y151333D02*
G01*
X1302258Y150977D01*
X1300022Y150012D01*
X1297838Y147777D01*
X1294130Y142544D01*
X1288948Y134416D01*
X1147064Y-106019D01*
X1134019Y-128676D01*
X1156665Y-128676D01*
X1303070Y118719D01*
X1304391Y119126D01*
X1306931Y116382D01*
X1311554Y109270D01*
X1452473Y-128676D01*
X1356258Y-129032D01*
X1241298Y-129032D01*
X1134019Y-128676D01*
X1131163Y-134162D01*
X1129741Y-137718D01*
X1129538Y-139852D01*
X1129690Y-141884D01*
X1130198Y-143560D01*
X1131163Y-144983D01*
X1135684Y-148640D01*
X1473860Y-148640D01*
X1476756Y-145846D01*
X1479143Y-142443D01*
X1479397Y-138226D01*
X1477314Y-132435D01*
X1465478Y-111912D01*
X1322171Y131064D01*
X1314500Y143510D01*
X1312316Y146710D01*
X1310741Y148640D01*
X1309522Y149656D01*
X1306068Y151079D01*
G37*
G36*
X1338224Y22504D02*
G01*
X1336954Y21386D01*
X1335074Y18796D01*
X1331417Y12395D01*
X1329080Y6604D01*
X1327810Y711D01*
X1327404Y-6096D01*
X1327353Y-15900D01*
X1342034Y-44602D01*
X1344777Y-51003D01*
X1345844Y-55626D01*
X1345996Y-60909D01*
X1345844Y-65684D01*
X1345336Y-69291D01*
X1344168Y-72694D01*
X1340154Y-80772D01*
X1339291Y-83108D01*
X1339443Y-84480D01*
X1340459Y-85496D01*
X1343558Y-87731D01*
X1345590Y-88493D01*
X1347165Y-87934D01*
X1348841Y-86004D01*
X1351940Y-81026D01*
X1354277Y-75641D01*
X1355852Y-70002D01*
X1356664Y-64160D01*
X1356664Y-58267D01*
X1355902Y-52425D01*
X1354378Y-46786D01*
X1351991Y-41351D01*
X1343609Y-25196D01*
X1339138Y-15341D01*
X1338021Y-11938D01*
X1337462Y-9093D01*
X1337513Y-3657D01*
X1338021Y-863D01*
X1340358Y6146D01*
X1345742Y17221D01*
X1341018Y20878D01*
G37*
G36*
X1266037Y22453D02*
G01*
X1264513Y20726D01*
X1261770Y16510D01*
X1257960Y9042D01*
X1255674Y1727D01*
X1254861Y-5537D01*
X1255522Y-12852D01*
X1256588Y-17221D01*
X1258722Y-22504D01*
X1262786Y-30683D01*
X1272286Y-48869D01*
X1273810Y-52781D01*
X1274572Y-56388D01*
X1274775Y-60655D01*
X1274470Y-66040D01*
X1273505Y-70764D01*
X1271828Y-75133D01*
X1267866Y-81838D01*
X1267714Y-83820D01*
X1268984Y-85547D01*
X1271727Y-87376D01*
X1275334Y-89408D01*
X1278890Y-83362D01*
X1281887Y-77622D01*
X1283868Y-72339D01*
X1284935Y-66903D01*
X1285290Y-60807D01*
X1284833Y-54457D01*
X1283106Y-48056D01*
X1279702Y-40335D01*
X1270609Y-23418D01*
X1267968Y-17729D01*
X1266190Y-12700D01*
X1265275Y-8178D01*
X1265224Y-3860D01*
X1265986Y406D01*
X1267510Y4876D01*
X1273505Y16967D01*
X1266545Y22250D01*
G37*
G36*
X1301292Y22402D02*
G01*
X1298448Y18186D01*
X1295196Y12395D01*
X1292707Y6146D01*
X1291132Y-254D01*
X1290624Y-6350D01*
X1291183Y-12547D01*
X1293114Y-19151D01*
X1296822Y-27432D01*
X1309827Y-51104D01*
X1309725Y-66192D01*
X1309217Y-70002D01*
X1308100Y-73253D01*
X1302461Y-83616D01*
X1307388Y-86868D01*
X1308811Y-87477D01*
X1310132Y-87782D01*
X1311097Y-87731D01*
X1312062Y-86868D01*
X1315008Y-82397D01*
X1318615Y-74879D01*
X1319733Y-71120D01*
X1320241Y-66802D01*
X1320241Y-53797D01*
X1319885Y-51104D01*
X1319072Y-48260D01*
X1317548Y-44704D01*
X1307033Y-24587D01*
X1303426Y-16662D01*
X1301496Y-9652D01*
X1301343Y-3200D01*
X1302766Y3302D01*
X1304848Y8483D01*
X1308658Y14884D01*
X1308963Y16560D01*
X1307896Y18034D01*
G37*
G36*
X1231036Y-98450D02*
G01*
X1231036Y-113283D01*
X1378102Y-113283D01*
X1378102Y-98450D01*
G37*
G36*
X-3106318Y-212090D02*
G01*
X-3107994Y-218795D01*
X-3117951Y-265633D01*
X-3134868Y-348691D01*
X-3140811Y-376174D01*
X-3142894Y-383489D01*
X-3143808Y-385876D01*
X-3144672Y-387451D01*
X-3145536Y-388315D01*
X-3146348Y-388620D01*
X-3147212Y-388366D01*
X-3149142Y-386588D01*
X-3160776Y-372719D01*
X-3160829Y-428193D01*
X-3139186Y-428193D01*
X-3136856Y-428650D01*
X-3101848Y-428650D01*
X-3101848Y-498957D01*
X-3086303Y-498957D01*
X-3086303Y-432917D01*
X-3084220Y-430784D01*
X-3083052Y-429971D01*
X-3081528Y-429259D01*
X-3079750Y-428802D01*
X-3073806Y-428650D01*
X-3073806Y-498957D01*
X-3111195Y-498957D01*
X-3111195Y-428650D01*
X-3136856Y-428650D01*
X-3128314Y-430326D01*
X-3126536Y-498957D01*
X-3139186Y-498957D01*
X-3139186Y-428193D01*
X-3160829Y-428193D01*
X-3160979Y-582066D01*
X-3052064Y-582066D01*
X-3052267Y-372719D01*
X-3063849Y-386537D01*
X-3065780Y-388366D01*
X-3066643Y-388620D01*
X-3067507Y-388366D01*
X-3068320Y-387451D01*
X-3069183Y-385927D01*
X-3071063Y-380390D01*
X-3073349Y-371195D01*
X-3101797Y-232714D01*
G37*
G36*
X-2541828Y-425450D02*
G01*
X-2553411Y-425704D01*
X-2558694Y-426059D01*
X-2564384Y-426872D01*
X-2569819Y-427990D01*
X-2574391Y-429310D01*
X-2578658Y-431241D01*
X-2583535Y-434085D01*
X-2588260Y-437489D01*
X-2592374Y-440943D01*
X-2601061Y-449275D01*
X-2610358Y-482142D01*
X-2603601Y-513232D01*
X-2588463Y-533552D01*
X-2560472Y-544576D01*
X-2534208Y-540258D01*
X-2524252Y-533958D01*
X-2517038Y-528472D01*
X-2511094Y-522071D01*
X-2506472Y-514654D01*
X-2503119Y-506425D01*
X-2500985Y-499465D01*
X-2515260Y-497382D01*
X-2525928Y-521614D01*
X-2536850Y-526288D01*
X-2546248Y-529590D01*
X-2554274Y-530656D01*
X-2561844Y-529488D01*
X-2569972Y-525983D01*
X-2579319Y-521055D01*
X-2591460Y-500583D01*
X-2591460Y-466699D01*
X-2586837Y-457454D01*
X-2584500Y-453491D01*
X-2581503Y-449478D01*
X-2578303Y-445922D01*
X-2575255Y-443230D01*
X-2568295Y-438251D01*
X-2541371Y-438251D01*
X-2523490Y-447751D01*
X-2519476Y-460603D01*
X-2504338Y-460603D01*
X-2504338Y-457098D01*
X-2504846Y-455066D01*
X-2506167Y-452018D01*
X-2510536Y-444703D01*
X-2516733Y-435762D01*
G37*
G36*
X-2980486Y-428650D02*
G01*
X-2980486Y-447852D01*
X-2925673Y-447852D01*
X-2914345Y-456336D01*
X-2918663Y-470204D01*
X-2952496Y-470204D01*
X-2952496Y-447852D01*
X-2980486Y-447852D01*
X-2980486Y-492607D01*
X-2921812Y-492607D01*
X-2916885Y-497636D01*
X-2913532Y-502005D01*
X-2912211Y-506272D01*
X-2912973Y-510336D01*
X-2915767Y-514350D01*
X-2919476Y-518159D01*
X-2952496Y-518159D01*
X-2952496Y-492607D01*
X-2980486Y-492607D01*
X-2980486Y-540512D01*
X-2914904Y-540512D01*
X-2893110Y-531164D01*
X-2884068Y-508863D01*
X-2890164Y-492302D01*
X-2908249Y-481685D01*
X-2894888Y-474827D01*
X-2887167Y-458266D01*
X-2894025Y-438048D01*
X-2911703Y-428650D01*
G37*
G36*
X-2877464Y-428650D02*
G01*
X-2844647Y-538937D01*
X-2829204Y-540816D01*
X-2810256Y-476300D01*
X-2806395Y-463956D01*
X-2802991Y-454355D01*
X-2800553Y-449732D01*
X-2773019Y-538937D01*
X-2757830Y-540816D01*
X-2726639Y-434492D01*
X-2724658Y-428650D01*
X-2740202Y-428650D01*
X-2764078Y-517956D01*
X-2766110Y-515670D01*
X-2766822Y-514350D01*
X-2769463Y-507136D01*
X-2773527Y-495046D01*
X-2793949Y-428650D01*
X-2808935Y-428650D01*
X-2822600Y-475234D01*
X-2829560Y-498093D01*
X-2836468Y-519734D01*
X-2862478Y-428650D01*
G37*
G36*
X-2709722Y-428650D02*
G01*
X-2709722Y-441451D01*
X-2653334Y-441451D01*
X-2641295Y-448056D01*
X-2641295Y-473201D01*
X-2653334Y-479806D01*
X-2694178Y-479806D01*
X-2694178Y-441451D01*
X-2709722Y-441451D01*
X-2709722Y-540512D01*
X-2694178Y-540512D01*
X-2694178Y-492607D01*
X-2667254Y-492607D01*
X-2637688Y-540512D01*
X-2619298Y-540512D01*
X-2650845Y-492506D01*
X-2635707Y-486613D01*
X-2625699Y-471982D01*
X-2625699Y-447344D01*
X-2643886Y-428650D01*
G37*
G36*
X-2406497Y890727D02*
G01*
X-2408631Y878586D01*
X-2409139Y873150D01*
X-2409291Y868121D01*
X-2409139Y863549D01*
X-2408631Y859434D01*
X-2407716Y855776D01*
X-2406497Y852627D01*
X-2405024Y849731D01*
X-2403144Y847242D01*
X-2400858Y845058D01*
X-2398115Y843229D01*
X-2395220Y841705D01*
X-2392019Y840435D01*
X-2388616Y839419D01*
X-2380894Y838098D01*
X-2371648Y837488D01*
X-2361133Y837488D01*
X-2351989Y838098D01*
X-2344420Y839419D01*
X-2340965Y840435D01*
X-2337816Y841705D01*
X-2334869Y843229D01*
X-2332278Y845058D01*
X-2329992Y847242D01*
X-2328062Y849731D01*
X-2326487Y852627D01*
X-2325268Y855929D01*
X-2324404Y859688D01*
X-2323896Y863904D01*
X-2323693Y868629D01*
X-2324354Y878992D01*
X-2326233Y890727D01*
X-2334107Y890473D01*
X-2332583Y879602D01*
X-2332075Y870407D01*
X-2332583Y862990D01*
X-2333244Y859993D01*
X-2334107Y857453D01*
X-2335326Y855421D01*
X-2336800Y853643D01*
X-2338628Y852119D01*
X-2340711Y850849D01*
X-2345639Y848918D01*
X-2351125Y847801D01*
X-2357729Y847242D01*
X-2366365Y847039D01*
X-2382469Y848106D01*
X-2393035Y851357D01*
X-2396490Y854049D01*
X-2398979Y857910D01*
X-2400452Y862837D01*
X-2400909Y868883D01*
X-2400808Y873760D01*
X-2399792Y884529D01*
X-2398877Y890473D01*
G37*
G36*
X-2333345Y830783D02*
G01*
X-2333345Y794207D01*
X-2408021Y794207D01*
X-2408021Y785063D01*
X-2324963Y785063D01*
X-2324963Y830783D01*
G37*
G36*
X-2408021Y764997D02*
G01*
X-2408021Y755853D01*
X-2337663Y755853D01*
X-2333650Y755700D01*
X-2330500Y755192D01*
X-2328214Y754430D01*
X-2326741Y753313D01*
X-2325878Y751789D01*
X-2325217Y749452D01*
X-2324862Y746302D01*
X-2324709Y742391D01*
X-2316327Y742391D01*
X-2316581Y750773D01*
X-2317292Y754481D01*
X-2318359Y757580D01*
X-2319832Y759968D01*
X-2321661Y761695D01*
X-2324303Y763117D01*
X-2327656Y764184D01*
X-2331669Y764794D01*
X-2336393Y764997D01*
G37*
G36*
X-2406497Y735787D02*
G01*
X-2408631Y723646D01*
X-2409139Y718210D01*
X-2409291Y713181D01*
X-2409139Y708558D01*
X-2408631Y704392D01*
X-2407716Y700684D01*
X-2406497Y697433D01*
X-2405024Y694690D01*
X-2403144Y692251D01*
X-2400858Y690118D01*
X-2398115Y688289D01*
X-2395220Y686765D01*
X-2392019Y685495D01*
X-2388616Y684479D01*
X-2380894Y683158D01*
X-2371648Y682548D01*
X-2361133Y682548D01*
X-2351989Y683158D01*
X-2344420Y684479D01*
X-2340965Y685495D01*
X-2337816Y686765D01*
X-2334869Y688289D01*
X-2332278Y690118D01*
X-2329992Y692302D01*
X-2328062Y694791D01*
X-2326487Y697687D01*
X-2325268Y700836D01*
X-2324404Y704545D01*
X-2323896Y708710D01*
X-2323693Y713435D01*
X-2324354Y723950D01*
X-2326233Y735787D01*
X-2334107Y735279D01*
X-2332583Y724560D01*
X-2332075Y715213D01*
X-2332583Y707847D01*
X-2333244Y704951D01*
X-2334107Y702513D01*
X-2335326Y700481D01*
X-2336800Y698703D01*
X-2338628Y697179D01*
X-2340711Y695909D01*
X-2343099Y694842D01*
X-2348280Y693318D01*
X-2354173Y692505D01*
X-2366365Y692099D01*
X-2382469Y693115D01*
X-2393035Y696163D01*
X-2396490Y698855D01*
X-2398979Y702716D01*
X-2400452Y707644D01*
X-2400909Y713689D01*
X-2400808Y718566D01*
X-2399792Y729335D01*
X-2398877Y735279D01*
G37*
G36*
X-2333345Y675589D02*
G01*
X-2333345Y639267D01*
X-2408021Y639267D01*
X-2408021Y629869D01*
X-2324963Y629869D01*
X-2324963Y675589D01*
G37*
G36*
X-2336393Y610057D02*
G01*
X-2408021Y609803D01*
X-2408021Y600913D01*
X-2337663Y600913D01*
X-2333650Y600760D01*
X-2330500Y600252D01*
X-2328214Y599490D01*
X-2326741Y598373D01*
X-2325878Y596696D01*
X-2325217Y594309D01*
X-2324709Y587197D01*
X-2316327Y587197D01*
X-2316581Y595833D01*
X-2317292Y599541D01*
X-2318359Y602640D01*
X-2319832Y605028D01*
X-2321661Y606755D01*
X-2324303Y608177D01*
X-2327656Y609244D01*
X-2331669Y609854D01*
G37*
G36*
X-2406497Y580593D02*
G01*
X-2408631Y568452D01*
X-2409139Y563016D01*
X-2409291Y557987D01*
X-2409139Y553516D01*
X-2408631Y549402D01*
X-2407716Y545744D01*
X-2406497Y542493D01*
X-2405024Y539597D01*
X-2403144Y537108D01*
X-2400858Y534924D01*
X-2398115Y533095D01*
X-2395220Y531571D01*
X-2392019Y530301D01*
X-2388616Y529285D01*
X-2380894Y527964D01*
X-2371648Y527354D01*
X-2361133Y527354D01*
X-2351989Y527964D01*
X-2344420Y529285D01*
X-2340965Y530301D01*
X-2337816Y531571D01*
X-2334869Y533095D01*
X-2332278Y534924D01*
X-2329992Y537108D01*
X-2328062Y539597D01*
X-2326487Y542493D01*
X-2325268Y545795D01*
X-2324404Y549554D01*
X-2323896Y553770D01*
X-2323693Y558495D01*
X-2324354Y568960D01*
X-2326233Y580593D01*
X-2334107Y580339D01*
X-2332583Y569468D01*
X-2332075Y560273D01*
X-2332583Y552907D01*
X-2333244Y549960D01*
X-2334107Y547573D01*
X-2335326Y545439D01*
X-2336800Y543560D01*
X-2338628Y541985D01*
X-2340711Y540715D01*
X-2343099Y539648D01*
X-2348280Y538124D01*
X-2354173Y537311D01*
X-2366365Y536905D01*
X-2382469Y537972D01*
X-2393035Y541223D01*
X-2396490Y543915D01*
X-2398979Y547776D01*
X-2400452Y552704D01*
X-2400909Y558749D01*
X-2400808Y563626D01*
X-2399792Y574395D01*
X-2398877Y580339D01*
G37*
G36*
X-2333345Y520649D02*
G01*
X-2333345Y484073D01*
X-2408021Y484073D01*
X-2408021Y474929D01*
X-2324963Y474929D01*
X-2324963Y520649D01*
G37*
G36*
X-2336393Y455117D02*
G01*
X-2408021Y454863D01*
X-2408021Y445719D01*
X-2337663Y445719D01*
X-2333650Y445566D01*
X-2330500Y445109D01*
X-2328214Y444296D01*
X-2326741Y443179D01*
X-2325878Y441655D01*
X-2325217Y439318D01*
X-2324862Y436168D01*
X-2324709Y432257D01*
X-2316327Y432257D01*
X-2316581Y440639D01*
X-2317292Y444347D01*
X-2318359Y447446D01*
X-2319832Y449834D01*
X-2321661Y451561D01*
X-2324303Y453135D01*
X-2327656Y454253D01*
X-2331669Y454914D01*
G37*
G36*
X-2406497Y425653D02*
G01*
X-2408631Y413512D01*
X-2409139Y408076D01*
X-2409291Y403047D01*
X-2409139Y398475D01*
X-2408631Y394360D01*
X-2407716Y390702D01*
X-2406497Y387553D01*
X-2405024Y384657D01*
X-2403144Y382168D01*
X-2400858Y379984D01*
X-2398115Y378155D01*
X-2395220Y376631D01*
X-2392019Y375361D01*
X-2388616Y374345D01*
X-2380894Y373024D01*
X-2371648Y372414D01*
X-2361133Y372414D01*
X-2351989Y373024D01*
X-2344420Y374345D01*
X-2340965Y375361D01*
X-2337816Y376631D01*
X-2334869Y378155D01*
X-2332278Y379984D01*
X-2329992Y382168D01*
X-2328062Y384657D01*
X-2326487Y387553D01*
X-2325268Y390804D01*
X-2324404Y394512D01*
X-2323896Y398678D01*
X-2323693Y403301D01*
X-2324354Y413867D01*
X-2326233Y425653D01*
X-2334107Y425145D01*
X-2332583Y414477D01*
X-2332075Y405333D01*
X-2332583Y397764D01*
X-2333244Y394817D01*
X-2334107Y392379D01*
X-2335326Y390347D01*
X-2336800Y388569D01*
X-2338628Y387045D01*
X-2340711Y385775D01*
X-2345639Y383844D01*
X-2351125Y382727D01*
X-2357729Y382168D01*
X-2366365Y381965D01*
X-2382469Y383032D01*
X-2393035Y386283D01*
X-2396490Y388874D01*
X-2398979Y392633D01*
X-2400452Y397510D01*
X-2400909Y403555D01*
X-2400808Y408533D01*
X-2399792Y419303D01*
X-2398877Y425145D01*
G37*
G36*
X-2333345Y365709D02*
G01*
X-2333345Y329133D01*
X-2408021Y329133D01*
X-2408021Y319989D01*
X-2324963Y319989D01*
X-2324963Y365709D01*
G37*
G36*
X-2408021Y299923D02*
G01*
X-2408021Y290779D01*
X-2337663Y290779D01*
X-2333650Y290626D01*
X-2330500Y290118D01*
X-2328214Y289356D01*
X-2326741Y288239D01*
X-2325878Y286562D01*
X-2325217Y284175D01*
X-2324862Y281025D01*
X-2324709Y277063D01*
X-2316327Y277063D01*
X-2316581Y285699D01*
X-2317292Y289407D01*
X-2318359Y292506D01*
X-2319832Y294894D01*
X-2321661Y296621D01*
X-2324303Y298043D01*
X-2327656Y299110D01*
X-2331669Y299720D01*
X-2336393Y299923D01*
G37*
G36*
X3232556Y1282954D02*
G01*
X3254400Y1199896D01*
X3274974Y1199896D01*
X3296564Y1282954D01*
X3287166Y1282954D01*
X3267862Y1208278D01*
X3261258Y1208278D01*
X3242208Y1282954D01*
G37*
G36*
X3332886Y1280414D02*
G01*
X3326637Y1280109D01*
X3321100Y1279144D01*
X3316224Y1277569D01*
X3312058Y1275334D01*
X3308858Y1272387D01*
X3306521Y1268831D01*
X3305149Y1264767D01*
X3304692Y1260094D01*
X3304768Y1258824D01*
X3314598Y1258824D01*
X3319221Y1268730D01*
X3333140Y1272032D01*
X3347059Y1268730D01*
X3351682Y1258824D01*
X3351479Y1256284D01*
X3350920Y1253998D01*
X3349955Y1251966D01*
X3348634Y1250188D01*
X3346805Y1248714D01*
X3344570Y1247394D01*
X3341979Y1246174D01*
X3338982Y1245108D01*
X3326282Y1245108D01*
X3323437Y1246225D01*
X3320999Y1247444D01*
X3319018Y1248867D01*
X3317392Y1250442D01*
X3316173Y1252220D01*
X3315309Y1254201D01*
X3314801Y1256385D01*
X3314598Y1258824D01*
X3304768Y1258824D01*
X3304895Y1256690D01*
X3305454Y1253693D01*
X3306419Y1251000D01*
X3307740Y1248664D01*
X3309365Y1246682D01*
X3311499Y1244803D01*
X3314090Y1242974D01*
X3317138Y1241298D01*
X3313836Y1239367D01*
X3310991Y1237386D01*
X3308604Y1235303D01*
X3306724Y1233170D01*
X3305301Y1230630D01*
X3304235Y1227632D01*
X3303625Y1224178D01*
X3303500Y1221740D01*
X3313328Y1221740D01*
X3313531Y1224737D01*
X3314090Y1227378D01*
X3315055Y1229715D01*
X3316376Y1231646D01*
X3318256Y1233322D01*
X3320491Y1234744D01*
X3323183Y1235964D01*
X3326282Y1236980D01*
X3338982Y1236980D01*
X3342233Y1235913D01*
X3345027Y1234694D01*
X3347415Y1233373D01*
X3349396Y1231900D01*
X3350971Y1230172D01*
X3352088Y1228039D01*
X3352749Y1225448D01*
X3352952Y1222502D01*
X3348024Y1211072D01*
X3333140Y1207262D01*
X3318306Y1210868D01*
X3313328Y1221740D01*
X3303500Y1221740D01*
X3303422Y1220216D01*
X3305301Y1210868D01*
X3310839Y1204214D01*
X3320135Y1200200D01*
X3333140Y1198880D01*
X3346145Y1200302D01*
X3355441Y1204518D01*
X3361029Y1211580D01*
X3362858Y1221486D01*
X3362604Y1225194D01*
X3361893Y1228496D01*
X3360724Y1231290D01*
X3359048Y1233678D01*
X3357067Y1235862D01*
X3354628Y1237843D01*
X3351733Y1239672D01*
X3348380Y1241298D01*
X3351682Y1242974D01*
X3354476Y1244803D01*
X3356762Y1246682D01*
X3358540Y1248664D01*
X3359861Y1250797D01*
X3360826Y1253337D01*
X3361385Y1256385D01*
X3361588Y1259840D01*
X3361080Y1264615D01*
X3359607Y1268780D01*
X3357168Y1272387D01*
X3353714Y1275334D01*
X3349548Y1277569D01*
X3344722Y1279144D01*
X3339134Y1280109D01*
G37*
G36*
X3200552Y1279144D02*
G01*
X3175406Y1262380D01*
X3179470Y1255522D01*
X3200044Y1268984D01*
X3200044Y1199896D01*
X3209188Y1199896D01*
X3209188Y1279144D01*
G37*
G36*
X3170123Y1683004D02*
G01*
X3191713Y1599946D01*
X3212541Y1599946D01*
X3234131Y1683004D01*
X3224479Y1683004D01*
X3205429Y1608074D01*
X3198825Y1608074D01*
X3179775Y1683004D01*
G37*
G36*
X3133547Y1680464D02*
G01*
X3120745Y1678127D01*
X3111703Y1671066D01*
X3106369Y1658366D01*
X3104591Y1639062D01*
X3104665Y1638300D01*
X3114243Y1638300D01*
X3116427Y1658620D01*
X3122879Y1669288D01*
X3124962Y1670608D01*
X3127451Y1671574D01*
X3130296Y1672132D01*
X3133547Y1672336D01*
X3138373Y1671878D01*
X3142437Y1670507D01*
X3145739Y1668170D01*
X3148279Y1664970D01*
X3151733Y1654810D01*
X3152851Y1639062D01*
X3151733Y1623517D01*
X3148279Y1613916D01*
X3145586Y1610918D01*
X3142183Y1608785D01*
X3138170Y1607464D01*
X3133547Y1607058D01*
X3128924Y1607464D01*
X3124911Y1608734D01*
X3121558Y1610766D01*
X3118815Y1613662D01*
X3115411Y1623263D01*
X3114243Y1638300D01*
X3104665Y1638300D01*
X3106470Y1619910D01*
X3111957Y1607566D01*
X3120898Y1600911D01*
X3133547Y1598676D01*
X3146196Y1600962D01*
X3155137Y1607820D01*
X3160674Y1619859D01*
X3162503Y1638300D01*
X3161690Y1652219D01*
X3159201Y1663344D01*
X3155086Y1671523D01*
X3149295Y1676907D01*
X3146044Y1678482D01*
X3142335Y1679600D01*
X3138170Y1680260D01*
G37*
G36*
X3270453Y1680464D02*
G01*
X3264204Y1680159D01*
X3258667Y1679193D01*
X3253790Y1677619D01*
X3249625Y1675384D01*
X3246424Y1672437D01*
X3244138Y1668830D01*
X3242716Y1664665D01*
X3242259Y1659889D01*
X3242322Y1658874D01*
X3251911Y1658874D01*
X3256635Y1668780D01*
X3270707Y1672082D01*
X3284626Y1668780D01*
X3289249Y1658874D01*
X3289046Y1656334D01*
X3288436Y1654048D01*
X3287420Y1652016D01*
X3285947Y1650238D01*
X3284220Y1648663D01*
X3282035Y1647240D01*
X3279394Y1646021D01*
X3276295Y1644904D01*
X3263849Y1644904D01*
X3261004Y1646123D01*
X3258565Y1647443D01*
X3256584Y1648917D01*
X3254959Y1650492D01*
X3253638Y1652168D01*
X3252673Y1654098D01*
X3252114Y1656334D01*
X3251911Y1658874D01*
X3242322Y1658874D01*
X3242462Y1656638D01*
X3242970Y1653692D01*
X3243834Y1651050D01*
X3245053Y1648714D01*
X3246780Y1646732D01*
X3248964Y1644853D01*
X3251504Y1643024D01*
X3254451Y1641348D01*
X3251149Y1639417D01*
X3248304Y1637436D01*
X3245916Y1635353D01*
X3244037Y1633220D01*
X3242614Y1630680D01*
X3241598Y1627682D01*
X3240938Y1624228D01*
X3240813Y1621790D01*
X3250641Y1621790D01*
X3250844Y1624787D01*
X3251504Y1627428D01*
X3252520Y1629765D01*
X3253943Y1631696D01*
X3255822Y1633372D01*
X3258108Y1634794D01*
X3260750Y1636014D01*
X3263849Y1637030D01*
X3276295Y1637030D01*
X3279648Y1635963D01*
X3282543Y1634744D01*
X3284982Y1633423D01*
X3286963Y1631950D01*
X3288537Y1630222D01*
X3289655Y1628089D01*
X3290315Y1625498D01*
X3290519Y1622552D01*
X3285490Y1611122D01*
X3270453Y1607312D01*
X3255619Y1610918D01*
X3250641Y1621790D01*
X3240813Y1621790D01*
X3240735Y1620266D01*
X3242614Y1610817D01*
X3248152Y1604060D01*
X3257448Y1600047D01*
X3270453Y1598676D01*
X3283458Y1600098D01*
X3292754Y1604416D01*
X3298342Y1611528D01*
X3300171Y1621536D01*
X3299968Y1625244D01*
X3299307Y1628546D01*
X3298190Y1631340D01*
X3296615Y1633728D01*
X3294634Y1635810D01*
X3292195Y1637792D01*
X3289300Y1639620D01*
X3285947Y1641348D01*
X3289249Y1643024D01*
X3292043Y1644802D01*
X3294329Y1646580D01*
X3296107Y1648460D01*
X3297428Y1650695D01*
X3298393Y1653336D01*
X3299002Y1656435D01*
X3299155Y1659889D01*
X3298698Y1664665D01*
X3297174Y1668830D01*
X3294735Y1672437D01*
X3291281Y1675384D01*
X3287115Y1677619D01*
X3282289Y1679193D01*
X3276701Y1680159D01*
G37*
G36*
X3315157Y1679193D02*
G01*
X3313125Y1638046D01*
X3319475Y1636776D01*
X3323437Y1638655D01*
X3326993Y1639824D01*
X3331514Y1640890D01*
X3336086Y1641500D01*
X3338271Y1641602D01*
X3342132Y1641398D01*
X3345434Y1640738D01*
X3348329Y1639620D01*
X3350717Y1638046D01*
X3352596Y1635861D01*
X3353968Y1633016D01*
X3354781Y1629613D01*
X3355035Y1625600D01*
X3354730Y1621434D01*
X3353815Y1617726D01*
X3352342Y1614576D01*
X3350209Y1611884D01*
X3347516Y1609750D01*
X3344265Y1608277D01*
X3340404Y1607362D01*
X3335985Y1607058D01*
X3331006Y1607210D01*
X3319475Y1608480D01*
X3312871Y1609598D01*
X3311855Y1602486D01*
X3315665Y1601470D01*
X3327349Y1599539D01*
X3332835Y1599082D01*
X3338017Y1598930D01*
X3344011Y1599387D01*
X3349244Y1600708D01*
X3353815Y1602943D01*
X3357575Y1606042D01*
X3360724Y1610004D01*
X3362909Y1614728D01*
X3364280Y1620266D01*
X3364687Y1626616D01*
X3363112Y1636826D01*
X3358337Y1644142D01*
X3350412Y1648510D01*
X3339287Y1649984D01*
X3334715Y1649679D01*
X3330092Y1648714D01*
X3325418Y1647139D01*
X3320745Y1644904D01*
X3323031Y1670812D01*
X3361385Y1670812D01*
X3361385Y1679193D01*
G37*
G36*
X3232658Y882954D02*
G01*
X3254248Y799896D01*
X3274822Y799896D01*
X3296665Y882954D01*
X3287014Y882954D01*
X3267964Y808024D01*
X3261360Y808024D01*
X3242056Y882954D01*
G37*
G36*
X3195320Y880414D02*
G01*
X3188970Y880211D01*
X3182823Y879602D01*
X3176879Y878586D01*
X3171190Y877112D01*
X3171952Y869746D01*
X3175000Y870508D01*
X3184448Y871880D01*
X3194050Y872286D01*
X3198063Y872134D01*
X3201466Y871524D01*
X3204311Y870610D01*
X3206496Y869238D01*
X3208172Y867613D01*
X3209340Y865530D01*
X3210052Y862939D01*
X3210306Y859840D01*
X3210001Y856742D01*
X3209086Y853897D01*
X3207613Y851408D01*
X3205480Y849172D01*
X3203143Y847394D01*
X3200806Y846124D01*
X3198317Y845362D01*
X3195828Y845108D01*
X3179826Y845108D01*
X3179826Y837234D01*
X3195828Y837234D01*
X3208020Y833119D01*
X3212084Y822248D01*
X3207816Y810818D01*
X3195066Y807008D01*
X3183229Y807669D01*
X3170682Y809548D01*
X3169920Y801928D01*
X3179521Y800201D01*
X3190697Y799033D01*
X3196082Y798880D01*
X3202228Y799287D01*
X3207512Y800354D01*
X3211880Y802182D01*
X3215386Y804722D01*
X3218180Y808075D01*
X3220161Y812190D01*
X3221329Y817067D01*
X3221736Y822756D01*
X3221532Y826922D01*
X3220872Y830376D01*
X3219754Y833272D01*
X3218180Y835456D01*
X3216300Y837285D01*
X3213963Y838962D01*
X3211220Y840486D01*
X3208020Y841806D01*
X3212287Y844702D01*
X3214217Y846277D01*
X3216300Y848868D01*
X3218840Y853338D01*
X3219602Y857250D01*
X3219704Y859840D01*
X3219348Y864920D01*
X3218230Y869238D01*
X3216402Y872794D01*
X3213862Y875588D01*
X3210610Y877722D01*
X3206445Y879246D01*
X3201314Y880110D01*
G37*
G36*
X3332226Y880414D02*
G01*
X3325977Y880211D01*
X3319830Y879602D01*
X3313887Y878586D01*
X3308096Y877112D01*
X3309112Y869746D01*
X3312160Y870508D01*
X3321608Y871880D01*
X3331210Y872286D01*
X3335223Y872134D01*
X3338626Y871524D01*
X3341471Y870610D01*
X3343656Y869238D01*
X3345230Y867613D01*
X3346297Y865530D01*
X3347008Y862939D01*
X3347212Y859840D01*
X3346907Y856742D01*
X3346043Y853897D01*
X3344621Y851408D01*
X3342640Y849172D01*
X3340252Y847394D01*
X3337814Y846124D01*
X3335426Y845362D01*
X3332987Y845108D01*
X3316986Y845108D01*
X3316986Y837234D01*
X3332987Y837234D01*
X3345179Y833119D01*
X3349244Y822248D01*
X3344926Y810818D01*
X3331972Y807008D01*
X3320338Y807669D01*
X3307842Y809548D01*
X3307079Y801928D01*
X3316528Y800201D01*
X3327704Y799033D01*
X3332987Y798880D01*
X3339236Y799287D01*
X3344621Y800354D01*
X3349040Y802182D01*
X3352546Y804722D01*
X3355187Y808075D01*
X3357118Y812190D01*
X3358235Y817067D01*
X3358642Y822756D01*
X3358438Y826922D01*
X3357829Y830376D01*
X3356762Y833272D01*
X3355340Y835456D01*
X3353460Y837285D01*
X3351072Y838962D01*
X3348228Y840486D01*
X3344926Y841806D01*
X3349294Y844702D01*
X3351225Y846277D01*
X3353358Y848868D01*
X3356000Y853338D01*
X3356508Y855116D01*
X3356864Y859840D01*
X3356508Y864920D01*
X3355390Y869238D01*
X3353562Y872794D01*
X3351022Y875588D01*
X3347669Y877722D01*
X3343401Y879246D01*
X3338271Y880110D01*
G37*
G36*
X-702818Y1496822D02*
G01*
X-714502Y1495450D01*
X-722833Y1491234D01*
X-727811Y1484274D01*
X-729488Y1474470D01*
X-729132Y1469288D01*
X-728014Y1464970D01*
X-726186Y1461414D01*
X-723646Y1458722D01*
X-720191Y1456436D01*
X-715721Y1454353D01*
X-710184Y1452473D01*
X-698652Y1449781D01*
X-694639Y1448612D01*
X-691438Y1447393D01*
X-689102Y1446022D01*
X-687425Y1444294D01*
X-686257Y1442110D01*
X-685546Y1439468D01*
X-685292Y1436370D01*
X-689711Y1423822D01*
X-703072Y1419606D01*
X-713435Y1420114D01*
X-727710Y1421638D01*
X-728726Y1414018D01*
X-718108Y1412646D01*
X-707186Y1411630D01*
X-702564Y1411478D01*
X-690880Y1413052D01*
X-682548Y1417828D01*
X-677570Y1425752D01*
X-675894Y1436878D01*
X-676198Y1441704D01*
X-677214Y1445818D01*
X-678891Y1449222D01*
X-681228Y1451864D01*
X-684326Y1453946D01*
X-688390Y1455877D01*
X-693369Y1457604D01*
X-709676Y1462024D01*
X-713333Y1463446D01*
X-716026Y1464818D01*
X-717804Y1466494D01*
X-719074Y1468831D01*
X-719836Y1471726D01*
X-720090Y1475232D01*
X-715568Y1485341D01*
X-702056Y1488694D01*
X-692708Y1488186D01*
X-678434Y1486662D01*
X-677672Y1494536D01*
X-687628Y1495806D01*
X-698144Y1496720D01*
G37*
G36*
X-802894Y1495552D02*
G01*
X-802894Y1437640D01*
X-802436Y1431137D01*
X-801065Y1425651D01*
X-798728Y1421130D01*
X-795528Y1417574D01*
X-791514Y1414780D01*
X-786587Y1412798D01*
X-780694Y1411630D01*
X-773938Y1411224D01*
X-767130Y1411630D01*
X-761238Y1412798D01*
X-756208Y1414780D01*
X-752094Y1417574D01*
X-748842Y1421130D01*
X-746556Y1425651D01*
X-745185Y1431137D01*
X-744728Y1437640D01*
X-744728Y1495552D01*
X-753872Y1495552D01*
X-753872Y1437386D01*
X-754176Y1433017D01*
X-755142Y1429258D01*
X-756716Y1426159D01*
X-758952Y1423670D01*
X-761796Y1421790D01*
X-765302Y1420418D01*
X-769416Y1419606D01*
X-774192Y1419352D01*
X-788873Y1423873D01*
X-793750Y1437386D01*
X-793750Y1495552D01*
G37*
G36*
X-659892Y1495552D02*
G01*
X-659892Y1412494D01*
X-609346Y1412494D01*
X-609346Y1420622D01*
X-650748Y1420622D01*
X-650748Y1450594D01*
X-616712Y1450594D01*
X-616712Y1458722D01*
X-650748Y1458722D01*
X-650748Y1487424D01*
X-609346Y1487424D01*
X-609346Y1495552D01*
G37*
G36*
X-525780Y1495552D02*
G01*
X-500126Y1453134D01*
X-525780Y1412494D01*
X-515620Y1412494D01*
X-494538Y1447038D01*
X-473709Y1412494D01*
X-463296Y1412494D01*
X-488696Y1453388D01*
X-463296Y1495552D01*
X-473201Y1495552D01*
X-494284Y1459992D01*
X-515366Y1495552D01*
G37*
G36*
X-459485Y1495552D02*
G01*
X-459485Y1487170D01*
X-433832Y1487170D01*
X-433832Y1412494D01*
X-424688Y1412494D01*
X-424688Y1487170D01*
X-399542Y1487170D01*
X-399542Y1495552D01*
G37*
G36*
X-377952Y1495552D02*
G01*
X-392469Y1442212D01*
X-383540Y1442212D01*
X-370840Y1487678D01*
X-364744Y1487678D01*
X-352044Y1442212D01*
X-392469Y1442212D01*
X-400558Y1412494D01*
X-391668Y1412494D01*
X-385572Y1433830D01*
X-350012Y1433830D01*
X-343916Y1412494D01*
X-335026Y1412494D01*
X-357632Y1495552D01*
G37*
G36*
X-321818Y1495552D02*
G01*
X-321818Y1412494D01*
X-276098Y1412494D01*
X-276098Y1420876D01*
X-312674Y1420876D01*
X-312674Y1495552D01*
G37*
G36*
X-591566Y1401572D02*
G01*
X-591566Y1393444D01*
X-540258Y1393444D01*
X-540258Y1401572D01*
G37*
G36*
X-640283Y1296873D02*
G01*
X-651916Y1295450D01*
X-660247Y1291285D01*
X-665276Y1284274D01*
X-666953Y1274521D01*
X-666546Y1269339D01*
X-665480Y1264920D01*
X-663651Y1261313D01*
X-661111Y1258519D01*
X-657656Y1256334D01*
X-653135Y1254302D01*
X-647598Y1252524D01*
X-636117Y1249832D01*
X-632053Y1248613D01*
X-628904Y1247292D01*
X-626567Y1245819D01*
X-624890Y1244193D01*
X-623671Y1242009D01*
X-622960Y1239367D01*
X-622757Y1236167D01*
X-627176Y1223772D01*
X-640537Y1219657D01*
X-650849Y1220165D01*
X-665175Y1221689D01*
X-666191Y1214069D01*
X-655523Y1212646D01*
X-644601Y1211630D01*
X-640029Y1211529D01*
X-628345Y1213104D01*
X-620014Y1217879D01*
X-614984Y1225804D01*
X-613359Y1236929D01*
X-613664Y1241755D01*
X-614680Y1245870D01*
X-616356Y1249273D01*
X-618693Y1251915D01*
X-621792Y1253998D01*
X-625856Y1255877D01*
X-630834Y1257554D01*
X-642518Y1260449D01*
X-647242Y1261872D01*
X-650900Y1263345D01*
X-653491Y1264869D01*
X-655269Y1266545D01*
X-656539Y1268780D01*
X-657301Y1271625D01*
X-657555Y1275029D01*
X-653034Y1285341D01*
X-639521Y1288745D01*
X-630174Y1288237D01*
X-615899Y1286713D01*
X-615137Y1294333D01*
X-619201Y1295095D01*
X-630529Y1296416D01*
G37*
G36*
X-740359Y1295603D02*
G01*
X-740359Y1237691D01*
X-739902Y1231188D01*
X-738581Y1225702D01*
X-736346Y1221181D01*
X-733247Y1217625D01*
X-729081Y1214831D01*
X-724103Y1212850D01*
X-718159Y1211681D01*
X-711403Y1211275D01*
X-704697Y1211681D01*
X-698855Y1212850D01*
X-693928Y1214831D01*
X-689813Y1217625D01*
X-686562Y1221181D01*
X-684276Y1225702D01*
X-682904Y1231188D01*
X-682447Y1237691D01*
X-682447Y1295603D01*
X-691337Y1295603D01*
X-691337Y1237437D01*
X-691642Y1233068D01*
X-692658Y1229309D01*
X-694334Y1226210D01*
X-696671Y1223721D01*
X-699516Y1221841D01*
X-702919Y1220470D01*
X-706983Y1219657D01*
X-711657Y1219403D01*
X-726287Y1223924D01*
X-731215Y1237437D01*
X-731215Y1295603D01*
G37*
G36*
X-597611Y1295603D02*
G01*
X-597611Y1212545D01*
X-547065Y1212545D01*
X-547065Y1220673D01*
X-588213Y1220673D01*
X-588213Y1250645D01*
X-554177Y1250645D01*
X-554177Y1258773D01*
X-588213Y1258773D01*
X-588213Y1287475D01*
X-547065Y1287475D01*
X-547065Y1295603D01*
G37*
G36*
X-455371Y1295603D02*
G01*
X-455371Y1212545D01*
X-404825Y1212545D01*
X-404825Y1220673D01*
X-445973Y1220673D01*
X-445973Y1250645D01*
X-411937Y1250645D01*
X-411937Y1258773D01*
X-445973Y1258773D01*
X-445973Y1287475D01*
X-404825Y1287475D01*
X-404825Y1295603D01*
G37*
G36*
X-396951Y1295603D02*
G01*
X-371043Y1253185D01*
X-396951Y1212545D01*
X-386791Y1212545D01*
X-365709Y1246835D01*
X-344881Y1212545D01*
X-334213Y1212545D01*
X-359867Y1253439D01*
X-334213Y1295603D01*
X-344373Y1295603D01*
X-365455Y1260043D01*
X-386283Y1295603D01*
G37*
G36*
X-330657Y1295603D02*
G01*
X-330657Y1287221D01*
X-305003Y1287221D01*
X-305003Y1212545D01*
X-295859Y1212545D01*
X-295859Y1287221D01*
X-270713Y1287221D01*
X-270713Y1295603D01*
G37*
G36*
X-529031Y1201369D02*
G01*
X-529031Y1193495D01*
X-477723Y1193495D01*
X-477723Y1201369D01*
G37*
G36*
X-2971444Y-788873D02*
G01*
X-2971444Y-874979D01*
X-2962300Y-874979D01*
X-2962300Y-847547D01*
X-2952902Y-847039D01*
X-2935122Y-874979D01*
X-2924708Y-874979D01*
X-2945282Y-842467D01*
X-2925724Y-815035D01*
X-2935884Y-815035D01*
X-2952902Y-839165D01*
X-2962300Y-839673D01*
X-2962300Y-788873D01*
G37*
G36*
X-2854096Y-788873D02*
G01*
X-2854096Y-874979D01*
X-2845206Y-874979D01*
X-2845206Y-788873D01*
G37*
G36*
X-3209950Y-790651D02*
G01*
X-3214522Y-790854D01*
X-3218637Y-791362D01*
X-3222294Y-792226D01*
X-3225444Y-793445D01*
X-3228289Y-794918D01*
X-3230829Y-796798D01*
X-3233013Y-799134D01*
X-3234842Y-801827D01*
X-3236366Y-804875D01*
X-3237636Y-808075D01*
X-3238652Y-811479D01*
X-3239414Y-815035D01*
X-3240379Y-823468D01*
X-3240684Y-833577D01*
X-3240379Y-843787D01*
X-3239414Y-852119D01*
X-3238652Y-855726D01*
X-3237636Y-859028D01*
X-3236366Y-862177D01*
X-3234842Y-865073D01*
X-3233013Y-867816D01*
X-3230829Y-870102D01*
X-3228289Y-871982D01*
X-3225444Y-873455D01*
X-3222142Y-874674D01*
X-3218383Y-875537D01*
X-3214166Y-876096D01*
X-3209442Y-876249D01*
X-3204413Y-876096D01*
X-3199079Y-875639D01*
X-3187344Y-873709D01*
X-3187598Y-865835D01*
X-3198469Y-867359D01*
X-3203244Y-867765D01*
X-3211626Y-867765D01*
X-3215081Y-867359D01*
X-3218078Y-866749D01*
X-3220618Y-865835D01*
X-3222650Y-864768D01*
X-3224428Y-863295D01*
X-3225952Y-861466D01*
X-3227222Y-859231D01*
X-3229102Y-854405D01*
X-3230270Y-849071D01*
X-3230829Y-842365D01*
X-3231032Y-833831D01*
X-3229965Y-817575D01*
X-3226714Y-806907D01*
X-3224022Y-803452D01*
X-3220212Y-801014D01*
X-3215386Y-799541D01*
X-3209442Y-799033D01*
X-3199130Y-799541D01*
X-3187598Y-801065D01*
X-3187344Y-793445D01*
X-3193592Y-792226D01*
X-3199485Y-791362D01*
X-3204921Y-790854D01*
G37*
G36*
X-3315360Y-791921D02*
G01*
X-3315360Y-849833D01*
X-3314903Y-856335D01*
X-3313582Y-861821D01*
X-3311347Y-866394D01*
X-3308248Y-869899D01*
X-3304133Y-872693D01*
X-3299104Y-874674D01*
X-3293211Y-875842D01*
X-3286404Y-876249D01*
X-3279698Y-875842D01*
X-3273907Y-874674D01*
X-3268929Y-872693D01*
X-3264814Y-869899D01*
X-3261563Y-866394D01*
X-3259277Y-861821D01*
X-3257905Y-856335D01*
X-3257448Y-849833D01*
X-3257448Y-791921D01*
X-3266338Y-791921D01*
X-3266338Y-850087D01*
X-3266643Y-854456D01*
X-3267608Y-858215D01*
X-3269183Y-861314D01*
X-3271418Y-863803D01*
X-3274364Y-865682D01*
X-3277870Y-867054D01*
X-3281984Y-867867D01*
X-3286658Y-868121D01*
X-3301339Y-863600D01*
X-3306216Y-850087D01*
X-3306216Y-791921D01*
G37*
G36*
X-3145942Y-791921D02*
G01*
X-3145942Y-800049D01*
X-3115970Y-800049D01*
X-3112262Y-800252D01*
X-3109112Y-800862D01*
X-3106420Y-801928D01*
X-3104286Y-803351D01*
X-3102610Y-805281D01*
X-3101441Y-807669D01*
X-3100679Y-810615D01*
X-3100476Y-814019D01*
X-3100679Y-817473D01*
X-3101340Y-820521D01*
X-3102457Y-823061D01*
X-3104032Y-825195D01*
X-3106064Y-826769D01*
X-3108604Y-827887D01*
X-3111652Y-828548D01*
X-3115208Y-828751D01*
X-3136544Y-828751D01*
X-3136544Y-800049D01*
X-3145942Y-800049D01*
X-3145942Y-836879D01*
X-3115208Y-836879D01*
X-3112312Y-837031D01*
X-3109569Y-837437D01*
X-3104286Y-839165D01*
X-3102813Y-839927D01*
X-3101543Y-840943D01*
X-3100425Y-842213D01*
X-3099460Y-843737D01*
X-3098292Y-847191D01*
X-3097936Y-851357D01*
X-3098190Y-855370D01*
X-3098952Y-858672D01*
X-3100222Y-861314D01*
X-3102000Y-863295D01*
X-3104388Y-864869D01*
X-3107283Y-865987D01*
X-3110585Y-866648D01*
X-3114446Y-866851D01*
X-3136544Y-866851D01*
X-3136544Y-836879D01*
X-3145942Y-836879D01*
X-3145942Y-874979D01*
X-3114192Y-874979D01*
X-3108299Y-874674D01*
X-3103219Y-873658D01*
X-3098800Y-871982D01*
X-3095142Y-869645D01*
X-3092246Y-866546D01*
X-3090164Y-862482D01*
X-3088944Y-857503D01*
X-3088538Y-851611D01*
X-3091840Y-839216D01*
X-3101746Y-832053D01*
X-3099206Y-830681D01*
X-3097022Y-829056D01*
X-3095142Y-827278D01*
X-3093618Y-825195D01*
X-3092500Y-822807D01*
X-3091688Y-820013D01*
X-3091230Y-816711D01*
X-3091078Y-813003D01*
X-3091434Y-807923D01*
X-3092602Y-803554D01*
X-3094482Y-799896D01*
X-3097174Y-797001D01*
X-3100628Y-794766D01*
X-3104845Y-793191D01*
X-3109874Y-792226D01*
X-3115716Y-791921D01*
G37*
G36*
X-2681630Y-791921D02*
G01*
X-2681630Y-874979D01*
X-2631084Y-874979D01*
X-2631084Y-866851D01*
X-2672486Y-866851D01*
X-2672486Y-836879D01*
X-2638450Y-836879D01*
X-2638450Y-828751D01*
X-2672486Y-828751D01*
X-2672486Y-800049D01*
X-2631084Y-800049D01*
X-2631084Y-791921D01*
G37*
G36*
X-2615336Y-791921D02*
G01*
X-2615336Y-874979D01*
X-2564790Y-874979D01*
X-2564790Y-866851D01*
X-2606192Y-866851D01*
X-2606192Y-836879D01*
X-2571902Y-836879D01*
X-2571902Y-828751D01*
X-2606192Y-828751D01*
X-2606192Y-800049D01*
X-2564790Y-800049D01*
X-2564790Y-791921D01*
G37*
G36*
X-2433218Y-794715D02*
G01*
X-2439111Y-795172D01*
X-2444445Y-796442D01*
X-2449169Y-798576D01*
X-2453284Y-801573D01*
X-2456484Y-805434D01*
X-2458821Y-809955D01*
X-2460193Y-815086D01*
X-2460650Y-820877D01*
X-2450998Y-820877D01*
X-2450693Y-816914D01*
X-2449830Y-813409D01*
X-2448407Y-810310D01*
X-2446426Y-807669D01*
X-2443784Y-805586D01*
X-2440686Y-804062D01*
X-2437180Y-803148D01*
X-2433218Y-802843D01*
X-2424938Y-804722D01*
X-2418994Y-810260D01*
X-2415286Y-819556D01*
X-2413914Y-832561D01*
X-2421636Y-835050D01*
X-2426055Y-836066D01*
X-2430119Y-836676D01*
X-2433980Y-836879D01*
X-2446731Y-832866D01*
X-2450998Y-820877D01*
X-2460650Y-820877D01*
X-2459024Y-831443D01*
X-2454148Y-838962D01*
X-2446070Y-843534D01*
X-2434742Y-845007D01*
X-2430221Y-844753D01*
X-2425293Y-843889D01*
X-2419908Y-842467D01*
X-2414168Y-840435D01*
X-2415540Y-852576D01*
X-2419604Y-861212D01*
X-2426462Y-866394D01*
X-2436012Y-868121D01*
X-2446172Y-867765D01*
X-2456840Y-866597D01*
X-2457602Y-873963D01*
X-2449779Y-875284D01*
X-2440482Y-876147D01*
X-2436012Y-876249D01*
X-2422347Y-873912D01*
X-2412390Y-866851D01*
X-2406497Y-854811D01*
X-2404516Y-836879D01*
X-2406294Y-818591D01*
X-2411628Y-805383D01*
X-2420569Y-797407D01*
G37*
G36*
X-2494686Y-795731D02*
G01*
X-2519832Y-812495D01*
X-2515768Y-819607D01*
X-2495448Y-806145D01*
X-2495448Y-874979D01*
X-2486050Y-874979D01*
X-2486050Y-795731D01*
G37*
G36*
X-2370988Y-795731D02*
G01*
X-2393594Y-852373D01*
X-2393594Y-859485D01*
X-2355240Y-859485D01*
X-2355240Y-874979D01*
X-2345842Y-874979D01*
X-2345842Y-859485D01*
X-2335936Y-859485D01*
X-2335936Y-851357D01*
X-2345842Y-851357D01*
X-2345842Y-826719D01*
X-2355240Y-826719D01*
X-2355240Y-851357D01*
X-2383942Y-851357D01*
X-2360828Y-795731D01*
G37*
G36*
X-3050946Y-813765D02*
G01*
X-3061919Y-815746D01*
X-3069793Y-821639D01*
X-3074517Y-831494D01*
X-3075656Y-841451D01*
X-3067202Y-841451D01*
X-3066846Y-836625D01*
X-3065983Y-832459D01*
X-3064662Y-829005D01*
X-3062884Y-826211D01*
X-3060700Y-824128D01*
X-3058007Y-822604D01*
X-3054705Y-821690D01*
X-3050946Y-821385D01*
X-3047288Y-821690D01*
X-3044139Y-822553D01*
X-3041548Y-823976D01*
X-3039516Y-825957D01*
X-3037941Y-828649D01*
X-3036824Y-832103D01*
X-3036163Y-836421D01*
X-3035960Y-841451D01*
X-3075656Y-841451D01*
X-3076092Y-845261D01*
X-3075736Y-852728D01*
X-3074771Y-859129D01*
X-3073095Y-864412D01*
X-3070758Y-868629D01*
X-3067608Y-871982D01*
X-3063494Y-874369D01*
X-3058464Y-875792D01*
X-3052470Y-876249D01*
X-3047288Y-876147D01*
X-3035452Y-875131D01*
X-3028848Y-874217D01*
X-3029102Y-867105D01*
X-3032658Y-867613D01*
X-3041802Y-868171D01*
X-3050946Y-868375D01*
X-3055061Y-868070D01*
X-3058515Y-867156D01*
X-3061258Y-865682D01*
X-3063392Y-863549D01*
X-3064916Y-860806D01*
X-3066034Y-857453D01*
X-3066694Y-853440D01*
X-3066948Y-848817D01*
X-3027324Y-848817D01*
X-3026816Y-841959D01*
X-3027172Y-835101D01*
X-3028340Y-829259D01*
X-3030220Y-824433D01*
X-3032912Y-820623D01*
X-3036316Y-817625D01*
X-3040481Y-815492D01*
X-3045307Y-814222D01*
G37*
G36*
X-2982112Y-813765D02*
G01*
X-2987751Y-815238D01*
X-2993288Y-817270D01*
X-2998673Y-819912D01*
X-3003956Y-823163D01*
X-3003956Y-815035D01*
X-3012846Y-815035D01*
X-3012846Y-874979D01*
X-3003956Y-874979D01*
X-3003956Y-831037D01*
X-2999333Y-828598D01*
X-2995117Y-826719D01*
X-2989884Y-824788D01*
X-2984652Y-823366D01*
X-2982112Y-822909D01*
G37*
G36*
X-2892958Y-813765D02*
G01*
X-2903931Y-815746D01*
X-2911805Y-821639D01*
X-2916529Y-831494D01*
X-2917668Y-841451D01*
X-2908960Y-841451D01*
X-2908706Y-836625D01*
X-2907944Y-832459D01*
X-2906674Y-829005D01*
X-2904896Y-826211D01*
X-2902610Y-824128D01*
X-2899867Y-822604D01*
X-2896666Y-821690D01*
X-2892958Y-821385D01*
X-2889300Y-821690D01*
X-2886151Y-822553D01*
X-2883560Y-823976D01*
X-2881528Y-825957D01*
X-2879953Y-828649D01*
X-2878836Y-832103D01*
X-2878175Y-836421D01*
X-2877972Y-841451D01*
X-2917668Y-841451D01*
X-2918104Y-845261D01*
X-2917748Y-852728D01*
X-2916783Y-859129D01*
X-2915107Y-864412D01*
X-2912770Y-868629D01*
X-2909519Y-871982D01*
X-2905353Y-874369D01*
X-2900222Y-875792D01*
X-2894228Y-876249D01*
X-2889148Y-876147D01*
X-2877464Y-875131D01*
X-2870860Y-874217D01*
X-2871114Y-867105D01*
X-2874670Y-867613D01*
X-2883763Y-868171D01*
X-2892704Y-868375D01*
X-2896920Y-868070D01*
X-2900426Y-867156D01*
X-2903270Y-865682D01*
X-2905404Y-863549D01*
X-2906928Y-860806D01*
X-2908046Y-857453D01*
X-2908706Y-853440D01*
X-2908960Y-848817D01*
X-2869336Y-848817D01*
X-2868828Y-841959D01*
X-2869184Y-835101D01*
X-2870352Y-829259D01*
X-2872232Y-824433D01*
X-2874924Y-820623D01*
X-2878226Y-817625D01*
X-2882341Y-815492D01*
X-2887268Y-814222D01*
G37*
G36*
X-2804566Y-813765D02*
G01*
X-2815539Y-815746D01*
X-2823413Y-821639D01*
X-2828137Y-831494D01*
X-2829276Y-841451D01*
X-2820822Y-841451D01*
X-2820466Y-836625D01*
X-2819603Y-832459D01*
X-2818282Y-829005D01*
X-2816504Y-826211D01*
X-2814320Y-824128D01*
X-2811627Y-822604D01*
X-2808325Y-821690D01*
X-2804566Y-821385D01*
X-2800908Y-821690D01*
X-2797759Y-822553D01*
X-2795168Y-823976D01*
X-2793136Y-825957D01*
X-2791561Y-828649D01*
X-2790444Y-832103D01*
X-2789783Y-836421D01*
X-2789580Y-841451D01*
X-2829276Y-841451D01*
X-2829712Y-845261D01*
X-2829356Y-852728D01*
X-2828391Y-859129D01*
X-2826715Y-864412D01*
X-2824378Y-868629D01*
X-2821228Y-871982D01*
X-2817114Y-874369D01*
X-2812084Y-875792D01*
X-2806090Y-876249D01*
X-2800908Y-876147D01*
X-2789224Y-875131D01*
X-2782722Y-874217D01*
X-2782722Y-867105D01*
X-2786278Y-867613D01*
X-2795524Y-868171D01*
X-2804566Y-868375D01*
X-2808681Y-868070D01*
X-2812135Y-867156D01*
X-2814878Y-865682D01*
X-2817012Y-863549D01*
X-2818536Y-860806D01*
X-2819654Y-857453D01*
X-2820314Y-853440D01*
X-2820568Y-848817D01*
X-2780944Y-848817D01*
X-2780436Y-841959D01*
X-2780792Y-835101D01*
X-2781960Y-829259D01*
X-2783840Y-824433D01*
X-2786532Y-820623D01*
X-2789936Y-817625D01*
X-2794101Y-815492D01*
X-2798927Y-814222D01*
G37*
G36*
X-2773324Y-815035D02*
G01*
X-2756306Y-874979D01*
X-2747416Y-874979D01*
X-2755036Y-901649D01*
X-2746146Y-901649D01*
X-2721254Y-815035D01*
X-2730144Y-815035D01*
X-2745384Y-867105D01*
X-2749194Y-867105D01*
X-2764180Y-815035D01*
G37*
G36*
X-3224276Y-944371D02*
G01*
X-3236925Y-946708D01*
X-3245866Y-953769D01*
X-3251403Y-966673D01*
X-3253232Y-986028D01*
X-3253159Y-986790D01*
X-3243580Y-986790D01*
X-3241395Y-966266D01*
X-3234944Y-955548D01*
X-3232861Y-954328D01*
X-3230372Y-953465D01*
X-3227527Y-952906D01*
X-3224276Y-952753D01*
X-3219450Y-953211D01*
X-3215335Y-954582D01*
X-3211931Y-956919D01*
X-3209290Y-960119D01*
X-3206038Y-970076D01*
X-3204972Y-985774D01*
X-3206089Y-1001369D01*
X-3209544Y-1011174D01*
X-3212185Y-1014171D01*
X-3215538Y-1016304D01*
X-3219551Y-1017625D01*
X-3224276Y-1018032D01*
X-3228898Y-1017625D01*
X-3232861Y-1016304D01*
X-3236112Y-1014171D01*
X-3238754Y-1011174D01*
X-3242360Y-1001776D01*
X-3243580Y-986790D01*
X-3253159Y-986790D01*
X-3251403Y-1005128D01*
X-3245866Y-1017269D01*
X-3236772Y-1023924D01*
X-3224276Y-1026160D01*
X-3211626Y-1023924D01*
X-3202686Y-1017269D01*
X-3197148Y-1005128D01*
X-3195320Y-986536D01*
X-3196132Y-972616D01*
X-3198571Y-961593D01*
X-3202584Y-953414D01*
X-3208274Y-948182D01*
X-3211576Y-946505D01*
X-3215335Y-945337D01*
X-3219551Y-944626D01*
G37*
G36*
X-2716022Y-944371D02*
G01*
X-2728671Y-946708D01*
X-2737612Y-953769D01*
X-2742946Y-966673D01*
X-2744724Y-986028D01*
X-2744653Y-986790D01*
X-2735072Y-986790D01*
X-2732989Y-966266D01*
X-2726690Y-955548D01*
X-2724505Y-954328D01*
X-2721914Y-953465D01*
X-2719019Y-952906D01*
X-2715768Y-952753D01*
X-2711043Y-953211D01*
X-2707030Y-954582D01*
X-2703677Y-956919D01*
X-2701036Y-960119D01*
X-2697581Y-970076D01*
X-2696464Y-985774D01*
X-2697683Y-1001369D01*
X-2701290Y-1011174D01*
X-2703931Y-1014171D01*
X-2707182Y-1016304D01*
X-2711145Y-1017625D01*
X-2715768Y-1018032D01*
X-2720492Y-1017625D01*
X-2724505Y-1016304D01*
X-2727858Y-1014171D01*
X-2730500Y-1011174D01*
X-2733903Y-1001776D01*
X-2735072Y-986790D01*
X-2744653Y-986790D01*
X-2742946Y-1005128D01*
X-2737612Y-1017269D01*
X-2728468Y-1023924D01*
X-2715768Y-1026160D01*
X-2703271Y-1023924D01*
X-2694178Y-1017269D01*
X-2688844Y-1005128D01*
X-2687066Y-986536D01*
X-2687878Y-972616D01*
X-2690317Y-961593D01*
X-2694330Y-953414D01*
X-2700020Y-948182D01*
X-2703322Y-946505D01*
X-2707081Y-945337D01*
X-2711297Y-944626D01*
G37*
G36*
X-3292601Y-944626D02*
G01*
X-3298647Y-944829D01*
X-3304590Y-945438D01*
X-3310483Y-946505D01*
X-3316224Y-947928D01*
X-3315462Y-955548D01*
X-3307537Y-953922D01*
X-3303168Y-953262D01*
X-3294887Y-952753D01*
X-3290722Y-952957D01*
X-3287115Y-953566D01*
X-3284118Y-954633D01*
X-3281679Y-956056D01*
X-3279901Y-957884D01*
X-3278632Y-960221D01*
X-3277870Y-963218D01*
X-3277615Y-966724D01*
X-3277768Y-969010D01*
X-3278174Y-971245D01*
X-3278886Y-973429D01*
X-3280968Y-977798D01*
X-3283356Y-981608D01*
X-3290773Y-989888D01*
X-3316732Y-1017269D01*
X-3316732Y-1024890D01*
X-3266186Y-1024890D01*
X-3266186Y-1017016D01*
X-3305810Y-1017016D01*
X-3280511Y-991260D01*
X-3276904Y-987348D01*
X-3274009Y-983742D01*
X-3271774Y-980440D01*
X-3270199Y-977239D01*
X-3269081Y-973734D01*
X-3268421Y-969873D01*
X-3268217Y-965708D01*
X-3268573Y-960628D01*
X-3269742Y-956259D01*
X-3271672Y-952601D01*
X-3274314Y-949706D01*
X-3277768Y-947470D01*
X-3281934Y-945896D01*
X-3286861Y-944930D01*
G37*
G36*
X-3158236Y-944626D02*
G01*
X-3164281Y-944829D01*
X-3170174Y-945438D01*
X-3175965Y-946505D01*
X-3181604Y-947928D01*
X-3181096Y-955548D01*
X-3173120Y-953922D01*
X-3168650Y-953262D01*
X-3160522Y-952753D01*
X-3156356Y-952957D01*
X-3152749Y-953566D01*
X-3149752Y-954633D01*
X-3147314Y-956056D01*
X-3145536Y-957884D01*
X-3144266Y-960221D01*
X-3143504Y-963218D01*
X-3143250Y-966724D01*
X-3143758Y-971245D01*
X-3145282Y-975614D01*
X-3147720Y-979779D01*
X-3150362Y-983234D01*
X-3159252Y-992886D01*
X-3182366Y-1017269D01*
X-3182366Y-1024890D01*
X-3131566Y-1024890D01*
X-3131566Y-1017016D01*
X-3171444Y-1017016D01*
X-3146145Y-991260D01*
X-3142538Y-987348D01*
X-3139643Y-983742D01*
X-3137408Y-980440D01*
X-3135731Y-977239D01*
X-3134563Y-973734D01*
X-3133852Y-969873D01*
X-3133598Y-965708D01*
X-3134004Y-960628D01*
X-3135172Y-956259D01*
X-3137154Y-952601D01*
X-3139948Y-949706D01*
X-3143402Y-947470D01*
X-3147568Y-945896D01*
X-3152546Y-944930D01*
G37*
G36*
X-3090926Y-944626D02*
G01*
X-3096971Y-944829D01*
X-3102914Y-945438D01*
X-3108807Y-946505D01*
X-3114548Y-947928D01*
X-3113786Y-955548D01*
X-3106013Y-953922D01*
X-3101543Y-953262D01*
X-3093212Y-952753D01*
X-3089046Y-952957D01*
X-3085541Y-953566D01*
X-3082594Y-954633D01*
X-3080258Y-956056D01*
X-3078378Y-957884D01*
X-3077006Y-960221D01*
X-3076194Y-963218D01*
X-3075940Y-966724D01*
X-3076092Y-969010D01*
X-3076498Y-971245D01*
X-3077210Y-973429D01*
X-3079394Y-977798D01*
X-3081934Y-981608D01*
X-3089097Y-989888D01*
X-3115056Y-1017269D01*
X-3115056Y-1024890D01*
X-3064510Y-1024890D01*
X-3064510Y-1017016D01*
X-3104134Y-1017016D01*
X-3078835Y-991260D01*
X-3075279Y-987348D01*
X-3072485Y-983742D01*
X-3070352Y-980440D01*
X-3068675Y-977239D01*
X-3067507Y-973734D01*
X-3066796Y-969873D01*
X-3066542Y-965708D01*
X-3066897Y-960628D01*
X-3068066Y-956259D01*
X-3069996Y-952601D01*
X-3072638Y-949706D01*
X-3076143Y-947470D01*
X-3080359Y-945896D01*
X-3085287Y-944930D01*
G37*
G36*
X-2903982Y-944626D02*
G01*
X-2910027Y-944829D01*
X-2915970Y-945438D01*
X-2921863Y-946505D01*
X-2927604Y-947928D01*
X-2926842Y-955548D01*
X-2919069Y-953922D01*
X-2914599Y-953262D01*
X-2906268Y-952753D01*
X-2902102Y-952957D01*
X-2898597Y-953566D01*
X-2895650Y-954633D01*
X-2893314Y-956056D01*
X-2891434Y-957884D01*
X-2890062Y-960221D01*
X-2889250Y-963218D01*
X-2888996Y-966724D01*
X-2889148Y-969010D01*
X-2889554Y-971245D01*
X-2890266Y-973429D01*
X-2892450Y-977798D01*
X-2894838Y-981608D01*
X-2902153Y-989888D01*
X-2928112Y-1017269D01*
X-2928112Y-1024890D01*
X-2877566Y-1024890D01*
X-2877566Y-1017016D01*
X-2917190Y-1017016D01*
X-2891891Y-991260D01*
X-2888284Y-987348D01*
X-2885389Y-983742D01*
X-2883154Y-980440D01*
X-2881579Y-977239D01*
X-2880512Y-973734D01*
X-2879801Y-969873D01*
X-2879598Y-965708D01*
X-2880004Y-960628D01*
X-2881122Y-956259D01*
X-2883052Y-952601D01*
X-2885694Y-949706D01*
X-2889097Y-947470D01*
X-2893314Y-945896D01*
X-2898292Y-944930D01*
G37*
G36*
X-2784348Y-944626D02*
G01*
X-2790291Y-944829D01*
X-2796184Y-945438D01*
X-2801975Y-946505D01*
X-2807716Y-947928D01*
X-2806954Y-955548D01*
X-2799181Y-953922D01*
X-2794762Y-953262D01*
X-2786634Y-952753D01*
X-2782468Y-952957D01*
X-2778861Y-953566D01*
X-2775864Y-954633D01*
X-2773426Y-956056D01*
X-2771648Y-957884D01*
X-2770378Y-960221D01*
X-2769616Y-963218D01*
X-2769362Y-966724D01*
X-2769870Y-971245D01*
X-2770479Y-973429D01*
X-2772562Y-977798D01*
X-2775102Y-981608D01*
X-2782366Y-989888D01*
X-2808478Y-1017269D01*
X-2808478Y-1024890D01*
X-2757678Y-1024890D01*
X-2757678Y-1017016D01*
X-2797556Y-1017016D01*
X-2772257Y-991260D01*
X-2768650Y-987348D01*
X-2765755Y-983742D01*
X-2763520Y-980440D01*
X-2761843Y-977239D01*
X-2760675Y-973734D01*
X-2759964Y-969873D01*
X-2759710Y-965708D01*
X-2760116Y-960628D01*
X-2761284Y-956259D01*
X-2763266Y-952601D01*
X-2766060Y-949706D01*
X-2769463Y-947470D01*
X-2773680Y-945896D01*
X-2778607Y-944930D01*
G37*
G36*
X-2965704Y-945896D02*
G01*
X-2990850Y-962660D01*
X-2986532Y-969518D01*
X-2966212Y-956056D01*
X-2966212Y-1024890D01*
X-2957068Y-1024890D01*
X-2957068Y-945896D01*
G37*
G36*
X-3048000Y-987806D02*
G01*
X-3048000Y-996187D01*
X-3011678Y-996187D01*
X-3011678Y-987806D01*
G37*
G36*
X-2861056Y-987806D02*
G01*
X-2861056Y-996187D01*
X-2824734Y-996187D01*
X-2824734Y-987806D01*
G37*
G36*
X-2467610Y-1138732D02*
G01*
X-2467610Y-1225092D01*
X-2458720Y-1225092D01*
X-2458720Y-1138732D01*
G37*
G36*
X-3292348Y-1140764D02*
G01*
X-3304133Y-1142136D01*
X-3312515Y-1146302D01*
X-3317595Y-1153210D01*
X-3319272Y-1162862D01*
X-3318916Y-1168044D01*
X-3317798Y-1172464D01*
X-3315970Y-1176070D01*
X-3313429Y-1178864D01*
X-3309975Y-1181150D01*
X-3305505Y-1183182D01*
X-3299968Y-1184960D01*
X-3288436Y-1187653D01*
X-3284423Y-1188872D01*
X-3281222Y-1190193D01*
X-3278886Y-1191564D01*
X-3277209Y-1193292D01*
X-3276041Y-1195476D01*
X-3275329Y-1198118D01*
X-3275076Y-1201216D01*
X-3279444Y-1213764D01*
X-3292601Y-1217980D01*
X-3303168Y-1217422D01*
X-3317494Y-1215694D01*
X-3318510Y-1223568D01*
X-3307892Y-1224940D01*
X-3296970Y-1225956D01*
X-3292348Y-1226108D01*
X-3280664Y-1224483D01*
X-3272332Y-1219708D01*
X-3267354Y-1211681D01*
X-3265678Y-1200454D01*
X-3266033Y-1195730D01*
X-3266998Y-1191666D01*
X-3268675Y-1188364D01*
X-3271012Y-1185722D01*
X-3274161Y-1183538D01*
X-3278174Y-1181608D01*
X-3283153Y-1179880D01*
X-3294786Y-1176934D01*
X-3299460Y-1175562D01*
X-3303117Y-1174140D01*
X-3305810Y-1172768D01*
X-3307587Y-1171041D01*
X-3308858Y-1168755D01*
X-3309620Y-1165860D01*
X-3309874Y-1162354D01*
X-3305352Y-1152245D01*
X-3291840Y-1148892D01*
X-3282492Y-1149400D01*
X-3268217Y-1150924D01*
X-3267456Y-1143050D01*
X-3277412Y-1141780D01*
X-3287826Y-1140866D01*
G37*
G36*
X-3220466Y-1140764D02*
G01*
X-3235960Y-1143406D01*
X-3245866Y-1151432D01*
X-3251403Y-1164894D01*
X-3253232Y-1183944D01*
X-3243580Y-1183944D01*
X-3242360Y-1168146D01*
X-3238754Y-1157274D01*
X-3235807Y-1153617D01*
X-3231794Y-1150975D01*
X-3226663Y-1149400D01*
X-3220466Y-1148892D01*
X-3214268Y-1149400D01*
X-3209086Y-1150975D01*
X-3204972Y-1153617D01*
X-3201924Y-1157274D01*
X-3198317Y-1168196D01*
X-3197098Y-1184198D01*
X-3198317Y-1199896D01*
X-3201924Y-1210360D01*
X-3204768Y-1213713D01*
X-3208782Y-1216050D01*
X-3213912Y-1217523D01*
X-3220212Y-1217980D01*
X-3226511Y-1217472D01*
X-3231692Y-1215999D01*
X-3235807Y-1213561D01*
X-3238754Y-1210106D01*
X-3242360Y-1199489D01*
X-3243580Y-1183944D01*
X-3253232Y-1183944D01*
X-3251453Y-1202842D01*
X-3246120Y-1215948D01*
X-3236061Y-1223568D01*
X-3220212Y-1226108D01*
X-3204514Y-1223619D01*
X-3194558Y-1216202D01*
X-3189224Y-1203248D01*
X-3187446Y-1184198D01*
X-3189274Y-1164844D01*
X-3194812Y-1151432D01*
X-3204768Y-1143406D01*
G37*
G36*
X-2776728Y-1140764D02*
G01*
X-2792272Y-1143406D01*
X-2802382Y-1151432D01*
X-2807716Y-1164894D01*
X-2809494Y-1183944D01*
X-2800096Y-1183944D01*
X-2798826Y-1168146D01*
X-2795016Y-1157274D01*
X-2792069Y-1153617D01*
X-2788056Y-1150975D01*
X-2782925Y-1149400D01*
X-2776728Y-1148892D01*
X-2770530Y-1149400D01*
X-2765399Y-1150975D01*
X-2761386Y-1153617D01*
X-2758440Y-1157274D01*
X-2754630Y-1168196D01*
X-2753360Y-1184198D01*
X-2754579Y-1199896D01*
X-2758186Y-1210360D01*
X-2761132Y-1213713D01*
X-2765247Y-1216050D01*
X-2770428Y-1217523D01*
X-2776728Y-1217980D01*
X-2783027Y-1217472D01*
X-2788208Y-1215999D01*
X-2792323Y-1213561D01*
X-2795270Y-1210106D01*
X-2798876Y-1199489D01*
X-2800096Y-1183944D01*
X-2809494Y-1183944D01*
X-2807716Y-1202842D01*
X-2802382Y-1215948D01*
X-2792425Y-1223568D01*
X-2776728Y-1226108D01*
X-2760827Y-1223619D01*
X-2750820Y-1216202D01*
X-2745486Y-1203248D01*
X-2743708Y-1184198D01*
X-2745536Y-1164844D01*
X-2751074Y-1151432D01*
X-2761183Y-1143406D01*
G37*
G36*
X-3170428Y-1142034D02*
G01*
X-3170428Y-1150162D01*
X-3140964Y-1150162D01*
X-3137916Y-1150315D01*
X-3135122Y-1150721D01*
X-3132582Y-1151432D01*
X-3130296Y-1152448D01*
X-3122320Y-1162812D01*
X-3119628Y-1182166D01*
X-3120948Y-1197406D01*
X-3124962Y-1208278D01*
X-3131616Y-1214780D01*
X-3140964Y-1216964D01*
X-3161284Y-1216964D01*
X-3161284Y-1150162D01*
X-3170428Y-1150162D01*
X-3170428Y-1225092D01*
X-3140964Y-1225092D01*
X-3136696Y-1224889D01*
X-3132734Y-1224280D01*
X-3129076Y-1223213D01*
X-3125724Y-1221790D01*
X-3118967Y-1216253D01*
X-3114090Y-1207820D01*
X-3111195Y-1196441D01*
X-3110230Y-1182166D01*
X-3110484Y-1175054D01*
X-3111195Y-1168654D01*
X-3112363Y-1162964D01*
X-3114040Y-1158036D01*
X-3124098Y-1146048D01*
X-3140964Y-1142034D01*
G37*
G36*
X-3093212Y-1142034D02*
G01*
X-3093212Y-1225092D01*
X-3083814Y-1225092D01*
X-3083814Y-1142034D01*
G37*
G36*
X-3063748Y-1142034D02*
G01*
X-3063748Y-1225092D01*
X-3054350Y-1225092D01*
X-3054350Y-1151686D01*
X-3052826Y-1151686D01*
X-3028696Y-1222044D01*
X-3018282Y-1222044D01*
X-2994152Y-1151686D01*
X-2992374Y-1151686D01*
X-2992374Y-1225092D01*
X-2983230Y-1225092D01*
X-2983230Y-1142034D01*
X-2999994Y-1142034D01*
X-3023362Y-1212138D01*
X-3046984Y-1142034D01*
G37*
G36*
X-2962910Y-1142034D02*
G01*
X-2962910Y-1225092D01*
X-2953512Y-1225092D01*
X-2953512Y-1151686D01*
X-2951988Y-1151686D01*
X-2927858Y-1222044D01*
X-2917444Y-1222044D01*
X-2893314Y-1151686D01*
X-2891790Y-1151686D01*
X-2891790Y-1225092D01*
X-2882392Y-1225092D01*
X-2882392Y-1142034D01*
X-2899156Y-1142034D01*
X-2922524Y-1212138D01*
X-2946146Y-1142034D01*
G37*
G36*
X-2835656Y-1142034D02*
G01*
X-2835656Y-1225092D01*
X-2826512Y-1225092D01*
X-2826512Y-1142034D01*
G37*
G36*
X-2700528Y-1142034D02*
G01*
X-2700528Y-1225092D01*
X-2654808Y-1225092D01*
X-2654808Y-1216710D01*
X-2691384Y-1216710D01*
X-2691384Y-1142034D01*
G37*
G36*
X-2259584Y-1142034D02*
G01*
X-2237994Y-1225092D01*
X-2217166Y-1225092D01*
X-2195576Y-1142034D01*
X-2205228Y-1142034D01*
X-2224278Y-1216964D01*
X-2230882Y-1216964D01*
X-2249932Y-1142034D01*
G37*
G36*
X-2296414Y-1144574D02*
G01*
X-2302662Y-1144879D01*
X-2308148Y-1145844D01*
X-2312924Y-1147419D01*
X-2316988Y-1149654D01*
X-2320340Y-1152601D01*
X-2322677Y-1156106D01*
X-2324150Y-1160221D01*
X-2324608Y-1164894D01*
X-2324531Y-1166164D01*
X-2314702Y-1166164D01*
X-2310079Y-1156258D01*
X-2296160Y-1152956D01*
X-2282240Y-1156258D01*
X-2277618Y-1166164D01*
X-2277821Y-1168704D01*
X-2278380Y-1170990D01*
X-2279345Y-1173022D01*
X-2280666Y-1174800D01*
X-2282494Y-1176274D01*
X-2284730Y-1177594D01*
X-2287320Y-1178814D01*
X-2290318Y-1179880D01*
X-2303018Y-1179880D01*
X-2308148Y-1177544D01*
X-2310231Y-1176121D01*
X-2311908Y-1174546D01*
X-2313127Y-1172768D01*
X-2313990Y-1170787D01*
X-2314549Y-1168603D01*
X-2314702Y-1166164D01*
X-2324531Y-1166164D01*
X-2324404Y-1168247D01*
X-2323846Y-1171295D01*
X-2322880Y-1173988D01*
X-2321560Y-1176324D01*
X-2319934Y-1178306D01*
X-2317800Y-1180185D01*
X-2315210Y-1181963D01*
X-2312162Y-1183690D01*
X-2315464Y-1185621D01*
X-2318308Y-1187602D01*
X-2320696Y-1189685D01*
X-2322576Y-1191818D01*
X-2323998Y-1194358D01*
X-2325065Y-1197356D01*
X-2325674Y-1200810D01*
X-2325799Y-1203248D01*
X-2315972Y-1203248D01*
X-2315768Y-1200251D01*
X-2315159Y-1197610D01*
X-2314092Y-1195273D01*
X-2312670Y-1193342D01*
X-2310942Y-1191666D01*
X-2308707Y-1190244D01*
X-2306116Y-1189024D01*
X-2303018Y-1188008D01*
X-2290318Y-1188008D01*
X-2287117Y-1189075D01*
X-2284272Y-1190294D01*
X-2281885Y-1191615D01*
X-2279904Y-1193088D01*
X-2278329Y-1194816D01*
X-2277262Y-1196949D01*
X-2276551Y-1199489D01*
X-2276348Y-1202486D01*
X-2281275Y-1213916D01*
X-2296160Y-1217726D01*
X-2310993Y-1214120D01*
X-2315972Y-1203248D01*
X-2325799Y-1203248D01*
X-2325878Y-1204772D01*
X-2323998Y-1214120D01*
X-2318461Y-1220774D01*
X-2309164Y-1224788D01*
X-2296160Y-1226108D01*
X-2283155Y-1224686D01*
X-2273858Y-1220470D01*
X-2268321Y-1213408D01*
X-2266442Y-1203502D01*
X-2266645Y-1199794D01*
X-2267305Y-1196492D01*
X-2268423Y-1193698D01*
X-2269998Y-1191310D01*
X-2272030Y-1189126D01*
X-2274519Y-1187094D01*
X-2277465Y-1185316D01*
X-2280920Y-1183690D01*
X-2277516Y-1182014D01*
X-2274722Y-1180236D01*
X-2272436Y-1178458D01*
X-2270760Y-1176578D01*
X-2269439Y-1174343D01*
X-2268474Y-1171702D01*
X-2267915Y-1168603D01*
X-2267712Y-1165148D01*
X-2268169Y-1160373D01*
X-2269642Y-1156208D01*
X-2271979Y-1152601D01*
X-2275332Y-1149654D01*
X-2279599Y-1147419D01*
X-2284526Y-1145844D01*
X-2290165Y-1144879D01*
G37*
G36*
X-2384806Y-1145844D02*
G01*
X-2409952Y-1162608D01*
X-2405888Y-1169466D01*
X-2385314Y-1156004D01*
X-2385314Y-1225092D01*
X-2376170Y-1225092D01*
X-2376170Y-1145844D01*
G37*
G36*
X-2622804Y-1163878D02*
G01*
X-2633827Y-1165860D01*
X-2641650Y-1171752D01*
X-2646375Y-1181608D01*
X-2647514Y-1191564D01*
X-2638806Y-1191564D01*
X-2638552Y-1186586D01*
X-2637790Y-1182370D01*
X-2636520Y-1178864D01*
X-2634742Y-1176070D01*
X-2632456Y-1173937D01*
X-2629712Y-1172464D01*
X-2626512Y-1171549D01*
X-2622804Y-1171244D01*
X-2619044Y-1171549D01*
X-2615844Y-1172362D01*
X-2613202Y-1173835D01*
X-2611120Y-1175816D01*
X-2609545Y-1178509D01*
X-2608427Y-1182014D01*
X-2607767Y-1186383D01*
X-2607564Y-1191564D01*
X-2647514Y-1191564D01*
X-2647950Y-1195374D01*
X-2647594Y-1202740D01*
X-2646578Y-1209090D01*
X-2644800Y-1214424D01*
X-2642362Y-1218742D01*
X-2639212Y-1221943D01*
X-2635148Y-1224280D01*
X-2630068Y-1225651D01*
X-2624074Y-1226108D01*
X-2613406Y-1225651D01*
X-2600706Y-1224330D01*
X-2600960Y-1217218D01*
X-2618079Y-1218184D01*
X-2622550Y-1218234D01*
X-2626664Y-1217930D01*
X-2630119Y-1217015D01*
X-2632862Y-1215491D01*
X-2634996Y-1213408D01*
X-2636672Y-1210665D01*
X-2637840Y-1207312D01*
X-2638552Y-1203299D01*
X-2638806Y-1198676D01*
X-2599182Y-1198676D01*
X-2598674Y-1191818D01*
X-2599029Y-1185062D01*
X-2600147Y-1179220D01*
X-2601976Y-1174394D01*
X-2604516Y-1170482D01*
X-2607970Y-1167587D01*
X-2612136Y-1165504D01*
X-2617114Y-1164285D01*
G37*
G36*
X-2506472Y-1163878D02*
G01*
X-2517495Y-1165860D01*
X-2525318Y-1171752D01*
X-2530043Y-1181608D01*
X-2531182Y-1191564D01*
X-2522474Y-1191564D01*
X-2522220Y-1186586D01*
X-2521458Y-1182370D01*
X-2520188Y-1178864D01*
X-2518410Y-1176070D01*
X-2516124Y-1173937D01*
X-2513380Y-1172464D01*
X-2510180Y-1171549D01*
X-2506472Y-1171244D01*
X-2502712Y-1171549D01*
X-2499512Y-1172362D01*
X-2496870Y-1173835D01*
X-2494788Y-1175816D01*
X-2493213Y-1178509D01*
X-2492095Y-1182014D01*
X-2491435Y-1186383D01*
X-2491232Y-1191564D01*
X-2531182Y-1191564D01*
X-2531618Y-1195374D01*
X-2531262Y-1202740D01*
X-2530246Y-1209090D01*
X-2528468Y-1214424D01*
X-2526030Y-1218742D01*
X-2522880Y-1221943D01*
X-2518765Y-1224280D01*
X-2513736Y-1225651D01*
X-2507742Y-1226108D01*
X-2497074Y-1225651D01*
X-2484374Y-1224330D01*
X-2484628Y-1217218D01*
X-2501747Y-1218184D01*
X-2506218Y-1218234D01*
X-2510332Y-1217930D01*
X-2513838Y-1217015D01*
X-2516682Y-1215491D01*
X-2518918Y-1213408D01*
X-2520492Y-1210665D01*
X-2521610Y-1207312D01*
X-2522270Y-1203299D01*
X-2522474Y-1198676D01*
X-2482850Y-1198676D01*
X-2482342Y-1191818D01*
X-2482697Y-1185062D01*
X-2483866Y-1179220D01*
X-2485796Y-1174394D01*
X-2488438Y-1170482D01*
X-2491740Y-1167587D01*
X-2495854Y-1165504D01*
X-2500782Y-1164285D01*
G37*
G36*
X-2591308Y-1164894D02*
G01*
X-2574290Y-1225092D01*
X-2556256Y-1225092D01*
X-2539238Y-1164894D01*
X-2548636Y-1164894D01*
X-2563114Y-1217218D01*
X-2567432Y-1217218D01*
X-2581656Y-1164894D01*
G37*
G36*
X-2347468Y-1211376D02*
G01*
X-2347468Y-1225092D01*
X-2337816Y-1225092D01*
X-2337816Y-1211376D01*
G37*
G36*
X-2961030Y-1288796D02*
G01*
X-2961030Y-1315466D01*
X-2968701Y-1314145D01*
X-2976016Y-1313688D01*
X-2982264Y-1314196D01*
X-2987497Y-1315669D01*
X-2991764Y-1318107D01*
X-2995066Y-1321562D01*
X-2999435Y-1331671D01*
X-3000783Y-1345438D01*
X-2991764Y-1345438D01*
X-2991561Y-1339748D01*
X-2990900Y-1334820D01*
X-2989783Y-1330706D01*
X-2988208Y-1327404D01*
X-2986074Y-1324864D01*
X-2983280Y-1323035D01*
X-2979724Y-1321917D01*
X-2975508Y-1321562D01*
X-2968599Y-1321917D01*
X-2961030Y-1323086D01*
X-2961030Y-1363726D01*
X-2968142Y-1366520D01*
X-2972257Y-1367485D01*
X-2976067Y-1367993D01*
X-2979470Y-1367993D01*
X-2982264Y-1367586D01*
X-2984500Y-1366774D01*
X-2986532Y-1365250D01*
X-2987446Y-1364234D01*
X-2989326Y-1361236D01*
X-2990697Y-1357122D01*
X-2991510Y-1351838D01*
X-2991764Y-1345438D01*
X-3000783Y-1345438D01*
X-3000908Y-1346708D01*
X-2999333Y-1361440D01*
X-2994558Y-1370584D01*
X-2992983Y-1372108D01*
X-2991307Y-1373327D01*
X-2989580Y-1374241D01*
X-2985820Y-1375460D01*
X-2981655Y-1376070D01*
X-2979318Y-1376172D01*
X-2974848Y-1375816D01*
X-2970326Y-1374851D01*
X-2965704Y-1373174D01*
X-2961030Y-1370838D01*
X-2961030Y-1374902D01*
X-2952394Y-1374902D01*
X-2952394Y-1288796D01*
G37*
G36*
X-2538882Y-1288796D02*
G01*
X-2538882Y-1374902D01*
X-2529992Y-1374902D01*
X-2529992Y-1288796D01*
G37*
G36*
X-3134512Y-1290828D02*
G01*
X-3139135Y-1290980D01*
X-3143300Y-1291437D01*
X-3147009Y-1292250D01*
X-3150260Y-1293368D01*
X-3153003Y-1294942D01*
X-3155442Y-1296873D01*
X-3157575Y-1299108D01*
X-3159404Y-1301750D01*
X-3160928Y-1304747D01*
X-3162198Y-1307947D01*
X-3163214Y-1311351D01*
X-3163976Y-1314958D01*
X-3164941Y-1323390D01*
X-3165246Y-1333500D01*
X-3164941Y-1343710D01*
X-3163976Y-1352042D01*
X-3163214Y-1355598D01*
X-3162198Y-1358950D01*
X-3160928Y-1362100D01*
X-3159404Y-1364996D01*
X-3157575Y-1367739D01*
X-3155391Y-1370076D01*
X-3152902Y-1372057D01*
X-3150006Y-1373632D01*
X-3146755Y-1374749D01*
X-3142996Y-1375511D01*
X-3138881Y-1376019D01*
X-3134258Y-1376172D01*
X-3129127Y-1376019D01*
X-3117951Y-1374749D01*
X-3111906Y-1373632D01*
X-3112414Y-1365758D01*
X-3123082Y-1367485D01*
X-3132226Y-1368044D01*
X-3139795Y-1367536D01*
X-3142742Y-1366875D01*
X-3145180Y-1366012D01*
X-3147212Y-1364843D01*
X-3148990Y-1363319D01*
X-3150514Y-1361541D01*
X-3151784Y-1359408D01*
X-3153714Y-1354531D01*
X-3154832Y-1348994D01*
X-3155391Y-1342237D01*
X-3155594Y-1333754D01*
X-3154578Y-1317498D01*
X-3151530Y-1306830D01*
X-3148838Y-1303375D01*
X-3144977Y-1300937D01*
X-3140049Y-1299464D01*
X-3134004Y-1298956D01*
X-3123793Y-1299514D01*
X-3118256Y-1300226D01*
X-3112414Y-1301242D01*
X-3111906Y-1293368D01*
X-3124047Y-1291437D01*
X-3129483Y-1290980D01*
G37*
G36*
X-2848000Y-1290828D02*
G01*
X-2863545Y-1293469D01*
X-2873654Y-1301496D01*
X-2878988Y-1314805D01*
X-2880742Y-1333754D01*
X-2871368Y-1333754D01*
X-2870098Y-1318107D01*
X-2866288Y-1307338D01*
X-2863342Y-1303680D01*
X-2859278Y-1301038D01*
X-2854198Y-1299464D01*
X-2848000Y-1298956D01*
X-2841802Y-1299464D01*
X-2836722Y-1301038D01*
X-2832658Y-1303680D01*
X-2829712Y-1307338D01*
X-2825902Y-1318209D01*
X-2824632Y-1334008D01*
X-2825851Y-1349806D01*
X-2829458Y-1360170D01*
X-2832404Y-1363624D01*
X-2836519Y-1366062D01*
X-2841701Y-1367536D01*
X-2848000Y-1368044D01*
X-2854299Y-1367536D01*
X-2859481Y-1366062D01*
X-2863596Y-1363624D01*
X-2866542Y-1360170D01*
X-2870149Y-1349502D01*
X-2871368Y-1333754D01*
X-2880742Y-1333754D01*
X-2878988Y-1352905D01*
X-2873654Y-1366012D01*
X-2863697Y-1373632D01*
X-2848000Y-1376172D01*
X-2832150Y-1373682D01*
X-2822092Y-1366266D01*
X-2816961Y-1353261D01*
X-2815234Y-1334008D01*
X-2817012Y-1314754D01*
X-2822346Y-1301242D01*
X-2832455Y-1293418D01*
G37*
G36*
X-3323488Y-1291844D02*
G01*
X-3323488Y-1300226D01*
X-3297834Y-1300226D01*
X-3297834Y-1374902D01*
X-3288690Y-1374902D01*
X-3288690Y-1300226D01*
X-3263544Y-1300226D01*
X-3263544Y-1291844D01*
G37*
G36*
X-3251606Y-1291844D02*
G01*
X-3251606Y-1374902D01*
X-3242462Y-1374902D01*
X-3242462Y-1340612D01*
X-3208172Y-1340612D01*
X-3208172Y-1332484D01*
X-3242462Y-1332484D01*
X-3242462Y-1300226D01*
X-3202076Y-1300226D01*
X-3202076Y-1291844D01*
G37*
G36*
X-2906928Y-1291844D02*
G01*
X-2906928Y-1374902D01*
X-2897784Y-1374902D01*
X-2897784Y-1291844D01*
G37*
G36*
X-2771800Y-1291844D02*
G01*
X-2771800Y-1374902D01*
X-2726080Y-1374902D01*
X-2726080Y-1366774D01*
X-2762656Y-1366774D01*
X-2762656Y-1291844D01*
G37*
G36*
X-2330856Y-1291844D02*
G01*
X-2309266Y-1374902D01*
X-2288438Y-1374902D01*
X-2266848Y-1291844D01*
X-2276500Y-1291844D01*
X-2295550Y-1366774D01*
X-2302154Y-1366774D01*
X-2321204Y-1291844D01*
G37*
G36*
X-2461412Y-1294384D02*
G01*
X-2467660Y-1294587D01*
X-2473807Y-1295247D01*
X-2479751Y-1296365D01*
X-2485542Y-1297940D01*
X-2484526Y-1305052D01*
X-2476754Y-1303782D01*
X-2467254Y-1302867D01*
X-2462428Y-1302766D01*
X-2458415Y-1302969D01*
X-2455011Y-1303528D01*
X-2452166Y-1304493D01*
X-2449982Y-1305814D01*
X-2448407Y-1307439D01*
X-2447340Y-1309573D01*
X-2446629Y-1312164D01*
X-2446426Y-1315212D01*
X-2446731Y-1318361D01*
X-2447544Y-1321155D01*
X-2449017Y-1323695D01*
X-2450998Y-1325880D01*
X-2453436Y-1327658D01*
X-2455824Y-1328928D01*
X-2458262Y-1329690D01*
X-2460650Y-1329944D01*
X-2476652Y-1329944D01*
X-2476652Y-1337818D01*
X-2460650Y-1337818D01*
X-2448458Y-1341831D01*
X-2444394Y-1352804D01*
X-2448712Y-1364234D01*
X-2461666Y-1368044D01*
X-2467356Y-1367891D01*
X-2479446Y-1366621D01*
X-2485796Y-1365504D01*
X-2486558Y-1372870D01*
X-2483002Y-1373886D01*
X-2477211Y-1374902D01*
X-2471572Y-1375613D01*
X-2460650Y-1376172D01*
X-2454402Y-1375816D01*
X-2449017Y-1374698D01*
X-2444597Y-1372870D01*
X-2441092Y-1370330D01*
X-2438450Y-1367028D01*
X-2436520Y-1362913D01*
X-2435402Y-1357985D01*
X-2434996Y-1352296D01*
X-2435199Y-1348181D01*
X-2435809Y-1344676D01*
X-2436876Y-1341831D01*
X-2438298Y-1339596D01*
X-2440178Y-1337665D01*
X-2442565Y-1335989D01*
X-2445410Y-1334516D01*
X-2448712Y-1333246D01*
X-2444343Y-1330350D01*
X-2442413Y-1328775D01*
X-2440279Y-1326184D01*
X-2439009Y-1324254D01*
X-2437638Y-1321612D01*
X-2436876Y-1317701D01*
X-2436774Y-1315212D01*
X-2437130Y-1310132D01*
X-2438247Y-1305814D01*
X-2440076Y-1302258D01*
X-2442616Y-1299464D01*
X-2445969Y-1297228D01*
X-2450236Y-1295654D01*
X-2455367Y-1294688D01*
G37*
G36*
X-2368194Y-1294384D02*
G01*
X-2374544Y-1294587D01*
X-2380691Y-1295247D01*
X-2386634Y-1296365D01*
X-2392324Y-1297940D01*
X-2391562Y-1305052D01*
X-2383790Y-1303782D01*
X-2374290Y-1302867D01*
X-2369464Y-1302766D01*
X-2365349Y-1302969D01*
X-2361895Y-1303528D01*
X-2359152Y-1304493D01*
X-2357018Y-1305814D01*
X-2355342Y-1307439D01*
X-2354173Y-1309573D01*
X-2353462Y-1312164D01*
X-2353208Y-1315212D01*
X-2353513Y-1318361D01*
X-2354427Y-1321155D01*
X-2355900Y-1323695D01*
X-2358034Y-1325880D01*
X-2360371Y-1327658D01*
X-2362708Y-1328928D01*
X-2365197Y-1329690D01*
X-2367686Y-1329944D01*
X-2383688Y-1329944D01*
X-2383688Y-1337818D01*
X-2367686Y-1337818D01*
X-2355494Y-1341831D01*
X-2351430Y-1352804D01*
X-2355697Y-1364234D01*
X-2368448Y-1368044D01*
X-2374239Y-1367891D01*
X-2386431Y-1366621D01*
X-2392832Y-1365504D01*
X-2393594Y-1372870D01*
X-2389784Y-1373886D01*
X-2383993Y-1374902D01*
X-2378354Y-1375613D01*
X-2367432Y-1376172D01*
X-2361285Y-1375816D01*
X-2356002Y-1374698D01*
X-2351633Y-1372870D01*
X-2348128Y-1370330D01*
X-2345334Y-1367028D01*
X-2343353Y-1362913D01*
X-2342184Y-1357985D01*
X-2341778Y-1352296D01*
X-2341981Y-1348181D01*
X-2342591Y-1344676D01*
X-2343658Y-1341831D01*
X-2345080Y-1339596D01*
X-2347061Y-1337665D01*
X-2349449Y-1335989D01*
X-2352294Y-1334516D01*
X-2355494Y-1333246D01*
X-2351227Y-1330350D01*
X-2349296Y-1328775D01*
X-2347214Y-1326184D01*
X-2344674Y-1321612D01*
X-2344166Y-1319834D01*
X-2343810Y-1315212D01*
X-2344166Y-1310132D01*
X-2345182Y-1305814D01*
X-2346960Y-1302258D01*
X-2349398Y-1299464D01*
X-2352751Y-1297228D01*
X-2357018Y-1295654D01*
X-2362149Y-1294688D01*
G37*
G36*
X-3075584Y-1313688D02*
G01*
X-3080867Y-1313840D01*
X-3092551Y-1315262D01*
X-3098952Y-1316482D01*
X-3098444Y-1323340D01*
X-3089706Y-1322374D01*
X-3079699Y-1321866D01*
X-3072638Y-1321968D01*
X-3070758Y-1322425D01*
X-3069082Y-1323238D01*
X-3067710Y-1324356D01*
X-3066592Y-1325880D01*
X-3065830Y-1327861D01*
X-3065322Y-1330299D01*
X-3065170Y-1338326D01*
X-3083966Y-1340104D01*
X-3088386Y-1340815D01*
X-3092145Y-1341882D01*
X-3095345Y-1343355D01*
X-3097936Y-1345184D01*
X-3099816Y-1347520D01*
X-3101187Y-1350467D01*
X-3102000Y-1353972D01*
X-3102223Y-1357630D01*
X-3093110Y-1357630D01*
X-3092958Y-1355242D01*
X-3092450Y-1353159D01*
X-3091688Y-1351432D01*
X-3089249Y-1348740D01*
X-3087522Y-1347774D01*
X-3085439Y-1347114D01*
X-3082950Y-1346708D01*
X-3065170Y-1345184D01*
X-3065170Y-1364996D01*
X-3067710Y-1366012D01*
X-3071774Y-1367129D01*
X-3079902Y-1368399D01*
X-3083966Y-1368552D01*
X-3087979Y-1367840D01*
X-3090824Y-1365808D01*
X-3092551Y-1362405D01*
X-3093110Y-1357630D01*
X-3102223Y-1357630D01*
X-3102000Y-1362202D01*
X-3101187Y-1365808D01*
X-3099816Y-1368958D01*
X-3097936Y-1371600D01*
X-3095498Y-1373581D01*
X-3092602Y-1375003D01*
X-3089148Y-1375867D01*
X-3085236Y-1376172D01*
X-3079902Y-1375867D01*
X-3074517Y-1374952D01*
X-3069082Y-1373428D01*
X-3063646Y-1371346D01*
X-3061055Y-1373428D01*
X-3057804Y-1374952D01*
X-3053943Y-1375867D01*
X-3049422Y-1376172D01*
X-3049168Y-1369060D01*
X-3052064Y-1368450D01*
X-3054197Y-1367332D01*
X-3055518Y-1365758D01*
X-3056026Y-1363726D01*
X-3056026Y-1333246D01*
X-3056331Y-1328521D01*
X-3057144Y-1324457D01*
X-3058617Y-1321155D01*
X-3060598Y-1318514D01*
X-3063341Y-1316380D01*
X-3066745Y-1314907D01*
X-3070860Y-1313992D01*
G37*
G36*
X-3007512Y-1313688D02*
G01*
X-3013151Y-1315110D01*
X-3018688Y-1317193D01*
X-3024073Y-1319834D01*
X-3029356Y-1323086D01*
X-3029356Y-1314958D01*
X-3038246Y-1314958D01*
X-3038246Y-1374902D01*
X-3029356Y-1374902D01*
X-3029356Y-1330960D01*
X-3024733Y-1328623D01*
X-3020568Y-1326845D01*
X-3012643Y-1324102D01*
X-3007512Y-1322832D01*
G37*
G36*
X-2694076Y-1313688D02*
G01*
X-2705100Y-1315669D01*
X-2712923Y-1321612D01*
X-2717647Y-1331518D01*
X-2718791Y-1341628D01*
X-2710078Y-1341628D01*
X-2709824Y-1336649D01*
X-2709062Y-1332433D01*
X-2707792Y-1328928D01*
X-2706014Y-1326134D01*
X-2703728Y-1324000D01*
X-2700985Y-1322527D01*
X-2697784Y-1321612D01*
X-2694076Y-1321308D01*
X-2690317Y-1321562D01*
X-2687116Y-1322425D01*
X-2684475Y-1323848D01*
X-2682392Y-1325880D01*
X-2680817Y-1328572D01*
X-2679700Y-1332077D01*
X-2679039Y-1336446D01*
X-2678836Y-1341628D01*
X-2718791Y-1341628D01*
X-2719222Y-1345438D01*
X-2718866Y-1352804D01*
X-2717850Y-1359154D01*
X-2716072Y-1364488D01*
X-2713634Y-1368806D01*
X-2710484Y-1372006D01*
X-2706370Y-1374343D01*
X-2701340Y-1375714D01*
X-2695346Y-1376172D01*
X-2684678Y-1375714D01*
X-2671978Y-1374394D01*
X-2672232Y-1367282D01*
X-2689352Y-1368247D01*
X-2693822Y-1368298D01*
X-2697937Y-1367993D01*
X-2701391Y-1367078D01*
X-2704134Y-1365554D01*
X-2706268Y-1363472D01*
X-2707944Y-1360728D01*
X-2709113Y-1357376D01*
X-2709824Y-1353362D01*
X-2710078Y-1348740D01*
X-2670454Y-1348740D01*
X-2669946Y-1341882D01*
X-2670302Y-1335125D01*
X-2671419Y-1329283D01*
X-2673248Y-1324457D01*
X-2675788Y-1320546D01*
X-2679192Y-1317548D01*
X-2683408Y-1315415D01*
X-2688336Y-1314094D01*
G37*
G36*
X-2577744Y-1313688D02*
G01*
X-2588768Y-1315669D01*
X-2596591Y-1321612D01*
X-2601315Y-1331518D01*
X-2602459Y-1341628D01*
X-2593746Y-1341628D01*
X-2593492Y-1336649D01*
X-2592730Y-1332433D01*
X-2591460Y-1328928D01*
X-2589682Y-1326134D01*
X-2587396Y-1324000D01*
X-2584653Y-1322527D01*
X-2581452Y-1321612D01*
X-2577744Y-1321308D01*
X-2573985Y-1321562D01*
X-2570784Y-1322425D01*
X-2568143Y-1323848D01*
X-2566060Y-1325880D01*
X-2564638Y-1328572D01*
X-2563571Y-1332077D01*
X-2562961Y-1336446D01*
X-2562758Y-1341628D01*
X-2602459Y-1341628D01*
X-2602890Y-1345438D01*
X-2602534Y-1352804D01*
X-2601569Y-1359154D01*
X-2599893Y-1364488D01*
X-2597556Y-1368806D01*
X-2594305Y-1372006D01*
X-2590139Y-1374343D01*
X-2585008Y-1375714D01*
X-2579014Y-1376172D01*
X-2568346Y-1375714D01*
X-2555646Y-1374394D01*
X-2555900Y-1367282D01*
X-2573020Y-1368247D01*
X-2577490Y-1368298D01*
X-2581706Y-1367993D01*
X-2585212Y-1367078D01*
X-2588056Y-1365554D01*
X-2590190Y-1363472D01*
X-2591765Y-1360728D01*
X-2592882Y-1357376D01*
X-2593543Y-1353362D01*
X-2593746Y-1348740D01*
X-2554122Y-1348740D01*
X-2553614Y-1341882D01*
X-2553970Y-1335125D01*
X-2555138Y-1329283D01*
X-2557018Y-1324457D01*
X-2559710Y-1320546D01*
X-2563012Y-1317548D01*
X-2567127Y-1315415D01*
X-2572054Y-1314094D01*
G37*
G36*
X-2662580Y-1314958D02*
G01*
X-2645562Y-1374902D01*
X-2627528Y-1374902D01*
X-2610510Y-1314958D01*
X-2619908Y-1314958D01*
X-2634386Y-1367282D01*
X-2638958Y-1367282D01*
X-2652928Y-1314958D01*
G37*
G36*
X-2418994Y-1361440D02*
G01*
X-2418994Y-1374902D01*
X-2409088Y-1374902D01*
X-2409088Y-1361440D01*
G37*
G36*
X1550416Y109372D02*
G01*
X1545793Y109169D01*
X1541627Y108661D01*
X1537919Y107797D01*
X1534668Y106578D01*
X1531772Y105105D01*
X1529283Y103225D01*
X1527098Y100888D01*
X1525270Y98196D01*
X1523847Y95148D01*
X1522679Y91948D01*
X1520952Y84988D01*
X1519986Y76555D01*
X1519682Y66446D01*
X1519986Y56235D01*
X1520952Y47904D01*
X1522679Y40995D01*
X1523847Y37846D01*
X1525270Y34950D01*
X1527098Y32207D01*
X1529283Y29921D01*
X1531772Y28041D01*
X1534668Y26568D01*
X1537970Y25349D01*
X1541729Y24485D01*
X1545945Y23926D01*
X1550670Y23774D01*
X1555750Y23926D01*
X1561134Y24384D01*
X1566824Y25196D01*
X1572768Y26314D01*
X1572514Y34188D01*
X1561795Y32664D01*
X1556918Y32258D01*
X1548536Y32258D01*
X1545082Y32664D01*
X1542186Y33274D01*
X1539748Y34188D01*
X1537614Y35255D01*
X1535734Y36728D01*
X1534160Y38557D01*
X1532890Y40792D01*
X1531112Y45618D01*
X1529842Y50952D01*
X1529283Y57658D01*
X1529080Y66192D01*
X1530146Y82448D01*
X1533398Y93116D01*
X1536090Y96570D01*
X1539951Y99009D01*
X1544878Y100482D01*
X1550924Y100990D01*
X1561033Y100431D01*
X1572514Y98704D01*
X1572768Y106578D01*
X1566519Y107797D01*
X1560728Y108661D01*
X1555343Y109169D01*
G37*
G36*
X1752346Y109118D02*
G01*
X1752346Y98450D01*
X1761489Y98450D01*
X1761489Y109118D01*
G37*
G36*
X1713484Y103276D02*
G01*
X1713484Y84988D01*
X1704848Y84988D01*
X1704848Y77114D01*
X1713484Y77114D01*
X1713484Y45618D01*
X1713687Y39776D01*
X1714347Y34950D01*
X1715465Y31140D01*
X1717039Y28346D01*
X1719173Y26314D01*
X1722069Y24892D01*
X1725675Y24028D01*
X1732280Y23825D01*
X1742186Y25044D01*
X1741678Y32410D01*
X1731010Y31648D01*
X1728368Y31851D01*
X1726234Y32461D01*
X1724660Y33477D01*
X1723643Y34950D01*
X1723085Y37033D01*
X1722678Y39979D01*
X1722374Y48412D01*
X1722374Y77114D01*
X1741424Y77114D01*
X1741424Y84988D01*
X1722374Y84988D01*
X1722374Y103276D01*
G37*
G36*
X1609344Y86258D02*
G01*
X1604060Y86055D01*
X1598422Y85547D01*
X1592376Y84683D01*
X1585976Y83464D01*
X1586230Y76606D01*
X1595170Y77673D01*
X1605076Y78282D01*
X1609852Y78384D01*
X1612036Y78181D01*
X1613966Y77673D01*
X1615694Y76809D01*
X1617218Y75590D01*
X1618335Y74066D01*
X1619097Y72136D01*
X1619605Y69748D01*
X1619758Y61620D01*
X1600962Y59842D01*
X1596542Y59232D01*
X1592783Y58166D01*
X1589582Y56692D01*
X1586992Y54762D01*
X1585112Y52425D01*
X1583740Y49479D01*
X1582928Y45923D01*
X1582705Y42316D01*
X1591818Y42316D01*
X1591970Y44704D01*
X1592376Y46837D01*
X1593088Y48666D01*
X1594104Y50190D01*
X1595526Y51308D01*
X1597355Y52222D01*
X1599488Y52832D01*
X1601978Y53238D01*
X1619758Y54762D01*
X1619758Y35204D01*
X1613001Y32969D01*
X1609039Y32105D01*
X1605026Y31546D01*
X1600962Y31394D01*
X1596948Y32054D01*
X1594104Y34137D01*
X1592376Y37541D01*
X1591818Y42316D01*
X1582705Y42316D01*
X1582928Y37744D01*
X1583740Y34188D01*
X1585112Y31140D01*
X1586992Y28600D01*
X1589379Y26466D01*
X1592275Y24993D01*
X1595628Y24079D01*
X1599438Y23774D01*
X1604873Y24079D01*
X1610309Y24993D01*
X1615694Y26466D01*
X1621028Y28600D01*
X1623720Y26466D01*
X1627022Y24993D01*
X1630832Y24079D01*
X1635251Y23774D01*
X1635760Y30886D01*
X1632864Y31495D01*
X1630730Y32613D01*
X1629410Y34188D01*
X1628901Y36220D01*
X1628901Y66954D01*
X1628597Y71577D01*
X1627682Y75539D01*
X1626209Y78790D01*
X1624076Y81432D01*
X1621434Y83515D01*
X1618132Y85039D01*
X1614068Y85953D01*
G37*
G36*
X1801875Y86258D02*
G01*
X1795272Y85801D01*
X1789734Y84429D01*
X1785264Y82092D01*
X1781810Y78892D01*
X1777441Y69240D01*
X1775994Y55270D01*
X1785366Y55270D01*
X1785569Y61366D01*
X1786229Y66395D01*
X1787347Y70358D01*
X1788922Y73304D01*
X1790954Y75539D01*
X1793798Y77114D01*
X1797456Y78079D01*
X1801875Y78384D01*
X1806193Y78079D01*
X1809750Y77114D01*
X1812543Y75539D01*
X1814575Y73304D01*
X1816150Y70358D01*
X1817268Y66395D01*
X1817928Y61366D01*
X1818132Y55270D01*
X1817928Y49174D01*
X1817370Y44043D01*
X1816404Y39878D01*
X1815084Y36728D01*
X1813001Y34493D01*
X1810156Y32918D01*
X1806397Y31953D01*
X1801875Y31648D01*
X1797202Y31953D01*
X1793443Y32969D01*
X1790496Y34645D01*
X1788414Y36982D01*
X1787093Y40030D01*
X1786128Y44094D01*
X1785569Y49174D01*
X1785366Y55270D01*
X1775994Y55270D01*
X1777339Y40894D01*
X1781556Y31140D01*
X1784908Y27889D01*
X1789379Y25603D01*
X1794916Y24231D01*
X1801622Y23774D01*
X1808429Y24231D01*
X1814068Y25603D01*
X1818589Y27889D01*
X1821942Y31140D01*
X1825955Y40894D01*
X1827275Y55016D01*
X1825802Y69240D01*
X1821434Y78892D01*
X1818132Y82092D01*
X1813763Y84429D01*
X1808327Y85801D01*
G37*
G36*
X1869439Y86258D02*
G01*
X1864969Y85902D01*
X1860346Y84937D01*
X1855673Y83261D01*
X1850898Y80924D01*
X1850898Y84988D01*
X1842007Y84988D01*
X1842007Y25044D01*
X1850898Y25044D01*
X1850898Y73812D01*
X1857756Y76504D01*
X1861921Y77571D01*
X1865985Y78079D01*
X1867916Y78130D01*
X1871624Y77825D01*
X1874570Y76962D01*
X1876806Y75539D01*
X1878330Y73558D01*
X1879447Y70764D01*
X1880260Y67005D01*
X1880717Y62280D01*
X1880870Y56540D01*
X1880870Y25044D01*
X1889760Y25044D01*
X1889760Y56794D01*
X1889506Y64414D01*
X1888743Y70764D01*
X1887474Y75844D01*
X1885696Y79654D01*
X1883054Y82550D01*
X1879447Y84582D01*
X1874926Y85852D01*
G37*
G36*
X1645920Y84988D02*
G01*
X1645920Y53746D01*
X1646174Y45770D01*
X1646936Y39217D01*
X1648206Y33985D01*
X1649984Y30124D01*
X1652524Y27330D01*
X1656080Y25349D01*
X1660652Y24180D01*
X1666239Y23774D01*
X1670608Y24079D01*
X1675028Y25095D01*
X1679498Y26771D01*
X1684020Y29108D01*
X1684020Y25044D01*
X1692910Y25044D01*
X1692910Y84988D01*
X1684020Y84988D01*
X1684020Y36220D01*
X1677517Y33528D01*
X1673606Y32461D01*
X1669542Y31953D01*
X1663801Y32156D01*
X1660855Y32969D01*
X1658620Y34340D01*
X1657096Y36220D01*
X1656080Y39014D01*
X1655368Y42875D01*
X1654962Y47802D01*
X1654810Y53746D01*
X1654810Y84988D01*
G37*
G36*
X1752346Y84988D02*
G01*
X1752346Y25044D01*
X1761489Y25044D01*
X1761489Y84988D01*
G37*
G36*
X2125218Y-12700D02*
G01*
X2121001Y-13004D01*
X2117445Y-13868D01*
X2114651Y-15290D01*
X2112518Y-17272D01*
X2110943Y-20066D01*
X2109876Y-23876D01*
X2109165Y-28702D01*
X2108962Y-39878D01*
X2101342Y-39878D01*
X2101342Y-47752D01*
X2108962Y-47752D01*
X2108962Y-100076D01*
X2117852Y-100076D01*
X2117852Y-47752D01*
X2135378Y-47752D01*
X2135378Y-39878D01*
X2117852Y-39878D01*
X2118004Y-30937D01*
X2118360Y-27838D01*
X2119020Y-25349D01*
X2119884Y-23622D01*
X2120950Y-22301D01*
X2122271Y-21336D01*
X2123998Y-20777D01*
X2128316Y-20574D01*
X2137156Y-20828D01*
X2137156Y-13462D01*
G37*
G36*
X1960118Y-15747D02*
G01*
X1948332Y-17119D01*
X1939950Y-21285D01*
X1934870Y-28194D01*
X1933193Y-37846D01*
X1933549Y-43027D01*
X1934667Y-47447D01*
X1936496Y-51054D01*
X1939036Y-53848D01*
X1942490Y-56134D01*
X1946960Y-58216D01*
X1952498Y-60096D01*
X1964029Y-62788D01*
X1968042Y-63957D01*
X1971243Y-65176D01*
X1973580Y-66548D01*
X1975357Y-68275D01*
X1976628Y-70459D01*
X1977389Y-73101D01*
X1977643Y-76200D01*
X1973173Y-88747D01*
X1959864Y-92964D01*
X1949297Y-92405D01*
X1934972Y-90678D01*
X1933956Y-98552D01*
X1944573Y-99974D01*
X1955495Y-100939D01*
X1960118Y-101092D01*
X1971802Y-99466D01*
X1980133Y-94691D01*
X1985111Y-86664D01*
X1986788Y-75438D01*
X1986432Y-70713D01*
X1985467Y-66649D01*
X1983790Y-63347D01*
X1981454Y-60706D01*
X1978304Y-58521D01*
X1974291Y-56591D01*
X1969312Y-54864D01*
X1957730Y-51968D01*
X1953006Y-50546D01*
X1949297Y-49123D01*
X1946656Y-47752D01*
X1944878Y-46075D01*
X1943607Y-43738D01*
X1942846Y-40843D01*
X1942592Y-37338D01*
X1947113Y-27228D01*
X1960625Y-23876D01*
X1969973Y-24384D01*
X1984248Y-25908D01*
X1985010Y-18034D01*
X1975053Y-16764D01*
X1964639Y-15849D01*
G37*
G36*
X1822957Y-16002D02*
G01*
X1822957Y-26416D01*
X1831848Y-26416D01*
X1831848Y-16002D01*
G37*
G36*
X1535176Y-17018D02*
G01*
X1535176Y-100076D01*
X1544320Y-100076D01*
X1544320Y-62484D01*
X1586738Y-62484D01*
X1586738Y-100076D01*
X1595882Y-100076D01*
X1595882Y-17018D01*
X1586738Y-17018D01*
X1586738Y-54102D01*
X1544320Y-54102D01*
X1544320Y-17018D01*
G37*
G36*
X1747012Y-17018D02*
G01*
X1747012Y-25146D01*
X1776730Y-25146D01*
X1779676Y-25298D01*
X1782368Y-25704D01*
X1784857Y-26416D01*
X1787143Y-27432D01*
X1795170Y-37846D01*
X1797812Y-57404D01*
X1796491Y-72542D01*
X1792528Y-83312D01*
X1785975Y-89814D01*
X1776730Y-91948D01*
X1756156Y-91948D01*
X1756156Y-25146D01*
X1747012Y-25146D01*
X1747012Y-100076D01*
X1776730Y-100076D01*
X1780997Y-99872D01*
X1784908Y-99263D01*
X1788515Y-98196D01*
X1791716Y-96774D01*
X1798624Y-91287D01*
X1803552Y-82854D01*
X1806498Y-71577D01*
X1807464Y-57404D01*
X1807210Y-50190D01*
X1806448Y-43688D01*
X1805178Y-37998D01*
X1803400Y-33020D01*
X1793443Y-21031D01*
X1776730Y-17018D01*
G37*
G36*
X1679956Y-21590D02*
G01*
X1679956Y-39878D01*
X1671574Y-39878D01*
X1671574Y-47752D01*
X1679956Y-47752D01*
X1679956Y-79248D01*
X1680159Y-85191D01*
X1680819Y-90119D01*
X1681937Y-93980D01*
X1683512Y-96774D01*
X1685747Y-98755D01*
X1688744Y-100177D01*
X1692351Y-101041D01*
X1696720Y-101346D01*
X1701800Y-101041D01*
X1708912Y-100076D01*
X1708150Y-92456D01*
X1697482Y-93218D01*
X1694942Y-93014D01*
X1692910Y-92405D01*
X1691386Y-91338D01*
X1690370Y-89916D01*
X1689709Y-87934D01*
X1689252Y-85039D01*
X1688846Y-76454D01*
X1688846Y-47752D01*
X1707896Y-47752D01*
X1707896Y-39878D01*
X1688846Y-39878D01*
X1688846Y-21590D01*
G37*
G36*
X2095754Y-38608D02*
G01*
X2090064Y-40081D01*
X2084527Y-42164D01*
X2079040Y-44907D01*
X2073656Y-48260D01*
X2073656Y-39878D01*
X2064766Y-39878D01*
X2064766Y-100076D01*
X2073910Y-100076D01*
X2073910Y-55880D01*
X2078532Y-53543D01*
X2082698Y-51765D01*
X2090623Y-49022D01*
X2095754Y-47752D01*
G37*
G36*
X1637030Y-38862D02*
G01*
X1630527Y-39319D01*
X1625092Y-40690D01*
X1620621Y-43027D01*
X1617218Y-46228D01*
X1612849Y-55676D01*
X1611402Y-69596D01*
X1620520Y-69596D01*
X1620723Y-63601D01*
X1621434Y-58623D01*
X1622501Y-54610D01*
X1624076Y-51562D01*
X1626209Y-49326D01*
X1629105Y-47752D01*
X1632712Y-46786D01*
X1637030Y-46482D01*
X1641449Y-46786D01*
X1645107Y-47752D01*
X1647952Y-49326D01*
X1649984Y-51562D01*
X1651558Y-54610D01*
X1652625Y-58674D01*
X1653336Y-63754D01*
X1653539Y-69850D01*
X1653336Y-75946D01*
X1652778Y-81026D01*
X1651812Y-85090D01*
X1650492Y-88138D01*
X1648409Y-90474D01*
X1645462Y-92151D01*
X1641703Y-93116D01*
X1637030Y-93472D01*
X1632508Y-93116D01*
X1628800Y-92151D01*
X1625904Y-90474D01*
X1623822Y-88138D01*
X1622399Y-84988D01*
X1621332Y-80822D01*
X1620723Y-75692D01*
X1620520Y-69596D01*
X1611402Y-69596D01*
X1612798Y-84074D01*
X1616964Y-93726D01*
X1620316Y-96926D01*
X1624787Y-99263D01*
X1630324Y-100634D01*
X1637030Y-101092D01*
X1643837Y-100634D01*
X1649475Y-99263D01*
X1653997Y-96926D01*
X1657350Y-93726D01*
X1661363Y-84074D01*
X1662684Y-69850D01*
X1661210Y-55676D01*
X1656842Y-46228D01*
X1653438Y-43027D01*
X1648968Y-40690D01*
X1643481Y-39319D01*
G37*
G36*
X1871472Y-38862D02*
G01*
X1860600Y-40843D01*
X1852777Y-46736D01*
X1848154Y-56591D01*
X1847015Y-66548D01*
X1855470Y-66548D01*
X1855825Y-61569D01*
X1856638Y-57353D01*
X1857857Y-53848D01*
X1859534Y-51054D01*
X1861820Y-49072D01*
X1864614Y-47599D01*
X1867916Y-46786D01*
X1871725Y-46482D01*
X1875383Y-46736D01*
X1878533Y-47548D01*
X1881124Y-48920D01*
X1883156Y-50800D01*
X1884730Y-53492D01*
X1885797Y-56997D01*
X1886508Y-61366D01*
X1886712Y-66548D01*
X1847015Y-66548D01*
X1846580Y-70358D01*
X1846935Y-77724D01*
X1847900Y-84074D01*
X1849577Y-89408D01*
X1851914Y-93726D01*
X1855063Y-96926D01*
X1859127Y-99263D01*
X1864207Y-100634D01*
X1870202Y-101092D01*
X1880870Y-100634D01*
X1893570Y-99314D01*
X1893316Y-92202D01*
X1885340Y-92811D01*
X1871725Y-93218D01*
X1867611Y-92913D01*
X1864156Y-91998D01*
X1861413Y-90525D01*
X1859280Y-88392D01*
X1857705Y-85648D01*
X1856638Y-82296D01*
X1855927Y-78282D01*
X1855724Y-73660D01*
X1895093Y-73660D01*
X1895602Y-66802D01*
X1895246Y-60045D01*
X1894128Y-54254D01*
X1892300Y-49377D01*
X1889760Y-45466D01*
X1886305Y-42570D01*
X1882139Y-40538D01*
X1877161Y-39268D01*
G37*
G36*
X2169160Y-38862D02*
G01*
X2163775Y-39014D01*
X2151989Y-40284D01*
X2145538Y-41402D01*
X2146046Y-48260D01*
X2154783Y-47447D01*
X2164791Y-46837D01*
X2169668Y-46736D01*
X2171852Y-46888D01*
X2173732Y-47396D01*
X2175357Y-48158D01*
X2176780Y-49276D01*
X2177999Y-50901D01*
X2178862Y-52882D01*
X2179421Y-55321D01*
X2179574Y-63246D01*
X2160524Y-65024D01*
X2156155Y-65735D01*
X2152396Y-66802D01*
X2149297Y-68275D01*
X2146808Y-70104D01*
X2144826Y-72542D01*
X2143404Y-75488D01*
X2142540Y-78994D01*
X2142274Y-82550D01*
X2151634Y-82550D01*
X2151786Y-80162D01*
X2152192Y-78079D01*
X2152904Y-76352D01*
X2153920Y-74930D01*
X2155291Y-73761D01*
X2157018Y-72898D01*
X2159203Y-72237D01*
X2179574Y-70104D01*
X2179574Y-89916D01*
X2172817Y-92151D01*
X2168804Y-93014D01*
X2164689Y-93573D01*
X2160524Y-93726D01*
X2156612Y-93014D01*
X2153869Y-90932D01*
X2152192Y-87426D01*
X2151634Y-82550D01*
X2142274Y-82550D01*
X2142490Y-87223D01*
X2143302Y-90881D01*
X2144674Y-93980D01*
X2146554Y-96520D01*
X2148992Y-98501D01*
X2151888Y-99974D01*
X2155342Y-100787D01*
X2159254Y-101092D01*
X2164588Y-100787D01*
X2169972Y-99923D01*
X2175408Y-98501D01*
X2180844Y-96520D01*
X2183536Y-98501D01*
X2186838Y-99974D01*
X2190648Y-100787D01*
X2195068Y-101092D01*
X2195322Y-94234D01*
X2192426Y-93522D01*
X2190292Y-92405D01*
X2188972Y-90830D01*
X2188464Y-88900D01*
X2188464Y-58166D01*
X2188159Y-53543D01*
X2187295Y-49530D01*
X2185873Y-46177D01*
X2183892Y-43434D01*
X2181250Y-41452D01*
X2177897Y-39979D01*
X2173884Y-39166D01*
G37*
G36*
X2228596Y-38862D02*
G01*
X2222347Y-39268D01*
X2217115Y-40589D01*
X2212848Y-42722D01*
X2209546Y-45720D01*
X2205177Y-55117D01*
X2203704Y-69596D01*
X2205024Y-84328D01*
X2209038Y-93980D01*
X2212238Y-97078D01*
X2216556Y-99314D01*
X2221890Y-100634D01*
X2228342Y-101092D01*
X2235352Y-100736D01*
X2245106Y-99568D01*
X2244852Y-92202D01*
X2230628Y-93218D01*
X2225649Y-92862D01*
X2221636Y-91897D01*
X2218537Y-90220D01*
X2216404Y-87884D01*
X2214829Y-84836D01*
X2213762Y-80772D01*
X2213051Y-75692D01*
X2212848Y-69596D01*
X2213102Y-63652D01*
X2213813Y-58674D01*
X2214981Y-54762D01*
X2216658Y-51816D01*
X2218842Y-49580D01*
X2221890Y-48006D01*
X2225700Y-47040D01*
X2230374Y-46736D01*
X2236216Y-47040D01*
X2244598Y-48006D01*
X2245106Y-40640D01*
X2237689Y-39573D01*
G37*
G36*
X2280158Y-38862D02*
G01*
X2269286Y-40843D01*
X2261463Y-46736D01*
X2256840Y-56591D01*
X2255701Y-66548D01*
X2264156Y-66548D01*
X2264511Y-61569D01*
X2265273Y-57353D01*
X2266543Y-53848D01*
X2268220Y-51054D01*
X2270506Y-49072D01*
X2273300Y-47599D01*
X2276602Y-46786D01*
X2280412Y-46482D01*
X2284069Y-46736D01*
X2287219Y-47548D01*
X2289810Y-48920D01*
X2291842Y-50800D01*
X2293416Y-53492D01*
X2294534Y-56997D01*
X2295194Y-61366D01*
X2295398Y-66548D01*
X2255701Y-66548D01*
X2255266Y-70358D01*
X2255621Y-77724D01*
X2256586Y-84074D01*
X2258263Y-89408D01*
X2260600Y-93726D01*
X2263749Y-96926D01*
X2267813Y-99263D01*
X2272893Y-100634D01*
X2278888Y-101092D01*
X2289708Y-100634D01*
X2302256Y-99314D01*
X2302002Y-92202D01*
X2294026Y-92811D01*
X2280412Y-93218D01*
X2276297Y-92913D01*
X2272842Y-91998D01*
X2270099Y-90525D01*
X2267966Y-88392D01*
X2266391Y-85648D01*
X2265273Y-82296D01*
X2264613Y-78282D01*
X2264410Y-73660D01*
X2304034Y-73660D01*
X2304288Y-66802D01*
X2303932Y-60045D01*
X2302814Y-54254D01*
X2300986Y-49377D01*
X2298446Y-45466D01*
X2294991Y-42570D01*
X2290826Y-40538D01*
X2285898Y-39268D01*
G37*
G36*
X1822957Y-39878D02*
G01*
X1822957Y-100076D01*
X1831848Y-100076D01*
X1831848Y-39878D01*
G37*
G36*
X2000504Y-39878D02*
G01*
X2000504Y-71374D01*
X2000757Y-79197D01*
X2001520Y-85699D01*
X2002789Y-90881D01*
X2004568Y-94742D01*
X2007107Y-97536D01*
X2010664Y-99517D01*
X2015236Y-100685D01*
X2020824Y-101092D01*
X2025294Y-100736D01*
X2029714Y-99771D01*
X2034184Y-98094D01*
X2038604Y-95758D01*
X2038604Y-100076D01*
X2047493Y-100076D01*
X2047493Y-39878D01*
X2038604Y-39878D01*
X2038604Y-88646D01*
X2035200Y-90424D01*
X2028189Y-92506D01*
X2024125Y-93116D01*
X2022093Y-93218D01*
X2018487Y-92913D01*
X2015642Y-92049D01*
X2013407Y-90627D01*
X2011934Y-88646D01*
X2010918Y-85953D01*
X2010206Y-82092D01*
X2009800Y-77165D01*
X2009648Y-71120D01*
X2009648Y-39878D01*
G37*
G36*
X877316Y-1272743D02*
G01*
X877316Y-1387551D01*
X889253Y-1387551D01*
X889253Y-1272743D01*
G37*
G36*
X1504442Y-1272743D02*
G01*
X1504442Y-1308049D01*
X1499311Y-1307134D01*
X1489557Y-1306118D01*
X1484884Y-1306017D01*
X1469491Y-1308557D01*
X1459230Y-1316177D01*
X1453337Y-1329791D01*
X1451530Y-1348181D01*
X1463802Y-1348181D01*
X1465021Y-1334008D01*
X1468628Y-1324051D01*
X1471523Y-1320698D01*
X1475232Y-1318310D01*
X1479905Y-1316888D01*
X1485392Y-1316431D01*
X1494637Y-1316837D01*
X1504442Y-1318209D01*
X1504442Y-1372565D01*
X1499616Y-1374597D01*
X1495196Y-1376121D01*
X1489710Y-1377543D01*
X1484630Y-1378305D01*
X1480159Y-1378305D01*
X1476349Y-1377797D01*
X1474724Y-1377391D01*
X1472031Y-1375664D01*
X1469390Y-1373073D01*
X1465224Y-1363675D01*
X1463802Y-1348181D01*
X1451530Y-1348181D01*
X1451356Y-1349959D01*
X1453540Y-1369415D01*
X1459992Y-1381709D01*
X1462176Y-1383690D01*
X1464462Y-1385316D01*
X1466748Y-1386586D01*
X1469136Y-1387551D01*
X1474216Y-1388668D01*
X1480312Y-1389075D01*
X1492351Y-1387297D01*
X1504442Y-1381963D01*
X1504442Y-1387551D01*
X1516380Y-1387551D01*
X1516380Y-1272743D01*
G37*
G36*
X1625600Y-1272743D02*
G01*
X1625600Y-1387551D01*
X1637538Y-1387551D01*
X1637538Y-1272743D01*
G37*
G36*
X2143506Y-1272743D02*
G01*
X2143506Y-1308049D01*
X2138375Y-1307134D01*
X2128621Y-1306118D01*
X2123948Y-1306017D01*
X2108555Y-1308557D01*
X2098294Y-1316177D01*
X2092401Y-1329791D01*
X2090594Y-1348181D01*
X2102866Y-1348181D01*
X2104085Y-1334008D01*
X2107692Y-1324051D01*
X2110486Y-1320698D01*
X2114194Y-1318310D01*
X2118868Y-1316888D01*
X2124456Y-1316431D01*
X2133701Y-1316837D01*
X2143506Y-1318209D01*
X2143506Y-1372565D01*
X2138680Y-1374597D01*
X2134260Y-1376121D01*
X2128723Y-1377543D01*
X2123541Y-1378305D01*
X2119020Y-1378305D01*
X2115312Y-1377797D01*
X2113788Y-1377391D01*
X2111095Y-1375664D01*
X2108454Y-1373073D01*
X2104288Y-1363675D01*
X2102866Y-1348181D01*
X2090594Y-1348181D01*
X2090420Y-1349959D01*
X2092604Y-1369415D01*
X2099056Y-1381709D01*
X2101240Y-1383690D01*
X2103475Y-1385316D01*
X2105710Y-1386586D01*
X2107946Y-1387551D01*
X2113229Y-1388668D01*
X2119376Y-1389075D01*
X2131415Y-1387297D01*
X2143506Y-1381963D01*
X2143506Y-1387551D01*
X2155444Y-1387551D01*
X2155444Y-1272743D01*
G37*
G36*
X563626Y-1276807D02*
G01*
X563626Y-1287729D01*
X603250Y-1287729D01*
X608228Y-1287983D01*
X612546Y-1288796D01*
X616102Y-1290167D01*
X618998Y-1292047D01*
X621233Y-1294536D01*
X622808Y-1297736D01*
X623773Y-1301648D01*
X624078Y-1306271D01*
X623773Y-1310894D01*
X622909Y-1314907D01*
X621385Y-1318260D01*
X619252Y-1321003D01*
X616610Y-1323086D01*
X613257Y-1324610D01*
X609142Y-1325524D01*
X604266Y-1325829D01*
X575818Y-1325829D01*
X575818Y-1287729D01*
X563626Y-1287729D01*
X563626Y-1336751D01*
X604520Y-1336751D01*
X608279Y-1336903D01*
X611987Y-1337513D01*
X615543Y-1338427D01*
X618998Y-1339799D01*
X620928Y-1340815D01*
X622655Y-1342136D01*
X624128Y-1343761D01*
X625348Y-1345641D01*
X626364Y-1347876D01*
X627075Y-1350365D01*
X627532Y-1353108D01*
X627634Y-1356055D01*
X627278Y-1361338D01*
X626211Y-1365758D01*
X624382Y-1369314D01*
X621792Y-1372057D01*
X618693Y-1374038D01*
X614883Y-1375460D01*
X610412Y-1376324D01*
X605282Y-1376629D01*
X575818Y-1376629D01*
X575818Y-1336751D01*
X563626Y-1336751D01*
X563626Y-1387551D01*
X605790Y-1387551D01*
X620522Y-1385773D01*
X631190Y-1380439D01*
X637895Y-1370787D01*
X640080Y-1356563D01*
X639013Y-1347368D01*
X635711Y-1339951D01*
X630224Y-1334312D01*
X622554Y-1330401D01*
X625805Y-1328572D01*
X628650Y-1326438D01*
X631139Y-1324000D01*
X633222Y-1321257D01*
X634796Y-1318056D01*
X635914Y-1314246D01*
X636574Y-1309928D01*
X636778Y-1305001D01*
X634695Y-1292301D01*
X628396Y-1283665D01*
X618185Y-1278483D01*
X603758Y-1276807D01*
G37*
G36*
X992632Y-1276807D02*
G01*
X992632Y-1387551D01*
X1005078Y-1387551D01*
X1005078Y-1290015D01*
X1007364Y-1290015D01*
X1039368Y-1383487D01*
X1053084Y-1383487D01*
X1085342Y-1290015D01*
X1087628Y-1290015D01*
X1087628Y-1387551D01*
X1099820Y-1387551D01*
X1099820Y-1276807D01*
X1077722Y-1276807D01*
X1046226Y-1370279D01*
X1014984Y-1276807D01*
G37*
G36*
X1126998Y-1276807D02*
G01*
X1126998Y-1387551D01*
X1187958Y-1387551D01*
X1187958Y-1376375D01*
X1139444Y-1376375D01*
X1139444Y-1276807D01*
G37*
G36*
X1239012Y-1276807D02*
G01*
X1239012Y-1387551D01*
X1251204Y-1387551D01*
X1251204Y-1290015D01*
X1253490Y-1290015D01*
X1285748Y-1383487D01*
X1299464Y-1383487D01*
X1331468Y-1290015D01*
X1333754Y-1290015D01*
X1333754Y-1387551D01*
X1346200Y-1387551D01*
X1346200Y-1276807D01*
X1323848Y-1276807D01*
X1292606Y-1370279D01*
X1261110Y-1276807D01*
G37*
G36*
X1779524Y-1276807D02*
G01*
X1779524Y-1287729D01*
X1819148Y-1287729D01*
X1824228Y-1287983D01*
X1828546Y-1288796D01*
X1832102Y-1290167D01*
X1834896Y-1292047D01*
X1837131Y-1294536D01*
X1838706Y-1297736D01*
X1839671Y-1301648D01*
X1839975Y-1306271D01*
X1839722Y-1310894D01*
X1838858Y-1314907D01*
X1837436Y-1318260D01*
X1835404Y-1321003D01*
X1832660Y-1323086D01*
X1829257Y-1324610D01*
X1825193Y-1325524D01*
X1820418Y-1325829D01*
X1791970Y-1325829D01*
X1791970Y-1287729D01*
X1779524Y-1287729D01*
X1779524Y-1336751D01*
X1820418Y-1336751D01*
X1824228Y-1336903D01*
X1827936Y-1337513D01*
X1831593Y-1338427D01*
X1835150Y-1339799D01*
X1836978Y-1340815D01*
X1838604Y-1342136D01*
X1840026Y-1343761D01*
X1841246Y-1345641D01*
X1842262Y-1347876D01*
X1842973Y-1350365D01*
X1843430Y-1353108D01*
X1843532Y-1356055D01*
X1843176Y-1361338D01*
X1842160Y-1365758D01*
X1840382Y-1369314D01*
X1837943Y-1372057D01*
X1834743Y-1374038D01*
X1830933Y-1375460D01*
X1826463Y-1376324D01*
X1821434Y-1376629D01*
X1791970Y-1376629D01*
X1791970Y-1336751D01*
X1779524Y-1336751D01*
X1779524Y-1387551D01*
X1821942Y-1387551D01*
X1836572Y-1385773D01*
X1847342Y-1380439D01*
X1853844Y-1370787D01*
X1855978Y-1356563D01*
X1854911Y-1347368D01*
X1851609Y-1339951D01*
X1846122Y-1334312D01*
X1838452Y-1330401D01*
X1841804Y-1328572D01*
X1844700Y-1326438D01*
X1847138Y-1324000D01*
X1849120Y-1321257D01*
X1850694Y-1318056D01*
X1851812Y-1314246D01*
X1852472Y-1309928D01*
X1852675Y-1305001D01*
X1852168Y-1298143D01*
X1850643Y-1292301D01*
X1848104Y-1287475D01*
X1844548Y-1283665D01*
X1834134Y-1278483D01*
X1819656Y-1276807D01*
G37*
G36*
X862076Y-1305763D02*
G01*
X847191Y-1310436D01*
X832866Y-1318463D01*
X832866Y-1307541D01*
X820928Y-1307541D01*
X820928Y-1387551D01*
X833119Y-1387551D01*
X833119Y-1328877D01*
X839063Y-1325524D01*
X844651Y-1323238D01*
X851763Y-1320698D01*
X858723Y-1318666D01*
X862076Y-1317955D01*
G37*
G36*
X2081784Y-1305763D02*
G01*
X2066899Y-1310436D01*
X2052574Y-1318463D01*
X2052574Y-1307541D01*
X2040636Y-1307541D01*
X2040636Y-1387551D01*
X2052574Y-1387551D01*
X2052574Y-1328877D01*
X2058771Y-1325524D01*
X2064359Y-1323238D01*
X2071471Y-1320698D01*
X2078431Y-1318666D01*
X2081784Y-1317955D01*
G37*
G36*
X689864Y-1306017D02*
G01*
X679704Y-1307185D01*
X671372Y-1310640D01*
X664921Y-1316482D01*
X660298Y-1324610D01*
X657555Y-1335125D01*
X656973Y-1342847D01*
X668528Y-1342847D01*
X668985Y-1336294D01*
X670052Y-1330706D01*
X671779Y-1326032D01*
X674116Y-1322273D01*
X677113Y-1319479D01*
X680821Y-1317498D01*
X685139Y-1316329D01*
X690118Y-1315923D01*
X695096Y-1316278D01*
X699262Y-1317447D01*
X702716Y-1319326D01*
X705358Y-1322019D01*
X707491Y-1325575D01*
X709015Y-1330248D01*
X709879Y-1335989D01*
X710184Y-1342847D01*
X656973Y-1342847D01*
X656590Y-1347927D01*
X658368Y-1366266D01*
X663702Y-1379169D01*
X673455Y-1386586D01*
X688340Y-1389075D01*
X702564Y-1388414D01*
X719328Y-1386535D01*
X719074Y-1377137D01*
X708304Y-1378051D01*
X690118Y-1378661D01*
X684631Y-1378254D01*
X680059Y-1376984D01*
X676351Y-1374952D01*
X673608Y-1372057D01*
X671525Y-1368450D01*
X670001Y-1363980D01*
X669086Y-1358646D01*
X668782Y-1352499D01*
X721614Y-1352499D01*
X722122Y-1343355D01*
X720191Y-1326591D01*
X714248Y-1314907D01*
X704088Y-1308201D01*
G37*
G36*
X771398Y-1306017D02*
G01*
X756869Y-1306830D01*
X740156Y-1309319D01*
X740664Y-1318463D01*
X759206Y-1316786D01*
X772160Y-1316431D01*
X775055Y-1316634D01*
X777646Y-1317294D01*
X779881Y-1318412D01*
X781812Y-1319987D01*
X783386Y-1322019D01*
X784504Y-1324660D01*
X785164Y-1327861D01*
X785368Y-1331671D01*
X785368Y-1338529D01*
X760222Y-1341069D01*
X754329Y-1341932D01*
X749249Y-1343355D01*
X745032Y-1345234D01*
X741680Y-1347673D01*
X739140Y-1350822D01*
X737311Y-1354785D01*
X736244Y-1359458D01*
X735875Y-1364437D01*
X748030Y-1364437D01*
X748233Y-1361186D01*
X748893Y-1358392D01*
X749909Y-1356004D01*
X751332Y-1354023D01*
X753160Y-1352397D01*
X755497Y-1351229D01*
X758342Y-1350365D01*
X785368Y-1347673D01*
X785368Y-1374089D01*
X776325Y-1376883D01*
X771042Y-1378000D01*
X765657Y-1378661D01*
X760222Y-1378915D01*
X751078Y-1375257D01*
X748030Y-1364437D01*
X735875Y-1364437D01*
X736193Y-1370431D01*
X737260Y-1375257D01*
X738987Y-1379474D01*
X741426Y-1382979D01*
X744677Y-1385620D01*
X748538Y-1387551D01*
X753059Y-1388668D01*
X758190Y-1389075D01*
X772668Y-1387449D01*
X787146Y-1382725D01*
X790752Y-1385468D01*
X795121Y-1387449D01*
X800252Y-1388668D01*
X806196Y-1389075D01*
X806704Y-1379677D01*
X802792Y-1378813D01*
X799947Y-1377391D01*
X798118Y-1375257D01*
X797306Y-1372565D01*
X797306Y-1331671D01*
X796950Y-1325473D01*
X795782Y-1320139D01*
X793902Y-1315720D01*
X791210Y-1312113D01*
X787704Y-1309420D01*
X783234Y-1307541D01*
X777798Y-1306372D01*
G37*
G36*
X1401318Y-1306017D02*
G01*
X1385316Y-1308404D01*
X1374902Y-1315669D01*
X1369009Y-1328420D01*
X1367054Y-1347165D01*
X1379220Y-1347165D01*
X1380439Y-1332331D01*
X1384046Y-1323035D01*
X1386840Y-1320139D01*
X1390650Y-1318056D01*
X1395476Y-1316837D01*
X1401318Y-1316431D01*
X1407058Y-1316837D01*
X1411833Y-1318056D01*
X1415592Y-1320139D01*
X1418336Y-1323035D01*
X1421993Y-1332331D01*
X1423162Y-1347165D01*
X1422095Y-1362049D01*
X1418844Y-1371803D01*
X1416253Y-1374800D01*
X1412443Y-1376934D01*
X1407464Y-1378204D01*
X1401318Y-1378661D01*
X1395171Y-1378204D01*
X1390142Y-1376883D01*
X1386281Y-1374648D01*
X1383538Y-1371549D01*
X1380337Y-1361998D01*
X1379220Y-1347165D01*
X1367054Y-1347165D01*
X1368907Y-1366266D01*
X1374394Y-1379169D01*
X1384757Y-1386586D01*
X1401064Y-1389075D01*
X1417574Y-1386586D01*
X1427988Y-1379169D01*
X1433525Y-1366266D01*
X1435354Y-1347419D01*
X1433474Y-1328420D01*
X1427734Y-1315669D01*
X1417218Y-1308404D01*
G37*
G36*
X1691386Y-1306017D02*
G01*
X1681175Y-1307185D01*
X1672793Y-1310640D01*
X1666239Y-1316482D01*
X1661617Y-1324610D01*
X1658823Y-1335125D01*
X1658241Y-1342847D01*
X1670050Y-1342847D01*
X1670405Y-1336294D01*
X1671421Y-1330706D01*
X1673047Y-1326032D01*
X1675384Y-1322273D01*
X1678482Y-1319479D01*
X1682191Y-1317498D01*
X1686509Y-1316329D01*
X1691386Y-1315923D01*
X1696364Y-1316278D01*
X1700631Y-1317447D01*
X1704136Y-1319326D01*
X1706880Y-1322019D01*
X1708912Y-1325575D01*
X1710334Y-1330248D01*
X1711198Y-1335989D01*
X1711452Y-1342847D01*
X1658241Y-1342847D01*
X1657857Y-1347927D01*
X1659737Y-1366266D01*
X1665224Y-1379169D01*
X1674875Y-1386586D01*
X1689607Y-1389075D01*
X1703933Y-1388414D01*
X1720850Y-1386535D01*
X1720596Y-1377137D01*
X1709826Y-1378051D01*
X1691639Y-1378661D01*
X1686153Y-1378254D01*
X1681480Y-1376984D01*
X1677771Y-1374952D01*
X1674875Y-1372057D01*
X1672793Y-1368450D01*
X1671269Y-1363980D01*
X1670354Y-1358646D01*
X1670050Y-1352499D01*
X1722882Y-1352499D01*
X1723643Y-1343355D01*
X1721612Y-1326591D01*
X1715516Y-1314907D01*
X1705559Y-1308201D01*
G37*
G36*
X1906778Y-1306017D02*
G01*
X1890928Y-1308404D01*
X1880362Y-1315669D01*
X1874469Y-1328420D01*
X1872514Y-1347165D01*
X1884934Y-1347165D01*
X1886102Y-1332331D01*
X1889506Y-1323035D01*
X1892401Y-1320139D01*
X1896262Y-1318056D01*
X1901037Y-1316837D01*
X1906778Y-1316431D01*
X1912620Y-1316837D01*
X1917446Y-1318056D01*
X1921256Y-1320139D01*
X1924050Y-1323035D01*
X1927504Y-1332331D01*
X1928622Y-1347165D01*
X1927606Y-1362049D01*
X1924557Y-1371803D01*
X1921916Y-1374800D01*
X1918106Y-1376934D01*
X1913026Y-1378204D01*
X1906778Y-1378661D01*
X1900631Y-1378204D01*
X1895602Y-1376883D01*
X1891741Y-1374648D01*
X1888998Y-1371549D01*
X1885950Y-1361998D01*
X1884934Y-1347165D01*
X1872514Y-1347165D01*
X1874367Y-1366266D01*
X1879854Y-1379169D01*
X1890268Y-1386586D01*
X1906778Y-1389075D01*
X1923288Y-1386586D01*
X1933702Y-1379169D01*
X1939239Y-1366266D01*
X1941068Y-1347419D01*
X1939137Y-1328420D01*
X1933193Y-1315669D01*
X1922780Y-1308404D01*
G37*
G36*
X1991106Y-1306017D02*
G01*
X1976475Y-1306830D01*
X1959864Y-1309319D01*
X1960372Y-1318463D01*
X1978914Y-1316786D01*
X1991868Y-1316431D01*
X1994763Y-1316634D01*
X1997354Y-1317294D01*
X1999589Y-1318412D01*
X2001520Y-1319987D01*
X2003094Y-1322019D01*
X2004212Y-1324660D01*
X2004872Y-1327861D01*
X2005075Y-1331671D01*
X2005075Y-1338529D01*
X1979930Y-1341069D01*
X1974037Y-1341932D01*
X1968957Y-1343355D01*
X1964740Y-1345234D01*
X1961388Y-1347673D01*
X1958746Y-1350822D01*
X1956816Y-1354785D01*
X1955698Y-1359458D01*
X1955329Y-1364437D01*
X1967738Y-1364437D01*
X1967941Y-1361186D01*
X1968601Y-1358392D01*
X1969617Y-1356004D01*
X1971039Y-1354023D01*
X1972868Y-1352397D01*
X1975205Y-1351229D01*
X1978050Y-1350365D01*
X2005075Y-1347673D01*
X2005075Y-1374089D01*
X1996033Y-1376883D01*
X1990750Y-1378000D01*
X1985365Y-1378661D01*
X1979930Y-1378915D01*
X1970786Y-1375257D01*
X1967738Y-1364437D01*
X1955329Y-1364437D01*
X1955698Y-1370431D01*
X1956765Y-1375257D01*
X1958593Y-1379474D01*
X1961134Y-1382979D01*
X1964385Y-1385620D01*
X1968246Y-1387551D01*
X1972767Y-1388668D01*
X1977898Y-1389075D01*
X1992375Y-1387449D01*
X2006854Y-1382725D01*
X2010460Y-1385468D01*
X2014829Y-1387449D01*
X2019960Y-1388668D01*
X2025904Y-1389075D01*
X2026412Y-1379677D01*
X2022500Y-1378813D01*
X2019655Y-1377391D01*
X2017826Y-1375257D01*
X2017014Y-1372565D01*
X2017014Y-1331671D01*
X2016658Y-1325473D01*
X2015489Y-1320139D01*
X2013610Y-1315720D01*
X2010918Y-1312113D01*
X2007412Y-1309420D01*
X2002942Y-1307541D01*
X1997506Y-1306372D01*
G37*
G36*
X905764Y-1307541D02*
G01*
X928624Y-1387551D01*
X940308Y-1387551D01*
X929894Y-1423111D01*
X942086Y-1423111D01*
X975360Y-1307541D01*
X963168Y-1307541D01*
X943102Y-1377137D01*
X937768Y-1377137D01*
X917702Y-1307541D01*
G37*
G36*
X1538732Y-1307541D02*
G01*
X1538732Y-1349197D01*
X1540103Y-1368501D01*
X1544066Y-1380693D01*
X1552194Y-1386941D01*
X1565910Y-1389075D01*
X1577695Y-1387297D01*
X1589532Y-1381963D01*
X1589532Y-1387551D01*
X1601470Y-1387551D01*
X1601470Y-1307541D01*
X1589532Y-1307541D01*
X1589532Y-1372565D01*
X1585112Y-1374597D01*
X1580896Y-1376121D01*
X1575612Y-1377543D01*
X1570278Y-1378305D01*
X1567688Y-1378407D01*
X1562760Y-1378051D01*
X1558747Y-1376934D01*
X1555750Y-1375105D01*
X1553718Y-1372565D01*
X1552397Y-1368806D01*
X1551432Y-1363675D01*
X1550873Y-1357122D01*
X1550670Y-1349197D01*
X1550670Y-1307541D01*
G37*
G36*
X560324Y-1441958D02*
G01*
X560324Y-1450086D01*
X590804Y-1450086D01*
X603758Y-1454454D01*
X608076Y-1467612D01*
X603808Y-1480769D01*
X591058Y-1485138D01*
X569468Y-1485138D01*
X569468Y-1450086D01*
X560324Y-1450086D01*
X560324Y-1525016D01*
X569468Y-1525016D01*
X569468Y-1493266D01*
X592836Y-1493266D01*
X608076Y-1525016D01*
X618236Y-1525016D01*
X602234Y-1491234D01*
X613664Y-1482801D01*
X617474Y-1467104D01*
X617067Y-1461058D01*
X615797Y-1455877D01*
X613765Y-1451508D01*
X610870Y-1448054D01*
X607060Y-1445412D01*
X602437Y-1443482D01*
X597001Y-1442364D01*
X590804Y-1441958D01*
G37*
G36*
X778256Y-1445768D02*
G01*
X753110Y-1462532D01*
X757174Y-1469644D01*
X777748Y-1456182D01*
X777748Y-1525016D01*
X786892Y-1525016D01*
X786892Y-1445768D01*
G37*
G36*
X653796Y-1463802D02*
G01*
X642924Y-1465783D01*
X635152Y-1471676D01*
X630478Y-1481531D01*
X629339Y-1491488D01*
X637794Y-1491488D01*
X638149Y-1486611D01*
X638962Y-1482445D01*
X640181Y-1478991D01*
X641858Y-1476248D01*
X644144Y-1474114D01*
X646938Y-1472641D01*
X650240Y-1471726D01*
X654050Y-1471422D01*
X657707Y-1471726D01*
X660857Y-1472539D01*
X663448Y-1474012D01*
X665480Y-1475994D01*
X667054Y-1478686D01*
X668172Y-1482140D01*
X668832Y-1486408D01*
X669036Y-1491488D01*
X629339Y-1491488D01*
X628904Y-1495298D01*
X629259Y-1502765D01*
X630224Y-1509115D01*
X631901Y-1514449D01*
X634238Y-1518666D01*
X637387Y-1522018D01*
X641451Y-1524406D01*
X646531Y-1525828D01*
X652526Y-1526286D01*
X657707Y-1526184D01*
X669391Y-1525168D01*
X675894Y-1524254D01*
X675640Y-1517142D01*
X672338Y-1517650D01*
X654050Y-1518158D01*
X649935Y-1517853D01*
X646480Y-1517040D01*
X643737Y-1515567D01*
X641604Y-1513586D01*
X640029Y-1510842D01*
X638962Y-1507439D01*
X638251Y-1503324D01*
X638048Y-1498600D01*
X677672Y-1498600D01*
X677926Y-1491996D01*
X677570Y-1485138D01*
X676452Y-1479296D01*
X674624Y-1474470D01*
X672084Y-1470660D01*
X668629Y-1467662D01*
X664464Y-1465529D01*
X659485Y-1464208D01*
G37*
G36*
X685546Y-1465072D02*
G01*
X702310Y-1525016D01*
X720344Y-1525016D01*
X737362Y-1465072D01*
X727964Y-1465072D01*
X713486Y-1517142D01*
X709168Y-1517142D01*
X695198Y-1465072D01*
G37*
G36*
X-2843530Y1645157D02*
G01*
X-2847289Y1645005D01*
X-2850692Y1644599D01*
X-2853791Y1643888D01*
X-2856484Y1642872D01*
X-2858871Y1641703D01*
X-2861005Y1640128D01*
X-2862834Y1638249D01*
X-2864358Y1636014D01*
X-2866593Y1630781D01*
X-2868168Y1624838D01*
X-2868930Y1617980D01*
X-2869184Y1609598D01*
X-2868930Y1601012D01*
X-2868168Y1594104D01*
X-2866593Y1588312D01*
X-2864358Y1583182D01*
X-2862834Y1581048D01*
X-2861005Y1579168D01*
X-2858871Y1577594D01*
X-2856484Y1576324D01*
X-2853740Y1575308D01*
X-2850642Y1574596D01*
X-2847136Y1574190D01*
X-2843276Y1574038D01*
X-2838958Y1574139D01*
X-2829712Y1575206D01*
X-2824734Y1576070D01*
X-2824988Y1582674D01*
X-2833979Y1581353D01*
X-2841752Y1580896D01*
X-2847848Y1581251D01*
X-2852420Y1582420D01*
X-2854096Y1583436D01*
X-2855620Y1584706D01*
X-2856890Y1586230D01*
X-2858008Y1588008D01*
X-2859532Y1592072D01*
X-2860548Y1596644D01*
X-2860954Y1602232D01*
X-2861056Y1609344D01*
X-2860852Y1616659D01*
X-2860141Y1622806D01*
X-2859074Y1627835D01*
X-2857500Y1631696D01*
X-2855264Y1634591D01*
X-2852115Y1636623D01*
X-2848000Y1637893D01*
X-2843022Y1638300D01*
X-2834589Y1637842D01*
X-2824988Y1636522D01*
X-2824734Y1642872D01*
X-2834741Y1644599D01*
G37*
G36*
X-2799080Y1644142D02*
G01*
X-2811336Y1599692D01*
X-2803906Y1599692D01*
X-2793492Y1637538D01*
X-2788158Y1637538D01*
X-2777744Y1599692D01*
X-2811336Y1599692D01*
X-2818130Y1575054D01*
X-2810510Y1575054D01*
X-2805684Y1592834D01*
X-2775966Y1592834D01*
X-2770886Y1575054D01*
X-2763520Y1575054D01*
X-2782316Y1644142D01*
G37*
G36*
X-2752598Y1644142D02*
G01*
X-2752598Y1637283D01*
X-2726944Y1637283D01*
X-2716276Y1633677D01*
X-2712720Y1622806D01*
X-2716225Y1611934D01*
X-2726690Y1608328D01*
X-2744724Y1608328D01*
X-2744724Y1637283D01*
X-2752598Y1637283D01*
X-2752598Y1575054D01*
X-2744724Y1575054D01*
X-2744724Y1601470D01*
X-2725166Y1601470D01*
X-2712720Y1575054D01*
X-2704084Y1575054D01*
X-2717546Y1602994D01*
X-2707995Y1610258D01*
X-2704846Y1623314D01*
X-2705201Y1628292D01*
X-2706217Y1632610D01*
X-2707995Y1636166D01*
X-2710434Y1639062D01*
X-2713482Y1641297D01*
X-2717241Y1642872D01*
X-2721711Y1643837D01*
X-2726944Y1644142D01*
G37*
G36*
X-2690876Y1644142D02*
G01*
X-2690876Y1637283D01*
X-2663698Y1637182D01*
X-2659227Y1636268D01*
X-2657348Y1635506D01*
X-2650693Y1626768D01*
X-2648458Y1610614D01*
X-2649575Y1598066D01*
X-2652928Y1589074D01*
X-2658465Y1583690D01*
X-2666238Y1581912D01*
X-2683256Y1581912D01*
X-2683256Y1637283D01*
X-2690876Y1637283D01*
X-2690876Y1575054D01*
X-2666238Y1575054D01*
X-2662682Y1575206D01*
X-2659380Y1575714D01*
X-2656332Y1576476D01*
X-2653538Y1577594D01*
X-2647848Y1582216D01*
X-2643835Y1589278D01*
X-2641396Y1598726D01*
X-2640584Y1610614D01*
X-2640787Y1616557D01*
X-2641396Y1621840D01*
X-2642463Y1626565D01*
X-2643886Y1630680D01*
X-2652115Y1640789D01*
X-2666238Y1644142D01*
G37*
G36*
X-2603246Y1641093D02*
G01*
X-2624074Y1626870D01*
X-2620772Y1621282D01*
X-2603754Y1632457D01*
X-2603754Y1575054D01*
X-2595880Y1575054D01*
X-2595880Y1641093D01*
G37*
G36*
X1345539Y1395171D02*
G01*
X1332585Y1392936D01*
X1324203Y1386281D01*
X1319631Y1375105D01*
X1318107Y1359357D01*
X1325981Y1359357D01*
X1326235Y1366418D01*
X1326997Y1372463D01*
X1328267Y1377492D01*
X1330045Y1381455D01*
X1332534Y1384452D01*
X1335938Y1386586D01*
X1340256Y1387856D01*
X1345539Y1388313D01*
X1350670Y1387856D01*
X1354937Y1386586D01*
X1358290Y1384452D01*
X1360779Y1381455D01*
X1362557Y1377391D01*
X1363827Y1372311D01*
X1364589Y1366215D01*
X1364843Y1359103D01*
X1364589Y1351940D01*
X1363878Y1345895D01*
X1362710Y1341018D01*
X1361033Y1337259D01*
X1358544Y1334465D01*
X1355140Y1332484D01*
X1350772Y1331315D01*
X1345539Y1330909D01*
X1340256Y1331315D01*
X1335938Y1332534D01*
X1332534Y1334617D01*
X1330045Y1337513D01*
X1328267Y1341323D01*
X1326997Y1346250D01*
X1326235Y1352245D01*
X1325981Y1359357D01*
X1318107Y1359357D01*
X1319631Y1343456D01*
X1324203Y1332433D01*
X1332433Y1326134D01*
X1345539Y1324051D01*
X1350162Y1324254D01*
X1353921Y1324813D01*
X1362811Y1310589D01*
X1369923Y1313891D01*
X1361287Y1327607D01*
X1364234Y1329740D01*
X1366672Y1332331D01*
X1368653Y1335430D01*
X1370177Y1339037D01*
X1371396Y1343152D01*
X1372260Y1347927D01*
X1372768Y1353312D01*
X1372971Y1359357D01*
X1371447Y1375257D01*
X1366875Y1386535D01*
X1358493Y1392986D01*
G37*
G36*
X1410309Y1391107D02*
G01*
X1389227Y1376883D01*
X1392783Y1371295D01*
X1409801Y1382471D01*
X1409801Y1325067D01*
X1417421Y1325067D01*
X1417421Y1391107D01*
G37*
G36*
X1345590Y1795170D02*
G01*
X1332484Y1792935D01*
X1324254Y1786280D01*
X1319682Y1775104D01*
X1318158Y1759356D01*
X1326032Y1759356D01*
X1326286Y1766417D01*
X1327048Y1772462D01*
X1328318Y1777492D01*
X1330096Y1781454D01*
X1332585Y1784451D01*
X1335938Y1786585D01*
X1340205Y1787855D01*
X1345336Y1788312D01*
X1350568Y1787855D01*
X1354937Y1786585D01*
X1358341Y1784451D01*
X1360830Y1781454D01*
X1362608Y1777390D01*
X1363878Y1772310D01*
X1364640Y1766214D01*
X1364894Y1759102D01*
X1364640Y1751888D01*
X1363878Y1745894D01*
X1362608Y1740966D01*
X1360830Y1737258D01*
X1358442Y1734464D01*
X1355090Y1732483D01*
X1350822Y1731314D01*
X1345590Y1730908D01*
X1340307Y1731314D01*
X1335989Y1732534D01*
X1332585Y1734616D01*
X1330096Y1737512D01*
X1328318Y1741322D01*
X1327048Y1746250D01*
X1326286Y1752244D01*
X1326032Y1759356D01*
X1318158Y1759356D01*
X1319631Y1743456D01*
X1324000Y1732432D01*
X1332433Y1726133D01*
X1345590Y1724050D01*
X1350213Y1724253D01*
X1353972Y1724812D01*
X1362608Y1710588D01*
X1369974Y1713890D01*
X1361338Y1727606D01*
X1364284Y1729739D01*
X1366723Y1732330D01*
X1368704Y1735429D01*
X1370228Y1739036D01*
X1371447Y1743151D01*
X1372311Y1747926D01*
X1372819Y1753311D01*
X1373022Y1759356D01*
X1371498Y1775256D01*
X1366926Y1786534D01*
X1358544Y1792986D01*
G37*
G36*
X1405788Y1792122D02*
G01*
X1400505Y1791919D01*
X1395425Y1791411D01*
X1390497Y1790547D01*
X1385722Y1789328D01*
X1386484Y1783232D01*
X1392936Y1784400D01*
X1400810Y1785162D01*
X1404772Y1785264D01*
X1408176Y1785112D01*
X1411071Y1784604D01*
X1413408Y1783842D01*
X1415186Y1782724D01*
X1416507Y1781251D01*
X1417472Y1779473D01*
X1418031Y1777339D01*
X1418234Y1774850D01*
X1417980Y1772208D01*
X1417269Y1769821D01*
X1416100Y1767738D01*
X1414424Y1765960D01*
X1412494Y1764487D01*
X1410462Y1763471D01*
X1408430Y1762861D01*
X1406296Y1762658D01*
X1393088Y1762658D01*
X1393088Y1756054D01*
X1406296Y1756054D01*
X1416558Y1752701D01*
X1420012Y1743608D01*
X1416405Y1734057D01*
X1405534Y1730908D01*
X1400759Y1731010D01*
X1390700Y1732025D01*
X1385468Y1732940D01*
X1384706Y1726590D01*
X1392631Y1725168D01*
X1401876Y1724152D01*
X1406296Y1724050D01*
X1411478Y1724355D01*
X1415948Y1725269D01*
X1419606Y1726742D01*
X1422552Y1728876D01*
X1424889Y1731619D01*
X1426565Y1735023D01*
X1427530Y1739087D01*
X1427886Y1743862D01*
X1427683Y1747266D01*
X1427175Y1750212D01*
X1426311Y1752600D01*
X1425092Y1754530D01*
X1423517Y1756105D01*
X1421536Y1757527D01*
X1419199Y1758746D01*
X1416456Y1759864D01*
X1421638Y1763420D01*
X1423466Y1765757D01*
X1425397Y1769414D01*
X1425803Y1770888D01*
X1426108Y1774850D01*
X1425803Y1779117D01*
X1424889Y1782724D01*
X1423365Y1785721D01*
X1421282Y1788058D01*
X1418590Y1789836D01*
X1415135Y1791106D01*
X1410868Y1791868D01*
G37*
G36*
X-1516888Y1719072D02*
G01*
X-1516888Y1671066D01*
X-1516532Y1665630D01*
X-1515414Y1661058D01*
X-1513586Y1657248D01*
X-1511046Y1654302D01*
X-1507642Y1651965D01*
X-1503476Y1650288D01*
X-1498600Y1649323D01*
X-1493012Y1648968D01*
X-1487322Y1649323D01*
X-1482344Y1650288D01*
X-1478178Y1651965D01*
X-1474724Y1654302D01*
X-1472031Y1657248D01*
X-1470152Y1661058D01*
X-1469034Y1665630D01*
X-1468628Y1671066D01*
X-1468628Y1719072D01*
X-1476248Y1719072D01*
X-1476248Y1670812D01*
X-1476502Y1667154D01*
X-1477314Y1664004D01*
X-1478686Y1661414D01*
X-1480566Y1659382D01*
X-1482852Y1657807D01*
X-1485696Y1656689D01*
X-1489100Y1656029D01*
X-1493012Y1655825D01*
X-1505204Y1659585D01*
X-1509268Y1670812D01*
X-1509268Y1719072D01*
G37*
G36*
X-1437894Y1716024D02*
G01*
X-1456690Y1668780D01*
X-1456690Y1662938D01*
X-1424686Y1662938D01*
X-1424686Y1649984D01*
X-1416812Y1649984D01*
X-1416812Y1662938D01*
X-1408430Y1662938D01*
X-1408430Y1669796D01*
X-1416812Y1669796D01*
X-1416812Y1690370D01*
X-1424686Y1690370D01*
X-1424686Y1669796D01*
X-1448562Y1669796D01*
X-1429512Y1716024D01*
G37*
G36*
X1833016Y1495196D02*
G01*
X1820062Y1492961D01*
X1811680Y1486306D01*
X1807108Y1475079D01*
X1805608Y1459382D01*
X1813458Y1459382D01*
X1813712Y1466494D01*
X1814474Y1472539D01*
X1815744Y1477518D01*
X1817522Y1481480D01*
X1820011Y1484477D01*
X1823466Y1486611D01*
X1827784Y1487932D01*
X1833016Y1488338D01*
X1838198Y1487932D01*
X1842414Y1486611D01*
X1845818Y1484477D01*
X1848256Y1481480D01*
X1850034Y1477416D01*
X1851304Y1472336D01*
X1852066Y1466240D01*
X1852320Y1459128D01*
X1852117Y1451965D01*
X1851406Y1445920D01*
X1850186Y1441043D01*
X1848510Y1437284D01*
X1846021Y1434388D01*
X1842617Y1432356D01*
X1838299Y1431086D01*
X1833016Y1430680D01*
X1827784Y1431086D01*
X1823466Y1432407D01*
X1820011Y1434541D01*
X1817522Y1437538D01*
X1815744Y1441399D01*
X1814474Y1446326D01*
X1813712Y1452321D01*
X1813458Y1459382D01*
X1805608Y1459382D01*
X1807108Y1443431D01*
X1811680Y1432458D01*
X1819960Y1426159D01*
X1833016Y1424076D01*
X1837689Y1424279D01*
X1841398Y1424838D01*
X1850288Y1410614D01*
X1857400Y1413916D01*
X1848764Y1427632D01*
X1851710Y1429664D01*
X1854200Y1432255D01*
X1856181Y1435404D01*
X1857654Y1439062D01*
X1858873Y1443177D01*
X1859788Y1447952D01*
X1860296Y1453337D01*
X1860448Y1459382D01*
X1858924Y1475282D01*
X1854352Y1486306D01*
X1845970Y1492961D01*
G37*
G36*
X1892960Y1491894D02*
G01*
X1887931Y1491742D01*
X1883003Y1491284D01*
X1878177Y1490472D01*
X1873402Y1489354D01*
X1873910Y1483004D01*
X1880565Y1484172D01*
X1887829Y1484934D01*
X1894636Y1484884D01*
X1897634Y1484426D01*
X1900123Y1483614D01*
X1902104Y1482496D01*
X1903577Y1480972D01*
X1904593Y1478991D01*
X1905203Y1476552D01*
X1905406Y1473606D01*
X1905000Y1469796D01*
X1903628Y1465986D01*
X1901748Y1462633D01*
X1899564Y1459636D01*
X1872894Y1431442D01*
X1872894Y1425092D01*
X1915058Y1425092D01*
X1915058Y1431696D01*
X1882038Y1431696D01*
X1906066Y1456385D01*
X1908454Y1459382D01*
X1910232Y1462176D01*
X1911604Y1464868D01*
X1912518Y1467764D01*
X1913128Y1470964D01*
X1913280Y1474368D01*
X1912975Y1478635D01*
X1912010Y1482293D01*
X1910435Y1485392D01*
X1908200Y1487830D01*
X1905355Y1489608D01*
X1901850Y1490878D01*
X1897735Y1491640D01*
G37*
G36*
X1832965Y1882698D02*
G01*
X1820011Y1880463D01*
X1811629Y1873808D01*
X1807260Y1862582D01*
X1805811Y1846884D01*
X1813661Y1846884D01*
X1813915Y1853996D01*
X1814677Y1860042D01*
X1815947Y1865020D01*
X1817725Y1868982D01*
X1820214Y1871980D01*
X1823567Y1874113D01*
X1827834Y1875434D01*
X1832965Y1875840D01*
X1838147Y1875434D01*
X1842363Y1874113D01*
X1845767Y1871980D01*
X1848205Y1868982D01*
X1849983Y1864918D01*
X1851253Y1859838D01*
X1852015Y1853742D01*
X1852269Y1846630D01*
X1852066Y1839468D01*
X1851355Y1833422D01*
X1850136Y1828546D01*
X1848459Y1824786D01*
X1845970Y1821891D01*
X1842566Y1819859D01*
X1838248Y1818589D01*
X1832965Y1818182D01*
X1827733Y1818589D01*
X1823415Y1819910D01*
X1819960Y1822043D01*
X1817471Y1825040D01*
X1815795Y1828901D01*
X1814626Y1833829D01*
X1813915Y1839823D01*
X1813661Y1846884D01*
X1805811Y1846884D01*
X1807260Y1830933D01*
X1811629Y1819960D01*
X1819910Y1813661D01*
X1832965Y1811578D01*
X1837639Y1811782D01*
X1841347Y1812340D01*
X1850237Y1798116D01*
X1857349Y1801418D01*
X1848967Y1815134D01*
X1851812Y1817166D01*
X1854250Y1819757D01*
X1856282Y1822907D01*
X1857857Y1826564D01*
X1858975Y1830679D01*
X1859788Y1835454D01*
X1860245Y1840839D01*
X1860397Y1846884D01*
X1858873Y1862785D01*
X1854301Y1873808D01*
X1845919Y1880463D01*
G37*
G36*
X1888845Y1878380D02*
G01*
X1870049Y1831390D01*
X1870049Y1825294D01*
X1902053Y1825294D01*
X1902053Y1812594D01*
X1909673Y1812594D01*
X1909673Y1825294D01*
X1918055Y1825294D01*
X1918055Y1832152D01*
X1909673Y1832152D01*
X1909673Y1852726D01*
X1902053Y1852726D01*
X1902053Y1832152D01*
X1878177Y1832152D01*
X1897227Y1878380D01*
G37*
G36*
X-977900Y1095502D02*
G01*
X-977900Y1037590D01*
X-977442Y1031189D01*
X-976071Y1025702D01*
X-973734Y1021181D01*
X-970534Y1017524D01*
X-966520Y1014730D01*
X-961593Y1012748D01*
X-955700Y1011580D01*
X-948944Y1011174D01*
X-942136Y1011580D01*
X-936244Y1012748D01*
X-931214Y1014730D01*
X-927100Y1017524D01*
X-923899Y1021181D01*
X-921562Y1025702D01*
X-920191Y1031189D01*
X-919734Y1037590D01*
X-919734Y1095502D01*
X-928878Y1095502D01*
X-928878Y1037336D01*
X-929182Y1032967D01*
X-930148Y1029208D01*
X-931722Y1026109D01*
X-933958Y1023619D01*
X-936802Y1021842D01*
X-940308Y1020571D01*
X-944422Y1019810D01*
X-949198Y1019556D01*
X-963879Y1023975D01*
X-968756Y1037336D01*
X-968756Y1095502D01*
G37*
G36*
X-872236Y1091692D02*
G01*
X-897382Y1074928D01*
X-893064Y1067816D01*
X-872744Y1081278D01*
X-872744Y1012444D01*
X-863600Y1012444D01*
X-863600Y1091692D01*
G37*
G36*
X2502916Y1064768D02*
G01*
X2494381Y1063447D01*
X2488234Y1059484D01*
X2484577Y1052931D01*
X2483358Y1043686D01*
X2483612Y1039774D01*
X2484374Y1035862D01*
X2485644Y1032002D01*
X2487422Y1028192D01*
X2466086Y1029969D01*
X2466086Y1061974D01*
X2458974Y1061974D01*
X2458974Y1023619D01*
X2493264Y1021842D01*
X2494280Y1027176D01*
X2492756Y1030376D01*
X2491740Y1033373D01*
X2490774Y1037183D01*
X2490266Y1040892D01*
X2490419Y1045870D01*
X2490978Y1048715D01*
X2491943Y1051102D01*
X2493264Y1053084D01*
X2495042Y1054760D01*
X2497378Y1055928D01*
X2500274Y1056640D01*
X2503678Y1056894D01*
X2507132Y1056640D01*
X2510231Y1055878D01*
X2512872Y1054608D01*
X2515108Y1052830D01*
X2516886Y1050544D01*
X2518156Y1047800D01*
X2518918Y1044600D01*
X2519172Y1040892D01*
X2518613Y1032103D01*
X2516886Y1021587D01*
X2522982Y1020571D01*
X2524607Y1028953D01*
X2525268Y1033780D01*
X2525776Y1042669D01*
X2525420Y1047597D01*
X2524302Y1051915D01*
X2522474Y1055725D01*
X2519934Y1058926D01*
X2516682Y1061466D01*
X2512771Y1063294D01*
X2508148Y1064412D01*
G37*
G36*
X2455672Y1006348D02*
G01*
X2455672Y998728D01*
X2504186Y998728D01*
X2507843Y998474D01*
X2510993Y997661D01*
X2513584Y996289D01*
X2515616Y994410D01*
X2517190Y992124D01*
X2518308Y989279D01*
X2518968Y985875D01*
X2519172Y981964D01*
X2515412Y969771D01*
X2504186Y965708D01*
X2455672Y965708D01*
X2455672Y958087D01*
X2503932Y958087D01*
X2509367Y958443D01*
X2513990Y959561D01*
X2517749Y961390D01*
X2520696Y963930D01*
X2523032Y967333D01*
X2524709Y971499D01*
X2525674Y976376D01*
X2526030Y981964D01*
X2525674Y987704D01*
X2524709Y992632D01*
X2523032Y996797D01*
X2520696Y1000252D01*
X2517749Y1002944D01*
X2513990Y1004824D01*
X2509367Y1005992D01*
X2503932Y1006348D01*
G37*
G36*
X43434Y-1361440D02*
G01*
X43434Y-1394714D01*
X21844Y-1373428D01*
X18592Y-1370431D01*
X15646Y-1368094D01*
X12954Y-1366266D01*
X10210Y-1364945D01*
X7264Y-1363980D01*
X4114Y-1363421D01*
X762Y-1363218D01*
X-3505Y-1363522D01*
X-7162Y-1364488D01*
X-10261Y-1366062D01*
X-12700Y-1368298D01*
X-14579Y-1371142D01*
X-15951Y-1374648D01*
X-16764Y-1378762D01*
X-17018Y-1383538D01*
X-16865Y-1388567D01*
X-16306Y-1393494D01*
X-15443Y-1398371D01*
X-14224Y-1403096D01*
X-7873Y-1402588D01*
X-9144Y-1396085D01*
X-10058Y-1388872D01*
X-10007Y-1382115D01*
X-9448Y-1379169D01*
X-8585Y-1376680D01*
X-7366Y-1374648D01*
X-5842Y-1373073D01*
X-3860Y-1372006D01*
X-1422Y-1371295D01*
X1524Y-1371092D01*
X5283Y-1371549D01*
X8890Y-1372870D01*
X12395Y-1374952D01*
X18592Y-1380083D01*
X43434Y-1403604D01*
X50038Y-1403604D01*
X50038Y-1361440D01*
G37*
G36*
X-19304Y-1418590D02*
G01*
X-19304Y-1426210D01*
X29209Y-1426210D01*
X32867Y-1426464D01*
X36017Y-1427276D01*
X38608Y-1428648D01*
X40640Y-1430528D01*
X42214Y-1432864D01*
X43281Y-1435760D01*
X43992Y-1439214D01*
X44196Y-1443228D01*
X40436Y-1455216D01*
X29209Y-1459230D01*
X-19304Y-1459230D01*
X-19304Y-1467104D01*
X28956Y-1467104D01*
X34391Y-1466748D01*
X38963Y-1465580D01*
X42773Y-1463700D01*
X45720Y-1461008D01*
X48056Y-1457604D01*
X49733Y-1453438D01*
X50698Y-1448562D01*
X51054Y-1442974D01*
X50698Y-1437284D01*
X49733Y-1432306D01*
X48056Y-1428089D01*
X45720Y-1424686D01*
X42773Y-1421993D01*
X38963Y-1420114D01*
X34391Y-1418945D01*
X28956Y-1418590D01*
G37*
G36*
X326898Y1744218D02*
G01*
X348234Y1708912D01*
X326898Y1675130D01*
X335280Y1675130D01*
X352806Y1703578D01*
X370332Y1675130D01*
X378968Y1675130D01*
X357632Y1709166D01*
X378968Y1744218D01*
X370586Y1744218D01*
X353060Y1714500D01*
X335534Y1744218D01*
G37*
G36*
X412496Y1740916D02*
G01*
X391414Y1726946D01*
X394970Y1721104D01*
X411988Y1732280D01*
X411988Y1675130D01*
X419608Y1675130D01*
X419608Y1740916D01*
G37*
G36*
X2482342Y1346454D02*
G01*
X2473807Y1345133D01*
X2467660Y1341170D01*
X2464003Y1334617D01*
X2462784Y1325372D01*
X2463038Y1321562D01*
X2463800Y1317701D01*
X2465070Y1313789D01*
X2466848Y1309878D01*
X2445258Y1311656D01*
X2445258Y1343914D01*
X2438400Y1343914D01*
X2438400Y1305306D01*
X2472690Y1303528D01*
X2473706Y1308862D01*
X2472182Y1312011D01*
X2471166Y1315059D01*
X2470200Y1318971D01*
X2469692Y1322781D01*
X2469845Y1327759D01*
X2470404Y1330502D01*
X2471369Y1332941D01*
X2472690Y1335024D01*
X2474468Y1336598D01*
X2476804Y1337665D01*
X2479700Y1338376D01*
X2483104Y1338580D01*
X2486456Y1338326D01*
X2489454Y1337564D01*
X2492044Y1336294D01*
X2494280Y1334516D01*
X2496058Y1332230D01*
X2497328Y1329486D01*
X2498090Y1326286D01*
X2498344Y1322578D01*
X2497836Y1313942D01*
X2496312Y1303274D01*
X2502408Y1302512D01*
X2504643Y1315516D01*
X2505202Y1324356D01*
X2504846Y1329283D01*
X2503728Y1333652D01*
X2501900Y1337411D01*
X2499360Y1340612D01*
X2496108Y1343152D01*
X2492197Y1344980D01*
X2487574Y1346098D01*
G37*
G36*
X2470150Y1290574D02*
G01*
X2454198Y1289050D01*
X2442972Y1284478D01*
X2436317Y1276096D01*
X2434082Y1263142D01*
X2440940Y1263142D01*
X2441397Y1268272D01*
X2442718Y1272540D01*
X2444953Y1275892D01*
X2448052Y1278382D01*
X2452014Y1280160D01*
X2457043Y1281430D01*
X2463190Y1282192D01*
X2470404Y1282446D01*
X2477465Y1282192D01*
X2483408Y1281480D01*
X2488285Y1280312D01*
X2491994Y1278636D01*
X2494889Y1276146D01*
X2496972Y1272743D01*
X2498191Y1268374D01*
X2498598Y1263142D01*
X2498191Y1257909D01*
X2496921Y1253540D01*
X2494889Y1250137D01*
X2491994Y1247648D01*
X2488031Y1245971D01*
X2483104Y1244803D01*
X2477109Y1244092D01*
X2470150Y1243838D01*
X2463038Y1244092D01*
X2456942Y1244854D01*
X2451862Y1246124D01*
X2447798Y1247902D01*
X2444800Y1250391D01*
X2442667Y1253744D01*
X2441346Y1258011D01*
X2440940Y1263142D01*
X2434082Y1263142D01*
X2436317Y1250188D01*
X2442972Y1241806D01*
X2454198Y1237437D01*
X2470150Y1235964D01*
X2485948Y1237437D01*
X2496820Y1241806D01*
X2503322Y1250035D01*
X2505456Y1263142D01*
X2505202Y1267764D01*
X2504440Y1271524D01*
X2518918Y1280414D01*
X2515362Y1287526D01*
X2501646Y1279144D01*
X2499614Y1281988D01*
X2497074Y1284427D01*
X2494026Y1286408D01*
X2490470Y1288034D01*
X2486355Y1289151D01*
X2481580Y1289913D01*
X2476195Y1290421D01*
G37*
G36*
X-41554Y1606600D02*
G01*
X-41554Y1599996D01*
X-15900Y1599996D01*
X-5232Y1596288D01*
X-1676Y1585264D01*
X-5232Y1574393D01*
X-15900Y1570786D01*
X-33680Y1570786D01*
X-33680Y1599996D01*
X-41554Y1599996D01*
X-41554Y1537512D01*
X-33680Y1537512D01*
X-33680Y1563928D01*
X-14122Y1563928D01*
X-1676Y1537512D01*
X6705Y1537512D01*
X-6502Y1565706D01*
X2997Y1572717D01*
X6197Y1585772D01*
X5842Y1590751D01*
X4775Y1595018D01*
X3048Y1598625D01*
X609Y1601520D01*
X-2540Y1603705D01*
X-6350Y1605330D01*
X-10769Y1606245D01*
X-15900Y1606600D01*
G37*
G36*
X43281Y1603552D02*
G01*
X22199Y1589582D01*
X25755Y1583740D01*
X42773Y1594916D01*
X42773Y1537512D01*
X50393Y1537512D01*
X50393Y1603552D01*
G37*
G36*
X-41554Y1169162D02*
G01*
X-41554Y1162304D01*
X-15900Y1162304D01*
X-5232Y1158697D01*
X-1676Y1147826D01*
X-5232Y1137005D01*
X-15900Y1133398D01*
X-33680Y1133398D01*
X-33680Y1162304D01*
X-41554Y1162304D01*
X-41554Y1100124D01*
X-33680Y1100124D01*
X-33680Y1126540D01*
X-14122Y1126540D01*
X-1676Y1100124D01*
X6705Y1100124D01*
X-6502Y1128064D01*
X2997Y1135075D01*
X6197Y1148130D01*
X5842Y1153210D01*
X4775Y1157579D01*
X3048Y1161186D01*
X609Y1164132D01*
X-2540Y1166317D01*
X-6350Y1167942D01*
X-10769Y1168857D01*
X-15900Y1169162D01*
G37*
G36*
X38709Y1166876D02*
G01*
X33629Y1166723D01*
X28651Y1166266D01*
X23723Y1165453D01*
X18897Y1164336D01*
X19659Y1157986D01*
X26162Y1159205D01*
X33375Y1159967D01*
X40132Y1159865D01*
X43078Y1159408D01*
X45567Y1158595D01*
X47599Y1157478D01*
X49123Y1156004D01*
X50241Y1154023D01*
X50901Y1151534D01*
X51155Y1148638D01*
X50698Y1144778D01*
X49377Y1140968D01*
X45059Y1134618D01*
X18389Y1106474D01*
X18389Y1100124D01*
X60807Y1100124D01*
X60807Y1106678D01*
X27533Y1106678D01*
X48717Y1128064D01*
X51663Y1131366D01*
X55981Y1137208D01*
X57302Y1139850D01*
X58267Y1142746D01*
X58826Y1145946D01*
X59029Y1149400D01*
X58724Y1153668D01*
X57759Y1157325D01*
X56134Y1160373D01*
X53949Y1162812D01*
X51003Y1164590D01*
X47447Y1165860D01*
X43383Y1166672D01*
G37*
G36*
X-1199896Y1262380D02*
G01*
X-1237386Y1224889D01*
X-1199896Y1187399D01*
G37*
G36*
X-957630Y957630D02*
G01*
X-957630Y877620D01*
X-877620Y957630D01*
G37*
G36*
X-1025042Y887526D02*
G01*
X-1025042Y812546D01*
X-987501Y850036D01*
G37*
G36*
X2925114Y862533D02*
G01*
X2887573Y825042D01*
X2925114Y787501D01*
G37*
G36*
X-125069Y-1212545D02*
G01*
X-87579Y-1250035D01*
X-50088Y-1212545D01*
G37*
G36*
X3190494Y1125270D02*
G01*
X3190494Y1074877D01*
X3209391Y1100074D01*
G37*
G36*
X3190494Y725220D02*
G01*
X3190494Y674827D01*
X3209391Y700024D01*
G37*
G36*
X3190494Y1525066D02*
G01*
X3190494Y1474673D01*
X3209391Y1499870D01*
G37*
D10*
X-3534158Y1536702D02*
G01*
X-3491740Y1536702D01*
X-3491692Y700102D01*
X-3581402Y406402D01*
X-3276691Y1536702D02*
G01*
X-3581491Y1536702D01*
X-3581491Y63502D01*
X-3291692Y63502D01*
X-3041743Y63502D02*
G01*
X-2292443Y63502D01*
X-2284478Y1536702D02*
G01*
X-3035391Y1536702D01*
D11*
X-2127862Y521489D02*
G01*
X-2127760Y211584D01*
D12*
X1099997Y1429997D02*
G01*
X1099997Y1529999D01*
X1186398Y1429997D02*
G01*
X1099997Y1429997D01*
X1281394Y1569996D02*
G01*
X1218600Y1569996D01*
X1399997Y1429997D02*
G01*
X1313596Y1429997D01*
X1399997Y1429997D02*
G01*
X1399997Y1529999D01*
X1099997Y1829996D02*
G01*
X1099997Y1929998D01*
X1186398Y1829996D02*
G01*
X1099997Y1829996D01*
X1281394Y1969996D02*
G01*
X1218600Y1969996D01*
X1399997Y1829996D02*
G01*
X1313596Y1829996D01*
X1399997Y1829996D02*
G01*
X1399997Y1929998D01*
D10*
X-1514177Y1615785D02*
G01*
X-1285577Y1615785D01*
X-1514177Y1183985D02*
G01*
X-1285577Y1183985D01*
D12*
X1774997Y1569996D02*
G01*
X1774997Y1469994D01*
X1688597Y1569996D02*
G01*
X1774997Y1569996D01*
X1593601Y1429997D02*
G01*
X1656394Y1429997D01*
X1474998Y1569996D02*
G01*
X1561398Y1569996D01*
X1474998Y1569996D02*
G01*
X1474998Y1469994D01*
X1774997Y1969996D02*
G01*
X1774997Y1869993D01*
X1688597Y1969996D02*
G01*
X1774997Y1969996D01*
X1593601Y1829996D02*
G01*
X1656394Y1829996D01*
X1474998Y1969996D02*
G01*
X1561398Y1969996D01*
X1474998Y1969996D02*
G01*
X1474998Y1869993D01*
D13*
X-957618Y957618D02*
G01*
X957618Y957618D01*
X957618Y-957618D01*
X-957618Y-957618D01*
X-957618Y957618D01*
X-980478Y877618D02*
G01*
X-980478Y980478D01*
X-877618Y980478D01*
D12*
X2852595Y1050033D02*
G01*
X2552595Y1050033D01*
X2852595Y750034D02*
G01*
X2552595Y750034D01*
D13*
X-260233Y-1329928D02*
G01*
X-260233Y-1470167D01*
X-39994Y-1329928D02*
G01*
X-39994Y-1470167D01*
X-176504Y-1470167D02*
G01*
X-123723Y-1470167D01*
D14*
X537499Y1899996D02*
G01*
X587375Y1900034D01*
X587375Y1799958D01*
X537499Y1799996D01*
X462498Y1799996D02*
G01*
X412622Y1799958D01*
X412622Y1900034D01*
X462498Y1899996D01*
X-350050Y-1412402D02*
G01*
X-350012Y-1462278D01*
X-450087Y-1462278D01*
X-450049Y-1412402D01*
X-450049Y-1337401D02*
G01*
X-450087Y-1287526D01*
X-350012Y-1287526D01*
X-350050Y-1337401D01*
X987460Y1649945D02*
G01*
X1037336Y1649984D01*
X1037336Y1549907D01*
X987460Y1549946D01*
X912459Y1549946D02*
G01*
X862584Y1549907D01*
X862584Y1649984D01*
X912459Y1649945D01*
X987460Y2049995D02*
G01*
X1037336Y2050034D01*
X1037336Y1949957D01*
X987460Y1949996D01*
X912459Y1949996D02*
G01*
X862584Y1949957D01*
X862584Y2050034D01*
X912459Y2049995D01*
X-1650022Y1387439D02*
G01*
X-1649984Y1337563D01*
X-1750060Y1337563D01*
X-1750021Y1387439D01*
X-1750021Y1462440D02*
G01*
X-1750060Y1512315D01*
X-1649984Y1512315D01*
X-1650022Y1462440D01*
X-974890Y1387439D02*
G01*
X-974852Y1337563D01*
X-1074928Y1337563D01*
X-1074889Y1387439D01*
X-1074889Y1462440D02*
G01*
X-1074928Y1512315D01*
X-974852Y1512315D01*
X-974890Y1462440D01*
X2887380Y500087D02*
G01*
X2937256Y500126D01*
X2937256Y400050D01*
X2887380Y400088D01*
X2812379Y400088D02*
G01*
X2762504Y400050D01*
X2762504Y500126D01*
X2812379Y500087D01*
X2887380Y649947D02*
G01*
X2937256Y649986D01*
X2937256Y549910D01*
X2887380Y549948D01*
X2812379Y549948D02*
G01*
X2762504Y549910D01*
X2762504Y649986D01*
X2812379Y649947D01*
X2512405Y549948D02*
G01*
X2462529Y549910D01*
X2462529Y649986D01*
X2512405Y649947D01*
X2587406Y649947D02*
G01*
X2637281Y649986D01*
X2637281Y549910D01*
X2587406Y549948D01*
X2512405Y400088D02*
G01*
X2462529Y400050D01*
X2462529Y500126D01*
X2512405Y500087D01*
X2587406Y500087D02*
G01*
X2637281Y500126D01*
X2637281Y400050D01*
X2587406Y400088D01*
X2287432Y949921D02*
G01*
X2337308Y949960D01*
X2337308Y849884D01*
X2287432Y849922D01*
X2212431Y849922D02*
G01*
X2162556Y849884D01*
X2162556Y949960D01*
X2212431Y949921D01*
X2549906Y-750062D02*
G01*
X2449829Y-750062D01*
X2449829Y-549912D01*
X2549906Y-549912D01*
X2799841Y-549912D02*
G01*
X2899918Y-549912D01*
X2899918Y-750062D01*
X2799841Y-750062D01*
X2799841Y-299973D02*
G01*
X2899918Y-299973D01*
X2899918Y-500123D01*
X2799841Y-500123D01*
X2549906Y-500123D02*
G01*
X2449829Y-500123D01*
X2449829Y-299973D01*
X2549906Y-299973D01*
X2799841Y200152D02*
G01*
X2899918Y200152D01*
X2899918Y2D01*
X2799841Y2D01*
X2549906Y2D02*
G01*
X2449829Y2D01*
X2449829Y200152D01*
X2549906Y200152D01*
X2799841Y-50037D02*
G01*
X2899918Y-50037D01*
X2899918Y-250187D01*
X2799841Y-250187D01*
X2549906Y-250187D02*
G01*
X2449829Y-250187D01*
X2449829Y-50037D01*
X2549906Y-50037D01*
D13*
X700659Y1520062D02*
G01*
X700659Y1675764D01*
X535051Y1675764D01*
X677859Y1652856D02*
G01*
X677859Y1347137D01*
X322138Y1347137D01*
X322138Y1652856D01*
X677859Y1652856D01*
D14*
X3351022Y1169415D02*
G01*
X3369990Y1150472D01*
X3369990Y1049675D01*
X3351090Y1030775D01*
X3225091Y1030775D02*
G01*
X3351090Y1030775D01*
X3351090Y1169372D01*
X3225091Y1169372D01*
X3174692Y1169372D02*
G01*
X3048693Y1169372D01*
X3048693Y1030775D01*
X3174692Y1030775D01*
X3351022Y769365D02*
G01*
X3369990Y750422D01*
X3369990Y649625D01*
X3351090Y630725D01*
X3225091Y630725D02*
G01*
X3351090Y630725D01*
X3351090Y769322D01*
X3225091Y769322D01*
X3174692Y769322D02*
G01*
X3048693Y769322D01*
X3048693Y630725D01*
X3174692Y630725D01*
X3351022Y1569212D02*
G01*
X3369990Y1550268D01*
X3369990Y1449471D01*
X3351090Y1430571D01*
X3225091Y1430571D02*
G01*
X3351090Y1430571D01*
X3351090Y1569168D01*
X3225091Y1569168D01*
X3174692Y1569168D02*
G01*
X3048693Y1569168D01*
X3048693Y1430571D01*
X3174692Y1430571D01*
D10*
X2763507Y1369966D02*
G01*
X2849907Y1369966D01*
X2849907Y1369966D02*
G01*
X2849907Y1269964D01*
X2668511Y1229967D02*
G01*
X2731305Y1229967D01*
X2549908Y1369966D02*
G01*
X2636309Y1369966D01*
X2549908Y1369966D02*
G01*
X2549908Y1269964D01*
D14*
X1987458Y1649945D02*
G01*
X2037334Y1649984D01*
X2037334Y1549907D01*
X1987458Y1549946D01*
X1912457Y1549946D02*
G01*
X1862581Y1549907D01*
X1862581Y1649984D01*
X1912457Y1649945D01*
X987460Y1450047D02*
G01*
X1037336Y1450086D01*
X1037336Y1350010D01*
X987460Y1350048D01*
X912459Y1350048D02*
G01*
X862584Y1350010D01*
X862584Y1450086D01*
X912459Y1450047D01*
X1987458Y2049995D02*
G01*
X2037334Y2050034D01*
X2037334Y1949957D01*
X1987458Y1949996D01*
X1912457Y1949996D02*
G01*
X1862581Y1949957D01*
X1862581Y2050034D01*
X1912457Y2049995D01*
X987460Y1850097D02*
G01*
X1037336Y1850136D01*
X1037336Y1750060D01*
X987460Y1750098D01*
X912459Y1750098D02*
G01*
X862584Y1750060D01*
X862584Y1850136D01*
X912459Y1850097D01*
X2650020Y-1262471D02*
G01*
X2649981Y-1212595D01*
X2750058Y-1212595D01*
X2750019Y-1262471D01*
X2750019Y-1337472D02*
G01*
X2750058Y-1387347D01*
X2649981Y-1387347D01*
X2650020Y-1337472D01*
X2799880Y-1262471D02*
G01*
X2799841Y-1212595D01*
X2899918Y-1212595D01*
X2899879Y-1262471D01*
X2899879Y-1337472D02*
G01*
X2899918Y-1387347D01*
X2799841Y-1387347D01*
X2799880Y-1337472D01*
X-450049Y-1562445D02*
G01*
X-450087Y-1512570D01*
X-350012Y-1512570D01*
X-350050Y-1562445D01*
X-350050Y-1637446D02*
G01*
X-350012Y-1687321D01*
X-450087Y-1687321D01*
X-450049Y-1637446D01*
X-1712376Y-1450047D02*
G01*
X-1762252Y-1450086D01*
X-1762252Y-1350010D01*
X-1712376Y-1350048D01*
X-1637375Y-1350048D02*
G01*
X-1587500Y-1350010D01*
X-1587500Y-1450086D01*
X-1637375Y-1450047D01*
X-1712376Y-1299933D02*
G01*
X-1762252Y-1299971D01*
X-1762252Y-1199895D01*
X-1712376Y-1199934D01*
X-1637375Y-1199934D02*
G01*
X-1587500Y-1199895D01*
X-1587500Y-1299971D01*
X-1637375Y-1299933D01*
X-2137496Y-349999D02*
G01*
X-2187371Y-350037D01*
X-2187371Y-249961D01*
X-2137496Y-249999D01*
X-2062495Y-249999D02*
G01*
X-2012619Y-249961D01*
X-2012619Y-350037D01*
X-2062495Y-349999D01*
X2212431Y400088D02*
G01*
X2162556Y400050D01*
X2162556Y500126D01*
X2212431Y500087D01*
X2287432Y500087D02*
G01*
X2337308Y500126D01*
X2337308Y400050D01*
X2287432Y400088D01*
X2212431Y249974D02*
G01*
X2162556Y249936D01*
X2162556Y350012D01*
X2212431Y349973D01*
X2287432Y349973D02*
G01*
X2337308Y350012D01*
X2337308Y249936D01*
X2287432Y249974D01*
X2287432Y649947D02*
G01*
X2337308Y649986D01*
X2337308Y549910D01*
X2287432Y549948D01*
X2212431Y549948D02*
G01*
X2162556Y549910D01*
X2162556Y649986D01*
X2212431Y649947D01*
X2287432Y800061D02*
G01*
X2337308Y800100D01*
X2337308Y700023D01*
X2287432Y700062D01*
X2212431Y700062D02*
G01*
X2162556Y700023D01*
X2162556Y800100D01*
X2212431Y800061D01*
X2287432Y1100035D02*
G01*
X2337308Y1100073D01*
X2337308Y999997D01*
X2287432Y1000036D01*
X2212431Y1000036D02*
G01*
X2162556Y999997D01*
X2162556Y1100073D01*
X2212431Y1100035D01*
X2212431Y1149896D02*
G01*
X2162556Y1149857D01*
X2162556Y1249934D01*
X2212431Y1249895D01*
X2287432Y1249895D02*
G01*
X2337308Y1249934D01*
X2337308Y1149857D01*
X2287432Y1149896D01*
X-25069Y1512481D02*
G01*
X50114Y1512481D01*
X50114Y1387513D01*
X-25069Y1387513D01*
X-174998Y1387497D02*
G01*
X-250113Y1387513D01*
X-250113Y1512481D01*
X-174998Y1512496D01*
X-25069Y1312481D02*
G01*
X50114Y1312481D01*
X50114Y1187513D01*
X-25069Y1187513D01*
X-174998Y1187498D02*
G01*
X-250113Y1187513D01*
X-250113Y1312481D01*
X-174998Y1312496D01*
M02*
