G04 Layer: BottomSilkscreenLayer*
G04 EasyEDA v6.5.22, 2022-12-22 19:37:34*
G04 67d28de8ea5d46aa8ff263e619622a75,b137401b17fb4d15a04862e99c0880a0,10*
G04 Gerber Generator version 0.2*
G04 Scale: 100 percent, Rotated: No, Reflected: No *
G04 Dimensions in millimeters *
G04 leading zeros omitted , absolute positions ,4 integer and 5 decimal *
%FSLAX45Y45*%
%MOMM*%

%ADD10C,0.1500*%

%LPD*%
D10*
X-100114Y37500D02*
G01*
X-100076Y87376D01*
X-200152Y87376D01*
X-200113Y37500D01*
X-200113Y-37500D02*
G01*
X-200152Y-87376D01*
X-100076Y-87376D01*
X-100114Y-37500D01*
X799884Y162397D02*
G01*
X799845Y112521D01*
X899921Y112521D01*
X899883Y162397D01*
X899883Y237398D02*
G01*
X899921Y287273D01*
X799845Y287273D01*
X799884Y237398D01*
X799884Y-237398D02*
G01*
X799845Y-287273D01*
X899921Y-287273D01*
X899883Y-237398D01*
X899883Y-162397D02*
G01*
X899921Y-112521D01*
X799845Y-112521D01*
X799884Y-162397D01*
X299935Y37500D02*
G01*
X299973Y87376D01*
X199897Y87376D01*
X199936Y37500D01*
X199936Y-37500D02*
G01*
X199897Y-87376D01*
X299973Y-87376D01*
X299935Y-37500D01*
X38Y-437550D02*
G01*
X0Y-487426D01*
X100076Y-487426D01*
X100037Y-437550D01*
X100037Y-362549D02*
G01*
X100076Y-312673D01*
X0Y-312673D01*
X38Y-362549D01*
X-200113Y462371D02*
G01*
X-200152Y412495D01*
X-100076Y412495D01*
X-100114Y462371D01*
X-100114Y537372D02*
G01*
X-100076Y587247D01*
X-200152Y587247D01*
X-200113Y537372D01*
X100037Y37500D02*
G01*
X100076Y87376D01*
X0Y87376D01*
X38Y37500D01*
X38Y-37500D02*
G01*
X0Y-87376D01*
X100076Y-87376D01*
X100037Y-37500D01*
X-200113Y-437550D02*
G01*
X-200152Y-487426D01*
X-100076Y-487426D01*
X-100114Y-437550D01*
X-100114Y-362549D02*
G01*
X-100076Y-312673D01*
X-200152Y-312673D01*
X-200113Y-362549D01*
X199936Y-437550D02*
G01*
X199897Y-487426D01*
X299973Y-487426D01*
X299935Y-437550D01*
X299935Y-362549D02*
G01*
X299973Y-312673D01*
X199897Y-312673D01*
X199936Y-362549D01*
M02*
