G04 Layer: BottomSolderMaskLayer*
G04 EasyEDA v6.5.22, 2022-12-22 19:37:34*
G04 67d28de8ea5d46aa8ff263e619622a75,b137401b17fb4d15a04862e99c0880a0,10*
G04 Gerber Generator version 0.2*
G04 Scale: 100 percent, Rotated: No, Reflected: No *
G04 Dimensions in millimeters *
G04 leading zeros omitted , absolute positions ,4 integer and 5 decimal *
%FSLAX45Y45*%
%MOMM*%

%AMMACRO1*1,1,$1,$2,$3*1,1,$1,$4,$5*1,1,$1,0-$2,0-$3*1,1,$1,0-$4,0-$5*20,1,$1,$2,$3,$4,$5,0*20,1,$1,$4,$5,0-$2,0-$3,0*20,1,$1,0-$2,0-$3,0-$4,0-$5,0*20,1,$1,0-$4,0-$5,$2,$3,0*4,1,4,$2,$3,$4,$5,0-$2,0-$3,0-$4,0-$5,$2,$3,0*%
%ADD10MACRO1,0.1016X-0.27X0.2828X0.27X0.2828*%
%ADD11MACRO1,0.1016X-0.27X-0.2828X0.27X-0.2828*%
%ADD12MACRO1,0.1016X0.27X-0.2828X-0.27X-0.2828*%
%ADD13MACRO1,0.1016X0.27X0.2828X-0.27X0.2828*%
%ADD14MACRO1,0.1016X-0.175X1.25X0.175X1.25*%
%ADD15C,3.3016*%

%LPD*%
D10*
G01*
X-150114Y-43282D03*
D11*
G01*
X-150114Y43282D03*
D12*
G01*
X849884Y243180D03*
D13*
G01*
X849884Y156615D03*
D12*
G01*
X849884Y-156615D03*
D13*
G01*
X849884Y-243180D03*
D10*
G01*
X249935Y-43282D03*
D11*
G01*
X249935Y43282D03*
D12*
G01*
X50038Y-356767D03*
D13*
G01*
X50038Y-443332D03*
D12*
G01*
X-150114Y543154D03*
D13*
G01*
X-150114Y456589D03*
D10*
G01*
X50038Y-43282D03*
D11*
G01*
X50038Y43282D03*
D12*
G01*
X-150114Y-356767D03*
D13*
G01*
X-150114Y-443332D03*
D12*
G01*
X249935Y-356767D03*
D13*
G01*
X249935Y-443332D03*
D14*
G01*
X3362492Y-2250045D03*
G01*
X3312480Y-2250045D03*
G01*
X3262492Y-2250045D03*
G01*
X3212480Y-2250045D03*
G01*
X3162493Y-2250045D03*
G01*
X3112480Y-2250045D03*
G01*
X3062493Y-2250045D03*
G01*
X3012480Y-2250045D03*
G01*
X2962493Y-2250045D03*
G01*
X2912480Y-2250045D03*
G01*
X2862493Y-2250045D03*
G01*
X2812481Y-2250045D03*
G01*
X2762493Y-2250045D03*
G01*
X2712481Y-2250045D03*
G01*
X2662494Y-2250045D03*
G01*
X2612481Y-2250045D03*
G01*
X2562494Y-2250045D03*
G01*
X2512481Y-2250045D03*
G01*
X2462494Y-2250045D03*
G01*
X2412481Y-2250045D03*
G01*
X2362494Y-2250045D03*
G01*
X2312482Y-2250045D03*
G01*
X2262494Y-2250045D03*
G01*
X2212482Y-2250045D03*
G01*
X2162495Y-2250045D03*
G01*
X2112482Y-2250045D03*
G01*
X2062495Y-2250045D03*
G01*
X2012482Y-2250045D03*
G01*
X1962495Y-2250045D03*
G01*
X1912482Y-2250045D03*
G01*
X1862495Y-2250045D03*
G01*
X1812483Y-2250045D03*
G01*
X1762495Y-2250045D03*
G01*
X1712483Y-2250045D03*
G01*
X1662496Y-2250045D03*
G01*
X1612483Y-2250045D03*
G01*
X1562496Y-2250045D03*
G01*
X1512483Y-2250045D03*
G01*
X1462496Y-2250045D03*
G01*
X1412483Y-2250045D03*
G01*
X1362496Y-2250045D03*
G01*
X1312484Y-2250045D03*
G01*
X1262496Y-2250045D03*
G01*
X1212484Y-2250045D03*
G01*
X1162497Y-2250045D03*
G01*
X1112484Y-2250045D03*
G01*
X1062497Y-2250045D03*
G01*
X1012484Y-2250045D03*
G01*
X962497Y-2250045D03*
G01*
X912484Y-2250045D03*
G01*
X862497Y-2250045D03*
G01*
X812485Y-2250045D03*
G01*
X762497Y-2250045D03*
G01*
X712485Y-2250045D03*
G01*
X662498Y-2250045D03*
G01*
X612485Y-2250045D03*
G01*
X562498Y-2250045D03*
G01*
X512485Y-2250045D03*
G01*
X462498Y-2250045D03*
G01*
X212498Y-2250045D03*
G01*
X162511Y-2250045D03*
G01*
X112499Y-2250045D03*
G01*
X62511Y-2250045D03*
G01*
X12499Y-2250045D03*
G01*
X-37487Y-2250045D03*
G01*
X-87500Y-2250045D03*
G01*
X-137487Y-2250045D03*
G01*
X-187500Y-2250045D03*
G01*
X-237487Y-2250045D03*
G01*
X-287500Y-2250045D03*
G01*
X-337487Y-2250045D03*
G01*
X-387499Y-2250045D03*
G01*
X-437487Y-2250045D03*
G01*
X-487499Y-2250045D03*
G01*
X-537486Y-2250045D03*
G01*
X-587499Y-2250045D03*
G01*
X-637486Y-2250045D03*
G01*
X-687499Y-2250045D03*
G01*
X-737486Y-2250045D03*
G01*
X-787499Y-2250045D03*
G01*
X-837486Y-2250045D03*
G01*
X-887498Y-2250045D03*
G01*
X-937486Y-2250045D03*
G01*
X-987498Y-2250045D03*
G01*
X-1037485Y-2250045D03*
G01*
X-1087498Y-2250045D03*
G01*
X-1137485Y-2250045D03*
G01*
X-1187498Y-2250045D03*
G01*
X-1237485Y-2250045D03*
G01*
X-1287498Y-2250045D03*
G01*
X-1337485Y-2250045D03*
G01*
X-1387497Y-2250045D03*
G01*
X-1437485Y-2250045D03*
G01*
X-1487497Y-2250045D03*
G01*
X-1537484Y-2250045D03*
G01*
X-1587497Y-2250045D03*
G01*
X-1637484Y-2250045D03*
G01*
X-1687497Y-2250045D03*
G01*
X-1737484Y-2250045D03*
G01*
X-1787497Y-2250045D03*
G01*
X-1837484Y-2250045D03*
G01*
X-1887496Y-2250045D03*
G01*
X-1937484Y-2250045D03*
G01*
X-1987496Y-2250045D03*
G01*
X-2037483Y-2250045D03*
G01*
X-2087496Y-2250045D03*
G01*
X-2137483Y-2250045D03*
G01*
X-2187496Y-2250045D03*
G01*
X-2237483Y-2250045D03*
G01*
X-2287496Y-2250045D03*
G01*
X-2337483Y-2250045D03*
G01*
X-2387495Y-2250045D03*
G01*
X-2437483Y-2250045D03*
G01*
X-2487495Y-2250045D03*
G01*
X-2537482Y-2250045D03*
G01*
X-2587495Y-2250045D03*
G01*
X-2637482Y-2250045D03*
G01*
X-2687495Y-2250045D03*
G01*
X-2737482Y-2250045D03*
G01*
X-2787495Y-2250045D03*
G01*
X-2837482Y-2250045D03*
G01*
X-2887494Y-2250045D03*
G01*
X-2937482Y-2250045D03*
G01*
X-2987494Y-2250045D03*
G01*
X-3037481Y-2250045D03*
G01*
X-3087494Y-2250045D03*
G01*
X-3137481Y-2250045D03*
G01*
X-3187494Y-2250045D03*
G01*
X-3237481Y-2250045D03*
G01*
X-3287494Y-2250045D03*
D15*
G01*
X1599996Y799998D03*
G01*
X1599996Y-799998D03*
G01*
X-1599996Y-799998D03*
G01*
X3199993Y1999995D03*
G01*
X-3199993Y1999995D03*
G01*
X-1599996Y799998D03*
M02*
