G04 Layer: TopPasteMaskLayer*
G04 EasyEDA v6.5.22, 2022-12-22 19:37:34*
G04 67d28de8ea5d46aa8ff263e619622a75,b137401b17fb4d15a04862e99c0880a0,10*
G04 Gerber Generator version 0.2*
G04 Scale: 100 percent, Rotated: No, Reflected: No *
G04 Dimensions in millimeters *
G04 leading zeros omitted , absolute positions ,4 integer and 5 decimal *
%FSLAX45Y45*%
%MOMM*%

%AMMACRO1*21,1,$1,$2,0,0,$3*%
%ADD10C,1.0000*%
%ADD11R,1.3000X0.6000*%
%ADD12R,1.4000X1.2000*%
%ADD13R,2.0000X1.2000*%
%ADD14R,0.8000X1.0000*%
%ADD15R,1.1000X0.2000*%
%ADD16R,1.0000X0.2000*%
%ADD17R,1.7000X2.4000*%
%ADD18R,0.5000X0.3000*%
%ADD19R,0.3150X0.8385*%
%ADD20MACRO1,1.1X1.2X-90.0000*%
%ADD21R,1.2000X1.1000*%
%ADD22MACRO1,1.1X1.2X90.0000*%
%ADD23R,0.9000X0.8000*%
%ADD24R,0.3500X2.5000*%
%ADD25R,0.0171X2.5000*%

%LPD*%
G36*
X-872388Y877976D02*
G01*
X-877976Y872388D01*
X-877976Y827582D01*
X-872388Y821994D01*
X-827582Y821994D01*
X-821994Y827582D01*
X-821994Y872388D01*
X-827582Y877976D01*
G37*
G36*
X-872388Y778002D02*
G01*
X-877976Y772414D01*
X-877976Y727608D01*
X-872388Y722020D01*
X-827582Y722020D01*
X-821994Y727608D01*
X-821994Y772414D01*
X-827582Y778002D01*
G37*
G36*
X-872388Y677976D02*
G01*
X-877976Y672388D01*
X-877976Y627583D01*
X-872388Y621995D01*
X-827582Y621995D01*
X-821994Y627583D01*
X-821994Y672388D01*
X-827582Y677976D01*
G37*
G36*
X-872388Y578002D02*
G01*
X-877976Y572414D01*
X-877976Y527608D01*
X-872388Y522020D01*
X-827582Y522020D01*
X-821994Y527608D01*
X-821994Y572414D01*
X-827582Y578002D01*
G37*
G36*
X-872388Y477977D02*
G01*
X-877976Y472389D01*
X-877976Y427583D01*
X-872388Y421995D01*
X-827582Y421995D01*
X-821994Y427583D01*
X-821994Y472389D01*
X-827582Y477977D01*
G37*
G36*
X-872388Y378002D02*
G01*
X-877976Y372414D01*
X-877976Y327609D01*
X-872388Y322021D01*
X-827582Y322021D01*
X-821994Y327609D01*
X-821994Y372414D01*
X-827582Y378002D01*
G37*
G36*
X-872388Y277977D02*
G01*
X-877976Y272389D01*
X-877976Y227584D01*
X-872388Y221996D01*
X-827582Y221996D01*
X-821994Y227584D01*
X-821994Y272389D01*
X-827582Y277977D01*
G37*
G36*
X-872388Y178003D02*
G01*
X-877976Y172415D01*
X-877976Y127609D01*
X-872388Y122021D01*
X-827582Y122021D01*
X-821994Y127609D01*
X-821994Y172415D01*
X-827582Y178003D01*
G37*
G36*
X-872388Y77978D02*
G01*
X-877976Y72390D01*
X-877976Y27584D01*
X-872388Y21996D01*
X-827582Y21996D01*
X-821994Y27584D01*
X-821994Y72390D01*
X-827582Y77978D01*
G37*
G36*
X-872388Y-21996D02*
G01*
X-877976Y-27584D01*
X-877976Y-72390D01*
X-872388Y-77978D01*
X-827582Y-77978D01*
X-821994Y-72390D01*
X-821994Y-27584D01*
X-827582Y-21996D01*
G37*
G36*
X-872388Y-122021D02*
G01*
X-877976Y-127609D01*
X-877976Y-172415D01*
X-872388Y-178003D01*
X-827582Y-178003D01*
X-821994Y-172415D01*
X-821994Y-127609D01*
X-827582Y-122021D01*
G37*
G36*
X-872388Y-221996D02*
G01*
X-877976Y-227584D01*
X-877976Y-272389D01*
X-872388Y-277977D01*
X-827582Y-277977D01*
X-821994Y-272389D01*
X-821994Y-227584D01*
X-827582Y-221996D01*
G37*
G36*
X-872388Y-322021D02*
G01*
X-877976Y-327609D01*
X-877976Y-372414D01*
X-872388Y-378002D01*
X-827582Y-378002D01*
X-821994Y-372414D01*
X-821994Y-327609D01*
X-827582Y-322021D01*
G37*
G36*
X-872388Y-421995D02*
G01*
X-877976Y-427583D01*
X-877976Y-472389D01*
X-872388Y-477977D01*
X-827582Y-477977D01*
X-821994Y-472389D01*
X-821994Y-427583D01*
X-827582Y-421995D01*
G37*
G36*
X-872388Y-522020D02*
G01*
X-877976Y-527608D01*
X-877976Y-572414D01*
X-872388Y-578002D01*
X-827582Y-578002D01*
X-821994Y-572414D01*
X-821994Y-527608D01*
X-827582Y-522020D01*
G37*
G36*
X-872388Y-621995D02*
G01*
X-877976Y-627583D01*
X-877976Y-672388D01*
X-872388Y-677976D01*
X-827582Y-677976D01*
X-821994Y-672388D01*
X-821994Y-627583D01*
X-827582Y-621995D01*
G37*
G36*
X-872388Y-722020D02*
G01*
X-877976Y-727608D01*
X-877976Y-772414D01*
X-872388Y-778002D01*
X-827582Y-778002D01*
X-821994Y-772414D01*
X-821994Y-727608D01*
X-827582Y-722020D01*
G37*
G36*
X-872388Y-821994D02*
G01*
X-877976Y-827582D01*
X-877976Y-872388D01*
X-872388Y-877976D01*
X-827582Y-877976D01*
X-821994Y-872388D01*
X-821994Y-827582D01*
X-827582Y-821994D01*
G37*
G36*
X-772414Y877976D02*
G01*
X-778002Y872388D01*
X-778002Y827582D01*
X-772414Y821994D01*
X-727608Y821994D01*
X-722020Y827582D01*
X-722020Y872388D01*
X-727608Y877976D01*
G37*
G36*
X-772414Y778002D02*
G01*
X-778002Y772414D01*
X-778002Y727608D01*
X-772414Y722020D01*
X-727608Y722020D01*
X-722020Y727608D01*
X-722020Y772414D01*
X-727608Y778002D01*
G37*
G36*
X-772414Y677976D02*
G01*
X-778002Y672388D01*
X-778002Y627583D01*
X-772414Y621995D01*
X-727608Y621995D01*
X-722020Y627583D01*
X-722020Y672388D01*
X-727608Y677976D01*
G37*
G36*
X-772414Y578002D02*
G01*
X-778002Y572414D01*
X-778002Y527608D01*
X-772414Y522020D01*
X-727608Y522020D01*
X-722020Y527608D01*
X-722020Y572414D01*
X-727608Y578002D01*
G37*
G36*
X-772414Y477977D02*
G01*
X-778002Y472389D01*
X-778002Y427583D01*
X-772414Y421995D01*
X-727608Y421995D01*
X-722020Y427583D01*
X-722020Y472389D01*
X-727608Y477977D01*
G37*
G36*
X-772414Y378002D02*
G01*
X-778002Y372414D01*
X-778002Y327609D01*
X-772414Y322021D01*
X-727608Y322021D01*
X-722020Y327609D01*
X-722020Y372414D01*
X-727608Y378002D01*
G37*
G36*
X-772414Y277977D02*
G01*
X-778002Y272389D01*
X-778002Y227584D01*
X-772414Y221996D01*
X-727608Y221996D01*
X-722020Y227584D01*
X-722020Y272389D01*
X-727608Y277977D01*
G37*
G36*
X-772414Y178003D02*
G01*
X-778002Y172415D01*
X-778002Y127609D01*
X-772414Y122021D01*
X-727608Y122021D01*
X-722020Y127609D01*
X-722020Y172415D01*
X-727608Y178003D01*
G37*
G36*
X-772414Y77978D02*
G01*
X-778002Y72390D01*
X-778002Y27584D01*
X-772414Y21996D01*
X-727608Y21996D01*
X-722020Y27584D01*
X-722020Y72390D01*
X-727608Y77978D01*
G37*
G36*
X-772414Y-21996D02*
G01*
X-778002Y-27584D01*
X-778002Y-72390D01*
X-772414Y-77978D01*
X-727608Y-77978D01*
X-722020Y-72390D01*
X-722020Y-27584D01*
X-727608Y-21996D01*
G37*
G36*
X-772414Y-122021D02*
G01*
X-778002Y-127609D01*
X-778002Y-172415D01*
X-772414Y-178003D01*
X-727608Y-178003D01*
X-722020Y-172415D01*
X-722020Y-127609D01*
X-727608Y-122021D01*
G37*
G36*
X-772414Y-221996D02*
G01*
X-778002Y-227584D01*
X-778002Y-272389D01*
X-772414Y-277977D01*
X-727608Y-277977D01*
X-722020Y-272389D01*
X-722020Y-227584D01*
X-727608Y-221996D01*
G37*
G36*
X-772414Y-322021D02*
G01*
X-778002Y-327609D01*
X-778002Y-372414D01*
X-772414Y-378002D01*
X-727608Y-378002D01*
X-722020Y-372414D01*
X-722020Y-327609D01*
X-727608Y-322021D01*
G37*
G36*
X-772414Y-421995D02*
G01*
X-778002Y-427583D01*
X-778002Y-472389D01*
X-772414Y-477977D01*
X-727608Y-477977D01*
X-722020Y-472389D01*
X-722020Y-427583D01*
X-727608Y-421995D01*
G37*
G36*
X-772414Y-522020D02*
G01*
X-778002Y-527608D01*
X-778002Y-572414D01*
X-772414Y-578002D01*
X-727608Y-578002D01*
X-722020Y-572414D01*
X-722020Y-527608D01*
X-727608Y-522020D01*
G37*
G36*
X-772414Y-621995D02*
G01*
X-778002Y-627583D01*
X-778002Y-672388D01*
X-772414Y-677976D01*
X-727608Y-677976D01*
X-722020Y-672388D01*
X-722020Y-627583D01*
X-727608Y-621995D01*
G37*
G36*
X-772414Y-722020D02*
G01*
X-778002Y-727608D01*
X-778002Y-772414D01*
X-772414Y-778002D01*
X-727608Y-778002D01*
X-722020Y-772414D01*
X-722020Y-727608D01*
X-727608Y-722020D01*
G37*
G36*
X-772414Y-821994D02*
G01*
X-778002Y-827582D01*
X-778002Y-872388D01*
X-772414Y-877976D01*
X-727608Y-877976D01*
X-722020Y-872388D01*
X-722020Y-827582D01*
X-727608Y-821994D01*
G37*
G36*
X-672388Y877976D02*
G01*
X-677976Y872388D01*
X-677976Y827582D01*
X-672388Y821994D01*
X-627583Y821994D01*
X-621995Y827582D01*
X-621995Y872388D01*
X-627583Y877976D01*
G37*
G36*
X-672388Y778002D02*
G01*
X-677976Y772414D01*
X-677976Y727608D01*
X-672388Y722020D01*
X-627583Y722020D01*
X-621995Y727608D01*
X-621995Y772414D01*
X-627583Y778002D01*
G37*
G36*
X-672388Y677976D02*
G01*
X-677976Y672388D01*
X-677976Y627583D01*
X-672388Y621995D01*
X-627583Y621995D01*
X-621995Y627583D01*
X-621995Y672388D01*
X-627583Y677976D01*
G37*
G36*
X-672388Y578002D02*
G01*
X-677976Y572414D01*
X-677976Y527608D01*
X-672388Y522020D01*
X-627583Y522020D01*
X-621995Y527608D01*
X-621995Y572414D01*
X-627583Y578002D01*
G37*
G36*
X-672388Y477977D02*
G01*
X-677976Y472389D01*
X-677976Y427583D01*
X-672388Y421995D01*
X-627583Y421995D01*
X-621995Y427583D01*
X-621995Y472389D01*
X-627583Y477977D01*
G37*
G36*
X-672388Y378002D02*
G01*
X-677976Y372414D01*
X-677976Y327609D01*
X-672388Y322021D01*
X-627583Y322021D01*
X-621995Y327609D01*
X-621995Y372414D01*
X-627583Y378002D01*
G37*
G36*
X-672388Y277977D02*
G01*
X-677976Y272389D01*
X-677976Y227584D01*
X-672388Y221996D01*
X-627583Y221996D01*
X-621995Y227584D01*
X-621995Y272389D01*
X-627583Y277977D01*
G37*
G36*
X-672388Y178003D02*
G01*
X-677976Y172415D01*
X-677976Y127609D01*
X-672388Y122021D01*
X-627583Y122021D01*
X-621995Y127609D01*
X-621995Y172415D01*
X-627583Y178003D01*
G37*
G36*
X-672388Y77978D02*
G01*
X-677976Y72390D01*
X-677976Y27584D01*
X-672388Y21996D01*
X-627583Y21996D01*
X-621995Y27584D01*
X-621995Y72390D01*
X-627583Y77978D01*
G37*
G36*
X-672388Y-21996D02*
G01*
X-677976Y-27584D01*
X-677976Y-72390D01*
X-672388Y-77978D01*
X-627583Y-77978D01*
X-621995Y-72390D01*
X-621995Y-27584D01*
X-627583Y-21996D01*
G37*
G36*
X-672388Y-122021D02*
G01*
X-677976Y-127609D01*
X-677976Y-172415D01*
X-672388Y-178003D01*
X-627583Y-178003D01*
X-621995Y-172415D01*
X-621995Y-127609D01*
X-627583Y-122021D01*
G37*
G36*
X-672388Y-221996D02*
G01*
X-677976Y-227584D01*
X-677976Y-272389D01*
X-672388Y-277977D01*
X-627583Y-277977D01*
X-621995Y-272389D01*
X-621995Y-227584D01*
X-627583Y-221996D01*
G37*
G36*
X-672388Y-322021D02*
G01*
X-677976Y-327609D01*
X-677976Y-372414D01*
X-672388Y-378002D01*
X-627583Y-378002D01*
X-621995Y-372414D01*
X-621995Y-327609D01*
X-627583Y-322021D01*
G37*
G36*
X-672388Y-421995D02*
G01*
X-677976Y-427583D01*
X-677976Y-472389D01*
X-672388Y-477977D01*
X-627583Y-477977D01*
X-621995Y-472389D01*
X-621995Y-427583D01*
X-627583Y-421995D01*
G37*
G36*
X-672388Y-522020D02*
G01*
X-677976Y-527608D01*
X-677976Y-572414D01*
X-672388Y-578002D01*
X-627583Y-578002D01*
X-621995Y-572414D01*
X-621995Y-527608D01*
X-627583Y-522020D01*
G37*
G36*
X-672388Y-621995D02*
G01*
X-677976Y-627583D01*
X-677976Y-672388D01*
X-672388Y-677976D01*
X-627583Y-677976D01*
X-621995Y-672388D01*
X-621995Y-627583D01*
X-627583Y-621995D01*
G37*
G36*
X-672388Y-722020D02*
G01*
X-677976Y-727608D01*
X-677976Y-772414D01*
X-672388Y-778002D01*
X-627583Y-778002D01*
X-621995Y-772414D01*
X-621995Y-727608D01*
X-627583Y-722020D01*
G37*
G36*
X-672388Y-821994D02*
G01*
X-677976Y-827582D01*
X-677976Y-872388D01*
X-672388Y-877976D01*
X-627583Y-877976D01*
X-621995Y-872388D01*
X-621995Y-827582D01*
X-627583Y-821994D01*
G37*
G36*
X-572414Y877976D02*
G01*
X-578002Y872388D01*
X-578002Y827582D01*
X-572414Y821994D01*
X-527608Y821994D01*
X-522020Y827582D01*
X-522020Y872388D01*
X-527608Y877976D01*
G37*
G36*
X-572414Y778002D02*
G01*
X-578002Y772414D01*
X-578002Y727608D01*
X-572414Y722020D01*
X-527608Y722020D01*
X-522020Y727608D01*
X-522020Y772414D01*
X-527608Y778002D01*
G37*
G36*
X-572414Y677976D02*
G01*
X-578002Y672388D01*
X-578002Y627583D01*
X-572414Y621995D01*
X-527608Y621995D01*
X-522020Y627583D01*
X-522020Y672388D01*
X-527608Y677976D01*
G37*
G36*
X-572414Y578002D02*
G01*
X-578002Y572414D01*
X-578002Y527608D01*
X-572414Y522020D01*
X-527608Y522020D01*
X-522020Y527608D01*
X-522020Y572414D01*
X-527608Y578002D01*
G37*
G36*
X-572414Y477977D02*
G01*
X-578002Y472389D01*
X-578002Y427583D01*
X-572414Y421995D01*
X-527608Y421995D01*
X-522020Y427583D01*
X-522020Y472389D01*
X-527608Y477977D01*
G37*
G36*
X-572414Y378002D02*
G01*
X-578002Y372414D01*
X-578002Y327609D01*
X-572414Y322021D01*
X-527608Y322021D01*
X-522020Y327609D01*
X-522020Y372414D01*
X-527608Y378002D01*
G37*
G36*
X-572414Y277977D02*
G01*
X-578002Y272389D01*
X-578002Y227584D01*
X-572414Y221996D01*
X-527608Y221996D01*
X-522020Y227584D01*
X-522020Y272389D01*
X-527608Y277977D01*
G37*
G36*
X-572414Y178003D02*
G01*
X-578002Y172415D01*
X-578002Y127609D01*
X-572414Y122021D01*
X-527608Y122021D01*
X-522020Y127609D01*
X-522020Y172415D01*
X-527608Y178003D01*
G37*
G36*
X-572414Y77978D02*
G01*
X-578002Y72390D01*
X-578002Y27584D01*
X-572414Y21996D01*
X-527608Y21996D01*
X-522020Y27584D01*
X-522020Y72390D01*
X-527608Y77978D01*
G37*
G36*
X-572414Y-21996D02*
G01*
X-578002Y-27584D01*
X-578002Y-72390D01*
X-572414Y-77978D01*
X-527608Y-77978D01*
X-522020Y-72390D01*
X-522020Y-27584D01*
X-527608Y-21996D01*
G37*
G36*
X-572414Y-122021D02*
G01*
X-578002Y-127609D01*
X-578002Y-172415D01*
X-572414Y-178003D01*
X-527608Y-178003D01*
X-522020Y-172415D01*
X-522020Y-127609D01*
X-527608Y-122021D01*
G37*
G36*
X-572414Y-221996D02*
G01*
X-578002Y-227584D01*
X-578002Y-272389D01*
X-572414Y-277977D01*
X-527608Y-277977D01*
X-522020Y-272389D01*
X-522020Y-227584D01*
X-527608Y-221996D01*
G37*
G36*
X-572414Y-322021D02*
G01*
X-578002Y-327609D01*
X-578002Y-372414D01*
X-572414Y-378002D01*
X-527608Y-378002D01*
X-522020Y-372414D01*
X-522020Y-327609D01*
X-527608Y-322021D01*
G37*
G36*
X-572414Y-421995D02*
G01*
X-578002Y-427583D01*
X-578002Y-472389D01*
X-572414Y-477977D01*
X-527608Y-477977D01*
X-522020Y-472389D01*
X-522020Y-427583D01*
X-527608Y-421995D01*
G37*
G36*
X-572414Y-522020D02*
G01*
X-578002Y-527608D01*
X-578002Y-572414D01*
X-572414Y-578002D01*
X-527608Y-578002D01*
X-522020Y-572414D01*
X-522020Y-527608D01*
X-527608Y-522020D01*
G37*
G36*
X-572414Y-621995D02*
G01*
X-578002Y-627583D01*
X-578002Y-672388D01*
X-572414Y-677976D01*
X-527608Y-677976D01*
X-522020Y-672388D01*
X-522020Y-627583D01*
X-527608Y-621995D01*
G37*
G36*
X-572414Y-722020D02*
G01*
X-578002Y-727608D01*
X-578002Y-772414D01*
X-572414Y-778002D01*
X-527608Y-778002D01*
X-522020Y-772414D01*
X-522020Y-727608D01*
X-527608Y-722020D01*
G37*
G36*
X-572414Y-821994D02*
G01*
X-578002Y-827582D01*
X-578002Y-872388D01*
X-572414Y-877976D01*
X-527608Y-877976D01*
X-522020Y-872388D01*
X-522020Y-827582D01*
X-527608Y-821994D01*
G37*
G36*
X-472389Y877976D02*
G01*
X-477977Y872388D01*
X-477977Y827582D01*
X-472389Y821994D01*
X-427583Y821994D01*
X-421995Y827582D01*
X-421995Y872388D01*
X-427583Y877976D01*
G37*
G36*
X-472389Y778002D02*
G01*
X-477977Y772414D01*
X-477977Y727608D01*
X-472389Y722020D01*
X-427583Y722020D01*
X-421995Y727608D01*
X-421995Y772414D01*
X-427583Y778002D01*
G37*
G36*
X-472389Y677976D02*
G01*
X-477977Y672388D01*
X-477977Y627583D01*
X-472389Y621995D01*
X-427583Y621995D01*
X-421995Y627583D01*
X-421995Y672388D01*
X-427583Y677976D01*
G37*
G36*
X-472389Y578002D02*
G01*
X-477977Y572414D01*
X-477977Y527608D01*
X-472389Y522020D01*
X-427583Y522020D01*
X-421995Y527608D01*
X-421995Y572414D01*
X-427583Y578002D01*
G37*
G36*
X-472389Y477977D02*
G01*
X-477977Y472389D01*
X-477977Y427583D01*
X-472389Y421995D01*
X-427583Y421995D01*
X-421995Y427583D01*
X-421995Y472389D01*
X-427583Y477977D01*
G37*
G36*
X-472389Y378002D02*
G01*
X-477977Y372414D01*
X-477977Y327609D01*
X-472389Y322021D01*
X-427583Y322021D01*
X-421995Y327609D01*
X-421995Y372414D01*
X-427583Y378002D01*
G37*
G36*
X-472389Y277977D02*
G01*
X-477977Y272389D01*
X-477977Y227584D01*
X-472389Y221996D01*
X-427583Y221996D01*
X-421995Y227584D01*
X-421995Y272389D01*
X-427583Y277977D01*
G37*
G36*
X-472389Y178003D02*
G01*
X-477977Y172415D01*
X-477977Y127609D01*
X-472389Y122021D01*
X-427583Y122021D01*
X-421995Y127609D01*
X-421995Y172415D01*
X-427583Y178003D01*
G37*
G36*
X-472389Y77978D02*
G01*
X-477977Y72390D01*
X-477977Y27584D01*
X-472389Y21996D01*
X-427583Y21996D01*
X-421995Y27584D01*
X-421995Y72390D01*
X-427583Y77978D01*
G37*
G36*
X-472389Y-21996D02*
G01*
X-477977Y-27584D01*
X-477977Y-72390D01*
X-472389Y-77978D01*
X-427583Y-77978D01*
X-421995Y-72390D01*
X-421995Y-27584D01*
X-427583Y-21996D01*
G37*
G36*
X-472389Y-122021D02*
G01*
X-477977Y-127609D01*
X-477977Y-172415D01*
X-472389Y-178003D01*
X-427583Y-178003D01*
X-421995Y-172415D01*
X-421995Y-127609D01*
X-427583Y-122021D01*
G37*
G36*
X-472389Y-221996D02*
G01*
X-477977Y-227584D01*
X-477977Y-272389D01*
X-472389Y-277977D01*
X-427583Y-277977D01*
X-421995Y-272389D01*
X-421995Y-227584D01*
X-427583Y-221996D01*
G37*
G36*
X-472389Y-322021D02*
G01*
X-477977Y-327609D01*
X-477977Y-372414D01*
X-472389Y-378002D01*
X-427583Y-378002D01*
X-421995Y-372414D01*
X-421995Y-327609D01*
X-427583Y-322021D01*
G37*
G36*
X-472389Y-421995D02*
G01*
X-477977Y-427583D01*
X-477977Y-472389D01*
X-472389Y-477977D01*
X-427583Y-477977D01*
X-421995Y-472389D01*
X-421995Y-427583D01*
X-427583Y-421995D01*
G37*
G36*
X-472389Y-522020D02*
G01*
X-477977Y-527608D01*
X-477977Y-572414D01*
X-472389Y-578002D01*
X-427583Y-578002D01*
X-421995Y-572414D01*
X-421995Y-527608D01*
X-427583Y-522020D01*
G37*
G36*
X-472389Y-621995D02*
G01*
X-477977Y-627583D01*
X-477977Y-672388D01*
X-472389Y-677976D01*
X-427583Y-677976D01*
X-421995Y-672388D01*
X-421995Y-627583D01*
X-427583Y-621995D01*
G37*
G36*
X-472389Y-722020D02*
G01*
X-477977Y-727608D01*
X-477977Y-772414D01*
X-472389Y-778002D01*
X-427583Y-778002D01*
X-421995Y-772414D01*
X-421995Y-727608D01*
X-427583Y-722020D01*
G37*
G36*
X-472389Y-821994D02*
G01*
X-477977Y-827582D01*
X-477977Y-872388D01*
X-472389Y-877976D01*
X-427583Y-877976D01*
X-421995Y-872388D01*
X-421995Y-827582D01*
X-427583Y-821994D01*
G37*
G36*
X-372414Y877976D02*
G01*
X-378002Y872388D01*
X-378002Y827582D01*
X-372414Y821994D01*
X-327609Y821994D01*
X-322021Y827582D01*
X-322021Y872388D01*
X-327609Y877976D01*
G37*
G36*
X-372414Y778002D02*
G01*
X-378002Y772414D01*
X-378002Y727608D01*
X-372414Y722020D01*
X-327609Y722020D01*
X-322021Y727608D01*
X-322021Y772414D01*
X-327609Y778002D01*
G37*
G36*
X-372414Y677976D02*
G01*
X-378002Y672388D01*
X-378002Y627583D01*
X-372414Y621995D01*
X-327609Y621995D01*
X-322021Y627583D01*
X-322021Y672388D01*
X-327609Y677976D01*
G37*
G36*
X-372414Y578002D02*
G01*
X-378002Y572414D01*
X-378002Y527608D01*
X-372414Y522020D01*
X-327609Y522020D01*
X-322021Y527608D01*
X-322021Y572414D01*
X-327609Y578002D01*
G37*
G36*
X-372414Y477977D02*
G01*
X-378002Y472389D01*
X-378002Y427583D01*
X-372414Y421995D01*
X-327609Y421995D01*
X-322021Y427583D01*
X-322021Y472389D01*
X-327609Y477977D01*
G37*
G36*
X-372414Y378002D02*
G01*
X-378002Y372414D01*
X-378002Y327609D01*
X-372414Y322021D01*
X-327609Y322021D01*
X-322021Y327609D01*
X-322021Y372414D01*
X-327609Y378002D01*
G37*
G36*
X-372414Y277977D02*
G01*
X-378002Y272389D01*
X-378002Y227584D01*
X-372414Y221996D01*
X-327609Y221996D01*
X-322021Y227584D01*
X-322021Y272389D01*
X-327609Y277977D01*
G37*
G36*
X-372414Y178003D02*
G01*
X-378002Y172415D01*
X-378002Y127609D01*
X-372414Y122021D01*
X-327609Y122021D01*
X-322021Y127609D01*
X-322021Y172415D01*
X-327609Y178003D01*
G37*
G36*
X-372414Y77978D02*
G01*
X-378002Y72390D01*
X-378002Y27584D01*
X-372414Y21996D01*
X-327609Y21996D01*
X-322021Y27584D01*
X-322021Y72390D01*
X-327609Y77978D01*
G37*
G36*
X-372414Y-21996D02*
G01*
X-378002Y-27584D01*
X-378002Y-72390D01*
X-372414Y-77978D01*
X-327609Y-77978D01*
X-322021Y-72390D01*
X-322021Y-27584D01*
X-327609Y-21996D01*
G37*
G36*
X-372414Y-122021D02*
G01*
X-378002Y-127609D01*
X-378002Y-172415D01*
X-372414Y-178003D01*
X-327609Y-178003D01*
X-322021Y-172415D01*
X-322021Y-127609D01*
X-327609Y-122021D01*
G37*
G36*
X-372414Y-221996D02*
G01*
X-378002Y-227584D01*
X-378002Y-272389D01*
X-372414Y-277977D01*
X-327609Y-277977D01*
X-322021Y-272389D01*
X-322021Y-227584D01*
X-327609Y-221996D01*
G37*
G36*
X-372414Y-322021D02*
G01*
X-378002Y-327609D01*
X-378002Y-372414D01*
X-372414Y-378002D01*
X-327609Y-378002D01*
X-322021Y-372414D01*
X-322021Y-327609D01*
X-327609Y-322021D01*
G37*
G36*
X-372414Y-421995D02*
G01*
X-378002Y-427583D01*
X-378002Y-472389D01*
X-372414Y-477977D01*
X-327609Y-477977D01*
X-322021Y-472389D01*
X-322021Y-427583D01*
X-327609Y-421995D01*
G37*
G36*
X-372414Y-522020D02*
G01*
X-378002Y-527608D01*
X-378002Y-572414D01*
X-372414Y-578002D01*
X-327609Y-578002D01*
X-322021Y-572414D01*
X-322021Y-527608D01*
X-327609Y-522020D01*
G37*
G36*
X-372414Y-621995D02*
G01*
X-378002Y-627583D01*
X-378002Y-672388D01*
X-372414Y-677976D01*
X-327609Y-677976D01*
X-322021Y-672388D01*
X-322021Y-627583D01*
X-327609Y-621995D01*
G37*
G36*
X-372414Y-722020D02*
G01*
X-378002Y-727608D01*
X-378002Y-772414D01*
X-372414Y-778002D01*
X-327609Y-778002D01*
X-322021Y-772414D01*
X-322021Y-727608D01*
X-327609Y-722020D01*
G37*
G36*
X-372414Y-821994D02*
G01*
X-378002Y-827582D01*
X-378002Y-872388D01*
X-372414Y-877976D01*
X-327609Y-877976D01*
X-322021Y-872388D01*
X-322021Y-827582D01*
X-327609Y-821994D01*
G37*
G36*
X-272389Y877976D02*
G01*
X-277977Y872388D01*
X-277977Y827582D01*
X-272389Y821994D01*
X-227584Y821994D01*
X-221996Y827582D01*
X-221996Y872388D01*
X-227584Y877976D01*
G37*
G36*
X-272389Y778002D02*
G01*
X-277977Y772414D01*
X-277977Y727608D01*
X-272389Y722020D01*
X-227584Y722020D01*
X-221996Y727608D01*
X-221996Y772414D01*
X-227584Y778002D01*
G37*
G36*
X-272389Y677976D02*
G01*
X-277977Y672388D01*
X-277977Y627583D01*
X-272389Y621995D01*
X-227584Y621995D01*
X-221996Y627583D01*
X-221996Y672388D01*
X-227584Y677976D01*
G37*
G36*
X-272389Y578002D02*
G01*
X-277977Y572414D01*
X-277977Y527608D01*
X-272389Y522020D01*
X-227584Y522020D01*
X-221996Y527608D01*
X-221996Y572414D01*
X-227584Y578002D01*
G37*
G36*
X-272389Y477977D02*
G01*
X-277977Y472389D01*
X-277977Y427583D01*
X-272389Y421995D01*
X-227584Y421995D01*
X-221996Y427583D01*
X-221996Y472389D01*
X-227584Y477977D01*
G37*
G36*
X-272389Y378002D02*
G01*
X-277977Y372414D01*
X-277977Y327609D01*
X-272389Y322021D01*
X-227584Y322021D01*
X-221996Y327609D01*
X-221996Y372414D01*
X-227584Y378002D01*
G37*
G36*
X-272389Y277977D02*
G01*
X-277977Y272389D01*
X-277977Y227584D01*
X-272389Y221996D01*
X-227584Y221996D01*
X-221996Y227584D01*
X-221996Y272389D01*
X-227584Y277977D01*
G37*
G36*
X-272389Y178003D02*
G01*
X-277977Y172415D01*
X-277977Y127609D01*
X-272389Y122021D01*
X-227584Y122021D01*
X-221996Y127609D01*
X-221996Y172415D01*
X-227584Y178003D01*
G37*
G36*
X-272389Y77978D02*
G01*
X-277977Y72390D01*
X-277977Y27584D01*
X-272389Y21996D01*
X-227584Y21996D01*
X-221996Y27584D01*
X-221996Y72390D01*
X-227584Y77978D01*
G37*
G36*
X-272389Y-21996D02*
G01*
X-277977Y-27584D01*
X-277977Y-72390D01*
X-272389Y-77978D01*
X-227584Y-77978D01*
X-221996Y-72390D01*
X-221996Y-27584D01*
X-227584Y-21996D01*
G37*
G36*
X-272389Y-122021D02*
G01*
X-277977Y-127609D01*
X-277977Y-172415D01*
X-272389Y-178003D01*
X-227584Y-178003D01*
X-221996Y-172415D01*
X-221996Y-127609D01*
X-227584Y-122021D01*
G37*
G36*
X-272389Y-221996D02*
G01*
X-277977Y-227584D01*
X-277977Y-272389D01*
X-272389Y-277977D01*
X-227584Y-277977D01*
X-221996Y-272389D01*
X-221996Y-227584D01*
X-227584Y-221996D01*
G37*
G36*
X-272389Y-322021D02*
G01*
X-277977Y-327609D01*
X-277977Y-372414D01*
X-272389Y-378002D01*
X-227584Y-378002D01*
X-221996Y-372414D01*
X-221996Y-327609D01*
X-227584Y-322021D01*
G37*
G36*
X-272389Y-421995D02*
G01*
X-277977Y-427583D01*
X-277977Y-472389D01*
X-272389Y-477977D01*
X-227584Y-477977D01*
X-221996Y-472389D01*
X-221996Y-427583D01*
X-227584Y-421995D01*
G37*
G36*
X-272389Y-522020D02*
G01*
X-277977Y-527608D01*
X-277977Y-572414D01*
X-272389Y-578002D01*
X-227584Y-578002D01*
X-221996Y-572414D01*
X-221996Y-527608D01*
X-227584Y-522020D01*
G37*
G36*
X-272389Y-621995D02*
G01*
X-277977Y-627583D01*
X-277977Y-672388D01*
X-272389Y-677976D01*
X-227584Y-677976D01*
X-221996Y-672388D01*
X-221996Y-627583D01*
X-227584Y-621995D01*
G37*
G36*
X-272389Y-722020D02*
G01*
X-277977Y-727608D01*
X-277977Y-772414D01*
X-272389Y-778002D01*
X-227584Y-778002D01*
X-221996Y-772414D01*
X-221996Y-727608D01*
X-227584Y-722020D01*
G37*
G36*
X-272389Y-821994D02*
G01*
X-277977Y-827582D01*
X-277977Y-872388D01*
X-272389Y-877976D01*
X-227584Y-877976D01*
X-221996Y-872388D01*
X-221996Y-827582D01*
X-227584Y-821994D01*
G37*
G36*
X-172415Y877976D02*
G01*
X-178003Y872388D01*
X-178003Y827582D01*
X-172415Y821994D01*
X-127609Y821994D01*
X-122021Y827582D01*
X-122021Y872388D01*
X-127609Y877976D01*
G37*
G36*
X-172415Y778002D02*
G01*
X-178003Y772414D01*
X-178003Y727608D01*
X-172415Y722020D01*
X-127609Y722020D01*
X-122021Y727608D01*
X-122021Y772414D01*
X-127609Y778002D01*
G37*
G36*
X-172415Y677976D02*
G01*
X-178003Y672388D01*
X-178003Y627583D01*
X-172415Y621995D01*
X-127609Y621995D01*
X-122021Y627583D01*
X-122021Y672388D01*
X-127609Y677976D01*
G37*
G36*
X-172415Y578002D02*
G01*
X-178003Y572414D01*
X-178003Y527608D01*
X-172415Y522020D01*
X-127609Y522020D01*
X-122021Y527608D01*
X-122021Y572414D01*
X-127609Y578002D01*
G37*
G36*
X-172415Y477977D02*
G01*
X-178003Y472389D01*
X-178003Y427583D01*
X-172415Y421995D01*
X-127609Y421995D01*
X-122021Y427583D01*
X-122021Y472389D01*
X-127609Y477977D01*
G37*
G36*
X-172415Y378002D02*
G01*
X-178003Y372414D01*
X-178003Y327609D01*
X-172415Y322021D01*
X-127609Y322021D01*
X-122021Y327609D01*
X-122021Y372414D01*
X-127609Y378002D01*
G37*
G36*
X-172415Y277977D02*
G01*
X-178003Y272389D01*
X-178003Y227584D01*
X-172415Y221996D01*
X-127609Y221996D01*
X-122021Y227584D01*
X-122021Y272389D01*
X-127609Y277977D01*
G37*
G36*
X-172415Y178003D02*
G01*
X-178003Y172415D01*
X-178003Y127609D01*
X-172415Y122021D01*
X-127609Y122021D01*
X-122021Y127609D01*
X-122021Y172415D01*
X-127609Y178003D01*
G37*
G36*
X-172415Y77978D02*
G01*
X-178003Y72390D01*
X-178003Y27584D01*
X-172415Y21996D01*
X-127609Y21996D01*
X-122021Y27584D01*
X-122021Y72390D01*
X-127609Y77978D01*
G37*
G36*
X-172415Y-21996D02*
G01*
X-178003Y-27584D01*
X-178003Y-72390D01*
X-172415Y-77978D01*
X-127609Y-77978D01*
X-122021Y-72390D01*
X-122021Y-27584D01*
X-127609Y-21996D01*
G37*
G36*
X-172415Y-122021D02*
G01*
X-178003Y-127609D01*
X-178003Y-172415D01*
X-172415Y-178003D01*
X-127609Y-178003D01*
X-122021Y-172415D01*
X-122021Y-127609D01*
X-127609Y-122021D01*
G37*
G36*
X-172415Y-221996D02*
G01*
X-178003Y-227584D01*
X-178003Y-272389D01*
X-172415Y-277977D01*
X-127609Y-277977D01*
X-122021Y-272389D01*
X-122021Y-227584D01*
X-127609Y-221996D01*
G37*
G36*
X-172415Y-322021D02*
G01*
X-178003Y-327609D01*
X-178003Y-372414D01*
X-172415Y-378002D01*
X-127609Y-378002D01*
X-122021Y-372414D01*
X-122021Y-327609D01*
X-127609Y-322021D01*
G37*
G36*
X-172415Y-421995D02*
G01*
X-178003Y-427583D01*
X-178003Y-472389D01*
X-172415Y-477977D01*
X-127609Y-477977D01*
X-122021Y-472389D01*
X-122021Y-427583D01*
X-127609Y-421995D01*
G37*
G36*
X-172415Y-522020D02*
G01*
X-178003Y-527608D01*
X-178003Y-572414D01*
X-172415Y-578002D01*
X-127609Y-578002D01*
X-122021Y-572414D01*
X-122021Y-527608D01*
X-127609Y-522020D01*
G37*
G36*
X-172415Y-621995D02*
G01*
X-178003Y-627583D01*
X-178003Y-672388D01*
X-172415Y-677976D01*
X-127609Y-677976D01*
X-122021Y-672388D01*
X-122021Y-627583D01*
X-127609Y-621995D01*
G37*
G36*
X-172415Y-722020D02*
G01*
X-178003Y-727608D01*
X-178003Y-772414D01*
X-172415Y-778002D01*
X-127609Y-778002D01*
X-122021Y-772414D01*
X-122021Y-727608D01*
X-127609Y-722020D01*
G37*
G36*
X-172415Y-821994D02*
G01*
X-178003Y-827582D01*
X-178003Y-872388D01*
X-172415Y-877976D01*
X-127609Y-877976D01*
X-122021Y-872388D01*
X-122021Y-827582D01*
X-127609Y-821994D01*
G37*
G36*
X-72390Y877976D02*
G01*
X-77978Y872388D01*
X-77978Y827582D01*
X-72390Y821994D01*
X-27584Y821994D01*
X-21996Y827582D01*
X-21996Y872388D01*
X-27584Y877976D01*
G37*
G36*
X-72390Y778002D02*
G01*
X-77978Y772414D01*
X-77978Y727608D01*
X-72390Y722020D01*
X-27584Y722020D01*
X-21996Y727608D01*
X-21996Y772414D01*
X-27584Y778002D01*
G37*
G36*
X-72390Y677976D02*
G01*
X-77978Y672388D01*
X-77978Y627583D01*
X-72390Y621995D01*
X-27584Y621995D01*
X-21996Y627583D01*
X-21996Y672388D01*
X-27584Y677976D01*
G37*
G36*
X-72390Y578002D02*
G01*
X-77978Y572414D01*
X-77978Y527608D01*
X-72390Y522020D01*
X-27584Y522020D01*
X-21996Y527608D01*
X-21996Y572414D01*
X-27584Y578002D01*
G37*
G36*
X-72390Y477977D02*
G01*
X-77978Y472389D01*
X-77978Y427583D01*
X-72390Y421995D01*
X-27584Y421995D01*
X-21996Y427583D01*
X-21996Y472389D01*
X-27584Y477977D01*
G37*
G36*
X-72390Y378002D02*
G01*
X-77978Y372414D01*
X-77978Y327609D01*
X-72390Y322021D01*
X-27584Y322021D01*
X-21996Y327609D01*
X-21996Y372414D01*
X-27584Y378002D01*
G37*
G36*
X-72390Y277977D02*
G01*
X-77978Y272389D01*
X-77978Y227584D01*
X-72390Y221996D01*
X-27584Y221996D01*
X-21996Y227584D01*
X-21996Y272389D01*
X-27584Y277977D01*
G37*
G36*
X-72390Y178003D02*
G01*
X-77978Y172415D01*
X-77978Y127609D01*
X-72390Y122021D01*
X-27584Y122021D01*
X-21996Y127609D01*
X-21996Y172415D01*
X-27584Y178003D01*
G37*
G36*
X-72390Y77978D02*
G01*
X-77978Y72390D01*
X-77978Y27584D01*
X-72390Y21996D01*
X-27584Y21996D01*
X-21996Y27584D01*
X-21996Y72390D01*
X-27584Y77978D01*
G37*
G36*
X-72390Y-21996D02*
G01*
X-77978Y-27584D01*
X-77978Y-72390D01*
X-72390Y-77978D01*
X-27584Y-77978D01*
X-21996Y-72390D01*
X-21996Y-27584D01*
X-27584Y-21996D01*
G37*
G36*
X-72390Y-122021D02*
G01*
X-77978Y-127609D01*
X-77978Y-172415D01*
X-72390Y-178003D01*
X-27584Y-178003D01*
X-21996Y-172415D01*
X-21996Y-127609D01*
X-27584Y-122021D01*
G37*
G36*
X-72390Y-221996D02*
G01*
X-77978Y-227584D01*
X-77978Y-272389D01*
X-72390Y-277977D01*
X-27584Y-277977D01*
X-21996Y-272389D01*
X-21996Y-227584D01*
X-27584Y-221996D01*
G37*
G36*
X-72390Y-322021D02*
G01*
X-77978Y-327609D01*
X-77978Y-372414D01*
X-72390Y-378002D01*
X-27584Y-378002D01*
X-21996Y-372414D01*
X-21996Y-327609D01*
X-27584Y-322021D01*
G37*
G36*
X-72390Y-421995D02*
G01*
X-77978Y-427583D01*
X-77978Y-472389D01*
X-72390Y-477977D01*
X-27584Y-477977D01*
X-21996Y-472389D01*
X-21996Y-427583D01*
X-27584Y-421995D01*
G37*
G36*
X-72390Y-522020D02*
G01*
X-77978Y-527608D01*
X-77978Y-572414D01*
X-72390Y-578002D01*
X-27584Y-578002D01*
X-21996Y-572414D01*
X-21996Y-527608D01*
X-27584Y-522020D01*
G37*
G36*
X-72390Y-621995D02*
G01*
X-77978Y-627583D01*
X-77978Y-672388D01*
X-72390Y-677976D01*
X-27584Y-677976D01*
X-21996Y-672388D01*
X-21996Y-627583D01*
X-27584Y-621995D01*
G37*
G36*
X-72390Y-722020D02*
G01*
X-77978Y-727608D01*
X-77978Y-772414D01*
X-72390Y-778002D01*
X-27584Y-778002D01*
X-21996Y-772414D01*
X-21996Y-727608D01*
X-27584Y-722020D01*
G37*
G36*
X-72390Y-821994D02*
G01*
X-77978Y-827582D01*
X-77978Y-872388D01*
X-72390Y-877976D01*
X-27584Y-877976D01*
X-21996Y-872388D01*
X-21996Y-827582D01*
X-27584Y-821994D01*
G37*
G36*
X27584Y877976D02*
G01*
X21996Y872388D01*
X21996Y827582D01*
X27584Y821994D01*
X72390Y821994D01*
X77978Y827582D01*
X77978Y872388D01*
X72390Y877976D01*
G37*
G36*
X27584Y778002D02*
G01*
X21996Y772414D01*
X21996Y727608D01*
X27584Y722020D01*
X72390Y722020D01*
X77978Y727608D01*
X77978Y772414D01*
X72390Y778002D01*
G37*
G36*
X27584Y677976D02*
G01*
X21996Y672388D01*
X21996Y627583D01*
X27584Y621995D01*
X72390Y621995D01*
X77978Y627583D01*
X77978Y672388D01*
X72390Y677976D01*
G37*
G36*
X27584Y578002D02*
G01*
X21996Y572414D01*
X21996Y527608D01*
X27584Y522020D01*
X72390Y522020D01*
X77978Y527608D01*
X77978Y572414D01*
X72390Y578002D01*
G37*
G36*
X27584Y477977D02*
G01*
X21996Y472389D01*
X21996Y427583D01*
X27584Y421995D01*
X72390Y421995D01*
X77978Y427583D01*
X77978Y472389D01*
X72390Y477977D01*
G37*
G36*
X27584Y378002D02*
G01*
X21996Y372414D01*
X21996Y327609D01*
X27584Y322021D01*
X72390Y322021D01*
X77978Y327609D01*
X77978Y372414D01*
X72390Y378002D01*
G37*
G36*
X27584Y277977D02*
G01*
X21996Y272389D01*
X21996Y227584D01*
X27584Y221996D01*
X72390Y221996D01*
X77978Y227584D01*
X77978Y272389D01*
X72390Y277977D01*
G37*
G36*
X27584Y178003D02*
G01*
X21996Y172415D01*
X21996Y127609D01*
X27584Y122021D01*
X72390Y122021D01*
X77978Y127609D01*
X77978Y172415D01*
X72390Y178003D01*
G37*
G36*
X27584Y77978D02*
G01*
X21996Y72390D01*
X21996Y27584D01*
X27584Y21996D01*
X72390Y21996D01*
X77978Y27584D01*
X77978Y72390D01*
X72390Y77978D01*
G37*
G36*
X27584Y-21996D02*
G01*
X21996Y-27584D01*
X21996Y-72390D01*
X27584Y-77978D01*
X72390Y-77978D01*
X77978Y-72390D01*
X77978Y-27584D01*
X72390Y-21996D01*
G37*
G36*
X27584Y-122021D02*
G01*
X21996Y-127609D01*
X21996Y-172415D01*
X27584Y-178003D01*
X72390Y-178003D01*
X77978Y-172415D01*
X77978Y-127609D01*
X72390Y-122021D01*
G37*
G36*
X27584Y-221996D02*
G01*
X21996Y-227584D01*
X21996Y-272389D01*
X27584Y-277977D01*
X72390Y-277977D01*
X77978Y-272389D01*
X77978Y-227584D01*
X72390Y-221996D01*
G37*
G36*
X27584Y-322021D02*
G01*
X21996Y-327609D01*
X21996Y-372414D01*
X27584Y-378002D01*
X72390Y-378002D01*
X77978Y-372414D01*
X77978Y-327609D01*
X72390Y-322021D01*
G37*
G36*
X27584Y-421995D02*
G01*
X21996Y-427583D01*
X21996Y-472389D01*
X27584Y-477977D01*
X72390Y-477977D01*
X77978Y-472389D01*
X77978Y-427583D01*
X72390Y-421995D01*
G37*
G36*
X27584Y-522020D02*
G01*
X21996Y-527608D01*
X21996Y-572414D01*
X27584Y-578002D01*
X72390Y-578002D01*
X77978Y-572414D01*
X77978Y-527608D01*
X72390Y-522020D01*
G37*
G36*
X27584Y-621995D02*
G01*
X21996Y-627583D01*
X21996Y-672388D01*
X27584Y-677976D01*
X72390Y-677976D01*
X77978Y-672388D01*
X77978Y-627583D01*
X72390Y-621995D01*
G37*
G36*
X27584Y-722020D02*
G01*
X21996Y-727608D01*
X21996Y-772414D01*
X27584Y-778002D01*
X72390Y-778002D01*
X77978Y-772414D01*
X77978Y-727608D01*
X72390Y-722020D01*
G37*
G36*
X27584Y-821994D02*
G01*
X21996Y-827582D01*
X21996Y-872388D01*
X27584Y-877976D01*
X72390Y-877976D01*
X77978Y-872388D01*
X77978Y-827582D01*
X72390Y-821994D01*
G37*
G36*
X127609Y877976D02*
G01*
X122021Y872388D01*
X122021Y827582D01*
X127609Y821994D01*
X172415Y821994D01*
X178003Y827582D01*
X178003Y872388D01*
X172415Y877976D01*
G37*
G36*
X127609Y778002D02*
G01*
X122021Y772414D01*
X122021Y727608D01*
X127609Y722020D01*
X172415Y722020D01*
X178003Y727608D01*
X178003Y772414D01*
X172415Y778002D01*
G37*
G36*
X127609Y677976D02*
G01*
X122021Y672388D01*
X122021Y627583D01*
X127609Y621995D01*
X172415Y621995D01*
X178003Y627583D01*
X178003Y672388D01*
X172415Y677976D01*
G37*
G36*
X127609Y578002D02*
G01*
X122021Y572414D01*
X122021Y527608D01*
X127609Y522020D01*
X172415Y522020D01*
X178003Y527608D01*
X178003Y572414D01*
X172415Y578002D01*
G37*
G36*
X127609Y477977D02*
G01*
X122021Y472389D01*
X122021Y427583D01*
X127609Y421995D01*
X172415Y421995D01*
X178003Y427583D01*
X178003Y472389D01*
X172415Y477977D01*
G37*
G36*
X127609Y378002D02*
G01*
X122021Y372414D01*
X122021Y327609D01*
X127609Y322021D01*
X172415Y322021D01*
X178003Y327609D01*
X178003Y372414D01*
X172415Y378002D01*
G37*
G36*
X127609Y277977D02*
G01*
X122021Y272389D01*
X122021Y227584D01*
X127609Y221996D01*
X172415Y221996D01*
X178003Y227584D01*
X178003Y272389D01*
X172415Y277977D01*
G37*
G36*
X127609Y178003D02*
G01*
X122021Y172415D01*
X122021Y127609D01*
X127609Y122021D01*
X172415Y122021D01*
X178003Y127609D01*
X178003Y172415D01*
X172415Y178003D01*
G37*
G36*
X127609Y77978D02*
G01*
X122021Y72390D01*
X122021Y27584D01*
X127609Y21996D01*
X172415Y21996D01*
X178003Y27584D01*
X178003Y72390D01*
X172415Y77978D01*
G37*
G36*
X127609Y-21996D02*
G01*
X122021Y-27584D01*
X122021Y-72390D01*
X127609Y-77978D01*
X172415Y-77978D01*
X178003Y-72390D01*
X178003Y-27584D01*
X172415Y-21996D01*
G37*
G36*
X127609Y-122021D02*
G01*
X122021Y-127609D01*
X122021Y-172415D01*
X127609Y-178003D01*
X172415Y-178003D01*
X178003Y-172415D01*
X178003Y-127609D01*
X172415Y-122021D01*
G37*
G36*
X127609Y-221996D02*
G01*
X122021Y-227584D01*
X122021Y-272389D01*
X127609Y-277977D01*
X172415Y-277977D01*
X178003Y-272389D01*
X178003Y-227584D01*
X172415Y-221996D01*
G37*
G36*
X127609Y-322021D02*
G01*
X122021Y-327609D01*
X122021Y-372414D01*
X127609Y-378002D01*
X172415Y-378002D01*
X178003Y-372414D01*
X178003Y-327609D01*
X172415Y-322021D01*
G37*
G36*
X127609Y-421995D02*
G01*
X122021Y-427583D01*
X122021Y-472389D01*
X127609Y-477977D01*
X172415Y-477977D01*
X178003Y-472389D01*
X178003Y-427583D01*
X172415Y-421995D01*
G37*
G36*
X127609Y-522020D02*
G01*
X122021Y-527608D01*
X122021Y-572414D01*
X127609Y-578002D01*
X172415Y-578002D01*
X178003Y-572414D01*
X178003Y-527608D01*
X172415Y-522020D01*
G37*
G36*
X127609Y-621995D02*
G01*
X122021Y-627583D01*
X122021Y-672388D01*
X127609Y-677976D01*
X172415Y-677976D01*
X178003Y-672388D01*
X178003Y-627583D01*
X172415Y-621995D01*
G37*
G36*
X127609Y-722020D02*
G01*
X122021Y-727608D01*
X122021Y-772414D01*
X127609Y-778002D01*
X172415Y-778002D01*
X178003Y-772414D01*
X178003Y-727608D01*
X172415Y-722020D01*
G37*
G36*
X127609Y-821994D02*
G01*
X122021Y-827582D01*
X122021Y-872388D01*
X127609Y-877976D01*
X172415Y-877976D01*
X178003Y-872388D01*
X178003Y-827582D01*
X172415Y-821994D01*
G37*
G36*
X227584Y877976D02*
G01*
X221996Y872388D01*
X221996Y827582D01*
X227584Y821994D01*
X272389Y821994D01*
X277977Y827582D01*
X277977Y872388D01*
X272389Y877976D01*
G37*
G36*
X227584Y778002D02*
G01*
X221996Y772414D01*
X221996Y727608D01*
X227584Y722020D01*
X272389Y722020D01*
X277977Y727608D01*
X277977Y772414D01*
X272389Y778002D01*
G37*
G36*
X227584Y677976D02*
G01*
X221996Y672388D01*
X221996Y627583D01*
X227584Y621995D01*
X272389Y621995D01*
X277977Y627583D01*
X277977Y672388D01*
X272389Y677976D01*
G37*
G36*
X227584Y578002D02*
G01*
X221996Y572414D01*
X221996Y527608D01*
X227584Y522020D01*
X272389Y522020D01*
X277977Y527608D01*
X277977Y572414D01*
X272389Y578002D01*
G37*
G36*
X227584Y477977D02*
G01*
X221996Y472389D01*
X221996Y427583D01*
X227584Y421995D01*
X272389Y421995D01*
X277977Y427583D01*
X277977Y472389D01*
X272389Y477977D01*
G37*
G36*
X227584Y378002D02*
G01*
X221996Y372414D01*
X221996Y327609D01*
X227584Y322021D01*
X272389Y322021D01*
X277977Y327609D01*
X277977Y372414D01*
X272389Y378002D01*
G37*
G36*
X227584Y277977D02*
G01*
X221996Y272389D01*
X221996Y227584D01*
X227584Y221996D01*
X272389Y221996D01*
X277977Y227584D01*
X277977Y272389D01*
X272389Y277977D01*
G37*
G36*
X227584Y178003D02*
G01*
X221996Y172415D01*
X221996Y127609D01*
X227584Y122021D01*
X272389Y122021D01*
X277977Y127609D01*
X277977Y172415D01*
X272389Y178003D01*
G37*
G36*
X227584Y77978D02*
G01*
X221996Y72390D01*
X221996Y27584D01*
X227584Y21996D01*
X272389Y21996D01*
X277977Y27584D01*
X277977Y72390D01*
X272389Y77978D01*
G37*
G36*
X227584Y-21996D02*
G01*
X221996Y-27584D01*
X221996Y-72390D01*
X227584Y-77978D01*
X272389Y-77978D01*
X277977Y-72390D01*
X277977Y-27584D01*
X272389Y-21996D01*
G37*
G36*
X227584Y-122021D02*
G01*
X221996Y-127609D01*
X221996Y-172415D01*
X227584Y-178003D01*
X272389Y-178003D01*
X277977Y-172415D01*
X277977Y-127609D01*
X272389Y-122021D01*
G37*
G36*
X227584Y-221996D02*
G01*
X221996Y-227584D01*
X221996Y-272389D01*
X227584Y-277977D01*
X272389Y-277977D01*
X277977Y-272389D01*
X277977Y-227584D01*
X272389Y-221996D01*
G37*
G36*
X227584Y-322021D02*
G01*
X221996Y-327609D01*
X221996Y-372414D01*
X227584Y-378002D01*
X272389Y-378002D01*
X277977Y-372414D01*
X277977Y-327609D01*
X272389Y-322021D01*
G37*
G36*
X227584Y-421995D02*
G01*
X221996Y-427583D01*
X221996Y-472389D01*
X227584Y-477977D01*
X272389Y-477977D01*
X277977Y-472389D01*
X277977Y-427583D01*
X272389Y-421995D01*
G37*
G36*
X227584Y-522020D02*
G01*
X221996Y-527608D01*
X221996Y-572414D01*
X227584Y-578002D01*
X272389Y-578002D01*
X277977Y-572414D01*
X277977Y-527608D01*
X272389Y-522020D01*
G37*
G36*
X227584Y-621995D02*
G01*
X221996Y-627583D01*
X221996Y-672388D01*
X227584Y-677976D01*
X272389Y-677976D01*
X277977Y-672388D01*
X277977Y-627583D01*
X272389Y-621995D01*
G37*
G36*
X227584Y-722020D02*
G01*
X221996Y-727608D01*
X221996Y-772414D01*
X227584Y-778002D01*
X272389Y-778002D01*
X277977Y-772414D01*
X277977Y-727608D01*
X272389Y-722020D01*
G37*
G36*
X227584Y-821994D02*
G01*
X221996Y-827582D01*
X221996Y-872388D01*
X227584Y-877976D01*
X272389Y-877976D01*
X277977Y-872388D01*
X277977Y-827582D01*
X272389Y-821994D01*
G37*
G36*
X327609Y877976D02*
G01*
X322021Y872388D01*
X322021Y827582D01*
X327609Y821994D01*
X372414Y821994D01*
X378002Y827582D01*
X378002Y872388D01*
X372414Y877976D01*
G37*
G36*
X327609Y778002D02*
G01*
X322021Y772414D01*
X322021Y727608D01*
X327609Y722020D01*
X372414Y722020D01*
X378002Y727608D01*
X378002Y772414D01*
X372414Y778002D01*
G37*
G36*
X327609Y677976D02*
G01*
X322021Y672388D01*
X322021Y627583D01*
X327609Y621995D01*
X372414Y621995D01*
X378002Y627583D01*
X378002Y672388D01*
X372414Y677976D01*
G37*
G36*
X327609Y578002D02*
G01*
X322021Y572414D01*
X322021Y527608D01*
X327609Y522020D01*
X372414Y522020D01*
X378002Y527608D01*
X378002Y572414D01*
X372414Y578002D01*
G37*
G36*
X327609Y477977D02*
G01*
X322021Y472389D01*
X322021Y427583D01*
X327609Y421995D01*
X372414Y421995D01*
X378002Y427583D01*
X378002Y472389D01*
X372414Y477977D01*
G37*
G36*
X327609Y378002D02*
G01*
X322021Y372414D01*
X322021Y327609D01*
X327609Y322021D01*
X372414Y322021D01*
X378002Y327609D01*
X378002Y372414D01*
X372414Y378002D01*
G37*
G36*
X327609Y277977D02*
G01*
X322021Y272389D01*
X322021Y227584D01*
X327609Y221996D01*
X372414Y221996D01*
X378002Y227584D01*
X378002Y272389D01*
X372414Y277977D01*
G37*
G36*
X327609Y178003D02*
G01*
X322021Y172415D01*
X322021Y127609D01*
X327609Y122021D01*
X372414Y122021D01*
X378002Y127609D01*
X378002Y172415D01*
X372414Y178003D01*
G37*
G36*
X327609Y77978D02*
G01*
X322021Y72390D01*
X322021Y27584D01*
X327609Y21996D01*
X372414Y21996D01*
X378002Y27584D01*
X378002Y72390D01*
X372414Y77978D01*
G37*
G36*
X327609Y-21996D02*
G01*
X322021Y-27584D01*
X322021Y-72390D01*
X327609Y-77978D01*
X372414Y-77978D01*
X378002Y-72390D01*
X378002Y-27584D01*
X372414Y-21996D01*
G37*
G36*
X327609Y-122021D02*
G01*
X322021Y-127609D01*
X322021Y-172415D01*
X327609Y-178003D01*
X372414Y-178003D01*
X378002Y-172415D01*
X378002Y-127609D01*
X372414Y-122021D01*
G37*
G36*
X327609Y-221996D02*
G01*
X322021Y-227584D01*
X322021Y-272389D01*
X327609Y-277977D01*
X372414Y-277977D01*
X378002Y-272389D01*
X378002Y-227584D01*
X372414Y-221996D01*
G37*
G36*
X327609Y-322021D02*
G01*
X322021Y-327609D01*
X322021Y-372414D01*
X327609Y-378002D01*
X372414Y-378002D01*
X378002Y-372414D01*
X378002Y-327609D01*
X372414Y-322021D01*
G37*
G36*
X327609Y-421995D02*
G01*
X322021Y-427583D01*
X322021Y-472389D01*
X327609Y-477977D01*
X372414Y-477977D01*
X378002Y-472389D01*
X378002Y-427583D01*
X372414Y-421995D01*
G37*
G36*
X327609Y-522020D02*
G01*
X322021Y-527608D01*
X322021Y-572414D01*
X327609Y-578002D01*
X372414Y-578002D01*
X378002Y-572414D01*
X378002Y-527608D01*
X372414Y-522020D01*
G37*
G36*
X327609Y-621995D02*
G01*
X322021Y-627583D01*
X322021Y-672388D01*
X327609Y-677976D01*
X372414Y-677976D01*
X378002Y-672388D01*
X378002Y-627583D01*
X372414Y-621995D01*
G37*
G36*
X327609Y-722020D02*
G01*
X322021Y-727608D01*
X322021Y-772414D01*
X327609Y-778002D01*
X372414Y-778002D01*
X378002Y-772414D01*
X378002Y-727608D01*
X372414Y-722020D01*
G37*
G36*
X327609Y-821994D02*
G01*
X322021Y-827582D01*
X322021Y-872388D01*
X327609Y-877976D01*
X372414Y-877976D01*
X378002Y-872388D01*
X378002Y-827582D01*
X372414Y-821994D01*
G37*
G36*
X427583Y877976D02*
G01*
X421995Y872388D01*
X421995Y827582D01*
X427583Y821994D01*
X472389Y821994D01*
X477977Y827582D01*
X477977Y872388D01*
X472389Y877976D01*
G37*
G36*
X427583Y778002D02*
G01*
X421995Y772414D01*
X421995Y727608D01*
X427583Y722020D01*
X472389Y722020D01*
X477977Y727608D01*
X477977Y772414D01*
X472389Y778002D01*
G37*
G36*
X427583Y677976D02*
G01*
X421995Y672388D01*
X421995Y627583D01*
X427583Y621995D01*
X472389Y621995D01*
X477977Y627583D01*
X477977Y672388D01*
X472389Y677976D01*
G37*
G36*
X427583Y578002D02*
G01*
X421995Y572414D01*
X421995Y527608D01*
X427583Y522020D01*
X472389Y522020D01*
X477977Y527608D01*
X477977Y572414D01*
X472389Y578002D01*
G37*
G36*
X427583Y477977D02*
G01*
X421995Y472389D01*
X421995Y427583D01*
X427583Y421995D01*
X472389Y421995D01*
X477977Y427583D01*
X477977Y472389D01*
X472389Y477977D01*
G37*
G36*
X427583Y378002D02*
G01*
X421995Y372414D01*
X421995Y327609D01*
X427583Y322021D01*
X472389Y322021D01*
X477977Y327609D01*
X477977Y372414D01*
X472389Y378002D01*
G37*
G36*
X427583Y277977D02*
G01*
X421995Y272389D01*
X421995Y227584D01*
X427583Y221996D01*
X472389Y221996D01*
X477977Y227584D01*
X477977Y272389D01*
X472389Y277977D01*
G37*
G36*
X427583Y178003D02*
G01*
X421995Y172415D01*
X421995Y127609D01*
X427583Y122021D01*
X472389Y122021D01*
X477977Y127609D01*
X477977Y172415D01*
X472389Y178003D01*
G37*
G36*
X427583Y77978D02*
G01*
X421995Y72390D01*
X421995Y27584D01*
X427583Y21996D01*
X472389Y21996D01*
X477977Y27584D01*
X477977Y72390D01*
X472389Y77978D01*
G37*
G36*
X427583Y-21996D02*
G01*
X421995Y-27584D01*
X421995Y-72390D01*
X427583Y-77978D01*
X472389Y-77978D01*
X477977Y-72390D01*
X477977Y-27584D01*
X472389Y-21996D01*
G37*
G36*
X427583Y-122021D02*
G01*
X421995Y-127609D01*
X421995Y-172415D01*
X427583Y-178003D01*
X472389Y-178003D01*
X477977Y-172415D01*
X477977Y-127609D01*
X472389Y-122021D01*
G37*
G36*
X427583Y-221996D02*
G01*
X421995Y-227584D01*
X421995Y-272389D01*
X427583Y-277977D01*
X472389Y-277977D01*
X477977Y-272389D01*
X477977Y-227584D01*
X472389Y-221996D01*
G37*
G36*
X427583Y-322021D02*
G01*
X421995Y-327609D01*
X421995Y-372414D01*
X427583Y-378002D01*
X472389Y-378002D01*
X477977Y-372414D01*
X477977Y-327609D01*
X472389Y-322021D01*
G37*
G36*
X427583Y-421995D02*
G01*
X421995Y-427583D01*
X421995Y-472389D01*
X427583Y-477977D01*
X472389Y-477977D01*
X477977Y-472389D01*
X477977Y-427583D01*
X472389Y-421995D01*
G37*
G36*
X427583Y-522020D02*
G01*
X421995Y-527608D01*
X421995Y-572414D01*
X427583Y-578002D01*
X472389Y-578002D01*
X477977Y-572414D01*
X477977Y-527608D01*
X472389Y-522020D01*
G37*
G36*
X427583Y-621995D02*
G01*
X421995Y-627583D01*
X421995Y-672388D01*
X427583Y-677976D01*
X472389Y-677976D01*
X477977Y-672388D01*
X477977Y-627583D01*
X472389Y-621995D01*
G37*
G36*
X427583Y-722020D02*
G01*
X421995Y-727608D01*
X421995Y-772414D01*
X427583Y-778002D01*
X472389Y-778002D01*
X477977Y-772414D01*
X477977Y-727608D01*
X472389Y-722020D01*
G37*
G36*
X427583Y-821994D02*
G01*
X421995Y-827582D01*
X421995Y-872388D01*
X427583Y-877976D01*
X472389Y-877976D01*
X477977Y-872388D01*
X477977Y-827582D01*
X472389Y-821994D01*
G37*
G36*
X527608Y877976D02*
G01*
X522020Y872388D01*
X522020Y827582D01*
X527608Y821994D01*
X572414Y821994D01*
X578002Y827582D01*
X578002Y872388D01*
X572414Y877976D01*
G37*
G36*
X527608Y778002D02*
G01*
X522020Y772414D01*
X522020Y727608D01*
X527608Y722020D01*
X572414Y722020D01*
X578002Y727608D01*
X578002Y772414D01*
X572414Y778002D01*
G37*
G36*
X527608Y677976D02*
G01*
X522020Y672388D01*
X522020Y627583D01*
X527608Y621995D01*
X572414Y621995D01*
X578002Y627583D01*
X578002Y672388D01*
X572414Y677976D01*
G37*
G36*
X527608Y578002D02*
G01*
X522020Y572414D01*
X522020Y527608D01*
X527608Y522020D01*
X572414Y522020D01*
X578002Y527608D01*
X578002Y572414D01*
X572414Y578002D01*
G37*
G36*
X527608Y477977D02*
G01*
X522020Y472389D01*
X522020Y427583D01*
X527608Y421995D01*
X572414Y421995D01*
X578002Y427583D01*
X578002Y472389D01*
X572414Y477977D01*
G37*
G36*
X527608Y378002D02*
G01*
X522020Y372414D01*
X522020Y327609D01*
X527608Y322021D01*
X572414Y322021D01*
X578002Y327609D01*
X578002Y372414D01*
X572414Y378002D01*
G37*
G36*
X527608Y277977D02*
G01*
X522020Y272389D01*
X522020Y227584D01*
X527608Y221996D01*
X572414Y221996D01*
X578002Y227584D01*
X578002Y272389D01*
X572414Y277977D01*
G37*
G36*
X527608Y178003D02*
G01*
X522020Y172415D01*
X522020Y127609D01*
X527608Y122021D01*
X572414Y122021D01*
X578002Y127609D01*
X578002Y172415D01*
X572414Y178003D01*
G37*
G36*
X527608Y77978D02*
G01*
X522020Y72390D01*
X522020Y27584D01*
X527608Y21996D01*
X572414Y21996D01*
X578002Y27584D01*
X578002Y72390D01*
X572414Y77978D01*
G37*
G36*
X527608Y-21996D02*
G01*
X522020Y-27584D01*
X522020Y-72390D01*
X527608Y-77978D01*
X572414Y-77978D01*
X578002Y-72390D01*
X578002Y-27584D01*
X572414Y-21996D01*
G37*
G36*
X527608Y-122021D02*
G01*
X522020Y-127609D01*
X522020Y-172415D01*
X527608Y-178003D01*
X572414Y-178003D01*
X578002Y-172415D01*
X578002Y-127609D01*
X572414Y-122021D01*
G37*
G36*
X527608Y-221996D02*
G01*
X522020Y-227584D01*
X522020Y-272389D01*
X527608Y-277977D01*
X572414Y-277977D01*
X578002Y-272389D01*
X578002Y-227584D01*
X572414Y-221996D01*
G37*
G36*
X527608Y-322021D02*
G01*
X522020Y-327609D01*
X522020Y-372414D01*
X527608Y-378002D01*
X572414Y-378002D01*
X578002Y-372414D01*
X578002Y-327609D01*
X572414Y-322021D01*
G37*
G36*
X527608Y-421995D02*
G01*
X522020Y-427583D01*
X522020Y-472389D01*
X527608Y-477977D01*
X572414Y-477977D01*
X578002Y-472389D01*
X578002Y-427583D01*
X572414Y-421995D01*
G37*
G36*
X527608Y-522020D02*
G01*
X522020Y-527608D01*
X522020Y-572414D01*
X527608Y-578002D01*
X572414Y-578002D01*
X578002Y-572414D01*
X578002Y-527608D01*
X572414Y-522020D01*
G37*
G36*
X527608Y-621995D02*
G01*
X522020Y-627583D01*
X522020Y-672388D01*
X527608Y-677976D01*
X572414Y-677976D01*
X578002Y-672388D01*
X578002Y-627583D01*
X572414Y-621995D01*
G37*
G36*
X527608Y-722020D02*
G01*
X522020Y-727608D01*
X522020Y-772414D01*
X527608Y-778002D01*
X572414Y-778002D01*
X578002Y-772414D01*
X578002Y-727608D01*
X572414Y-722020D01*
G37*
G36*
X527608Y-821994D02*
G01*
X522020Y-827582D01*
X522020Y-872388D01*
X527608Y-877976D01*
X572414Y-877976D01*
X578002Y-872388D01*
X578002Y-827582D01*
X572414Y-821994D01*
G37*
G36*
X627583Y877976D02*
G01*
X621995Y872388D01*
X621995Y827582D01*
X627583Y821994D01*
X672388Y821994D01*
X677976Y827582D01*
X677976Y872388D01*
X672388Y877976D01*
G37*
G36*
X627583Y778002D02*
G01*
X621995Y772414D01*
X621995Y727608D01*
X627583Y722020D01*
X672388Y722020D01*
X677976Y727608D01*
X677976Y772414D01*
X672388Y778002D01*
G37*
G36*
X627583Y677976D02*
G01*
X621995Y672388D01*
X621995Y627583D01*
X627583Y621995D01*
X672388Y621995D01*
X677976Y627583D01*
X677976Y672388D01*
X672388Y677976D01*
G37*
G36*
X627583Y578002D02*
G01*
X621995Y572414D01*
X621995Y527608D01*
X627583Y522020D01*
X672388Y522020D01*
X677976Y527608D01*
X677976Y572414D01*
X672388Y578002D01*
G37*
G36*
X627583Y477977D02*
G01*
X621995Y472389D01*
X621995Y427583D01*
X627583Y421995D01*
X672388Y421995D01*
X677976Y427583D01*
X677976Y472389D01*
X672388Y477977D01*
G37*
G36*
X627583Y378002D02*
G01*
X621995Y372414D01*
X621995Y327609D01*
X627583Y322021D01*
X672388Y322021D01*
X677976Y327609D01*
X677976Y372414D01*
X672388Y378002D01*
G37*
G36*
X627583Y277977D02*
G01*
X621995Y272389D01*
X621995Y227584D01*
X627583Y221996D01*
X672388Y221996D01*
X677976Y227584D01*
X677976Y272389D01*
X672388Y277977D01*
G37*
G36*
X627583Y178003D02*
G01*
X621995Y172415D01*
X621995Y127609D01*
X627583Y122021D01*
X672388Y122021D01*
X677976Y127609D01*
X677976Y172415D01*
X672388Y178003D01*
G37*
G36*
X627583Y77978D02*
G01*
X621995Y72390D01*
X621995Y27584D01*
X627583Y21996D01*
X672388Y21996D01*
X677976Y27584D01*
X677976Y72390D01*
X672388Y77978D01*
G37*
G36*
X627583Y-21996D02*
G01*
X621995Y-27584D01*
X621995Y-72390D01*
X627583Y-77978D01*
X672388Y-77978D01*
X677976Y-72390D01*
X677976Y-27584D01*
X672388Y-21996D01*
G37*
G36*
X627583Y-122021D02*
G01*
X621995Y-127609D01*
X621995Y-172415D01*
X627583Y-178003D01*
X672388Y-178003D01*
X677976Y-172415D01*
X677976Y-127609D01*
X672388Y-122021D01*
G37*
G36*
X627583Y-221996D02*
G01*
X621995Y-227584D01*
X621995Y-272389D01*
X627583Y-277977D01*
X672388Y-277977D01*
X677976Y-272389D01*
X677976Y-227584D01*
X672388Y-221996D01*
G37*
G36*
X627583Y-322021D02*
G01*
X621995Y-327609D01*
X621995Y-372414D01*
X627583Y-378002D01*
X672388Y-378002D01*
X677976Y-372414D01*
X677976Y-327609D01*
X672388Y-322021D01*
G37*
G36*
X627583Y-421995D02*
G01*
X621995Y-427583D01*
X621995Y-472389D01*
X627583Y-477977D01*
X672388Y-477977D01*
X677976Y-472389D01*
X677976Y-427583D01*
X672388Y-421995D01*
G37*
G36*
X627583Y-522020D02*
G01*
X621995Y-527608D01*
X621995Y-572414D01*
X627583Y-578002D01*
X672388Y-578002D01*
X677976Y-572414D01*
X677976Y-527608D01*
X672388Y-522020D01*
G37*
G36*
X627583Y-621995D02*
G01*
X621995Y-627583D01*
X621995Y-672388D01*
X627583Y-677976D01*
X672388Y-677976D01*
X677976Y-672388D01*
X677976Y-627583D01*
X672388Y-621995D01*
G37*
G36*
X627583Y-722020D02*
G01*
X621995Y-727608D01*
X621995Y-772414D01*
X627583Y-778002D01*
X672388Y-778002D01*
X677976Y-772414D01*
X677976Y-727608D01*
X672388Y-722020D01*
G37*
G36*
X627583Y-821994D02*
G01*
X621995Y-827582D01*
X621995Y-872388D01*
X627583Y-877976D01*
X672388Y-877976D01*
X677976Y-872388D01*
X677976Y-827582D01*
X672388Y-821994D01*
G37*
G36*
X727608Y877976D02*
G01*
X722020Y872388D01*
X722020Y827582D01*
X727608Y821994D01*
X772414Y821994D01*
X778002Y827582D01*
X778002Y872388D01*
X772414Y877976D01*
G37*
G36*
X727608Y778002D02*
G01*
X722020Y772414D01*
X722020Y727608D01*
X727608Y722020D01*
X772414Y722020D01*
X778002Y727608D01*
X778002Y772414D01*
X772414Y778002D01*
G37*
G36*
X727608Y677976D02*
G01*
X722020Y672388D01*
X722020Y627583D01*
X727608Y621995D01*
X772414Y621995D01*
X778002Y627583D01*
X778002Y672388D01*
X772414Y677976D01*
G37*
G36*
X727608Y578002D02*
G01*
X722020Y572414D01*
X722020Y527608D01*
X727608Y522020D01*
X772414Y522020D01*
X778002Y527608D01*
X778002Y572414D01*
X772414Y578002D01*
G37*
G36*
X727608Y477977D02*
G01*
X722020Y472389D01*
X722020Y427583D01*
X727608Y421995D01*
X772414Y421995D01*
X778002Y427583D01*
X778002Y472389D01*
X772414Y477977D01*
G37*
G36*
X727608Y378002D02*
G01*
X722020Y372414D01*
X722020Y327609D01*
X727608Y322021D01*
X772414Y322021D01*
X778002Y327609D01*
X778002Y372414D01*
X772414Y378002D01*
G37*
G36*
X727608Y277977D02*
G01*
X722020Y272389D01*
X722020Y227584D01*
X727608Y221996D01*
X772414Y221996D01*
X778002Y227584D01*
X778002Y272389D01*
X772414Y277977D01*
G37*
G36*
X727608Y178003D02*
G01*
X722020Y172415D01*
X722020Y127609D01*
X727608Y122021D01*
X772414Y122021D01*
X778002Y127609D01*
X778002Y172415D01*
X772414Y178003D01*
G37*
G36*
X727608Y77978D02*
G01*
X722020Y72390D01*
X722020Y27584D01*
X727608Y21996D01*
X772414Y21996D01*
X778002Y27584D01*
X778002Y72390D01*
X772414Y77978D01*
G37*
G36*
X727608Y-21996D02*
G01*
X722020Y-27584D01*
X722020Y-72390D01*
X727608Y-77978D01*
X772414Y-77978D01*
X778002Y-72390D01*
X778002Y-27584D01*
X772414Y-21996D01*
G37*
G36*
X727608Y-122021D02*
G01*
X722020Y-127609D01*
X722020Y-172415D01*
X727608Y-178003D01*
X772414Y-178003D01*
X778002Y-172415D01*
X778002Y-127609D01*
X772414Y-122021D01*
G37*
G36*
X727608Y-221996D02*
G01*
X722020Y-227584D01*
X722020Y-272389D01*
X727608Y-277977D01*
X772414Y-277977D01*
X778002Y-272389D01*
X778002Y-227584D01*
X772414Y-221996D01*
G37*
G36*
X727608Y-322021D02*
G01*
X722020Y-327609D01*
X722020Y-372414D01*
X727608Y-378002D01*
X772414Y-378002D01*
X778002Y-372414D01*
X778002Y-327609D01*
X772414Y-322021D01*
G37*
G36*
X727608Y-421995D02*
G01*
X722020Y-427583D01*
X722020Y-472389D01*
X727608Y-477977D01*
X772414Y-477977D01*
X778002Y-472389D01*
X778002Y-427583D01*
X772414Y-421995D01*
G37*
G36*
X727608Y-522020D02*
G01*
X722020Y-527608D01*
X722020Y-572414D01*
X727608Y-578002D01*
X772414Y-578002D01*
X778002Y-572414D01*
X778002Y-527608D01*
X772414Y-522020D01*
G37*
G36*
X727608Y-621995D02*
G01*
X722020Y-627583D01*
X722020Y-672388D01*
X727608Y-677976D01*
X772414Y-677976D01*
X778002Y-672388D01*
X778002Y-627583D01*
X772414Y-621995D01*
G37*
G36*
X727608Y-722020D02*
G01*
X722020Y-727608D01*
X722020Y-772414D01*
X727608Y-778002D01*
X772414Y-778002D01*
X778002Y-772414D01*
X778002Y-727608D01*
X772414Y-722020D01*
G37*
G36*
X727608Y-821994D02*
G01*
X722020Y-827582D01*
X722020Y-872388D01*
X727608Y-877976D01*
X772414Y-877976D01*
X778002Y-872388D01*
X778002Y-827582D01*
X772414Y-821994D01*
G37*
G36*
X827582Y877976D02*
G01*
X821994Y872388D01*
X821994Y827582D01*
X827582Y821994D01*
X872388Y821994D01*
X877976Y827582D01*
X877976Y872388D01*
X872388Y877976D01*
G37*
G36*
X827582Y778002D02*
G01*
X821994Y772414D01*
X821994Y727608D01*
X827582Y722020D01*
X872388Y722020D01*
X877976Y727608D01*
X877976Y772414D01*
X872388Y778002D01*
G37*
G36*
X827582Y677976D02*
G01*
X821994Y672388D01*
X821994Y627583D01*
X827582Y621995D01*
X872388Y621995D01*
X877976Y627583D01*
X877976Y672388D01*
X872388Y677976D01*
G37*
G36*
X827582Y578002D02*
G01*
X821994Y572414D01*
X821994Y527608D01*
X827582Y522020D01*
X872388Y522020D01*
X877976Y527608D01*
X877976Y572414D01*
X872388Y578002D01*
G37*
G36*
X827582Y477977D02*
G01*
X821994Y472389D01*
X821994Y427583D01*
X827582Y421995D01*
X872388Y421995D01*
X877976Y427583D01*
X877976Y472389D01*
X872388Y477977D01*
G37*
G36*
X827582Y378002D02*
G01*
X821994Y372414D01*
X821994Y327609D01*
X827582Y322021D01*
X872388Y322021D01*
X877976Y327609D01*
X877976Y372414D01*
X872388Y378002D01*
G37*
G36*
X827582Y277977D02*
G01*
X821994Y272389D01*
X821994Y227584D01*
X827582Y221996D01*
X872388Y221996D01*
X877976Y227584D01*
X877976Y272389D01*
X872388Y277977D01*
G37*
G36*
X827582Y178003D02*
G01*
X821994Y172415D01*
X821994Y127609D01*
X827582Y122021D01*
X872388Y122021D01*
X877976Y127609D01*
X877976Y172415D01*
X872388Y178003D01*
G37*
G36*
X827582Y77978D02*
G01*
X821994Y72390D01*
X821994Y27584D01*
X827582Y21996D01*
X872388Y21996D01*
X877976Y27584D01*
X877976Y72390D01*
X872388Y77978D01*
G37*
G36*
X827582Y-21996D02*
G01*
X821994Y-27584D01*
X821994Y-72390D01*
X827582Y-77978D01*
X872388Y-77978D01*
X877976Y-72390D01*
X877976Y-27584D01*
X872388Y-21996D01*
G37*
G36*
X827582Y-122021D02*
G01*
X821994Y-127609D01*
X821994Y-172415D01*
X827582Y-178003D01*
X872388Y-178003D01*
X877976Y-172415D01*
X877976Y-127609D01*
X872388Y-122021D01*
G37*
G36*
X827582Y-221996D02*
G01*
X821994Y-227584D01*
X821994Y-272389D01*
X827582Y-277977D01*
X872388Y-277977D01*
X877976Y-272389D01*
X877976Y-227584D01*
X872388Y-221996D01*
G37*
G36*
X827582Y-322021D02*
G01*
X821994Y-327609D01*
X821994Y-372414D01*
X827582Y-378002D01*
X872388Y-378002D01*
X877976Y-372414D01*
X877976Y-327609D01*
X872388Y-322021D01*
G37*
G36*
X827582Y-421995D02*
G01*
X821994Y-427583D01*
X821994Y-472389D01*
X827582Y-477977D01*
X872388Y-477977D01*
X877976Y-472389D01*
X877976Y-427583D01*
X872388Y-421995D01*
G37*
G36*
X827582Y-522020D02*
G01*
X821994Y-527608D01*
X821994Y-572414D01*
X827582Y-578002D01*
X872388Y-578002D01*
X877976Y-572414D01*
X877976Y-527608D01*
X872388Y-522020D01*
G37*
G36*
X827582Y-621995D02*
G01*
X821994Y-627583D01*
X821994Y-672388D01*
X827582Y-677976D01*
X872388Y-677976D01*
X877976Y-672388D01*
X877976Y-627583D01*
X872388Y-621995D01*
G37*
G36*
X827582Y-722020D02*
G01*
X821994Y-727608D01*
X821994Y-772414D01*
X827582Y-778002D01*
X872388Y-778002D01*
X877976Y-772414D01*
X877976Y-727608D01*
X872388Y-722020D01*
G37*
G36*
X827582Y-821994D02*
G01*
X821994Y-827582D01*
X821994Y-872388D01*
X827582Y-877976D01*
X872388Y-877976D01*
X877976Y-872388D01*
X877976Y-827582D01*
X872388Y-821994D01*
G37*
G36*
X2476601Y-564946D02*
G01*
X2466644Y-574954D01*
X2466644Y-725017D01*
X2476601Y-735025D01*
X2577388Y-735025D01*
X2587396Y-725017D01*
X2587396Y-688898D01*
X2577388Y-678891D01*
X2556306Y-678891D01*
X2546299Y-668883D01*
X2546299Y-631088D01*
X2556306Y-621080D01*
X2577388Y-621080D01*
X2587396Y-611073D01*
X2587396Y-574954D01*
X2577388Y-564946D01*
G37*
G36*
X2772359Y-564946D02*
G01*
X2762351Y-574954D01*
X2762351Y-611073D01*
X2772359Y-621080D01*
X2793441Y-621080D01*
X2803448Y-631088D01*
X2803448Y-668883D01*
X2793441Y-678891D01*
X2772359Y-678891D01*
X2762351Y-688898D01*
X2762351Y-725017D01*
X2772359Y-735025D01*
X2873146Y-735025D01*
X2883103Y-725017D01*
X2883103Y-574954D01*
X2873146Y-564946D01*
G37*
G36*
X2772359Y-315010D02*
G01*
X2762351Y-325018D01*
X2762351Y-361137D01*
X2772359Y-371144D01*
X2793441Y-371144D01*
X2803448Y-381152D01*
X2803448Y-418947D01*
X2793441Y-428955D01*
X2772359Y-428955D01*
X2762351Y-438962D01*
X2762351Y-475081D01*
X2772359Y-485089D01*
X2873146Y-485089D01*
X2883103Y-475081D01*
X2883103Y-325018D01*
X2873146Y-315010D01*
G37*
G36*
X2476601Y-315010D02*
G01*
X2466644Y-325018D01*
X2466644Y-475081D01*
X2476601Y-485089D01*
X2577388Y-485089D01*
X2587396Y-475081D01*
X2587396Y-438962D01*
X2577388Y-428955D01*
X2556306Y-428955D01*
X2546299Y-418947D01*
X2546299Y-381152D01*
X2556306Y-371144D01*
X2577388Y-371144D01*
X2587396Y-361137D01*
X2587396Y-325018D01*
X2577388Y-315010D01*
G37*
G36*
X2772359Y185115D02*
G01*
X2762351Y175107D01*
X2762351Y138988D01*
X2772359Y128981D01*
X2793441Y128981D01*
X2803448Y118973D01*
X2803448Y81178D01*
X2793441Y71170D01*
X2772359Y71170D01*
X2762351Y61163D01*
X2762351Y25044D01*
X2772359Y15036D01*
X2873146Y15036D01*
X2883103Y25044D01*
X2883103Y175107D01*
X2873146Y185115D01*
G37*
G36*
X2476601Y185115D02*
G01*
X2466644Y175107D01*
X2466644Y25044D01*
X2476601Y15036D01*
X2577388Y15036D01*
X2587396Y25044D01*
X2587396Y61163D01*
X2577388Y71170D01*
X2556306Y71170D01*
X2546299Y81178D01*
X2546299Y118973D01*
X2556306Y128981D01*
X2577388Y128981D01*
X2587396Y138988D01*
X2587396Y175107D01*
X2577388Y185115D01*
G37*
G36*
X2772359Y-65074D02*
G01*
X2762351Y-75082D01*
X2762351Y-111201D01*
X2772359Y-121208D01*
X2793441Y-121208D01*
X2803448Y-131216D01*
X2803448Y-169011D01*
X2793441Y-179019D01*
X2772359Y-179019D01*
X2762351Y-189026D01*
X2762351Y-225145D01*
X2772359Y-235153D01*
X2873146Y-235153D01*
X2883103Y-225145D01*
X2883103Y-75082D01*
X2873146Y-65074D01*
G37*
G36*
X2476601Y-65074D02*
G01*
X2466644Y-75082D01*
X2466644Y-225145D01*
X2476601Y-235153D01*
X2577388Y-235153D01*
X2587396Y-225145D01*
X2587396Y-189026D01*
X2577388Y-179019D01*
X2556306Y-179019D01*
X2546299Y-169011D01*
X2546299Y-131216D01*
X2556306Y-121208D01*
X2577388Y-121208D01*
X2587396Y-111201D01*
X2587396Y-75082D01*
X2577388Y-65074D01*
G37*
D10*
G01*
X799998Y1899996D03*
G01*
X799998Y1499996D03*
G01*
X199999Y1449984D03*
G01*
X199999Y1249984D03*
G01*
X-199999Y-1150010D03*
G01*
X2499995Y299999D03*
D11*
G01*
X-2097481Y570026D03*
G01*
X-2097481Y680034D03*
G01*
X-2097481Y790041D03*
G01*
X-2097481Y900048D03*
G01*
X-2097481Y1010030D03*
G01*
X-2097481Y1120038D03*
G01*
X-2097481Y1230045D03*
G01*
X-2097481Y1340027D03*
G01*
X-2097481Y1450035D03*
D12*
G01*
X-2182520Y1560042D03*
G01*
X-2182520Y92024D03*
D13*
G01*
X-3152698Y24104D03*
G01*
X-3152698Y1576095D03*
D14*
G01*
X1154988Y1615008D03*
G01*
X1249984Y1384985D03*
G01*
X1345006Y1614982D03*
G01*
X1154988Y2015007D03*
G01*
X1249984Y1784985D03*
G01*
X1345006Y2014981D03*
D15*
G01*
X-1314881Y1219885D03*
D16*
G01*
X-1309878Y1259890D03*
G01*
X-1309878Y1299895D03*
G01*
X-1309878Y1339875D03*
G01*
X-1309878Y1379880D03*
G01*
X-1309878Y1419885D03*
G01*
X-1309878Y1459890D03*
G01*
X-1309878Y1499895D03*
G01*
X-1309878Y1539875D03*
G01*
X-1309878Y1579879D03*
G01*
X-1489887Y1579879D03*
G01*
X-1489887Y1539875D03*
G01*
X-1489887Y1499895D03*
G01*
X-1489887Y1459890D03*
G01*
X-1489887Y1419885D03*
G01*
X-1489887Y1379880D03*
G01*
X-1489887Y1339875D03*
G01*
X-1489887Y1299895D03*
G01*
X-1489887Y1259890D03*
G01*
X-1489887Y1219885D03*
D14*
G01*
X1720011Y1384985D03*
G01*
X1624990Y1615008D03*
G01*
X1529994Y1384985D03*
G01*
X1720011Y1784985D03*
G01*
X1624990Y2015007D03*
G01*
X1529994Y1784985D03*
D17*
G01*
X2702610Y900023D03*
D18*
G01*
X2567609Y975029D03*
G01*
X2567609Y925017D03*
G01*
X2567609Y875029D03*
G01*
X2567609Y825017D03*
G01*
X2832608Y975029D03*
G01*
X2832608Y925017D03*
G01*
X2832608Y875029D03*
G01*
X2832608Y825017D03*
D19*
G01*
X-85115Y-1315618D03*
G01*
X-150113Y-1315618D03*
G01*
X-215112Y-1315618D03*
G01*
X-215112Y-1484477D03*
G01*
X-85115Y-1484477D03*
D20*
G01*
X595000Y1574996D03*
G01*
X404997Y1574996D03*
D21*
G01*
X405003Y1424990D03*
D22*
G01*
X595000Y1424997D03*
D23*
G01*
X3279902Y1100073D03*
G01*
X3119881Y1100073D03*
G01*
X3279902Y700023D03*
G01*
X3119881Y700023D03*
G01*
X3279902Y1499870D03*
G01*
X3119881Y1499870D03*
D14*
G01*
X2794914Y1184960D03*
G01*
X2699918Y1414957D03*
G01*
X2604897Y1184960D03*
D24*
G01*
X3362502Y-2250033D03*
G01*
X3312490Y-2250033D03*
G01*
X3262502Y-2250033D03*
G01*
X3212490Y-2250033D03*
G01*
X3162503Y-2250033D03*
G01*
X3112490Y-2250033D03*
G01*
X3062503Y-2250033D03*
G01*
X3012490Y-2250033D03*
G01*
X2962503Y-2250033D03*
G01*
X2912490Y-2250033D03*
G01*
X2862503Y-2250033D03*
G01*
X2812491Y-2250033D03*
G01*
X2762504Y-2250033D03*
G01*
X2712491Y-2250033D03*
G01*
X2662504Y-2250033D03*
G01*
X2612491Y-2250033D03*
G01*
X2562504Y-2250033D03*
G01*
X2512491Y-2250033D03*
G01*
X2462504Y-2250033D03*
G01*
X2412491Y-2250033D03*
G01*
X2362504Y-2250033D03*
G01*
X2312492Y-2250033D03*
G01*
X2262504Y-2250033D03*
G01*
X2212492Y-2250033D03*
G01*
X2162505Y-2250033D03*
G01*
X2112492Y-2250033D03*
G01*
X2062505Y-2250033D03*
G01*
X2012492Y-2250033D03*
G01*
X1962505Y-2250033D03*
G01*
X1912493Y-2250033D03*
G01*
X1862505Y-2250033D03*
G01*
X1812493Y-2250033D03*
G01*
X1762505Y-2250033D03*
G01*
X1712493Y-2250033D03*
G01*
X1662506Y-2250033D03*
G01*
X1612493Y-2250033D03*
G01*
X1562506Y-2250033D03*
G01*
X1512493Y-2250033D03*
G01*
X1462506Y-2250033D03*
G01*
X1412494Y-2250033D03*
G01*
X1362506Y-2250033D03*
G01*
X1312494Y-2250033D03*
G01*
X1262506Y-2250033D03*
G01*
X1212494Y-2250033D03*
G01*
X1162507Y-2250033D03*
G01*
X1112494Y-2250033D03*
G01*
X1062507Y-2250033D03*
G01*
X1012494Y-2250033D03*
G01*
X962507Y-2250033D03*
G01*
X912495Y-2250033D03*
G01*
X862507Y-2250033D03*
G01*
X812495Y-2250033D03*
G01*
X762507Y-2250033D03*
G01*
X712495Y-2250033D03*
G01*
X662508Y-2250033D03*
G01*
X612495Y-2250033D03*
G01*
X562508Y-2250033D03*
G01*
X512495Y-2250033D03*
G01*
X462508Y-2250033D03*
G01*
X212496Y-2250033D03*
G01*
X162509Y-2250033D03*
G01*
X112496Y-2250033D03*
G01*
X62509Y-2250033D03*
G01*
X12496Y-2250033D03*
G01*
X-37490Y-2250033D03*
G01*
X-87503Y-2250033D03*
G01*
X-137490Y-2250033D03*
G01*
X-187502Y-2250033D03*
G01*
X-237489Y-2250033D03*
G01*
X-287502Y-2250033D03*
G01*
X-337489Y-2250033D03*
G01*
X-387502Y-2250033D03*
G01*
X-437489Y-2250033D03*
G01*
X-487502Y-2250033D03*
G01*
X-537489Y-2250033D03*
G01*
X-587502Y-2250033D03*
G01*
X-637489Y-2250033D03*
G01*
X-687501Y-2250033D03*
G01*
X-737488Y-2250033D03*
G01*
X-787501Y-2250033D03*
G01*
X-837488Y-2250033D03*
G01*
X-887501Y-2250033D03*
G01*
X-937488Y-2250033D03*
G01*
X-987501Y-2250033D03*
G01*
X-1037488Y-2250033D03*
G01*
X-1087501Y-2250033D03*
G01*
X-1137488Y-2250033D03*
G01*
X-1187500Y-2250033D03*
G01*
X-1237487Y-2250033D03*
G01*
X-1287500Y-2250033D03*
G01*
X-1337487Y-2250033D03*
G01*
X-1387500Y-2250033D03*
G01*
X-1437487Y-2250033D03*
G01*
X-1487500Y-2250033D03*
G01*
X-1537487Y-2250033D03*
G01*
X-1587500Y-2250033D03*
G01*
X-1637487Y-2250033D03*
G01*
X-1687499Y-2250033D03*
G01*
X-1737487Y-2250033D03*
G01*
X-1787499Y-2250033D03*
G01*
X-1837486Y-2250033D03*
G01*
X-1887499Y-2250033D03*
G01*
X-1937486Y-2250033D03*
G01*
X-1987499Y-2250033D03*
G01*
X-2037486Y-2250033D03*
G01*
X-2087498Y-2250033D03*
G01*
X-2137486Y-2250033D03*
G01*
X-2187498Y-2250033D03*
G01*
X-2237486Y-2250033D03*
G01*
X-2287498Y-2250033D03*
G01*
X-2337485Y-2250033D03*
G01*
X-2387498Y-2250033D03*
G01*
X-2437485Y-2250033D03*
G01*
X-2487498Y-2250033D03*
G01*
X-2537485Y-2250033D03*
G01*
X-2587497Y-2250033D03*
G01*
X-2637485Y-2250033D03*
G01*
X-2687497Y-2250033D03*
G01*
X-2737485Y-2250033D03*
G01*
X-2787497Y-2250033D03*
G01*
X-2837484Y-2250033D03*
G01*
X-2887497Y-2250033D03*
G01*
X-2937484Y-2250033D03*
G01*
X-2987497Y-2250033D03*
G01*
X-3037484Y-2250033D03*
G01*
X-3087496Y-2250033D03*
G01*
X-3137484Y-2250033D03*
G01*
X-3187496Y-2250033D03*
G01*
X-3237484Y-2250033D03*
G01*
X-3287496Y-2250033D03*
D23*
G01*
X-19989Y1450009D03*
G01*
X-180009Y1450009D03*
G01*
X-19989Y1249984D03*
G01*
X-180009Y1249984D03*
M02*
