G04 Layer: BottomPasteMaskLayer*
G04 EasyEDA v6.5.22, 2022-12-22 19:37:34*
G04 67d28de8ea5d46aa8ff263e619622a75,b137401b17fb4d15a04862e99c0880a0,10*
G04 Gerber Generator version 0.2*
G04 Scale: 100 percent, Rotated: No, Reflected: No *
G04 Dimensions in millimeters *
G04 leading zeros omitted , absolute positions ,4 integer and 5 decimal *
%FSLAX45Y45*%
%MOMM*%

%ADD10R,0.3500X2.5000*%

%LPD*%
D10*
G01*
X3362502Y-2250033D03*
G01*
X3312490Y-2250033D03*
G01*
X3262502Y-2250033D03*
G01*
X3212490Y-2250033D03*
G01*
X3162503Y-2250033D03*
G01*
X3112490Y-2250033D03*
G01*
X3062503Y-2250033D03*
G01*
X3012490Y-2250033D03*
G01*
X2962503Y-2250033D03*
G01*
X2912490Y-2250033D03*
G01*
X2862503Y-2250033D03*
G01*
X2812491Y-2250033D03*
G01*
X2762504Y-2250033D03*
G01*
X2712491Y-2250033D03*
G01*
X2662504Y-2250033D03*
G01*
X2612491Y-2250033D03*
G01*
X2562504Y-2250033D03*
G01*
X2512491Y-2250033D03*
G01*
X2462504Y-2250033D03*
G01*
X2412491Y-2250033D03*
G01*
X2362504Y-2250033D03*
G01*
X2312492Y-2250033D03*
G01*
X2262504Y-2250033D03*
G01*
X2212492Y-2250033D03*
G01*
X2162505Y-2250033D03*
G01*
X2112492Y-2250033D03*
G01*
X2062505Y-2250033D03*
G01*
X2012492Y-2250033D03*
G01*
X1962505Y-2250033D03*
G01*
X1912493Y-2250033D03*
G01*
X1862505Y-2250033D03*
G01*
X1812493Y-2250033D03*
G01*
X1762505Y-2250033D03*
G01*
X1712493Y-2250033D03*
G01*
X1662506Y-2250033D03*
G01*
X1612493Y-2250033D03*
G01*
X1562506Y-2250033D03*
G01*
X1512493Y-2250033D03*
G01*
X1462506Y-2250033D03*
G01*
X1412494Y-2250033D03*
G01*
X1362506Y-2250033D03*
G01*
X1312494Y-2250033D03*
G01*
X1262506Y-2250033D03*
G01*
X1212494Y-2250033D03*
G01*
X1162507Y-2250033D03*
G01*
X1112494Y-2250033D03*
G01*
X1062507Y-2250033D03*
G01*
X1012494Y-2250033D03*
G01*
X962507Y-2250033D03*
G01*
X912495Y-2250033D03*
G01*
X862507Y-2250033D03*
G01*
X812495Y-2250033D03*
G01*
X762507Y-2250033D03*
G01*
X712495Y-2250033D03*
G01*
X662508Y-2250033D03*
G01*
X612495Y-2250033D03*
G01*
X562508Y-2250033D03*
G01*
X512495Y-2250033D03*
G01*
X462508Y-2250033D03*
G01*
X212496Y-2250033D03*
G01*
X162509Y-2250033D03*
G01*
X112496Y-2250033D03*
G01*
X62509Y-2250033D03*
G01*
X12496Y-2250033D03*
G01*
X-37490Y-2250033D03*
G01*
X-87503Y-2250033D03*
G01*
X-137490Y-2250033D03*
G01*
X-187502Y-2250033D03*
G01*
X-237489Y-2250033D03*
G01*
X-287502Y-2250033D03*
G01*
X-337489Y-2250033D03*
G01*
X-387502Y-2250033D03*
G01*
X-437489Y-2250033D03*
G01*
X-487502Y-2250033D03*
G01*
X-537489Y-2250033D03*
G01*
X-587502Y-2250033D03*
G01*
X-637489Y-2250033D03*
G01*
X-687501Y-2250033D03*
G01*
X-737488Y-2250033D03*
G01*
X-787501Y-2250033D03*
G01*
X-837488Y-2250033D03*
G01*
X-887501Y-2250033D03*
G01*
X-937488Y-2250033D03*
G01*
X-987501Y-2250033D03*
G01*
X-1037488Y-2250033D03*
G01*
X-1087501Y-2250033D03*
G01*
X-1137488Y-2250033D03*
G01*
X-1187500Y-2250033D03*
G01*
X-1237487Y-2250033D03*
G01*
X-1287500Y-2250033D03*
G01*
X-1337487Y-2250033D03*
G01*
X-1387500Y-2250033D03*
G01*
X-1437487Y-2250033D03*
G01*
X-1487500Y-2250033D03*
G01*
X-1537487Y-2250033D03*
G01*
X-1587500Y-2250033D03*
G01*
X-1637487Y-2250033D03*
G01*
X-1687499Y-2250033D03*
G01*
X-1737487Y-2250033D03*
G01*
X-1787499Y-2250033D03*
G01*
X-1837486Y-2250033D03*
G01*
X-1887499Y-2250033D03*
G01*
X-1937486Y-2250033D03*
G01*
X-1987499Y-2250033D03*
G01*
X-2037486Y-2250033D03*
G01*
X-2087498Y-2250033D03*
G01*
X-2137486Y-2250033D03*
G01*
X-2187498Y-2250033D03*
G01*
X-2237486Y-2250033D03*
G01*
X-2287498Y-2250033D03*
G01*
X-2337485Y-2250033D03*
G01*
X-2387498Y-2250033D03*
G01*
X-2437485Y-2250033D03*
G01*
X-2487498Y-2250033D03*
G01*
X-2537485Y-2250033D03*
G01*
X-2587497Y-2250033D03*
G01*
X-2637485Y-2250033D03*
G01*
X-2687497Y-2250033D03*
G01*
X-2737485Y-2250033D03*
G01*
X-2787497Y-2250033D03*
G01*
X-2837484Y-2250033D03*
G01*
X-2887497Y-2250033D03*
G01*
X-2937484Y-2250033D03*
G01*
X-2987497Y-2250033D03*
G01*
X-3037484Y-2250033D03*
G01*
X-3087496Y-2250033D03*
G01*
X-3137484Y-2250033D03*
G01*
X-3187496Y-2250033D03*
G01*
X-3237484Y-2250033D03*
G01*
X-3287496Y-2250033D03*
M02*
