G04 Layer: BottomLayer*
G04 EasyEDA v6.5.22, 2022-12-22 19:37:34*
G04 67d28de8ea5d46aa8ff263e619622a75,b137401b17fb4d15a04862e99c0880a0,10*
G04 Gerber Generator version 0.2*
G04 Scale: 100 percent, Rotated: No, Reflected: No *
G04 Dimensions in millimeters *
G04 leading zeros omitted , absolute positions ,4 integer and 5 decimal *
%FSLAX45Y45*%
%MOMM*%

%AMMACRO1*21,1,$1,$2,0,0,$3*%
%ADD10C,0.1500*%
%ADD11MACRO1,0.54X0.5656X0.0000*%
%ADD12R,0.5400X0.5657*%
%ADD13R,0.3500X2.5000*%
%ADD14C,3.2000*%
%ADD15C,0.4500*%
%ADD16C,0.0118*%

%LPD*%
G36*
X-1122172Y221538D02*
G01*
X-1125931Y222148D01*
X-1129182Y224078D01*
X-1131519Y227075D01*
X-1132586Y230733D01*
X-1132840Y233121D01*
X-1135126Y240944D01*
X-1138885Y248208D01*
X-1143914Y254609D01*
X-1150112Y259994D01*
X-1154684Y262636D01*
X-1157478Y265023D01*
X-1159256Y268274D01*
X-1159713Y271932D01*
X-1158849Y275539D01*
X-1156766Y278587D01*
X-816356Y618998D01*
X-813053Y621233D01*
X-809193Y621995D01*
X-486714Y621995D01*
X-482701Y621182D01*
X-479348Y618845D01*
X-478129Y617524D01*
X-471474Y612800D01*
X-464058Y609396D01*
X-456082Y607466D01*
X-447954Y607060D01*
X-439877Y608228D01*
X-432155Y610920D01*
X-425094Y614984D01*
X-418896Y620369D01*
X-413867Y626770D01*
X-410108Y634034D01*
X-407771Y639013D01*
X-404469Y641604D01*
X-400456Y642620D01*
X-396341Y641959D01*
X-392836Y639724D01*
X-390550Y636270D01*
X-388162Y630326D01*
X-383743Y623417D01*
X-378104Y617524D01*
X-371449Y612800D01*
X-364032Y609396D01*
X-352298Y606552D01*
X-349148Y604266D01*
X-347065Y600964D01*
X-346405Y597154D01*
X-347218Y593344D01*
X-349402Y590143D01*
X-408432Y531114D01*
X-411734Y528878D01*
X-415594Y528116D01*
X-799541Y528116D01*
X-806094Y527405D01*
X-811987Y525322D01*
X-817270Y522020D01*
X-819861Y519734D01*
X-1115314Y224536D01*
X-1118463Y222351D01*
G37*

%LPD*%
G36*
X-1063193Y-108559D02*
G01*
X-1066647Y-107442D01*
X-1069543Y-105206D01*
X-1071422Y-102057D01*
X-1072083Y-98450D01*
X-1072083Y184353D01*
X-1071321Y188214D01*
X-1069086Y191516D01*
X-791210Y469138D01*
X-787958Y471373D01*
X-784047Y472135D01*
X-400100Y472135D01*
X-396697Y472338D01*
X-392785Y472998D01*
X-388518Y472846D01*
X-384708Y470966D01*
X-381965Y467715D01*
X-380847Y463600D01*
X-381508Y459384D01*
X-383794Y455828D01*
X-408635Y431038D01*
X-411937Y428802D01*
X-415848Y428040D01*
X-699719Y428040D01*
X-706272Y427329D01*
X-712165Y425246D01*
X-717448Y421944D01*
X-720039Y419658D01*
X-1019606Y120091D01*
X-1023670Y114960D01*
X-1026414Y109321D01*
X-1027785Y103225D01*
X-1027988Y99771D01*
X-1027988Y-98247D01*
X-1028903Y-102463D01*
X-1031494Y-105918D01*
X-1035303Y-108000D01*
X-1039621Y-108305D01*
X-1047953Y-107086D01*
X-1056081Y-107492D01*
X-1059535Y-108305D01*
G37*

%LPD*%
G36*
X-2023211Y-362712D02*
G01*
X-2027174Y-362051D01*
X-2030577Y-359918D01*
X-2032863Y-356616D01*
X-2033676Y-352704D01*
X-2032965Y-348742D01*
X-2030730Y-345389D01*
X-916432Y769112D01*
X-913130Y771347D01*
X-909269Y772109D01*
X-415848Y772109D01*
X-411988Y771347D01*
X-408686Y769112D01*
X-395732Y756158D01*
X-393496Y752856D01*
X-392734Y748995D01*
X-392734Y745896D01*
X-391617Y740105D01*
X-391769Y735685D01*
X-393750Y731723D01*
X-397256Y728980D01*
X-401624Y728014D01*
X-899617Y728014D01*
X-906170Y727303D01*
X-912063Y725220D01*
X-917346Y721918D01*
X-919937Y719632D01*
X-1993798Y-354279D01*
X-1996846Y-356362D01*
X-2000504Y-357225D01*
X-2006092Y-357479D01*
X-2014067Y-359410D01*
X-2019300Y-361797D01*
G37*

%LPD*%
G36*
X98196Y-853643D02*
G01*
X93878Y-853033D01*
X90170Y-850696D01*
X49225Y-809752D01*
X46837Y-805942D01*
X46329Y-801522D01*
X47701Y-797306D01*
X50800Y-794105D01*
X54965Y-792480D01*
X60147Y-791768D01*
X67868Y-789076D01*
X74930Y-785012D01*
X81076Y-779627D01*
X86156Y-773226D01*
X89865Y-765962D01*
X92202Y-758139D01*
X92964Y-750011D01*
X92202Y-741883D01*
X89865Y-734060D01*
X86156Y-726795D01*
X81076Y-720394D01*
X74930Y-715010D01*
X67868Y-710946D01*
X64008Y-709625D01*
X60452Y-707491D01*
X58013Y-704088D01*
X57200Y-700024D01*
X58013Y-695960D01*
X60452Y-692556D01*
X64008Y-690422D01*
X67868Y-689102D01*
X74930Y-684987D01*
X81076Y-679653D01*
X86156Y-673252D01*
X92252Y-661009D01*
X95504Y-658418D01*
X99517Y-657352D01*
X103632Y-658012D01*
X107137Y-660298D01*
X109474Y-663752D01*
X111861Y-669696D01*
X116230Y-676554D01*
X121869Y-682447D01*
X128524Y-687222D01*
X135940Y-690575D01*
X143916Y-692505D01*
X149453Y-692810D01*
X153111Y-693674D01*
X156159Y-695756D01*
X179832Y-719582D01*
X184962Y-723696D01*
X190601Y-726389D01*
X196697Y-727811D01*
X198983Y-727964D01*
X203149Y-729081D01*
X206451Y-731875D01*
X208279Y-735736D01*
X208381Y-740003D01*
X207264Y-745947D01*
X207264Y-754075D01*
X208788Y-762101D01*
X211836Y-769670D01*
X216255Y-776579D01*
X221894Y-782472D01*
X228549Y-787196D01*
X236321Y-790752D01*
X239471Y-792988D01*
X241554Y-796239D01*
X242265Y-799998D01*
X241554Y-803808D01*
X239471Y-807008D01*
X236321Y-809244D01*
X228549Y-812800D01*
X221894Y-817575D01*
X216255Y-823468D01*
X211836Y-830326D01*
X209448Y-836269D01*
X207162Y-839724D01*
X203657Y-842010D01*
X199542Y-842670D01*
X195529Y-841603D01*
X192227Y-839012D01*
X189890Y-834034D01*
X186131Y-826769D01*
X181102Y-820369D01*
X174904Y-815035D01*
X167843Y-810920D01*
X160121Y-808278D01*
X152044Y-807110D01*
X143916Y-807516D01*
X135940Y-809447D01*
X128524Y-812800D01*
X121869Y-817575D01*
X116230Y-823468D01*
X111861Y-830326D01*
X108813Y-837895D01*
X107340Y-845413D01*
X105613Y-849426D01*
X102362Y-852373D01*
G37*

%LPD*%
G36*
X403402Y-1159459D02*
G01*
X399542Y-1158697D01*
X396240Y-1156462D01*
X270865Y-1031138D01*
X268833Y-1028242D01*
X267919Y-1024890D01*
X267157Y-1016863D01*
X264871Y-1009040D01*
X261112Y-1001776D01*
X256082Y-995375D01*
X249885Y-989990D01*
X242824Y-985926D01*
X235102Y-983234D01*
X227025Y-982065D01*
X218897Y-982471D01*
X210921Y-984402D01*
X203504Y-987806D01*
X196850Y-992530D01*
X195630Y-993851D01*
X192328Y-996137D01*
X188417Y-997000D01*
X184505Y-996238D01*
X181152Y-994054D01*
X178917Y-990752D01*
X178104Y-986840D01*
X178104Y-950518D01*
X177393Y-943965D01*
X175310Y-938072D01*
X172008Y-932789D01*
X169722Y-930198D01*
X149250Y-909726D01*
X146862Y-905967D01*
X146304Y-901547D01*
X147726Y-897280D01*
X150825Y-894080D01*
X154990Y-892505D01*
X160121Y-891743D01*
X167843Y-889101D01*
X174904Y-884986D01*
X181102Y-879652D01*
X186131Y-873252D01*
X189890Y-865987D01*
X192227Y-861009D01*
X195529Y-858418D01*
X199542Y-857351D01*
X203657Y-858012D01*
X207162Y-860298D01*
X209448Y-863752D01*
X211836Y-869696D01*
X216255Y-876553D01*
X221894Y-882446D01*
X228549Y-887221D01*
X235966Y-890574D01*
X243890Y-892505D01*
X252069Y-892911D01*
X260146Y-891743D01*
X267868Y-889101D01*
X274929Y-884986D01*
X281076Y-879652D01*
X286156Y-873252D01*
X289864Y-865987D01*
X292201Y-858164D01*
X292963Y-850036D01*
X292201Y-841857D01*
X289864Y-834034D01*
X286156Y-826769D01*
X281076Y-820369D01*
X274929Y-815035D01*
X267868Y-810920D01*
X264007Y-809599D01*
X260451Y-807466D01*
X258013Y-804062D01*
X257200Y-799998D01*
X258013Y-795934D01*
X260451Y-792530D01*
X264007Y-790397D01*
X267868Y-789076D01*
X274929Y-785012D01*
X281076Y-779627D01*
X286156Y-773226D01*
X289864Y-765962D01*
X292201Y-758139D01*
X292963Y-750011D01*
X291592Y-737311D01*
X292557Y-733704D01*
X294843Y-730707D01*
X297992Y-728726D01*
X301701Y-728014D01*
X459181Y-728014D01*
X463092Y-728776D01*
X466343Y-731012D01*
X817930Y-1082294D01*
X820115Y-1085545D01*
X820877Y-1089355D01*
X820216Y-1093216D01*
X818083Y-1096518D01*
X816254Y-1098448D01*
X811834Y-1105306D01*
X808786Y-1112875D01*
X807262Y-1120902D01*
X807262Y-1129080D01*
X808786Y-1137107D01*
X812190Y-1145540D01*
X812901Y-1149400D01*
X812088Y-1153261D01*
X809904Y-1156512D01*
X806602Y-1158697D01*
X802741Y-1159459D01*
G37*

%LPD*%
G36*
X3160623Y-2379573D02*
G01*
X3156762Y-2378760D01*
X3153460Y-2376576D01*
X3151276Y-2373274D01*
X3150463Y-2369413D01*
X3150463Y-2125624D01*
X3150006Y-2120747D01*
X3150006Y-2100986D01*
X3148990Y-2100021D01*
X3060141Y-2100021D01*
X3056280Y-2099208D01*
X3052978Y-2097024D01*
X3050743Y-2093722D01*
X3049981Y-2089861D01*
X3049981Y-1960168D01*
X3050743Y-1956257D01*
X3052978Y-1952955D01*
X3056280Y-1950770D01*
X3060141Y-1950008D01*
X3201466Y-1950008D01*
X3205784Y-1950974D01*
X3209290Y-1953666D01*
X3211322Y-1957628D01*
X3211423Y-1962099D01*
X3209747Y-1970887D01*
X3209747Y-1979066D01*
X3211271Y-1987092D01*
X3214674Y-1995576D01*
X3215386Y-2000605D01*
X3214674Y-2004364D01*
X3211271Y-2012848D01*
X3209747Y-2020874D01*
X3209747Y-2029053D01*
X3211271Y-2037080D01*
X3214319Y-2044649D01*
X3218738Y-2051507D01*
X3224377Y-2057400D01*
X3231032Y-2062175D01*
X3238449Y-2065528D01*
X3246374Y-2067458D01*
X3254552Y-2067864D01*
X3262629Y-2066696D01*
X3270351Y-2064054D01*
X3274212Y-2062378D01*
X3277412Y-2062225D01*
X3280511Y-2063089D01*
X3285947Y-2065578D01*
X3293872Y-2067509D01*
X3302050Y-2067915D01*
X3310128Y-2066747D01*
X3317849Y-2064054D01*
X3322828Y-2061768D01*
X3326028Y-2061616D01*
X3329127Y-2062480D01*
X3335934Y-2065578D01*
X3343910Y-2067509D01*
X3352037Y-2067915D01*
X3360115Y-2066747D01*
X3367836Y-2064054D01*
X3374898Y-2059990D01*
X3381095Y-2054606D01*
X3386124Y-2048205D01*
X3389884Y-2040940D01*
X3392170Y-2033117D01*
X3392932Y-2024989D01*
X3392170Y-2016861D01*
X3389884Y-2009038D01*
X3387648Y-2004669D01*
X3386632Y-2001621D01*
X3386632Y-1998370D01*
X3387648Y-1995322D01*
X3389884Y-1990953D01*
X3392170Y-1983130D01*
X3392932Y-1975002D01*
X3392170Y-1966874D01*
X3391052Y-1963013D01*
X3390696Y-1959305D01*
X3391662Y-1955698D01*
X3393948Y-1952650D01*
X3397097Y-1950669D01*
X3400806Y-1950008D01*
X3444341Y-1950008D01*
X3448202Y-1950770D01*
X3451504Y-1952955D01*
X3453688Y-1956257D01*
X3454450Y-1960168D01*
X3454450Y-2369413D01*
X3453688Y-2373274D01*
X3451504Y-2376576D01*
X3448202Y-2378760D01*
X3444341Y-2379573D01*
G37*

%LPD*%
G36*
X-2239314Y-2379573D02*
G01*
X-2243226Y-2378760D01*
X-2246528Y-2376576D01*
X-2248712Y-2373274D01*
X-2249474Y-2369413D01*
X-2249474Y-2125624D01*
X-2250084Y-2120493D01*
X-2251608Y-2116175D01*
X-2253996Y-2112314D01*
X-2256586Y-2109724D01*
X-2258822Y-2106422D01*
X-2259584Y-2102561D01*
X-2259584Y-701497D01*
X-2258720Y-697382D01*
X-2256332Y-694029D01*
X-2252726Y-691896D01*
X-2244648Y-689102D01*
X-2237587Y-684987D01*
X-2232253Y-680364D01*
X-2228951Y-678434D01*
X-2225141Y-677926D01*
X-2221382Y-678840D01*
X-2218232Y-681024D01*
X-2216200Y-684276D01*
X-2215438Y-688035D01*
X-2215438Y-2102561D01*
X-2216200Y-2106472D01*
X-2218436Y-2109774D01*
X-2220976Y-2112314D01*
X-2223414Y-2116175D01*
X-2224938Y-2120493D01*
X-2225497Y-2125624D01*
X-2225497Y-2369413D01*
X-2226259Y-2373274D01*
X-2228494Y-2376576D01*
X-2231745Y-2378760D01*
X-2235657Y-2379573D01*
G37*

%LPD*%
G36*
X2660650Y-2379573D02*
G01*
X2656738Y-2378760D01*
X2653436Y-2376576D01*
X2651252Y-2373274D01*
X2650490Y-2369413D01*
X2650490Y-2125624D01*
X2649880Y-2120493D01*
X2648407Y-2116175D01*
X2645968Y-2112314D01*
X2643378Y-2109724D01*
X2641142Y-2106422D01*
X2640380Y-2102510D01*
X2640380Y-1787702D01*
X2639669Y-1781149D01*
X2637586Y-1775256D01*
X2634284Y-1769973D01*
X2631998Y-1767382D01*
X2574290Y-1709724D01*
X2571902Y-1705965D01*
X2571394Y-1701546D01*
X2572816Y-1697278D01*
X2575864Y-1694078D01*
X2580030Y-1692503D01*
X2585110Y-1691741D01*
X2592832Y-1689100D01*
X2599893Y-1684985D01*
X2606090Y-1679651D01*
X2611120Y-1673250D01*
X2614879Y-1665986D01*
X2617165Y-1658162D01*
X2617927Y-1650034D01*
X2617165Y-1641856D01*
X2614879Y-1634032D01*
X2611120Y-1626768D01*
X2606090Y-1620367D01*
X2599893Y-1615033D01*
X2592832Y-1610918D01*
X2585110Y-1608277D01*
X2577033Y-1607108D01*
X2568905Y-1607515D01*
X2560929Y-1609445D01*
X2553512Y-1612798D01*
X2546858Y-1617573D01*
X2541219Y-1623466D01*
X2536850Y-1630324D01*
X2533802Y-1637893D01*
X2532380Y-1645361D01*
X2530652Y-1649374D01*
X2527350Y-1652270D01*
X2523185Y-1653539D01*
X2518867Y-1652981D01*
X2515209Y-1650593D01*
X2399284Y-1534718D01*
X2396896Y-1530959D01*
X2396388Y-1526540D01*
X2397810Y-1522272D01*
X2400858Y-1519072D01*
X2405024Y-1517497D01*
X2410104Y-1516735D01*
X2417826Y-1514094D01*
X2424887Y-1509979D01*
X2431084Y-1504645D01*
X2436114Y-1498244D01*
X2439873Y-1490980D01*
X2442159Y-1483156D01*
X2442921Y-1475028D01*
X2442159Y-1466850D01*
X2439873Y-1459026D01*
X2436114Y-1451762D01*
X2431084Y-1445361D01*
X2424887Y-1440027D01*
X2417826Y-1435912D01*
X2410104Y-1433271D01*
X2402027Y-1432102D01*
X2393899Y-1432509D01*
X2385923Y-1434439D01*
X2378506Y-1437792D01*
X2371852Y-1442567D01*
X2366213Y-1448460D01*
X2361793Y-1455318D01*
X2358796Y-1462887D01*
X2357374Y-1470355D01*
X2355646Y-1474368D01*
X2352395Y-1477264D01*
X2348179Y-1478534D01*
X2343861Y-1477975D01*
X2340203Y-1475587D01*
X2324303Y-1459687D01*
X2321915Y-1455928D01*
X2321356Y-1451508D01*
X2322779Y-1447292D01*
X2325878Y-1444040D01*
X2330043Y-1442466D01*
X2335123Y-1441754D01*
X2342845Y-1439062D01*
X2349906Y-1434998D01*
X2356053Y-1429613D01*
X2361133Y-1423212D01*
X2364841Y-1415948D01*
X2367178Y-1408125D01*
X2367940Y-1399997D01*
X2367178Y-1391869D01*
X2364841Y-1384046D01*
X2361133Y-1376781D01*
X2356053Y-1370380D01*
X2349906Y-1364996D01*
X2342845Y-1360932D01*
X2335123Y-1358239D01*
X2327046Y-1357071D01*
X2318867Y-1357477D01*
X2310942Y-1359408D01*
X2303526Y-1362811D01*
X2296871Y-1367536D01*
X2291232Y-1373428D01*
X2286812Y-1380337D01*
X2283764Y-1387906D01*
X2282342Y-1395323D01*
X2280615Y-1399336D01*
X2277364Y-1402283D01*
X2273198Y-1403553D01*
X2268880Y-1402943D01*
X2265172Y-1400606D01*
X2097379Y-1232814D01*
X2095195Y-1229512D01*
X2094382Y-1225600D01*
X2095195Y-1221740D01*
X2097379Y-1218438D01*
X2100681Y-1216202D01*
X2104542Y-1215440D01*
X2246630Y-1215440D01*
X2250541Y-1216202D01*
X2253843Y-1218438D01*
X2629255Y-1593850D01*
X2631490Y-1597152D01*
X2632252Y-1601063D01*
X2632252Y-1604060D01*
X2633776Y-1612087D01*
X2636824Y-1619656D01*
X2641244Y-1626565D01*
X2646883Y-1632457D01*
X2653538Y-1637182D01*
X2660954Y-1640586D01*
X2668879Y-1642516D01*
X2674366Y-1642770D01*
X2677972Y-1643634D01*
X2681071Y-1645716D01*
X2831592Y-1796288D01*
X2833827Y-1799589D01*
X2834589Y-1803450D01*
X2834589Y-2094382D01*
X2833827Y-2098294D01*
X2831592Y-2101545D01*
X2828290Y-2103780D01*
X2824429Y-2104542D01*
X2795676Y-2104542D01*
X2788818Y-2105456D01*
X2786126Y-2105456D01*
X2779318Y-2104542D01*
X2745638Y-2104542D01*
X2738831Y-2105456D01*
X2736138Y-2105456D01*
X2729280Y-2104542D01*
X2695549Y-2104542D01*
X2690418Y-2105101D01*
X2686100Y-2106625D01*
X2682240Y-2109063D01*
X2678988Y-2112314D01*
X2676550Y-2116175D01*
X2675077Y-2120493D01*
X2674467Y-2125624D01*
X2674467Y-2369413D01*
X2673705Y-2373274D01*
X2671521Y-2376576D01*
X2668219Y-2378760D01*
X2664307Y-2379573D01*
G37*

%LPD*%
G36*
X1910638Y-2379573D02*
G01*
X1906778Y-2378760D01*
X1903475Y-2376576D01*
X1901240Y-2373274D01*
X1900478Y-2369413D01*
X1900478Y-2125624D01*
X1899920Y-2120493D01*
X1898396Y-2116175D01*
X1895957Y-2112314D01*
X1892706Y-2109063D01*
X1888845Y-2106625D01*
X1884527Y-2105101D01*
X1879396Y-2104542D01*
X1845665Y-2104542D01*
X1838858Y-2105456D01*
X1836115Y-2105456D01*
X1829307Y-2104542D01*
X1795678Y-2104542D01*
X1788820Y-2105456D01*
X1786128Y-2105456D01*
X1779320Y-2104542D01*
X1745640Y-2104542D01*
X1738833Y-2105456D01*
X1736140Y-2105456D01*
X1729282Y-2104542D01*
X1700580Y-2104542D01*
X1696720Y-2103780D01*
X1693418Y-2101545D01*
X1691182Y-2098294D01*
X1690420Y-2094382D01*
X1690420Y-1812848D01*
X1689709Y-1806295D01*
X1687626Y-1800402D01*
X1684324Y-1795119D01*
X1682038Y-1792528D01*
X1522323Y-1632864D01*
X1520139Y-1629562D01*
X1519326Y-1625650D01*
X1520139Y-1621790D01*
X1522323Y-1618488D01*
X1525625Y-1616252D01*
X1529486Y-1615490D01*
X1827733Y-1615490D01*
X1831593Y-1616252D01*
X1834896Y-1618437D01*
X1837131Y-1621688D01*
X1837893Y-1625549D01*
X1837182Y-1629410D01*
X1833778Y-1637893D01*
X1832254Y-1645920D01*
X1832254Y-1654098D01*
X1833778Y-1662125D01*
X1836826Y-1669694D01*
X1841246Y-1676552D01*
X1846884Y-1682445D01*
X1853539Y-1687220D01*
X1860956Y-1690573D01*
X1868881Y-1692503D01*
X1877060Y-1692910D01*
X1885137Y-1691741D01*
X1892858Y-1689100D01*
X1899920Y-1684985D01*
X1906066Y-1679651D01*
X1911146Y-1673250D01*
X1914855Y-1665986D01*
X1917192Y-1658162D01*
X1917954Y-1650034D01*
X1917192Y-1641856D01*
X1914855Y-1634032D01*
X1912975Y-1630324D01*
X1911857Y-1626311D01*
X1912416Y-1622247D01*
X1914550Y-1618742D01*
X1917954Y-1616354D01*
X1921967Y-1615490D01*
X2021687Y-1615490D01*
X2025599Y-1616252D01*
X2028850Y-1618488D01*
X2331516Y-1921154D01*
X2333752Y-1924405D01*
X2334514Y-1928317D01*
X2334514Y-2102612D01*
X2333752Y-2106472D01*
X2331516Y-2109774D01*
X2329027Y-2112314D01*
X2326589Y-2116175D01*
X2325065Y-2120493D01*
X2324506Y-2125624D01*
X2324506Y-2369413D01*
X2323693Y-2373274D01*
X2321509Y-2376576D01*
X2318207Y-2378760D01*
X2314346Y-2379573D01*
X2310638Y-2379573D01*
X2306777Y-2378760D01*
X2303475Y-2376576D01*
X2301240Y-2373274D01*
X2300478Y-2369413D01*
X2300478Y-2125624D01*
X2299919Y-2120493D01*
X2298395Y-2116175D01*
X2295956Y-2112314D01*
X2292705Y-2109063D01*
X2288844Y-2106625D01*
X2284526Y-2105101D01*
X2279396Y-2104542D01*
X2245664Y-2104542D01*
X2238857Y-2105456D01*
X2236114Y-2105456D01*
X2229307Y-2104542D01*
X2195677Y-2104542D01*
X2188819Y-2105456D01*
X2186127Y-2105456D01*
X2179320Y-2104542D01*
X2145639Y-2104542D01*
X2138832Y-2105456D01*
X2136140Y-2105456D01*
X2129282Y-2104542D01*
X2095652Y-2104542D01*
X2088845Y-2105456D01*
X2086152Y-2105456D01*
X2079294Y-2104542D01*
X2045665Y-2104542D01*
X2038857Y-2105456D01*
X2036114Y-2105456D01*
X2029307Y-2104542D01*
X1995678Y-2104542D01*
X1988820Y-2105456D01*
X1986127Y-2105456D01*
X1979320Y-2104542D01*
X1945538Y-2104542D01*
X1940458Y-2105101D01*
X1936140Y-2106625D01*
X1932228Y-2109063D01*
X1929028Y-2112314D01*
X1926589Y-2116175D01*
X1925066Y-2120493D01*
X1924507Y-2125624D01*
X1924507Y-2369413D01*
X1923694Y-2373274D01*
X1921510Y-2376576D01*
X1918207Y-2378760D01*
X1914347Y-2379573D01*
G37*

%LPD*%
G36*
X-3444341Y-2379573D02*
G01*
X-3448202Y-2378760D01*
X-3451504Y-2376576D01*
X-3453688Y-2373274D01*
X-3454501Y-2369413D01*
X-3454501Y-630631D01*
X-3453739Y-626770D01*
X-3451504Y-623468D01*
X-3448202Y-621284D01*
X-3444341Y-620471D01*
X-3300628Y-620471D01*
X-3294989Y-619709D01*
X-3290417Y-617778D01*
X-3286353Y-614680D01*
X-3282086Y-609396D01*
X-3280206Y-604875D01*
X-3279444Y-599287D01*
X-3279444Y-200558D01*
X-3280206Y-194919D01*
X-3282137Y-190347D01*
X-3285236Y-186283D01*
X-3290519Y-182016D01*
X-3295040Y-180136D01*
X-3300628Y-179425D01*
X-3444341Y-179476D01*
X-3448202Y-178714D01*
X-3451504Y-176530D01*
X-3453739Y-173228D01*
X-3454501Y-169316D01*
X-3454501Y2269337D01*
X-3453739Y2273249D01*
X-3451504Y2276500D01*
X-3448202Y2278735D01*
X-3444341Y2279497D01*
X3444341Y2279446D01*
X3448202Y2278684D01*
X3451504Y2276500D01*
X3453688Y2273198D01*
X3454450Y2269286D01*
X3454450Y-169265D01*
X3453688Y-173126D01*
X3451504Y-176428D01*
X3448202Y-178612D01*
X3444341Y-179425D01*
X3300628Y-179425D01*
X3294989Y-180136D01*
X3290417Y-182067D01*
X3285591Y-185826D01*
X3282137Y-190347D01*
X3280206Y-194919D01*
X3279495Y-200558D01*
X3279495Y-599287D01*
X3280206Y-604926D01*
X3282137Y-609498D01*
X3285896Y-614324D01*
X3290417Y-617778D01*
X3294989Y-619709D01*
X3300628Y-620471D01*
X3444341Y-620471D01*
X3448202Y-621233D01*
X3451504Y-623417D01*
X3453688Y-626719D01*
X3454450Y-630631D01*
X3454450Y-1919325D01*
X3453688Y-1923237D01*
X3451504Y-1926539D01*
X3448202Y-1928723D01*
X3444341Y-1929485D01*
X3297377Y-1929485D01*
X3293110Y-1928571D01*
X3289604Y-1925878D01*
X3287572Y-1922018D01*
X3287369Y-1917649D01*
X3289046Y-1913585D01*
X3292246Y-1910588D01*
X3297631Y-1909114D01*
X3311448Y-1905965D01*
X3324707Y-1901088D01*
X3337255Y-1894535D01*
X3348888Y-1886407D01*
X3359353Y-1876907D01*
X3368548Y-1866138D01*
X3376269Y-1854250D01*
X3382416Y-1841500D01*
X3386886Y-1828088D01*
X3389579Y-1814169D01*
X3390493Y-1800047D01*
X3389579Y-1785924D01*
X3386886Y-1772005D01*
X3382416Y-1758594D01*
X3376269Y-1745843D01*
X3368548Y-1733956D01*
X3359353Y-1723186D01*
X3348888Y-1713687D01*
X3337255Y-1705559D01*
X3324707Y-1699006D01*
X3311448Y-1694129D01*
X3297631Y-1690979D01*
X3283559Y-1689607D01*
X3269386Y-1690065D01*
X3255416Y-1692351D01*
X3241852Y-1696364D01*
X3228898Y-1702104D01*
X3216808Y-1709420D01*
X3205734Y-1718259D01*
X3195878Y-1728419D01*
X3187395Y-1739798D01*
X3180486Y-1752092D01*
X3175152Y-1765249D01*
X3171545Y-1778914D01*
X3169767Y-1792986D01*
X3169767Y-1807108D01*
X3171545Y-1821180D01*
X3175152Y-1834845D01*
X3180486Y-1848002D01*
X3187395Y-1860296D01*
X3195878Y-1871675D01*
X3205734Y-1881835D01*
X3216808Y-1890674D01*
X3228898Y-1897989D01*
X3241852Y-1903730D01*
X3255416Y-1907743D01*
X3265017Y-1909318D01*
X3269030Y-1910892D01*
X3272028Y-1913940D01*
X3273501Y-1918004D01*
X3273145Y-1922272D01*
X3271062Y-1926031D01*
X3267608Y-1928571D01*
X3263392Y-1929485D01*
X3050286Y-1929485D01*
X3047847Y-1929638D01*
X3042767Y-1930907D01*
X3038398Y-1933193D01*
X3034690Y-1936445D01*
X3031896Y-1940509D01*
X3030169Y-1945132D01*
X3029508Y-1950618D01*
X3029508Y-2099665D01*
X3029661Y-2102154D01*
X3030880Y-2107234D01*
X3033166Y-2111603D01*
X3036468Y-2115261D01*
X3040481Y-2118055D01*
X3045104Y-2119833D01*
X3050590Y-2120493D01*
X3114344Y-2120493D01*
X3118205Y-2121255D01*
X3121507Y-2123490D01*
X3123692Y-2126742D01*
X3124504Y-2130653D01*
X3124504Y-2369413D01*
X3123692Y-2373274D01*
X3121507Y-2376576D01*
X3118205Y-2378760D01*
X3114344Y-2379573D01*
X2910636Y-2379573D01*
X2906776Y-2378760D01*
X2903474Y-2376576D01*
X2901238Y-2373274D01*
X2900476Y-2369413D01*
X2900476Y-2125624D01*
X2899918Y-2120493D01*
X2898394Y-2116175D01*
X2895955Y-2112314D01*
X2893568Y-2109876D01*
X2891332Y-2106625D01*
X2890570Y-2102713D01*
X2890570Y-1787956D01*
X2889859Y-1781403D01*
X2887776Y-1775510D01*
X2884474Y-1770227D01*
X2882188Y-1767636D01*
X2720898Y-1606397D01*
X2718866Y-1603502D01*
X2717952Y-1600149D01*
X2717190Y-1591868D01*
X2714853Y-1584045D01*
X2711145Y-1576781D01*
X2706065Y-1570380D01*
X2699918Y-1564995D01*
X2692857Y-1560931D01*
X2685135Y-1558239D01*
X2672283Y-1556461D01*
X2668778Y-1554175D01*
X2282444Y-1167841D01*
X2277364Y-1163777D01*
X2271674Y-1161034D01*
X2265578Y-1159662D01*
X2262174Y-1159459D01*
X1021994Y-1159459D01*
X1017981Y-1158595D01*
X1014577Y-1156208D01*
X1012444Y-1152702D01*
X1011885Y-1148638D01*
X1013002Y-1144625D01*
X1014882Y-1140968D01*
X1017168Y-1133144D01*
X1017930Y-1125016D01*
X1017168Y-1116838D01*
X1014882Y-1109014D01*
X1011123Y-1101750D01*
X1006094Y-1095349D01*
X999896Y-1090015D01*
X992835Y-1085900D01*
X985113Y-1083259D01*
X972261Y-1081430D01*
X968756Y-1079144D01*
X520039Y-630428D01*
X514908Y-626313D01*
X509270Y-623620D01*
X503174Y-622198D01*
X499719Y-621995D01*
X286766Y-621995D01*
X283210Y-621385D01*
X280111Y-619556D01*
X274929Y-615035D01*
X267868Y-610920D01*
X260146Y-608279D01*
X252069Y-607110D01*
X243890Y-607517D01*
X235966Y-609447D01*
X228549Y-612800D01*
X221894Y-617575D01*
X216255Y-623468D01*
X211836Y-630326D01*
X209448Y-636270D01*
X207162Y-639724D01*
X203657Y-642010D01*
X199542Y-642670D01*
X195529Y-641604D01*
X192227Y-639013D01*
X189890Y-634034D01*
X186131Y-626770D01*
X181102Y-620369D01*
X174904Y-615035D01*
X167843Y-610920D01*
X160121Y-608279D01*
X152044Y-607110D01*
X143916Y-607517D01*
X135940Y-609447D01*
X128524Y-612800D01*
X121869Y-617575D01*
X116230Y-623468D01*
X111861Y-630326D01*
X109474Y-636270D01*
X107137Y-639724D01*
X103632Y-642010D01*
X99517Y-642670D01*
X95504Y-641604D01*
X92252Y-639013D01*
X86156Y-626821D01*
X80213Y-619404D01*
X78587Y-616407D01*
X78028Y-613054D01*
X78028Y-565810D01*
X78790Y-561898D01*
X80975Y-558596D01*
X108610Y-530961D01*
X111912Y-528777D01*
X115824Y-528015D01*
X1859178Y-528015D01*
X1863089Y-528777D01*
X1866392Y-530961D01*
X2818993Y-1483614D01*
X2821228Y-1487017D01*
X2824327Y-1494688D01*
X2828747Y-1501546D01*
X2834386Y-1507439D01*
X2841040Y-1512214D01*
X2848457Y-1515567D01*
X2856382Y-1517497D01*
X2864561Y-1517904D01*
X2872638Y-1516735D01*
X2880360Y-1514094D01*
X2887421Y-1509979D01*
X2893568Y-1504645D01*
X2898648Y-1498244D01*
X2902356Y-1490980D01*
X2904693Y-1483156D01*
X2905455Y-1475028D01*
X2904693Y-1466850D01*
X2902356Y-1459026D01*
X2898648Y-1451762D01*
X2893568Y-1445361D01*
X2887421Y-1440027D01*
X2880360Y-1435912D01*
X2872638Y-1433271D01*
X2864561Y-1432102D01*
X2856382Y-1432509D01*
X2850997Y-1433169D01*
X2847695Y-1432255D01*
X2844850Y-1430274D01*
X1894992Y-480415D01*
X1889912Y-476300D01*
X1884222Y-473608D01*
X1878126Y-472185D01*
X1874723Y-471982D01*
X307594Y-471982D01*
X303682Y-471220D01*
X300431Y-469036D01*
X298196Y-465734D01*
X297434Y-461822D01*
X297434Y-415594D01*
X296875Y-410514D01*
X295351Y-406196D01*
X292912Y-402285D01*
X289661Y-399084D01*
X285800Y-396646D01*
X281482Y-395122D01*
X276352Y-394563D01*
X223520Y-394563D01*
X218389Y-395122D01*
X214071Y-396646D01*
X210210Y-399084D01*
X206959Y-402285D01*
X204520Y-406196D01*
X202996Y-410514D01*
X202438Y-415594D01*
X202438Y-418134D01*
X201574Y-422249D01*
X199186Y-425602D01*
X195580Y-427735D01*
X191465Y-428294D01*
X187502Y-427126D01*
X184302Y-424434D01*
X181102Y-420370D01*
X174904Y-415035D01*
X167843Y-410921D01*
X160121Y-408279D01*
X152044Y-407111D01*
X143916Y-407517D01*
X135940Y-409448D01*
X128524Y-412800D01*
X121869Y-417576D01*
X113182Y-426516D01*
X109118Y-428040D01*
X104851Y-427735D01*
X101041Y-425653D01*
X98450Y-422198D01*
X97536Y-417982D01*
X97536Y-415594D01*
X96977Y-410514D01*
X95453Y-406196D01*
X93014Y-402285D01*
X89763Y-399084D01*
X85902Y-396646D01*
X81584Y-395122D01*
X76454Y-394563D01*
X23622Y-394563D01*
X18491Y-395122D01*
X14173Y-396646D01*
X10312Y-399084D01*
X7061Y-402285D01*
X4622Y-406196D01*
X3098Y-410514D01*
X2540Y-415594D01*
X2540Y-418287D01*
X1676Y-422351D01*
X-711Y-425754D01*
X-4318Y-427888D01*
X-8432Y-428396D01*
X-12395Y-427228D01*
X-15595Y-424586D01*
X-18897Y-420370D01*
X-25095Y-415035D01*
X-32156Y-410921D01*
X-39878Y-408279D01*
X-47955Y-407111D01*
X-56083Y-407517D01*
X-64058Y-409448D01*
X-71475Y-412800D01*
X-78130Y-417576D01*
X-86969Y-426770D01*
X-91033Y-428294D01*
X-95300Y-427990D01*
X-99110Y-425907D01*
X-101701Y-422452D01*
X-102616Y-418236D01*
X-102616Y-415594D01*
X-103174Y-410514D01*
X-104698Y-406196D01*
X-107137Y-402285D01*
X-110388Y-399084D01*
X-114249Y-396646D01*
X-118567Y-395122D01*
X-123698Y-394563D01*
X-176530Y-394563D01*
X-181660Y-395122D01*
X-185978Y-396646D01*
X-189839Y-399084D01*
X-193090Y-402285D01*
X-195529Y-406196D01*
X-197053Y-410514D01*
X-197612Y-415594D01*
X-197612Y-418084D01*
X-198475Y-422148D01*
X-200863Y-425551D01*
X-204470Y-427685D01*
X-208584Y-428193D01*
X-212547Y-427024D01*
X-215747Y-424383D01*
X-218897Y-420370D01*
X-225094Y-415035D01*
X-232156Y-410921D01*
X-239877Y-408279D01*
X-247954Y-407111D01*
X-256082Y-407517D01*
X-264058Y-409448D01*
X-271475Y-412800D01*
X-278130Y-417576D01*
X-283768Y-423468D01*
X-288137Y-430326D01*
X-291185Y-437896D01*
X-292760Y-445922D01*
X-292760Y-454101D01*
X-291185Y-462127D01*
X-288137Y-469696D01*
X-283768Y-476554D01*
X-278130Y-482447D01*
X-271475Y-487222D01*
X-264058Y-490575D01*
X-256082Y-492506D01*
X-247954Y-492912D01*
X-239877Y-491743D01*
X-232156Y-489102D01*
X-225094Y-484987D01*
X-218897Y-479653D01*
X-214375Y-473913D01*
X-211074Y-471170D01*
X-206908Y-470052D01*
X-202641Y-470763D01*
X-199034Y-473151D01*
X-196799Y-476808D01*
X-195529Y-480466D01*
X-193090Y-484378D01*
X-189839Y-487578D01*
X-185978Y-490016D01*
X-181660Y-491540D01*
X-176530Y-492099D01*
X-159004Y-492099D01*
X-156108Y-492506D01*
X-147929Y-492912D01*
X-141630Y-492099D01*
X-123698Y-492099D01*
X-118567Y-491540D01*
X-114249Y-490016D01*
X-110388Y-487578D01*
X-107137Y-484378D01*
X-104698Y-480466D01*
X-103327Y-476504D01*
X-100939Y-472693D01*
X-97129Y-470255D01*
X-92659Y-469747D01*
X-88392Y-471220D01*
X-85191Y-474370D01*
X-83769Y-476554D01*
X-78130Y-482447D01*
X-71475Y-487222D01*
X-64058Y-490575D01*
X-56083Y-492506D01*
X-47955Y-492912D01*
X-39878Y-491743D01*
X-32156Y-489102D01*
X-25095Y-484987D01*
X-18897Y-479653D01*
X-14274Y-473760D01*
X-10972Y-471017D01*
X-6807Y-469900D01*
X-2540Y-470611D01*
X1066Y-472998D01*
X3302Y-476707D01*
X4622Y-480466D01*
X7061Y-484378D01*
X10312Y-487578D01*
X14173Y-490016D01*
X18491Y-491540D01*
X23622Y-492099D01*
X40995Y-492099D01*
X45059Y-492658D01*
X49123Y-494334D01*
X52120Y-497535D01*
X53492Y-501751D01*
X52933Y-506120D01*
X50546Y-509879D01*
X30429Y-529996D01*
X26314Y-535076D01*
X23622Y-540766D01*
X22199Y-546862D01*
X21996Y-550265D01*
X21996Y-613359D01*
X21285Y-617118D01*
X19202Y-620369D01*
X16256Y-623468D01*
X11836Y-630326D01*
X9448Y-636270D01*
X7162Y-639724D01*
X3657Y-642010D01*
X-457Y-642670D01*
X-4470Y-641604D01*
X-7772Y-639013D01*
X-10109Y-634034D01*
X-13868Y-626770D01*
X-18897Y-620369D01*
X-25095Y-615035D01*
X-32156Y-610920D01*
X-39878Y-608279D01*
X-47955Y-607110D01*
X-56083Y-607517D01*
X-64058Y-609447D01*
X-71475Y-612800D01*
X-78130Y-617575D01*
X-83769Y-623468D01*
X-88138Y-630326D01*
X-90525Y-636270D01*
X-92862Y-639724D01*
X-96367Y-642010D01*
X-100482Y-642670D01*
X-104495Y-641604D01*
X-107746Y-639013D01*
X-113842Y-626770D01*
X-118922Y-620369D01*
X-125069Y-615035D01*
X-132130Y-610920D01*
X-139852Y-608279D01*
X-147929Y-607110D01*
X-156108Y-607517D01*
X-164033Y-609447D01*
X-171450Y-612800D01*
X-178104Y-617575D01*
X-183743Y-623468D01*
X-188163Y-630326D01*
X-190550Y-636270D01*
X-192836Y-639724D01*
X-196342Y-642010D01*
X-200456Y-642670D01*
X-204470Y-641604D01*
X-207771Y-639013D01*
X-210108Y-634034D01*
X-213867Y-626770D01*
X-218897Y-620369D01*
X-225094Y-615035D01*
X-232156Y-610920D01*
X-239877Y-608279D01*
X-247954Y-607110D01*
X-256082Y-607517D01*
X-264058Y-609447D01*
X-271475Y-612800D01*
X-278130Y-617575D01*
X-283768Y-623468D01*
X-288137Y-630326D01*
X-290525Y-636270D01*
X-292862Y-639724D01*
X-296367Y-642010D01*
X-300482Y-642670D01*
X-304495Y-641604D01*
X-307746Y-639013D01*
X-313842Y-626770D01*
X-318922Y-620369D01*
X-325069Y-615035D01*
X-332130Y-610920D01*
X-339852Y-608279D01*
X-347929Y-607110D01*
X-356108Y-607517D01*
X-364032Y-609447D01*
X-371449Y-612800D01*
X-378104Y-617575D01*
X-383743Y-623468D01*
X-388162Y-630326D01*
X-390550Y-636270D01*
X-392836Y-639724D01*
X-396341Y-642010D01*
X-400456Y-642670D01*
X-404469Y-641604D01*
X-407771Y-639013D01*
X-410108Y-634034D01*
X-413867Y-626770D01*
X-418896Y-620369D01*
X-425094Y-615035D01*
X-432155Y-610920D01*
X-439877Y-608279D01*
X-447954Y-607110D01*
X-456082Y-607517D01*
X-464058Y-609447D01*
X-471474Y-612800D01*
X-478129Y-617575D01*
X-483768Y-623468D01*
X-488137Y-630326D01*
X-491185Y-637895D01*
X-492759Y-645922D01*
X-492759Y-648817D01*
X-493522Y-652729D01*
X-495706Y-656031D01*
X-1008634Y-1168908D01*
X-1011936Y-1171143D01*
X-1015796Y-1171905D01*
X-1363370Y-1171905D01*
X-1366875Y-1171244D01*
X-1369974Y-1169416D01*
X-1375105Y-1164996D01*
X-1382166Y-1160932D01*
X-1389888Y-1158240D01*
X-1397965Y-1157071D01*
X-1406093Y-1157478D01*
X-1414068Y-1159408D01*
X-1421485Y-1162812D01*
X-1428140Y-1167536D01*
X-1433779Y-1173429D01*
X-1438148Y-1180338D01*
X-1441196Y-1187907D01*
X-1442770Y-1195933D01*
X-1442770Y-1204061D01*
X-1441196Y-1212088D01*
X-1438148Y-1219657D01*
X-1433779Y-1226566D01*
X-1428140Y-1232458D01*
X-1421485Y-1237183D01*
X-1414068Y-1240586D01*
X-1406093Y-1242517D01*
X-1397965Y-1242923D01*
X-1389888Y-1241755D01*
X-1382166Y-1239062D01*
X-1375105Y-1234998D01*
X-1369771Y-1230376D01*
X-1366672Y-1228547D01*
X-1363116Y-1227886D01*
X-1000302Y-1227886D01*
X-993749Y-1227175D01*
X-987856Y-1225092D01*
X-982573Y-1221790D01*
X-979982Y-1219504D01*
X-456336Y-695858D01*
X-452831Y-693572D01*
X-439623Y-691692D01*
X-435305Y-691997D01*
X-431495Y-694080D01*
X-428904Y-697534D01*
X-427990Y-701751D01*
X-427990Y-784199D01*
X-428751Y-788060D01*
X-430987Y-791362D01*
X-908608Y-1268984D01*
X-911910Y-1271219D01*
X-915771Y-1271981D01*
X-1624685Y-1271981D01*
X-1631188Y-1272692D01*
X-1637080Y-1274775D01*
X-1642414Y-1278077D01*
X-1644954Y-1280363D01*
X-2018842Y-1654251D01*
X-2021941Y-1656384D01*
X-2025548Y-1657197D01*
X-2031085Y-1657502D01*
X-2039061Y-1659432D01*
X-2046478Y-1662785D01*
X-2053132Y-1667560D01*
X-2058771Y-1673453D01*
X-2063140Y-1680311D01*
X-2066188Y-1687880D01*
X-2067763Y-1695907D01*
X-2067763Y-1704086D01*
X-2066188Y-1712112D01*
X-2063140Y-1719681D01*
X-2058771Y-1726539D01*
X-2053132Y-1732432D01*
X-2046478Y-1737207D01*
X-2039061Y-1740560D01*
X-2031085Y-1742490D01*
X-2022957Y-1742897D01*
X-2014880Y-1741728D01*
X-2007158Y-1739087D01*
X-2000097Y-1734972D01*
X-1993900Y-1729638D01*
X-1988870Y-1723237D01*
X-1985111Y-1715973D01*
X-1982825Y-1708150D01*
X-1982012Y-1699920D01*
X-1981098Y-1696567D01*
X-1979117Y-1693722D01*
X-1616354Y-1330960D01*
X-1613052Y-1328724D01*
X-1609140Y-1327962D01*
X-900277Y-1327962D01*
X-896975Y-1327759D01*
X-892048Y-1326794D01*
X-887780Y-1326896D01*
X-883919Y-1328724D01*
X-881126Y-1331976D01*
X-879957Y-1336090D01*
X-880567Y-1340358D01*
X-882903Y-1343964D01*
X-1132840Y-1594104D01*
X-1136142Y-1596339D01*
X-1140002Y-1597101D01*
X-1638096Y-1597101D01*
X-1641652Y-1596440D01*
X-1644751Y-1594612D01*
X-1650085Y-1589989D01*
X-1657146Y-1585925D01*
X-1664868Y-1583232D01*
X-1672945Y-1582064D01*
X-1681124Y-1582470D01*
X-1689049Y-1584401D01*
X-1694434Y-1586839D01*
X-1698345Y-1587754D01*
X-1702307Y-1587093D01*
X-1705711Y-1584960D01*
X-1707997Y-1581658D01*
X-1708810Y-1577746D01*
X-1708048Y-1573784D01*
X-1705864Y-1570431D01*
X-1567688Y-1432255D01*
X-1564335Y-1430020D01*
X-1560372Y-1429308D01*
X-1556410Y-1430121D01*
X-1546453Y-1437182D01*
X-1539036Y-1440586D01*
X-1531112Y-1442516D01*
X-1522933Y-1442923D01*
X-1514856Y-1441754D01*
X-1507134Y-1439062D01*
X-1500073Y-1434998D01*
X-1493926Y-1429613D01*
X-1488846Y-1423212D01*
X-1485138Y-1415948D01*
X-1482801Y-1408125D01*
X-1482039Y-1399997D01*
X-1482801Y-1391869D01*
X-1485138Y-1384046D01*
X-1488846Y-1376781D01*
X-1493926Y-1370380D01*
X-1500073Y-1364996D01*
X-1507134Y-1360932D01*
X-1514856Y-1358239D01*
X-1522933Y-1357071D01*
X-1531112Y-1357477D01*
X-1539036Y-1359408D01*
X-1546453Y-1362811D01*
X-1553108Y-1367536D01*
X-1554378Y-1368856D01*
X-1557731Y-1371193D01*
X-1561744Y-1372006D01*
X-1574698Y-1372006D01*
X-1581251Y-1372717D01*
X-1587144Y-1374800D01*
X-1592427Y-1378102D01*
X-1595018Y-1380388D01*
X-1868830Y-1654251D01*
X-1871929Y-1656384D01*
X-1875536Y-1657197D01*
X-1881124Y-1657502D01*
X-1889048Y-1659432D01*
X-1896465Y-1662785D01*
X-1903120Y-1667560D01*
X-1908759Y-1673453D01*
X-1913178Y-1680311D01*
X-1916226Y-1687880D01*
X-1917750Y-1695907D01*
X-1917750Y-1704086D01*
X-1916226Y-1712112D01*
X-1913178Y-1719681D01*
X-1908759Y-1726539D01*
X-1903120Y-1732432D01*
X-1896465Y-1737207D01*
X-1889048Y-1740560D01*
X-1881124Y-1742490D01*
X-1872945Y-1742897D01*
X-1864868Y-1741728D01*
X-1857146Y-1739087D01*
X-1850085Y-1734972D01*
X-1843938Y-1729638D01*
X-1838858Y-1723237D01*
X-1835150Y-1715973D01*
X-1832813Y-1708150D01*
X-1832051Y-1699920D01*
X-1831136Y-1696567D01*
X-1829104Y-1693722D01*
X-1729841Y-1594408D01*
X-1726539Y-1592224D01*
X-1722678Y-1591411D01*
X-1718818Y-1592173D01*
X-1715516Y-1594358D01*
X-1713280Y-1597609D01*
X-1712468Y-1601470D01*
X-1713179Y-1605381D01*
X-1716227Y-1612900D01*
X-1717751Y-1620926D01*
X-1717751Y-1629054D01*
X-1716227Y-1637080D01*
X-1713179Y-1644650D01*
X-1708759Y-1651558D01*
X-1703120Y-1657451D01*
X-1696466Y-1662175D01*
X-1689049Y-1665579D01*
X-1681124Y-1667510D01*
X-1672945Y-1667916D01*
X-1664868Y-1666748D01*
X-1657146Y-1664055D01*
X-1650085Y-1659991D01*
X-1645005Y-1655572D01*
X-1641906Y-1653743D01*
X-1638350Y-1653082D01*
X-1438097Y-1653082D01*
X-1434236Y-1653844D01*
X-1430934Y-1656029D01*
X-1428750Y-1659229D01*
X-1427937Y-1663090D01*
X-1428597Y-1666951D01*
X-1430731Y-1670253D01*
X-1433779Y-1673453D01*
X-1438148Y-1680311D01*
X-1441196Y-1687880D01*
X-1442770Y-1695907D01*
X-1442770Y-1704086D01*
X-1441196Y-1712112D01*
X-1438148Y-1719681D01*
X-1433779Y-1726539D01*
X-1428140Y-1732432D01*
X-1421485Y-1737207D01*
X-1414068Y-1740560D01*
X-1406093Y-1742490D01*
X-1397965Y-1742897D01*
X-1389888Y-1741728D01*
X-1382166Y-1739087D01*
X-1375105Y-1734972D01*
X-1368907Y-1729638D01*
X-1363878Y-1723237D01*
X-1360119Y-1715973D01*
X-1357833Y-1708150D01*
X-1357071Y-1700022D01*
X-1357833Y-1691843D01*
X-1360119Y-1684020D01*
X-1363878Y-1676806D01*
X-1369568Y-1669542D01*
X-1371498Y-1665478D01*
X-1371498Y-1660956D01*
X-1369517Y-1656892D01*
X-1366012Y-1654098D01*
X-1361592Y-1653082D01*
X-1124508Y-1653082D01*
X-1117955Y-1652371D01*
X-1112062Y-1650288D01*
X-1106779Y-1646986D01*
X-1104188Y-1644700D01*
X-509727Y-1049680D01*
X-506069Y-1047343D01*
X-501751Y-1046734D01*
X-497585Y-1048003D01*
X-494284Y-1050950D01*
X-492556Y-1054912D01*
X-491185Y-1062126D01*
X-488137Y-1069695D01*
X-483768Y-1076553D01*
X-478129Y-1082446D01*
X-471474Y-1087221D01*
X-464058Y-1090574D01*
X-456082Y-1092504D01*
X-447954Y-1092911D01*
X-439877Y-1091742D01*
X-432155Y-1089101D01*
X-425094Y-1084986D01*
X-418896Y-1079652D01*
X-413867Y-1073251D01*
X-410108Y-1065987D01*
X-407822Y-1058164D01*
X-407009Y-1049832D01*
X-406095Y-1046480D01*
X-404114Y-1043635D01*
X-230327Y-869899D01*
X-226263Y-864768D01*
X-223520Y-859129D01*
X-222148Y-853033D01*
X-221945Y-849579D01*
X-221945Y-786942D01*
X-221386Y-783590D01*
X-219710Y-780592D01*
X-213817Y-773226D01*
X-210108Y-765962D01*
X-207822Y-758139D01*
X-207060Y-750011D01*
X-207822Y-741883D01*
X-210108Y-734060D01*
X-213867Y-726795D01*
X-218897Y-720394D01*
X-225094Y-715010D01*
X-232156Y-710946D01*
X-235966Y-709625D01*
X-239572Y-707491D01*
X-241960Y-704088D01*
X-242824Y-700024D01*
X-241960Y-695960D01*
X-239572Y-692556D01*
X-235966Y-690422D01*
X-232156Y-689102D01*
X-225094Y-684987D01*
X-218897Y-679653D01*
X-213867Y-673252D01*
X-210108Y-665988D01*
X-207771Y-661009D01*
X-204470Y-658418D01*
X-200456Y-657352D01*
X-196342Y-658012D01*
X-192836Y-660298D01*
X-190550Y-663752D01*
X-188163Y-669696D01*
X-183743Y-676554D01*
X-178104Y-682447D01*
X-171450Y-687222D01*
X-164033Y-690575D01*
X-156108Y-692505D01*
X-150622Y-692759D01*
X-147015Y-693623D01*
X-143967Y-695756D01*
X-131064Y-708660D01*
X-128828Y-711962D01*
X-128066Y-715822D01*
X-128066Y-799795D01*
X-127355Y-806348D01*
X-125272Y-812241D01*
X-121970Y-817524D01*
X-119684Y-820115D01*
X406Y-940155D01*
X2540Y-943356D01*
X3352Y-947115D01*
X2743Y-950925D01*
X711Y-954176D01*
X-2387Y-956513D01*
X-14071Y-959408D01*
X-21488Y-962812D01*
X-28143Y-967536D01*
X-29362Y-968857D01*
X-32715Y-971194D01*
X-36728Y-972007D01*
X-49682Y-972007D01*
X-56235Y-972718D01*
X-62128Y-974801D01*
X-67411Y-978103D01*
X-70002Y-980389D01*
X-193852Y-1104290D01*
X-196951Y-1106373D01*
X-200558Y-1107236D01*
X-206095Y-1107490D01*
X-214071Y-1109421D01*
X-221488Y-1112824D01*
X-228142Y-1117549D01*
X-233781Y-1123442D01*
X-238150Y-1130350D01*
X-241198Y-1137920D01*
X-242773Y-1145946D01*
X-242773Y-1154074D01*
X-241198Y-1162100D01*
X-238150Y-1169670D01*
X-233781Y-1176578D01*
X-228142Y-1182471D01*
X-221488Y-1187196D01*
X-214071Y-1190599D01*
X-206095Y-1192530D01*
X-197967Y-1192936D01*
X-189890Y-1191768D01*
X-182168Y-1189075D01*
X-175107Y-1185011D01*
X-168910Y-1179626D01*
X-163880Y-1173226D01*
X-160121Y-1165961D01*
X-157835Y-1158138D01*
X-157022Y-1149959D01*
X-156108Y-1146556D01*
X-154127Y-1143711D01*
X-42672Y-1032256D01*
X-39319Y-1030071D01*
X-35356Y-1029309D01*
X-31445Y-1030122D01*
X-21488Y-1037183D01*
X-14071Y-1040587D01*
X-6096Y-1042517D01*
X2032Y-1042924D01*
X10109Y-1041755D01*
X17830Y-1039063D01*
X24892Y-1034999D01*
X30124Y-1030478D01*
X33426Y-1028547D01*
X37236Y-1027988D01*
X40995Y-1028903D01*
X44145Y-1031138D01*
X46228Y-1034389D01*
X46939Y-1038148D01*
X46939Y-1299667D01*
X47650Y-1306220D01*
X49733Y-1312113D01*
X53035Y-1317396D01*
X55321Y-1319987D01*
X277520Y-1542135D01*
X279704Y-1545437D01*
X280517Y-1549349D01*
X279704Y-1553210D01*
X277520Y-1556512D01*
X274218Y-1558747D01*
X270357Y-1559509D01*
X-234543Y-1559509D01*
X-239877Y-1558239D01*
X-247954Y-1557070D01*
X-256082Y-1557477D01*
X-264058Y-1559407D01*
X-271475Y-1562811D01*
X-278130Y-1567535D01*
X-283768Y-1573428D01*
X-288137Y-1580337D01*
X-291185Y-1587906D01*
X-292760Y-1595932D01*
X-292760Y-1604060D01*
X-291185Y-1612087D01*
X-288137Y-1619656D01*
X-283768Y-1626565D01*
X-278130Y-1632457D01*
X-271475Y-1637182D01*
X-264058Y-1640586D01*
X-256082Y-1642516D01*
X-247954Y-1642922D01*
X-239877Y-1641754D01*
X-232156Y-1639062D01*
X-225094Y-1634998D01*
X-218897Y-1629613D01*
X-213867Y-1623212D01*
X-212699Y-1621028D01*
X-210464Y-1618081D01*
X-207314Y-1616151D01*
X-203657Y-1615490D01*
X-119329Y-1615490D01*
X-115468Y-1616252D01*
X-112217Y-1618386D01*
X-109982Y-1621637D01*
X-109169Y-1625447D01*
X-109829Y-1629308D01*
X-111912Y-1632610D01*
X-115112Y-1634896D01*
X-121462Y-1637792D01*
X-128117Y-1642567D01*
X-133756Y-1648460D01*
X-138176Y-1655318D01*
X-141224Y-1662887D01*
X-142748Y-1670913D01*
X-142748Y-1679092D01*
X-141224Y-1687118D01*
X-138176Y-1694688D01*
X-133756Y-1701546D01*
X-128117Y-1707438D01*
X-121462Y-1712214D01*
X-114046Y-1715566D01*
X-106121Y-1717497D01*
X-97942Y-1717903D01*
X-89865Y-1716735D01*
X-82143Y-1714093D01*
X-75082Y-1709978D01*
X-68935Y-1704644D01*
X-63855Y-1698243D01*
X-60147Y-1690979D01*
X-57810Y-1683156D01*
X-57048Y-1675028D01*
X-57810Y-1666849D01*
X-60147Y-1659026D01*
X-63855Y-1651762D01*
X-68935Y-1645361D01*
X-75082Y-1640027D01*
X-82143Y-1635912D01*
X-84124Y-1635251D01*
X-87579Y-1633220D01*
X-90017Y-1629918D01*
X-90932Y-1626006D01*
X-90271Y-1621993D01*
X-88087Y-1618589D01*
X-84734Y-1616303D01*
X-80772Y-1615490D01*
X1277721Y-1615490D01*
X1281582Y-1616252D01*
X1284884Y-1618437D01*
X1287119Y-1621688D01*
X1287881Y-1625549D01*
X1287170Y-1629410D01*
X1283766Y-1637893D01*
X1282242Y-1645920D01*
X1282242Y-1654098D01*
X1283766Y-1662125D01*
X1286814Y-1669694D01*
X1291234Y-1676552D01*
X1294993Y-1680464D01*
X1297076Y-1683715D01*
X1297787Y-1687525D01*
X1297076Y-1691284D01*
X1294993Y-1694535D01*
X1291234Y-1698447D01*
X1286814Y-1705305D01*
X1283766Y-1712874D01*
X1282242Y-1720900D01*
X1282242Y-1729079D01*
X1283766Y-1737106D01*
X1286814Y-1744675D01*
X1291234Y-1751533D01*
X1296873Y-1757425D01*
X1303528Y-1762201D01*
X1310944Y-1765554D01*
X1318869Y-1767484D01*
X1327048Y-1767890D01*
X1335125Y-1766722D01*
X1342847Y-1764080D01*
X1350010Y-1759915D01*
X1355598Y-1755241D01*
X1359458Y-1753260D01*
X1363827Y-1753057D01*
X1367840Y-1754682D01*
X1370838Y-1757883D01*
X1372209Y-1762048D01*
X1371701Y-1766366D01*
X1369466Y-1770075D01*
X1366215Y-1773428D01*
X1361846Y-1780336D01*
X1358798Y-1787906D01*
X1357223Y-1795932D01*
X1357223Y-1804060D01*
X1358798Y-1812086D01*
X1361846Y-1819656D01*
X1366215Y-1826564D01*
X1369263Y-1829714D01*
X1371346Y-1832914D01*
X1372057Y-1836724D01*
X1372057Y-1849831D01*
X1372768Y-1856384D01*
X1374851Y-1862277D01*
X1378153Y-1867560D01*
X1380439Y-1870151D01*
X1481582Y-1971293D01*
X1483817Y-1974596D01*
X1484579Y-1978456D01*
X1484579Y-2094382D01*
X1483817Y-2098294D01*
X1481582Y-2101545D01*
X1478280Y-2103780D01*
X1474419Y-2104542D01*
X1445666Y-2104542D01*
X1438859Y-2105456D01*
X1436116Y-2105456D01*
X1429308Y-2104542D01*
X1395679Y-2104542D01*
X1388821Y-2105456D01*
X1386128Y-2105456D01*
X1379321Y-2104542D01*
X1345539Y-2104542D01*
X1340459Y-2105101D01*
X1336141Y-2106625D01*
X1332230Y-2109063D01*
X1329029Y-2112314D01*
X1326591Y-2116175D01*
X1325067Y-2120493D01*
X1324508Y-2125624D01*
X1324508Y-2369413D01*
X1323695Y-2373274D01*
X1321511Y-2376576D01*
X1318209Y-2378760D01*
X1314348Y-2379573D01*
X1310640Y-2379573D01*
X1306779Y-2378760D01*
X1303477Y-2376576D01*
X1301242Y-2373274D01*
X1300480Y-2369413D01*
X1300480Y-2125624D01*
X1299921Y-2120493D01*
X1298397Y-2116175D01*
X1295958Y-2112314D01*
X1292707Y-2109063D01*
X1288846Y-2106625D01*
X1284528Y-2105101D01*
X1279398Y-2104542D01*
X1245666Y-2104542D01*
X1238859Y-2105456D01*
X1236116Y-2105456D01*
X1229309Y-2104542D01*
X1195578Y-2104542D01*
X1190447Y-2105101D01*
X1186129Y-2106625D01*
X1182268Y-2109063D01*
X1179017Y-2112314D01*
X1176578Y-2116175D01*
X1175054Y-2120493D01*
X1174496Y-2125624D01*
X1174496Y-2369413D01*
X1173734Y-2373274D01*
X1171498Y-2376576D01*
X1168196Y-2378760D01*
X1164336Y-2379573D01*
X1160627Y-2379573D01*
X1156766Y-2378760D01*
X1153464Y-2376576D01*
X1151280Y-2373274D01*
X1150467Y-2369413D01*
X1150467Y-2125624D01*
X1149908Y-2120493D01*
X1148384Y-2116175D01*
X1145946Y-2112314D01*
X1142746Y-2109063D01*
X1138834Y-2106625D01*
X1134516Y-2105101D01*
X1129436Y-2104542D01*
X1095654Y-2104542D01*
X1088847Y-2105456D01*
X1086154Y-2105456D01*
X1079296Y-2104542D01*
X1045565Y-2104542D01*
X1040434Y-2105101D01*
X1036116Y-2106625D01*
X1032256Y-2109063D01*
X1029004Y-2112314D01*
X1026566Y-2116175D01*
X1025042Y-2120493D01*
X1024483Y-2125624D01*
X1024483Y-2369413D01*
X1023721Y-2373274D01*
X1021486Y-2376576D01*
X1018235Y-2378760D01*
X1014323Y-2379573D01*
X1010666Y-2379573D01*
X1006754Y-2378760D01*
X1003452Y-2376576D01*
X1001268Y-2373274D01*
X1000506Y-2369413D01*
X1000506Y-2125624D01*
X999896Y-2120493D01*
X998372Y-2116175D01*
X995984Y-2112314D01*
X992733Y-2109063D01*
X988872Y-2106625D01*
X984554Y-2105101D01*
X979424Y-2104542D01*
X945642Y-2104542D01*
X938834Y-2105456D01*
X936142Y-2105456D01*
X929284Y-2104542D01*
X895553Y-2104542D01*
X890422Y-2105101D01*
X886104Y-2106625D01*
X882243Y-2109063D01*
X878992Y-2112314D01*
X876553Y-2116175D01*
X875080Y-2120493D01*
X874471Y-2125624D01*
X874471Y-2369413D01*
X873709Y-2373274D01*
X871524Y-2376576D01*
X868222Y-2378760D01*
X864311Y-2379573D01*
X860653Y-2379573D01*
X856742Y-2378760D01*
X853440Y-2376576D01*
X851255Y-2373274D01*
X850493Y-2369413D01*
X850493Y-2125624D01*
X849884Y-2120493D01*
X848410Y-2116175D01*
X845972Y-2112314D01*
X842721Y-2109063D01*
X838860Y-2106625D01*
X834542Y-2105101D01*
X829411Y-2104542D01*
X795680Y-2104542D01*
X788822Y-2105456D01*
X786130Y-2105456D01*
X779322Y-2104542D01*
X745540Y-2104542D01*
X740460Y-2105101D01*
X736142Y-2106625D01*
X732231Y-2109063D01*
X729030Y-2112314D01*
X726592Y-2116175D01*
X725068Y-2120493D01*
X724509Y-2125624D01*
X724509Y-2369413D01*
X723696Y-2373274D01*
X721512Y-2376576D01*
X718210Y-2378760D01*
X714349Y-2379573D01*
X710641Y-2379573D01*
X706780Y-2378760D01*
X703478Y-2376576D01*
X701243Y-2373274D01*
X700481Y-2369413D01*
X700481Y-2125624D01*
X699922Y-2120493D01*
X698398Y-2116175D01*
X695960Y-2112314D01*
X692708Y-2109063D01*
X688848Y-2106625D01*
X684530Y-2105101D01*
X679399Y-2104542D01*
X645668Y-2104542D01*
X638860Y-2105456D01*
X636117Y-2105456D01*
X629310Y-2104542D01*
X595579Y-2104542D01*
X590448Y-2105101D01*
X586130Y-2106625D01*
X582269Y-2109063D01*
X579018Y-2112314D01*
X576580Y-2116175D01*
X575056Y-2120493D01*
X574497Y-2125624D01*
X574497Y-2369413D01*
X573735Y-2373274D01*
X571500Y-2376576D01*
X568198Y-2378760D01*
X564337Y-2379573D01*
X560628Y-2379573D01*
X556768Y-2378760D01*
X553466Y-2376576D01*
X551281Y-2373274D01*
X550468Y-2369413D01*
X550468Y-2125624D01*
X549910Y-2120493D01*
X548386Y-2116175D01*
X545947Y-2112314D01*
X542747Y-2109063D01*
X538835Y-2106625D01*
X534517Y-2105101D01*
X529437Y-2104542D01*
X495655Y-2104542D01*
X488848Y-2105456D01*
X486156Y-2105456D01*
X479298Y-2104542D01*
X445566Y-2104542D01*
X440435Y-2105101D01*
X432054Y-2108098D01*
X427786Y-2107742D01*
X424027Y-2105710D01*
X421436Y-2102256D01*
X420573Y-2098040D01*
X420573Y-2050288D01*
X419455Y-2038502D01*
X418541Y-2033930D01*
X415899Y-2025294D01*
X414070Y-2020874D01*
X409803Y-2012899D01*
X407162Y-2008936D01*
X401421Y-2001926D01*
X398068Y-1998573D01*
X391058Y-1992833D01*
X387096Y-1990191D01*
X379120Y-1985924D01*
X374700Y-1984095D01*
X366064Y-1981454D01*
X361391Y-1980539D01*
X352399Y-1979625D01*
X347624Y-1979625D01*
X338632Y-1980539D01*
X333959Y-1981454D01*
X325272Y-1984095D01*
X320852Y-1985924D01*
X312877Y-1990191D01*
X308914Y-1992833D01*
X301955Y-1998573D01*
X298551Y-2001926D01*
X292811Y-2008936D01*
X290169Y-2012899D01*
X285902Y-2020874D01*
X284073Y-2025294D01*
X281482Y-2033930D01*
X280517Y-2038553D01*
X279501Y-2050288D01*
X279501Y-2369413D01*
X278688Y-2373274D01*
X276504Y-2376576D01*
X273202Y-2378760D01*
X269341Y-2379573D01*
X210667Y-2379573D01*
X206756Y-2378760D01*
X203454Y-2376576D01*
X201269Y-2373274D01*
X200507Y-2369413D01*
X200507Y-2125624D01*
X199898Y-2120493D01*
X198424Y-2116175D01*
X195986Y-2112314D01*
X192735Y-2109063D01*
X188874Y-2106625D01*
X184556Y-2105101D01*
X179425Y-2104542D01*
X145694Y-2104542D01*
X138836Y-2105456D01*
X136144Y-2105456D01*
X129336Y-2104542D01*
X95554Y-2104542D01*
X90474Y-2105101D01*
X86156Y-2106625D01*
X82245Y-2109063D01*
X79044Y-2112314D01*
X76606Y-2116175D01*
X75082Y-2120493D01*
X74523Y-2125624D01*
X74523Y-2369413D01*
X73710Y-2373274D01*
X71526Y-2376576D01*
X68224Y-2378760D01*
X64363Y-2379573D01*
X60655Y-2379573D01*
X56794Y-2378760D01*
X53492Y-2376576D01*
X51257Y-2373274D01*
X50495Y-2369413D01*
X50495Y-2125624D01*
X49936Y-2120493D01*
X48412Y-2116175D01*
X45974Y-2112314D01*
X42722Y-2109063D01*
X38862Y-2106625D01*
X34544Y-2105101D01*
X29413Y-2104542D01*
X-4318Y-2104542D01*
X-11125Y-2105456D01*
X-13868Y-2105456D01*
X-20675Y-2104542D01*
X-54406Y-2104542D01*
X-59537Y-2105101D01*
X-63855Y-2106625D01*
X-67716Y-2109063D01*
X-70967Y-2112314D01*
X-73406Y-2116175D01*
X-74930Y-2120493D01*
X-75488Y-2125624D01*
X-75488Y-2369413D01*
X-76250Y-2373274D01*
X-78486Y-2376576D01*
X-81788Y-2378760D01*
X-85648Y-2379573D01*
X-89357Y-2379573D01*
X-93218Y-2378760D01*
X-96520Y-2376576D01*
X-98704Y-2373274D01*
X-99517Y-2369413D01*
X-99517Y-2125624D01*
X-100076Y-2120493D01*
X-101600Y-2116175D01*
X-104038Y-2112314D01*
X-107238Y-2109063D01*
X-111150Y-2106625D01*
X-115468Y-2105101D01*
X-120548Y-2104542D01*
X-154432Y-2104542D01*
X-159562Y-2105101D01*
X-163880Y-2106625D01*
X-167741Y-2109063D01*
X-170992Y-2112314D01*
X-173431Y-2116175D01*
X-174904Y-2120493D01*
X-175514Y-2125624D01*
X-175514Y-2369413D01*
X-176276Y-2373274D01*
X-178460Y-2376576D01*
X-181762Y-2378760D01*
X-185674Y-2379573D01*
X-189331Y-2379573D01*
X-193243Y-2378760D01*
X-196545Y-2376576D01*
X-198729Y-2373274D01*
X-199491Y-2369413D01*
X-199491Y-2125624D01*
X-200101Y-2120493D01*
X-201574Y-2116175D01*
X-204012Y-2112314D01*
X-207264Y-2109063D01*
X-211124Y-2106625D01*
X-215442Y-2105101D01*
X-220573Y-2104542D01*
X-254304Y-2104542D01*
X-261162Y-2105456D01*
X-263855Y-2105456D01*
X-270662Y-2104542D01*
X-304444Y-2104542D01*
X-309524Y-2105101D01*
X-313842Y-2106625D01*
X-317754Y-2109063D01*
X-320954Y-2112314D01*
X-323392Y-2116175D01*
X-324916Y-2120493D01*
X-325475Y-2125624D01*
X-325475Y-2369413D01*
X-326288Y-2373274D01*
X-328472Y-2376576D01*
X-331774Y-2378760D01*
X-335635Y-2379573D01*
X-339344Y-2379573D01*
X-343204Y-2378760D01*
X-346506Y-2376576D01*
X-348742Y-2373274D01*
X-349504Y-2369413D01*
X-349504Y-2125624D01*
X-350062Y-2120493D01*
X-351586Y-2116175D01*
X-354025Y-2112314D01*
X-357276Y-2109063D01*
X-361137Y-2106625D01*
X-365455Y-2105101D01*
X-370586Y-2104542D01*
X-404317Y-2104542D01*
X-411124Y-2105456D01*
X-413867Y-2105456D01*
X-420674Y-2104542D01*
X-454406Y-2104542D01*
X-459536Y-2105101D01*
X-463854Y-2106625D01*
X-467715Y-2109063D01*
X-470966Y-2112314D01*
X-473405Y-2116175D01*
X-474929Y-2120493D01*
X-475488Y-2125624D01*
X-475488Y-2369413D01*
X-476250Y-2373274D01*
X-478485Y-2376576D01*
X-481787Y-2378760D01*
X-485648Y-2379573D01*
X-489356Y-2379573D01*
X-493217Y-2378760D01*
X-496519Y-2376576D01*
X-498703Y-2373274D01*
X-499516Y-2369413D01*
X-499516Y-2125624D01*
X-500075Y-2120493D01*
X-501599Y-2116175D01*
X-504037Y-2112314D01*
X-507238Y-2109063D01*
X-511149Y-2106625D01*
X-515467Y-2105101D01*
X-520547Y-2104542D01*
X-554329Y-2104542D01*
X-561136Y-2105456D01*
X-563829Y-2105456D01*
X-570687Y-2104542D01*
X-604418Y-2104542D01*
X-609549Y-2105101D01*
X-613867Y-2106625D01*
X-617728Y-2109063D01*
X-620979Y-2112314D01*
X-623417Y-2116175D01*
X-624941Y-2120493D01*
X-625500Y-2125624D01*
X-625500Y-2369413D01*
X-626262Y-2373274D01*
X-628497Y-2376576D01*
X-631748Y-2378760D01*
X-635660Y-2379573D01*
X-639318Y-2379573D01*
X-643229Y-2378760D01*
X-646531Y-2376576D01*
X-648716Y-2373274D01*
X-649478Y-2369413D01*
X-649478Y-2125624D01*
X-650087Y-2120493D01*
X-651611Y-2116175D01*
X-653999Y-2112314D01*
X-657250Y-2109063D01*
X-661111Y-2106625D01*
X-665429Y-2105101D01*
X-670560Y-2104542D01*
X-704342Y-2104542D01*
X-711149Y-2105456D01*
X-713841Y-2105456D01*
X-720699Y-2104542D01*
X-749350Y-2104542D01*
X-753211Y-2103780D01*
X-756513Y-2101545D01*
X-758748Y-2098294D01*
X-759510Y-2094382D01*
X-759510Y-1903323D01*
X-758748Y-1899412D01*
X-756513Y-1896110D01*
X-706221Y-1845818D01*
X-702716Y-1843532D01*
X-689864Y-1841754D01*
X-682142Y-1839061D01*
X-675081Y-1834997D01*
X-668934Y-1829612D01*
X-663854Y-1823212D01*
X-660146Y-1815947D01*
X-657809Y-1808124D01*
X-657047Y-1799996D01*
X-657809Y-1791868D01*
X-660146Y-1784045D01*
X-663854Y-1776780D01*
X-668934Y-1770380D01*
X-675081Y-1764995D01*
X-682142Y-1760931D01*
X-689864Y-1758238D01*
X-697941Y-1757070D01*
X-706120Y-1757476D01*
X-714044Y-1759407D01*
X-721461Y-1762810D01*
X-728116Y-1767535D01*
X-733755Y-1773428D01*
X-738174Y-1780336D01*
X-740562Y-1786280D01*
X-742848Y-1789734D01*
X-746353Y-1791970D01*
X-750468Y-1792630D01*
X-754481Y-1791614D01*
X-757783Y-1789023D01*
X-760120Y-1784045D01*
X-763879Y-1776780D01*
X-768908Y-1770380D01*
X-775106Y-1764995D01*
X-782167Y-1760931D01*
X-789889Y-1758238D01*
X-797966Y-1757070D01*
X-806094Y-1757476D01*
X-814069Y-1759407D01*
X-821486Y-1762810D01*
X-828141Y-1767535D01*
X-833780Y-1773428D01*
X-838149Y-1780336D01*
X-841197Y-1787906D01*
X-842771Y-1795932D01*
X-842771Y-1798929D01*
X-843534Y-1802841D01*
X-845718Y-1806143D01*
X-857097Y-1817471D01*
X-861161Y-1822602D01*
X-863904Y-1828241D01*
X-865276Y-1834337D01*
X-865479Y-1837791D01*
X-865479Y-2094382D01*
X-866241Y-2098294D01*
X-868476Y-2101545D01*
X-871778Y-2103780D01*
X-875639Y-2104542D01*
X-899363Y-2104542D01*
X-903224Y-2103780D01*
X-906526Y-2101545D01*
X-908761Y-2098294D01*
X-909523Y-2094382D01*
X-909523Y-1762810D01*
X-910234Y-1756257D01*
X-912317Y-1750364D01*
X-915619Y-1745081D01*
X-917905Y-1742490D01*
X-955090Y-1705305D01*
X-960018Y-1701342D01*
X-964692Y-1699056D01*
X-975106Y-1690014D01*
X-982167Y-1685899D01*
X-989888Y-1683257D01*
X-997966Y-1682089D01*
X-1006094Y-1682496D01*
X-1014069Y-1684426D01*
X-1021486Y-1687779D01*
X-1028141Y-1692554D01*
X-1033780Y-1698447D01*
X-1038148Y-1705305D01*
X-1041196Y-1712874D01*
X-1042771Y-1720900D01*
X-1042771Y-1729079D01*
X-1041196Y-1737106D01*
X-1038148Y-1744675D01*
X-1033780Y-1751533D01*
X-1030020Y-1755495D01*
X-1027937Y-1758696D01*
X-1027176Y-1762506D01*
X-1027937Y-1766265D01*
X-1030020Y-1769516D01*
X-1033780Y-1773428D01*
X-1038148Y-1780336D01*
X-1040536Y-1786280D01*
X-1042873Y-1789734D01*
X-1046378Y-1791970D01*
X-1050493Y-1792630D01*
X-1054506Y-1791614D01*
X-1057757Y-1789023D01*
X-1063853Y-1776780D01*
X-1068933Y-1770380D01*
X-1075080Y-1764995D01*
X-1082141Y-1760931D01*
X-1089863Y-1758238D01*
X-1097940Y-1757070D01*
X-1106119Y-1757476D01*
X-1114044Y-1759407D01*
X-1121460Y-1762810D01*
X-1128115Y-1767535D01*
X-1133754Y-1773428D01*
X-1138174Y-1780336D01*
X-1140561Y-1786280D01*
X-1142847Y-1789734D01*
X-1146352Y-1791970D01*
X-1150467Y-1792630D01*
X-1154480Y-1791614D01*
X-1157782Y-1789023D01*
X-1163878Y-1776730D01*
X-1168958Y-1770329D01*
X-1175105Y-1764944D01*
X-1182166Y-1760880D01*
X-1189888Y-1758188D01*
X-1197965Y-1757019D01*
X-1206144Y-1757425D01*
X-1214069Y-1759356D01*
X-1221486Y-1762760D01*
X-1228140Y-1767484D01*
X-1233779Y-1773377D01*
X-1238199Y-1780286D01*
X-1241247Y-1787855D01*
X-1242771Y-1795881D01*
X-1242771Y-1804009D01*
X-1241247Y-1812036D01*
X-1238199Y-1819605D01*
X-1233779Y-1826514D01*
X-1228140Y-1832406D01*
X-1221486Y-1837131D01*
X-1213612Y-1840738D01*
X-1210513Y-1842973D01*
X-1208430Y-1846224D01*
X-1207668Y-1849983D01*
X-1208430Y-1853742D01*
X-1210513Y-1856993D01*
X-1213612Y-1859229D01*
X-1221486Y-1862785D01*
X-1228140Y-1867560D01*
X-1233779Y-1873453D01*
X-1238148Y-1880311D01*
X-1241196Y-1887880D01*
X-1242771Y-1895906D01*
X-1242771Y-1904085D01*
X-1241196Y-1912112D01*
X-1238148Y-1919681D01*
X-1233779Y-1926539D01*
X-1228140Y-1932432D01*
X-1221486Y-1937207D01*
X-1214069Y-1940560D01*
X-1206093Y-1942490D01*
X-1200556Y-1942795D01*
X-1196949Y-1943607D01*
X-1193850Y-1945741D01*
X-1168450Y-1971141D01*
X-1166266Y-1974443D01*
X-1165504Y-1978304D01*
X-1165504Y-2102612D01*
X-1166266Y-2106472D01*
X-1168450Y-2109774D01*
X-1170990Y-2112314D01*
X-1173429Y-2116175D01*
X-1174902Y-2120493D01*
X-1175512Y-2125624D01*
X-1175512Y-2369413D01*
X-1176274Y-2373274D01*
X-1178458Y-2376576D01*
X-1181760Y-2378760D01*
X-1185672Y-2379573D01*
X-1189329Y-2379573D01*
X-1193241Y-2378760D01*
X-1196543Y-2376576D01*
X-1198727Y-2373274D01*
X-1199489Y-2369413D01*
X-1199489Y-2125624D01*
X-1200099Y-2120493D01*
X-1201572Y-2116175D01*
X-1204010Y-2112314D01*
X-1207262Y-2109063D01*
X-1211122Y-2106625D01*
X-1215440Y-2105101D01*
X-1220571Y-2104542D01*
X-1254302Y-2104542D01*
X-1261160Y-2105456D01*
X-1263853Y-2105456D01*
X-1270660Y-2104542D01*
X-1304442Y-2104542D01*
X-1309522Y-2105101D01*
X-1313840Y-2106625D01*
X-1317752Y-2109063D01*
X-1320952Y-2112314D01*
X-1323390Y-2116175D01*
X-1324914Y-2120493D01*
X-1325473Y-2125624D01*
X-1325473Y-2369413D01*
X-1326286Y-2373274D01*
X-1328470Y-2376576D01*
X-1331772Y-2378760D01*
X-1335633Y-2379573D01*
X-1339342Y-2379573D01*
X-1343202Y-2378760D01*
X-1346504Y-2376576D01*
X-1348740Y-2373274D01*
X-1349502Y-2369413D01*
X-1349502Y-2125624D01*
X-1350060Y-2120493D01*
X-1351584Y-2116175D01*
X-1354023Y-2112314D01*
X-1357274Y-2109063D01*
X-1361135Y-2106625D01*
X-1365453Y-2105101D01*
X-1370584Y-2104542D01*
X-1404315Y-2104542D01*
X-1411122Y-2105456D01*
X-1413865Y-2105456D01*
X-1420672Y-2104542D01*
X-1454404Y-2104542D01*
X-1459534Y-2105101D01*
X-1463852Y-2106625D01*
X-1467713Y-2109063D01*
X-1470964Y-2112314D01*
X-1473403Y-2116175D01*
X-1474927Y-2120493D01*
X-1475486Y-2125624D01*
X-1475486Y-2369413D01*
X-1476248Y-2373274D01*
X-1478483Y-2376576D01*
X-1481785Y-2378760D01*
X-1485646Y-2379573D01*
X-1489354Y-2379573D01*
X-1493215Y-2378760D01*
X-1496517Y-2376576D01*
X-1498701Y-2373274D01*
X-1499514Y-2369413D01*
X-1499514Y-2125624D01*
X-1500073Y-2120493D01*
X-1501597Y-2116175D01*
X-1504035Y-2112314D01*
X-1507236Y-2109063D01*
X-1511147Y-2106625D01*
X-1515465Y-2105101D01*
X-1520545Y-2104542D01*
X-1554327Y-2104542D01*
X-1561134Y-2105456D01*
X-1563827Y-2105456D01*
X-1570685Y-2104542D01*
X-1604416Y-2104542D01*
X-1609547Y-2105101D01*
X-1613865Y-2106625D01*
X-1617726Y-2109063D01*
X-1620977Y-2112314D01*
X-1623415Y-2116175D01*
X-1624939Y-2120493D01*
X-1625498Y-2125624D01*
X-1625498Y-2369413D01*
X-1626260Y-2373274D01*
X-1628495Y-2376576D01*
X-1631746Y-2378760D01*
X-1635658Y-2379573D01*
X-1639316Y-2379573D01*
X-1643227Y-2378760D01*
X-1646529Y-2376576D01*
X-1648714Y-2373274D01*
X-1649475Y-2369413D01*
X-1649475Y-2125624D01*
X-1650085Y-2120493D01*
X-1651609Y-2116175D01*
X-1653997Y-2112314D01*
X-1657248Y-2109063D01*
X-1661109Y-2106625D01*
X-1665427Y-2105101D01*
X-1670557Y-2104542D01*
X-1704339Y-2104542D01*
X-1711147Y-2105456D01*
X-1713839Y-2105456D01*
X-1720697Y-2104542D01*
X-1754428Y-2104542D01*
X-1759559Y-2105101D01*
X-1763877Y-2106625D01*
X-1767738Y-2109063D01*
X-1770989Y-2112314D01*
X-1773428Y-2116175D01*
X-1774901Y-2120493D01*
X-1775510Y-2125624D01*
X-1775510Y-2369413D01*
X-1776272Y-2373274D01*
X-1778457Y-2376576D01*
X-1781759Y-2378760D01*
X-1785670Y-2379573D01*
X-1789328Y-2379573D01*
X-1793239Y-2378760D01*
X-1796542Y-2376576D01*
X-1798726Y-2373274D01*
X-1799488Y-2369413D01*
X-1799488Y-2125624D01*
X-1800098Y-2120493D01*
X-1801571Y-2116175D01*
X-1804009Y-2112314D01*
X-1807260Y-2109063D01*
X-1811121Y-2106625D01*
X-1815439Y-2105101D01*
X-1820570Y-2104542D01*
X-1854301Y-2104542D01*
X-1861159Y-2105456D01*
X-1863852Y-2105456D01*
X-1870659Y-2104542D01*
X-1904441Y-2104542D01*
X-1909521Y-2105101D01*
X-1913839Y-2106625D01*
X-1917750Y-2109063D01*
X-1920951Y-2112314D01*
X-1923389Y-2116175D01*
X-1924913Y-2120493D01*
X-1925472Y-2125624D01*
X-1925472Y-2369413D01*
X-1926285Y-2373274D01*
X-1928469Y-2376576D01*
X-1931771Y-2378760D01*
X-1935632Y-2379573D01*
X-1939340Y-2379573D01*
X-1943201Y-2378760D01*
X-1946503Y-2376576D01*
X-1948738Y-2373274D01*
X-1949500Y-2369413D01*
X-1949500Y-2125624D01*
X-1950059Y-2120493D01*
X-1951583Y-2116175D01*
X-1954022Y-2112314D01*
X-1957273Y-2109063D01*
X-1961134Y-2106625D01*
X-1965452Y-2105101D01*
X-1970582Y-2104542D01*
X-1999335Y-2104542D01*
X-2003196Y-2103780D01*
X-2006498Y-2101545D01*
X-2008733Y-2098294D01*
X-2009495Y-2094382D01*
X-2009495Y-2003298D01*
X-2008733Y-1999437D01*
X-2006498Y-1996135D01*
X-1956206Y-1945843D01*
X-1952701Y-1943557D01*
X-1939848Y-1941728D01*
X-1932127Y-1939086D01*
X-1925066Y-1934972D01*
X-1918919Y-1929638D01*
X-1913839Y-1923237D01*
X-1910130Y-1915972D01*
X-1907793Y-1908149D01*
X-1907032Y-1900021D01*
X-1907793Y-1891842D01*
X-1910130Y-1884019D01*
X-1913839Y-1876755D01*
X-1918919Y-1870354D01*
X-1925066Y-1865020D01*
X-1932127Y-1860905D01*
X-1939848Y-1858264D01*
X-1947925Y-1857095D01*
X-1956104Y-1857502D01*
X-1964029Y-1859432D01*
X-1971446Y-1862785D01*
X-1978101Y-1867560D01*
X-1983739Y-1873453D01*
X-1988159Y-1880311D01*
X-1991207Y-1887880D01*
X-1992731Y-1895906D01*
X-1992731Y-1898954D01*
X-1993493Y-1902815D01*
X-1995728Y-1906117D01*
X-2057095Y-1967484D01*
X-2061159Y-1972614D01*
X-2063902Y-1978253D01*
X-2065274Y-1984349D01*
X-2065477Y-1987804D01*
X-2065477Y-2102612D01*
X-2066239Y-2106523D01*
X-2068474Y-2109774D01*
X-2070963Y-2112314D01*
X-2073402Y-2116175D01*
X-2074925Y-2120493D01*
X-2075484Y-2125624D01*
X-2075484Y-2369413D01*
X-2076246Y-2373274D01*
X-2078482Y-2376576D01*
X-2081784Y-2378760D01*
X-2085644Y-2379573D01*
X-2089353Y-2379573D01*
X-2093214Y-2378760D01*
X-2096516Y-2376576D01*
X-2098700Y-2373274D01*
X-2099513Y-2369413D01*
X-2099513Y-2125624D01*
X-2100072Y-2120493D01*
X-2101596Y-2116175D01*
X-2104034Y-2112314D01*
X-2106422Y-2109876D01*
X-2108657Y-2106574D01*
X-2109419Y-2102713D01*
X-2109419Y-1678228D01*
X-2108657Y-1674368D01*
X-2106422Y-1671066D01*
X-1930349Y-1494993D01*
X-1926285Y-1489862D01*
X-1923542Y-1484223D01*
X-1922170Y-1478127D01*
X-1921967Y-1474673D01*
X-1921967Y-490778D01*
X-1921205Y-486918D01*
X-1918970Y-483616D01*
X-1228699Y206654D01*
X-1224889Y209092D01*
X-1220419Y209600D01*
X-1216202Y208127D01*
X-1212951Y204978D01*
X-1208786Y198424D01*
X-1203147Y192532D01*
X-1196492Y187807D01*
X-1188669Y184251D01*
X-1185570Y182016D01*
X-1183487Y178765D01*
X-1182725Y175006D01*
X-1183487Y171196D01*
X-1185570Y167995D01*
X-1188669Y165760D01*
X-1196492Y162204D01*
X-1203147Y157429D01*
X-1208786Y151536D01*
X-1213154Y144678D01*
X-1216202Y137109D01*
X-1217777Y129082D01*
X-1217777Y120904D01*
X-1216202Y112877D01*
X-1213154Y105308D01*
X-1208786Y98450D01*
X-1203147Y92557D01*
X-1196492Y87782D01*
X-1189075Y84429D01*
X-1181100Y82499D01*
X-1172972Y82092D01*
X-1164894Y83261D01*
X-1157173Y85902D01*
X-1150112Y90017D01*
X-1144879Y94538D01*
X-1141577Y96418D01*
X-1137767Y96977D01*
X-1134008Y96062D01*
X-1130858Y93827D01*
X-1128776Y90627D01*
X-1128064Y86817D01*
X-1128064Y1778D01*
X-1128979Y-2438D01*
X-1131570Y-5943D01*
X-1135380Y-7975D01*
X-1139698Y-8280D01*
X-1147927Y-7112D01*
X-1156106Y-7518D01*
X-1164031Y-9448D01*
X-1171448Y-12801D01*
X-1178102Y-17576D01*
X-1183741Y-23469D01*
X-1188161Y-30327D01*
X-1191209Y-37896D01*
X-1192733Y-45923D01*
X-1192733Y-54102D01*
X-1191209Y-62128D01*
X-1188161Y-69697D01*
X-1183741Y-76555D01*
X-1178102Y-82448D01*
X-1171448Y-87223D01*
X-1164031Y-90576D01*
X-1156106Y-92506D01*
X-1147927Y-92913D01*
X-1139698Y-91744D01*
X-1135380Y-92049D01*
X-1131570Y-94081D01*
X-1128979Y-97586D01*
X-1128064Y-101803D01*
X-1128064Y-824687D01*
X-1127353Y-831240D01*
X-1125270Y-837133D01*
X-1121968Y-842416D01*
X-1119682Y-845007D01*
X-1045718Y-918921D01*
X-1043533Y-922223D01*
X-1042771Y-926134D01*
X-1042771Y-929081D01*
X-1041196Y-937107D01*
X-1038148Y-944676D01*
X-1033780Y-951534D01*
X-1028141Y-957427D01*
X-1021486Y-962202D01*
X-1014069Y-965555D01*
X-1006094Y-967486D01*
X-997966Y-967892D01*
X-989888Y-966724D01*
X-982167Y-964082D01*
X-975106Y-959967D01*
X-968908Y-954633D01*
X-963879Y-948232D01*
X-960119Y-940968D01*
X-957834Y-933145D01*
X-957071Y-925017D01*
X-957834Y-916838D01*
X-960119Y-909015D01*
X-963879Y-901750D01*
X-968908Y-895350D01*
X-975106Y-890016D01*
X-982167Y-885901D01*
X-985977Y-884580D01*
X-989584Y-882446D01*
X-991971Y-879043D01*
X-992835Y-874979D01*
X-991971Y-870915D01*
X-989584Y-867511D01*
X-985977Y-865378D01*
X-982167Y-864057D01*
X-975106Y-859993D01*
X-968908Y-854608D01*
X-963879Y-848207D01*
X-960119Y-840943D01*
X-957834Y-833119D01*
X-957071Y-824992D01*
X-957834Y-816864D01*
X-960119Y-809040D01*
X-963828Y-801827D01*
X-969771Y-794359D01*
X-971448Y-791413D01*
X-972007Y-788060D01*
X-972007Y84277D01*
X-971245Y88138D01*
X-969010Y91440D01*
X-691388Y369062D01*
X-688086Y371297D01*
X-684225Y372059D01*
X-400354Y372059D01*
X-393801Y372770D01*
X-387908Y374853D01*
X-382574Y378155D01*
X-380085Y380441D01*
X-309778Y450596D01*
X-306120Y452932D01*
X-301802Y453542D01*
X-297586Y452272D01*
X-294335Y449326D01*
X-292608Y445312D01*
X-291185Y437896D01*
X-288137Y430326D01*
X-283768Y423418D01*
X-278130Y417525D01*
X-271475Y412800D01*
X-263652Y409244D01*
X-260553Y407009D01*
X-258470Y403758D01*
X-257708Y399999D01*
X-258470Y396189D01*
X-260553Y392988D01*
X-263652Y390753D01*
X-271475Y387197D01*
X-278130Y382422D01*
X-283768Y376529D01*
X-288137Y369671D01*
X-291185Y362102D01*
X-292760Y354076D01*
X-292760Y345897D01*
X-291185Y337870D01*
X-288137Y330301D01*
X-283768Y323443D01*
X-278130Y317550D01*
X-271475Y312775D01*
X-264058Y309422D01*
X-256082Y307492D01*
X-247954Y307086D01*
X-239877Y308254D01*
X-232156Y310896D01*
X-225094Y315010D01*
X-218897Y320344D01*
X-213867Y326745D01*
X-210108Y334010D01*
X-207771Y338988D01*
X-204470Y341579D01*
X-200456Y342646D01*
X-196342Y341985D01*
X-192836Y339699D01*
X-190550Y336245D01*
X-188163Y330301D01*
X-183743Y323443D01*
X-178104Y317550D01*
X-171450Y312775D01*
X-164033Y309422D01*
X-156108Y307492D01*
X-147929Y307086D01*
X-139852Y308254D01*
X-132130Y310896D01*
X-125069Y315010D01*
X-118922Y320344D01*
X-113842Y326745D01*
X-107746Y338988D01*
X-104495Y341579D01*
X-100482Y342646D01*
X-96367Y341985D01*
X-92862Y339699D01*
X-90525Y336245D01*
X-88138Y330301D01*
X-83769Y323443D01*
X-78130Y317550D01*
X-71475Y312775D01*
X-64058Y309422D01*
X-56083Y307492D01*
X-47955Y307086D01*
X-39878Y308254D01*
X-32156Y310896D01*
X-25095Y315010D01*
X-18897Y320344D01*
X-13868Y326745D01*
X-10109Y334010D01*
X-7772Y338988D01*
X-4470Y341579D01*
X-457Y342646D01*
X3657Y341985D01*
X7162Y339699D01*
X9448Y336245D01*
X11836Y330301D01*
X16256Y323443D01*
X21894Y317550D01*
X28549Y312775D01*
X35966Y309422D01*
X43891Y307492D01*
X52069Y307086D01*
X60147Y308254D01*
X67868Y310896D01*
X74930Y315010D01*
X81076Y320344D01*
X86156Y326745D01*
X92252Y338988D01*
X95504Y341579D01*
X99517Y342646D01*
X103632Y341985D01*
X107137Y339699D01*
X109474Y336245D01*
X111861Y330301D01*
X116230Y323443D01*
X121869Y317550D01*
X128524Y312775D01*
X135940Y309422D01*
X143916Y307492D01*
X152044Y307086D01*
X160121Y308254D01*
X167843Y310896D01*
X174904Y315010D01*
X181102Y320344D01*
X186131Y326745D01*
X189890Y334010D01*
X192227Y338988D01*
X195529Y341579D01*
X199542Y342646D01*
X203657Y341985D01*
X207162Y339699D01*
X209448Y336245D01*
X211836Y330301D01*
X216255Y323443D01*
X221894Y317550D01*
X228549Y312775D01*
X235966Y309422D01*
X243890Y307492D01*
X252069Y307086D01*
X260146Y308254D01*
X267868Y310896D01*
X274929Y315010D01*
X281076Y320344D01*
X286156Y326745D01*
X289864Y334010D01*
X292201Y341833D01*
X292963Y349961D01*
X292201Y358140D01*
X289864Y365963D01*
X286156Y373227D01*
X281076Y379628D01*
X274929Y384962D01*
X267868Y389077D01*
X264007Y390398D01*
X260451Y392531D01*
X258013Y395935D01*
X257200Y399999D01*
X258013Y404063D01*
X260451Y407466D01*
X264007Y409600D01*
X267868Y410921D01*
X274929Y414985D01*
X281076Y420370D01*
X286156Y426770D01*
X289864Y434035D01*
X292201Y441858D01*
X292963Y449986D01*
X292201Y458114D01*
X289864Y465937D01*
X286156Y473201D01*
X281076Y479602D01*
X274929Y484987D01*
X267868Y489051D01*
X260146Y491743D01*
X252069Y492912D01*
X243890Y492506D01*
X235966Y490575D01*
X228549Y487172D01*
X221894Y482447D01*
X216255Y476554D01*
X211836Y469646D01*
X209448Y463702D01*
X207162Y460248D01*
X203657Y458012D01*
X199542Y457352D01*
X195529Y458368D01*
X192227Y460959D01*
X189890Y465937D01*
X186131Y473201D01*
X181102Y479602D01*
X174904Y484987D01*
X167843Y489051D01*
X160121Y491743D01*
X152044Y492912D01*
X143916Y492506D01*
X135940Y490575D01*
X128524Y487172D01*
X121869Y482447D01*
X116230Y476554D01*
X111861Y469646D01*
X109474Y463702D01*
X107137Y460248D01*
X103632Y458012D01*
X99517Y457352D01*
X95504Y458368D01*
X92252Y460959D01*
X86156Y473201D01*
X81076Y479602D01*
X74930Y484987D01*
X67868Y489051D01*
X60147Y491743D01*
X52069Y492912D01*
X43891Y492506D01*
X35966Y490575D01*
X28549Y487172D01*
X21894Y482447D01*
X16256Y476554D01*
X11836Y469646D01*
X9448Y463702D01*
X7162Y460248D01*
X3657Y458012D01*
X-457Y457352D01*
X-4470Y458368D01*
X-7772Y460959D01*
X-10109Y465937D01*
X-13868Y473201D01*
X-18897Y479602D01*
X-25095Y484987D01*
X-32156Y489051D01*
X-39878Y491743D01*
X-47955Y492912D01*
X-56083Y492506D01*
X-64058Y490575D01*
X-71475Y487172D01*
X-78130Y482447D01*
X-86969Y473252D01*
X-91033Y471728D01*
X-95300Y472033D01*
X-99110Y474116D01*
X-101701Y477570D01*
X-102616Y481787D01*
X-102616Y484327D01*
X-103174Y489407D01*
X-104698Y493725D01*
X-107137Y497636D01*
X-110388Y500837D01*
X-114249Y503275D01*
X-118567Y504799D01*
X-123698Y505358D01*
X-176530Y505358D01*
X-181660Y504799D01*
X-185978Y503275D01*
X-189839Y500837D01*
X-193090Y497636D01*
X-195529Y493725D01*
X-197053Y489407D01*
X-197612Y484327D01*
X-197612Y481888D01*
X-198475Y477824D01*
X-200863Y474421D01*
X-204470Y472287D01*
X-208584Y471779D01*
X-212547Y472948D01*
X-215747Y475640D01*
X-218897Y479602D01*
X-225094Y484987D01*
X-232156Y489051D01*
X-239877Y491743D01*
X-244856Y492455D01*
X-249021Y494030D01*
X-252120Y497281D01*
X-253542Y501497D01*
X-252984Y505917D01*
X-250596Y509676D01*
X-230378Y529894D01*
X-226263Y534974D01*
X-223520Y540664D01*
X-222148Y546760D01*
X-221945Y550214D01*
X-221945Y613054D01*
X-221386Y616407D01*
X-219710Y619404D01*
X-213817Y626770D01*
X-210108Y634034D01*
X-207822Y641858D01*
X-207060Y649986D01*
X-207822Y658114D01*
X-210108Y665937D01*
X-213867Y673201D01*
X-218897Y679602D01*
X-225094Y684987D01*
X-232156Y689051D01*
X-235966Y690372D01*
X-239572Y692505D01*
X-241960Y695909D01*
X-242824Y699973D01*
X-241960Y704037D01*
X-239572Y707440D01*
X-235966Y709574D01*
X-232156Y710895D01*
X-225094Y715010D01*
X-218897Y720344D01*
X-213867Y726744D01*
X-210108Y734009D01*
X-207822Y741832D01*
X-207060Y749960D01*
X-207822Y758139D01*
X-210108Y765962D01*
X-213867Y773226D01*
X-218897Y779627D01*
X-225094Y784961D01*
X-232156Y789076D01*
X-235966Y790397D01*
X-239572Y792530D01*
X-241960Y795934D01*
X-242824Y799998D01*
X-241960Y804062D01*
X-239572Y807466D01*
X-235966Y809599D01*
X-232156Y810920D01*
X-225094Y814984D01*
X-218897Y820369D01*
X-213867Y826769D01*
X-210108Y834034D01*
X-207822Y841857D01*
X-207060Y849985D01*
X-207822Y858113D01*
X-210108Y865936D01*
X-213867Y873201D01*
X-218897Y879602D01*
X-225094Y884986D01*
X-232156Y889050D01*
X-239877Y891743D01*
X-247954Y892911D01*
X-256082Y892505D01*
X-264058Y890574D01*
X-271475Y887171D01*
X-278130Y882446D01*
X-283768Y876553D01*
X-288137Y869645D01*
X-291185Y862076D01*
X-292760Y854049D01*
X-292760Y845921D01*
X-291185Y837895D01*
X-288137Y830326D01*
X-283768Y823417D01*
X-278130Y817524D01*
X-271475Y812800D01*
X-263652Y809244D01*
X-260553Y807008D01*
X-258470Y803757D01*
X-257708Y799998D01*
X-258470Y796188D01*
X-260553Y792988D01*
X-263652Y790752D01*
X-271475Y787196D01*
X-278130Y782421D01*
X-283768Y776528D01*
X-288137Y769670D01*
X-290525Y763727D01*
X-292862Y760272D01*
X-296367Y757986D01*
X-300482Y757326D01*
X-304495Y758393D01*
X-307746Y760984D01*
X-313842Y773226D01*
X-318922Y779627D01*
X-325069Y784961D01*
X-332130Y789076D01*
X-339852Y791718D01*
X-352653Y793546D01*
X-356158Y795832D01*
X-380034Y819708D01*
X-385165Y823772D01*
X-390804Y826516D01*
X-396900Y827887D01*
X-400354Y828090D01*
X-924763Y828090D01*
X-931316Y827379D01*
X-937209Y825296D01*
X-942492Y821994D01*
X-945083Y819708D01*
X-2119680Y-355142D01*
X-2123744Y-360273D01*
X-2126488Y-365912D01*
X-2127859Y-372008D01*
X-2128062Y-375462D01*
X-2128062Y-1363421D01*
X-2128774Y-1367180D01*
X-2130856Y-1370431D01*
X-2133752Y-1373428D01*
X-2138172Y-1380337D01*
X-2139848Y-1384554D01*
X-2142032Y-1387856D01*
X-2145334Y-1390091D01*
X-2149246Y-1390904D01*
X-2153107Y-1390142D01*
X-2156460Y-1387957D01*
X-2158695Y-1384655D01*
X-2159457Y-1380744D01*
X-2159457Y-365810D01*
X-2158695Y-361950D01*
X-2156460Y-358648D01*
X-828802Y969010D01*
X-825500Y971245D01*
X-821639Y972007D01*
X-561746Y972007D01*
X-557733Y971194D01*
X-554380Y968857D01*
X-553110Y967536D01*
X-546455Y962812D01*
X-539038Y959408D01*
X-531114Y957478D01*
X-522935Y957071D01*
X-514858Y958240D01*
X-507136Y960932D01*
X-500075Y964996D01*
X-493928Y970381D01*
X-488848Y976782D01*
X-485140Y984046D01*
X-482803Y991869D01*
X-482041Y999998D01*
X-482803Y1008126D01*
X-485140Y1015949D01*
X-486664Y1018946D01*
X-487781Y1022908D01*
X-487222Y1026921D01*
X-485140Y1030478D01*
X-481838Y1032865D01*
X-477875Y1033780D01*
X-473862Y1033068D01*
X-470458Y1030782D01*
X-445719Y1006094D01*
X-443534Y1002792D01*
X-442772Y998880D01*
X-442772Y995934D01*
X-441198Y987907D01*
X-438150Y980338D01*
X-433781Y973429D01*
X-428142Y967536D01*
X-421487Y962812D01*
X-414070Y959408D01*
X-406095Y957478D01*
X-397967Y957071D01*
X-389890Y958240D01*
X-382168Y960932D01*
X-375107Y964996D01*
X-368909Y970381D01*
X-363880Y976782D01*
X-360121Y984046D01*
X-357835Y991869D01*
X-357073Y999998D01*
X-357835Y1008126D01*
X-360121Y1015949D01*
X-363880Y1023213D01*
X-368909Y1029614D01*
X-375107Y1034999D01*
X-382168Y1039063D01*
X-389890Y1041755D01*
X-402793Y1043533D01*
X-406298Y1045819D01*
X-454964Y1094536D01*
X-460095Y1098600D01*
X-465734Y1101344D01*
X-471830Y1102715D01*
X-475284Y1102918D01*
X-901649Y1102918D01*
X-908202Y1102207D01*
X-914095Y1100124D01*
X-919378Y1096822D01*
X-921969Y1094536D01*
X-2357170Y-340664D01*
X-2361234Y-345795D01*
X-2363978Y-351434D01*
X-2365349Y-357530D01*
X-2365552Y-360984D01*
X-2365552Y-1530096D01*
X-2366568Y-1534464D01*
X-2369312Y-1537970D01*
X-2373325Y-1539951D01*
X-2377795Y-1540052D01*
X-2381859Y-1538173D01*
X-2384755Y-1534769D01*
X-2388870Y-1526794D01*
X-2393899Y-1520393D01*
X-2400096Y-1515008D01*
X-2407158Y-1510944D01*
X-2414879Y-1508252D01*
X-2422956Y-1507083D01*
X-2431084Y-1507490D01*
X-2439060Y-1509420D01*
X-2446477Y-1512824D01*
X-2453132Y-1517548D01*
X-2454351Y-1518869D01*
X-2457704Y-1521206D01*
X-2461717Y-1522018D01*
X-2749702Y-1522018D01*
X-2756255Y-1522730D01*
X-2762148Y-1524812D01*
X-2767431Y-1528114D01*
X-2770022Y-1530400D01*
X-3207105Y-1967484D01*
X-3211169Y-1972614D01*
X-3213912Y-1978253D01*
X-3215284Y-1984349D01*
X-3215487Y-1987804D01*
X-3215487Y-2102612D01*
X-3216249Y-2106523D01*
X-3218484Y-2109825D01*
X-3220974Y-2112314D01*
X-3223412Y-2116175D01*
X-3224936Y-2120493D01*
X-3225495Y-2125624D01*
X-3225495Y-2369413D01*
X-3226257Y-2373274D01*
X-3228492Y-2376576D01*
X-3231743Y-2378760D01*
X-3235655Y-2379573D01*
G37*

%LPC*%
G36*
X3204616Y1819554D02*
G01*
X3223158Y1821027D01*
X3241446Y1824329D01*
X3259277Y1829511D01*
X3276498Y1836521D01*
X3292906Y1845259D01*
X3308299Y1855622D01*
X3322574Y1867560D01*
X3335578Y1880870D01*
X3347110Y1895398D01*
X3357067Y1911096D01*
X3365398Y1927707D01*
X3371951Y1945132D01*
X3376676Y1963064D01*
X3379520Y1981454D01*
X3380486Y1999996D01*
X3379520Y2018538D01*
X3376676Y2036927D01*
X3371951Y2054860D01*
X3365398Y2072284D01*
X3357067Y2088896D01*
X3347110Y2104593D01*
X3335578Y2119122D01*
X3322574Y2132431D01*
X3308299Y2144369D01*
X3292906Y2154732D01*
X3276498Y2163470D01*
X3259277Y2170480D01*
X3241446Y2175662D01*
X3223158Y2178964D01*
X3204616Y2180437D01*
X3186074Y2179929D01*
X3167634Y2177542D01*
X3149549Y2173274D01*
X3132023Y2167178D01*
X3115157Y2159304D01*
X3099257Y2149754D01*
X3084372Y2138578D01*
X3070758Y2125980D01*
X3058464Y2112010D01*
X3047695Y2096871D01*
X3038551Y2080666D01*
X3031134Y2063648D01*
X3025444Y2045970D01*
X3021634Y2027783D01*
X3019755Y2009292D01*
X3019755Y1990699D01*
X3021634Y1972208D01*
X3025444Y1954022D01*
X3031134Y1936343D01*
X3038551Y1919325D01*
X3047695Y1903120D01*
X3058464Y1887982D01*
X3070758Y1874012D01*
X3084372Y1861413D01*
X3099257Y1850237D01*
X3115157Y1840687D01*
X3132023Y1832813D01*
X3149549Y1826717D01*
X3167634Y1822450D01*
X3186074Y1820062D01*
G37*
G36*
X-3195370Y1819554D02*
G01*
X-3176828Y1821027D01*
X-3158540Y1824329D01*
X-3140710Y1829511D01*
X-3123488Y1836521D01*
X-3107080Y1845259D01*
X-3091688Y1855622D01*
X-3077413Y1867560D01*
X-3064408Y1880870D01*
X-3052876Y1895398D01*
X-3042920Y1911096D01*
X-3034588Y1927707D01*
X-3028035Y1945132D01*
X-3023311Y1963064D01*
X-3020466Y1981454D01*
X-3019501Y1999996D01*
X-3020466Y2018538D01*
X-3023311Y2036927D01*
X-3028035Y2054860D01*
X-3034588Y2072284D01*
X-3042920Y2088896D01*
X-3052876Y2104593D01*
X-3064408Y2119122D01*
X-3077413Y2132431D01*
X-3091688Y2144369D01*
X-3107080Y2154732D01*
X-3123488Y2163470D01*
X-3140710Y2170480D01*
X-3158540Y2175662D01*
X-3176828Y2178964D01*
X-3195370Y2180437D01*
X-3213912Y2179929D01*
X-3232353Y2177542D01*
X-3250438Y2173274D01*
X-3267964Y2167178D01*
X-3284829Y2159304D01*
X-3300729Y2149754D01*
X-3315614Y2138578D01*
X-3329228Y2125980D01*
X-3341522Y2112010D01*
X-3352292Y2096871D01*
X-3361436Y2080666D01*
X-3368852Y2063648D01*
X-3374542Y2045970D01*
X-3378352Y2027783D01*
X-3380232Y2009292D01*
X-3380232Y1990699D01*
X-3378352Y1972208D01*
X-3374542Y1954022D01*
X-3368852Y1936343D01*
X-3361436Y1919325D01*
X-3352292Y1903120D01*
X-3341522Y1887982D01*
X-3329228Y1874012D01*
X-3315614Y1861413D01*
X-3300729Y1850237D01*
X-3284829Y1840687D01*
X-3267964Y1832813D01*
X-3250438Y1826717D01*
X-3232353Y1822450D01*
X-3213912Y1820062D01*
G37*
G36*
X2002028Y1757070D02*
G01*
X2010105Y1758238D01*
X2017826Y1760931D01*
X2024888Y1764995D01*
X2031085Y1770380D01*
X2036114Y1776780D01*
X2039874Y1784045D01*
X2042160Y1791868D01*
X2042922Y1799996D01*
X2042160Y1808124D01*
X2039874Y1815947D01*
X2036114Y1823212D01*
X2031085Y1829612D01*
X2024888Y1834997D01*
X2017826Y1839061D01*
X2010105Y1841754D01*
X2002028Y1842922D01*
X1993900Y1842516D01*
X1985924Y1840585D01*
X1978507Y1837182D01*
X1971852Y1832457D01*
X1966214Y1826564D01*
X1961845Y1819656D01*
X1958797Y1812086D01*
X1957222Y1804060D01*
X1957222Y1795932D01*
X1958797Y1787906D01*
X1961845Y1780336D01*
X1966214Y1773428D01*
X1971852Y1767535D01*
X1978507Y1762810D01*
X1985924Y1759407D01*
X1993900Y1757476D01*
G37*
G36*
X602030Y1682089D02*
G01*
X610108Y1683257D01*
X617829Y1685899D01*
X624890Y1690014D01*
X631088Y1695348D01*
X636117Y1701749D01*
X639876Y1709013D01*
X642162Y1716836D01*
X642924Y1724964D01*
X642162Y1733143D01*
X639876Y1740966D01*
X636117Y1748231D01*
X631088Y1754632D01*
X624890Y1759966D01*
X617829Y1764080D01*
X610108Y1766722D01*
X602030Y1767890D01*
X593902Y1767484D01*
X585927Y1765554D01*
X578510Y1762201D01*
X571855Y1757425D01*
X566216Y1751533D01*
X561848Y1744675D01*
X558800Y1737106D01*
X557225Y1729079D01*
X557225Y1720900D01*
X558800Y1712874D01*
X561848Y1705305D01*
X566216Y1698447D01*
X571855Y1692554D01*
X578510Y1687779D01*
X585927Y1684426D01*
X593902Y1682496D01*
G37*
G36*
X1077061Y1957070D02*
G01*
X1085138Y1958238D01*
X1092860Y1960930D01*
X1099921Y1964994D01*
X1106068Y1970379D01*
X1111148Y1976780D01*
X1114856Y1984044D01*
X1117193Y1991868D01*
X1117955Y1999996D01*
X1117193Y2008124D01*
X1114856Y2015947D01*
X1111148Y2023211D01*
X1106068Y2029612D01*
X1099921Y2034997D01*
X1092860Y2039061D01*
X1085138Y2041753D01*
X1077061Y2042922D01*
X1068882Y2042515D01*
X1060958Y2040585D01*
X1053541Y2037181D01*
X1046886Y2032457D01*
X1041247Y2026564D01*
X1036828Y2019655D01*
X1033780Y2012086D01*
X1032256Y2004060D01*
X1032256Y1995932D01*
X1033780Y1987905D01*
X1036828Y1980336D01*
X1041247Y1973427D01*
X1046886Y1967534D01*
X1053541Y1962810D01*
X1060958Y1959406D01*
X1068882Y1957476D01*
G37*
G36*
X1077061Y1557070D02*
G01*
X1085138Y1558239D01*
X1092860Y1560931D01*
X1099921Y1564995D01*
X1106068Y1570380D01*
X1111148Y1576781D01*
X1114856Y1584045D01*
X1117193Y1591868D01*
X1117955Y1599996D01*
X1117193Y1608124D01*
X1114856Y1615948D01*
X1111148Y1623212D01*
X1106068Y1629613D01*
X1099921Y1634998D01*
X1092860Y1639062D01*
X1085138Y1641754D01*
X1077061Y1642922D01*
X1068882Y1642516D01*
X1060958Y1640586D01*
X1053541Y1637182D01*
X1046886Y1632457D01*
X1041247Y1626565D01*
X1036828Y1619656D01*
X1033780Y1612087D01*
X1032256Y1604060D01*
X1032256Y1595932D01*
X1033780Y1587906D01*
X1036828Y1580337D01*
X1041247Y1573428D01*
X1046886Y1567535D01*
X1053541Y1562811D01*
X1060958Y1559407D01*
X1068882Y1557477D01*
G37*
G36*
X-1622958Y1357071D02*
G01*
X-1614881Y1358239D01*
X-1607159Y1360932D01*
X-1600098Y1364996D01*
X-1593900Y1370380D01*
X-1588871Y1376781D01*
X-1585112Y1384046D01*
X-1582826Y1391869D01*
X-1582064Y1399997D01*
X-1582826Y1408125D01*
X-1585112Y1415948D01*
X-1588871Y1423212D01*
X-1593900Y1429613D01*
X-1600098Y1434998D01*
X-1607159Y1439062D01*
X-1614881Y1441754D01*
X-1622958Y1442923D01*
X-1631086Y1442516D01*
X-1639062Y1440586D01*
X-1646478Y1437182D01*
X-1653133Y1432458D01*
X-1658772Y1426565D01*
X-1663141Y1419656D01*
X-1666189Y1412087D01*
X-1667764Y1404061D01*
X-1667764Y1395933D01*
X-1666189Y1387906D01*
X-1663141Y1380337D01*
X-1658772Y1373428D01*
X-1653133Y1367536D01*
X-1646478Y1362811D01*
X-1639062Y1359408D01*
X-1631086Y1357477D01*
G37*
G36*
X-1122934Y1337056D02*
G01*
X-1114856Y1338224D01*
X-1107135Y1340916D01*
X-1100074Y1344980D01*
X-1093927Y1350365D01*
X-1088847Y1356766D01*
X-1085138Y1364030D01*
X-1082802Y1371854D01*
X-1082040Y1379982D01*
X-1082802Y1388110D01*
X-1085138Y1395933D01*
X-1088847Y1403197D01*
X-1093927Y1409598D01*
X-1100074Y1414983D01*
X-1107135Y1419047D01*
X-1114856Y1421739D01*
X-1122934Y1422908D01*
X-1131112Y1422501D01*
X-1139037Y1420571D01*
X-1146454Y1417167D01*
X-1153109Y1412443D01*
X-1158748Y1406550D01*
X-1163167Y1399641D01*
X-1166215Y1392072D01*
X-1167739Y1384046D01*
X-1167739Y1375918D01*
X-1166215Y1367891D01*
X-1163167Y1360322D01*
X-1158748Y1353413D01*
X-1153109Y1347520D01*
X-1146454Y1342796D01*
X-1139037Y1339392D01*
X-1131112Y1337462D01*
G37*
G36*
X-3172866Y1224635D02*
G01*
X-3161893Y1225499D01*
X-3151124Y1228090D01*
X-3140913Y1232306D01*
X-3131464Y1238097D01*
X-3123082Y1245260D01*
X-3115868Y1253693D01*
X-3110128Y1263091D01*
X-3105861Y1273302D01*
X-3103270Y1284071D01*
X-3102406Y1295095D01*
X-3103270Y1306118D01*
X-3105861Y1316888D01*
X-3110128Y1327099D01*
X-3115868Y1336497D01*
X-3123082Y1344930D01*
X-3131464Y1352092D01*
X-3140913Y1357884D01*
X-3151124Y1362100D01*
X-3161893Y1364691D01*
X-3172866Y1365554D01*
X-3183890Y1364691D01*
X-3194659Y1362100D01*
X-3204870Y1357884D01*
X-3214319Y1352092D01*
X-3222701Y1344930D01*
X-3229914Y1336497D01*
X-3235655Y1327099D01*
X-3239922Y1316888D01*
X-3242513Y1306118D01*
X-3243376Y1295095D01*
X-3242513Y1284071D01*
X-3239922Y1273302D01*
X-3235655Y1263091D01*
X-3229914Y1253693D01*
X-3222701Y1245260D01*
X-3214319Y1238097D01*
X-3204870Y1232306D01*
X-3194659Y1228090D01*
X-3183890Y1225499D01*
G37*
G36*
X-1597964Y1082090D02*
G01*
X-1589887Y1083259D01*
X-1582166Y1085900D01*
X-1575104Y1090015D01*
X-1568907Y1095349D01*
X-1563878Y1101750D01*
X-1560118Y1109014D01*
X-1557832Y1116838D01*
X-1557070Y1124966D01*
X-1557832Y1133144D01*
X-1560118Y1140968D01*
X-1563878Y1148232D01*
X-1568907Y1154633D01*
X-1575104Y1159967D01*
X-1582166Y1164082D01*
X-1589887Y1166723D01*
X-1597964Y1167892D01*
X-1606092Y1167485D01*
X-1614068Y1165555D01*
X-1621485Y1162202D01*
X-1628139Y1157427D01*
X-1629359Y1156157D01*
X-1632712Y1153820D01*
X-1636725Y1153007D01*
X-1784197Y1153007D01*
X-1788058Y1153769D01*
X-1791360Y1155954D01*
X-1854098Y1218692D01*
X-1856130Y1221536D01*
X-1857044Y1224940D01*
X-1857806Y1233119D01*
X-1860143Y1240942D01*
X-1863852Y1248206D01*
X-1868932Y1254607D01*
X-1875078Y1259992D01*
X-1882139Y1264056D01*
X-1889861Y1266748D01*
X-1897938Y1267917D01*
X-1906117Y1267510D01*
X-1914042Y1265580D01*
X-1921459Y1262176D01*
X-1928114Y1257452D01*
X-1933752Y1251559D01*
X-1938172Y1244650D01*
X-1941220Y1237081D01*
X-1942744Y1229055D01*
X-1942744Y1220927D01*
X-1941220Y1212900D01*
X-1938172Y1205331D01*
X-1933752Y1198422D01*
X-1928114Y1192530D01*
X-1921459Y1187805D01*
X-1914042Y1184402D01*
X-1906117Y1182471D01*
X-1900529Y1182217D01*
X-1896922Y1181354D01*
X-1893824Y1179271D01*
X-1820011Y1105408D01*
X-1814880Y1101293D01*
X-1809242Y1098600D01*
X-1803146Y1097178D01*
X-1799691Y1096975D01*
X-1636725Y1096975D01*
X-1632712Y1096162D01*
X-1629359Y1093825D01*
X-1628139Y1092555D01*
X-1621485Y1087780D01*
X-1614068Y1084427D01*
X-1606092Y1082497D01*
G37*
G36*
X2377033Y1007059D02*
G01*
X2385110Y1008227D01*
X2392832Y1010919D01*
X2399893Y1014984D01*
X2406091Y1020368D01*
X2411120Y1026769D01*
X2414879Y1034034D01*
X2417165Y1041857D01*
X2417927Y1049985D01*
X2417165Y1058113D01*
X2414879Y1065936D01*
X2411120Y1073200D01*
X2406091Y1079601D01*
X2399893Y1084986D01*
X2392832Y1089050D01*
X2385110Y1091742D01*
X2377033Y1092911D01*
X2368905Y1092504D01*
X2360930Y1090574D01*
X2353513Y1087170D01*
X2346858Y1082446D01*
X2341219Y1076553D01*
X2336850Y1069644D01*
X2333802Y1062075D01*
X2332228Y1054049D01*
X2332228Y1045921D01*
X2333802Y1037894D01*
X2336850Y1030325D01*
X2341219Y1023416D01*
X2346858Y1017524D01*
X2353513Y1012799D01*
X2360930Y1009396D01*
X2368905Y1007465D01*
G37*
G36*
X-2247950Y857046D02*
G01*
X-2239873Y858215D01*
X-2232152Y860856D01*
X-2225090Y864971D01*
X-2218893Y870305D01*
X-2213864Y876706D01*
X-2210104Y883970D01*
X-2207818Y891794D01*
X-2207056Y899921D01*
X-2207818Y908100D01*
X-2210104Y915924D01*
X-2213864Y923188D01*
X-2218893Y929589D01*
X-2225090Y934923D01*
X-2232152Y939037D01*
X-2239873Y941679D01*
X-2247950Y942848D01*
X-2256078Y942441D01*
X-2264054Y940511D01*
X-2271471Y937158D01*
X-2278126Y932383D01*
X-2283764Y926490D01*
X-2288133Y919632D01*
X-2291181Y912063D01*
X-2292756Y904036D01*
X-2292756Y895858D01*
X-2291181Y887831D01*
X-2288133Y880262D01*
X-2283764Y873404D01*
X-2278126Y867511D01*
X-2271471Y862736D01*
X-2264054Y859383D01*
X-2256078Y857453D01*
G37*
G36*
X-1595374Y619556D02*
G01*
X-1576832Y621030D01*
X-1558544Y624332D01*
X-1540713Y629513D01*
X-1523492Y636524D01*
X-1507083Y645261D01*
X-1491691Y655624D01*
X-1477416Y667562D01*
X-1464411Y680872D01*
X-1452880Y695401D01*
X-1442923Y711098D01*
X-1434592Y727710D01*
X-1428038Y745134D01*
X-1423314Y763066D01*
X-1420469Y781456D01*
X-1419504Y799998D01*
X-1420469Y818540D01*
X-1423314Y836930D01*
X-1428038Y854862D01*
X-1434592Y872286D01*
X-1442923Y888898D01*
X-1452880Y904595D01*
X-1464411Y919124D01*
X-1477416Y932434D01*
X-1491691Y944371D01*
X-1507083Y954735D01*
X-1523492Y963472D01*
X-1540713Y970483D01*
X-1558544Y975664D01*
X-1576832Y978966D01*
X-1595374Y980440D01*
X-1613916Y979932D01*
X-1632356Y977544D01*
X-1650441Y973277D01*
X-1667967Y967181D01*
X-1684832Y959307D01*
X-1700733Y949756D01*
X-1715617Y938580D01*
X-1729232Y925982D01*
X-1741525Y912012D01*
X-1752295Y896874D01*
X-1761439Y880668D01*
X-1768856Y863650D01*
X-1774545Y845972D01*
X-1778355Y827786D01*
X-1780235Y809294D01*
X-1780235Y790702D01*
X-1778355Y772210D01*
X-1774545Y754024D01*
X-1768856Y736346D01*
X-1761439Y719328D01*
X-1752295Y703122D01*
X-1741525Y687984D01*
X-1729232Y674014D01*
X-1715617Y661416D01*
X-1700733Y650240D01*
X-1684832Y640689D01*
X-1667967Y632815D01*
X-1650441Y626719D01*
X-1632356Y622452D01*
X-1613916Y620064D01*
G37*
G36*
X1604619Y619556D02*
G01*
X1623161Y621030D01*
X1641449Y624332D01*
X1659280Y629513D01*
X1676501Y636524D01*
X1692910Y645261D01*
X1708302Y655624D01*
X1722577Y667562D01*
X1735582Y680872D01*
X1747113Y695401D01*
X1757070Y711098D01*
X1765401Y727710D01*
X1771954Y745134D01*
X1776679Y763066D01*
X1779524Y781456D01*
X1780489Y799998D01*
X1779524Y818540D01*
X1776679Y836930D01*
X1771954Y854862D01*
X1765401Y872286D01*
X1757070Y888898D01*
X1747113Y904595D01*
X1735582Y919124D01*
X1722577Y932434D01*
X1708302Y944371D01*
X1692910Y954735D01*
X1676501Y963472D01*
X1659280Y970483D01*
X1641449Y975664D01*
X1623161Y978966D01*
X1604619Y980440D01*
X1586077Y979932D01*
X1567637Y977544D01*
X1549552Y973277D01*
X1532026Y967181D01*
X1515160Y959307D01*
X1499260Y949756D01*
X1484376Y938580D01*
X1470761Y925982D01*
X1458468Y912012D01*
X1447698Y896874D01*
X1438554Y880668D01*
X1431137Y863650D01*
X1425448Y845972D01*
X1421638Y827786D01*
X1419758Y809294D01*
X1419758Y790702D01*
X1421638Y772210D01*
X1425448Y754024D01*
X1431137Y736346D01*
X1438554Y719328D01*
X1447698Y703122D01*
X1458468Y687984D01*
X1470761Y674014D01*
X1484376Y661416D01*
X1499260Y650240D01*
X1515160Y640689D01*
X1532026Y632815D01*
X1549552Y626719D01*
X1567637Y622452D01*
X1586077Y620064D01*
G37*
G36*
X252069Y607060D02*
G01*
X260146Y608228D01*
X267868Y610920D01*
X274929Y614984D01*
X281076Y620369D01*
X286156Y626770D01*
X292252Y639013D01*
X295503Y641604D01*
X299516Y642620D01*
X303631Y641959D01*
X307136Y639724D01*
X309473Y636270D01*
X311861Y630326D01*
X316230Y623417D01*
X321868Y617524D01*
X328523Y612800D01*
X335940Y609396D01*
X343916Y607466D01*
X352044Y607060D01*
X360121Y608228D01*
X367842Y610920D01*
X374904Y614984D01*
X381101Y620369D01*
X386130Y626770D01*
X389890Y634034D01*
X392176Y641858D01*
X392938Y649986D01*
X392176Y658114D01*
X389890Y665937D01*
X386130Y673201D01*
X381101Y679602D01*
X374904Y684987D01*
X367842Y689051D01*
X364032Y690372D01*
X360426Y692505D01*
X358038Y695909D01*
X357174Y699973D01*
X358038Y704037D01*
X360426Y707440D01*
X364032Y709574D01*
X367842Y710895D01*
X374904Y715010D01*
X381101Y720344D01*
X386130Y726744D01*
X389890Y734009D01*
X392176Y741832D01*
X392938Y749960D01*
X392176Y758139D01*
X389890Y765962D01*
X386130Y773226D01*
X381101Y779627D01*
X374904Y784961D01*
X367842Y789076D01*
X364032Y790397D01*
X360426Y792530D01*
X358038Y795934D01*
X357174Y799998D01*
X358038Y804062D01*
X360426Y807466D01*
X364032Y809599D01*
X367842Y810920D01*
X374904Y814984D01*
X381101Y820369D01*
X386130Y826769D01*
X389890Y834034D01*
X392226Y839012D01*
X395528Y841603D01*
X399542Y842619D01*
X403656Y841959D01*
X407162Y839724D01*
X409448Y836269D01*
X411835Y830326D01*
X416255Y823417D01*
X421893Y817524D01*
X428548Y812800D01*
X435965Y809396D01*
X443890Y807466D01*
X452069Y807059D01*
X460146Y808228D01*
X467868Y810920D01*
X474929Y814984D01*
X481076Y820369D01*
X486156Y826769D01*
X489864Y834034D01*
X492201Y841857D01*
X492963Y850036D01*
X493877Y853440D01*
X495909Y856284D01*
X983640Y1344015D01*
X986942Y1346200D01*
X990803Y1347012D01*
X1050798Y1347012D01*
X1054760Y1346200D01*
X1058113Y1343863D01*
X1059383Y1342542D01*
X1066038Y1337818D01*
X1073454Y1334414D01*
X1081379Y1332484D01*
X1089558Y1332077D01*
X1097635Y1333246D01*
X1105357Y1335938D01*
X1112418Y1340002D01*
X1118565Y1345387D01*
X1123645Y1351788D01*
X1127353Y1359052D01*
X1129690Y1366875D01*
X1130452Y1375003D01*
X1129690Y1383131D01*
X1127353Y1390954D01*
X1123645Y1398219D01*
X1118565Y1404620D01*
X1112418Y1410004D01*
X1105357Y1414068D01*
X1097635Y1416761D01*
X1089558Y1417929D01*
X1081379Y1417523D01*
X1073454Y1415592D01*
X1066038Y1412189D01*
X1059383Y1407464D01*
X1058113Y1406144D01*
X1054760Y1403807D01*
X1050747Y1402994D01*
X975309Y1402994D01*
X968806Y1402283D01*
X962863Y1400200D01*
X957580Y1396898D01*
X955040Y1394612D01*
X456184Y895705D01*
X453085Y893622D01*
X449478Y892759D01*
X443890Y892505D01*
X435965Y890574D01*
X428548Y887171D01*
X421893Y882446D01*
X416255Y876553D01*
X411835Y869645D01*
X409448Y863701D01*
X407162Y860247D01*
X403656Y858012D01*
X399542Y857351D01*
X395528Y858367D01*
X392226Y860958D01*
X389890Y865936D01*
X386130Y873201D01*
X381101Y879602D01*
X374904Y884986D01*
X367842Y889050D01*
X360121Y891743D01*
X352044Y892911D01*
X343916Y892505D01*
X335940Y890574D01*
X328523Y887171D01*
X321868Y882446D01*
X316230Y876553D01*
X311861Y869645D01*
X308813Y862076D01*
X307238Y854049D01*
X307238Y845921D01*
X308813Y837895D01*
X311861Y830326D01*
X316230Y823417D01*
X321868Y817524D01*
X328523Y812800D01*
X336346Y809244D01*
X339445Y807008D01*
X341528Y803757D01*
X342290Y799998D01*
X341528Y796188D01*
X339445Y792988D01*
X336346Y790752D01*
X328523Y787196D01*
X321868Y782421D01*
X316230Y776528D01*
X311861Y769670D01*
X309473Y763727D01*
X307136Y760272D01*
X303631Y757986D01*
X299516Y757326D01*
X295503Y758393D01*
X292252Y760984D01*
X286156Y773176D01*
X280162Y780643D01*
X278485Y783640D01*
X277926Y786993D01*
X277926Y921715D01*
X278688Y925576D01*
X280924Y928878D01*
X1081176Y1729181D01*
X1084732Y1731467D01*
X1097635Y1733245D01*
X1105357Y1735937D01*
X1112418Y1740001D01*
X1118565Y1745386D01*
X1123645Y1751787D01*
X1127353Y1759051D01*
X1129690Y1766874D01*
X1130452Y1775002D01*
X1129690Y1783130D01*
X1127353Y1790954D01*
X1123645Y1798218D01*
X1118565Y1804619D01*
X1112418Y1810004D01*
X1105357Y1814068D01*
X1097635Y1816760D01*
X1089558Y1817928D01*
X1081379Y1817522D01*
X1073454Y1815592D01*
X1066038Y1812188D01*
X1059383Y1807464D01*
X1053744Y1801571D01*
X1049324Y1794662D01*
X1046276Y1787093D01*
X1044752Y1779066D01*
X1044752Y1776120D01*
X1043990Y1772259D01*
X1041755Y1768957D01*
X230327Y957529D01*
X226263Y952398D01*
X223520Y946759D01*
X222148Y940663D01*
X221945Y937209D01*
X221945Y786587D01*
X221234Y782777D01*
X219151Y779576D01*
X216255Y776528D01*
X211836Y769670D01*
X208788Y762101D01*
X207264Y754075D01*
X207264Y745896D01*
X208788Y737870D01*
X211836Y730300D01*
X216255Y723442D01*
X221894Y717550D01*
X228549Y712774D01*
X236321Y709218D01*
X239471Y706983D01*
X241554Y703783D01*
X242265Y699973D01*
X241554Y696214D01*
X239471Y692962D01*
X236321Y690727D01*
X228549Y687171D01*
X221894Y682447D01*
X216255Y676554D01*
X211836Y669645D01*
X208788Y662076D01*
X207264Y654050D01*
X207264Y645922D01*
X208788Y637895D01*
X211836Y630326D01*
X216255Y623417D01*
X221894Y617524D01*
X228549Y612800D01*
X235966Y609396D01*
X243890Y607466D01*
G37*
G36*
X-3172612Y424637D02*
G01*
X-3161639Y425500D01*
X-3150870Y428091D01*
X-3140659Y432308D01*
X-3131210Y438099D01*
X-3122828Y445262D01*
X-3115614Y453694D01*
X-3109874Y463092D01*
X-3105607Y473303D01*
X-3103016Y484073D01*
X-3102152Y495096D01*
X-3103016Y506120D01*
X-3105607Y516890D01*
X-3109874Y527100D01*
X-3115614Y536498D01*
X-3122828Y544931D01*
X-3131210Y552094D01*
X-3140659Y557885D01*
X-3150870Y562102D01*
X-3161639Y564692D01*
X-3172612Y565556D01*
X-3183636Y564692D01*
X-3194405Y562102D01*
X-3204616Y557885D01*
X-3214065Y552094D01*
X-3222447Y544931D01*
X-3229660Y536498D01*
X-3235401Y527100D01*
X-3239668Y516890D01*
X-3242259Y506120D01*
X-3243122Y495096D01*
X-3242259Y484073D01*
X-3239668Y473303D01*
X-3235401Y463092D01*
X-3229660Y453694D01*
X-3222447Y445262D01*
X-3214065Y438099D01*
X-3204616Y432308D01*
X-3194405Y428091D01*
X-3183636Y425500D01*
G37*
G36*
X2377033Y407060D02*
G01*
X2385110Y408228D01*
X2392832Y410921D01*
X2399893Y414985D01*
X2406091Y420370D01*
X2411120Y426770D01*
X2414879Y434035D01*
X2417165Y441858D01*
X2417927Y449986D01*
X2417165Y458114D01*
X2414879Y465937D01*
X2410815Y473760D01*
X2409748Y477875D01*
X2410358Y482041D01*
X2412695Y485597D01*
X2442514Y515416D01*
X2445816Y517651D01*
X2449728Y518414D01*
X2453640Y517601D01*
X2456942Y515366D01*
X2459126Y512013D01*
X2461818Y505307D01*
X2466238Y498449D01*
X2471877Y492556D01*
X2478532Y487781D01*
X2485948Y484428D01*
X2493873Y482498D01*
X2502052Y482092D01*
X2510129Y483260D01*
X2517851Y485901D01*
X2524912Y490016D01*
X2531059Y495350D01*
X2536139Y501751D01*
X2539847Y509016D01*
X2542184Y516839D01*
X2542946Y524967D01*
X2542184Y533146D01*
X2539847Y540969D01*
X2536139Y548233D01*
X2531059Y554634D01*
X2524912Y559968D01*
X2517851Y564083D01*
X2513330Y565607D01*
X2509824Y567690D01*
X2507437Y570992D01*
X2506522Y574954D01*
X2507234Y579018D01*
X2509469Y582422D01*
X2982315Y1055268D01*
X2985160Y1057249D01*
X2988462Y1058214D01*
X2993898Y1057503D01*
X3002026Y1057097D01*
X3010103Y1058265D01*
X3017824Y1060907D01*
X3024886Y1065022D01*
X3031083Y1070356D01*
X3036112Y1076756D01*
X3039872Y1084021D01*
X3042158Y1091844D01*
X3042920Y1099972D01*
X3042158Y1108151D01*
X3039872Y1115974D01*
X3036112Y1123238D01*
X3031083Y1129639D01*
X3024886Y1134973D01*
X3017824Y1139088D01*
X3010103Y1141730D01*
X3002026Y1142898D01*
X2993898Y1142492D01*
X2985922Y1140561D01*
X2978505Y1137208D01*
X2971850Y1132433D01*
X2966212Y1126540D01*
X2961843Y1119682D01*
X2958744Y1112062D01*
X2956509Y1108659D01*
X2548636Y700735D01*
X2545130Y698449D01*
X2541016Y697788D01*
X2537002Y698804D01*
X2533700Y701344D01*
X2529789Y705916D01*
X2527858Y709371D01*
X2527401Y713282D01*
X2528468Y717042D01*
X2536139Y726744D01*
X2539847Y734009D01*
X2542184Y741832D01*
X2542946Y749960D01*
X2542184Y758139D01*
X2539847Y765962D01*
X2536139Y773226D01*
X2528265Y783285D01*
X2527350Y787501D01*
X2528265Y791718D01*
X2536139Y801776D01*
X2539847Y809040D01*
X2542184Y816864D01*
X2542946Y824992D01*
X2542184Y833119D01*
X2539847Y840943D01*
X2536139Y848207D01*
X2531059Y854608D01*
X2524912Y859993D01*
X2517851Y864057D01*
X2510129Y866749D01*
X2502052Y867918D01*
X2493873Y867511D01*
X2485948Y865581D01*
X2478532Y862177D01*
X2471877Y857453D01*
X2466238Y851560D01*
X2461818Y844651D01*
X2458770Y837082D01*
X2457246Y829056D01*
X2457246Y820928D01*
X2458770Y812901D01*
X2461818Y805332D01*
X2466238Y798423D01*
X2469997Y794512D01*
X2472080Y791260D01*
X2472791Y787501D01*
X2472080Y783691D01*
X2469997Y780491D01*
X2466238Y776528D01*
X2461818Y769670D01*
X2458770Y762101D01*
X2457246Y754075D01*
X2457246Y745896D01*
X2458770Y737870D01*
X2461818Y730300D01*
X2466238Y723442D01*
X2469997Y719531D01*
X2472080Y716280D01*
X2472791Y712470D01*
X2472080Y708710D01*
X2469997Y705459D01*
X2466238Y701548D01*
X2461818Y694690D01*
X2458770Y687120D01*
X2457246Y679094D01*
X2457246Y670915D01*
X2458770Y662889D01*
X2461818Y655320D01*
X2466238Y648462D01*
X2475839Y638556D01*
X2477160Y634339D01*
X2476550Y630021D01*
X2474214Y626313D01*
X2457399Y609549D01*
X2453944Y607263D01*
X2449779Y606552D01*
X2445766Y607618D01*
X2442464Y610158D01*
X2440482Y613867D01*
X2439873Y615950D01*
X2436114Y623214D01*
X2431084Y629615D01*
X2424887Y635000D01*
X2417826Y639064D01*
X2410104Y641756D01*
X2402027Y642924D01*
X2393899Y642518D01*
X2385923Y640588D01*
X2378506Y637184D01*
X2371852Y632460D01*
X2366213Y626567D01*
X2361793Y619658D01*
X2358796Y612089D01*
X2357221Y604062D01*
X2357221Y595934D01*
X2358796Y587908D01*
X2361793Y580339D01*
X2366213Y573430D01*
X2371852Y567537D01*
X2378456Y562813D01*
X2387295Y558901D01*
X2390495Y556666D01*
X2392578Y553364D01*
X2393289Y549554D01*
X2392527Y545693D01*
X2390343Y542442D01*
X2355291Y507441D01*
X2351227Y502310D01*
X2348484Y496671D01*
X2347112Y490626D01*
X2346909Y486054D01*
X2346096Y482549D01*
X2344115Y479551D01*
X2341219Y476554D01*
X2336850Y469646D01*
X2333802Y462076D01*
X2332228Y454050D01*
X2332228Y445922D01*
X2333802Y437896D01*
X2336850Y430326D01*
X2341219Y423418D01*
X2346858Y417525D01*
X2353513Y412800D01*
X2360930Y409397D01*
X2368905Y407466D01*
G37*
G36*
X2127046Y407060D02*
G01*
X2135124Y408228D01*
X2142845Y410921D01*
X2149906Y414985D01*
X2156053Y420370D01*
X2161133Y426770D01*
X2164842Y434035D01*
X2167178Y441858D01*
X2167940Y449986D01*
X2167178Y458114D01*
X2164842Y465937D01*
X2161133Y473201D01*
X2156053Y479602D01*
X2149906Y484987D01*
X2142845Y489051D01*
X2135124Y491743D01*
X2127046Y492912D01*
X2118868Y492506D01*
X2110943Y490575D01*
X2103526Y487172D01*
X2096871Y482447D01*
X2091232Y476554D01*
X2086813Y469646D01*
X2083765Y462076D01*
X2082241Y454050D01*
X2082241Y445922D01*
X2083765Y437896D01*
X2086813Y430326D01*
X2091232Y423418D01*
X2096871Y417525D01*
X2103526Y412800D01*
X2110943Y409397D01*
X2118868Y407466D01*
G37*
G36*
X2377033Y257098D02*
G01*
X2385110Y258267D01*
X2392832Y260908D01*
X2399893Y265023D01*
X2405126Y269494D01*
X2408224Y271373D01*
X2411780Y271983D01*
X2607614Y271983D01*
X2614117Y272694D01*
X2620060Y274777D01*
X2625344Y278130D01*
X2627934Y280416D01*
X3001670Y654151D01*
X3005175Y656437D01*
X3018028Y658266D01*
X3025749Y660908D01*
X3032810Y665022D01*
X3039008Y670356D01*
X3044037Y676757D01*
X3047796Y684022D01*
X3050082Y691845D01*
X3050844Y699973D01*
X3050082Y708152D01*
X3047796Y715975D01*
X3044037Y723239D01*
X3039008Y729640D01*
X3032810Y734974D01*
X3025749Y739089D01*
X3018028Y741730D01*
X3009950Y742899D01*
X3001822Y742492D01*
X2993847Y740562D01*
X2986430Y737209D01*
X2981147Y733399D01*
X2977642Y731824D01*
X2973781Y731621D01*
X2970174Y732891D01*
X2967228Y735431D01*
X2965500Y738835D01*
X2964840Y740968D01*
X2961132Y748233D01*
X2953258Y758291D01*
X2952343Y762508D01*
X2953258Y766724D01*
X2961132Y776782D01*
X2964840Y784047D01*
X2967177Y791870D01*
X2967939Y799998D01*
X2967177Y808126D01*
X2964840Y815949D01*
X2961132Y823214D01*
X2953258Y833272D01*
X2952343Y837488D01*
X2953258Y841705D01*
X2961132Y851763D01*
X2964840Y859028D01*
X2967177Y866851D01*
X2967939Y874979D01*
X2967177Y883158D01*
X2964840Y890981D01*
X2961132Y898245D01*
X2956052Y904646D01*
X2949905Y909980D01*
X2942844Y914095D01*
X2935122Y916736D01*
X2927045Y917905D01*
X2918866Y917498D01*
X2910941Y915568D01*
X2903524Y912215D01*
X2896870Y907440D01*
X2891231Y901547D01*
X2886811Y894689D01*
X2883763Y887120D01*
X2882239Y879094D01*
X2882239Y870915D01*
X2883763Y862888D01*
X2886811Y855319D01*
X2891231Y848461D01*
X2894990Y844499D01*
X2897073Y841298D01*
X2897784Y837488D01*
X2897073Y833729D01*
X2894990Y830478D01*
X2891231Y826566D01*
X2886811Y819658D01*
X2883763Y812088D01*
X2882239Y804062D01*
X2882239Y795934D01*
X2883763Y787908D01*
X2886811Y780338D01*
X2891231Y773430D01*
X2894990Y769518D01*
X2897073Y766267D01*
X2897784Y762508D01*
X2897073Y758698D01*
X2894990Y755497D01*
X2891231Y751535D01*
X2886811Y744677D01*
X2883763Y737108D01*
X2882239Y729081D01*
X2882239Y720902D01*
X2883763Y712876D01*
X2886811Y705307D01*
X2891231Y698449D01*
X2896870Y692556D01*
X2903524Y687781D01*
X2910941Y684428D01*
X2918866Y682498D01*
X2926384Y682142D01*
X2930194Y681177D01*
X2933344Y678942D01*
X2935376Y675640D01*
X2936087Y671830D01*
X2935274Y668020D01*
X2933090Y664768D01*
X2599283Y330962D01*
X2595981Y328777D01*
X2592120Y328015D01*
X2411780Y328015D01*
X2408224Y328625D01*
X2405126Y330454D01*
X2399893Y334975D01*
X2392832Y339090D01*
X2385110Y341731D01*
X2377033Y342900D01*
X2368905Y342493D01*
X2360930Y340563D01*
X2353513Y337210D01*
X2346858Y332435D01*
X2341219Y326542D01*
X2336850Y319684D01*
X2333802Y312115D01*
X2332228Y304088D01*
X2332228Y295910D01*
X2333802Y287883D01*
X2336850Y280314D01*
X2341219Y273456D01*
X2346858Y267563D01*
X2353513Y262788D01*
X2360930Y259435D01*
X2368905Y257505D01*
G37*
G36*
X2127046Y257098D02*
G01*
X2135124Y258267D01*
X2142845Y260908D01*
X2149906Y265023D01*
X2156053Y270357D01*
X2161133Y276758D01*
X2164842Y284022D01*
X2167178Y291846D01*
X2167940Y299974D01*
X2167178Y308152D01*
X2164842Y315976D01*
X2161133Y323240D01*
X2156053Y329641D01*
X2149906Y334975D01*
X2142845Y339090D01*
X2135124Y341731D01*
X2127046Y342900D01*
X2118868Y342493D01*
X2110943Y340563D01*
X2103526Y337210D01*
X2096871Y332435D01*
X2091232Y326542D01*
X2086813Y319684D01*
X2083765Y312115D01*
X2082241Y304088D01*
X2082241Y295910D01*
X2083765Y287883D01*
X2086813Y280314D01*
X2091232Y273456D01*
X2096871Y267563D01*
X2103526Y262788D01*
X2110943Y259435D01*
X2118868Y257505D01*
G37*
G36*
X852068Y107086D02*
G01*
X858012Y107848D01*
X876300Y107848D01*
X881430Y108407D01*
X885748Y109931D01*
X889609Y112369D01*
X892860Y115570D01*
X895299Y119481D01*
X896823Y123799D01*
X897382Y128879D01*
X897382Y184353D01*
X896823Y189433D01*
X895299Y193751D01*
X892860Y197662D01*
X889609Y200863D01*
X885748Y203301D01*
X881430Y204825D01*
X876300Y205384D01*
X823468Y205384D01*
X818337Y204825D01*
X814019Y203301D01*
X810158Y200863D01*
X806907Y197662D01*
X804468Y193751D01*
X802944Y189433D01*
X802386Y184353D01*
X802386Y128879D01*
X802944Y123799D01*
X804468Y119481D01*
X806907Y115570D01*
X810158Y112369D01*
X814019Y109931D01*
X818337Y108407D01*
X823468Y107848D01*
X841197Y107848D01*
X843889Y107492D01*
G37*
G36*
X2527046Y19608D02*
G01*
X2535123Y20777D01*
X2542844Y23418D01*
X2549906Y27533D01*
X2556052Y32867D01*
X2561132Y39268D01*
X2564841Y46532D01*
X2567178Y54356D01*
X2567940Y62484D01*
X2567178Y70662D01*
X2564841Y78486D01*
X2561132Y85750D01*
X2553309Y95758D01*
X2552344Y99974D01*
X2553309Y104241D01*
X2561132Y114249D01*
X2564841Y121513D01*
X2567178Y129336D01*
X2567940Y137464D01*
X2567178Y145643D01*
X2564841Y153466D01*
X2561132Y160731D01*
X2556052Y167132D01*
X2549906Y172466D01*
X2542844Y176580D01*
X2535123Y179222D01*
X2527046Y180390D01*
X2518867Y179984D01*
X2510942Y178054D01*
X2503525Y174701D01*
X2496870Y169926D01*
X2491232Y164033D01*
X2486812Y157175D01*
X2483764Y149606D01*
X2482240Y141579D01*
X2482240Y133400D01*
X2483764Y125374D01*
X2486812Y117805D01*
X2491232Y110947D01*
X2494991Y107035D01*
X2497074Y103784D01*
X2497785Y99974D01*
X2497074Y96215D01*
X2494991Y92964D01*
X2491232Y89052D01*
X2486812Y82194D01*
X2483764Y74625D01*
X2482240Y66598D01*
X2482240Y58419D01*
X2483764Y50393D01*
X2486812Y42824D01*
X2491232Y35966D01*
X2496870Y30073D01*
X2503525Y25298D01*
X2510942Y21945D01*
X2518867Y20015D01*
G37*
G36*
X-176530Y-5486D02*
G01*
X-123698Y-5486D01*
X-118567Y-4927D01*
X-114249Y-3403D01*
X-110388Y-965D01*
X-107137Y2235D01*
X-104698Y6146D01*
X-103174Y10464D01*
X-102616Y15544D01*
X-102616Y18186D01*
X-101701Y22402D01*
X-99110Y25857D01*
X-95300Y27940D01*
X-91033Y28244D01*
X-86969Y26720D01*
X-78130Y17526D01*
X-71475Y12801D01*
X-64058Y9398D01*
X-56083Y7467D01*
X-47955Y7061D01*
X-39878Y8229D01*
X-32156Y10922D01*
X-25095Y14985D01*
X-18897Y20370D01*
X-15595Y24536D01*
X-12395Y27228D01*
X-8432Y28397D01*
X-4318Y27838D01*
X-711Y25704D01*
X1676Y22352D01*
X2540Y18237D01*
X2540Y15544D01*
X3098Y10464D01*
X4622Y6146D01*
X7061Y2235D01*
X10312Y-965D01*
X14173Y-3403D01*
X18491Y-4927D01*
X23622Y-5486D01*
X76454Y-5486D01*
X81584Y-4927D01*
X85902Y-3403D01*
X89763Y-965D01*
X93014Y2235D01*
X95453Y6146D01*
X96977Y10464D01*
X97536Y15544D01*
X97536Y17932D01*
X98450Y22199D01*
X101041Y25654D01*
X104851Y27686D01*
X109118Y27990D01*
X113182Y26517D01*
X121869Y17526D01*
X128524Y12801D01*
X135940Y9398D01*
X143916Y7467D01*
X152044Y7061D01*
X160121Y8229D01*
X167843Y10922D01*
X174904Y14985D01*
X181102Y20370D01*
X184302Y24384D01*
X187502Y27076D01*
X191465Y28244D01*
X195580Y27736D01*
X199186Y25603D01*
X201574Y22199D01*
X202438Y18135D01*
X202438Y15544D01*
X202996Y10464D01*
X204520Y6146D01*
X206959Y2235D01*
X210210Y-965D01*
X214071Y-3403D01*
X218389Y-4927D01*
X223520Y-5486D01*
X276352Y-5486D01*
X281482Y-4927D01*
X285800Y-3403D01*
X289661Y-965D01*
X292912Y2235D01*
X295351Y6146D01*
X296875Y10464D01*
X297434Y15544D01*
X297434Y71018D01*
X296875Y76098D01*
X295351Y80416D01*
X292912Y84328D01*
X289661Y87528D01*
X285800Y89966D01*
X281482Y91490D01*
X276352Y92049D01*
X273100Y92049D01*
X268833Y93014D01*
X265328Y95707D01*
X263296Y99568D01*
X263093Y103987D01*
X264769Y108051D01*
X268020Y110998D01*
X274929Y115011D01*
X281076Y120345D01*
X286156Y126746D01*
X289864Y134010D01*
X292201Y141833D01*
X292963Y149961D01*
X292201Y158140D01*
X289864Y165963D01*
X286156Y173228D01*
X281076Y179628D01*
X274929Y184962D01*
X267868Y189077D01*
X260146Y191719D01*
X252069Y192887D01*
X243890Y192481D01*
X235966Y190550D01*
X228549Y187198D01*
X221894Y182422D01*
X216255Y176530D01*
X211836Y169672D01*
X209448Y163728D01*
X207162Y160274D01*
X203657Y157988D01*
X199542Y157327D01*
X195529Y158394D01*
X192227Y160985D01*
X189890Y165963D01*
X186131Y173228D01*
X181102Y179628D01*
X174904Y184962D01*
X167843Y189077D01*
X160121Y191719D01*
X152044Y192887D01*
X143916Y192481D01*
X135940Y190550D01*
X128524Y187198D01*
X121869Y182422D01*
X116230Y176530D01*
X111861Y169672D01*
X109474Y163728D01*
X107137Y160274D01*
X103632Y157988D01*
X99517Y157327D01*
X95504Y158394D01*
X92252Y160985D01*
X86156Y173228D01*
X81076Y179628D01*
X74930Y184962D01*
X67868Y189077D01*
X60147Y191719D01*
X52069Y192887D01*
X43891Y192481D01*
X35966Y190550D01*
X28549Y187198D01*
X21894Y182422D01*
X16256Y176530D01*
X11836Y169672D01*
X9448Y163728D01*
X7162Y160274D01*
X3657Y157988D01*
X-457Y157327D01*
X-4470Y158394D01*
X-7772Y160985D01*
X-10109Y165963D01*
X-13868Y173228D01*
X-18897Y179628D01*
X-25095Y184962D01*
X-32156Y189077D01*
X-39878Y191719D01*
X-47955Y192887D01*
X-56083Y192481D01*
X-64058Y190550D01*
X-71475Y187198D01*
X-78130Y182422D01*
X-83769Y176530D01*
X-88138Y169672D01*
X-90525Y163728D01*
X-92862Y160274D01*
X-96367Y157988D01*
X-100482Y157327D01*
X-104495Y158394D01*
X-107746Y160985D01*
X-113842Y173228D01*
X-118922Y179628D01*
X-125069Y184962D01*
X-132130Y189077D01*
X-139852Y191719D01*
X-147929Y192887D01*
X-156108Y192481D01*
X-164033Y190550D01*
X-171450Y187198D01*
X-178104Y182422D01*
X-183743Y176530D01*
X-188163Y169672D01*
X-190550Y163728D01*
X-192836Y160274D01*
X-196342Y157988D01*
X-200456Y157327D01*
X-204470Y158394D01*
X-207771Y160985D01*
X-210108Y165963D01*
X-213867Y173228D01*
X-218897Y179628D01*
X-225094Y184962D01*
X-232156Y189077D01*
X-239877Y191719D01*
X-247954Y192887D01*
X-256082Y192481D01*
X-264058Y190550D01*
X-271475Y187198D01*
X-278130Y182422D01*
X-283768Y176530D01*
X-288137Y169672D01*
X-291185Y162102D01*
X-292760Y154076D01*
X-292760Y145897D01*
X-291185Y137871D01*
X-288137Y130302D01*
X-283768Y123444D01*
X-278130Y117551D01*
X-271475Y112776D01*
X-263652Y109220D01*
X-260553Y106984D01*
X-258470Y103784D01*
X-257708Y99974D01*
X-258470Y96215D01*
X-260553Y92964D01*
X-263652Y90728D01*
X-271475Y87172D01*
X-278130Y82448D01*
X-283768Y76555D01*
X-288137Y69646D01*
X-291185Y62077D01*
X-292760Y54051D01*
X-292760Y45923D01*
X-291185Y37896D01*
X-288137Y30327D01*
X-283768Y23418D01*
X-278130Y17526D01*
X-271475Y12801D01*
X-264058Y9398D01*
X-256082Y7467D01*
X-247954Y7061D01*
X-239877Y8229D01*
X-232156Y10922D01*
X-225094Y14985D01*
X-218897Y20370D01*
X-215747Y24333D01*
X-212547Y27025D01*
X-208584Y28194D01*
X-204470Y27686D01*
X-200863Y25552D01*
X-198475Y22148D01*
X-197612Y18084D01*
X-197612Y15544D01*
X-197053Y10464D01*
X-195529Y6146D01*
X-193090Y2235D01*
X-189839Y-965D01*
X-185978Y-3403D01*
X-181660Y-4927D01*
G37*
G36*
X852068Y-92913D02*
G01*
X860145Y-91744D01*
X867867Y-89103D01*
X874928Y-84988D01*
X881075Y-79654D01*
X886155Y-73253D01*
X889863Y-65989D01*
X892200Y-58166D01*
X892962Y-50038D01*
X892200Y-41859D01*
X889863Y-34036D01*
X886155Y-26771D01*
X881075Y-20370D01*
X874928Y-15036D01*
X867867Y-10922D01*
X860145Y-8280D01*
X852068Y-7112D01*
X843889Y-7518D01*
X835964Y-9448D01*
X828548Y-12801D01*
X821893Y-17576D01*
X816254Y-23469D01*
X811834Y-30327D01*
X808786Y-37896D01*
X807262Y-45923D01*
X807262Y-54102D01*
X808786Y-62128D01*
X811834Y-69697D01*
X816254Y-76555D01*
X821893Y-82448D01*
X828548Y-87223D01*
X835964Y-90576D01*
X843889Y-92506D01*
G37*
G36*
X2527046Y-230428D02*
G01*
X2535123Y-229260D01*
X2542844Y-226567D01*
X2549906Y-222504D01*
X2556052Y-217119D01*
X2561132Y-210718D01*
X2564841Y-203454D01*
X2567178Y-195630D01*
X2567940Y-187502D01*
X2567178Y-179374D01*
X2564841Y-171551D01*
X2561132Y-164287D01*
X2553309Y-154228D01*
X2552344Y-150012D01*
X2553309Y-145796D01*
X2561132Y-135737D01*
X2564841Y-128473D01*
X2567178Y-120650D01*
X2567940Y-112522D01*
X2567178Y-104394D01*
X2564841Y-96570D01*
X2561132Y-89306D01*
X2556052Y-82905D01*
X2549906Y-77520D01*
X2542844Y-73456D01*
X2535123Y-70764D01*
X2527046Y-69596D01*
X2518867Y-70002D01*
X2510942Y-71932D01*
X2503525Y-75336D01*
X2496870Y-80060D01*
X2491232Y-85953D01*
X2486812Y-92862D01*
X2483764Y-100431D01*
X2482240Y-108458D01*
X2482240Y-116585D01*
X2483764Y-124612D01*
X2486812Y-132181D01*
X2491232Y-139090D01*
X2494991Y-143002D01*
X2497074Y-146253D01*
X2497785Y-150012D01*
X2497074Y-153771D01*
X2494991Y-157022D01*
X2491232Y-160934D01*
X2486812Y-167843D01*
X2483764Y-175412D01*
X2482240Y-183438D01*
X2482240Y-191566D01*
X2483764Y-199593D01*
X2486812Y-207162D01*
X2491232Y-214071D01*
X2496870Y-219964D01*
X2503525Y-224688D01*
X2510942Y-228092D01*
X2518867Y-230022D01*
G37*
G36*
X152044Y-292912D02*
G01*
X160121Y-291744D01*
X167843Y-289102D01*
X174904Y-284988D01*
X181102Y-279654D01*
X186131Y-273253D01*
X189890Y-265988D01*
X192227Y-261010D01*
X195529Y-258419D01*
X199542Y-257352D01*
X203657Y-258013D01*
X207162Y-260299D01*
X209448Y-263753D01*
X211836Y-269697D01*
X216255Y-276555D01*
X221894Y-282448D01*
X228549Y-287223D01*
X235966Y-290576D01*
X243890Y-292506D01*
X252069Y-292912D01*
X260146Y-291744D01*
X267868Y-289102D01*
X274929Y-284988D01*
X281076Y-279654D01*
X286156Y-273253D01*
X289864Y-265988D01*
X292201Y-258165D01*
X292963Y-250037D01*
X292201Y-241858D01*
X289864Y-234035D01*
X286156Y-226771D01*
X281076Y-220370D01*
X274929Y-215036D01*
X267868Y-210921D01*
X264007Y-209600D01*
X260451Y-207467D01*
X258013Y-204063D01*
X257200Y-199999D01*
X258013Y-195935D01*
X260451Y-192532D01*
X264007Y-190398D01*
X267868Y-189077D01*
X274929Y-185013D01*
X281076Y-179628D01*
X286156Y-173228D01*
X289864Y-165963D01*
X292201Y-158140D01*
X292963Y-150012D01*
X292201Y-141884D01*
X289864Y-134061D01*
X286156Y-126796D01*
X281076Y-120396D01*
X274929Y-115011D01*
X267868Y-110947D01*
X260146Y-108254D01*
X252069Y-107086D01*
X243890Y-107492D01*
X235966Y-109423D01*
X228549Y-112826D01*
X221894Y-117551D01*
X216255Y-123444D01*
X211836Y-130352D01*
X209448Y-136296D01*
X207162Y-139750D01*
X203657Y-141986D01*
X199542Y-142646D01*
X195529Y-141630D01*
X192227Y-139039D01*
X189890Y-134061D01*
X186131Y-126796D01*
X181102Y-120396D01*
X174904Y-115011D01*
X167843Y-110947D01*
X160121Y-108254D01*
X152044Y-107086D01*
X143916Y-107492D01*
X135940Y-109423D01*
X128524Y-112826D01*
X121869Y-117551D01*
X116230Y-123444D01*
X111861Y-130352D01*
X109474Y-136296D01*
X107137Y-139750D01*
X103632Y-141986D01*
X99517Y-142646D01*
X95504Y-141630D01*
X92252Y-139039D01*
X86156Y-126796D01*
X81076Y-120396D01*
X74930Y-115011D01*
X67868Y-110947D01*
X60147Y-108254D01*
X52069Y-107086D01*
X43891Y-107492D01*
X35966Y-109423D01*
X28549Y-112826D01*
X21894Y-117551D01*
X16256Y-123444D01*
X11836Y-130352D01*
X9448Y-136296D01*
X7162Y-139750D01*
X3657Y-141986D01*
X-457Y-142646D01*
X-4470Y-141630D01*
X-7772Y-139039D01*
X-10109Y-134061D01*
X-13868Y-126796D01*
X-18897Y-120396D01*
X-25095Y-115011D01*
X-32156Y-110947D01*
X-39878Y-108254D01*
X-47955Y-107086D01*
X-56083Y-107492D01*
X-64058Y-109423D01*
X-71475Y-112826D01*
X-78130Y-117551D01*
X-83769Y-123444D01*
X-88138Y-130352D01*
X-91186Y-137922D01*
X-92760Y-145948D01*
X-92760Y-154076D01*
X-91186Y-162102D01*
X-88138Y-169672D01*
X-83769Y-176580D01*
X-78130Y-182473D01*
X-71475Y-187198D01*
X-64058Y-190601D01*
X-56083Y-192532D01*
X-47955Y-192938D01*
X-39878Y-191770D01*
X-32156Y-189077D01*
X-25095Y-185013D01*
X-18897Y-179628D01*
X-13868Y-173228D01*
X-10109Y-165963D01*
X-7772Y-160985D01*
X-4470Y-158394D01*
X-457Y-157378D01*
X3657Y-158038D01*
X7162Y-160274D01*
X9448Y-163728D01*
X11836Y-169672D01*
X16256Y-176580D01*
X21894Y-182473D01*
X28549Y-187198D01*
X35966Y-190601D01*
X43891Y-192532D01*
X52069Y-192938D01*
X60147Y-191770D01*
X67868Y-189077D01*
X74930Y-185013D01*
X81076Y-179628D01*
X86156Y-173228D01*
X92252Y-160985D01*
X95504Y-158394D01*
X99517Y-157378D01*
X103632Y-158038D01*
X107137Y-160274D01*
X109474Y-163728D01*
X111861Y-169672D01*
X116230Y-176580D01*
X121869Y-182473D01*
X128524Y-187198D01*
X136347Y-190754D01*
X139446Y-192989D01*
X141528Y-196240D01*
X142290Y-199999D01*
X141528Y-203809D01*
X139446Y-207010D01*
X136347Y-209245D01*
X128524Y-212801D01*
X121869Y-217576D01*
X116230Y-223469D01*
X111861Y-230327D01*
X108813Y-237896D01*
X107238Y-245922D01*
X107238Y-254101D01*
X108813Y-262128D01*
X111861Y-269697D01*
X116230Y-276555D01*
X121869Y-282448D01*
X128524Y-287223D01*
X135940Y-290576D01*
X143916Y-292506D01*
G37*
G36*
X-247954Y-292912D02*
G01*
X-239877Y-291744D01*
X-232156Y-289102D01*
X-225094Y-284988D01*
X-218897Y-279654D01*
X-213867Y-273253D01*
X-210108Y-265988D01*
X-207771Y-261010D01*
X-204470Y-258419D01*
X-200456Y-257352D01*
X-196342Y-258013D01*
X-192836Y-260299D01*
X-190550Y-263753D01*
X-188163Y-269697D01*
X-183743Y-276555D01*
X-178104Y-282448D01*
X-171450Y-287223D01*
X-164033Y-290576D01*
X-156108Y-292506D01*
X-147929Y-292912D01*
X-139852Y-291744D01*
X-132130Y-289102D01*
X-125069Y-284988D01*
X-118922Y-279654D01*
X-113842Y-273253D01*
X-110134Y-265988D01*
X-107797Y-258165D01*
X-107035Y-250037D01*
X-107797Y-241858D01*
X-110134Y-234035D01*
X-113842Y-226771D01*
X-118922Y-220370D01*
X-125069Y-215036D01*
X-132130Y-210921D01*
X-139852Y-208279D01*
X-147929Y-207111D01*
X-156108Y-207517D01*
X-164033Y-209448D01*
X-171450Y-212801D01*
X-178104Y-217576D01*
X-183743Y-223469D01*
X-188163Y-230327D01*
X-190550Y-236270D01*
X-192836Y-239725D01*
X-196342Y-242011D01*
X-200456Y-242671D01*
X-204470Y-241604D01*
X-207771Y-239014D01*
X-210108Y-234035D01*
X-213867Y-226771D01*
X-218897Y-220370D01*
X-225094Y-215036D01*
X-232156Y-210921D01*
X-235966Y-209600D01*
X-239572Y-207467D01*
X-241960Y-204063D01*
X-242824Y-199999D01*
X-241960Y-195935D01*
X-239572Y-192532D01*
X-235966Y-190398D01*
X-232156Y-189077D01*
X-225094Y-185013D01*
X-218897Y-179628D01*
X-213867Y-173228D01*
X-210108Y-165963D01*
X-207822Y-158140D01*
X-207060Y-150012D01*
X-207822Y-141884D01*
X-210108Y-134061D01*
X-213867Y-126796D01*
X-218897Y-120396D01*
X-225094Y-115011D01*
X-232156Y-110947D01*
X-239877Y-108254D01*
X-247954Y-107086D01*
X-256082Y-107492D01*
X-264058Y-109423D01*
X-271475Y-112826D01*
X-278130Y-117551D01*
X-283768Y-123444D01*
X-288137Y-130352D01*
X-291185Y-137922D01*
X-292760Y-145948D01*
X-292760Y-154076D01*
X-291185Y-162102D01*
X-288137Y-169672D01*
X-283768Y-176580D01*
X-278130Y-182473D01*
X-271475Y-187198D01*
X-263652Y-190754D01*
X-260553Y-192989D01*
X-258470Y-196240D01*
X-257708Y-199999D01*
X-258470Y-203809D01*
X-260553Y-207010D01*
X-263652Y-209245D01*
X-271475Y-212801D01*
X-278130Y-217576D01*
X-283768Y-223469D01*
X-288137Y-230327D01*
X-291185Y-237896D01*
X-292760Y-245922D01*
X-292760Y-254101D01*
X-291185Y-262128D01*
X-288137Y-269697D01*
X-283768Y-276555D01*
X-278130Y-282448D01*
X-271475Y-287223D01*
X-264058Y-290576D01*
X-256082Y-292506D01*
G37*
G36*
X852068Y-292912D02*
G01*
X859434Y-291947D01*
X876300Y-291947D01*
X881430Y-291388D01*
X885748Y-289864D01*
X889609Y-287426D01*
X892860Y-284226D01*
X895299Y-280314D01*
X896823Y-275996D01*
X897382Y-270916D01*
X897382Y-215442D01*
X896823Y-210362D01*
X895299Y-206044D01*
X892860Y-202133D01*
X889609Y-198932D01*
X885748Y-196494D01*
X881430Y-194970D01*
X876300Y-194411D01*
X823468Y-194411D01*
X818337Y-194970D01*
X814019Y-196494D01*
X810158Y-198932D01*
X806907Y-202133D01*
X804468Y-206044D01*
X802944Y-210362D01*
X802386Y-215442D01*
X802386Y-270916D01*
X802944Y-275996D01*
X804468Y-280314D01*
X806907Y-284226D01*
X810158Y-287426D01*
X814019Y-289864D01*
X818337Y-291388D01*
X823468Y-291947D01*
X840333Y-291947D01*
X843889Y-292506D01*
G37*
G36*
X1127048Y-442925D02*
G01*
X1135126Y-441756D01*
X1142847Y-439064D01*
X1149908Y-435000D01*
X1155954Y-429768D01*
X1159256Y-427837D01*
X1163066Y-427278D01*
X1166825Y-428193D01*
X1169924Y-430428D01*
X1171854Y-432460D01*
X1178509Y-437184D01*
X1185926Y-440588D01*
X1193901Y-442518D01*
X1202029Y-442925D01*
X1210106Y-441756D01*
X1217828Y-439064D01*
X1224889Y-435000D01*
X1231087Y-429615D01*
X1236116Y-423214D01*
X1239875Y-415950D01*
X1242161Y-408127D01*
X1242923Y-399999D01*
X1242161Y-391871D01*
X1239875Y-384048D01*
X1236167Y-376834D01*
X1230223Y-369366D01*
X1228547Y-366420D01*
X1227988Y-363067D01*
X1227988Y1134211D01*
X1228750Y1138072D01*
X1230985Y1141374D01*
X1619605Y1529994D01*
X1623669Y1535125D01*
X1626412Y1540764D01*
X1627784Y1546860D01*
X1627987Y1550263D01*
X1627987Y1899716D01*
X1627276Y1906219D01*
X1625193Y1912162D01*
X1621891Y1917446D01*
X1619605Y1919986D01*
X1520901Y2018690D01*
X1518869Y2021535D01*
X1517954Y2024938D01*
X1517192Y2033117D01*
X1514856Y2040940D01*
X1511147Y2048205D01*
X1506067Y2054606D01*
X1499920Y2059990D01*
X1492859Y2064054D01*
X1485138Y2066747D01*
X1477060Y2067915D01*
X1468882Y2067509D01*
X1460957Y2065578D01*
X1453540Y2062175D01*
X1446885Y2057450D01*
X1441246Y2051557D01*
X1436827Y2044649D01*
X1433779Y2037080D01*
X1432255Y2029053D01*
X1432255Y2020925D01*
X1433779Y2012899D01*
X1436827Y2005330D01*
X1441246Y1998421D01*
X1446885Y1992528D01*
X1453540Y1987804D01*
X1460957Y1984400D01*
X1468882Y1982470D01*
X1474470Y1982216D01*
X1478076Y1981352D01*
X1481175Y1979269D01*
X1569008Y1891385D01*
X1571244Y1888083D01*
X1572006Y1884172D01*
X1572006Y1565808D01*
X1571244Y1561896D01*
X1569008Y1558594D01*
X1180388Y1169974D01*
X1176324Y1164894D01*
X1173581Y1159256D01*
X1172921Y1156919D01*
X1170990Y1153312D01*
X1167790Y1150721D01*
X1163828Y1149604D01*
X1159713Y1150162D01*
X1156208Y1152347D01*
X1153820Y1155700D01*
X1153007Y1159764D01*
X1153007Y1259179D01*
X1153769Y1263091D01*
X1155954Y1266342D01*
X1468780Y1579168D01*
X1472285Y1581454D01*
X1485138Y1583232D01*
X1492859Y1585925D01*
X1499920Y1589989D01*
X1506067Y1595374D01*
X1511147Y1601774D01*
X1514856Y1609039D01*
X1517192Y1616862D01*
X1517954Y1624990D01*
X1517192Y1633118D01*
X1514856Y1640941D01*
X1511147Y1648206D01*
X1506067Y1654606D01*
X1499920Y1659991D01*
X1492859Y1664055D01*
X1485138Y1666748D01*
X1477060Y1667916D01*
X1468882Y1667510D01*
X1460957Y1665579D01*
X1453540Y1662175D01*
X1446885Y1657451D01*
X1441246Y1651558D01*
X1436827Y1644650D01*
X1433779Y1637080D01*
X1432255Y1629054D01*
X1432255Y1626057D01*
X1431493Y1622145D01*
X1429258Y1618843D01*
X1105408Y1294993D01*
X1101293Y1289862D01*
X1098600Y1284224D01*
X1097178Y1278128D01*
X1097026Y1274724D01*
X1097026Y-363321D01*
X1096264Y-367080D01*
X1094181Y-370332D01*
X1091234Y-373430D01*
X1086815Y-380339D01*
X1083767Y-387908D01*
X1082243Y-395935D01*
X1082243Y-404063D01*
X1083767Y-412089D01*
X1086815Y-419658D01*
X1091234Y-426567D01*
X1096873Y-432460D01*
X1103528Y-437184D01*
X1110945Y-440588D01*
X1118870Y-442518D01*
G37*
G36*
X2527046Y-480415D02*
G01*
X2535123Y-479247D01*
X2542844Y-476554D01*
X2549906Y-472490D01*
X2556052Y-467106D01*
X2561132Y-460705D01*
X2564841Y-453440D01*
X2567178Y-445617D01*
X2567940Y-437489D01*
X2567178Y-429361D01*
X2564841Y-421538D01*
X2561132Y-414274D01*
X2553309Y-404215D01*
X2552344Y-399999D01*
X2553309Y-395782D01*
X2561132Y-385724D01*
X2564841Y-378460D01*
X2567178Y-370636D01*
X2567940Y-362508D01*
X2567178Y-354380D01*
X2564841Y-346557D01*
X2561132Y-339293D01*
X2556052Y-332892D01*
X2549906Y-327507D01*
X2542844Y-323443D01*
X2535123Y-320751D01*
X2527046Y-319582D01*
X2518867Y-319989D01*
X2510942Y-321919D01*
X2503525Y-325323D01*
X2496870Y-330047D01*
X2491232Y-335940D01*
X2486812Y-342849D01*
X2483764Y-350418D01*
X2482240Y-358444D01*
X2482240Y-366572D01*
X2483764Y-374599D01*
X2486812Y-382168D01*
X2491232Y-389077D01*
X2494991Y-392988D01*
X2497074Y-396240D01*
X2497785Y-399999D01*
X2497074Y-403758D01*
X2494991Y-407009D01*
X2491232Y-410921D01*
X2486812Y-417830D01*
X2483764Y-425399D01*
X2482240Y-433425D01*
X2482240Y-441553D01*
X2483764Y-449580D01*
X2486812Y-457149D01*
X2491232Y-464058D01*
X2496870Y-469950D01*
X2503525Y-474675D01*
X2510942Y-478078D01*
X2518867Y-480009D01*
G37*
G36*
X2822803Y-730453D02*
G01*
X2830880Y-729284D01*
X2838602Y-726592D01*
X2845663Y-722528D01*
X2851861Y-717143D01*
X2856890Y-710742D01*
X2860649Y-703478D01*
X2862935Y-695655D01*
X2863697Y-687527D01*
X2862935Y-679399D01*
X2860649Y-671576D01*
X2856890Y-664311D01*
X2852166Y-658317D01*
X2850438Y-654913D01*
X2850083Y-651052D01*
X2851150Y-647395D01*
X2853537Y-644347D01*
X2856077Y-642112D01*
X2861106Y-635711D01*
X2864866Y-628446D01*
X2867152Y-620623D01*
X2867914Y-612495D01*
X2867152Y-604367D01*
X2864866Y-596544D01*
X2861106Y-589280D01*
X2856077Y-582879D01*
X2849880Y-577494D01*
X2842818Y-573430D01*
X2835097Y-570738D01*
X2827020Y-569569D01*
X2818892Y-569976D01*
X2810916Y-571906D01*
X2803499Y-575310D01*
X2796844Y-580034D01*
X2791206Y-585927D01*
X2786786Y-592836D01*
X2783789Y-600405D01*
X2782214Y-608431D01*
X2782214Y-616559D01*
X2783789Y-624586D01*
X2786786Y-632155D01*
X2791206Y-639064D01*
X2792882Y-640791D01*
X2794965Y-644042D01*
X2795676Y-647801D01*
X2794965Y-651560D01*
X2792882Y-654812D01*
X2786989Y-660958D01*
X2782620Y-667867D01*
X2779572Y-675436D01*
X2777998Y-683463D01*
X2777998Y-691591D01*
X2779572Y-699617D01*
X2782620Y-707186D01*
X2786989Y-714095D01*
X2792628Y-719988D01*
X2799283Y-724712D01*
X2806700Y-728116D01*
X2814675Y-730046D01*
G37*
G36*
X-1595374Y-980440D02*
G01*
X-1576832Y-978966D01*
X-1558544Y-975664D01*
X-1540713Y-970483D01*
X-1523492Y-963472D01*
X-1507083Y-954735D01*
X-1491691Y-944371D01*
X-1477416Y-932434D01*
X-1464411Y-919124D01*
X-1452880Y-904595D01*
X-1442923Y-888898D01*
X-1434592Y-872286D01*
X-1428038Y-854862D01*
X-1423314Y-836930D01*
X-1420469Y-818540D01*
X-1419504Y-799998D01*
X-1420469Y-781456D01*
X-1423314Y-763066D01*
X-1428038Y-745134D01*
X-1434592Y-727710D01*
X-1442923Y-711098D01*
X-1452880Y-695401D01*
X-1464411Y-680872D01*
X-1477416Y-667562D01*
X-1491691Y-655624D01*
X-1507083Y-645261D01*
X-1523492Y-636524D01*
X-1540713Y-629513D01*
X-1558544Y-624332D01*
X-1576832Y-621030D01*
X-1595374Y-619556D01*
X-1613916Y-620064D01*
X-1632356Y-622452D01*
X-1650441Y-626719D01*
X-1667967Y-632815D01*
X-1684832Y-640689D01*
X-1700733Y-650240D01*
X-1715617Y-661416D01*
X-1729232Y-674014D01*
X-1741525Y-687984D01*
X-1752295Y-703122D01*
X-1761439Y-719328D01*
X-1768856Y-736346D01*
X-1774545Y-754024D01*
X-1778355Y-772210D01*
X-1780235Y-790702D01*
X-1780235Y-809294D01*
X-1778355Y-827786D01*
X-1774545Y-845972D01*
X-1768856Y-863650D01*
X-1761439Y-880668D01*
X-1752295Y-896874D01*
X-1741525Y-912012D01*
X-1729232Y-925982D01*
X-1715617Y-938580D01*
X-1700733Y-949756D01*
X-1684832Y-959307D01*
X-1667967Y-967181D01*
X-1650441Y-973277D01*
X-1632356Y-977544D01*
X-1613916Y-979932D01*
G37*
G36*
X-297992Y-1442923D02*
G01*
X-289915Y-1441754D01*
X-282194Y-1439062D01*
X-275132Y-1434998D01*
X-268986Y-1429613D01*
X-263906Y-1423212D01*
X-260197Y-1415948D01*
X-257860Y-1408125D01*
X-257098Y-1399997D01*
X-257860Y-1391869D01*
X-260197Y-1384046D01*
X-263906Y-1376781D01*
X-268986Y-1370380D01*
X-275132Y-1364996D01*
X-282194Y-1360932D01*
X-289915Y-1358239D01*
X-297992Y-1357071D01*
X-306171Y-1357477D01*
X-314096Y-1359408D01*
X-321513Y-1362811D01*
X-328168Y-1367536D01*
X-333806Y-1373428D01*
X-338226Y-1380337D01*
X-341274Y-1387906D01*
X-342798Y-1395933D01*
X-342798Y-1404061D01*
X-341274Y-1412087D01*
X-338226Y-1419656D01*
X-333806Y-1426565D01*
X-328168Y-1432458D01*
X-321513Y-1437182D01*
X-314096Y-1440586D01*
X-306171Y-1442516D01*
G37*
G36*
X-3276447Y-1910486D02*
G01*
X-3262376Y-1909114D01*
X-3248558Y-1905965D01*
X-3235299Y-1901088D01*
X-3222752Y-1894535D01*
X-3211118Y-1886407D01*
X-3200654Y-1876907D01*
X-3191459Y-1866138D01*
X-3183737Y-1854250D01*
X-3177590Y-1841500D01*
X-3173120Y-1828088D01*
X-3170428Y-1814169D01*
X-3169513Y-1800047D01*
X-3170428Y-1785924D01*
X-3173120Y-1772005D01*
X-3177590Y-1758594D01*
X-3183737Y-1745843D01*
X-3191459Y-1733956D01*
X-3200654Y-1723186D01*
X-3211118Y-1713687D01*
X-3222752Y-1705559D01*
X-3235299Y-1699006D01*
X-3248558Y-1694129D01*
X-3262376Y-1690979D01*
X-3276447Y-1689607D01*
X-3290620Y-1690065D01*
X-3304590Y-1692351D01*
X-3318154Y-1696364D01*
X-3331108Y-1702104D01*
X-3343198Y-1709420D01*
X-3354273Y-1718259D01*
X-3364128Y-1728419D01*
X-3372612Y-1739798D01*
X-3379520Y-1752092D01*
X-3384854Y-1765249D01*
X-3388461Y-1778914D01*
X-3390239Y-1792986D01*
X-3390239Y-1807108D01*
X-3388461Y-1821180D01*
X-3384854Y-1834845D01*
X-3379520Y-1848002D01*
X-3372612Y-1860296D01*
X-3364128Y-1871675D01*
X-3354273Y-1881835D01*
X-3343198Y-1890674D01*
X-3331108Y-1897989D01*
X-3318154Y-1903730D01*
X-3304590Y-1907743D01*
X-3290620Y-1910029D01*
G37*
G36*
X1604619Y-980440D02*
G01*
X1623161Y-978966D01*
X1641449Y-975664D01*
X1659280Y-970483D01*
X1676501Y-963472D01*
X1692910Y-954735D01*
X1708302Y-944371D01*
X1722577Y-932434D01*
X1735582Y-919124D01*
X1747113Y-904595D01*
X1757070Y-888898D01*
X1765401Y-872286D01*
X1771954Y-854862D01*
X1776679Y-836930D01*
X1779524Y-818540D01*
X1780489Y-799998D01*
X1779524Y-781456D01*
X1776679Y-763066D01*
X1771954Y-745134D01*
X1765401Y-727710D01*
X1757070Y-711098D01*
X1747113Y-695401D01*
X1735582Y-680872D01*
X1722577Y-667562D01*
X1708302Y-655624D01*
X1692910Y-645261D01*
X1676501Y-636524D01*
X1659280Y-629513D01*
X1641449Y-624332D01*
X1623161Y-621030D01*
X1604619Y-619556D01*
X1586077Y-620064D01*
X1567637Y-622452D01*
X1549552Y-626719D01*
X1532026Y-632815D01*
X1515160Y-640689D01*
X1499260Y-650240D01*
X1484376Y-661416D01*
X1470761Y-674014D01*
X1458468Y-687984D01*
X1447698Y-703122D01*
X1438554Y-719328D01*
X1431137Y-736346D01*
X1425448Y-754024D01*
X1421638Y-772210D01*
X1419758Y-790702D01*
X1419758Y-809294D01*
X1421638Y-827786D01*
X1425448Y-845972D01*
X1431137Y-863650D01*
X1438554Y-880668D01*
X1447698Y-896874D01*
X1458468Y-912012D01*
X1470761Y-925982D01*
X1484376Y-938580D01*
X1499260Y-949756D01*
X1515160Y-959307D01*
X1532026Y-967181D01*
X1549552Y-973277D01*
X1567637Y-977544D01*
X1586077Y-979932D01*
G37*

%LPD*%
G36*
X-3139338Y-2379573D02*
G01*
X-3143199Y-2378760D01*
X-3146501Y-2376576D01*
X-3148736Y-2373274D01*
X-3149498Y-2369413D01*
X-3149498Y-2125624D01*
X-3150057Y-2120493D01*
X-3151581Y-2116175D01*
X-3154019Y-2112314D01*
X-3156508Y-2109825D01*
X-3158744Y-2106523D01*
X-3159506Y-2102612D01*
X-3159506Y-2003298D01*
X-3158744Y-1999437D01*
X-3156508Y-1996135D01*
X-2741371Y-1580997D01*
X-2738069Y-1578762D01*
X-2734208Y-1578000D01*
X-2461717Y-1578000D01*
X-2457704Y-1578813D01*
X-2454351Y-1581150D01*
X-2453132Y-1582470D01*
X-2446477Y-1587195D01*
X-2439060Y-1590598D01*
X-2431084Y-1592529D01*
X-2422956Y-1592935D01*
X-2414879Y-1591767D01*
X-2407158Y-1589074D01*
X-2400096Y-1585010D01*
X-2393899Y-1579626D01*
X-2388870Y-1573225D01*
X-2384755Y-1565249D01*
X-2381859Y-1561846D01*
X-2377795Y-1559966D01*
X-2373325Y-1560068D01*
X-2369312Y-1562049D01*
X-2366568Y-1565554D01*
X-2365552Y-1569923D01*
X-2365552Y-2102662D01*
X-2366314Y-2106574D01*
X-2368550Y-2109876D01*
X-2370988Y-2112314D01*
X-2373426Y-2116175D01*
X-2374900Y-2120493D01*
X-2375509Y-2125624D01*
X-2375509Y-2369413D01*
X-2376271Y-2373274D01*
X-2378456Y-2376576D01*
X-2381758Y-2378760D01*
X-2385669Y-2379573D01*
X-2389327Y-2379573D01*
X-2393238Y-2378760D01*
X-2396540Y-2376576D01*
X-2398725Y-2373274D01*
X-2399487Y-2369413D01*
X-2399487Y-2125624D01*
X-2400096Y-2120493D01*
X-2401570Y-2116175D01*
X-2404008Y-2112314D01*
X-2407259Y-2109063D01*
X-2411120Y-2106625D01*
X-2415438Y-2105101D01*
X-2420569Y-2104542D01*
X-2454300Y-2104542D01*
X-2461158Y-2105456D01*
X-2463850Y-2105456D01*
X-2470658Y-2104542D01*
X-2504440Y-2104542D01*
X-2509520Y-2105101D01*
X-2513838Y-2106625D01*
X-2517749Y-2109063D01*
X-2520950Y-2112314D01*
X-2523388Y-2116175D01*
X-2524912Y-2120493D01*
X-2525471Y-2125624D01*
X-2525471Y-2369413D01*
X-2526284Y-2373274D01*
X-2528468Y-2376576D01*
X-2531770Y-2378760D01*
X-2535631Y-2379573D01*
X-2539339Y-2379573D01*
X-2543200Y-2378760D01*
X-2546502Y-2376576D01*
X-2548737Y-2373274D01*
X-2549499Y-2369413D01*
X-2549499Y-2125624D01*
X-2550058Y-2120493D01*
X-2551582Y-2116175D01*
X-2554020Y-2112314D01*
X-2557272Y-2109063D01*
X-2561132Y-2106625D01*
X-2565450Y-2105101D01*
X-2570581Y-2104542D01*
X-2604312Y-2104542D01*
X-2611120Y-2105456D01*
X-2613863Y-2105456D01*
X-2620670Y-2104542D01*
X-2654401Y-2104542D01*
X-2659532Y-2105101D01*
X-2663850Y-2106625D01*
X-2667711Y-2109063D01*
X-2670962Y-2112314D01*
X-2673400Y-2116175D01*
X-2674924Y-2120493D01*
X-2675483Y-2125624D01*
X-2675483Y-2369413D01*
X-2676245Y-2373274D01*
X-2678480Y-2376576D01*
X-2681782Y-2378760D01*
X-2685643Y-2379573D01*
X-2689352Y-2379573D01*
X-2693212Y-2378760D01*
X-2696514Y-2376576D01*
X-2698699Y-2373274D01*
X-2699512Y-2369413D01*
X-2699512Y-2125624D01*
X-2700070Y-2120493D01*
X-2701594Y-2116175D01*
X-2704033Y-2112314D01*
X-2707233Y-2109063D01*
X-2711145Y-2106625D01*
X-2715463Y-2105101D01*
X-2720543Y-2104542D01*
X-2754325Y-2104542D01*
X-2761132Y-2105456D01*
X-2763824Y-2105456D01*
X-2770682Y-2104542D01*
X-2804414Y-2104542D01*
X-2809544Y-2105101D01*
X-2813862Y-2106625D01*
X-2817723Y-2109063D01*
X-2820974Y-2112314D01*
X-2823413Y-2116175D01*
X-2824937Y-2120493D01*
X-2825496Y-2125624D01*
X-2825496Y-2369413D01*
X-2826258Y-2373274D01*
X-2828493Y-2376576D01*
X-2831744Y-2378760D01*
X-2835656Y-2379573D01*
X-2839313Y-2379573D01*
X-2843225Y-2378760D01*
X-2846527Y-2376576D01*
X-2848711Y-2373274D01*
X-2849473Y-2369413D01*
X-2849473Y-2125624D01*
X-2850083Y-2120493D01*
X-2851607Y-2116175D01*
X-2853994Y-2112314D01*
X-2857246Y-2109063D01*
X-2861106Y-2106625D01*
X-2865424Y-2105101D01*
X-2870555Y-2104542D01*
X-2904337Y-2104542D01*
X-2911144Y-2105456D01*
X-2913837Y-2105456D01*
X-2920695Y-2104542D01*
X-2954426Y-2104542D01*
X-2959557Y-2105101D01*
X-2963875Y-2106625D01*
X-2967736Y-2109063D01*
X-2970987Y-2112314D01*
X-2973425Y-2116175D01*
X-2974898Y-2120493D01*
X-2975508Y-2125624D01*
X-2975508Y-2369413D01*
X-2976270Y-2373274D01*
X-2978454Y-2376576D01*
X-2981756Y-2378760D01*
X-2985668Y-2379573D01*
X-2989326Y-2379573D01*
X-2993237Y-2378760D01*
X-2996539Y-2376576D01*
X-2998724Y-2373274D01*
X-2999486Y-2369413D01*
X-2999486Y-2125624D01*
X-3000095Y-2120493D01*
X-3001568Y-2116175D01*
X-3004007Y-2112314D01*
X-3007258Y-2109063D01*
X-3011119Y-2106625D01*
X-3015437Y-2105101D01*
X-3020568Y-2104542D01*
X-3054299Y-2104542D01*
X-3061157Y-2105456D01*
X-3063849Y-2105456D01*
X-3070656Y-2104542D01*
X-3104438Y-2104542D01*
X-3109518Y-2105101D01*
X-3113836Y-2106625D01*
X-3117748Y-2109063D01*
X-3120948Y-2112314D01*
X-3123387Y-2116175D01*
X-3124911Y-2120493D01*
X-3125470Y-2125624D01*
X-3125470Y-2369413D01*
X-3126282Y-2373274D01*
X-3128467Y-2376576D01*
X-3131769Y-2378760D01*
X-3135630Y-2379573D01*
G37*

%LPD*%
D10*
X-1599996Y1124996D02*
G01*
X-1799996Y1124996D01*
X-1899996Y1224996D01*
X150113Y-649986D02*
G01*
X199897Y-700023D01*
X474979Y-700023D01*
X850137Y-1074928D01*
X850137Y-1124965D01*
X3007911Y699998D02*
G01*
X2607911Y299999D01*
X2374996Y299999D01*
X225044Y-1249934D02*
G01*
X2074925Y-1249934D01*
X2612390Y-1787397D01*
X2612390Y-2249931D01*
X-2187450Y-2249934D02*
G01*
X-2187450Y-350012D01*
X-837440Y999997D01*
X-524992Y999997D01*
X-1400047Y-1199895D02*
G01*
X-999997Y-1199895D01*
X-450087Y-649986D01*
X50012Y-650013D02*
G01*
X50012Y-549988D01*
X99999Y-500001D01*
X1875005Y-500001D01*
X2850006Y-1475003D01*
X2862503Y-1475003D01*
X250012Y-650013D02*
G01*
X500026Y-650013D01*
X975004Y-1124991D01*
X-2037488Y-2249982D02*
G01*
X-2037488Y-1987501D01*
X-1949983Y-1899996D01*
X-3187494Y-2249982D02*
G01*
X-3187494Y-1987499D01*
X-2750004Y-1550009D01*
X-2424988Y-1550009D01*
X1562508Y-2249982D02*
G01*
X1562508Y-1912520D01*
X1524990Y-1875002D01*
X-1137488Y-2249982D02*
G01*
X-1137488Y-1962505D01*
X-1199997Y-1899996D01*
X-787499Y-2249982D02*
G01*
X-787499Y-1887496D01*
X-699998Y-1799996D01*
X-837486Y-2249982D02*
G01*
X-837486Y-1837484D01*
X-799998Y-1799996D01*
X-1524993Y-1399994D02*
G01*
X-1575000Y-1399994D01*
X-1875002Y-1699996D01*
X-987498Y-2249982D02*
G01*
X-987498Y-1812495D01*
X-999997Y-1799996D01*
X-1037485Y-2249982D02*
G01*
X-1037485Y-1862508D01*
X-1099997Y-1799996D01*
X-249936Y-750062D02*
G01*
X-249936Y-849884D01*
X-450087Y-1050036D01*
X-1087501Y-2249982D02*
G01*
X-1087501Y-1912493D01*
X-1199997Y-1799996D01*
X299999Y-1375003D02*
G01*
X2049995Y-1375003D01*
X2512565Y-1837575D01*
X2512565Y-2249934D01*
X375005Y-1450009D02*
G01*
X2050016Y-1450009D01*
X2462535Y-1862528D01*
X2462535Y-2249934D01*
X2362509Y-2249982D02*
G01*
X2362509Y-1912510D01*
X2037494Y-1587500D01*
X-237489Y-1587500D01*
X-249986Y-1599996D01*
X1662429Y-2249931D02*
G01*
X1662429Y-1812544D01*
X1499870Y-1649984D01*
X1325118Y-1649984D01*
X1612392Y-2249931D02*
G01*
X1612392Y-1849881D01*
X1487423Y-1724913D01*
X1325118Y-1724913D01*
X1512570Y-2249931D02*
G01*
X1512570Y-1962657D01*
X1400047Y-1850136D01*
X1400047Y-1800097D01*
X-937513Y-2249931D02*
G01*
X-937513Y-1762505D01*
X-975105Y-1724913D01*
X-999997Y-1724913D01*
X-350012Y750062D02*
G01*
X-400050Y800100D01*
X-925068Y800100D01*
X-2100071Y-375157D01*
X-2100071Y-1400047D01*
X2675000Y-1599996D02*
G01*
X2262454Y-1187450D01*
X387604Y-1187450D01*
X225046Y-1024892D01*
X2862579Y-2249931D02*
G01*
X2862579Y-1787652D01*
X2674874Y-1599945D01*
X1124999Y-399999D02*
G01*
X1124999Y1274986D01*
X1475003Y1624990D01*
X1199995Y-399999D02*
G01*
X1199995Y1149995D01*
X1599994Y1549994D01*
X1599994Y1899998D01*
X1475003Y2024989D01*
X1087498Y1374995D02*
G01*
X975022Y1374995D01*
X450011Y849985D01*
X249936Y750062D02*
G01*
X249936Y937513D01*
X1087373Y1774952D01*
X-50037Y-649986D02*
G01*
X-50037Y-750062D01*
X150113Y-950213D01*
X150113Y-1275079D01*
X187452Y-1312418D01*
X2062479Y-1312418D01*
X2562606Y-1812544D01*
X2562606Y-2249931D01*
X2412491Y-2249931D02*
G01*
X2412491Y-1887473D01*
X2050034Y-1525015D01*
X299973Y-1525015D01*
X74929Y-1299971D01*
X74929Y-975105D01*
X-100076Y-800100D01*
X-100076Y-700023D01*
X-150113Y-649986D01*
X-199999Y-1150010D02*
G01*
X-49989Y-1000000D01*
X0Y-1000000D01*
X-249936Y649986D02*
G01*
X-249936Y549910D01*
X-400050Y400050D01*
X-700023Y400050D01*
X-999997Y100076D01*
X-999997Y-824992D01*
X2999993Y1100073D02*
G01*
X2987547Y1100073D01*
X2374900Y487426D01*
X2374900Y450087D01*
X-400050Y999997D02*
G01*
X-474979Y1074928D01*
X-901954Y1074928D01*
X-2337562Y-360679D01*
X-2337562Y-2249931D01*
X-1999995Y-400050D02*
G01*
X-899921Y700023D01*
X-400050Y700023D01*
X-350012Y649986D01*
X-450087Y649986D02*
G01*
X-824992Y649986D01*
X-1949957Y-474979D01*
X-1949957Y-1474978D01*
X-2137410Y-1662429D01*
X-2137410Y-2249931D01*
X-2262553Y-650008D02*
G01*
X-2287574Y-675030D01*
X-2287574Y-2249931D01*
X-999997Y-925068D02*
G01*
X-1100073Y-824992D01*
X-1100073Y200152D01*
X-799845Y500126D01*
X-399795Y500126D01*
X-299973Y599947D01*
X-299973Y700023D01*
X-249936Y750062D01*
X-2024989Y-1699996D02*
G01*
X-1624962Y-1299969D01*
X-899970Y-1299969D01*
X-399999Y-800000D01*
X-399999Y-700001D01*
X-350012Y-649988D01*
X-249936Y-649986D02*
G01*
X-299973Y-700023D01*
X-299973Y-800100D01*
X-1124204Y-1625092D01*
X-1675129Y-1625092D01*
D11*
G01*
X-150114Y-43282D03*
D12*
G01*
X-150113Y43281D03*
D11*
G01*
X849884Y243180D03*
D12*
G01*
X849884Y156616D03*
D11*
G01*
X849884Y-156615D03*
D12*
G01*
X849884Y-243179D03*
D11*
G01*
X249935Y-43282D03*
D12*
G01*
X249936Y43281D03*
D11*
G01*
X50038Y-356767D03*
D12*
G01*
X50037Y-443331D03*
D11*
G01*
X-150114Y543154D03*
D12*
G01*
X-150113Y456590D03*
D11*
G01*
X50038Y-43282D03*
D12*
G01*
X50037Y43281D03*
D11*
G01*
X-150114Y-356767D03*
D12*
G01*
X-150113Y-443331D03*
D11*
G01*
X249935Y-356767D03*
D12*
G01*
X249936Y-443331D03*
D13*
G01*
X3362502Y-2250033D03*
G01*
X3312490Y-2250033D03*
G01*
X3262502Y-2250033D03*
G01*
X3212490Y-2250033D03*
G01*
X3162503Y-2250033D03*
G01*
X3112490Y-2250033D03*
G01*
X3062503Y-2250033D03*
G01*
X3012490Y-2250033D03*
G01*
X2962503Y-2250033D03*
G01*
X2912490Y-2250033D03*
G01*
X2862503Y-2250033D03*
G01*
X2812491Y-2250033D03*
G01*
X2762504Y-2250033D03*
G01*
X2712491Y-2250033D03*
G01*
X2662504Y-2250033D03*
G01*
X2612491Y-2250033D03*
G01*
X2562504Y-2250033D03*
G01*
X2512491Y-2250033D03*
G01*
X2462504Y-2250033D03*
G01*
X2412491Y-2250033D03*
G01*
X2362504Y-2250033D03*
G01*
X2312492Y-2250033D03*
G01*
X2262504Y-2250033D03*
G01*
X2212492Y-2250033D03*
G01*
X2162505Y-2250033D03*
G01*
X2112492Y-2250033D03*
G01*
X2062505Y-2250033D03*
G01*
X2012492Y-2250033D03*
G01*
X1962505Y-2250033D03*
G01*
X1912493Y-2250033D03*
G01*
X1862505Y-2250033D03*
G01*
X1812493Y-2250033D03*
G01*
X1762505Y-2250033D03*
G01*
X1712493Y-2250033D03*
G01*
X1662506Y-2250033D03*
G01*
X1612493Y-2250033D03*
G01*
X1562506Y-2250033D03*
G01*
X1512493Y-2250033D03*
G01*
X1462506Y-2250033D03*
G01*
X1412494Y-2250033D03*
G01*
X1362506Y-2250033D03*
G01*
X1312494Y-2250033D03*
G01*
X1262506Y-2250033D03*
G01*
X1212494Y-2250033D03*
G01*
X1162507Y-2250033D03*
G01*
X1112494Y-2250033D03*
G01*
X1062507Y-2250033D03*
G01*
X1012494Y-2250033D03*
G01*
X962507Y-2250033D03*
G01*
X912495Y-2250033D03*
G01*
X862507Y-2250033D03*
G01*
X812495Y-2250033D03*
G01*
X762507Y-2250033D03*
G01*
X712495Y-2250033D03*
G01*
X662508Y-2250033D03*
G01*
X612495Y-2250033D03*
G01*
X562508Y-2250033D03*
G01*
X512495Y-2250033D03*
G01*
X462508Y-2250033D03*
G01*
X212496Y-2250033D03*
G01*
X162509Y-2250033D03*
G01*
X112496Y-2250033D03*
G01*
X62509Y-2250033D03*
G01*
X12496Y-2250033D03*
G01*
X-37490Y-2250033D03*
G01*
X-87503Y-2250033D03*
G01*
X-137490Y-2250033D03*
G01*
X-187502Y-2250033D03*
G01*
X-237489Y-2250033D03*
G01*
X-287502Y-2250033D03*
G01*
X-337489Y-2250033D03*
G01*
X-387502Y-2250033D03*
G01*
X-437489Y-2250033D03*
G01*
X-487502Y-2250033D03*
G01*
X-537489Y-2250033D03*
G01*
X-587502Y-2250033D03*
G01*
X-637489Y-2250033D03*
G01*
X-687501Y-2250033D03*
G01*
X-737488Y-2250033D03*
G01*
X-787501Y-2250033D03*
G01*
X-837488Y-2250033D03*
G01*
X-887501Y-2250033D03*
G01*
X-937488Y-2250033D03*
G01*
X-987501Y-2250033D03*
G01*
X-1037488Y-2250033D03*
G01*
X-1087501Y-2250033D03*
G01*
X-1137488Y-2250033D03*
G01*
X-1187500Y-2250033D03*
G01*
X-1237487Y-2250033D03*
G01*
X-1287500Y-2250033D03*
G01*
X-1337487Y-2250033D03*
G01*
X-1387500Y-2250033D03*
G01*
X-1437487Y-2250033D03*
G01*
X-1487500Y-2250033D03*
G01*
X-1537487Y-2250033D03*
G01*
X-1587500Y-2250033D03*
G01*
X-1637487Y-2250033D03*
G01*
X-1687499Y-2250033D03*
G01*
X-1737487Y-2250033D03*
G01*
X-1787499Y-2250033D03*
G01*
X-1837486Y-2250033D03*
G01*
X-1887499Y-2250033D03*
G01*
X-1937486Y-2250033D03*
G01*
X-1987499Y-2250033D03*
G01*
X-2037486Y-2250033D03*
G01*
X-2087498Y-2250033D03*
G01*
X-2137486Y-2250033D03*
G01*
X-2187498Y-2250033D03*
G01*
X-2237486Y-2250033D03*
G01*
X-2287498Y-2250033D03*
G01*
X-2337485Y-2250033D03*
G01*
X-2387498Y-2250033D03*
G01*
X-2437485Y-2250033D03*
G01*
X-2487498Y-2250033D03*
G01*
X-2537485Y-2250033D03*
G01*
X-2587497Y-2250033D03*
G01*
X-2637485Y-2250033D03*
G01*
X-2687497Y-2250033D03*
G01*
X-2737485Y-2250033D03*
G01*
X-2787497Y-2250033D03*
G01*
X-2837484Y-2250033D03*
G01*
X-2887497Y-2250033D03*
G01*
X-2937484Y-2250033D03*
G01*
X-2987497Y-2250033D03*
G01*
X-3037484Y-2250033D03*
G01*
X-3087496Y-2250033D03*
G01*
X-3137484Y-2250033D03*
G01*
X-3187496Y-2250033D03*
G01*
X-3237484Y-2250033D03*
G01*
X-3287496Y-2250033D03*
D14*
G01*
X1599996Y799998D03*
G01*
X1599996Y-799998D03*
G01*
X-1599996Y-799998D03*
G01*
X3199993Y1999995D03*
G01*
X-3199993Y1999995D03*
G01*
X-1599996Y799998D03*
D15*
G01*
X224993Y-1250010D03*
G01*
X299999Y-1375003D03*
G01*
X0Y-999997D03*
G01*
X-49987Y-650011D03*
G01*
X-149987Y-650011D03*
G01*
X-449986Y-1050010D03*
G01*
X-249986Y-750011D03*
G01*
X-2424988Y-1550009D03*
G01*
X-1524990Y-1399997D03*
G01*
X-1875002Y-1699996D03*
G01*
X-2024989Y-1699996D03*
G01*
X-349986Y-650011D03*
G01*
X-249986Y-650011D03*
G01*
X-449986Y-650011D03*
G01*
X-149987Y-750011D03*
G01*
X250012Y-650011D03*
G01*
X150012Y-650011D03*
G01*
X50012Y-650011D03*
G01*
X50012Y-750011D03*
G01*
X150012Y-750011D03*
G01*
X250012Y-750011D03*
G01*
X250012Y649986D03*
G01*
X350012Y649986D03*
G01*
X350012Y749985D03*
G01*
X-249986Y649986D03*
G01*
X-349986Y649986D03*
G01*
X-349986Y749985D03*
G01*
X-249986Y749985D03*
G01*
X-449986Y649986D03*
G01*
X-1675003Y-1624990D03*
G01*
X-1399997Y-1699996D03*
G01*
X-1399997Y-1199997D03*
G01*
X375005Y-1450009D03*
G01*
X-999997Y-1799996D03*
G01*
X-999997Y-1724990D03*
G01*
X-1099997Y-1799996D03*
G01*
X350012Y849985D03*
G01*
X-524992Y999997D03*
G01*
X-399999Y999997D03*
G01*
X1399997Y-1799996D03*
G01*
X1524990Y-1875002D03*
G01*
X1324990Y-1724990D03*
G01*
X1324990Y-1650009D03*
G01*
X-799998Y-1799996D03*
G01*
X-699998Y-1799996D03*
G01*
X-1199997Y-1899996D03*
G01*
X-99999Y-1675003D03*
G01*
X2862503Y-1475003D03*
G01*
X224993Y-1024991D03*
G01*
X250012Y-850011D03*
G01*
X150012Y-850011D03*
G01*
X-1949983Y-1899996D03*
G01*
X-149987Y549986D03*
G01*
X-149987Y449986D03*
G01*
X-149987Y349986D03*
G01*
X-149987Y249986D03*
G01*
X-649986Y349986D03*
G01*
X-849985Y549986D03*
G01*
X-749985Y749985D03*
G01*
X550011Y749985D03*
G01*
X650011Y-550011D03*
G01*
X150012Y-350012D03*
G01*
X-149987Y-350012D03*
G01*
X750011Y-750011D03*
G01*
X-749985Y-750011D03*
G01*
X-849985Y-450011D03*
G01*
X-849985Y-250012D03*
G01*
X-849985Y-50012D03*
G01*
X-849985Y149987D03*
G01*
X-249986Y149987D03*
G01*
X-149987Y49987D03*
G01*
X-49987Y149987D03*
G01*
X150012Y149987D03*
G01*
X850011Y149987D03*
G01*
X2575001Y-1650009D03*
G01*
X2399995Y-1475003D03*
G01*
X1875002Y-1650009D03*
G01*
X2324988Y-1399997D03*
G01*
X975004Y-1124991D03*
G01*
X850011Y-1124991D03*
G01*
X650011Y-350012D03*
G01*
X650011Y-150012D03*
G01*
X150012Y-50012D03*
G01*
X-149987Y-50012D03*
G01*
X150012Y249986D03*
G01*
X-149987Y-550011D03*
G01*
X150012Y-550011D03*
G01*
X650011Y49987D03*
G01*
X850011Y49987D03*
G01*
X850011Y-350012D03*
G01*
X-649986Y-50012D03*
G01*
X-649986Y-250012D03*
G01*
X-649986Y-450011D03*
G01*
X-649986Y149987D03*
G01*
X-449986Y-450011D03*
G01*
X450011Y-450011D03*
G01*
X-449986Y-150012D03*
G01*
X-449986Y149987D03*
G01*
X450011Y149987D03*
G01*
X450011Y-150012D03*
G01*
X450011Y-750011D03*
G01*
X-449986Y-750011D03*
G01*
X-449986Y449986D03*
G01*
X-649986Y549986D03*
G01*
X-849985Y349986D03*
G01*
X650011Y449986D03*
G01*
X850011Y449986D03*
G01*
X850011Y249986D03*
G01*
X650011Y249986D03*
G01*
X150012Y-150012D03*
G01*
X-49987Y-150012D03*
G01*
X850011Y-50012D03*
G01*
X850011Y-250012D03*
G01*
X-49987Y49987D03*
G01*
X250012Y49987D03*
G01*
X250012Y-250012D03*
G01*
X-249986Y-250012D03*
G01*
X-149987Y-450011D03*
G01*
X150012Y-450011D03*
G01*
X150012Y349986D03*
G01*
X150012Y449986D03*
G01*
X-249986Y849985D03*
G01*
X-249986Y449986D03*
G01*
X-249986Y349986D03*
G01*
X-49987Y349986D03*
G01*
X-49987Y449986D03*
G01*
X50012Y449986D03*
G01*
X50012Y349986D03*
G01*
X250012Y349986D03*
G01*
X250012Y449986D03*
G01*
X-149987Y149987D03*
G01*
X-249986Y49987D03*
G01*
X50012Y49987D03*
G01*
X250012Y-150012D03*
G01*
X150012Y-250012D03*
G01*
X-149987Y-250012D03*
G01*
X-249986Y-150012D03*
G01*
X-249986Y-450011D03*
G01*
X-49987Y-450011D03*
G01*
X50012Y-450011D03*
G01*
X250012Y-450011D03*
G01*
X250012Y149987D03*
G01*
X50012Y149987D03*
G01*
X50012Y-150012D03*
G01*
X150012Y49987D03*
G01*
X-2262504Y-650011D03*
G01*
X-1999995Y-399999D03*
G01*
X-2099995Y-1399997D03*
G01*
X-449986Y749985D03*
G01*
X2375001Y449986D03*
G01*
X2375001Y299999D03*
G01*
X2999993Y1099997D03*
G01*
X3007918Y699998D03*
G01*
X2124989Y449986D03*
G01*
X2124989Y299999D03*
G01*
X2675000Y-1599996D03*
G01*
X-1200022Y-1799945D03*
G01*
X-199999Y-1150010D03*
G01*
X-249986Y-1599996D03*
G01*
X-300050Y-1399997D03*
G01*
X850011Y-156718D03*
G01*
X850011Y-550011D03*
G01*
X-149987Y749985D03*
G01*
X150012Y749985D03*
G01*
X150012Y549986D03*
G01*
X-999997Y-924991D03*
G01*
X-999997Y-824992D03*
G01*
X1799970Y1350035D03*
G01*
X250012Y749985D03*
G01*
X450011Y849985D03*
G01*
X1124991Y-399999D03*
G01*
X1199997Y-399999D03*
G01*
X2499995Y824992D03*
G01*
X2499995Y524992D03*
G01*
X2524988Y137490D03*
G01*
X2524988Y62509D03*
G01*
X2524988Y-112521D03*
G01*
X2524988Y-187502D03*
G01*
X2524988Y-362508D03*
G01*
X2524988Y-437489D03*
G01*
X2375001Y1049985D03*
G01*
X2924987Y875004D03*
G01*
X-299999Y-1250010D03*
G01*
X2949981Y-1850009D03*
G01*
X2949981Y-1799996D03*
G01*
X2949981Y-1750009D03*
G01*
X2999993Y-1750009D03*
G01*
X2999993Y-1799996D03*
G01*
X2999993Y-1850009D03*
G01*
X3299993Y-2024989D03*
G01*
X3299993Y-1975002D03*
G01*
X3350006Y-1975002D03*
G01*
X3350006Y-2024989D03*
G01*
X3252495Y-1974977D03*
G01*
X3252495Y-2024964D03*
G01*
X3175000Y-2024989D03*
G01*
X3175000Y-1975002D03*
G01*
X3124987Y-2024989D03*
G01*
X3124987Y-1975002D03*
G01*
X3075000Y-1975002D03*
G01*
X3075000Y-2024989D03*
G01*
X2824988Y-612495D03*
G01*
X2820771Y-687527D03*
G01*
X1799996Y-1799996D03*
G01*
X-2399995Y-1799996D03*
G01*
X-1799996Y-1799996D03*
G01*
X-2237486Y-1799996D03*
G01*
X2699994Y-1799996D03*
G01*
X450011Y449986D03*
G01*
X1475003Y1624990D03*
G01*
X1475003Y2024989D03*
G01*
X1087501Y1775002D03*
G01*
X1087501Y1375003D03*
G01*
X1075004Y1999995D03*
G01*
X1075004Y1599996D03*
G01*
X1999995Y1799996D03*
G01*
X599998Y1724990D03*
G01*
X-1175004Y224993D03*
G01*
X-1175004Y124993D03*
G01*
X-1149985Y-50012D03*
G01*
X-1049985Y-150012D03*
G01*
X-1899996Y1224991D03*
G01*
X-1599996Y1124991D03*
G01*
X-1124991Y1379981D03*
G01*
X-1624990Y1399997D03*
G01*
X-2249982Y899947D03*
G01*
X-2599994Y-999997D03*
G01*
X-1799996Y-999997D03*
G01*
X-1399997Y0D03*
G01*
X-1999995Y199999D03*
G01*
X-2599994Y1799996D03*
G01*
X-2399995Y1199997D03*
G01*
X-2399995Y999997D03*
G01*
X2799994Y1799996D03*
G01*
X2899994Y1099997D03*
G01*
X2999993Y999997D03*
G01*
X2924987Y799998D03*
G01*
X2924987Y724992D03*
G01*
X2499995Y749985D03*
G01*
X2499995Y675004D03*
G01*
X2399995Y599998D03*
G01*
X1999995Y-999997D03*
G01*
X2399995Y-799998D03*
G01*
X1799996Y-399999D03*
G01*
X2399995Y-599998D03*
G01*
X1799996Y199999D03*
G01*
X1999995Y799998D03*
G01*
X1499996Y1099997D03*
G01*
X0Y1799996D03*
G01*
X199999Y1799996D03*
G01*
X799998Y2099995D03*
G01*
X799998Y1699996D03*
G01*
X1849996Y1749996D03*
G01*
X-2799994Y0D03*
G01*
X-3199993Y-1599996D03*
G01*
X-2599994Y-1799996D03*
G01*
X-1599996Y-1799996D03*
G01*
X-324993Y-1899996D03*
G01*
X99999Y-1899996D03*
G01*
X999997Y-1799996D03*
G01*
X-2849981Y-1724990D03*
G01*
X-2049983Y-1799996D03*
M02*
